<svg id="Layer_1" data-name="Layer 1" xmlns="http://www.w3.org/2000/svg" viewBox="0 0 473.29 204.64"><defs><style>.cls-1{fill:#20201e;}.cls-2,.cls-3,.cls-4{fill:none;stroke:#20201e;}.cls-2{stroke-width:2px;}.cls-3{stroke-width:5px;}.cls-4{stroke-width:0.94px;}</style></defs><title>workflow</title><path class="cls-1" d="M3.69,24.87l-.36-1.19H1.5l-.36,1.19H0l1.76-5h1.3l1.77,5Zm-.62-2.08L2.51,21c0-.14-.07-.25-.09-.34q-.11.44-.65,2.16Z"/><path class="cls-1" d="M8.9,24.87h-1V22.64A1.07,1.07,0,0,0,7.71,22a.53.53,0,0,0-.47-.21.7.7,0,0,0-.63.29,1.81,1.81,0,0,0-.19,1v1.8h-1V21h.8l.14.49h.06a1.1,1.1,0,0,1,.48-.42,1.63,1.63,0,0,1,.7-.14,1.34,1.34,0,0,1,1,.36,1.45,1.45,0,0,1,.35,1Z"/><path class="cls-1" d="M12.4,24.87l-.2-.52h0a1.55,1.55,0,0,1-.54.46,1.76,1.76,0,0,1-.73.13,1.17,1.17,0,0,1-.87-.31,1.21,1.21,0,0,1-.32-.9,1,1,0,0,1,.43-.9,2.47,2.47,0,0,1,1.28-.32l.66,0v-.17a.52.52,0,0,0-.59-.58,2.71,2.71,0,0,0-1.08.28l-.35-.7A3.1,3.1,0,0,1,11.54,21a1.82,1.82,0,0,1,1.18.34,1.24,1.24,0,0,1,.41,1v2.55ZM12.1,23.1h-.4a1.28,1.28,0,0,0-.68.16.52.52,0,0,0-.22.46q0,.44.51.44a.8.8,0,0,0,.58-.21.73.73,0,0,0,.22-.55Z"/><path class="cls-1" d="M15.25,24.87h-1V19.55h1Z"/><path class="cls-1" d="M19.81,23a2.05,2.05,0,0,1-.49,1.46,1.79,1.79,0,0,1-1.37.53,1.91,1.91,0,0,1-1-.24,1.6,1.6,0,0,1-.65-.69A2.32,2.32,0,0,1,16.11,23a2,2,0,0,1,.49-1.46A1.79,1.79,0,0,1,18,21a1.93,1.93,0,0,1,1,.24,1.6,1.6,0,0,1,.65.69A2.3,2.3,0,0,1,19.81,23Zm-2.64,0a1.61,1.61,0,0,0,.19.86.67.67,0,0,0,.61.29.66.66,0,0,0,.6-.29,1.63,1.63,0,0,0,.18-.86,1.58,1.58,0,0,0-.18-.85.78.78,0,0,0-1.21,0A1.58,1.58,0,0,0,17.17,23Z"/><path class="cls-1" d="M24,21v.53l-.6.15a1,1,0,0,1,.16.57,1.16,1.16,0,0,1-.43,1,1.86,1.86,0,0,1-1.19.34h-.19l-.15,0a.35.35,0,0,0-.16.27c0,.15.19.23.57.23h.65a1.48,1.48,0,0,1,1,.27,1,1,0,0,1,.33.79,1.18,1.18,0,0,1-.56,1,2.91,2.91,0,0,1-1.6.37,2.22,2.22,0,0,1-1.22-.28.88.88,0,0,1-.42-.78.81.81,0,0,1,.22-.58,1.22,1.22,0,0,1,.63-.33.7.7,0,0,1-.28-.22.55.55,0,0,1,0-.69,1.47,1.47,0,0,1,.37-.29,1,1,0,0,1-.48-.42,1.27,1.27,0,0,1-.18-.68,1.19,1.19,0,0,1,.41-1A1.76,1.76,0,0,1,22,21l.38,0,.28,0Zm-2.95,4.36a.38.38,0,0,0,.21.34,1.14,1.14,0,0,0,.58.12,2.05,2.05,0,0,0,.88-.15A.47.47,0,0,0,23,25.3a.3.3,0,0,0-.19-.3,1.54,1.54,0,0,0-.58-.08h-.54a.82.82,0,0,0-.48.13A.42.42,0,0,0,21.05,25.41Zm.38-3.11a.78.78,0,0,0,.14.49A.51.51,0,0,0,22,23a.5.5,0,0,0,.43-.18.8.8,0,0,0,.14-.49q0-.69-.57-.69T21.43,22.3Z"/><path class="cls-1" d="M26.36,24.94a2,2,0,0,1-1.44-.51A1.93,1.93,0,0,1,24.4,23a2.12,2.12,0,0,1,.48-1.49A1.71,1.71,0,0,1,26.21,21a1.68,1.68,0,0,1,1.26.46,1.75,1.75,0,0,1,.45,1.28v.51H25.45a1,1,0,0,0,.26.69.93.93,0,0,0,.69.25,2.87,2.87,0,0,0,.65-.07,3.28,3.28,0,0,0,.64-.23v.81a2.48,2.48,0,0,1-.58.2A3.72,3.72,0,0,1,26.36,24.94Zm-.15-3.22a.66.66,0,0,0-.52.21,1,1,0,0,0-.22.6h1.46a.87.87,0,0,0-.2-.6A.68.68,0,0,0,26.21,21.72Z"/><path class="cls-1" d="M32.29,24.87h-1V22.64A1.07,1.07,0,0,0,31.1,22a.53.53,0,0,0-.47-.21.7.7,0,0,0-.63.29,1.81,1.81,0,0,0-.19,1v1.8h-1V21h.8l.14.49h.06a1.1,1.1,0,0,1,.48-.42,1.63,1.63,0,0,1,.7-.14,1.34,1.34,0,0,1,1,.36,1.45,1.45,0,0,1,.35,1Z"/><path class="cls-1" d="M37.38,24.87,36.18,21h0q.07,1.2.06,1.6v2.32h-.95v-5h1.44l1.18,3.82h0l1.25-3.82h1.44v5h-1V22.51c0-.11,0-.24,0-.39s0-.53,0-1.16h0l-1.29,3.91Z"/><path class="cls-1" d="M43.51,24.94a2,2,0,0,1-1.44-.51A1.93,1.93,0,0,1,41.55,23,2.12,2.12,0,0,1,42,21.5,1.71,1.71,0,0,1,43.36,21a1.68,1.68,0,0,1,1.26.46,1.75,1.75,0,0,1,.45,1.28v.51H42.61a1,1,0,0,0,.26.69.93.93,0,0,0,.69.25,2.87,2.87,0,0,0,.65-.07,3.28,3.28,0,0,0,.64-.23v.81a2.48,2.48,0,0,1-.58.2A3.72,3.72,0,0,1,43.51,24.94Zm-.15-3.22a.66.66,0,0,0-.52.21,1,1,0,0,0-.22.6H44.1a.87.87,0,0,0-.2-.6A.68.68,0,0,0,43.37,21.72Z"/><path class="cls-1" d="M47.13,24.94a1.24,1.24,0,0,1-1.06-.52A2.4,2.4,0,0,1,45.69,23a2.4,2.4,0,0,1,.39-1.46A1.27,1.27,0,0,1,47.16,21a1.25,1.25,0,0,1,1.1.56h0a4.28,4.28,0,0,1-.08-.76V19.55h1v5.32h-.8l-.2-.5h0A1.19,1.19,0,0,1,47.13,24.94Zm.37-.83a.71.71,0,0,0,.59-.23,1.36,1.36,0,0,0,.2-.79V23a1.57,1.57,0,0,0-.19-.88.71.71,0,0,0-.62-.27.61.61,0,0,0-.54.29,1.58,1.58,0,0,0-.19.86,1.5,1.5,0,0,0,.19.85A.64.64,0,0,0,47.5,24.11Z"/><path class="cls-1" d="M50.31,20.06q0-.51.57-.51t.57.51a.5.5,0,0,1-.14.38.6.6,0,0,1-.43.13C50.49,20.57,50.31,20.4,50.31,20.06Zm1.09,4.81h-1V21h1Z"/><path class="cls-1" d="M54.22,24.94a2,2,0,0,1-1.44-.51A1.93,1.93,0,0,1,52.25,23a2.12,2.12,0,0,1,.48-1.49A1.71,1.71,0,0,1,54.06,21a1.68,1.68,0,0,1,1.26.46,1.75,1.75,0,0,1,.45,1.28v.51H53.31a1,1,0,0,0,.26.69.93.93,0,0,0,.69.25,2.87,2.87,0,0,0,.65-.07,3.28,3.28,0,0,0,.64-.23v.81a2.48,2.48,0,0,1-.58.2A3.72,3.72,0,0,1,54.22,24.94Zm-.15-3.22a.66.66,0,0,0-.52.21,1,1,0,0,0-.22.6H54.8a.87.87,0,0,0-.2-.6A.68.68,0,0,0,54.07,21.72Z"/><path class="cls-1" d="M60.15,24.87h-1V22.64A1.07,1.07,0,0,0,59,22a.53.53,0,0,0-.47-.21.7.7,0,0,0-.63.29,1.81,1.81,0,0,0-.19,1v1.8h-1V21h.8l.14.49h.06a1.1,1.1,0,0,1,.48-.42,1.63,1.63,0,0,1,.7-.14,1.34,1.34,0,0,1,1,.36,1.45,1.45,0,0,1,.35,1Z"/><path class="cls-1" d="M421.23,24.87l-.62-1.59h-2L418,24.87h-.59l2-5h.49l2,5Zm-.8-2.11-.58-1.55q-.11-.29-.23-.72a6.81,6.81,0,0,1-.21.72l-.59,1.55Z"/><path class="cls-1" d="M423,21.13v2.43a1,1,0,0,0,.21.68.85.85,0,0,0,.65.23,1.06,1.06,0,0,0,.86-.32,1.62,1.62,0,0,0,.27-1v-2h.57v3.75h-.47l-.08-.5h0a1.14,1.14,0,0,1-.48.42,1.63,1.63,0,0,1-.71.15,1.44,1.44,0,0,1-1-.32,1.38,1.38,0,0,1-.34-1V21.13Z"/><path class="cls-1" d="M427.94,24.47l.29,0,.22,0v.43a1.06,1.06,0,0,1-.27.07l-.32,0q-1.09,0-1.09-1.14V21.57h-.54v-.27l.54-.24.24-.8h.33v.87h1.09v.44h-1.09v2.2a.76.76,0,0,0,.16.52A.56.56,0,0,0,427.94,24.47Z"/><path class="cls-1" d="M432.43,23a2.07,2.07,0,0,1-.46,1.43,1.63,1.63,0,0,1-1.28.51,1.68,1.68,0,0,1-.89-.24,1.56,1.56,0,0,1-.6-.68,2.36,2.36,0,0,1-.21-1,2.06,2.06,0,0,1,.46-1.43,1.62,1.62,0,0,1,1.27-.51,1.58,1.58,0,0,1,1.25.52A2.06,2.06,0,0,1,432.43,23Zm-2.85,0a1.78,1.78,0,0,0,.29,1.09,1.14,1.14,0,0,0,1.69,0,1.76,1.76,0,0,0,.29-1.1,1.74,1.74,0,0,0-.29-1.08,1,1,0,0,0-.85-.37,1,1,0,0,0-.84.37A1.76,1.76,0,0,0,429.58,23Z"/><path class="cls-1" d="M435.14,21.06a2.23,2.23,0,0,1,.45,0l-.08.53a1.94,1.94,0,0,0-.41-.05,1,1,0,0,0-.78.37,1.34,1.34,0,0,0-.32.92v2h-.57V21.13h.47l.07.69h0a1.65,1.65,0,0,1,.5-.56A1.13,1.13,0,0,1,435.14,21.06Z"/><path class="cls-1" d="M438.18,19.87l-1.86,5h-.57l1.86-5Z"/><path class="cls-1" d="M442.55,24.87h-.68L440,22.45l-.52.46v2h-.58v-5h.58v2.48l2.27-2.48h.69l-2,2.17Z"/><path class="cls-1" d="M443.69,21.13v2.43a1,1,0,0,0,.21.68.85.85,0,0,0,.65.23,1.06,1.06,0,0,0,.86-.32,1.62,1.62,0,0,0,.27-1v-2h.57v3.75h-.47l-.08-.5h0a1.14,1.14,0,0,1-.48.42,1.63,1.63,0,0,1-.71.15,1.44,1.44,0,0,1-1-.32,1.38,1.38,0,0,1-.34-1V21.13Z"/><path class="cls-1" d="M450,24.87V22.45a1,1,0,0,0-.21-.68.85.85,0,0,0-.65-.22,1.08,1.08,0,0,0-.86.32,1.6,1.6,0,0,0-.27,1v2h-.57V21.13h.46l.09.51h0a1.16,1.16,0,0,1,.49-.43,1.58,1.58,0,0,1,.7-.15,1.42,1.42,0,0,1,1,.33,1.39,1.39,0,0,1,.34,1v2.44Z"/><path class="cls-1" d="M454.3,24.37h0a1.33,1.33,0,0,1-1.18.57,1.39,1.39,0,0,1-1.14-.5,2.22,2.22,0,0,1-.41-1.43,2.25,2.25,0,0,1,.41-1.44,1.38,1.38,0,0,1,1.14-.51,1.36,1.36,0,0,1,1.17.55h0l0-.27V19.55h.57v5.32h-.46Zm-1.13.1a1,1,0,0,0,.84-.32,1.6,1.6,0,0,0,.26-1V23a1.88,1.88,0,0,0-.26-1.14,1,1,0,0,0-.85-.34.87.87,0,0,0-.76.39,1.92,1.92,0,0,0-.27,1.1,1.85,1.85,0,0,0,.26,1.08A.89.89,0,0,0,453.16,24.46Z"/><path class="cls-1" d="M457.62,24.94a1.72,1.72,0,0,1-1.31-.51,2,2,0,0,1-.48-1.4,2.17,2.17,0,0,1,.45-1.44,1.48,1.48,0,0,1,1.2-.53,1.41,1.41,0,0,1,1.11.46,1.78,1.78,0,0,1,.41,1.22v.36h-2.58a1.48,1.48,0,0,0,.33,1,1.15,1.15,0,0,0,.89.34,3,3,0,0,0,1.2-.25v.51a3,3,0,0,1-.57.19A3.17,3.17,0,0,1,457.62,24.94Zm-.15-3.41a.93.93,0,0,0-.72.29,1.36,1.36,0,0,0-.32.81h2a1.25,1.25,0,0,0-.24-.82A.84.84,0,0,0,457.46,21.53Z"/><path class="cls-1" d="M126.62,6h-2.88V1h2.88v.87H124.8V3h1.69v.87H124.8V5.12h1.82Z"/><path class="cls-1" d="M131.1,6h-1V3.77a1.07,1.07,0,0,0-.15-.62.53.53,0,0,0-.47-.21.7.7,0,0,0-.63.29,1.81,1.81,0,0,0-.19,1V6h-1V2.18h.8l.14.49h.06a1.1,1.1,0,0,1,.48-.42,1.63,1.63,0,0,1,.7-.14,1.34,1.34,0,0,1,1,.36,1.45,1.45,0,0,1,.35,1Z"/><path class="cls-1" d="M133.79,5.24a2.25,2.25,0,0,0,.66-.12v.78a2.36,2.36,0,0,1-1,.17,1.17,1.17,0,0,1-.91-.32,1.37,1.37,0,0,1-.29-.95V3h-.5V2.52l.57-.35.3-.81h.67v.81h1.07V3h-1.07V4.8a.41.41,0,0,0,.13.33A.49.49,0,0,0,133.79,5.24Z"/><path class="cls-1" d="M138.36,6l-.29-1.34L137.67,3h0l-.7,3h-1.12l-1.09-3.82h1l.44,1.69q.11.45.22,1.25h0a7.07,7.07,0,0,1,.12-.82l.05-.29.47-1.83h1.15L138.69,4l0,.22.06.31,0,.32c0,.11,0,.19,0,.25h0q0-.25.11-.67t.11-.58l.46-1.69h1L139.49,6Z"/><path class="cls-1" d="M141.16,1.19q0-.51.57-.51t.57.51a.5.5,0,0,1-.14.38.6.6,0,0,1-.43.13C141.35,1.7,141.16,1.53,141.16,1.19ZM142.25,6h-1V2.18h1Z"/><path class="cls-1" d="M144.9,6.07q-1.78,0-1.78-2a2.09,2.09,0,0,1,.49-1.49A1.82,1.82,0,0,1,145,2.11a2.64,2.64,0,0,1,1.19.26l-.31.81L145.41,3a1.48,1.48,0,0,0-.42-.06q-.81,0-.81,1.16T145,5.22a1.85,1.85,0,0,0,.56-.08,2,2,0,0,0,.51-.25v.89a1.69,1.69,0,0,1-.51.22A2.88,2.88,0,0,1,144.9,6.07Z"/><path class="cls-1" d="M147.94,3.92l.45-.58,1.07-1.16h1.18l-1.52,1.66L150.74,6h-1.2l-1.1-1.55-.45.36V6h-1V.68h1V3.05l-.05.87Z"/><path class="cls-1" d="M152.33,6h-1V.68h1Z"/><path class="cls-1" d="M156.13,6,156,5.51h-.05a1.1,1.1,0,0,1-.48.41,1.62,1.62,0,0,1-.7.15,1.34,1.34,0,0,1-1-.36,1.45,1.45,0,0,1-.34-1V2.18h1V4.41a1.07,1.07,0,0,0,.15.62.54.54,0,0,0,.47.21.7.7,0,0,0,.63-.29,1.81,1.81,0,0,0,.19-1V2.18h1V6Z"/><path class="cls-1" d="M161.55,6h-1V3.77a1.07,1.07,0,0,0-.15-.62.53.53,0,0,0-.47-.21.7.7,0,0,0-.63.29,1.81,1.81,0,0,0-.19,1V6h-1V2.18h.8l.14.49H159a1.1,1.1,0,0,1,.48-.42,1.63,1.63,0,0,1,.7-.14,1.34,1.34,0,0,1,1,.36,1.45,1.45,0,0,1,.35,1Z"/><path class="cls-1" d="M165.95,2.18v.53l-.6.15a1,1,0,0,1,.16.57,1.16,1.16,0,0,1-.43,1,1.86,1.86,0,0,1-1.19.34h-.19l-.15,0a.35.35,0,0,0-.16.27c0,.15.19.23.57.23h.65a1.48,1.48,0,0,1,1,.27,1,1,0,0,1,.33.79,1.18,1.18,0,0,1-.56,1,2.91,2.91,0,0,1-1.6.37,2.22,2.22,0,0,1-1.22-.28.88.88,0,0,1-.42-.78.81.81,0,0,1,.22-.58,1.22,1.22,0,0,1,.63-.33.7.7,0,0,1-.28-.22.55.55,0,0,1,0-.69,1.47,1.47,0,0,1,.37-.29,1,1,0,0,1-.48-.42,1.27,1.27,0,0,1-.18-.68,1.19,1.19,0,0,1,.41-1A1.76,1.76,0,0,1,164,2.11l.38,0,.28,0ZM163,6.54a.38.38,0,0,0,.21.34,1.14,1.14,0,0,0,.58.12,2.05,2.05,0,0,0,.88-.15.47.47,0,0,0,.32-.42.3.3,0,0,0-.19-.3,1.54,1.54,0,0,0-.58-.08h-.54a.82.82,0,0,0-.48.13A.42.42,0,0,0,163,6.54Zm.38-3.11a.78.78,0,0,0,.14.49.51.51,0,0,0,.43.18.5.5,0,0,0,.43-.18.8.8,0,0,0,.14-.49q0-.69-.57-.69T163.38,3.43Z"/><path class="cls-1" d="M230,3.19h2V5.78a5.59,5.59,0,0,1-.91.22,5.92,5.92,0,0,1-.87.06,2.2,2.2,0,0,1-1.73-.67,2.77,2.77,0,0,1-.6-1.91,2.52,2.52,0,0,1,.69-1.89,2.63,2.63,0,0,1,1.92-.68,3.71,3.71,0,0,1,1.48.31l-.35.85a2.52,2.52,0,0,0-1.14-.27,1.41,1.41,0,0,0-1.1.46A1.79,1.79,0,0,0,229,3.51a2,2,0,0,0,.33,1.24,1.15,1.15,0,0,0,1,.43,3.4,3.4,0,0,0,.67-.07v-1H230Z"/><path class="cls-1" d="M234.82,6.07a2,2,0,0,1-1.44-.51,1.93,1.93,0,0,1-.52-1.44,2.12,2.12,0,0,1,.48-1.49,1.71,1.71,0,0,1,1.33-.52,1.68,1.68,0,0,1,1.26.46,1.75,1.75,0,0,1,.45,1.28v.51h-2.46a1,1,0,0,0,.26.69.93.93,0,0,0,.69.25,2.87,2.87,0,0,0,.65-.07,3.28,3.28,0,0,0,.64-.23V5.8a2.48,2.48,0,0,1-.58.2A3.72,3.72,0,0,1,234.82,6.07Zm-.15-3.22a.66.66,0,0,0-.52.21,1,1,0,0,0-.22.6h1.46a.87.87,0,0,0-.2-.6A.68.68,0,0,0,234.67,2.85Z"/><path class="cls-1" d="M239.89,4.86a1.05,1.05,0,0,1-.41.9,2,2,0,0,1-1.22.31,3.79,3.79,0,0,1-.71-.06,2.64,2.64,0,0,1-.55-.17V5a3.6,3.6,0,0,0,.65.23,2.66,2.66,0,0,0,.64.09q.57,0,.57-.33a.27.27,0,0,0-.08-.2,1.09,1.09,0,0,0-.26-.17L238,4.38a3.12,3.12,0,0,1-.65-.34,1,1,0,0,1-.3-.36,1.19,1.19,0,0,1-.09-.5.91.91,0,0,1,.39-.79,1.93,1.93,0,0,1,1.12-.28,3.17,3.17,0,0,1,1.34.3l-.31.75L239,3a1.68,1.68,0,0,0-.51-.08c-.31,0-.46.08-.46.25a.29.29,0,0,0,.15.24,4,4,0,0,0,.65.3,3.08,3.08,0,0,1,.66.34,1,1,0,0,1,.31.36A1.11,1.11,0,0,1,239.89,4.86Z"/><path class="cls-1" d="M242.31,5.24a2.26,2.26,0,0,0,.66-.12v.78a2.36,2.36,0,0,1-1,.17,1.17,1.17,0,0,1-.91-.32,1.37,1.37,0,0,1-.29-.95V3h-.5V2.52l.57-.35.3-.81h.67v.81h1.07V3h-1.07V4.8a.4.4,0,0,0,.13.33A.49.49,0,0,0,242.31,5.24Z"/><path class="cls-1" d="M246.17,6l-.2-.52h0a1.55,1.55,0,0,1-.54.46,1.76,1.76,0,0,1-.73.13,1.17,1.17,0,0,1-.87-.31,1.21,1.21,0,0,1-.32-.9,1,1,0,0,1,.43-.9,2.46,2.46,0,0,1,1.28-.32l.66,0V3.45a.52.52,0,0,0-.59-.58,2.71,2.71,0,0,0-1.08.28l-.34-.7a3.1,3.1,0,0,1,1.46-.35,1.82,1.82,0,0,1,1.18.34,1.24,1.24,0,0,1,.41,1V6Zm-.31-1.77h-.4a1.29,1.29,0,0,0-.68.16.52.52,0,0,0-.22.46q0,.44.51.44a.8.8,0,0,0,.58-.21.73.73,0,0,0,.22-.55Z"/><path class="cls-1" d="M249,6h-1V.68h1Z"/><path class="cls-1" d="M251.72,5.24a2.26,2.26,0,0,0,.66-.12v.78a2.35,2.35,0,0,1-1,.17,1.17,1.17,0,0,1-.91-.32,1.37,1.37,0,0,1-.29-.95V3h-.5V2.52l.57-.35.3-.81h.67v.81h1.07V3h-1.07V4.8a.41.41,0,0,0,.13.33A.5.5,0,0,0,251.72,5.24Z"/><path class="cls-1" d="M255.85,6l-.14-.49h-.05a1.1,1.1,0,0,1-.48.41,1.62,1.62,0,0,1-.7.15,1.34,1.34,0,0,1-1-.36,1.45,1.45,0,0,1-.34-1V2.18h1V4.41a1.08,1.08,0,0,0,.15.62.54.54,0,0,0,.47.21.7.7,0,0,0,.63-.29,1.81,1.81,0,0,0,.19-1V2.18h1V6Z"/><path class="cls-1" d="M261.27,6h-1V3.77a1.07,1.07,0,0,0-.15-.62.53.53,0,0,0-.47-.21.7.7,0,0,0-.63.29,1.81,1.81,0,0,0-.19,1V6h-1V2.18h.8l.14.49h.06a1.11,1.11,0,0,1,.48-.42,1.63,1.63,0,0,1,.7-.14,1.33,1.33,0,0,1,1,.36,1.44,1.44,0,0,1,.35,1Z"/><path class="cls-1" d="M265.67,2.18v.53l-.6.15a1,1,0,0,1,.16.57,1.16,1.16,0,0,1-.43,1,1.86,1.86,0,0,1-1.19.34h-.19l-.15,0a.35.35,0,0,0-.16.27c0,.15.19.23.57.23h.65a1.48,1.48,0,0,1,1,.27,1,1,0,0,1,.33.79,1.18,1.18,0,0,1-.56,1,2.91,2.91,0,0,1-1.6.37,2.23,2.23,0,0,1-1.22-.28.88.88,0,0,1-.42-.78A.82.82,0,0,1,262,6a1.23,1.23,0,0,1,.63-.33.69.69,0,0,1-.28-.22.55.55,0,0,1,0-.69,1.47,1.47,0,0,1,.37-.29,1,1,0,0,1-.48-.42,1.27,1.27,0,0,1-.18-.68,1.19,1.19,0,0,1,.41-1,1.76,1.76,0,0,1,1.16-.34l.38,0,.28,0Zm-2.95,4.36a.38.38,0,0,0,.21.34,1.13,1.13,0,0,0,.58.12,2,2,0,0,0,.88-.15.47.47,0,0,0,.32-.42.3.3,0,0,0-.19-.3,1.55,1.55,0,0,0-.58-.08h-.54a.82.82,0,0,0-.48.13A.42.42,0,0,0,262.72,6.54Zm.38-3.11a.78.78,0,0,0,.14.49.51.51,0,0,0,.43.18.51.51,0,0,0,.43-.18.8.8,0,0,0,.14-.49q0-.69-.57-.69T263.1,3.43Z"/><path class="cls-1" d="M330.81,4.08V6h-1.06V1h1.46a2.49,2.49,0,0,1,1.51.37,1.32,1.32,0,0,1,.49,1.13,1.32,1.32,0,0,1-.24.78,1.59,1.59,0,0,1-.69.54q1.13,1.69,1.47,2.18h-1.18l-1.19-1.92Zm0-.86h.34a1.31,1.31,0,0,0,.74-.17.6.6,0,0,0,.24-.53.55.55,0,0,0-.25-.51,1.48,1.48,0,0,0-.76-.15h-.32Z"/><path class="cls-1" d="M336,6.07a2,2,0,0,1-1.44-.51,1.93,1.93,0,0,1-.52-1.44,2.12,2.12,0,0,1,.48-1.49,1.71,1.71,0,0,1,1.33-.52,1.68,1.68,0,0,1,1.26.46,1.75,1.75,0,0,1,.45,1.28v.51h-2.46a1,1,0,0,0,.26.69.93.93,0,0,0,.69.25,2.86,2.86,0,0,0,.65-.07,3.27,3.27,0,0,0,.64-.23V5.8a2.47,2.47,0,0,1-.58.2A3.72,3.72,0,0,1,336,6.07Zm-.15-3.22a.66.66,0,0,0-.52.21,1,1,0,0,0-.21.6h1.46a.87.87,0,0,0-.2-.6A.69.69,0,0,0,335.88,2.85Z"/><path class="cls-1" d="M340.86,6l-.2-.52h0a1.55,1.55,0,0,1-.54.46,1.76,1.76,0,0,1-.73.13,1.17,1.17,0,0,1-.87-.31,1.21,1.21,0,0,1-.32-.9,1,1,0,0,1,.43-.9,2.46,2.46,0,0,1,1.28-.32l.66,0V3.45a.52.52,0,0,0-.59-.58,2.71,2.71,0,0,0-1.08.28l-.35-.7A3.1,3.1,0,0,1,340,2.1a1.82,1.82,0,0,1,1.18.34,1.24,1.24,0,0,1,.41,1V6Zm-.31-1.77h-.4a1.28,1.28,0,0,0-.68.16.52.52,0,0,0-.22.46c0,.29.17.44.51.44a.8.8,0,0,0,.58-.21.73.73,0,0,0,.22-.55Z"/><path class="cls-1" d="M343.7,6h-1V.68h1Z"/><path class="cls-1" d="M344.75,1.19q0-.51.57-.51t.57.51a.49.49,0,0,1-.14.38.6.6,0,0,1-.42.13C344.94,1.7,344.75,1.53,344.75,1.19ZM345.84,6h-1V2.18h1Z"/><path class="cls-1" d="M349.6,4.86a1.05,1.05,0,0,1-.41.9,2,2,0,0,1-1.22.31,3.79,3.79,0,0,1-.71-.06,2.67,2.67,0,0,1-.55-.17V5a3.61,3.61,0,0,0,.65.23,2.67,2.67,0,0,0,.64.09q.57,0,.57-.33a.27.27,0,0,0-.08-.2,1.08,1.08,0,0,0-.26-.17l-.49-.23a3.1,3.1,0,0,1-.65-.34,1,1,0,0,1-.3-.36,1.19,1.19,0,0,1-.09-.5.91.91,0,0,1,.39-.79,1.93,1.93,0,0,1,1.12-.28,3.17,3.17,0,0,1,1.34.3l-.31.75L348.7,3a1.67,1.67,0,0,0-.51-.08c-.31,0-.46.08-.46.25a.29.29,0,0,0,.15.24,4.09,4.09,0,0,0,.65.3,3.09,3.09,0,0,1,.66.34,1,1,0,0,1,.31.36A1.11,1.11,0,0,1,349.6,4.86Z"/><path class="cls-1" d="M352.84,6l-.2-.52h0a1.55,1.55,0,0,1-.54.46,1.76,1.76,0,0,1-.73.13,1.17,1.17,0,0,1-.87-.31,1.21,1.21,0,0,1-.32-.9,1,1,0,0,1,.43-.9,2.46,2.46,0,0,1,1.28-.32l.66,0V3.45a.52.52,0,0,0-.59-.58,2.71,2.71,0,0,0-1.08.28l-.34-.7A3.1,3.1,0,0,1,352,2.1a1.82,1.82,0,0,1,1.18.34,1.24,1.24,0,0,1,.41,1V6Zm-.31-1.77h-.4a1.29,1.29,0,0,0-.68.16.52.52,0,0,0-.22.46q0,.44.51.44a.8.8,0,0,0,.58-.21.73.73,0,0,0,.22-.55Z"/><path class="cls-1" d="M356.25,5.24a2.25,2.25,0,0,0,.66-.12v.78a2.35,2.35,0,0,1-1,.17,1.17,1.17,0,0,1-.91-.32,1.37,1.37,0,0,1-.29-.95V3h-.5V2.52l.57-.35.3-.81h.67v.81h1.07V3h-1.07V4.8a.41.41,0,0,0,.13.33A.49.49,0,0,0,356.25,5.24Z"/><path class="cls-1" d="M357.63,1.19q0-.51.57-.51t.57.51a.49.49,0,0,1-.14.38.59.59,0,0,1-.42.13C357.82,1.7,357.63,1.53,357.63,1.19ZM358.72,6h-1V2.18h1Z"/><path class="cls-1" d="M363.29,4.08a2.05,2.05,0,0,1-.49,1.46,1.79,1.79,0,0,1-1.37.53,1.91,1.91,0,0,1-1-.24,1.6,1.6,0,0,1-.65-.69,2.32,2.32,0,0,1-.23-1.05,2,2,0,0,1,.49-1.46,1.79,1.79,0,0,1,1.37-.52,1.93,1.93,0,0,1,1,.24,1.6,1.6,0,0,1,.65.69A2.3,2.3,0,0,1,363.29,4.08Zm-2.64,0a1.61,1.61,0,0,0,.19.86.67.67,0,0,0,.61.29.66.66,0,0,0,.6-.29,1.64,1.64,0,0,0,.18-.86,1.58,1.58,0,0,0-.18-.85.78.78,0,0,0-1.21,0A1.58,1.58,0,0,0,360.64,4.08Z"/><path class="cls-1" d="M367.67,6h-1V3.77a1.07,1.07,0,0,0-.15-.62.53.53,0,0,0-.47-.21.7.7,0,0,0-.63.29,1.81,1.81,0,0,0-.2,1V6h-1V2.18h.8l.14.49h.06a1.09,1.09,0,0,1,.48-.42,1.64,1.64,0,0,1,.7-.14,1.34,1.34,0,0,1,1,.36,1.45,1.45,0,0,1,.34,1Z"/><path class="cls-1" d="M420.29,46.26H422v2.43a5.6,5.6,0,0,1-.81.19,6.19,6.19,0,0,1-1,.06,2.3,2.3,0,0,1-1.77-.67,2.66,2.66,0,0,1-.63-1.89,2.86,2.86,0,0,1,.31-1.37,2.1,2.1,0,0,1,.9-.9,2.92,2.92,0,0,1,1.38-.31,3.78,3.78,0,0,1,1.49.29l-.23.51a3.33,3.33,0,0,0-1.3-.29,1.86,1.86,0,0,0-1.43.54,2.11,2.11,0,0,0-.51,1.51,2.16,2.16,0,0,0,.49,1.53,1.9,1.9,0,0,0,1.45.52,4.29,4.29,0,0,0,1-.12V46.78h-1.12Z"/><path class="cls-1" d="M424.68,48.94a1.72,1.72,0,0,1-1.31-.51,2,2,0,0,1-.48-1.4,2.17,2.17,0,0,1,.45-1.44,1.48,1.48,0,0,1,1.2-.53,1.41,1.41,0,0,1,1.11.46,1.78,1.78,0,0,1,.41,1.22v.36h-2.58a1.48,1.48,0,0,0,.33,1,1.15,1.15,0,0,0,.89.34,3,3,0,0,0,1.2-.25v.51a3,3,0,0,1-.57.19A3.17,3.17,0,0,1,424.68,48.94Zm-.15-3.41a.93.93,0,0,0-.72.29,1.36,1.36,0,0,0-.32.81h2a1.25,1.25,0,0,0-.24-.82A.84.84,0,0,0,424.53,45.53Z"/><path class="cls-1" d="M429.44,47.85a.94.94,0,0,1-.39.81,1.84,1.84,0,0,1-1.09.28,2.37,2.37,0,0,1-1.16-.24v-.53a2.86,2.86,0,0,0,.58.21,2.41,2.41,0,0,0,.6.08,1.35,1.35,0,0,0,.68-.14.49.49,0,0,0,0-.81,3,3,0,0,0-.74-.37,4.09,4.09,0,0,1-.74-.34,1,1,0,0,1-.33-.33.88.88,0,0,1-.11-.44.84.84,0,0,1,.37-.72,1.73,1.73,0,0,1,1-.26,3,3,0,0,1,1.18.25l-.2.46a2.73,2.73,0,0,0-1-.23,1.18,1.18,0,0,0-.61.13.39.39,0,0,0-.21.35.43.43,0,0,0,.08.26.76.76,0,0,0,.25.2,5.53,5.53,0,0,0,.66.28,2.44,2.44,0,0,1,.9.49A.86.86,0,0,1,429.44,47.85Z"/><path class="cls-1" d="M431.58,48.47l.29,0,.22,0v.43a1.06,1.06,0,0,1-.27.07l-.32,0q-1.09,0-1.09-1.14V45.57h-.54V45.3l.54-.24.24-.8H431v.87h1.09v.44H431v2.2a.76.76,0,0,0,.16.52A.56.56,0,0,0,431.58,48.47Z"/><path class="cls-1" d="M435.14,48.87l-.11-.53h0a1.57,1.57,0,0,1-.56.48,1.7,1.7,0,0,1-.7.13,1.25,1.25,0,0,1-.87-.29,1,1,0,0,1-.32-.82q0-1.14,1.82-1.19l.64,0V46.4a1,1,0,0,0-.19-.65.78.78,0,0,0-.61-.21,2.47,2.47,0,0,0-1.06.29l-.17-.43a2.68,2.68,0,0,1,.61-.24,2.65,2.65,0,0,1,.66-.08,1.42,1.42,0,0,1,1,.3,1.24,1.24,0,0,1,.32,1v2.56Zm-1.28-.4a1.15,1.15,0,0,0,.83-.29,1.08,1.08,0,0,0,.3-.81V47l-.57,0a2.06,2.06,0,0,0-1,.21.63.63,0,0,0-.3.58.59.59,0,0,0,.19.47A.77.77,0,0,0,433.86,48.47Z"/><path class="cls-1" d="M437.3,48.87h-.57V43.56h.57Z"/><path class="cls-1" d="M439.71,48.47l.29,0,.22,0v.43a1.06,1.06,0,0,1-.27.07l-.32,0q-1.09,0-1.09-1.14V45.57H438V45.3l.54-.24.24-.8h.33v.87h1.09v.44h-1.09v2.2a.76.76,0,0,0,.16.52A.56.56,0,0,0,439.71,48.47Z"/><path class="cls-1" d="M442.56,48.94a1.72,1.72,0,0,1-1.31-.51,2,2,0,0,1-.48-1.4,2.17,2.17,0,0,1,.45-1.44,1.49,1.49,0,0,1,1.2-.53,1.41,1.41,0,0,1,1.11.46,1.78,1.78,0,0,1,.41,1.22v.36h-2.58a1.48,1.48,0,0,0,.33,1,1.15,1.15,0,0,0,.89.34,3,3,0,0,0,1.2-.25v.51a3,3,0,0,1-.57.19A3.17,3.17,0,0,1,442.56,48.94Zm-.15-3.41a.92.92,0,0,0-.72.29,1.34,1.34,0,0,0-.32.81h2a1.24,1.24,0,0,0-.24-.82A.84.84,0,0,0,442.4,45.53Z"/><path class="cls-1" d="M446.61,45.06a2.23,2.23,0,0,1,.45,0l-.08.53a1.94,1.94,0,0,0-.41-.05,1,1,0,0,0-.78.37,1.34,1.34,0,0,0-.32.92v2h-.57V45.13h.47l.07.69h0a1.65,1.65,0,0,1,.5-.56A1.13,1.13,0,0,1,446.61,45.06Z"/><path class="cls-1" d="M421.26,69.34a1.4,1.4,0,0,1-.52,1.17,2.35,2.35,0,0,1-1.48.41h-.59v2h-.58v-5h1.3Q421.26,67.88,421.26,69.34Zm-2.59,1.08h.52a2,2,0,0,0,1.12-.25.92.92,0,0,0,.35-.8.86.86,0,0,0-.33-.74,1.69,1.69,0,0,0-1-.24h-.65Z"/><path class="cls-1" d="M423.93,69.06a2.23,2.23,0,0,1,.45,0l-.08.53a1.94,1.94,0,0,0-.41-.05,1,1,0,0,0-.78.37,1.34,1.34,0,0,0-.32.92v2h-.57V69.13h.47l.07.69h0a1.65,1.65,0,0,1,.5-.56A1.13,1.13,0,0,1,423.93,69.06Z"/><path class="cls-1" d="M428.31,71a2.07,2.07,0,0,1-.46,1.43,1.63,1.63,0,0,1-1.28.51,1.68,1.68,0,0,1-.89-.24,1.56,1.56,0,0,1-.6-.68,2.37,2.37,0,0,1-.21-1,2.07,2.07,0,0,1,.46-1.43,1.62,1.62,0,0,1,1.27-.51,1.58,1.58,0,0,1,1.25.52A2.06,2.06,0,0,1,428.31,71Zm-2.85,0a1.78,1.78,0,0,0,.29,1.09,1.14,1.14,0,0,0,1.69,0,1.76,1.76,0,0,0,.29-1.1,1.74,1.74,0,0,0-.29-1.08,1,1,0,0,0-.85-.37,1,1,0,0,0-.84.37A1.76,1.76,0,0,0,425.46,71Z"/><path class="cls-1" d="M431.85,72.38h0a1.33,1.33,0,0,1-1.18.57,1.39,1.39,0,0,1-1.14-.5A2.21,2.21,0,0,1,429.1,71a2.25,2.25,0,0,1,.41-1.44,1.38,1.38,0,0,1,1.14-.51,1.36,1.36,0,0,1,1.17.55h0l0-.27V67.56h.57v5.32h-.46Zm-1.13.1a1,1,0,0,0,.84-.32,1.6,1.6,0,0,0,.26-1V71a1.87,1.87,0,0,0-.27-1.14,1,1,0,0,0-.85-.34.87.87,0,0,0-.76.39,1.93,1.93,0,0,0-.26,1.1,1.85,1.85,0,0,0,.26,1.08A.89.89,0,0,0,430.72,72.47Z"/><path class="cls-1" d="M434.13,69.13v2.43a1,1,0,0,0,.21.68.85.85,0,0,0,.65.23,1.06,1.06,0,0,0,.86-.32,1.62,1.62,0,0,0,.27-1v-2h.57v3.75h-.47l-.08-.5h0a1.14,1.14,0,0,1-.48.42,1.63,1.63,0,0,1-.71.15,1.44,1.44,0,0,1-1-.32,1.38,1.38,0,0,1-.34-1V69.13Z"/><path class="cls-1" d="M440.29,72.88h-2.72v-.39l2-2.92H437.7v-.44h2.54v.44l-2,2.86h2.07Z"/><path class="cls-1" d="M442.75,72.95a1.72,1.72,0,0,1-1.31-.51A2,2,0,0,1,441,71a2.17,2.17,0,0,1,.45-1.44,1.49,1.49,0,0,1,1.2-.53,1.41,1.41,0,0,1,1.11.46,1.78,1.78,0,0,1,.41,1.22v.36h-2.58a1.48,1.48,0,0,0,.33,1,1.15,1.15,0,0,0,.89.34,3,3,0,0,0,1.2-.25v.51a3,3,0,0,1-.57.19A3.17,3.17,0,0,1,442.75,72.95Zm-.15-3.41a.92.92,0,0,0-.72.29,1.34,1.34,0,0,0-.32.81h2a1.24,1.24,0,0,0-.24-.82A.84.84,0,0,0,442.59,69.54Z"/><path class="cls-1" d="M447.66,72.88V70.45a1,1,0,0,0-.21-.68.85.85,0,0,0-.65-.22,1.07,1.07,0,0,0-.86.32,1.61,1.61,0,0,0-.27,1v2h-.57V69.13h.46l.09.51h0a1.16,1.16,0,0,1,.49-.43,1.59,1.59,0,0,1,.7-.15,1.42,1.42,0,0,1,1,.33,1.39,1.39,0,0,1,.34,1v2.44Z"/><path class="cls-1" d="M450.6,72.48l.29,0,.22,0v.43a1.05,1.05,0,0,1-.27.07l-.32,0q-1.09,0-1.09-1.14V69.57h-.54V69.3l.54-.24.24-.8H450v.87h1.09v.44H450v2.2a.76.76,0,0,0,.16.52A.56.56,0,0,0,450.6,72.48Z"/><line class="cls-2" x1="93.54" y1="18.64" x2="93.54" y2="30.64"/><line class="cls-2" x1="195.59" y1="18.64" x2="195.59" y2="30.64"/><line class="cls-2" x1="297.64" y1="18.64" x2="297.64" y2="30.64"/><line class="cls-2" x1="399.68" y1="18.64" x2="399.68" y2="30.64"/><line class="cls-3" x1="93.54" y1="24.64" x2="195.59" y2="24.64"/><path class="cls-4" d="M297.17,22.14v5m-2.53-5v5m-2.53-5v5m-2.53-5v5m-2.53-5v5m-2.53-5v5m-2.53-5v5m-2.53-5v5m-2.53-5v5m-2.53-5v5m-2.53-5v5m-2.53-5v5m-2.53-5v5m-2.53-5v5m-2.53-5v5m-2.53-5v5m-2.53-5v5m-2.53-5v5m-2.53-5v5m-2.53-5v5m-2.53-5v5m-2.53-5v5m-2.53-5v5m-2.53-5v5m-2.53-5v5m-2.53-5v5m-2.53-5v5m-2.53-5v5m-2.53-5v5m-2.53-5v5m-2.53-5v5m-2.53-5v5m-2.53-5v5m-2.53-5v5m-2.53-5v5m-2.53-5v5m-2.53-5v5m-2.53-5v5m-2.53-5v5m-2.53-5v5m-2.53-5v5"/><line class="cls-2" x1="93.54" y1="42.64" x2="93.54" y2="54.64"/><line class="cls-2" x1="195.59" y1="42.64" x2="195.59" y2="54.64"/><line class="cls-2" x1="297.64" y1="42.64" x2="297.64" y2="54.64"/><line class="cls-2" x1="399.68" y1="42.64" x2="399.68" y2="54.64"/><path class="cls-4" d="M195.12,46.14v5m-2.53-5v5m-2.53-5v5m-2.53-5v5m-2.53-5v5m-2.53-5v5m-2.53-5v5m-2.53-5v5m-2.53-5v5m-2.53-5v5m-2.53-5v5m-2.53-5v5m-2.53-5v5m-2.53-5v5m-2.53-5v5m-2.53-5v5m-2.53-5v5m-2.53-5v5m-2.53-5v5m-2.53-5v5m-2.53-5v5m-2.53-5v5m-2.53-5v5m-2.53-5v5m-2.53-5v5m-2.53-5v5m-2.53-5v5m-2.53-5v5m-2.53-5v5m-2.53-5v5m-2.53-5v5m-2.53-5v5m-2.53-5v5m-2.53-5v5m-2.53-5v5m-2.53-5v5m-2.53-5v5m-2.53-5v5m-2.53-5v5m-2.53-5v5m-2.53-5v5"/><line class="cls-3" x1="195.59" y1="48.64" x2="297.64" y2="48.64"/><path class="cls-4" d="M399.22,46.14v5m-2.53-5v5m-2.53-5v5m-2.53-5v5m-2.53-5v5m-2.53-5v5m-2.53-5v5m-2.53-5v5m-2.53-5v5m-2.53-5v5m-2.53-5v5m-2.53-5v5m-2.53-5v5m-2.53-5v5m-2.53-5v5m-2.53-5v5m-2.53-5v5m-2.53-5v5m-2.53-5v5m-2.53-5v5m-2.53-5v5m-2.53-5v5m-2.53-5v5m-2.53-5v5m-2.53-5v5m-2.53-5v5m-2.53-5v5m-2.53-5v5m-2.53-5v5m-2.53-5v5m-2.53-5v5m-2.53-5v5m-2.53-5v5m-2.53-5v5m-2.53-5v5m-2.53-5v5m-2.53-5v5m-2.53-5v5m-2.53-5v5m-2.53-5v5m-2.53-5v5"/><line class="cls-2" x1="93.54" y1="66.64" x2="93.54" y2="78.64"/><line class="cls-2" x1="195.59" y1="66.64" x2="195.59" y2="78.64"/><line class="cls-2" x1="297.64" y1="66.64" x2="297.64" y2="78.64"/><line class="cls-2" x1="399.68" y1="66.64" x2="399.68" y2="78.64"/><path class="cls-4" d="M297.17,70.14v5m-2.53-5v5m-2.53-5v5m-2.53-5v5m-2.53-5v5m-2.53-5v5m-2.53-5v5m-2.53-5v5m-2.53-5v5m-2.53-5v5m-2.53-5v5m-2.53-5v5m-2.53-5v5m-2.53-5v5m-2.53-5v5m-2.53-5v5m-2.53-5v5m-2.53-5v5m-2.53-5v5m-2.53-5v5m-2.53-5v5m-2.53-5v5m-2.53-5v5m-2.53-5v5m-2.53-5v5m-2.53-5v5m-2.53-5v5m-2.53-5v5m-2.53-5v5m-2.53-5v5m-2.53-5v5m-2.53-5v5m-2.53-5v5m-2.53-5v5m-2.53-5v5m-2.53-5v5m-2.53-5v5m-2.53-5v5m-2.53-5v5m-2.53-5v5m-2.53-5v5"/><line class="cls-3" x1="297.64" y1="72.64" x2="399.68" y2="72.64"/><path class="cls-1" d="M5.5,150.87H4.29l-.68-2.62c0-.09-.07-.29-.13-.58s-.09-.49-.1-.59q0,.18-.1.59t-.13.58l-.67,2.62H1.27l-1.27-5H1l.64,2.73q.17.76.24,1.31,0-.19.09-.6t.14-.63l.73-2.8h1l.73,2.8q0,.19.12.57c0,.26.08.48.11.66,0-.18.06-.4.11-.66s.1-.48.14-.64l.64-2.73h1Z"/><path class="cls-1" d="M9,150.94a2,2,0,0,1-1.44-.51A1.93,1.93,0,0,1,7.08,149a2.12,2.12,0,0,1,.48-1.49A1.71,1.71,0,0,1,8.89,147a1.68,1.68,0,0,1,1.26.46,1.75,1.75,0,0,1,.45,1.28v.51H8.14a1,1,0,0,0,.26.69.93.93,0,0,0,.69.25,2.87,2.87,0,0,0,.65-.07,3.28,3.28,0,0,0,.64-.23v.81a2.48,2.48,0,0,1-.58.2A3.72,3.72,0,0,1,9,150.94Zm-.15-3.22a.66.66,0,0,0-.52.21,1,1,0,0,0-.22.6H9.63a.87.87,0,0,0-.2-.6A.68.68,0,0,0,8.9,147.72Z"/><path class="cls-1" d="M13.58,147a1.24,1.24,0,0,1,1.06.53A2.42,2.42,0,0,1,15,149a2.38,2.38,0,0,1-.39,1.47,1.38,1.38,0,0,1-2.13,0h-.07l-.17.42h-.8v-5.32h1v1.24q0,.24,0,.75h0A1.21,1.21,0,0,1,13.58,147Zm-.33.83a.66.66,0,0,0-.56.24,1.36,1.36,0,0,0-.18.78v.11a1.6,1.6,0,0,0,.18.88.65.65,0,0,0,.58.27.58.58,0,0,0,.51-.3,1.6,1.6,0,0,0,.19-.86,1.52,1.52,0,0,0-.19-.85A.6.6,0,0,0,13.24,147.81Z"/><path class="cls-1" d="M18.55,149.74a1.05,1.05,0,0,1-.41.9,2,2,0,0,1-1.22.31,3.79,3.79,0,0,1-.71-.06,2.64,2.64,0,0,1-.55-.17v-.86a3.6,3.6,0,0,0,.65.23,2.66,2.66,0,0,0,.64.09q.57,0,.57-.33a.27.27,0,0,0-.08-.2,1.09,1.09,0,0,0-.26-.17l-.49-.23a3.12,3.12,0,0,1-.65-.34,1,1,0,0,1-.3-.36,1.19,1.19,0,0,1-.09-.5.91.91,0,0,1,.39-.79,1.93,1.93,0,0,1,1.12-.28,3.17,3.17,0,0,1,1.34.3l-.31.75-.54-.2a1.68,1.68,0,0,0-.51-.08c-.31,0-.46.08-.46.25a.29.29,0,0,0,.15.24,4,4,0,0,0,.65.3,3.07,3.07,0,0,1,.66.34,1,1,0,0,1,.31.36A1.11,1.11,0,0,1,18.55,149.74Z"/><path class="cls-1" d="M19.31,146.06q0-.51.57-.51t.57.51a.5.5,0,0,1-.14.38.6.6,0,0,1-.43.13C19.5,146.57,19.31,146.4,19.31,146.06Zm1.09,4.81h-1V147h1Z"/><path class="cls-1" d="M23.11,150.11a2.25,2.25,0,0,0,.66-.12v.78a2.36,2.36,0,0,1-1,.17,1.17,1.17,0,0,1-.91-.32,1.37,1.37,0,0,1-.29-.95v-1.84h-.5v-.44l.57-.35.3-.81h.67V147h1.07v.78H22.65v1.84a.41.41,0,0,0,.13.33A.49.49,0,0,0,23.11,150.11Z"/><path class="cls-1" d="M26.26,150.94a2,2,0,0,1-1.44-.51A1.93,1.93,0,0,1,24.3,149a2.12,2.12,0,0,1,.48-1.49,1.71,1.71,0,0,1,1.33-.52,1.68,1.68,0,0,1,1.26.46,1.75,1.75,0,0,1,.45,1.28v.51H25.36a1,1,0,0,0,.26.69.93.93,0,0,0,.69.25,2.87,2.87,0,0,0,.65-.07,3.28,3.28,0,0,0,.64-.23v.81a2.48,2.48,0,0,1-.58.2A3.72,3.72,0,0,1,26.26,150.94Zm-.15-3.22a.66.66,0,0,0-.52.21,1,1,0,0,0-.22.6h1.46a.87.87,0,0,0-.2-.6A.68.68,0,0,0,26.12,147.72Z"/><path class="cls-1" d="M421.23,150.87l-.62-1.59h-2l-.62,1.59h-.59l2-5h.49l2,5Zm-.8-2.11-.58-1.55q-.11-.29-.23-.72a6.81,6.81,0,0,1-.21.72l-.59,1.55Z"/><path class="cls-1" d="M423,147.13v2.43a1,1,0,0,0,.21.68.85.85,0,0,0,.65.23,1.06,1.06,0,0,0,.86-.32,1.62,1.62,0,0,0,.27-1v-2h.57v3.75h-.47l-.08-.5h0a1.14,1.14,0,0,1-.48.42,1.63,1.63,0,0,1-.71.15,1.44,1.44,0,0,1-1-.32,1.38,1.38,0,0,1-.34-1v-2.45Z"/><path class="cls-1" d="M427.94,150.47l.29,0,.22,0v.43a1.06,1.06,0,0,1-.27.07l-.32,0q-1.09,0-1.09-1.14v-2.23h-.54v-.27l.54-.24.24-.8h.33v.87h1.09v.44h-1.09v2.2a.76.76,0,0,0,.16.52A.56.56,0,0,0,427.94,150.47Z"/><path class="cls-1" d="M432.43,149a2.07,2.07,0,0,1-.46,1.43,1.63,1.63,0,0,1-1.28.51,1.68,1.68,0,0,1-.89-.24,1.56,1.56,0,0,1-.6-.68,2.36,2.36,0,0,1-.21-1,2.06,2.06,0,0,1,.46-1.43,1.62,1.62,0,0,1,1.27-.51,1.58,1.58,0,0,1,1.25.52A2.06,2.06,0,0,1,432.43,149Zm-2.85,0a1.78,1.78,0,0,0,.29,1.09,1.14,1.14,0,0,0,1.69,0,1.76,1.76,0,0,0,.29-1.1,1.74,1.74,0,0,0-.29-1.08,1,1,0,0,0-.85-.37,1,1,0,0,0-.84.37A1.76,1.76,0,0,0,429.58,149Z"/><path class="cls-1" d="M435.14,147.06a2.23,2.23,0,0,1,.45,0l-.08.53a1.94,1.94,0,0,0-.41-.05,1,1,0,0,0-.78.37,1.34,1.34,0,0,0-.32.92v2h-.57v-3.75h.47l.07.69h0a1.65,1.65,0,0,1,.5-.56A1.13,1.13,0,0,1,435.14,147.06Z"/><path class="cls-1" d="M438.18,145.87l-1.86,5h-.57l1.86-5Z"/><path class="cls-1" d="M442.55,150.87h-.68L440,148.45l-.52.46v2h-.58v-5h.58v2.48l2.27-2.48h.69l-2,2.17Z"/><path class="cls-1" d="M443.69,147.13v2.43a1,1,0,0,0,.21.68.85.85,0,0,0,.65.23,1.06,1.06,0,0,0,.86-.32,1.62,1.62,0,0,0,.27-1v-2h.57v3.75h-.47l-.08-.5h0a1.14,1.14,0,0,1-.48.42,1.63,1.63,0,0,1-.71.15,1.44,1.44,0,0,1-1-.32,1.38,1.38,0,0,1-.34-1v-2.45Z"/><path class="cls-1" d="M450,150.87v-2.42a1,1,0,0,0-.21-.68.85.85,0,0,0-.65-.22,1.08,1.08,0,0,0-.86.32,1.6,1.6,0,0,0-.27,1v2h-.57v-3.75h.46l.09.51h0a1.16,1.16,0,0,1,.49-.43,1.58,1.58,0,0,1,.7-.15,1.42,1.42,0,0,1,1,.33,1.39,1.39,0,0,1,.34,1v2.44Z"/><path class="cls-1" d="M454.3,150.37h0a1.33,1.33,0,0,1-1.18.57,1.39,1.39,0,0,1-1.14-.5,2.22,2.22,0,0,1-.41-1.43,2.25,2.25,0,0,1,.41-1.44,1.38,1.38,0,0,1,1.14-.51,1.36,1.36,0,0,1,1.17.55h0l0-.27v-1.79h.57v5.32h-.46Zm-1.13.1a1,1,0,0,0,.84-.32,1.6,1.6,0,0,0,.26-1V149a1.88,1.88,0,0,0-.26-1.14,1,1,0,0,0-.85-.34.87.87,0,0,0-.76.39,1.92,1.92,0,0,0-.27,1.1,1.85,1.85,0,0,0,.26,1.08A.89.89,0,0,0,453.16,150.46Z"/><path class="cls-1" d="M457.62,150.94a1.72,1.72,0,0,1-1.31-.51,2,2,0,0,1-.48-1.4,2.17,2.17,0,0,1,.45-1.44,1.48,1.48,0,0,1,1.2-.53,1.41,1.41,0,0,1,1.11.46,1.78,1.78,0,0,1,.41,1.22v.36h-2.58a1.48,1.48,0,0,0,.33,1,1.15,1.15,0,0,0,.89.34,3,3,0,0,0,1.2-.25v.51a3,3,0,0,1-.57.19A3.17,3.17,0,0,1,457.62,150.94Zm-.15-3.41a.93.93,0,0,0-.72.29,1.36,1.36,0,0,0-.32.81h2a1.25,1.25,0,0,0-.24-.82A.84.84,0,0,0,457.46,147.53Z"/><path class="cls-1" d="M126.62,132h-2.88v-5h2.88v.87H124.8V129h1.69v.87H124.8v1.29h1.82Z"/><path class="cls-1" d="M131.1,132h-1v-2.23a1.07,1.07,0,0,0-.15-.62.53.53,0,0,0-.47-.21.7.7,0,0,0-.63.29,1.81,1.81,0,0,0-.19,1V132h-1v-3.82h.8l.14.49h.06a1.1,1.1,0,0,1,.48-.42,1.63,1.63,0,0,1,.7-.14,1.34,1.34,0,0,1,1,.36,1.45,1.45,0,0,1,.35,1Z"/><path class="cls-1" d="M133.79,131.24a2.25,2.25,0,0,0,.66-.12v.78a2.36,2.36,0,0,1-1,.17,1.17,1.17,0,0,1-.91-.32,1.37,1.37,0,0,1-.29-.95V129h-.5v-.44l.57-.35.3-.81h.67v.81h1.07V129h-1.07v1.84a.41.41,0,0,0,.13.33A.49.49,0,0,0,133.79,131.24Z"/><path class="cls-1" d="M138.36,132l-.29-1.34-.4-1.69h0l-.7,3h-1.12l-1.09-3.82h1l.44,1.69q.11.45.22,1.25h0a7.07,7.07,0,0,1,.12-.82l.05-.29.47-1.83h1.15l.45,1.83,0,.22.06.31,0,.32c0,.11,0,.19,0,.25h0q0-.25.11-.67t.11-.58l.46-1.69h1l-1.1,3.82Z"/><path class="cls-1" d="M141.16,127.19q0-.51.57-.51t.57.51a.5.5,0,0,1-.14.38.6.6,0,0,1-.43.13C141.35,127.7,141.16,127.53,141.16,127.19Zm1.09,4.81h-1v-3.82h1Z"/><path class="cls-1" d="M144.9,132.07q-1.78,0-1.78-2a2.09,2.09,0,0,1,.49-1.49,1.82,1.82,0,0,1,1.39-.51,2.64,2.64,0,0,1,1.19.26l-.31.81-.46-.16a1.48,1.48,0,0,0-.42-.06q-.81,0-.81,1.16t.81,1.12a1.85,1.85,0,0,0,.56-.08,2,2,0,0,0,.51-.25v.89a1.69,1.69,0,0,1-.51.22A2.88,2.88,0,0,1,144.9,132.07Z"/><path class="cls-1" d="M147.94,129.92l.45-.58,1.07-1.16h1.18l-1.52,1.66,1.61,2.16h-1.2l-1.1-1.55-.45.36V132h-1v-5.32h1v2.37l-.05.87Z"/><path class="cls-1" d="M152.33,132h-1v-5.32h1Z"/><path class="cls-1" d="M156.13,132l-.14-.49h-.05a1.1,1.1,0,0,1-.48.41,1.62,1.62,0,0,1-.7.15,1.34,1.34,0,0,1-1-.36,1.45,1.45,0,0,1-.34-1v-2.49h1v2.23a1.07,1.07,0,0,0,.15.62.54.54,0,0,0,.47.21.7.7,0,0,0,.63-.29,1.81,1.81,0,0,0,.19-1v-1.8h1V132Z"/><path class="cls-1" d="M161.55,132h-1v-2.23a1.07,1.07,0,0,0-.15-.62.53.53,0,0,0-.47-.21.7.7,0,0,0-.63.29,1.81,1.81,0,0,0-.19,1V132h-1v-3.82h.8l.14.49H159a1.1,1.1,0,0,1,.48-.42,1.63,1.63,0,0,1,.7-.14,1.34,1.34,0,0,1,1,.36,1.45,1.45,0,0,1,.35,1Z"/><path class="cls-1" d="M165.95,128.18v.53l-.6.15a1,1,0,0,1,.16.57,1.16,1.16,0,0,1-.43,1,1.86,1.86,0,0,1-1.19.34h-.19l-.15,0a.35.35,0,0,0-.16.27c0,.15.19.23.57.23h.65a1.48,1.48,0,0,1,1,.27,1,1,0,0,1,.33.79,1.18,1.18,0,0,1-.56,1,2.91,2.91,0,0,1-1.6.37,2.22,2.22,0,0,1-1.22-.28.88.88,0,0,1-.42-.78.81.81,0,0,1,.22-.58,1.22,1.22,0,0,1,.63-.33.7.7,0,0,1-.28-.22.55.55,0,0,1,0-.69,1.47,1.47,0,0,1,.37-.29,1,1,0,0,1-.48-.42,1.27,1.27,0,0,1-.18-.68,1.19,1.19,0,0,1,.41-1,1.76,1.76,0,0,1,1.16-.34l.38,0,.28,0ZM163,132.54a.38.38,0,0,0,.21.34,1.14,1.14,0,0,0,.58.12,2.05,2.05,0,0,0,.88-.15.47.47,0,0,0,.32-.42.3.3,0,0,0-.19-.3,1.54,1.54,0,0,0-.58-.08h-.54a.82.82,0,0,0-.48.13A.42.42,0,0,0,163,132.54Zm.38-3.11a.78.78,0,0,0,.14.49.51.51,0,0,0,.43.18.5.5,0,0,0,.43-.18.8.8,0,0,0,.14-.49q0-.69-.57-.69T163.38,129.43Z"/><path class="cls-1" d="M230,129.19h2v2.59a5.59,5.59,0,0,1-.91.22,5.92,5.92,0,0,1-.87.06,2.2,2.2,0,0,1-1.73-.67,2.77,2.77,0,0,1-.6-1.91,2.52,2.52,0,0,1,.69-1.89,2.63,2.63,0,0,1,1.92-.68,3.71,3.71,0,0,1,1.48.31l-.35.85a2.52,2.52,0,0,0-1.14-.27,1.41,1.41,0,0,0-1.1.46,1.79,1.79,0,0,0-.41,1.24,2,2,0,0,0,.33,1.24,1.15,1.15,0,0,0,1,.43,3.4,3.4,0,0,0,.67-.07v-1H230Z"/><path class="cls-1" d="M234.82,132.07a2,2,0,0,1-1.44-.51,1.93,1.93,0,0,1-.52-1.44,2.12,2.12,0,0,1,.48-1.49,1.71,1.71,0,0,1,1.33-.52,1.68,1.68,0,0,1,1.26.46,1.75,1.75,0,0,1,.45,1.28v.51h-2.46a1,1,0,0,0,.26.69.93.93,0,0,0,.69.25,2.87,2.87,0,0,0,.65-.07,3.28,3.28,0,0,0,.64-.23v.81a2.48,2.48,0,0,1-.58.2A3.72,3.72,0,0,1,234.82,132.07Zm-.15-3.22a.66.66,0,0,0-.52.21,1,1,0,0,0-.22.6h1.46a.87.87,0,0,0-.2-.6A.68.68,0,0,0,234.67,128.85Z"/><path class="cls-1" d="M239.89,130.86a1.05,1.05,0,0,1-.41.9,2,2,0,0,1-1.22.31,3.79,3.79,0,0,1-.71-.06,2.64,2.64,0,0,1-.55-.17V131a3.6,3.6,0,0,0,.65.23,2.66,2.66,0,0,0,.64.09q.57,0,.57-.33a.27.27,0,0,0-.08-.2,1.09,1.09,0,0,0-.26-.17l-.49-.23a3.12,3.12,0,0,1-.65-.34,1,1,0,0,1-.3-.36,1.19,1.19,0,0,1-.09-.5.91.91,0,0,1,.39-.79,1.93,1.93,0,0,1,1.12-.28,3.17,3.17,0,0,1,1.34.3l-.31.75L239,129a1.68,1.68,0,0,0-.51-.08c-.31,0-.46.08-.46.25a.29.29,0,0,0,.15.24,4,4,0,0,0,.65.3,3.08,3.08,0,0,1,.66.34,1,1,0,0,1,.31.36A1.11,1.11,0,0,1,239.89,130.86Z"/><path class="cls-1" d="M242.31,131.24a2.26,2.26,0,0,0,.66-.12v.78a2.36,2.36,0,0,1-1,.17,1.17,1.17,0,0,1-.91-.32,1.37,1.37,0,0,1-.29-.95V129h-.5v-.44l.57-.35.3-.81h.67v.81h1.07V129h-1.07v1.84a.4.4,0,0,0,.13.33A.49.49,0,0,0,242.31,131.24Z"/><path class="cls-1" d="M246.17,132l-.2-.52h0a1.55,1.55,0,0,1-.54.46,1.76,1.76,0,0,1-.73.13,1.17,1.17,0,0,1-.87-.31,1.21,1.21,0,0,1-.32-.9,1,1,0,0,1,.43-.9,2.46,2.46,0,0,1,1.28-.32l.66,0v-.17a.52.52,0,0,0-.59-.58,2.71,2.71,0,0,0-1.08.28l-.34-.7a3.1,3.1,0,0,1,1.46-.35,1.82,1.82,0,0,1,1.18.34,1.24,1.24,0,0,1,.41,1V132Zm-.31-1.77h-.4a1.29,1.29,0,0,0-.68.16.52.52,0,0,0-.22.46q0,.44.51.44a.8.8,0,0,0,.58-.21.73.73,0,0,0,.22-.55Z"/><path class="cls-1" d="M249,132h-1v-5.32h1Z"/><path class="cls-1" d="M251.72,131.24a2.26,2.26,0,0,0,.66-.12v.78a2.35,2.35,0,0,1-1,.17,1.17,1.17,0,0,1-.91-.32,1.37,1.37,0,0,1-.29-.95V129h-.5v-.44l.57-.35.3-.81h.67v.81h1.07V129h-1.07v1.84a.41.41,0,0,0,.13.33A.5.5,0,0,0,251.72,131.24Z"/><path class="cls-1" d="M255.85,132l-.14-.49h-.05a1.1,1.1,0,0,1-.48.41,1.62,1.62,0,0,1-.7.15,1.34,1.34,0,0,1-1-.36,1.45,1.45,0,0,1-.34-1v-2.49h1v2.23a1.08,1.08,0,0,0,.15.62.54.54,0,0,0,.47.21.7.7,0,0,0,.63-.29,1.81,1.81,0,0,0,.19-1v-1.8h1V132Z"/><path class="cls-1" d="M261.27,132h-1v-2.23a1.07,1.07,0,0,0-.15-.62.53.53,0,0,0-.47-.21.7.7,0,0,0-.63.29,1.81,1.81,0,0,0-.19,1V132h-1v-3.82h.8l.14.49h.06a1.11,1.11,0,0,1,.48-.42,1.63,1.63,0,0,1,.7-.14,1.33,1.33,0,0,1,1,.36,1.44,1.44,0,0,1,.35,1Z"/><path class="cls-1" d="M265.67,128.18v.53l-.6.15a1,1,0,0,1,.16.57,1.16,1.16,0,0,1-.43,1,1.86,1.86,0,0,1-1.19.34h-.19l-.15,0a.35.35,0,0,0-.16.27c0,.15.19.23.57.23h.65a1.48,1.48,0,0,1,1,.27,1,1,0,0,1,.33.79,1.18,1.18,0,0,1-.56,1,2.91,2.91,0,0,1-1.6.37,2.23,2.23,0,0,1-1.22-.28.88.88,0,0,1-.42-.78A.82.82,0,0,1,262,132a1.23,1.23,0,0,1,.63-.33.69.69,0,0,1-.28-.22.55.55,0,0,1,0-.69,1.47,1.47,0,0,1,.37-.29,1,1,0,0,1-.48-.42,1.27,1.27,0,0,1-.18-.68,1.19,1.19,0,0,1,.41-1,1.76,1.76,0,0,1,1.16-.34l.38,0,.28,0Zm-2.95,4.36a.38.38,0,0,0,.21.34,1.13,1.13,0,0,0,.58.12,2,2,0,0,0,.88-.15.47.47,0,0,0,.32-.42.3.3,0,0,0-.19-.3,1.55,1.55,0,0,0-.58-.08h-.54a.82.82,0,0,0-.48.13A.42.42,0,0,0,262.72,132.54Zm.38-3.11a.78.78,0,0,0,.14.49.51.51,0,0,0,.43.18.51.51,0,0,0,.43-.18.8.8,0,0,0,.14-.49q0-.69-.57-.69T263.1,129.43Z"/><path class="cls-1" d="M330.81,130.08V132h-1.06v-5h1.46a2.49,2.49,0,0,1,1.51.37,1.48,1.48,0,0,1,.25,1.91,1.59,1.59,0,0,1-.69.54q1.13,1.69,1.47,2.18h-1.18l-1.19-1.92Zm0-.86h.34a1.31,1.31,0,0,0,.74-.17.6.6,0,0,0,.24-.53.55.55,0,0,0-.25-.51,1.48,1.48,0,0,0-.76-.15h-.32Z"/><path class="cls-1" d="M336,132.07a2,2,0,0,1-1.44-.51,1.93,1.93,0,0,1-.52-1.44,2.12,2.12,0,0,1,.48-1.49,1.71,1.71,0,0,1,1.33-.52,1.68,1.68,0,0,1,1.26.46,1.75,1.75,0,0,1,.45,1.28v.51h-2.46a1,1,0,0,0,.26.69.93.93,0,0,0,.69.25,2.86,2.86,0,0,0,.65-.07,3.27,3.27,0,0,0,.64-.23v.81a2.47,2.47,0,0,1-.58.2A3.72,3.72,0,0,1,336,132.07Zm-.15-3.22a.66.66,0,0,0-.52.21,1,1,0,0,0-.21.6h1.46a.87.87,0,0,0-.2-.6A.69.69,0,0,0,335.88,128.85Z"/><path class="cls-1" d="M340.86,132l-.2-.52h0a1.55,1.55,0,0,1-.54.46,1.76,1.76,0,0,1-.73.13,1.17,1.17,0,0,1-.87-.31,1.21,1.21,0,0,1-.32-.9,1,1,0,0,1,.43-.9,2.46,2.46,0,0,1,1.28-.32l.66,0v-.17a.52.52,0,0,0-.59-.58,2.71,2.71,0,0,0-1.08.28l-.35-.7a3.1,3.1,0,0,1,1.46-.35,1.82,1.82,0,0,1,1.18.34,1.24,1.24,0,0,1,.41,1V132Zm-.31-1.77h-.4a1.28,1.28,0,0,0-.68.16.52.52,0,0,0-.22.46c0,.29.17.44.51.44a.8.8,0,0,0,.58-.21.73.73,0,0,0,.22-.55Z"/><path class="cls-1" d="M343.7,132h-1v-5.32h1Z"/><path class="cls-1" d="M344.75,127.19q0-.51.57-.51t.57.51a.49.49,0,0,1-.14.38.6.6,0,0,1-.42.13C344.94,127.7,344.75,127.53,344.75,127.19Zm1.09,4.81h-1v-3.82h1Z"/><path class="cls-1" d="M349.6,130.86a1.05,1.05,0,0,1-.41.9,2,2,0,0,1-1.22.31,3.79,3.79,0,0,1-.71-.06,2.67,2.67,0,0,1-.55-.17V131a3.61,3.61,0,0,0,.65.23,2.67,2.67,0,0,0,.64.09q.57,0,.57-.33a.27.27,0,0,0-.08-.2,1.08,1.08,0,0,0-.26-.17l-.49-.23a3.1,3.1,0,0,1-.65-.34,1,1,0,0,1-.3-.36,1.19,1.19,0,0,1-.09-.5.91.91,0,0,1,.39-.79,1.93,1.93,0,0,1,1.12-.28,3.17,3.17,0,0,1,1.34.3l-.31.75-.54-.2a1.67,1.67,0,0,0-.51-.08c-.31,0-.46.08-.46.25a.29.29,0,0,0,.15.24,4.09,4.09,0,0,0,.65.3,3.09,3.09,0,0,1,.66.34,1,1,0,0,1,.31.36A1.11,1.11,0,0,1,349.6,130.86Z"/><path class="cls-1" d="M352.84,132l-.2-.52h0a1.55,1.55,0,0,1-.54.46,1.76,1.76,0,0,1-.73.13,1.17,1.17,0,0,1-.87-.31,1.21,1.21,0,0,1-.32-.9,1,1,0,0,1,.43-.9,2.46,2.46,0,0,1,1.28-.32l.66,0v-.17a.52.52,0,0,0-.59-.58,2.71,2.71,0,0,0-1.08.28l-.34-.7a3.1,3.1,0,0,1,1.46-.35,1.82,1.82,0,0,1,1.18.34,1.24,1.24,0,0,1,.41,1V132Zm-.31-1.77h-.4a1.29,1.29,0,0,0-.68.16.52.52,0,0,0-.22.46q0,.44.51.44a.8.8,0,0,0,.58-.21.73.73,0,0,0,.22-.55Z"/><path class="cls-1" d="M356.25,131.24a2.25,2.25,0,0,0,.66-.12v.78a2.35,2.35,0,0,1-1,.17,1.17,1.17,0,0,1-.91-.32,1.37,1.37,0,0,1-.29-.95V129h-.5v-.44l.57-.35.3-.81h.67v.81h1.07V129h-1.07v1.84a.41.41,0,0,0,.13.33A.49.49,0,0,0,356.25,131.24Z"/><path class="cls-1" d="M357.63,127.19q0-.51.57-.51t.57.51a.49.49,0,0,1-.14.38.59.59,0,0,1-.42.13C357.82,127.7,357.63,127.53,357.63,127.19Zm1.09,4.81h-1v-3.82h1Z"/><path class="cls-1" d="M363.29,130.08a2.05,2.05,0,0,1-.49,1.46,1.79,1.79,0,0,1-1.37.53,1.91,1.91,0,0,1-1-.24,1.6,1.6,0,0,1-.65-.69,2.32,2.32,0,0,1-.23-1.05,2,2,0,0,1,.49-1.46,1.79,1.79,0,0,1,1.37-.52,1.93,1.93,0,0,1,1,.24,1.6,1.6,0,0,1,.65.69A2.3,2.3,0,0,1,363.29,130.08Zm-2.64,0a1.61,1.61,0,0,0,.19.86.67.67,0,0,0,.61.29.66.66,0,0,0,.6-.29,1.64,1.64,0,0,0,.18-.86,1.58,1.58,0,0,0-.18-.85.78.78,0,0,0-1.21,0A1.58,1.58,0,0,0,360.64,130.08Z"/><path class="cls-1" d="M367.67,132h-1v-2.23a1.07,1.07,0,0,0-.15-.62.53.53,0,0,0-.47-.21.7.7,0,0,0-.63.29,1.81,1.81,0,0,0-.2,1V132h-1v-3.82h.8l.14.49h.06a1.09,1.09,0,0,1,.48-.42,1.64,1.64,0,0,1,.7-.14,1.34,1.34,0,0,1,1,.36,1.45,1.45,0,0,1,.34,1Z"/><path class="cls-1" d="M420.29,172.26H422v2.43a5.6,5.6,0,0,1-.81.19,6.19,6.19,0,0,1-1,.06,2.3,2.3,0,0,1-1.77-.67,2.66,2.66,0,0,1-.63-1.89,2.86,2.86,0,0,1,.31-1.37,2.1,2.1,0,0,1,.9-.9,2.92,2.92,0,0,1,1.38-.31,3.78,3.78,0,0,1,1.49.29l-.23.51a3.33,3.33,0,0,0-1.3-.29,1.86,1.86,0,0,0-1.43.54,2.11,2.11,0,0,0-.51,1.51,2.16,2.16,0,0,0,.49,1.53,1.9,1.9,0,0,0,1.45.52,4.29,4.29,0,0,0,1-.12v-1.54h-1.12Z"/><path class="cls-1" d="M424.68,174.94a1.72,1.72,0,0,1-1.31-.51,2,2,0,0,1-.48-1.4,2.17,2.17,0,0,1,.45-1.44,1.48,1.48,0,0,1,1.2-.53,1.41,1.41,0,0,1,1.11.46,1.78,1.78,0,0,1,.41,1.22v.36h-2.58a1.48,1.48,0,0,0,.33,1,1.15,1.15,0,0,0,.89.34,3,3,0,0,0,1.2-.25v.51a3,3,0,0,1-.57.19A3.17,3.17,0,0,1,424.68,174.94Zm-.15-3.41a.93.93,0,0,0-.72.29,1.36,1.36,0,0,0-.32.81h2a1.25,1.25,0,0,0-.24-.82A.84.84,0,0,0,424.53,171.53Z"/><path class="cls-1" d="M429.44,173.85a.94.94,0,0,1-.39.81,1.84,1.84,0,0,1-1.09.28,2.37,2.37,0,0,1-1.16-.24v-.53a2.86,2.86,0,0,0,.58.21,2.41,2.41,0,0,0,.6.08,1.35,1.35,0,0,0,.68-.14.49.49,0,0,0,0-.81,3,3,0,0,0-.74-.37,4.09,4.09,0,0,1-.74-.34,1,1,0,0,1-.33-.33.88.88,0,0,1-.11-.44.84.84,0,0,1,.37-.72,1.73,1.73,0,0,1,1-.26,3,3,0,0,1,1.18.25l-.2.46a2.73,2.73,0,0,0-1-.23,1.18,1.18,0,0,0-.61.13.39.39,0,0,0-.21.35.43.43,0,0,0,.08.26.76.76,0,0,0,.25.2,5.53,5.53,0,0,0,.66.28,2.44,2.44,0,0,1,.9.49A.86.86,0,0,1,429.44,173.85Z"/><path class="cls-1" d="M431.58,174.47l.29,0,.22,0v.43a1.06,1.06,0,0,1-.27.07l-.32,0q-1.09,0-1.09-1.14v-2.23h-.54v-.27l.54-.24.24-.8H431v.87h1.09v.44H431v2.2a.76.76,0,0,0,.16.52A.56.56,0,0,0,431.58,174.47Z"/><path class="cls-1" d="M435.14,174.87l-.11-.53h0a1.57,1.57,0,0,1-.56.48,1.7,1.7,0,0,1-.7.13,1.25,1.25,0,0,1-.87-.29,1,1,0,0,1-.32-.82q0-1.14,1.82-1.19l.64,0v-.23a1,1,0,0,0-.19-.65.78.78,0,0,0-.61-.21,2.47,2.47,0,0,0-1.06.29l-.17-.43a2.68,2.68,0,0,1,.61-.24,2.65,2.65,0,0,1,.66-.08,1.42,1.42,0,0,1,1,.3,1.24,1.24,0,0,1,.32,1v2.56Zm-1.28-.4a1.15,1.15,0,0,0,.83-.29,1.08,1.08,0,0,0,.3-.81V173l-.57,0a2.06,2.06,0,0,0-1,.21.63.63,0,0,0-.3.58.59.59,0,0,0,.19.47A.77.77,0,0,0,433.86,174.47Z"/><path class="cls-1" d="M437.3,174.87h-.57v-5.32h.57Z"/><path class="cls-1" d="M439.71,174.47l.29,0,.22,0v.43a1.06,1.06,0,0,1-.27.07l-.32,0q-1.09,0-1.09-1.14v-2.23H438v-.27l.54-.24.24-.8h.33v.87h1.09v.44h-1.09v2.2a.76.76,0,0,0,.16.52A.56.56,0,0,0,439.71,174.47Z"/><path class="cls-1" d="M442.56,174.94a1.72,1.72,0,0,1-1.31-.51,2,2,0,0,1-.48-1.4,2.17,2.17,0,0,1,.45-1.44,1.49,1.49,0,0,1,1.2-.53,1.41,1.41,0,0,1,1.11.46,1.78,1.78,0,0,1,.41,1.22v.36h-2.58a1.48,1.48,0,0,0,.33,1,1.15,1.15,0,0,0,.89.34,3,3,0,0,0,1.2-.25v.51a3,3,0,0,1-.57.19A3.17,3.17,0,0,1,442.56,174.94Zm-.15-3.41a.92.92,0,0,0-.72.29,1.34,1.34,0,0,0-.32.81h2a1.24,1.24,0,0,0-.24-.82A.84.84,0,0,0,442.4,171.53Z"/><path class="cls-1" d="M446.61,171.06a2.23,2.23,0,0,1,.45,0l-.08.53a1.94,1.94,0,0,0-.41-.05,1,1,0,0,0-.78.37,1.34,1.34,0,0,0-.32.92v2h-.57v-3.75h.47l.07.69h0a1.65,1.65,0,0,1,.5-.56A1.13,1.13,0,0,1,446.61,171.06Z"/><path class="cls-1" d="M421.26,195.34a1.4,1.4,0,0,1-.52,1.17,2.35,2.35,0,0,1-1.48.41h-.59v2h-.58v-5h1.3Q421.26,193.88,421.26,195.34Zm-2.59,1.08h.52a2,2,0,0,0,1.12-.25.92.92,0,0,0,.35-.8.86.86,0,0,0-.33-.74,1.69,1.69,0,0,0-1-.24h-.65Z"/><path class="cls-1" d="M423.93,195.06a2.23,2.23,0,0,1,.45,0l-.08.53a1.94,1.94,0,0,0-.41-.05,1,1,0,0,0-.78.37,1.34,1.34,0,0,0-.32.92v2h-.57v-3.75h.47l.07.69h0a1.65,1.65,0,0,1,.5-.56A1.13,1.13,0,0,1,423.93,195.06Z"/><path class="cls-1" d="M428.31,197a2.07,2.07,0,0,1-.46,1.43,1.63,1.63,0,0,1-1.28.51,1.68,1.68,0,0,1-.89-.24,1.56,1.56,0,0,1-.6-.68,2.37,2.37,0,0,1-.21-1,2.07,2.07,0,0,1,.46-1.43,1.62,1.62,0,0,1,1.27-.51,1.58,1.58,0,0,1,1.25.52A2.06,2.06,0,0,1,428.31,197Zm-2.85,0a1.78,1.78,0,0,0,.29,1.09,1.14,1.14,0,0,0,1.69,0,1.76,1.76,0,0,0,.29-1.1,1.74,1.74,0,0,0-.29-1.08,1,1,0,0,0-.85-.37,1,1,0,0,0-.84.37A1.76,1.76,0,0,0,425.46,197Z"/><path class="cls-1" d="M432.37,195.13v.36l-.69.08a1.23,1.23,0,0,1,.25.75,1.11,1.11,0,0,1-.38.88,1.51,1.51,0,0,1-1,.33l-.31,0a.56.56,0,0,0-.36.48.25.25,0,0,0,.13.23.92.92,0,0,0,.43.07h.66a1.47,1.47,0,0,1,.93.26.89.89,0,0,1,.33.74,1.07,1.07,0,0,1-.5.95,2.67,2.67,0,0,1-1.46.33,2,2,0,0,1-1.13-.27.88.88,0,0,1-.4-.77.87.87,0,0,1,.22-.59,1.11,1.11,0,0,1,.62-.34.58.58,0,0,1-.24-.2.53.53,0,0,1-.1-.32.6.6,0,0,1,.11-.36,1.14,1.14,0,0,1,.35-.3,1,1,0,0,1-.47-.41,1.19,1.19,0,0,1-.18-.66,1.21,1.21,0,0,1,.37-.95,1.51,1.51,0,0,1,1-.33,1.9,1.9,0,0,1,.53.07Zm-3,4.38a.51.51,0,0,0,.26.46,1.4,1.4,0,0,0,.73.16,2.05,2.05,0,0,0,1.06-.21.65.65,0,0,0,.34-.58.46.46,0,0,0-.19-.42,1.46,1.46,0,0,0-.71-.12h-.68a.89.89,0,0,0-.6.19A.66.66,0,0,0,429.38,199.51Zm.31-3.18a.76.76,0,0,0,.22.6.89.89,0,0,0,.62.2.72.72,0,0,0,.83-.81.75.75,0,0,0-.84-.84.84.84,0,0,0-.62.21A.87.87,0,0,0,429.69,196.33Z"/><path class="cls-1" d="M434.85,195.06a2.22,2.22,0,0,1,.45,0l-.08.53a1.94,1.94,0,0,0-.41-.05,1,1,0,0,0-.78.37,1.34,1.34,0,0,0-.32.92v2h-.57v-3.75h.47l.07.69h0a1.65,1.65,0,0,1,.5-.56A1.13,1.13,0,0,1,434.85,195.06Z"/><path class="cls-1" d="M438.3,198.88l-.11-.53h0a1.57,1.57,0,0,1-.56.48,1.7,1.7,0,0,1-.7.13,1.25,1.25,0,0,1-.87-.29,1,1,0,0,1-.32-.82q0-1.14,1.82-1.19l.64,0v-.23a1,1,0,0,0-.19-.65.78.78,0,0,0-.61-.21,2.47,2.47,0,0,0-1.06.29l-.17-.43a2.68,2.68,0,0,1,.61-.24,2.65,2.65,0,0,1,.66-.08,1.42,1.42,0,0,1,1,.3,1.24,1.24,0,0,1,.32,1v2.56Zm-1.28-.4a1.15,1.15,0,0,0,.83-.29,1.08,1.08,0,0,0,.3-.81V197l-.57,0a2.06,2.06,0,0,0-1,.21.63.63,0,0,0-.3.58.59.59,0,0,0,.19.47A.77.77,0,0,0,437,198.48Z"/><path class="cls-1" d="M444.67,198.88v-2.44a1,1,0,0,0-.19-.67.74.74,0,0,0-.6-.22,1,1,0,0,0-.78.3,1.44,1.44,0,0,0-.25.94v2.09h-.57v-2.44a1,1,0,0,0-.19-.67.75.75,0,0,0-.6-.22.93.93,0,0,0-.78.32,1.73,1.73,0,0,0-.25,1v2h-.57v-3.75h.46l.09.51h0a1.1,1.1,0,0,1,.45-.43,1.37,1.37,0,0,1,.65-.15,1.11,1.11,0,0,1,1.15.64h0a1.2,1.2,0,0,1,.49-.46,1.5,1.5,0,0,1,.72-.17,1.27,1.27,0,0,1,1,.33,1.47,1.47,0,0,1,.32,1v2.44Z"/><path class="cls-1" d="M451.18,198.88v-2.44a1,1,0,0,0-.19-.67.74.74,0,0,0-.59-.22,1,1,0,0,0-.78.3,1.45,1.45,0,0,0-.25.94v2.09h-.57v-2.44a1,1,0,0,0-.19-.67.74.74,0,0,0-.6-.22.93.93,0,0,0-.78.32,1.73,1.73,0,0,0-.25,1v2h-.57v-3.75h.46l.09.51h0a1.11,1.11,0,0,1,.45-.43,1.37,1.37,0,0,1,.65-.15,1.11,1.11,0,0,1,1.15.64h0a1.2,1.2,0,0,1,.49-.46,1.5,1.5,0,0,1,.72-.17,1.27,1.27,0,0,1,1,.33,1.46,1.46,0,0,1,.32,1v2.44Z"/><path class="cls-1" d="M452.86,194.12a.38.38,0,0,1,.1-.29.36.36,0,0,1,.47,0,.37.37,0,0,1,.1.28.38.38,0,0,1-.1.29.35.35,0,0,1-.47,0A.38.38,0,0,1,452.86,194.12Zm.62,4.76h-.57v-3.75h.57Z"/><path class="cls-1" d="M456.26,198.95a1.72,1.72,0,0,1-1.31-.51,2,2,0,0,1-.48-1.4,2.17,2.17,0,0,1,.45-1.44,1.48,1.48,0,0,1,1.2-.53,1.41,1.41,0,0,1,1.11.46,1.78,1.78,0,0,1,.41,1.22v.36h-2.58a1.48,1.48,0,0,0,.33,1,1.15,1.15,0,0,0,.89.34,3,3,0,0,0,1.2-.25v.51a3,3,0,0,1-.57.19A3.17,3.17,0,0,1,456.26,198.95Zm-.15-3.41a.93.93,0,0,0-.72.29,1.36,1.36,0,0,0-.32.81h2a1.25,1.25,0,0,0-.24-.82A.84.84,0,0,0,456.11,195.54Z"/><path class="cls-1" d="M460.32,195.06a2.22,2.22,0,0,1,.45,0l-.08.53a1.94,1.94,0,0,0-.41-.05,1,1,0,0,0-.78.37,1.34,1.34,0,0,0-.32.92v2h-.57v-3.75h.47l.07.69h0a1.65,1.65,0,0,1,.5-.56A1.13,1.13,0,0,1,460.32,195.06Z"/><path class="cls-1" d="M462,195.13v2.43a1,1,0,0,0,.21.68.85.85,0,0,0,.65.23,1.06,1.06,0,0,0,.86-.32,1.62,1.62,0,0,0,.27-1v-2h.57v3.75h-.47l-.08-.5h0a1.14,1.14,0,0,1-.48.42,1.63,1.63,0,0,1-.71.15,1.44,1.44,0,0,1-1-.32,1.38,1.38,0,0,1-.34-1v-2.45Z"/><path class="cls-1" d="M468.33,198.88v-2.42a1,1,0,0,0-.21-.68.85.85,0,0,0-.65-.22,1.07,1.07,0,0,0-.86.32,1.61,1.61,0,0,0-.27,1v2h-.57v-3.75h.46l.09.51h0a1.16,1.16,0,0,1,.49-.43,1.59,1.59,0,0,1,.7-.15,1.42,1.42,0,0,1,1,.33,1.39,1.39,0,0,1,.34,1v2.44Z"/><path class="cls-1" d="M473.13,195.13v.36l-.69.08a1.23,1.23,0,0,1,.25.75,1.11,1.11,0,0,1-.38.88,1.51,1.51,0,0,1-1,.33l-.31,0a.56.56,0,0,0-.36.48.25.25,0,0,0,.13.23.92.92,0,0,0,.43.07h.66a1.47,1.47,0,0,1,.93.26.89.89,0,0,1,.33.74,1.07,1.07,0,0,1-.5.95,2.67,2.67,0,0,1-1.46.33,2,2,0,0,1-1.13-.27.88.88,0,0,1-.4-.77.87.87,0,0,1,.22-.59,1.11,1.11,0,0,1,.62-.34.58.58,0,0,1-.24-.2.53.53,0,0,1-.1-.32.6.6,0,0,1,.11-.36,1.14,1.14,0,0,1,.35-.3,1,1,0,0,1-.47-.41,1.19,1.19,0,0,1-.18-.66,1.21,1.21,0,0,1,.37-.95,1.51,1.51,0,0,1,1-.33,1.9,1.9,0,0,1,.53.07Zm-3,4.38a.51.51,0,0,0,.26.46,1.4,1.4,0,0,0,.73.16,2.05,2.05,0,0,0,1.06-.21.65.65,0,0,0,.34-.58.46.46,0,0,0-.19-.42,1.46,1.46,0,0,0-.71-.12H471a.89.89,0,0,0-.6.19A.66.66,0,0,0,470.14,199.51Zm.31-3.18a.76.76,0,0,0,.22.6.89.89,0,0,0,.62.2.72.72,0,0,0,.83-.81.75.75,0,0,0-.84-.84.84.84,0,0,0-.62.21A.87.87,0,0,0,470.45,196.33Z"/><line class="cls-2" x1="93.54" y1="144.64" x2="93.54" y2="156.64"/><line class="cls-2" x1="195.59" y1="144.64" x2="195.59" y2="156.64"/><line class="cls-2" x1="297.64" y1="144.64" x2="297.64" y2="156.64"/><line class="cls-2" x1="399.68" y1="144.64" x2="399.68" y2="156.64"/><line class="cls-3" x1="93.54" y1="150.64" x2="195.59" y2="150.64"/><line class="cls-3" x1="195.59" y1="150.64" x2="297.64" y2="150.64"/><line class="cls-3" x1="297.64" y1="150.64" x2="399.68" y2="150.64"/><line class="cls-2" x1="93.54" y1="168.64" x2="93.54" y2="180.64"/><line class="cls-2" x1="195.59" y1="168.64" x2="195.59" y2="180.64"/><line class="cls-2" x1="297.64" y1="168.64" x2="297.64" y2="180.64"/><line class="cls-2" x1="399.68" y1="168.64" x2="399.68" y2="180.64"/><line class="cls-3" x1="93.54" y1="174.64" x2="195.59" y2="174.64"/><line class="cls-3" x1="195.59" y1="174.64" x2="297.64" y2="174.64"/><line class="cls-3" x1="297.64" y1="174.64" x2="399.68" y2="174.64"/><line class="cls-2" x1="93.54" y1="192.64" x2="93.54" y2="204.64"/><line class="cls-2" x1="195.59" y1="192.64" x2="195.59" y2="204.64"/><line class="cls-2" x1="297.64" y1="192.64" x2="297.64" y2="204.64"/><line class="cls-2" x1="399.68" y1="192.64" x2="399.68" y2="204.64"/><line class="cls-3" x1="93.54" y1="198.64" x2="195.59" y2="198.64"/><line class="cls-3" x1="195.59" y1="198.64" x2="297.64" y2="198.64"/><line class="cls-3" x1="297.64" y1="198.64" x2="399.68" y2="198.64"/></svg>