<svg id="Layer_1" data-name="Layer 1" xmlns="http://www.w3.org/2000/svg" xmlns:xlink="http://www.w3.org/1999/xlink" viewBox="0 0 226.08 102"><defs><style>.cls-1,.cls-7,.cls-8,.cls-9{fill:none;}.cls-2{fill:#20201e;}.cls-3{fill:#fff;}.cls-4{fill:#b8b8b8;}.cls-5{fill:#dedede;}.cls-6{clip-path:url(#clip-path);}.cls-7,.cls-8{stroke:#232321;stroke-miterlimit:10;stroke-width:0.63px;}.cls-8{stroke-linecap:round;}.cls-9{stroke:#20201e;}</style><clipPath id="clip-path"><rect class="cls-1" x="12.76" y="27.78" width="30.91" height="57.54"/></clipPath></defs><title>mobile</title><path class="cls-2" d="M21.8,6.41a6.93,6.93,0,0,1,.45-.55l1.21-1.28h.67l-1.52,1.6,1.62,2.15h-.69L22.22,6.56l-.43.37v1.4h-.56V3h.56V5.83q0,.19,0,.58Z"/><path class="cls-2" d="M25.48,8.33h-.57V3h.57Z"/><path class="cls-2" d="M28.26,8.4A1.72,1.72,0,0,1,27,7.89a2,2,0,0,1-.48-1.4A2.17,2.17,0,0,1,26.92,5a1.48,1.48,0,0,1,1.2-.53A1.41,1.41,0,0,1,29.23,5a1.78,1.78,0,0,1,.41,1.22v.36H27.06a1.48,1.48,0,0,0,.33,1,1.15,1.15,0,0,0,.89.34,3,3,0,0,0,1.2-.25v.51a3,3,0,0,1-.57.19A3.16,3.16,0,0,1,28.26,8.4ZM28.11,5a.93.93,0,0,0-.72.29,1.36,1.36,0,0,0-.32.81h2a1.25,1.25,0,0,0-.24-.82A.84.84,0,0,0,28.11,5Z"/><path class="cls-2" d="M30.56,3.57a.38.38,0,0,1,.1-.29.36.36,0,0,1,.48,0,.37.37,0,0,1,.1.28.38.38,0,0,1-.1.29.33.33,0,0,1-.24.09.33.33,0,0,1-.24-.09A.39.39,0,0,1,30.56,3.57Zm.62,4.76h-.57V4.58h.57Z"/><path class="cls-2" d="M34.94,8.33V5.91a1,1,0,0,0-.21-.68A.85.85,0,0,0,34.08,5a1.07,1.07,0,0,0-.86.32,1.61,1.61,0,0,0-.27,1v2h-.57V4.58h.46l.09.51h0a1.16,1.16,0,0,1,.49-.43,1.59,1.59,0,0,1,.7-.15,1.42,1.42,0,0,1,1,.33,1.39,1.39,0,0,1,.34,1V8.33Z"/><rect class="cls-3" x="12.76" y="27.78" width="30.91" height="57.54"/><rect class="cls-4" x="12.76" y="33.76" width="14.87" height="15.07"/><rect class="cls-4" x="28.8" y="33.76" width="14.88" height="15.07"/><rect class="cls-5" x="12.76" y="27.78" width="30.91" height="4.64"/><path d="M14.68,52.43,14.5,53h-.23l.58-1.7h.26l.58,1.7h-.23l-.18-.53Zm.56-.17-.17-.49c0-.11-.06-.21-.09-.31h0c0,.1-.05.2-.08.31l-.17.49Z"/><path d="M16.77,52.92a.81.81,0,0,1-.35.07.58.58,0,0,1-.61-.62.62.62,0,0,1,.66-.65.74.74,0,0,1,.31.06l-.05.17a.52.52,0,0,0-.26-.06.46.46,0,0,0,0,.92.62.62,0,0,0,.27-.06Z"/><path d="M17.14,52.4a.39.39,0,0,0,.42.42.81.81,0,0,0,.34-.06l0,.16a1,1,0,0,1-.41.08.57.57,0,0,1-.6-.61.59.59,0,0,1,.57-.66.52.52,0,0,1,.5.57.74.74,0,0,1,0,.1Zm.65-.16a.32.32,0,0,0-.31-.36.37.37,0,0,0-.34.36Z"/><path d="M18.95,53l0-.15h0a.45.45,0,0,1-.37.18.35.35,0,0,1-.37-.35c0-.29.26-.46.73-.45v0a.25.25,0,0,0-.28-.28.62.62,0,0,0-.32.09l-.05-.15a.76.76,0,0,1,.4-.11c.37,0,.46.25.46.5v.46a1.66,1.66,0,0,0,0,.29Zm0-.62c-.24,0-.52,0-.52.27a.2.2,0,0,0,.21.21.3.3,0,0,0,.29-.2.22.22,0,0,0,0-.07Z"/><path d="M21.07,51.18v1.47c0,.11,0,.23,0,.31h-.2v-.21h0a.45.45,0,0,1-.42.24.56.56,0,0,1-.52-.62.58.58,0,0,1,.55-.65.41.41,0,0,1,.37.19h0v-.73Zm-.22,1.06a.37.37,0,0,0,0-.09.33.33,0,0,0-.32-.26c-.23,0-.37.2-.37.47s.12.45.36.45a.33.33,0,0,0,.33-.26.37.37,0,0,0,0-.1Z"/><path d="M21.68,51.41a.14.14,0,0,1-.27,0,.13.13,0,0,1,.14-.14A.13.13,0,0,1,21.68,51.41ZM21.43,53V51.75h.22V53Z"/><path d="M22.64,51.75l.24.68c0,.11.07.21.1.31h0c0-.1.06-.2.1-.31l.24-.68h.23L23.08,53h-.21l-.46-1.22Z"/><path d="M24.84,52.35a.6.6,0,0,1-.61.65.58.58,0,0,1-.58-.63.59.59,0,0,1,.6-.65A.58.58,0,0,1,24.84,52.35Zm-1,0c0,.27.15.47.37.47s.37-.2.37-.47-.1-.47-.37-.47S23.87,52.13,23.87,52.36Z"/><path d="M25.12,51.18h.22V53h-.22Z"/><path d="M26.81,52.35a.6.6,0,0,1-.61.65.58.58,0,0,1-.58-.63.6.6,0,0,1,.6-.65A.58.58,0,0,1,26.81,52.35Zm-1,0c0,.27.15.47.37.47s.37-.2.37-.47-.1-.47-.37-.47S25.85,52.13,25.85,52.36Z"/><path d="M27.09,52.13c0-.14,0-.27,0-.38h.19V52h0a.37.37,0,0,1,.34-.27h.06v.21h-.08a.31.31,0,0,0-.3.28.54.54,0,0,0,0,.1V53h-.22Z"/><path d="M28.41,52.74a.58.58,0,0,0,.29.09c.16,0,.24-.08.24-.18s-.06-.16-.23-.22-.32-.2-.32-.34a.38.38,0,0,1,.42-.36.61.61,0,0,1,.3.08l-.05.16a.48.48,0,0,0-.25-.07c-.13,0-.2.08-.2.17s.07.15.23.21.32.19.32.37S29,53,28.7,53a.7.7,0,0,1-.34-.08Z"/><path d="M30.11,53l0-.15h0a.45.45,0,0,1-.37.18.35.35,0,0,1-.37-.35c0-.29.26-.46.73-.45v0a.25.25,0,0,0-.28-.28.61.61,0,0,0-.32.09l0-.15a.75.75,0,0,1,.4-.11c.37,0,.46.25.46.5v.46a1.77,1.77,0,0,0,0,.29Zm0-.62c-.24,0-.52,0-.52.27a.2.2,0,0,0,.21.21.3.3,0,0,0,.29-.2.22.22,0,0,0,0-.07Z"/><path d="M30.65,52.08c0-.13,0-.23,0-.33h.19v.2h0a.42.42,0,0,1,.38-.22.36.36,0,0,1,.34.24h0a.51.51,0,0,1,.14-.16.42.42,0,0,1,.27-.08c.16,0,.4.11.4.53V53h-.22v-.69c0-.23-.08-.38-.26-.38a.29.29,0,0,0-.26.2.37.37,0,0,0,0,.11V53h-.22v-.73c0-.19-.09-.33-.25-.33a.3.3,0,0,0-.28.22.33.33,0,0,0,0,.11V53h-.22Z"/><path d="M33.76,52.63c0,.13,0,.24,0,.33h-.2v-.2h0a.46.46,0,0,1-.4.23c-.19,0-.42-.11-.42-.53v-.71H33v.67c0,.23.07.39.27.39a.32.32,0,0,0,.29-.2.35.35,0,0,0,0-.11v-.75h.22Z"/><path d="M34.1,52.74a.57.57,0,0,0,.29.09c.16,0,.24-.08.24-.18s-.06-.16-.23-.22-.32-.2-.32-.34a.38.38,0,0,1,.42-.36.61.61,0,0,1,.3.08l-.05.16a.48.48,0,0,0-.25-.07c-.13,0-.2.08-.2.17s.07.15.23.21.32.19.32.37-.17.37-.46.37a.7.7,0,0,1-.34-.08Z"/><path d="M15.07,56l0-.15h0a.45.45,0,0,1-.37.18.35.35,0,0,1-.37-.35c0-.29.26-.46.73-.45v0a.25.25,0,0,0-.28-.28.61.61,0,0,0-.32.09l-.05-.15a.75.75,0,0,1,.4-.11c.37,0,.46.25.46.5v.46a1.76,1.76,0,0,0,0,.29Zm0-.62c-.24,0-.52,0-.52.27a.2.2,0,0,0,.21.21.3.3,0,0,0,.29-.2.22.22,0,0,0,0-.07Z"/><path d="M16.63,55.65c0,.13,0,.24,0,.33h-.2v-.2h0A.46.46,0,0,1,16,56c-.19,0-.42-.11-.42-.53v-.71h.22v.67c0,.23.07.39.27.39a.32.32,0,0,0,.29-.2.35.35,0,0,0,0-.11v-.75h.22Z"/><path d="M17.26,54.41v.35h.32v.17h-.32v.66c0,.15,0,.24.17.24h.13V56a.55.55,0,0,1-.2,0,.3.3,0,0,1-.24-.09A.45.45,0,0,1,17,55.6v-.67h-.19v-.17H17v-.29Z"/><path d="M19,56l0-.15h0a.45.45,0,0,1-.37.18.35.35,0,0,1-.37-.35c0-.29.26-.46.73-.45v0a.25.25,0,0,0-.28-.28.62.62,0,0,0-.32.09l0-.15a.76.76,0,0,1,.4-.11c.37,0,.46.25.46.5v.46a1.67,1.67,0,0,0,0,.29Zm0-.62c-.24,0-.52,0-.52.27a.2.2,0,0,0,.21.21.3.3,0,0,0,.29-.2.22.22,0,0,0,0-.07Z"/><path d="M19.56,55.14c0-.14,0-.27,0-.38h.19V55h0a.37.37,0,0,1,.34-.27h.06V55h-.08a.31.31,0,0,0-.3.28.64.64,0,0,0,0,.1V56h-.22Z"/><path d="M21.23,55.94a.81.81,0,0,1-.35.07.58.58,0,0,1-.61-.62.62.62,0,0,1,.65-.65.74.74,0,0,1,.31.06l0,.17a.52.52,0,0,0-.26-.06.42.42,0,0,0-.43.46.42.42,0,0,0,.42.46.62.62,0,0,0,.27-.06Z"/><path d="M21.73,54.42a.14.14,0,0,1-.27,0,.13.13,0,0,1,.14-.14A.13.13,0,0,1,21.73,54.42ZM21.49,56V54.76h.22V56Z"/><path d="M23.13,54.19v1.47c0,.11,0,.23,0,.31h-.2v-.21h0a.45.45,0,0,1-.42.24.56.56,0,0,1-.52-.62.58.58,0,0,1,.55-.65.41.41,0,0,1,.37.19h0v-.73Zm-.22,1.06a.37.37,0,0,0,0-.09.33.33,0,0,0-.32-.26c-.23,0-.37.2-.37.47s.12.45.36.45a.33.33,0,0,0,.32-.26.37.37,0,0,0,0-.1Z"/><path d="M24.85,55.79h0a.44.44,0,0,1-.4.22.56.56,0,0,1-.52-.62.58.58,0,0,1,.55-.66.4.4,0,0,1,.38.21h0v-.18h.21c0,.1,0,.21,0,.33v1.38h-.22Zm0-.54a.37.37,0,0,0,0-.09.32.32,0,0,0-.32-.25c-.23,0-.37.19-.37.47s.12.45.36.45a.33.33,0,0,0,.32-.24.38.38,0,0,0,0-.11Z"/><path d="M26.46,55.65c0,.13,0,.24,0,.33h-.2v-.2h0a.46.46,0,0,1-.4.23c-.19,0-.42-.11-.42-.53v-.71h.22v.67c0,.23.07.39.27.39a.32.32,0,0,0,.29-.2.35.35,0,0,0,0-.11v-.75h.22Z"/><path d="M27.93,55.36a.6.6,0,0,1-.61.65.58.58,0,0,1-.58-.63.59.59,0,0,1,.6-.65A.58.58,0,0,1,27.93,55.36Zm-1,0c0,.27.15.47.37.47s.37-.2.37-.47-.1-.47-.37-.47S27,55.14,27,55.37Z"/><path d="M28.82,54.76l.24.68c0,.11.07.21.1.31h0c0-.1.06-.2.1-.31l.24-.68h.23L29.26,56H29l-.46-1.22Z"/><path d="M31,55.36a.6.6,0,0,1-.61.65.58.58,0,0,1-.58-.63.6.6,0,0,1,.6-.65A.58.58,0,0,1,31,55.36Zm-1,0c0,.27.15.47.37.47s.37-.2.37-.47-.1-.47-.37-.47S30.05,55.14,30.05,55.37Z"/><path d="M31.3,54.19h.22V56H31.3Z"/><path d="M33,55.36a.6.6,0,0,1-.61.65.58.58,0,0,1-.58-.63.59.59,0,0,1,.6-.65A.58.58,0,0,1,33,55.36Zm-1,0c0,.27.15.47.37.47s.37-.2.37-.47-.1-.47-.37-.47S32,55.14,32,55.37Z"/><path d="M33.27,55.14c0-.14,0-.27,0-.38h.19V55h0a.36.36,0,0,1,.34-.27h.06V55h-.08a.31.31,0,0,0-.3.28.55.55,0,0,0,0,.1V56h-.22Z"/><path d="M34.19,55.41a.39.39,0,0,0,.42.42.8.8,0,0,0,.34-.06l0,.16a1,1,0,0,1-.41.08.57.57,0,0,1-.6-.61.59.59,0,0,1,.57-.66.52.52,0,0,1,.5.57.94.94,0,0,1,0,.1Zm.65-.16a.31.31,0,0,0-.31-.36.37.37,0,0,0-.34.36Z"/><path d="M14.48,57.78l.24.68a3.07,3.07,0,0,1,.1.31h0c0-.1.06-.2.1-.31l.24-.68h.23L14.92,59h-.21l-.46-1.22Z"/><path d="M16.68,58.38a.6.6,0,0,1-.61.65.58.58,0,0,1-.58-.63.59.59,0,0,1,.6-.65A.58.58,0,0,1,16.68,58.38Zm-1,0c0,.27.15.47.37.47s.37-.2.37-.47-.1-.47-.37-.47S15.72,58.16,15.72,58.39Z"/><path d="M17,57.21h.22V59H17Z"/><path d="M18.57,58.66c0,.13,0,.24,0,.33h-.2v-.2h0A.46.46,0,0,1,18,59c-.19,0-.42-.11-.42-.53v-.71h.22v.67c0,.23.07.39.27.39a.32.32,0,0,0,.29-.2.32.32,0,0,0,0-.11v-.75h.22Z"/><path d="M18.94,58.17c0-.16,0-.28,0-.4h.2V58h0a.48.48,0,0,1,.43-.24.55.55,0,0,1,.52.62.58.58,0,0,1-.55.65.43.43,0,0,1-.38-.19h0v.66h-.22Zm.22.32a.43.43,0,0,0,0,.09.34.34,0,0,0,.33.26c.23,0,.37-.19.37-.47s-.13-.45-.36-.45a.38.38,0,0,0-.35.37Z"/><path d="M20.63,57.43v.35h.32v.17h-.32v.66c0,.15,0,.24.17.24h.13V59a.55.55,0,0,1-.2,0,.3.3,0,0,1-.24-.09.45.45,0,0,1-.09-.32v-.67h-.19v-.17h.19v-.29Z"/><path d="M21.87,59l0-.15h0a.45.45,0,0,1-.37.18.35.35,0,0,1-.37-.35c0-.29.26-.46.73-.45v0a.25.25,0,0,0-.28-.28.61.61,0,0,0-.32.09l-.05-.15a.75.75,0,0,1,.4-.11c.37,0,.46.25.46.5v.46a1.76,1.76,0,0,0,0,.29Zm0-.62c-.24,0-.52,0-.52.27a.2.2,0,0,0,.21.21.3.3,0,0,0,.29-.2.22.22,0,0,0,0-.07Z"/><path d="M22.66,57.43v.35H23v.17h-.32v.66c0,.15,0,.24.17.24H23V59a.55.55,0,0,1-.2,0,.31.31,0,0,1-.24-.09.45.45,0,0,1-.09-.32v-.67h-.19v-.17h.19v-.29Z"/><path d="M24.25,58.66c0,.13,0,.24,0,.33h-.2v-.2h0a.46.46,0,0,1-.4.23c-.19,0-.42-.11-.42-.53v-.71h.22v.67c0,.23.07.39.27.39a.32.32,0,0,0,.29-.2.32.32,0,0,0,0-.11v-.75h.22Z"/><path d="M24.61,58.16c0-.14,0-.27,0-.38h.19V58h0a.36.36,0,0,1,.34-.27h.06V58h-.08a.31.31,0,0,0-.3.28.55.55,0,0,0,0,.1V59h-.22Z"/><path d="M25.94,58.77a.58.58,0,0,0,.29.09c.16,0,.24-.08.24-.18s-.06-.16-.23-.22-.32-.2-.32-.34a.38.38,0,0,1,.42-.36.61.61,0,0,1,.3.08l-.06.16a.47.47,0,0,0-.25-.07c-.13,0-.2.08-.2.17s.07.15.23.21.32.19.32.37-.17.37-.46.37a.7.7,0,0,1-.34-.08Z"/><path d="M27.21,57.43a.14.14,0,0,1-.27,0,.13.13,0,0,1,.14-.14A.13.13,0,0,1,27.21,57.43ZM27,59V57.78h.22V59Z"/><path d="M27.81,57.43v.35h.32v.17h-.32v.66c0,.15,0,.24.17.24h.13V59a.54.54,0,0,1-.2,0,.31.31,0,0,1-.24-.09.45.45,0,0,1-.08-.32v-.67h-.19v-.17h.19v-.29Z"/><path d="M29.05,59l0-.15h0a.45.45,0,0,1-.37.18.35.35,0,0,1-.37-.35c0-.29.26-.46.73-.45v0a.25.25,0,0,0-.28-.28.62.62,0,0,0-.32.09l-.05-.15a.76.76,0,0,1,.4-.11c.37,0,.46.25.46.5v.46a1.66,1.66,0,0,0,0,.29Zm0-.62c-.24,0-.52,0-.52.27a.2.2,0,0,0,.21.21.3.3,0,0,0,.29-.2.22.22,0,0,0,0-.07Z"/><path d="M29.85,57.43v.35h.32v.17h-.32v.66c0,.15,0,.24.17.24h.13V59a.54.54,0,0,1-.2,0,.31.31,0,0,1-.24-.09.45.45,0,0,1-.08-.32v-.67h-.19v-.17h.19v-.29Z"/><path d="M31.43,58.66c0,.13,0,.24,0,.33h-.2v-.2h0a.46.46,0,0,1-.4.23c-.19,0-.42-.11-.42-.53v-.71h.22v.67c0,.23.07.39.27.39a.32.32,0,0,0,.29-.2.35.35,0,0,0,0-.11v-.75h.22Z"/><path d="M31.79,58.16c0-.14,0-.27,0-.38H32V58h0a.37.37,0,0,1,.34-.27h.06V58h-.08a.31.31,0,0,0-.3.28.64.64,0,0,0,0,.1V59h-.22Z"/><path d="M32.79,58.51v-.07a.58.58,0,0,1,.16-.44.56.56,0,0,0,.18-.35c0-.13-.08-.21-.24-.22a.45.45,0,0,0-.25.08l-.06-.16a.66.66,0,0,1,.36-.1.37.37,0,0,1,.42.37.69.69,0,0,1-.22.44.5.5,0,0,0-.14.37v.07Zm-.05.35a.15.15,0,0,1,.15-.16.16.16,0,1,1-.15.16Z"/><path d="M14.4,62v-1.7h.24l.54.86a4.89,4.89,0,0,1,.3.55h0c0-.23,0-.43,0-.7v-.71h.21V62h-.22l-.54-.86a5.3,5.3,0,0,1-.32-.57h0c0,.21,0,.42,0,.7V62Z"/><path d="M16.17,61.44a.39.39,0,0,0,.42.42.81.81,0,0,0,.34-.06L17,62a1,1,0,0,1-.41.08.57.57,0,0,1-.6-.61.59.59,0,0,1,.57-.66.52.52,0,0,1,.5.57.74.74,0,0,1,0,.1Zm.65-.16a.32.32,0,0,0-.31-.36.37.37,0,0,0-.34.36Z"/><path d="M18.14,61.82h0a.43.43,0,0,1-.4.22.55.55,0,0,1-.52-.62.58.58,0,0,1,.55-.66.4.4,0,0,1,.38.21h0v-.18h.21c0,.1,0,.21,0,.33v1.38h-.22Zm0-.54a.37.37,0,0,0,0-.09.32.32,0,0,0-.32-.25c-.23,0-.37.19-.37.47s.12.45.36.45a.33.33,0,0,0,.32-.24.38.38,0,0,0,0-.11Z"/><path d="M19.74,61.68c0,.13,0,.24,0,.33h-.2v-.2h0a.46.46,0,0,1-.4.23c-.19,0-.42-.11-.42-.53v-.71h.22v.67c0,.23.07.39.27.39a.32.32,0,0,0,.29-.2.32.32,0,0,0,0-.11v-.75h.22Z"/><path d="M20.78,62l0-.15h0a.45.45,0,0,1-.37.18.35.35,0,0,1-.37-.35c0-.29.26-.46.73-.45v0a.25.25,0,0,0-.28-.28.61.61,0,0,0-.32.09l0-.15a.75.75,0,0,1,.4-.11c.37,0,.46.25.46.5v.46A1.77,1.77,0,0,0,21,62Zm0-.62c-.24,0-.52,0-.52.27a.2.2,0,0,0,.21.21.3.3,0,0,0,.29-.2.22.22,0,0,0,0-.07Z"/><path d="M21.31,61.12c0-.13,0-.23,0-.33h.19V61h0a.42.42,0,0,1,.38-.22.36.36,0,0,1,.34.24h0a.51.51,0,0,1,.14-.16.42.42,0,0,1,.27-.08c.16,0,.4.11.4.53V62h-.22v-.69c0-.23-.08-.38-.26-.38a.29.29,0,0,0-.26.2.37.37,0,0,0,0,.11V62h-.22v-.73c0-.19-.09-.33-.25-.33a.3.3,0,0,0-.28.22.33.33,0,0,0,0,.11V62h-.22Z"/><path d="M24.43,61.68c0,.13,0,.24,0,.33h-.2v-.2h0a.46.46,0,0,1-.4.23c-.19,0-.42-.11-.42-.53v-.71h.22v.67c0,.23.07.39.27.39a.32.32,0,0,0,.29-.2.35.35,0,0,0,0-.11v-.75h.22Z"/><path d="M24.76,61.78a.57.57,0,0,0,.29.09c.16,0,.24-.08.24-.18s-.06-.16-.23-.22-.32-.2-.32-.34a.38.38,0,0,1,.42-.36.61.61,0,0,1,.3.08l-.05.16a.48.48,0,0,0-.25-.07c-.13,0-.2.08-.2.17s.07.15.23.21.32.19.32.37S25.34,62,25,62a.7.7,0,0,1-.34-.08Z"/><path d="M26.84,60.22v1.47c0,.11,0,.23,0,.31h-.2V61.8h0a.45.45,0,0,1-.42.24.56.56,0,0,1-.52-.62.58.58,0,0,1,.55-.65.41.41,0,0,1,.37.19h0v-.73Zm-.22,1.06a.38.38,0,0,0,0-.09.32.32,0,0,0-.32-.26c-.23,0-.37.2-.37.47s.12.45.36.45a.33.33,0,0,0,.33-.26.37.37,0,0,0,0-.1Z"/><path d="M27.88,62l0-.15h0a.45.45,0,0,1-.37.18.35.35,0,0,1-.37-.35c0-.29.26-.46.73-.45v0a.25.25,0,0,0-.28-.28.61.61,0,0,0-.32.09l0-.15a.75.75,0,0,1,.4-.11c.37,0,.46.25.46.5v.46a1.77,1.77,0,0,0,0,.29Zm0-.62c-.24,0-.52,0-.52.27a.2.2,0,0,0,.21.21.3.3,0,0,0,.29-.2.22.22,0,0,0,0-.07Z"/><path d="M28.54,61.44a.39.39,0,0,0,.42.42.8.8,0,0,0,.34-.06l0,.16a1,1,0,0,1-.41.08.57.57,0,0,1-.6-.61.59.59,0,0,1,.57-.66.52.52,0,0,1,.5.57.94.94,0,0,1,0,.1Zm.65-.16a.32.32,0,0,0-.31-.36.37.37,0,0,0-.34.36Z"/><path d="M30.2,61.19c0-.16,0-.28,0-.4h.2V61h0a.48.48,0,0,1,.43-.24.55.55,0,0,1,.52.62.58.58,0,0,1-.55.65.43.43,0,0,1-.37-.19h0v.66H30.2Zm.22.32a.5.5,0,0,0,0,.09.34.34,0,0,0,.33.26c.23,0,.37-.19.37-.47s-.13-.45-.36-.45a.39.39,0,0,0-.35.37Z"/><path d="M32.31,62l0-.15h0a.45.45,0,0,1-.37.18.35.35,0,0,1-.37-.35c0-.29.26-.46.73-.45v0a.25.25,0,0,0-.28-.28.61.61,0,0,0-.32.09l0-.15a.75.75,0,0,1,.4-.11c.37,0,.46.25.46.5v.46a1.77,1.77,0,0,0,0,.29Zm0-.62c-.24,0-.52,0-.52.27a.2.2,0,0,0,.21.21.3.3,0,0,0,.29-.2.22.22,0,0,0,0-.07Z"/><path d="M32.84,61.17c0-.14,0-.27,0-.38H33V61h0a.37.37,0,0,1,.34-.27h.06V61h-.08a.31.31,0,0,0-.3.28.54.54,0,0,0,0,.1V62h-.22Z"/><path d="M34.69,61.68c0,.13,0,.24,0,.33h-.2v-.2h0a.46.46,0,0,1-.4.23c-.19,0-.42-.11-.42-.53v-.71h.22v.67c0,.23.07.39.27.39a.32.32,0,0,0,.29-.2.32.32,0,0,0,0-.11v-.75h.22Z"/><path d="M35,61.12c0-.13,0-.23,0-.33h.19V61h0a.42.42,0,0,1,.38-.22A.36.36,0,0,1,36,61h0a.51.51,0,0,1,.14-.16.42.42,0,0,1,.27-.08c.16,0,.4.11.4.53V62h-.22v-.69c0-.23-.08-.38-.26-.38a.29.29,0,0,0-.26.2.37.37,0,0,0,0,.11V62h-.22v-.73c0-.19-.09-.33-.25-.33a.3.3,0,0,0-.28.22.33.33,0,0,0,0,.11V62H35Z"/><path d="M37.68,61.17c0-.14,0-.27,0-.38h.19V61h0a.37.37,0,0,1,.34-.27h.06V61H38.2a.31.31,0,0,0-.3.28.54.54,0,0,0,0,.1V62h-.22Z"/><path d="M38.6,61.44a.39.39,0,0,0,.42.42.81.81,0,0,0,.34-.06l0,.16A1,1,0,0,1,39,62a.57.57,0,0,1-.6-.61.59.59,0,0,1,.57-.66.52.52,0,0,1,.5.57.74.74,0,0,1,0,.1Zm.65-.16a.32.32,0,0,0-.31-.36.37.37,0,0,0-.34.36Z"/><path d="M40.31,61.25v.16h-.62v-.16Z"/><path d="M14.4,64.2c0-.16,0-.28,0-.4h.2V64h0a.48.48,0,0,1,.43-.24.55.55,0,0,1,.52.62A.58.58,0,0,1,15,65a.43.43,0,0,1-.38-.19h0v.66H14.4Zm.22.32a.51.51,0,0,0,0,.09.34.34,0,0,0,.33.26c.23,0,.37-.19.37-.47S15.2,64,15,64a.39.39,0,0,0-.35.37Z"/><path d="M15.82,64.18c0-.14,0-.27,0-.38H16V64h0a.37.37,0,0,1,.34-.27h.06V64h-.08a.31.31,0,0,0-.3.28.54.54,0,0,0,0,.1V65h-.22Z"/><path d="M17.31,65l0-.15h0a.45.45,0,0,1-.37.18.35.35,0,0,1-.37-.35c0-.29.26-.46.73-.45v0a.25.25,0,0,0-.28-.28.61.61,0,0,0-.32.09l-.05-.15a.75.75,0,0,1,.4-.11c.37,0,.46.25.46.5v.46a1.76,1.76,0,0,0,0,.29Zm0-.62c-.24,0-.52,0-.52.27a.2.2,0,0,0,.21.21.3.3,0,0,0,.29-.2.22.22,0,0,0,0-.07Z"/><path d="M18,64.45a.39.39,0,0,0,.42.42.8.8,0,0,0,.34-.06l0,.16a1,1,0,0,1-.41.08.57.57,0,0,1-.6-.61.59.59,0,0,1,.57-.66.52.52,0,0,1,.5.57.94.94,0,0,1,0,.1Zm.65-.16a.31.31,0,0,0-.31-.36.37.37,0,0,0-.34.36Z"/><path d="M19,64.89a.15.15,0,0,1,.15-.16.16.16,0,1,1-.15.16Z"/><path d="M20.35,63.32V65h-.22v-1.7Z"/><path d="M21,63.45v.35h.32V64H21v.66c0,.15,0,.24.17.24h.13V65a.55.55,0,0,1-.2,0,.3.3,0,0,1-.24-.09.45.45,0,0,1-.09-.32V64h-.19V63.8h.19v-.29Z"/><path d="M21.85,63.46a.14.14,0,0,1-.27,0,.13.13,0,0,1,.14-.14A.13.13,0,0,1,21.85,63.46ZM21.6,65V63.8h.22V65Z"/><path d="M22.86,65l0-.15h0a.45.45,0,0,1-.37.18.35.35,0,0,1-.37-.35c0-.29.26-.46.73-.45v0a.25.25,0,0,0-.28-.28.61.61,0,0,0-.32.09l0-.15a.75.75,0,0,1,.4-.11c.37,0,.46.25.46.5v.46a1.77,1.77,0,0,0,0,.29Zm0-.62c-.24,0-.52,0-.52.27a.2.2,0,0,0,.21.21.3.3,0,0,0,.29-.2.22.22,0,0,0,0-.07Z"/><path d="M24,63.8l.24.68c0,.11.07.21.1.31h0c0-.1.06-.2.1-.31l.24-.68h.23L24.45,65h-.21l-.46-1.22Z"/><path d="M26.22,64.4a.6.6,0,0,1-.61.65.58.58,0,0,1-.58-.63.59.59,0,0,1,.6-.65A.58.58,0,0,1,26.22,64.4Zm-1,0c0,.27.15.47.37.47s.37-.2.37-.47-.1-.47-.37-.47S25.25,64.18,25.25,64.42Z"/><path d="M26.49,63.23h.22V65h-.22Z"/><path d="M28.1,64.69c0,.13,0,.24,0,.33h-.2v-.2h0a.46.46,0,0,1-.4.23c-.19,0-.42-.11-.42-.53V63.8h.22v.67c0,.23.07.39.27.39a.32.32,0,0,0,.29-.2.32.32,0,0,0,0-.11V63.8h.22Z"/><path d="M28.47,64.2c0-.16,0-.28,0-.4h.2V64h0a.48.48,0,0,1,.43-.24.55.55,0,0,1,.52.62.58.58,0,0,1-.55.65.43.43,0,0,1-.38-.19h0v.66h-.22Zm.22.32a.43.43,0,0,0,0,.09.34.34,0,0,0,.33.26c.23,0,.37-.19.37-.47S29.27,64,29,64a.38.38,0,0,0-.35.37Z"/><path d="M30.17,63.45v.35h.32V64h-.32v.66c0,.15,0,.24.17.24h.13V65a.55.55,0,0,1-.2,0A.3.3,0,0,1,30,65a.45.45,0,0,1-.09-.32V64h-.19V63.8h.19v-.29Z"/><path d="M31.4,65l0-.15h0A.45.45,0,0,1,31,65a.35.35,0,0,1-.37-.35c0-.29.26-.46.73-.45v0a.25.25,0,0,0-.28-.28.61.61,0,0,0-.32.09l0-.15a.75.75,0,0,1,.4-.11c.37,0,.46.25.46.5v.46a1.77,1.77,0,0,0,0,.29Zm0-.62c-.24,0-.52,0-.52.27a.2.2,0,0,0,.21.21.3.3,0,0,0,.29-.2.22.22,0,0,0,0-.07Z"/><path d="M32.47,64.13c0-.13,0-.23,0-.33h.2V64h0a.45.45,0,0,1,.4-.23c.17,0,.43.1.43.52V65h-.22v-.7c0-.2-.07-.36-.28-.36a.32.32,0,0,0-.3.23.33.33,0,0,0,0,.1V65h-.22Z"/><path d="M35,64.4a.6.6,0,0,1-.61.65.58.58,0,0,1-.58-.63.59.59,0,0,1,.6-.65A.58.58,0,0,1,35,64.4Zm-1,0c0,.27.15.47.37.47s.37-.2.37-.47-.1-.47-.37-.47S34,64.18,34,64.42Z"/><path d="M35.24,64.13c0-.13,0-.23,0-.33h.2V64h0a.45.45,0,0,1,.4-.23c.17,0,.43.1.43.52V65h-.22v-.7c0-.2-.07-.36-.28-.36a.31.31,0,0,0-.3.23.3.3,0,0,0,0,.1V65h-.22Z"/><path d="M14.4,67.21c0-.16,0-.28,0-.4h.2V67h0a.48.48,0,0,1,.43-.24.55.55,0,0,1,.52.62.58.58,0,0,1-.55.65.43.43,0,0,1-.38-.19h0v.66H14.4Zm.22.32a.51.51,0,0,0,0,.09.34.34,0,0,0,.33.26c.23,0,.37-.19.37-.47S15.2,67,15,67a.39.39,0,0,0-.35.37Z"/><path d="M15.82,67.2c0-.14,0-.27,0-.38H16v.24h0a.37.37,0,0,1,.34-.27h.06V67h-.08a.31.31,0,0,0-.3.28.54.54,0,0,0,0,.1V68h-.22Z"/><path d="M17.72,67.42a.6.6,0,0,1-.61.65.58.58,0,0,1-.58-.63.59.59,0,0,1,.6-.65A.58.58,0,0,1,17.72,67.42Zm-1,0c0,.27.15.47.37.47s.37-.2.37-.47-.1-.47-.37-.47S16.76,67.2,16.76,67.43Z"/><path d="M18.07,66.82l.24.68c0,.11.07.21.1.31h0c0-.1.06-.2.1-.31l.24-.68H19L18.51,68H18.3l-.46-1.22Z"/><path d="M19.44,66.47a.14.14,0,0,1-.27,0,.13.13,0,0,1,.14-.14A.13.13,0,0,1,19.44,66.47ZM19.19,68V66.82h.22V68Z"/><path d="M20.83,66.25v1.47c0,.11,0,.23,0,.31h-.2v-.21h0a.45.45,0,0,1-.42.24.56.56,0,0,1-.52-.62.58.58,0,0,1,.55-.65.41.41,0,0,1,.37.19h0v-.73Zm-.22,1.06a.37.37,0,0,0,0-.09.33.33,0,0,0-.32-.26c-.23,0-.37.2-.37.47s.12.45.36.45a.33.33,0,0,0,.33-.26.37.37,0,0,0,0-.1Z"/><path d="M21.44,66.47a.14.14,0,0,1-.27,0,.13.13,0,0,1,.14-.14A.13.13,0,0,1,21.44,66.47ZM21.2,68V66.82h.22V68Z"/><path d="M21.75,67.81a.58.58,0,0,0,.29.09c.16,0,.24-.08.24-.18s-.06-.16-.23-.22-.32-.2-.32-.34a.38.38,0,0,1,.42-.36.61.61,0,0,1,.3.08L22.4,67a.47.47,0,0,0-.25-.07c-.13,0-.2.08-.2.17s.07.15.23.21.32.19.32.37-.17.37-.46.37A.7.7,0,0,1,21.7,68Z"/><path d="M23.31,67.15c0-.13,0-.23,0-.33h.2V67h0a.45.45,0,0,1,.4-.23c.17,0,.43.1.43.52V68h-.22v-.7c0-.2-.07-.36-.28-.36a.32.32,0,0,0-.3.23.3.3,0,0,0,0,.1V68h-.22Z"/><path d="M25.38,68l0-.15h0a.45.45,0,0,1-.37.18.35.35,0,0,1-.37-.35c0-.29.26-.46.73-.45v0a.25.25,0,0,0-.28-.28.62.62,0,0,0-.32.09l-.05-.15a.76.76,0,0,1,.4-.11c.37,0,.46.25.46.5v.46a1.66,1.66,0,0,0,0,.29Zm0-.62c-.24,0-.52,0-.52.27a.2.2,0,0,0,.21.21.3.3,0,0,0,.29-.2.22.22,0,0,0,0-.07Z"/><path d="M25.92,67.15c0-.13,0-.23,0-.33h.19V67h0a.42.42,0,0,1,.38-.22.36.36,0,0,1,.34.24h0a.5.5,0,0,1,.14-.16.42.42,0,0,1,.27-.08c.16,0,.4.11.4.53V68h-.22v-.69c0-.23-.09-.38-.26-.38a.29.29,0,0,0-.26.2.37.37,0,0,0,0,.11V68h-.22V67.3c0-.19-.09-.33-.25-.33a.3.3,0,0,0-.27.22.29.29,0,0,0,0,.11V68h-.22Z"/><path d="M28.56,68V67h-.17v-.17h.17v-.06a.58.58,0,0,1,.14-.43.42.42,0,0,1,.3-.11.51.51,0,0,1,.19,0l0,.17a.32.32,0,0,0-.14,0c-.19,0-.24.17-.24.35v.07h.29V67h-.29v1Z"/><path d="M30.3,67.7c0,.13,0,.24,0,.33h-.2v-.2h0a.46.46,0,0,1-.4.23c-.19,0-.42-.11-.42-.53v-.71h.22v.67c0,.23.07.39.27.39a.32.32,0,0,0,.29-.2.35.35,0,0,0,0-.11v-.75h.22Z"/><path d="M31.71,66.82c0,.09,0,.19,0,.33v.71a.7.7,0,0,1-.17.56.64.64,0,0,1-.44.15.79.79,0,0,1-.41-.1l.05-.17a.69.69,0,0,0,.36.1c.23,0,.39-.12.39-.43v-.14h0a.44.44,0,0,1-.39.2.54.54,0,0,1-.52-.59.58.58,0,0,1,.55-.65.41.41,0,0,1,.38.21h0v-.18Zm-.23.48a.33.33,0,0,0,0-.1.32.32,0,0,0-.31-.23c-.21,0-.36.18-.36.46s.12.44.36.44a.32.32,0,0,0,.31-.23.38.38,0,0,0,0-.12Z"/><path d="M32.29,66.47a.14.14,0,0,1-.27,0,.13.13,0,0,1,.14-.14A.13.13,0,0,1,32.29,66.47ZM32,68V66.82h.22V68Z"/><path d="M32.9,66.47v.35h.32V67H32.9v.66c0,.15,0,.24.17.24h.13V68a.54.54,0,0,1-.2,0,.31.31,0,0,1-.24-.09.45.45,0,0,1-.08-.32V67H32.5v-.17h.19v-.29Z"/><path d="M33.71,66.47a.14.14,0,0,1-.28,0,.14.14,0,0,1,.14-.14A.13.13,0,0,1,33.71,66.47ZM33.47,68V66.82h.22V68Z"/><path d="M35.07,67.7c0,.13,0,.24,0,.33h-.2v-.2h0a.46.46,0,0,1-.4.23c-.19,0-.42-.11-.42-.53v-.71h.22v.67c0,.23.07.39.27.39a.32.32,0,0,0,.29-.2.32.32,0,0,0,0-.11v-.75h.22Z"/><path d="M36,67.15c0-.13,0-.23,0-.33h.2V67h0a.45.45,0,0,1,.4-.23c.17,0,.43.1.43.52V68h-.22v-.7c0-.2-.07-.36-.28-.36a.32.32,0,0,0-.3.23.33.33,0,0,0,0,.1V68H36Z"/><path d="M37.62,66.47v.35h.32V67h-.32v.66c0,.15,0,.24.17.24h.13V68a.54.54,0,0,1-.2,0,.31.31,0,0,1-.24-.09.45.45,0,0,1-.08-.32V67h-.19v-.17h.19v-.29Z"/><path d="M39.28,67.42a.6.6,0,0,1-.61.65.58.58,0,0,1-.58-.63.59.59,0,0,1,.6-.65A.58.58,0,0,1,39.28,67.42Zm-1,0c0,.27.15.47.37.47s.37-.2.37-.47-.1-.47-.37-.47S38.31,67.2,38.31,67.43Z"/><path d="M40.1,67.27v.16h-.62v-.16Z"/><path d="M14.66,69.48v.35H15V70h-.32v.66c0,.15,0,.24.17.24H15V71a.54.54,0,0,1-.2,0,.31.31,0,0,1-.24-.09.45.45,0,0,1-.08-.32V70h-.19v-.17h.19v-.29Z"/><path d="M15.9,71l0-.15h0a.45.45,0,0,1-.37.18.35.35,0,0,1-.37-.35c0-.29.26-.46.73-.45v0a.25.25,0,0,0-.28-.28.62.62,0,0,0-.32.09l0-.15a.76.76,0,0,1,.4-.11c.37,0,.46.25.46.5v.46a1.67,1.67,0,0,0,0,.29Zm0-.62c-.24,0-.52,0-.52.27a.2.2,0,0,0,.21.21.3.3,0,0,0,.29-.2.22.22,0,0,0,0-.07Z"/><path d="M16.69,69.48v.35H17V70h-.32v.66c0,.15,0,.24.17.24H17V71a.55.55,0,0,1-.2,0,.3.3,0,0,1-.24-.09.45.45,0,0,1-.09-.32V70h-.19v-.17h.19v-.29Z"/><path d="M18.28,70.72c0,.13,0,.24,0,.33h-.2v-.2h0a.46.46,0,0,1-.4.23c-.19,0-.42-.11-.42-.53v-.71h.22v.67c0,.23.07.39.27.39a.32.32,0,0,0,.29-.2.35.35,0,0,0,0-.11v-.75h.22Z"/><path d="M19.18,70.21c0-.14,0-.27,0-.38h.19v.24h0a.37.37,0,0,1,.34-.27h.06V70H19.7a.31.31,0,0,0-.3.28.64.64,0,0,0,0,.1V71h-.22Z"/><path d="M20.1,70.48a.39.39,0,0,0,.42.42.8.8,0,0,0,.34-.06l0,.16a1,1,0,0,1-.41.08.57.57,0,0,1-.6-.61.59.59,0,0,1,.57-.66.52.52,0,0,1,.5.57.94.94,0,0,1,0,.1Zm.65-.16a.31.31,0,0,0-.31-.36.37.37,0,0,0-.34.36Z"/><path d="M21.2,70.82a.58.58,0,0,0,.29.09c.16,0,.24-.08.24-.18s-.06-.16-.23-.22-.32-.2-.32-.34a.38.38,0,0,1,.42-.36.62.62,0,0,1,.3.08l-.06.16A.47.47,0,0,0,21.6,70c-.13,0-.21.08-.21.17s.07.15.23.21.32.19.32.37-.17.37-.46.37a.7.7,0,0,1-.34-.08Z"/><path d="M23.1,71a.82.82,0,0,1-.35.07.58.58,0,0,1-.61-.62.62.62,0,0,1,.65-.65.74.74,0,0,1,.31.06L23,70a.51.51,0,0,0-.26-.06.46.46,0,0,0,0,.92.62.62,0,0,0,.27-.06Z"/><path d="M23.6,69.49a.14.14,0,0,1-.27,0,.13.13,0,0,1,.14-.14A.13.13,0,0,1,23.6,69.49ZM23.35,71V69.83h.22V71Z"/><path d="M23.94,70.16c0-.13,0-.23,0-.33h.19V70h0a.42.42,0,0,1,.38-.22.36.36,0,0,1,.34.24h0a.5.5,0,0,1,.14-.16.42.42,0,0,1,.27-.08c.16,0,.4.11.4.53V71h-.22v-.69c0-.23-.09-.38-.26-.38a.29.29,0,0,0-.26.2.37.37,0,0,0,0,.11V71H24.7v-.73c0-.19-.09-.33-.25-.33a.3.3,0,0,0-.27.22.29.29,0,0,0,0,.11V71h-.22Z"/><path d="M26.57,70.21c0-.14,0-.27,0-.38h.19v.24h0a.37.37,0,0,1,.34-.27h.06V70h-.08a.31.31,0,0,0-.3.28.64.64,0,0,0,0,.1V71h-.22Z"/><path d="M28.05,71l0-.15h0a.45.45,0,0,1-.37.18.35.35,0,0,1-.37-.35c0-.29.26-.46.73-.45v0a.25.25,0,0,0-.28-.28.62.62,0,0,0-.32.09l-.05-.15a.76.76,0,0,1,.4-.11c.37,0,.46.25.46.5v.46a1.66,1.66,0,0,0,0,.29Zm0-.62c-.24,0-.52,0-.52.27a.2.2,0,0,0,.21.21.3.3,0,0,0,.29-.2.22.22,0,0,0,0-.07Z"/><path d="M28.84,69.48v.35h.32V70h-.32v.66c0,.15,0,.24.17.24h.13V71a.54.54,0,0,1-.2,0,.31.31,0,0,1-.24-.09.45.45,0,0,1-.08-.32V70h-.19v-.17h.19v-.29Z"/><path d="M29.35,70.92a.15.15,0,0,1,.15-.16.16.16,0,1,1-.15.16Z"/><path d="M15.83,73.32c0-.24,0-.52,0-.73h0c-.06.2-.13.41-.21.64l-.3.82h-.17l-.27-.81c-.08-.24-.15-.46-.2-.66h0c0,.21,0,.5,0,.75l0,.73h-.21l.12-1.7h.28l.29.82c.07.21.13.4.17.57h0c0-.17.1-.36.18-.57l.3-.82H16l.11,1.7h-.21Z"/><path d="M17.53,73.44a.6.6,0,0,1-.61.65.58.58,0,0,1-.58-.63.6.6,0,0,1,.6-.65A.58.58,0,0,1,17.53,73.44Zm-1,0c0,.27.15.47.37.47s.37-.2.37-.47-.1-.47-.37-.47S16.57,73.22,16.57,73.46Z"/><path d="M18.59,72.5a.14.14,0,0,1-.27,0,.13.13,0,0,1,.14-.14A.13.13,0,0,1,18.59,72.5Zm-.25,1.56V72.84h.22v1.22Z"/><path d="M19.95,73.73c0,.13,0,.24,0,.33h-.2v-.2h0a.46.46,0,0,1-.4.23c-.19,0-.42-.11-.42-.53v-.71h.22v.67c0,.23.07.39.27.39a.32.32,0,0,0,.29-.2.35.35,0,0,0,0-.11v-.75h.22Z"/><path d="M20.28,73.84a.57.57,0,0,0,.29.09c.16,0,.24-.08.24-.18s-.06-.16-.23-.22-.32-.2-.32-.34a.38.38,0,0,1,.42-.36.61.61,0,0,1,.3.08l-.05.16a.48.48,0,0,0-.25-.07c-.13,0-.2.08-.2.17s.07.15.23.21.32.19.32.37-.17.37-.46.37a.7.7,0,0,1-.34-.08Z"/><path d="M22,74.06l0-.15h0a.45.45,0,0,1-.37.18.35.35,0,0,1-.37-.35c0-.29.26-.46.73-.45v0a.25.25,0,0,0-.28-.28.62.62,0,0,0-.32.09l0-.15a.76.76,0,0,1,.4-.11c.37,0,.46.25.46.5v.46a1.67,1.67,0,0,0,0,.29Zm0-.62c-.24,0-.52,0-.52.27a.2.2,0,0,0,.21.21.3.3,0,0,0,.29-.2.22.22,0,0,0,0-.07Z"/><path d="M22.52,73.17c0-.13,0-.23,0-.33h.2V73h0a.45.45,0,0,1,.4-.23c.17,0,.43.1.43.52v.73h-.22v-.7c0-.2-.07-.36-.28-.36a.32.32,0,0,0-.3.23.33.33,0,0,0,0,.1v.73h-.22Z"/><path d="M24.16,72.5a.14.14,0,0,1-.27,0,.13.13,0,0,1,.14-.14A.13.13,0,0,1,24.16,72.5Zm-.25,1.56V72.84h.22v1.22Z"/><path d="M24.5,72.28h.22V73h0a.42.42,0,0,1,.16-.16.46.46,0,0,1,.23-.06c.16,0,.43.1.43.52v.72h-.22v-.7c0-.2-.07-.36-.28-.36a.32.32,0,0,0-.3.22.25.25,0,0,0,0,.11v.74H24.5Z"/><path d="M26.14,72.5a.14.14,0,0,1-.28,0,.14.14,0,0,1,.14-.14A.13.13,0,0,1,26.14,72.5Zm-.25,1.56V72.84h.22v1.22Z"/><path d="M26.75,72.49v.35h.32V73h-.32v.66c0,.15,0,.24.17.24H27v.17a.55.55,0,0,1-.2,0,.3.3,0,0,1-.24-.09.45.45,0,0,1-.09-.32V73h-.19v-.17h.19v-.29Z"/><path d="M28,73.49a.39.39,0,0,0,.42.42.8.8,0,0,0,.34-.06l0,.16a1,1,0,0,1-.41.08.57.57,0,0,1-.6-.61.59.59,0,0,1,.57-.66.52.52,0,0,1,.5.57.94.94,0,0,1,0,.1Zm.65-.16a.32.32,0,0,0-.31-.36.37.37,0,0,0-.34.36Z"/><path d="M29.2,72.84l.17.26.12.2h0l.12-.2.17-.26H30l-.42.59.43.63h-.25l-.18-.27-.13-.21h0l-.13.21-.18.27h-.24l.43-.62-.41-.6Z"/><path d="M30.34,73.49a.39.39,0,0,0,.42.42.8.8,0,0,0,.34-.06l0,.16a1,1,0,0,1-.41.08.57.57,0,0,1-.6-.61.59.59,0,0,1,.57-.66.52.52,0,0,1,.5.57.94.94,0,0,1,0,.1Zm.65-.16a.31.31,0,0,0-.31-.36.37.37,0,0,0-.34.36Z"/><path d="M31.48,73.22c0-.14,0-.27,0-.38h.19v.24h0a.37.37,0,0,1,.34-.27h.06V73H32a.31.31,0,0,0-.3.28.64.64,0,0,0,0,.1v.65h-.22Z"/><path d="M32.55,72.5a.14.14,0,0,1-.27,0,.13.13,0,0,1,.14-.14A.13.13,0,0,1,32.55,72.5Zm-.25,1.56V72.84h.22v1.22Z"/><path d="M33.57,74.06l0-.15h0a.45.45,0,0,1-.37.18.35.35,0,0,1-.37-.35c0-.29.26-.46.73-.45v0a.25.25,0,0,0-.28-.28.62.62,0,0,0-.32.09l-.05-.15a.76.76,0,0,1,.4-.11c.37,0,.46.25.46.5v.46a1.66,1.66,0,0,0,0,.29Zm0-.62c-.24,0-.52,0-.52.27a.2.2,0,0,0,.21.21.3.3,0,0,0,.29-.2.22.22,0,0,0,0-.07Z"/><path d="M34.61,73.84a.58.58,0,0,0,.29.09c.16,0,.24-.08.24-.18s-.06-.16-.23-.22-.32-.2-.32-.34a.38.38,0,0,1,.42-.36.61.61,0,0,1,.3.08l-.05.16A.48.48,0,0,0,35,73c-.13,0-.2.08-.2.17s.07.15.23.21.32.19.32.37-.17.37-.46.37a.7.7,0,0,1-.34-.08Z"/><path d="M36.73,73.44a.6.6,0,0,1-.61.65.58.58,0,0,1-.58-.63.59.59,0,0,1,.6-.65A.58.58,0,0,1,36.73,73.44Zm-1,0c0,.27.15.47.37.47s.37-.2.37-.47-.1-.47-.37-.47S35.77,73.22,35.77,73.46Z"/><path d="M37.56,73.3v.16h-.62V73.3Z"/><path d="M14.4,75.29h.22v1.79H14.4Z"/><path d="M16,76.74c0,.13,0,.24,0,.33h-.2v-.2h0a.46.46,0,0,1-.4.23c-.19,0-.42-.11-.42-.53v-.71h.22v.67c0,.23.07.39.27.39a.32.32,0,0,0,.29-.2.35.35,0,0,0,0-.11v-.75H16Z"/><path d="M16.37,76.26c0-.16,0-.28,0-.4h.2v.21h0a.48.48,0,0,1,.43-.24.55.55,0,0,1,.52.62.58.58,0,0,1-.55.65.43.43,0,0,1-.38-.19h0v.66h-.22Zm.22.32a.51.51,0,0,0,0,.09.34.34,0,0,0,.33.26c.23,0,.37-.19.37-.47s-.13-.45-.36-.45a.39.39,0,0,0-.35.37Z"/><path d="M18.07,75.51v.35h.32V76h-.32v.66c0,.15,0,.24.17.24h.13v.17a.55.55,0,0,1-.2,0,.31.31,0,0,1-.24-.09.45.45,0,0,1-.09-.32V76h-.19v-.17h.19v-.29Z"/><path d="M18.88,75.52a.14.14,0,0,1-.27,0,.13.13,0,0,1,.14-.14A.13.13,0,0,1,18.88,75.52Zm-.25,1.56V75.86h.22v1.22Z"/><path d="M20.32,76.46a.6.6,0,0,1-.61.65.58.58,0,0,1-.58-.63.59.59,0,0,1,.6-.65A.58.58,0,0,1,20.32,76.46Zm-1,0c0,.27.15.47.37.47s.37-.2.37-.47S20,76,19.73,76,19.36,76.24,19.36,76.47Z"/><path d="M20.6,76.19c0-.13,0-.23,0-.33h.2v.2h0a.45.45,0,0,1,.4-.23c.17,0,.43.1.43.52v.73h-.22v-.7c0-.2-.07-.36-.28-.36a.31.31,0,0,0-.3.23.33.33,0,0,0,0,.1v.73H20.6Z"/><path d="M22.52,76.19c0-.13,0-.23,0-.33h.2v.2h0a.45.45,0,0,1,.4-.23c.17,0,.43.1.43.52v.73h-.22v-.7c0-.2-.07-.36-.28-.36a.32.32,0,0,0-.3.23.33.33,0,0,0,0,.1v.73h-.22Z"/><path d="M25,76.46a.6.6,0,0,1-.61.65.58.58,0,0,1-.58-.63.59.59,0,0,1,.6-.65A.58.58,0,0,1,25,76.46Zm-1,0c0,.27.15.47.37.47s.37-.2.37-.47-.1-.47-.37-.47S24.05,76.24,24.05,76.47Z"/><path d="M25.27,76.85a.58.58,0,0,0,.29.09c.16,0,.24-.08.24-.18s-.06-.16-.23-.22-.32-.2-.32-.34a.38.38,0,0,1,.42-.36.61.61,0,0,1,.3.08l-.06.16a.47.47,0,0,0-.25-.07c-.13,0-.2.08-.2.17s.07.15.23.21.32.19.32.37-.17.37-.46.37a.7.7,0,0,1-.34-.08Z"/><path d="M26.95,76.51a.39.39,0,0,0,.42.42.8.8,0,0,0,.34-.06l0,.16a1,1,0,0,1-.41.08.57.57,0,0,1-.6-.61.59.59,0,0,1,.57-.66.52.52,0,0,1,.5.57.94.94,0,0,1,0,.1Zm.65-.16a.32.32,0,0,0-.31-.36.37.37,0,0,0-.34.36Z"/><path d="M28.05,76.85a.58.58,0,0,0,.29.09c.16,0,.24-.08.24-.18s-.06-.16-.23-.22-.32-.2-.32-.34a.38.38,0,0,1,.42-.36.61.61,0,0,1,.3.08l-.06.16a.47.47,0,0,0-.25-.07c-.13,0-.2.08-.2.17s.07.15.23.21.32.19.32.37-.17.37-.46.37A.7.7,0,0,1,28,77Z"/><path d="M29.2,76.51a.39.39,0,0,0,.42.42.8.8,0,0,0,.34-.06L30,77a1,1,0,0,1-.41.08.57.57,0,0,1-.6-.61.59.59,0,0,1,.57-.66.52.52,0,0,1,.5.57.94.94,0,0,1,0,.1Zm.65-.16a.31.31,0,0,0-.31-.36.37.37,0,0,0-.34.36Z"/><path d="M30.87,76.26c0-.16,0-.28,0-.4h.2v.21h0a.48.48,0,0,1,.43-.24.55.55,0,0,1,.52.62.58.58,0,0,1-.55.65.43.43,0,0,1-.37-.19h0v.66h-.22Zm.22.32a.43.43,0,0,0,0,.09.34.34,0,0,0,.33.26c.23,0,.37-.19.37-.47s-.13-.45-.36-.45a.38.38,0,0,0-.35.37Z"/><path d="M33.4,76.46a.6.6,0,0,1-.61.65.58.58,0,0,1-.58-.63.59.59,0,0,1,.6-.65A.58.58,0,0,1,33.4,76.46Zm-1,0c0,.27.15.47.37.47s.37-.2.37-.47-.1-.47-.37-.47S32.43,76.24,32.43,76.47Z"/><path d="M33.68,76.24c0-.14,0-.27,0-.38h.19v.24h0a.37.37,0,0,1,.34-.27h.06V76H34.2a.31.31,0,0,0-.3.28.64.64,0,0,0,0,.1v.65h-.22Z"/><path d="M35,76.19c0-.13,0-.23,0-.33h.19v.2h0a.42.42,0,0,1,.38-.22.36.36,0,0,1,.35.24h0a.52.52,0,0,1,.14-.16.42.42,0,0,1,.27-.08c.16,0,.4.11.4.53v.72h-.22v-.69c0-.23-.09-.38-.26-.38a.29.29,0,0,0-.26.2.37.37,0,0,0,0,.11v.75h-.22v-.73c0-.19-.09-.33-.25-.33a.3.3,0,0,0-.27.22.31.31,0,0,0,0,.11v.74H35Z"/><path d="M37.37,75.52a.14.14,0,0,1-.28,0,.14.14,0,0,1,.14-.14A.13.13,0,0,1,37.37,75.52Zm-.25,1.56V75.86h.22v1.22Z"/><path d="M37.71,75.29h.22v1.79h-.22Z"/><path d="M14.4,79.2c0-.13,0-.23,0-.33h.19v.2h0a.42.42,0,0,1,.38-.22.36.36,0,0,1,.34.24h0a.5.5,0,0,1,.14-.16.42.42,0,0,1,.27-.08c.16,0,.4.11.4.53v.72h-.22V79.4c0-.23-.09-.38-.26-.38a.29.29,0,0,0-.26.2.37.37,0,0,0,0,.11v.75h-.22v-.73c0-.19-.09-.33-.25-.33a.3.3,0,0,0-.27.22.29.29,0,0,0,0,.11v.74H14.4Z"/><path d="M17.59,79.47a.6.6,0,0,1-.61.65.58.58,0,0,1-.58-.63.6.6,0,0,1,.6-.65A.58.58,0,0,1,17.59,79.47Zm-1,0c0,.27.15.47.37.47s.37-.2.37-.47S17.26,79,17,79,16.63,79.25,16.63,79.48Z"/><path d="M19.27,80a.81.81,0,0,1-.35.07.58.58,0,0,1-.61-.62.62.62,0,0,1,.66-.65.74.74,0,0,1,.31.06l-.05.17A.51.51,0,0,0,19,79a.46.46,0,0,0,0,.92.62.62,0,0,0,.27-.06Z"/><path d="M20.62,79.47a.6.6,0,0,1-.61.65.58.58,0,0,1-.58-.63.6.6,0,0,1,.6-.65A.58.58,0,0,1,20.62,79.47Zm-1,0c0,.27.15.47.37.47s.37-.2.37-.47S20.29,79,20,79,19.65,79.25,19.65,79.48Z"/><path d="M20.89,79.2c0-.13,0-.23,0-.33h.2v.2h0a.45.45,0,0,1,.4-.23c.17,0,.43.1.43.52v.73h-.22v-.7c0-.2-.07-.36-.28-.36a.32.32,0,0,0-.3.23.3.3,0,0,0,0,.1v.73h-.22Z"/><path d="M22.26,79.86a.58.58,0,0,0,.29.09c.16,0,.24-.08.24-.18s-.06-.16-.23-.22-.32-.2-.32-.34a.38.38,0,0,1,.42-.36.62.62,0,0,1,.3.08l-.06.16a.47.47,0,0,0-.25-.07c-.13,0-.21.08-.21.17s.07.15.23.21.32.19.32.37-.17.37-.46.37A.7.7,0,0,1,22.2,80Z"/><path d="M23.4,79.52a.39.39,0,0,0,.42.42.8.8,0,0,0,.34-.06l0,.16a1,1,0,0,1-.4.08.57.57,0,0,1-.6-.61.59.59,0,0,1,.57-.66.52.52,0,0,1,.5.57.74.74,0,0,1,0,.1Zm.65-.16a.32.32,0,0,0-.31-.36.37.37,0,0,0-.34.36Z"/><path d="M25.59,78.3v1.47c0,.11,0,.23,0,.31h-.2v-.21h0a.45.45,0,0,1-.42.24.56.56,0,0,1-.52-.62.58.58,0,0,1,.55-.65.41.41,0,0,1,.37.19h0V78.3Zm-.22,1.06a.38.38,0,0,0,0-.09A.32.32,0,0,0,25,79c-.23,0-.37.2-.37.47s.12.45.36.45a.33.33,0,0,0,.33-.26.37.37,0,0,0,0-.1Z"/><path d="M26.61,79.52a.39.39,0,0,0,.42.42.8.8,0,0,0,.34-.06l0,.16a1,1,0,0,1-.4.08.57.57,0,0,1-.6-.61.59.59,0,0,1,.57-.66.52.52,0,0,1,.5.57.74.74,0,0,1,0,.1Zm.65-.16A.32.32,0,0,0,27,79a.37.37,0,0,0-.34.36Z"/><path d="M27.84,78.87l.17.26.12.2h0l.12-.2.17-.26h.24l-.42.59.43.63h-.25l-.18-.27-.13-.21h0l-.13.21-.18.27h-.24l.43-.62-.41-.6Z"/><path d="M29.56,79.52a.39.39,0,0,0,.42.42.8.8,0,0,0,.34-.06l0,.16a1,1,0,0,1-.41.08.57.57,0,0,1-.6-.61.59.59,0,0,1,.57-.66.52.52,0,0,1,.5.57.94.94,0,0,1,0,.1Zm.65-.16A.31.31,0,0,0,29.9,79a.37.37,0,0,0-.34.36Z"/><path d="M31.8,79.47a.6.6,0,0,1-.61.65.58.58,0,0,1-.58-.63.59.59,0,0,1,.6-.65A.58.58,0,0,1,31.8,79.47Zm-1,0c0,.27.15.47.37.47s.37-.2.37-.47-.1-.47-.37-.47S30.83,79.25,30.83,79.48Z"/><path d="M32,79.86a.58.58,0,0,0,.29.09c.16,0,.24-.08.24-.18s-.06-.16-.23-.22-.32-.2-.32-.34a.38.38,0,0,1,.42-.36.61.61,0,0,1,.3.08l-.06.16a.47.47,0,0,0-.25-.07c-.13,0-.2.08-.2.17s.07.15.23.21.32.19.32.37-.17.37-.46.37A.7.7,0,0,1,32,80Z"/><path d="M33.33,78.52v.35h.32V79h-.32v.66c0,.15,0,.24.17.24h.13v.17a.54.54,0,0,1-.2,0A.31.31,0,0,1,33.2,80a.45.45,0,0,1-.08-.32V79h-.19v-.17h.19v-.29Z"/><path d="M35,79.47a.6.6,0,0,1-.61.65.58.58,0,0,1-.58-.63.59.59,0,0,1,.6-.65A.58.58,0,0,1,35,79.47Zm-1,0c0,.27.15.47.37.47s.37-.2.37-.47-.1-.47-.37-.47S34,79.25,34,79.48Z"/><path d="M36.85,78.3v1.47c0,.11,0,.23,0,.31h-.2v-.21h0a.45.45,0,0,1-.42.24.56.56,0,0,1-.52-.62.58.58,0,0,1,.55-.65.41.41,0,0,1,.37.19h0V78.3Zm-.22,1.06a.38.38,0,0,0,0-.09A.32.32,0,0,0,36.3,79c-.23,0-.36.2-.36.47s.12.45.36.45a.33.33,0,0,0,.32-.26.37.37,0,0,0,0-.1Z"/><path d="M38.31,79.47a.6.6,0,0,1-.61.65.58.58,0,0,1-.58-.63.6.6,0,0,1,.6-.65A.58.58,0,0,1,38.31,79.47Zm-1,0c0,.27.15.47.37.47s.37-.2.37-.47S38,79,37.72,79,37.35,79.25,37.35,79.48Z"/><path d="M39.14,79.33v.16h-.62v-.16Z"/><path d="M14.4,81.32h.22V83.1H14.4Z"/><path d="M16,82.77c0,.13,0,.24,0,.33h-.2v-.2h0a.46.46,0,0,1-.4.23c-.19,0-.42-.11-.42-.53v-.71h.22v.67c0,.23.07.39.27.39a.32.32,0,0,0,.29-.2.35.35,0,0,0,0-.11v-.75H16Z"/><path d="M16.37,82.28c0-.16,0-.28,0-.4h.2v.21h0a.48.48,0,0,1,.43-.24.55.55,0,0,1,.52.62.58.58,0,0,1-.55.65.43.43,0,0,1-.38-.19h0v.66h-.22Zm.22.32a.51.51,0,0,0,0,.09.34.34,0,0,0,.33.26c.23,0,.37-.19.37-.47s-.13-.45-.36-.45a.39.39,0,0,0-.35.37Z"/><path d="M18.07,81.54v.35h.32v.17h-.32v.66c0,.15,0,.24.17.24h.13v.17a.55.55,0,0,1-.2,0,.31.31,0,0,1-.24-.09.45.45,0,0,1-.09-.32v-.67h-.19v-.17h.19v-.29Z"/><path d="M19.31,83.1l0-.15h0a.45.45,0,0,1-.37.18.35.35,0,0,1-.37-.35c0-.29.26-.46.73-.45v0A.25.25,0,0,0,19,82a.62.62,0,0,0-.32.09L18.62,82a.76.76,0,0,1,.4-.11c.37,0,.46.25.46.5v.46a1.66,1.66,0,0,0,0,.29Zm0-.62c-.24,0-.52,0-.52.27A.2.2,0,0,0,19,83a.3.3,0,0,0,.29-.2.22.22,0,0,0,0-.07Z"/><path d="M21.21,82.92h0a.43.43,0,0,1-.4.22.56.56,0,0,1-.52-.62.58.58,0,0,1,.55-.66.4.4,0,0,1,.38.21h0v-.18h.21c0,.1,0,.21,0,.33V83.6h-.22Zm0-.54a.37.37,0,0,0,0-.09.32.32,0,0,0-.32-.25c-.23,0-.37.19-.37.47s.12.45.36.45a.33.33,0,0,0,.32-.24.38.38,0,0,0,0-.11Z"/><path d="M22.81,82.77c0,.13,0,.24,0,.33h-.2v-.2h0a.46.46,0,0,1-.4.23c-.19,0-.42-.11-.42-.53v-.71H22v.67c0,.23.07.39.27.39a.32.32,0,0,0,.29-.2.35.35,0,0,0,0-.11v-.75h.22Z"/><path d="M23.42,81.54a.14.14,0,0,1-.27,0,.13.13,0,0,1,.14-.14A.13.13,0,0,1,23.42,81.54Zm-.25,1.56V81.88h.22V83.1Z"/><path d="M24.81,81.32v1.47c0,.11,0,.23,0,.31h-.2v-.21h0a.45.45,0,0,1-.42.24.56.56,0,0,1-.52-.62.58.58,0,0,1,.55-.65.41.41,0,0,1,.37.19h0v-.73Zm-.22,1.06a.37.37,0,0,0,0-.09.33.33,0,0,0-.32-.26c-.23,0-.37.2-.37.47s.12.45.36.45a.33.33,0,0,0,.33-.26.37.37,0,0,0,0-.1Z"/><path d="M25.3,82.53a.39.39,0,0,0,.42.42.81.81,0,0,0,.34-.06l0,.16a1,1,0,0,1-.41.08.57.57,0,0,1-.6-.61.59.59,0,0,1,.57-.66.52.52,0,0,1,.5.57.74.74,0,0,1,0,.1Zm.65-.16a.32.32,0,0,0-.31-.36.37.37,0,0,0-.34.36Z"/><path d="M26.44,82.26c0-.14,0-.27,0-.38h.19v.24h0a.37.37,0,0,1,.34-.27H27v.21H27a.31.31,0,0,0-.3.28.64.64,0,0,0,0,.1v.65h-.22Z"/><path d="M27.35,83.1v-1h-.17v-.17h.17v-.06a.58.58,0,0,1,.14-.43.42.42,0,0,1,.3-.11.51.51,0,0,1,.19,0l0,.17a.32.32,0,0,0-.14,0c-.19,0-.24.17-.24.35v.07h.29v.17h-.29v1Z"/><path d="M28.16,82.53a.39.39,0,0,0,.42.42.81.81,0,0,0,.34-.06l0,.16a1,1,0,0,1-.41.08.57.57,0,0,1-.6-.61.59.59,0,0,1,.57-.66.52.52,0,0,1,.5.57.74.74,0,0,1,0,.1Zm.65-.16A.32.32,0,0,0,28.5,82a.37.37,0,0,0-.34.36Z"/><path d="M29.29,82.26c0-.14,0-.27,0-.38h.19v.24h0a.37.37,0,0,1,.34-.27h.06v.21h-.08a.31.31,0,0,0-.3.28.64.64,0,0,0,0,.1v.65h-.22Z"/><path d="M31.13,82.77c0,.13,0,.24,0,.33h-.2v-.2h0a.46.46,0,0,1-.4.23c-.19,0-.42-.11-.42-.53v-.71h.22v.67c0,.23.07.39.27.39a.32.32,0,0,0,.29-.2.35.35,0,0,0,0-.11v-.75h.22Z"/><path d="M31.5,82.21c0-.13,0-.23,0-.33h.19v.2h0a.42.42,0,0,1,.38-.22.36.36,0,0,1,.34.24h0a.5.5,0,0,1,.14-.16.42.42,0,0,1,.27-.08c.16,0,.4.11.4.53v.72H33v-.69c0-.23-.09-.38-.26-.38a.29.29,0,0,0-.26.2.37.37,0,0,0,0,.11v.75h-.22v-.73c0-.19-.09-.33-.25-.33a.3.3,0,0,0-.27.22.29.29,0,0,0,0,.11v.74H31.5Z"/><path d="M35,82.92h0a.44.44,0,0,1-.4.22.55.55,0,0,1-.52-.62.58.58,0,0,1,.55-.66.4.4,0,0,1,.38.21h0v-.18h.21c0,.1,0,.21,0,.33V83.6H35Zm0-.54a.37.37,0,0,0,0-.09.32.32,0,0,0-.32-.25c-.23,0-.37.19-.37.47s.12.45.36.45a.33.33,0,0,0,.32-.24.35.35,0,0,0,0-.11Z"/><path d="M36.56,82.77c0,.13,0,.24,0,.33h-.2v-.2h0a.46.46,0,0,1-.4.23c-.19,0-.42-.11-.42-.53v-.71h.22v.67c0,.23.07.39.27.39a.32.32,0,0,0,.29-.2.32.32,0,0,0,0-.11v-.75h.22Z"/><path d="M37.6,83.1l0-.15h0a.45.45,0,0,1-.37.18.35.35,0,0,1-.37-.35c0-.29.26-.46.73-.45v0a.25.25,0,0,0-.28-.28.62.62,0,0,0-.32.09l0-.15a.76.76,0,0,1,.4-.11c.37,0,.46.25.46.5v.46a1.67,1.67,0,0,0,0,.29Zm0-.62c-.24,0-.52,0-.52.27a.2.2,0,0,0,.21.21.3.3,0,0,0,.29-.2.22.22,0,0,0,0-.07Z"/><path d="M38.1,82.88a.57.57,0,0,0,.29.09c.16,0,.24-.08.24-.18s-.06-.16-.23-.22-.32-.2-.32-.34a.38.38,0,0,1,.42-.36.61.61,0,0,1,.3.08l-.05.16A.48.48,0,0,0,38.5,82c-.13,0-.2.08-.2.17s.07.15.23.21.32.19.32.37-.17.37-.46.37A.7.7,0,0,1,38,83Z"/><g class="cls-6"><path d="M15.23,85.93h0a.44.44,0,0,1-.4.22.55.55,0,0,1-.52-.62.58.58,0,0,1,.55-.66.4.4,0,0,1,.38.21h0V84.9h.21c0,.1,0,.21,0,.33v1.38h-.22Zm0-.54a.37.37,0,0,0,0-.09A.32.32,0,0,0,14.9,85c-.23,0-.37.19-.37.47s.12.45.36.45a.33.33,0,0,0,.32-.24.35.35,0,0,0,0-.11Z"/><path d="M16.83,85.79c0,.13,0,.24,0,.33h-.2v-.2h0a.46.46,0,0,1-.4.23c-.19,0-.42-.11-.42-.53V84.9H16v.67c0,.23.07.39.27.39a.32.32,0,0,0,.29-.2.32.32,0,0,0,0-.11V84.9h.22Z"/><path d="M17.32,85.55a.39.39,0,0,0,.42.42.8.8,0,0,0,.34-.06l0,.16a1,1,0,0,1-.41.08.57.57,0,0,1-.6-.61.59.59,0,0,1,.57-.66.52.52,0,0,1,.5.57.94.94,0,0,1,0,.1Zm.65-.16a.32.32,0,0,0-.31-.36.37.37,0,0,0-.34.36Z"/><path d="M19,85.23c0-.13,0-.23,0-.33h.2v.2h0a.45.45,0,0,1,.4-.23c.17,0,.43.1.43.52v.73H19.8v-.7c0-.2-.07-.36-.28-.36a.32.32,0,0,0-.3.23.33.33,0,0,0,0,.1v.73H19Z"/><path d="M21.48,85.5a.6.6,0,0,1-.61.65.58.58,0,0,1-.58-.63.59.59,0,0,1,.6-.65A.58.58,0,0,1,21.48,85.5Zm-1,0c0,.27.15.47.37.47s.37-.2.37-.47-.1-.47-.37-.47S20.51,85.28,20.51,85.51Z"/><path d="M21.76,85.23c0-.13,0-.23,0-.33h.2v.2h0a.45.45,0,0,1,.4-.23c.17,0,.43.1.43.52v.73h-.22v-.7c0-.2-.07-.36-.28-.36a.31.31,0,0,0-.3.23.3.3,0,0,0,0,.1v.73h-.22Z"/><path d="M23.81,85.55a.39.39,0,0,0,.42.42.81.81,0,0,0,.34-.06l0,.16a1,1,0,0,1-.41.08.57.57,0,0,1-.6-.61.59.59,0,0,1,.57-.66.52.52,0,0,1,.5.57.74.74,0,0,1,0,.1Zm.65-.16a.32.32,0,0,0-.31-.36.37.37,0,0,0-.34.36Z"/><path d="M25.61,86.12l0-.15h0a.45.45,0,0,1-.37.18.35.35,0,0,1-.37-.35c0-.29.26-.46.73-.45v0A.25.25,0,0,0,25.3,85a.61.61,0,0,0-.32.09L24.93,85a.75.75,0,0,1,.4-.11c.37,0,.46.25.46.5v.46a1.76,1.76,0,0,0,0,.29Zm0-.62c-.24,0-.52,0-.52.27a.2.2,0,0,0,.21.21.3.3,0,0,0,.29-.2.22.22,0,0,0,0-.07Z"/><path d="M26.41,84.55v.35h.32v.17h-.32v.66c0,.15,0,.24.17.24h.13v.17a.54.54,0,0,1-.2,0,.31.31,0,0,1-.24-.09.45.45,0,0,1-.08-.32v-.67H26V84.9h.19v-.29Z"/><path d="M27.22,84.56a.14.14,0,0,1-.27,0,.13.13,0,0,1,.14-.14A.13.13,0,0,1,27.22,84.56ZM27,86.12V84.9h.22v1.22Z"/><path d="M28.58,85.79c0,.13,0,.24,0,.33h-.2v-.2h0a.46.46,0,0,1-.4.23c-.19,0-.42-.11-.42-.53V84.9h.22v.67c0,.23.07.39.27.39a.32.32,0,0,0,.29-.2.32.32,0,0,0,0-.11V84.9h.22Z"/><path d="M28.94,85.23c0-.13,0-.23,0-.33h.19v.2h0a.42.42,0,0,1,.38-.22.36.36,0,0,1,.34.24h0A.5.5,0,0,1,30,85a.42.42,0,0,1,.27-.08c.16,0,.4.11.4.53v.72h-.22v-.69c0-.23-.08-.38-.26-.38a.29.29,0,0,0-.26.2.37.37,0,0,0,0,.11v.75h-.22v-.73c0-.19-.09-.33-.25-.33a.3.3,0,0,0-.27.22.31.31,0,0,0,0,.11v.74h-.22Z"/><path d="M31.57,84.33h.22v1.79h-.22Z"/><path d="M32.84,86.12l0-.15h0a.45.45,0,0,1-.37.18.35.35,0,0,1-.37-.35c0-.29.26-.46.73-.45v0a.25.25,0,0,0-.28-.28.61.61,0,0,0-.32.09L32.16,85a.75.75,0,0,1,.4-.11c.37,0,.46.25.46.5v.46a1.76,1.76,0,0,0,0,.29Zm0-.62c-.24,0-.52,0-.52.27a.2.2,0,0,0,.21.21.3.3,0,0,0,.29-.2.22.22,0,0,0,0-.07Z"/><path d="M33.36,86.12c0-.08,0-.21,0-.31V84.33h.22v.76h0a.46.46,0,0,1,.42-.22c.3,0,.52.25.51.62a.58.58,0,0,1-.55.65.43.43,0,0,1-.41-.23h0v.2Zm.23-.49a.35.35,0,0,0,0,.08.34.34,0,0,0,.33.26c.23,0,.37-.19.37-.47s-.13-.45-.36-.45a.35.35,0,0,0-.34.27.45.45,0,0,0,0,.09Z"/><path d="M35.91,85.5a.6.6,0,0,1-.61.65.58.58,0,0,1-.58-.63.6.6,0,0,1,.6-.65A.58.58,0,0,1,35.91,85.5Zm-1,0c0,.27.15.47.37.47s.37-.2.37-.47-.1-.47-.37-.47S34.94,85.28,34.94,85.51Z"/><path d="M36.18,85.28c0-.14,0-.27,0-.38h.19v.24h0a.37.37,0,0,1,.34-.27h.06v.21h-.08a.31.31,0,0,0-.3.28.64.64,0,0,0,0,.1v.65h-.22Z"/><path d="M37.26,84.56a.14.14,0,0,1-.27,0,.13.13,0,0,1,.14-.14A.13.13,0,0,1,37.26,84.56ZM37,86.12V84.9h.22v1.22Z"/><path d="M37.86,84.55v.35h.32v.17h-.32v.66c0,.15,0,.24.17.24h.13v.17a.55.55,0,0,1-.2,0,.31.31,0,0,1-.24-.09.45.45,0,0,1-.09-.32v-.67h-.19V84.9h.19v-.29Z"/><path d="M15.45,87.34v1.47c0,.11,0,.23,0,.31h-.2v-.21h0a.45.45,0,0,1-.42.24.56.56,0,0,1-.52-.62.58.58,0,0,1,.55-.65.41.41,0,0,1,.37.19h0v-.73Zm-.22,1.06a.37.37,0,0,0,0-.09.33.33,0,0,0-.32-.26c-.23,0-.37.2-.37.47s.12.45.36.45a.33.33,0,0,0,.32-.26.37.37,0,0,0,0-.1Z"/><path d="M16.92,88.51a.6.6,0,0,1-.61.65.58.58,0,0,1-.58-.63.59.59,0,0,1,.6-.65A.58.58,0,0,1,16.92,88.51Zm-1,0c0,.27.15.47.37.47s.37-.2.37-.47-.1-.47-.37-.47S15.95,88.29,15.95,88.52Z"/><path d="M17.19,87.34h.22v1.79h-.22Z"/><path d="M18.89,88.51a.6.6,0,0,1-.61.65.58.58,0,0,1-.58-.63.6.6,0,0,1,.6-.65A.58.58,0,0,1,18.89,88.51Zm-1,0c0,.27.15.47.37.47s.37-.2.37-.47-.1-.47-.37-.47S17.92,88.29,17.92,88.52Z"/><path d="M19.16,88.29c0-.14,0-.27,0-.38h.19v.24h0a.37.37,0,0,1,.34-.27h.06v.21h-.08a.31.31,0,0,0-.3.28.54.54,0,0,0,0,.1v.65h-.22Z"/><path d="M20.08,88.56a.39.39,0,0,0,.42.42.81.81,0,0,0,.34-.06l0,.16a1,1,0,0,1-.41.08.57.57,0,0,1-.6-.61.59.59,0,0,1,.57-.66.52.52,0,0,1,.5.57.74.74,0,0,1,0,.1Zm.65-.16a.32.32,0,0,0-.31-.36.37.37,0,0,0-.34.36Z"/><path d="M21.19,88.9a.57.57,0,0,0,.29.09c.16,0,.24-.08.24-.18s-.06-.16-.23-.22-.32-.2-.32-.34a.38.38,0,0,1,.42-.36.61.61,0,0,1,.3.08l-.05.16a.48.48,0,0,0-.25-.07c-.13,0-.2.08-.2.17s.07.15.23.21.32.19.32.37-.17.37-.46.37a.7.7,0,0,1-.34-.08Z"/><path d="M23.8,87.34v1.47c0,.11,0,.23,0,.31h-.2v-.21h0a.45.45,0,0,1-.42.24.56.56,0,0,1-.52-.62.58.58,0,0,1,.55-.65.41.41,0,0,1,.37.19h0v-.73Zm-.22,1.06a.37.37,0,0,0,0-.09.33.33,0,0,0-.32-.26c-.23,0-.37.2-.37.47s.12.45.36.45a.33.33,0,0,0,.32-.26.37.37,0,0,0,0-.1Z"/><path d="M24.28,88.56a.39.39,0,0,0,.42.42.8.8,0,0,0,.34-.06l0,.16a1,1,0,0,1-.4.08.57.57,0,0,1-.6-.61.59.59,0,0,1,.57-.66.52.52,0,0,1,.5.57.74.74,0,0,1,0,.1Zm.65-.16a.32.32,0,0,0-.31-.36.37.37,0,0,0-.34.36Z"/><path d="M25.42,88.24c0-.13,0-.23,0-.33h.2v.2h0a.45.45,0,0,1,.4-.23c.17,0,.43.1.43.52v.73h-.22v-.7c0-.2-.07-.36-.28-.36a.32.32,0,0,0-.3.23.3.3,0,0,0,0,.1v.73h-.22Z"/><path d="M27.06,87.57a.14.14,0,0,1-.27,0,.13.13,0,0,1,.14-.14A.13.13,0,0,1,27.06,87.57Zm-.25,1.56V87.91H27v1.22Z"/><path d="M27.67,87.56v.35H28v.17h-.32v.66c0,.15,0,.24.17.24H28v.17a.54.54,0,0,1-.2,0,.31.31,0,0,1-.24-.09.45.45,0,0,1-.08-.32v-.67h-.19v-.17h.19v-.29Z"/><path d="M28.48,87.57a.14.14,0,0,1-.28,0,.14.14,0,0,1,.14-.14A.13.13,0,0,1,28.48,87.57Zm-.25,1.56V87.91h.22v1.22Z"/><path d="M29.92,88.51a.6.6,0,0,1-.61.65.58.58,0,0,1-.58-.63.6.6,0,0,1,.6-.65A.58.58,0,0,1,29.92,88.51Zm-1,0c0,.27.15.47.37.47s.37-.2.37-.47-.1-.47-.37-.47S29,88.29,29,88.52Z"/><path d="M30.17,88.9a.57.57,0,0,0,.29.09c.16,0,.24-.08.24-.18s-.06-.16-.23-.22-.32-.2-.32-.34a.38.38,0,0,1,.42-.36.61.61,0,0,1,.3.08l-.05.16a.48.48,0,0,0-.25-.07c-.13,0-.2.08-.2.17s.07.15.23.21.32.19.32.37-.17.37-.46.37a.7.7,0,0,1-.34-.08Z"/><path d="M32,87.57a.14.14,0,0,1-.27,0,.13.13,0,0,1,.14-.14A.13.13,0,0,1,32,87.57Zm-.25,1.56V87.91h.22v1.22Z"/><path d="M32.31,88.31c0-.16,0-.28,0-.4h.2v.21h0a.48.48,0,0,1,.43-.24.55.55,0,0,1,.52.62.58.58,0,0,1-.55.65.43.43,0,0,1-.38-.19h0v.66h-.22Zm.22.32a.51.51,0,0,0,0,.09.34.34,0,0,0,.33.26c.23,0,.37-.19.37-.47s-.13-.45-.36-.45a.39.39,0,0,0-.35.37Z"/><path d="M33.71,88.9A.58.58,0,0,0,34,89c.16,0,.24-.08.24-.18s-.06-.16-.23-.22-.32-.2-.32-.34a.38.38,0,0,1,.42-.36.61.61,0,0,1,.3.08l-.05.16a.48.48,0,0,0-.25-.07c-.13,0-.2.08-.2.17s.07.15.23.21.32.19.32.37-.17.37-.46.37a.7.7,0,0,1-.34-.08Z"/><path d="M35.41,89.13l0-.15h0a.45.45,0,0,1-.37.18.35.35,0,0,1-.37-.35c0-.29.26-.46.73-.45v0A.25.25,0,0,0,35.1,88a.61.61,0,0,0-.32.09l0-.15a.75.75,0,0,1,.4-.11c.37,0,.46.25.46.5v.46a1.77,1.77,0,0,0,0,.29Zm0-.62c-.24,0-.52,0-.52.27a.2.2,0,0,0,.21.21.3.3,0,0,0,.29-.2.22.22,0,0,0,0-.07Z"/><path d="M36.46,88.37v.16h-.62v-.16Z"/><path d="M14.4,91.32c0-.16,0-.28,0-.4h.2v.21h0A.48.48,0,0,1,15,90.9a.55.55,0,0,1,.52.62.58.58,0,0,1-.55.65.43.43,0,0,1-.38-.19h0v.66H14.4Zm.22.32a.51.51,0,0,0,0,.09A.34.34,0,0,0,15,92c.23,0,.37-.19.37-.47s-.13-.45-.36-.45a.39.39,0,0,0-.35.37Z"/><path d="M15.95,91.58a.39.39,0,0,0,.42.42.8.8,0,0,0,.34-.06l0,.16a1,1,0,0,1-.41.08.57.57,0,0,1-.6-.61.59.59,0,0,1,.57-.66.52.52,0,0,1,.5.57.94.94,0,0,1,0,.1Zm.65-.16a.32.32,0,0,0-.31-.36.37.37,0,0,0-.34.36Z"/><path d="M17.08,91.31c0-.14,0-.27,0-.38h.19v.24h0a.36.36,0,0,1,.34-.27h.06v.21h-.08a.31.31,0,0,0-.3.28.55.55,0,0,0,0,.1v.65h-.22Z"/><path d="M17.91,91.31c0-.14,0-.27,0-.38h.19v.24h0a.37.37,0,0,1,.34-.27h.06v.21h-.08a.31.31,0,0,0-.3.28.64.64,0,0,0,0,.1v.65h-.22Z"/><path d="M19.81,91.53a.6.6,0,0,1-.61.65.58.58,0,0,1-.58-.63.59.59,0,0,1,.6-.65A.58.58,0,0,1,19.81,91.53Zm-1,0c0,.27.15.47.37.47s.37-.2.37-.47-.1-.47-.37-.47S18.85,91.31,18.85,91.54Z"/><path d="M20.09,91.31c0-.14,0-.27,0-.38h.19v.24h0a.37.37,0,0,1,.34-.27h.06v.21h-.08a.31.31,0,0,0-.3.28.64.64,0,0,0,0,.1v.65h-.22Z"/><path d="M21,91.58a.39.39,0,0,0,.42.42.8.8,0,0,0,.34-.06l0,.16a1,1,0,0,1-.41.08.57.57,0,0,1-.6-.61.59.59,0,0,1,.57-.66.52.52,0,0,1,.5.57.94.94,0,0,1,0,.1Zm.65-.16a.31.31,0,0,0-.31-.36.37.37,0,0,0-.34.36Z"/><path d="M22.68,91.26c0-.13,0-.23,0-.33h.19v.2h0a.42.42,0,0,1,.38-.22.36.36,0,0,1,.34.24h0a.51.51,0,0,1,.14-.16A.42.42,0,0,1,24,90.9c.16,0,.4.11.4.53v.72H24.2v-.69c0-.23-.08-.38-.26-.38a.29.29,0,0,0-.26.2.37.37,0,0,0,0,.11v.75h-.22v-.73c0-.19-.09-.33-.25-.33a.3.3,0,0,0-.28.22.33.33,0,0,0,0,.11v.74h-.22Z"/><path d="M25.88,91.53a.6.6,0,0,1-.61.65.58.58,0,0,1-.58-.63.59.59,0,0,1,.6-.65A.58.58,0,0,1,25.88,91.53Zm-1,0c0,.27.15.47.37.47s.37-.2.37-.47-.1-.47-.37-.47S24.91,91.31,24.91,91.54Z"/><path d="M27.2,90.36v1.47c0,.11,0,.23,0,.31H27v-.21h0a.45.45,0,0,1-.42.24.56.56,0,0,1-.52-.62.58.58,0,0,1,.55-.65.41.41,0,0,1,.37.19h0v-.73ZM27,91.42a.37.37,0,0,0,0-.09.33.33,0,0,0-.32-.26c-.23,0-.37.2-.37.47s.12.45.36.45a.33.33,0,0,0,.32-.26.37.37,0,0,0,0-.1Z"/><path d="M27.81,90.58a.14.14,0,0,1-.27,0,.13.13,0,0,1,.14-.14A.13.13,0,0,1,27.81,90.58Zm-.25,1.56V90.93h.22v1.22Z"/><path d="M29.74,90.36v1.47c0,.11,0,.23,0,.31h-.2v-.21h0a.45.45,0,0,1-.42.24.56.56,0,0,1-.52-.62.58.58,0,0,1,.55-.65.41.41,0,0,1,.37.19h0v-.73Zm-.22,1.06a.38.38,0,0,0,0-.09.32.32,0,0,0-.32-.26c-.23,0-.37.2-.37.47s.12.45.36.45a.33.33,0,0,0,.33-.26.37.37,0,0,0,0-.1Z"/><path d="M31.21,91.53a.6.6,0,0,1-.61.65.58.58,0,0,1-.58-.63.59.59,0,0,1,.6-.65A.58.58,0,0,1,31.21,91.53Zm-1,0c0,.27.15.47.37.47s.37-.2.37-.47-.1-.47-.37-.47S30.24,91.31,30.24,91.54Z"/><path d="M31.48,90.36h.22v1.79h-.22Z"/><path d="M33.18,91.53a.6.6,0,0,1-.61.65.58.58,0,0,1-.58-.63.59.59,0,0,1,.6-.65A.58.58,0,0,1,33.18,91.53Zm-1,0c0,.27.15.47.37.47s.37-.2.37-.47-.1-.47-.37-.47S32.21,91.31,32.21,91.54Z"/><path d="M33.45,91.31c0-.14,0-.27,0-.38h.19v.24h0A.37.37,0,0,1,34,90.9h.06v.21H34a.31.31,0,0,0-.3.28.64.64,0,0,0,0,.1v.65h-.22Z"/><path d="M35.3,91.81c0,.13,0,.24,0,.33h-.2v-.2h0a.46.46,0,0,1-.4.23c-.19,0-.42-.11-.42-.53v-.71h.22v.67c0,.23.07.39.27.39a.32.32,0,0,0,.29-.2.35.35,0,0,0,0-.11v-.75h.22Z"/><path d="M35.66,91.26c0-.13,0-.23,0-.33h.19v.2h0a.42.42,0,0,1,.38-.22.36.36,0,0,1,.34.24h0a.5.5,0,0,1,.14-.16A.42.42,0,0,1,37,90.9c.16,0,.4.11.4.53v.72h-.22v-.69c0-.23-.09-.38-.26-.38a.29.29,0,0,0-.26.2.37.37,0,0,0,0,.11v.75h-.22v-.73c0-.19-.09-.33-.25-.33a.3.3,0,0,0-.27.22.29.29,0,0,0,0,.11v.74h-.22Z"/><path d="M15.23,95h0a.44.44,0,0,1-.4.22.55.55,0,0,1-.52-.62.58.58,0,0,1,.55-.66.4.4,0,0,1,.38.21h0v-.18h.21c0,.1,0,.21,0,.33v1.38h-.22Zm0-.54a.37.37,0,0,0,0-.09.32.32,0,0,0-.32-.25c-.23,0-.37.19-.37.47s.12.45.36.45a.33.33,0,0,0,.32-.24.35.35,0,0,0,0-.11Z"/><path d="M16.83,94.83c0,.13,0,.24,0,.33h-.2V95h0a.46.46,0,0,1-.4.23c-.19,0-.42-.11-.42-.53v-.71H16v.67c0,.23.07.39.27.39a.32.32,0,0,0,.29-.2.32.32,0,0,0,0-.11v-.75h.22Z"/><path d="M17.44,93.6a.14.14,0,0,1-.28,0,.14.14,0,0,1,.14-.14A.13.13,0,0,1,17.44,93.6Zm-.25,1.56V93.94h.22v1.22Z"/><path d="M18.46,95.16l0-.15h0a.45.45,0,0,1-.37.18.35.35,0,0,1-.37-.35c0-.29.26-.46.73-.45v0a.25.25,0,0,0-.28-.28.62.62,0,0,0-.32.09L17.77,94a.76.76,0,0,1,.4-.11c.37,0,.46.25.46.5v.46a1.66,1.66,0,0,0,0,.29Zm0-.62c-.24,0-.52,0-.52.27a.2.2,0,0,0,.21.21.3.3,0,0,0,.29-.2.22.22,0,0,0,0-.07Z"/><path d="M19.61,93.94l.24.68c0,.11.07.21.1.31h0c0-.1.06-.2.1-.31l.24-.68h.23L20,95.16h-.21l-.46-1.22Z"/><path d="M20.83,94.59a.39.39,0,0,0,.42.42.8.8,0,0,0,.34-.06l0,.16a1,1,0,0,1-.4.08.57.57,0,0,1-.6-.61.59.59,0,0,1,.57-.66.52.52,0,0,1,.5.57.74.74,0,0,1,0,.1Zm.65-.16a.32.32,0,0,0-.31-.36.37.37,0,0,0-.34.36Z"/><path d="M22,93.37h.22v1.79H22Z"/><path d="M22.56,93.37h.22v1.79h-.22Z"/><path d="M23.82,95.16l0-.15h0a.45.45,0,0,1-.37.18.35.35,0,0,1-.37-.35c0-.29.26-.46.73-.45v0a.25.25,0,0,0-.28-.28.62.62,0,0,0-.32.09L23.14,94a.76.76,0,0,1,.4-.11c.37,0,.46.25.46.5v.46a1.66,1.66,0,0,0,0,.29Zm0-.62c-.24,0-.52,0-.52.27a.2.2,0,0,0,.21.21.3.3,0,0,0,.29-.2.22.22,0,0,0,0-.07Z"/><path d="M24.35,95.16c0-.08,0-.21,0-.31V93.37h.22v.76h0a.45.45,0,0,1,.42-.22.55.55,0,0,1,.51.62.58.58,0,0,1-.55.65.43.43,0,0,1-.41-.23h0v.2Zm.23-.49a.42.42,0,0,0,0,.08.34.34,0,0,0,.33.26c.23,0,.37-.19.37-.47s-.13-.45-.36-.45a.35.35,0,0,0-.34.27.44.44,0,0,0,0,.09Z"/><path d="M26.89,94.54a.6.6,0,0,1-.61.65.58.58,0,0,1-.58-.63.59.59,0,0,1,.6-.65A.58.58,0,0,1,26.89,94.54Zm-1,0c0,.27.15.47.37.47s.37-.2.37-.47-.1-.47-.37-.47S25.93,94.32,25.93,94.55Z"/><path d="M27.17,94.32c0-.14,0-.27,0-.38h.19v.24h0a.37.37,0,0,1,.34-.27h.06v.21h-.08a.31.31,0,0,0-.3.28.54.54,0,0,0,0,.1v.65h-.22Z"/><path d="M29,94.83c0,.13,0,.24,0,.33h-.2V95h0a.46.46,0,0,1-.4.23c-.19,0-.42-.11-.42-.53v-.71h.22v.67c0,.23.07.39.27.39a.32.32,0,0,0,.29-.2.32.32,0,0,0,0-.11v-.75H29Z"/><path d="M29.37,94.27c0-.13,0-.23,0-.33h.19v.2h0a.42.42,0,0,1,.38-.22.36.36,0,0,1,.34.24h0a.51.51,0,0,1,.14-.16.42.42,0,0,1,.27-.08c.16,0,.4.11.4.53v.72H30.9v-.69c0-.23-.08-.38-.26-.38a.29.29,0,0,0-.26.2.37.37,0,0,0,0,.11v.75h-.22v-.73c0-.19-.09-.33-.25-.33a.3.3,0,0,0-.28.22.33.33,0,0,0,0,.11v.74h-.22Z"/><path d="M32,94.32c0-.14,0-.27,0-.38h.19v.24h0a.37.37,0,0,1,.34-.27h.06v.21h-.08a.31.31,0,0,0-.3.28.54.54,0,0,0,0,.1v.65H32Z"/><path d="M32.92,94.59a.39.39,0,0,0,.42.42.81.81,0,0,0,.34-.06l0,.16a1,1,0,0,1-.41.08.57.57,0,0,1-.6-.61.59.59,0,0,1,.57-.66.52.52,0,0,1,.5.57.74.74,0,0,1,0,.1Zm.65-.16a.32.32,0,0,0-.31-.36.37.37,0,0,0-.34.36Z"/><path d="M34.05,93.37h.22v.76h0a.42.42,0,0,1,.16-.16.47.47,0,0,1,.23-.06c.16,0,.43.1.43.52v.72h-.22v-.7c0-.2-.07-.36-.28-.36a.32.32,0,0,0-.3.22.28.28,0,0,0,0,.11v.74h-.22Z"/><path d="M35.57,94.59A.39.39,0,0,0,36,95a.81.81,0,0,0,.34-.06l0,.16a1,1,0,0,1-.41.08.57.57,0,0,1-.6-.61.59.59,0,0,1,.57-.66.52.52,0,0,1,.5.57.74.74,0,0,1,0,.1Zm.65-.16a.32.32,0,0,0-.31-.36.37.37,0,0,0-.34.36Z"/><path d="M36.71,94.27c0-.13,0-.23,0-.33h.2v.2h0a.45.45,0,0,1,.4-.23c.17,0,.43.1.43.52v.73h-.22v-.7c0-.2-.07-.36-.28-.36a.31.31,0,0,0-.3.23.33.33,0,0,0,0,.1v.73h-.22Z"/><path d="M38.36,93.59v.35h.32v.17h-.32v.66c0,.15,0,.24.17.24h.13v.17a.55.55,0,0,1-.2,0,.31.31,0,0,1-.24-.09.45.45,0,0,1-.09-.32v-.67H38v-.17h.19v-.29Z"/><path d="M14.48,97l.24.68a3.07,3.07,0,0,1,.1.31h0c0-.1.06-.2.1-.31l.24-.68h.23l-.48,1.22h-.21L14.24,97Z"/><path d="M16.68,97.55a.6.6,0,0,1-.61.65.58.58,0,0,1-.58-.63.59.59,0,0,1,.6-.65A.58.58,0,0,1,16.68,97.55Zm-1,0c0,.27.15.47.37.47s.37-.2.37-.47-.1-.47-.37-.47S15.72,97.33,15.72,97.57Z"/><path d="M17,96.38h.22v1.79H17Z"/><path d="M18.57,97.84c0,.13,0,.24,0,.33h-.2V98h0a.46.46,0,0,1-.4.23c-.19,0-.42-.11-.42-.53V97h.22v.67c0,.23.07.39.27.39a.32.32,0,0,0,.29-.2.32.32,0,0,0,0-.11V97h.22Z"/><path d="M18.94,97.35c0-.16,0-.28,0-.4h.2v.21h0a.48.48,0,0,1,.43-.24.55.55,0,0,1,.52.62.58.58,0,0,1-.55.65.43.43,0,0,1-.38-.19h0v.66h-.22Zm.22.32a.43.43,0,0,0,0,.09.34.34,0,0,0,.33.26c.23,0,.37-.19.37-.47s-.13-.45-.36-.45a.38.38,0,0,0-.35.37Z"/><path d="M20.63,96.6V97h.32v.17h-.32v.66c0,.15,0,.24.17.24h.13v.17a.55.55,0,0,1-.2,0,.3.3,0,0,1-.24-.09.45.45,0,0,1-.09-.32v-.67h-.19V97h.19v-.29Z"/><path d="M22.22,97.84c0,.13,0,.24,0,.33H22V98h0a.46.46,0,0,1-.4.23c-.19,0-.42-.11-.42-.53V97h.22v.67c0,.23.07.39.27.39a.32.32,0,0,0,.29-.2.32.32,0,0,0,0-.11V97h.22Z"/><path d="M22.58,97.33c0-.14,0-.27,0-.38h.19v.24h0a.37.37,0,0,1,.34-.27h.06v.21h-.08a.31.31,0,0,0-.3.28.54.54,0,0,0,0,.1v.65h-.22Z"/><path d="M23.57,97.69v-.07a.57.57,0,0,1,.16-.44.55.55,0,0,0,.18-.35c0-.13-.08-.21-.24-.22a.45.45,0,0,0-.25.08l-.06-.16a.66.66,0,0,1,.36-.1.37.37,0,0,1,.42.37.68.68,0,0,1-.22.44.5.5,0,0,0-.14.37v.07Zm-.06.35a.15.15,0,0,1,.15-.16.16.16,0,1,1-.15.16Z"/><path d="M25.84,97.38h-.66V98h.74v.18H25v-1.7h.92v.18h-.7v.54h.66Z"/><path d="M26.26,97l.24.68c0,.11.07.21.1.31h0c0-.1.06-.2.1-.31l.24-.68h.23l-.48,1.22h-.21L26,97Z"/><path d="M27.48,97.6a.39.39,0,0,0,.42.42.81.81,0,0,0,.34-.06l0,.16a1,1,0,0,1-.41.08.57.57,0,0,1-.6-.61.59.59,0,0,1,.57-.66.52.52,0,0,1,.5.57.74.74,0,0,1,0,.1Zm.65-.16a.32.32,0,0,0-.31-.36.37.37,0,0,0-.34.36Z"/><path d="M28.61,96.38h.22v1.79h-.22Z"/><path d="M29.21,96.38h.22v1.79h-.22Z"/><path d="M30.47,98.17l0-.15h0a.45.45,0,0,1-.37.18.35.35,0,0,1-.37-.35c0-.29.26-.46.73-.45v0a.25.25,0,0,0-.28-.28.61.61,0,0,0-.32.09L29.79,97a.75.75,0,0,1,.4-.11c.37,0,.46.25.46.5v.46a1.76,1.76,0,0,0,0,.29Zm0-.62c-.24,0-.52,0-.52.27a.2.2,0,0,0,.21.21.3.3,0,0,0,.29-.2.22.22,0,0,0,0-.07Z"/><path d="M31.27,96.6V97h.32v.17h-.32v.66c0,.15,0,.24.17.24h.13v.17a.54.54,0,0,1-.2,0,.31.31,0,0,1-.24-.09.45.45,0,0,1-.08-.32v-.67h-.19V97h.19v-.29Z"/><path d="M31.94,97.6a.39.39,0,0,0,.42.42A.81.81,0,0,0,32.7,98l0,.16a1,1,0,0,1-.41.08.57.57,0,0,1-.6-.61.59.59,0,0,1,.57-.66.52.52,0,0,1,.5.57.74.74,0,0,1,0,.1Zm.65-.16a.32.32,0,0,0-.31-.36.37.37,0,0,0-.34.36Z"/><path d="M33.73,97.6a.39.39,0,0,0,.42.42.8.8,0,0,0,.34-.06l0,.16a1,1,0,0,1-.41.08.57.57,0,0,1-.6-.61.59.59,0,0,1,.57-.66.52.52,0,0,1,.5.57.94.94,0,0,1,0,.1Zm.65-.16a.31.31,0,0,0-.31-.36.37.37,0,0,0-.34.36Z"/><path d="M36,97.55a.6.6,0,0,1-.61.65.58.58,0,0,1-.58-.63.59.59,0,0,1,.6-.65A.58.58,0,0,1,36,97.55Zm-1,0c0,.27.15.47.37.47s.37-.2.37-.47-.1-.47-.37-.47S35,97.33,35,97.57Z"/><path d="M36.22,97.95a.58.58,0,0,0,.29.09c.16,0,.24-.08.24-.18s-.06-.16-.23-.22-.32-.2-.32-.34a.38.38,0,0,1,.42-.36.61.61,0,0,1,.3.08l-.06.16a.47.47,0,0,0-.25-.07c-.13,0-.2.08-.2.17s.07.15.23.21.32.19.32.37-.17.37-.46.37a.7.7,0,0,1-.34-.08Z"/><path d="M14.37,101a.58.58,0,0,0,.29.09c.16,0,.24-.08.24-.18s-.06-.16-.23-.22-.32-.2-.32-.34a.38.38,0,0,1,.42-.36.62.62,0,0,1,.3.08l-.06.16a.47.47,0,0,0-.25-.07c-.13,0-.21.08-.21.17s.07.15.23.21.32.19.32.37-.17.37-.46.37a.7.7,0,0,1-.34-.08Z"/><path d="M16.41,100.85c0,.13,0,.24,0,.33h-.2V101h0a.46.46,0,0,1-.4.23c-.19,0-.42-.11-.42-.53V100h.22v.67c0,.23.07.39.27.39a.32.32,0,0,0,.29-.2.32.32,0,0,0,0-.11V100h.22Z"/><path d="M16.77,100.3c0-.13,0-.23,0-.33H17v.2h0a.42.42,0,0,1,.38-.22.36.36,0,0,1,.34.24h0a.5.5,0,0,1,.14-.16.42.42,0,0,1,.27-.08c.16,0,.4.11.4.53v.72H18.3v-.69c0-.23-.08-.38-.26-.38a.29.29,0,0,0-.26.2.37.37,0,0,0,0,.11v.75h-.22v-.73c0-.19-.09-.33-.25-.33a.3.3,0,0,0-.27.22.31.31,0,0,0,0,.11v.74h-.22Z"/><path d="M19.4,99.4h.22v1.79H19.4Z"/><path d="M20.67,101.19l0-.15h0a.45.45,0,0,1-.37.18.35.35,0,0,1-.37-.35c0-.29.26-.46.73-.45v0a.25.25,0,0,0-.28-.28.61.61,0,0,0-.32.09L20,100a.75.75,0,0,1,.4-.11c.37,0,.46.25.46.5v.46a1.76,1.76,0,0,0,0,.29Zm0-.62c-.24,0-.52,0-.52.27a.2.2,0,0,0,.21.21.3.3,0,0,0,.29-.2.22.22,0,0,0,0-.07Z"/><path d="M21.2,100.3c0-.13,0-.23,0-.33h.19v.2h0a.42.42,0,0,1,.38-.22.36.36,0,0,1,.34.24h0a.5.5,0,0,1,.14-.16.42.42,0,0,1,.27-.08c.16,0,.4.11.4.53v.72h-.22v-.69c0-.23-.08-.38-.26-.38a.29.29,0,0,0-.26.2.37.37,0,0,0,0,.11v.75H22v-.73c0-.19-.09-.33-.25-.33a.3.3,0,0,0-.27.22.31.31,0,0,0,0,.11v.74H21.2Z"/><path d="M24.51,101.19l0-.15h0a.45.45,0,0,1-.37.18.35.35,0,0,1-.37-.35c0-.29.26-.46.73-.45v0a.25.25,0,0,0-.28-.28.61.61,0,0,0-.32.09l0-.15a.75.75,0,0,1,.4-.11c.37,0,.46.25.46.5v.46a1.77,1.77,0,0,0,0,.29Zm0-.62c-.24,0-.52,0-.52.27a.2.2,0,0,0,.21.21.3.3,0,0,0,.29-.2.22.22,0,0,0,0-.07Z"/><path d="M25,99.4h.22v1.79H25Z"/><path d="M25.88,99.63a.14.14,0,0,1-.27,0,.13.13,0,0,1,.14-.14A.13.13,0,0,1,25.88,99.63Zm-.25,1.56V100h.22v1.22Z"/><path d="M26.9,101.19l0-.15h0a.45.45,0,0,1-.37.18.35.35,0,0,1-.37-.35c0-.29.26-.46.73-.45v0a.25.25,0,0,0-.28-.28.61.61,0,0,0-.32.09l-.05-.15a.75.75,0,0,1,.4-.11c.37,0,.46.25.46.5v.46a1.76,1.76,0,0,0,0,.29Zm0-.62c-.24,0-.52,0-.52.27a.2.2,0,0,0,.21.21.3.3,0,0,0,.29-.2.22.22,0,0,0,0-.07Z"/><path d="M27.4,101a.58.58,0,0,0,.29.09c.16,0,.24-.08.24-.18s-.06-.16-.23-.22-.32-.2-.32-.34a.38.38,0,0,1,.42-.36.61.61,0,0,1,.3.08l-.06.16a.47.47,0,0,0-.25-.07c-.13,0-.2.08-.2.17s.07.15.23.21.32.19.32.37-.17.37-.46.37a.7.7,0,0,1-.34-.08Z"/><path d="M29.08,100.62a.39.39,0,0,0,.42.42.8.8,0,0,0,.34-.06l0,.16a1,1,0,0,1-.41.08.57.57,0,0,1-.6-.61.59.59,0,0,1,.57-.66.52.52,0,0,1,.5.57.94.94,0,0,1,0,.1Zm.65-.16a.32.32,0,0,0-.31-.36.37.37,0,0,0-.34.36Z"/><path d="M30.31,100l.17.26.12.2h0l.12-.2.17-.26h.24l-.42.59.43.63h-.25l-.18-.27-.13-.21h0l-.13.21-.18.27H30l.43-.62-.41-.6Z"/><path d="M32,100.62a.39.39,0,0,0,.42.42.8.8,0,0,0,.34-.06l0,.16a1,1,0,0,1-.41.08.57.57,0,0,1-.6-.61.59.59,0,0,1,.57-.66.52.52,0,0,1,.5.57.94.94,0,0,1,0,.1Zm.65-.16a.31.31,0,0,0-.31-.36.37.37,0,0,0-.34.36Z"/><path d="M33.43,99.62V100h.32v.17h-.32v.66c0,.15,0,.24.17.24h.13v.17a.54.54,0,0,1-.2,0,.31.31,0,0,1-.24-.09.45.45,0,0,1-.08-.32v-.67H33V100h.19v-.29Z"/><path d="M35,100.85c0,.13,0,.24,0,.33h-.2V101h0a.46.46,0,0,1-.4.23c-.19,0-.42-.11-.42-.53V100h.22v.67c0,.23.07.39.27.39a.32.32,0,0,0,.29-.2.35.35,0,0,0,0-.11V100H35Z"/><path d="M35.38,100.35c0-.14,0-.27,0-.38h.19v.24h0a.37.37,0,0,1,.34-.27H36v.21H35.9a.31.31,0,0,0-.3.28.64.64,0,0,0,0,.1v.65h-.22Z"/><path d="M36.37,100.71v-.07a.58.58,0,0,1,.16-.44.56.56,0,0,0,.18-.35c0-.13-.08-.21-.24-.22a.45.45,0,0,0-.25.08l-.06-.16a.66.66,0,0,1,.36-.1.37.37,0,0,1,.42.37.69.69,0,0,1-.22.44.5.5,0,0,0-.14.37v.07Zm-.05.35a.15.15,0,0,1,.15-.16.16.16,0,1,1-.15.16Z"/><path d="M14.47,28.67h.31v1h0a.56.56,0,0,1,.22-.21.63.63,0,0,1,.31-.09c.23,0,.59.14.59.72v1h-.31v-1c0-.27-.1-.5-.39-.5a.44.44,0,0,0-.41.31.37.37,0,0,0,0,.15v1h-.31Z"/><path d="M16.4,28.67h.31v1h0a.56.56,0,0,1,.22-.21.63.63,0,0,1,.31-.09c.23,0,.59.14.59.72v1h-.31v-1c0-.27-.1-.5-.39-.5a.44.44,0,0,0-.41.31.37.37,0,0,0,0,.15v1H16.4Z"/><path d="M18.33,28.67h.31v1h0a.57.57,0,0,1,.22-.21.63.63,0,0,1,.31-.09c.23,0,.59.14.59.72v1h-.31v-1c0-.27-.1-.5-.39-.5a.44.44,0,0,0-.41.31.37.37,0,0,0,0,.15v1h-.31Z"/></g><path class="cls-7" d="M10,27.28h.62a.2.2,0,0,1,.2.2v3.06a.19.19,0,0,1-.19.19H10a.19.19,0,0,1-.19-.19V27.48A.19.19,0,0,1,10,27.28Z"/><rect class="cls-7" x="9.82" y="34.61" width="0.59" height="2.44" rx="0.13" ry="0.13"/><rect class="cls-7" x="9.82" y="40.9" width="0.59" height="2.44" rx="0.13" ry="0.13"/><rect class="cls-8" x="10.32" y="17.07" width="35.65" height="75.79" rx="5.15" ry="5.15"/><rect class="cls-7" x="34.29" y="16.51" width="5.86" height="0.5" rx="0.18" ry="0.18"/><path class="cls-3" d="M40.81,17.07H15.47a5.15,5.15,0,0,0-5.15,5.15V87.71a5.15,5.15,0,0,0,5.15,5.15H40.81A5.15,5.15,0,0,0,46,87.71V22.22a5.15,5.15,0,0,0-5.15-5.15m2.74,65.31H12.73V27.67H43.56Z"/><path class="cls-8" d="M40.81,17.07H15.47a5.15,5.15,0,0,0-5.15,5.15V87.71a5.15,5.15,0,0,0,5.15,5.15H40.81A5.15,5.15,0,0,0,46,87.71V22.22A5.15,5.15,0,0,0,40.81,17.07Zm2.74,65.31H12.73V27.67H43.56Z"/><circle class="cls-7" cx="28.14" cy="87.13" r="3.43" transform="translate(-60.15 62.88) rotate(-56.75)"/><rect class="cls-7" x="27.05" y="86.04" width="2.17" height="2.17" rx="0.51" ry="0.51"/><circle class="cls-7" cx="28.14" cy="20.6" r="0.7" transform="translate(-6.59 23.77) rotate(-41.43)"/><rect class="cls-7" x="24.76" y="22.55" width="6.77" height="1.66" rx="0.78" ry="0.78"/><line class="cls-9" x1="13.19" y1="-0.03" x2="13.19" y2="101.97"/><line class="cls-9" x1="43.24" y1="-0.03" x2="43.24" y2="101.97"/></svg>