<svg id="Layer_1" data-name="Layer 1" xmlns="http://www.w3.org/2000/svg" viewBox="0 0 143.2 40.38"><defs><style>.cls-1{fill:#cfcfcf;}.cls-2{fill:#20201e;}</style></defs><title>button_normal</title><path class="cls-1" d="M3.82,8.19a2.22,2.22,0,0,0-2.27,2.27V28.6a2.22,2.22,0,0,0,2.27,2.27H22a2.22,2.22,0,0,0,2.27-2.27V10.46A2.22,2.22,0,0,0,22,8.19Z"/><path class="cls-2" d="M14,22.7l-.47-1.53H11.22l-.47,1.53H9.29l2.27-6.45h1.67L15.5,22.7ZM13.24,20l-.73-2.35c-.05-.18-.09-.32-.12-.43q-.15.56-.83,2.78Z"/></svg>