<svg xmlns="http://www.w3.org/2000/svg" viewBox="0 0 230 449.16"><defs><style>.cls-1{fill:#a9a9a9;}.cls-2,.cls-3,.cls-5,.cls-6{fill:none;}.cls-2{stroke:#000;stroke-miterlimit:10;}.cls-3,.cls-5,.cls-6{stroke:#20201e;}.cls-3{stroke-width:0.5px;}.cls-4{fill:#20201e;}.cls-5,.cls-6{stroke-linecap:round;stroke-linejoin:round;stroke-width:0.3px;}.cls-5{stroke-dasharray:0 0.9;}.cls-7{fill:#cfcfcf;}</style></defs><title>iPhone_plus_pointer</title><g id="Layer_2" data-name="Layer 2"><rect class="cls-1" x="222.69" y="226.22" width="0.93" height="0.93"/><rect class="cls-2" x="1.59" y="0.5" width="218.5" height="448.16" rx="30" ry="30"/><rect class="cls-2" x="5.59" y="4.5" width="210.5" height="440.16" rx="26.41" ry="26.41"/><rect class="cls-2" x="0.5" y="53.45" width="1.09" height="16.63"/><rect class="cls-2" x="0.5" y="87.83" width="1.09" height="27.96"/><rect class="cls-2" x="0.5" y="122.7" width="1.09" height="29.15"/><rect class="cls-2" x="219" y="86.64" width="1.09" height="29.15"/><circle class="cls-2" cx="111.04" cy="15.5" r="2.5"/><circle class="cls-2" cx="81.39" cy="28.09" r="3.25"/><path class="cls-2" d="M124.54,29.59h-27a1.5,1.5,0,0,1,0-3h27a1.5,1.5,0,0,1,0,3Z"/><circle class="cls-2" cx="110.85" cy="421.6" r="15"/><circle class="cls-2" cx="110.85" cy="421.6" r="12.75"/><rect class="cls-2" x="14.84" y="52.83" width="192" height="343.52"/><line class="cls-3" x1="15.64" y1="174.18" x2="206.72" y2="174.18"/><polyline class="cls-3" points="19.11 177.4 15.64 174.18 19.11 170.95"/><polyline class="cls-3" points="203.25 170.95 206.72 174.18 203.25 177.4"/><path class="cls-4" d="M84.47,165.86a3.53,3.53,0,0,1,.57-2.2,2,2,0,0,1,1.69-.73,2.27,2.27,0,0,1,.61.06v.49a2,2,0,0,0-.6-.08,1.52,1.52,0,0,0-1.23.5,2.57,2.57,0,0,0-.46,1.57h0a1.31,1.31,0,0,1,1.19-.59,1.4,1.4,0,0,1,1.06.41,1.53,1.53,0,0,1,.39,1.1,1.7,1.7,0,0,1-.42,1.23,1.51,1.51,0,0,1-1.15.45,1.48,1.48,0,0,1-1.23-.58A2.57,2.57,0,0,1,84.47,165.86Zm1.68,1.72a1,1,0,0,0,.75-.31,1.3,1.3,0,0,0,.27-.88,1.14,1.14,0,0,0-.25-.78.94.94,0,0,0-.75-.28,1.25,1.25,0,0,0-.56.13,1.05,1.05,0,0,0-.41.35.81.81,0,0,0-.15.46,1.59,1.59,0,0,0,.14.66,1.15,1.15,0,0,0,.39.48A1,1,0,0,0,86.15,167.59Z"/><path class="cls-4" d="M90.07,162.93a1.69,1.69,0,0,1,1.08.32,1.06,1.06,0,0,1,.4.88,1.09,1.09,0,0,1-.23.67,2,2,0,0,1-.73.55,2.46,2.46,0,0,1,.87.61,1.15,1.15,0,0,1,.26.74,1.24,1.24,0,0,1-.43,1,1.78,1.78,0,0,1-1.19.37,1.91,1.91,0,0,1-1.23-.35,1.21,1.21,0,0,1-.43-1,1.48,1.48,0,0,1,1-1.34,1.94,1.94,0,0,1-.68-.58,1.22,1.22,0,0,1-.21-.69,1.06,1.06,0,0,1,.4-.87A1.67,1.67,0,0,1,90.07,162.93ZM89,166.74a.78.78,0,0,0,.29.64,1.26,1.26,0,0,0,.8.23,1.19,1.19,0,0,0,.79-.24.81.81,0,0,0,.28-.66.8.8,0,0,0-.27-.59,2.73,2.73,0,0,0-.93-.5,2,2,0,0,0-.74.48A.93.93,0,0,0,89,166.74Zm1.07-3.35a1,1,0,0,0-.67.21.68.68,0,0,0-.24.55.78.78,0,0,0,.2.54,2.1,2.1,0,0,0,.74.45,1.89,1.89,0,0,0,.69-.44.82.82,0,0,0,.2-.55.67.67,0,0,0-.25-.55A1,1,0,0,0,90.06,163.39Z"/><path class="cls-4" d="M98.85,168v-2.44a1,1,0,0,0-.19-.67.74.74,0,0,0-.59-.22,1,1,0,0,0-.78.3,1.44,1.44,0,0,0-.25.94V168h-.57v-2.44a1,1,0,0,0-.19-.67.75.75,0,0,0-.6-.22.92.92,0,0,0-.78.32,1.72,1.72,0,0,0-.25,1v2h-.57v-3.75h.46l.09.51h0a1.1,1.1,0,0,1,.45-.43,1.37,1.37,0,0,1,.65-.15,1.11,1.11,0,0,1,1.15.64h0a1.2,1.2,0,0,1,.48-.46,1.51,1.51,0,0,1,.72-.17,1.27,1.27,0,0,1,1,.33,1.47,1.47,0,0,1,.32,1V168Z"/><path class="cls-4" d="M105.36,168v-2.44a1,1,0,0,0-.19-.67.74.74,0,0,0-.6-.22,1,1,0,0,0-.78.3,1.44,1.44,0,0,0-.25.94V168H103v-2.44a1,1,0,0,0-.19-.67.75.75,0,0,0-.6-.22.93.93,0,0,0-.78.32,1.73,1.73,0,0,0-.25,1v2h-.57v-3.75H101l.09.51h0a1.1,1.1,0,0,1,.45-.43,1.37,1.37,0,0,1,.65-.15,1.11,1.11,0,0,1,1.15.64h0a1.2,1.2,0,0,1,.49-.46,1.5,1.5,0,0,1,.72-.17,1.27,1.27,0,0,1,1,.33,1.47,1.47,0,0,1,.32,1V168Z"/><path class="cls-4" d="M108.72,165.07v-.47h3.18v.47Zm0,1.4V166h3.18v.47Z"/><path class="cls-4" d="M116.58,168H116v-3.56q0-.44,0-.84l-.16.15-.81.67-.3-.39,1.32-1h.48Z"/><path class="cls-4" d="M121.79,165.49a3.66,3.66,0,0,1-.41,1.94,1.38,1.38,0,0,1-1.25.64,1.37,1.37,0,0,1-1.23-.65,3.58,3.58,0,0,1-.42-1.92,3.65,3.65,0,0,1,.41-1.94,1.51,1.51,0,0,1,2.48,0A3.56,3.56,0,0,1,121.79,165.49Zm-2.73,0a3.66,3.66,0,0,0,.26,1.59.92.92,0,0,0,1.64,0,5,5,0,0,0,0-3.16.92.92,0,0,0-1.64,0A3.64,3.64,0,0,0,119.06,165.49Z"/><path class="cls-4" d="M124.14,162.93a1.69,1.69,0,0,1,1.08.32,1.06,1.06,0,0,1,.4.88,1.1,1.1,0,0,1-.23.67,2,2,0,0,1-.73.55,2.45,2.45,0,0,1,.87.61,1.15,1.15,0,0,1,.26.74,1.24,1.24,0,0,1-.43,1,1.77,1.77,0,0,1-1.19.37,1.91,1.91,0,0,1-1.23-.35,1.21,1.21,0,0,1-.43-1,1.48,1.48,0,0,1,1-1.34,1.93,1.93,0,0,1-.68-.58,1.22,1.22,0,0,1-.21-.69,1.06,1.06,0,0,1,.4-.87A1.67,1.67,0,0,1,124.14,162.93Zm-1.08,3.81a.77.77,0,0,0,.29.64,1.25,1.25,0,0,0,.8.23,1.19,1.19,0,0,0,.79-.24.81.81,0,0,0,.28-.66.8.8,0,0,0-.27-.59,2.73,2.73,0,0,0-.93-.5,2,2,0,0,0-.74.48A.93.93,0,0,0,123.06,166.74Zm1.07-3.35a1,1,0,0,0-.67.21.68.68,0,0,0-.24.55.78.78,0,0,0,.2.54,2.11,2.11,0,0,0,.75.45,1.89,1.89,0,0,0,.69-.44.82.82,0,0,0,.2-.55.67.67,0,0,0-.25-.55A1,1,0,0,0,124.13,163.39Z"/><path class="cls-4" d="M129.8,165.49a3.64,3.64,0,0,1-.41,1.94,1.51,1.51,0,0,1-2.48,0,3.58,3.58,0,0,1-.42-1.92,3.65,3.65,0,0,1,.41-1.94,1.51,1.51,0,0,1,2.48,0A3.55,3.55,0,0,1,129.8,165.49Zm-2.73,0a3.66,3.66,0,0,0,.26,1.59.92.92,0,0,0,1.64,0,5,5,0,0,0,0-3.16.92.92,0,0,0-1.64,0A3.63,3.63,0,0,0,127.07,165.49Z"/><path class="cls-4" d="M133.89,168.07a1.62,1.62,0,0,1-.67-.13,1.26,1.26,0,0,1-.51-.42h0a5,5,0,0,1,0,.62v1.54h-.57v-5.43h.46l.08.51h0a1.32,1.32,0,0,1,.51-.44,1.55,1.55,0,0,1,.67-.14,1.38,1.38,0,0,1,1.15.51,2.71,2.71,0,0,1,0,2.86A1.39,1.39,0,0,1,133.89,168.07Zm-.08-3.4a1,1,0,0,0-.83.32,1.64,1.64,0,0,0-.26,1v.13a1.87,1.87,0,0,0,.26,1.13,1,1,0,0,0,.84.34.88.88,0,0,0,.76-.39,1.87,1.87,0,0,0,.27-1.08,1.8,1.8,0,0,0-.27-1.08A.91.91,0,0,0,133.81,164.67Z"/><path class="cls-4" d="M137.34,166.08l-1.3-1.83h.65l1,1.44,1-1.44h.64l-1.3,1.83,1.37,1.92h-.64l-1-1.52L136.61,168H136Z"/><path class="cls-4" d="M72.84,187.8a2.52,2.52,0,0,1-.67,1.89,2.65,2.65,0,0,1-1.93.65H68.85v-5h1.53a2.24,2.24,0,0,1,2.46,2.45Zm-.62,0a2,2,0,0,0-.49-1.47,2,2,0,0,0-1.46-.5h-.84v4h.71a2.15,2.15,0,0,0,1.56-.51A2,2,0,0,0,72.23,187.83Z"/><path class="cls-4" d="M75.45,190.42a1.72,1.72,0,0,1-1.31-.51,2,2,0,0,1-.48-1.4,2.17,2.17,0,0,1,.45-1.44,1.48,1.48,0,0,1,1.2-.53,1.41,1.41,0,0,1,1.11.46,1.78,1.78,0,0,1,.41,1.22v.36H74.25a1.48,1.48,0,0,0,.33,1,1.15,1.15,0,0,0,.89.34,3,3,0,0,0,1.2-.25v.51a3,3,0,0,1-.57.19A3.17,3.17,0,0,1,75.45,190.42ZM75.3,187a.93.93,0,0,0-.72.29,1.36,1.36,0,0,0-.32.81h2a1.25,1.25,0,0,0-.24-.82A.84.84,0,0,0,75.3,187Z"/><path class="cls-4" d="M78.62,190.35,77.2,186.6h.61l.81,2.22a10.6,10.6,0,0,1,.32,1h0a7.4,7.4,0,0,1,.24-.75l.9-2.48h.61l-1.42,3.75Z"/><path class="cls-4" d="M81.26,185.59a.38.38,0,0,1,.1-.29.33.33,0,0,1,.24-.09.33.33,0,0,1,.24.09.37.37,0,0,1,.1.28.38.38,0,0,1-.1.29.33.33,0,0,1-.24.09.33.33,0,0,1-.24-.09A.38.38,0,0,1,81.26,185.59Zm.62,4.76H81.3V186.6h.57Z"/><path class="cls-4" d="M84.57,190.42a1.6,1.6,0,0,1-1.26-.5,2.06,2.06,0,0,1-.45-1.42,2.12,2.12,0,0,1,.45-1.45,1.63,1.63,0,0,1,1.29-.51,2.53,2.53,0,0,1,.54.06,1.74,1.74,0,0,1,.42.14l-.17.48a2.77,2.77,0,0,0-.41-.12,1.83,1.83,0,0,0-.39,0q-1.14,0-1.14,1.46a1.73,1.73,0,0,0,.28,1.06,1,1,0,0,0,.82.37,2.52,2.52,0,0,0,1-.2v.5A2,2,0,0,1,84.57,190.42Z"/><path class="cls-4" d="M88,190.42a1.72,1.72,0,0,1-1.31-.51,2,2,0,0,1-.48-1.4,2.17,2.17,0,0,1,.45-1.44,1.48,1.48,0,0,1,1.2-.53A1.41,1.41,0,0,1,89,187a1.78,1.78,0,0,1,.41,1.22v.36H86.79a1.48,1.48,0,0,0,.33,1,1.15,1.15,0,0,0,.89.34,3,3,0,0,0,1.2-.25v.51a3,3,0,0,1-.57.19A3.17,3.17,0,0,1,88,190.42ZM87.84,187a.93.93,0,0,0-.72.29,1.36,1.36,0,0,0-.32.81h2a1.25,1.25,0,0,0-.24-.82A.84.84,0,0,0,87.84,187Z"/><path class="cls-4" d="M93.9,190.42a1.62,1.62,0,0,1-.67-.13,1.26,1.26,0,0,1-.51-.42h0a5,5,0,0,1,0,.62V192h-.57V186.6h.46l.08.51h0a1.32,1.32,0,0,1,.51-.44,1.55,1.55,0,0,1,.67-.14A1.38,1.38,0,0,1,95,187a2.71,2.71,0,0,1,0,2.86A1.39,1.39,0,0,1,93.9,190.42Zm-.08-3.4a1,1,0,0,0-.83.32,1.64,1.64,0,0,0-.26,1v.13A1.87,1.87,0,0,0,93,189.6a1,1,0,0,0,.84.34.88.88,0,0,0,.76-.39,1.87,1.87,0,0,0,.27-1.08,1.8,1.8,0,0,0-.27-1.08A.91.91,0,0,0,93.81,187Z"/><path class="cls-4" d="M96.39,185.59a.38.38,0,0,1,.1-.29.36.36,0,0,1,.48,0,.37.37,0,0,1,.1.28.38.38,0,0,1-.1.29.33.33,0,0,1-.24.09.33.33,0,0,1-.24-.09A.39.39,0,0,1,96.39,185.59Zm.62,4.76h-.57V186.6H97Z"/><path class="cls-4" d="M99.12,188.43l-1.3-1.83h.65l1,1.44,1-1.44h.64l-1.3,1.83,1.37,1.92h-.64l-1-1.52-1.06,1.52h-.64Z"/><path class="cls-4" d="M103.46,190.42a1.72,1.72,0,0,1-1.31-.51,2,2,0,0,1-.48-1.4,2.17,2.17,0,0,1,.45-1.44,1.48,1.48,0,0,1,1.2-.53,1.41,1.41,0,0,1,1.12.46,1.78,1.78,0,0,1,.41,1.22v.36h-2.58a1.48,1.48,0,0,0,.33,1,1.15,1.15,0,0,0,.89.34,3,3,0,0,0,1.2-.25v.51a3,3,0,0,1-.57.19A3.16,3.16,0,0,1,103.46,190.42Zm-.15-3.41a.93.93,0,0,0-.72.29,1.36,1.36,0,0,0-.32.81h2a1.25,1.25,0,0,0-.24-.82A.84.84,0,0,0,103.31,187Z"/><path class="cls-4" d="M106.38,190.35h-.57V185h.57Z"/><path class="cls-4" d="M111.11,186.54a2.23,2.23,0,0,1,.45,0l-.08.53a1.94,1.94,0,0,0-.41-.05,1,1,0,0,0-.78.37,1.34,1.34,0,0,0-.32.92v2h-.57V186.6h.47l.07.69h0a1.65,1.65,0,0,1,.5-.56A1.13,1.13,0,0,1,111.11,186.54Z"/><path class="cls-4" d="M114.56,190.35l-.11-.53h0a1.58,1.58,0,0,1-.56.48,1.71,1.71,0,0,1-.7.13,1.25,1.25,0,0,1-.87-.29,1,1,0,0,1-.32-.82q0-1.14,1.81-1.19l.64,0v-.23a1,1,0,0,0-.19-.65.78.78,0,0,0-.61-.21,2.47,2.47,0,0,0-1.06.29l-.17-.43a2.69,2.69,0,0,1,.61-.24,2.64,2.64,0,0,1,.66-.08,1.42,1.42,0,0,1,1,.3,1.24,1.24,0,0,1,.32,1v2.56Zm-1.28-.4a1.15,1.15,0,0,0,.83-.29,1.08,1.08,0,0,0,.3-.81v-.34l-.57,0a2.06,2.06,0,0,0-1,.21.63.63,0,0,0-.3.58.58.58,0,0,0,.19.47A.77.77,0,0,0,113.28,190Z"/><path class="cls-4" d="M117.36,190l.29,0,.22,0v.43a1.07,1.07,0,0,1-.27.07l-.32,0q-1.09,0-1.09-1.14V187h-.54v-.27l.54-.24.24-.8h.33v.87h1.09V187h-1.09v2.2a.76.76,0,0,0,.16.52A.56.56,0,0,0,117.36,190Z"/><path class="cls-4" d="M118.57,185.59a.38.38,0,0,1,.1-.29.36.36,0,0,1,.48,0,.37.37,0,0,1,.1.28.38.38,0,0,1-.1.29.33.33,0,0,1-.24.09.33.33,0,0,1-.24-.09A.39.39,0,0,1,118.57,185.59Zm.62,4.76h-.57V186.6h.57Z"/><path class="cls-4" d="M123.62,188.47a2.07,2.07,0,0,1-.46,1.43,1.63,1.63,0,0,1-1.28.51,1.68,1.68,0,0,1-.89-.24,1.56,1.56,0,0,1-.6-.68,2.37,2.37,0,0,1-.21-1,2.07,2.07,0,0,1,.46-1.43,1.62,1.62,0,0,1,1.27-.51,1.58,1.58,0,0,1,1.25.52A2.06,2.06,0,0,1,123.62,188.47Zm-2.85,0a1.78,1.78,0,0,0,.29,1.09,1.14,1.14,0,0,0,1.69,0,1.76,1.76,0,0,0,.29-1.1,1.74,1.74,0,0,0-.29-1.08,1,1,0,0,0-.85-.37,1,1,0,0,0-.84.37A1.76,1.76,0,0,0,120.77,188.47Z"/><path class="cls-4" d="M126.11,188.43a5.32,5.32,0,0,1,.26-1.7,4.24,4.24,0,0,1,.76-1.38h.55a4.83,4.83,0,0,0-.74,1.45,5.4,5.4,0,0,0-.25,1.62A5.17,5.17,0,0,0,127,190a5,5,0,0,0,.73,1.43h-.55a4,4,0,0,1-.77-1.36A5.17,5.17,0,0,1,126.11,188.43Z"/><path class="cls-4" d="M131.06,189.85h0a1.33,1.33,0,0,1-1.18.57,1.39,1.39,0,0,1-1.14-.5,2.22,2.22,0,0,1-.41-1.43,2.25,2.25,0,0,1,.41-1.44,1.38,1.38,0,0,1,1.14-.51,1.36,1.36,0,0,1,1.17.55h0l0-.27V185h.57v5.32h-.46Zm-1.13.1a1,1,0,0,0,.84-.32,1.6,1.6,0,0,0,.26-1v-.12a1.88,1.88,0,0,0-.26-1.14,1,1,0,0,0-.85-.34.87.87,0,0,0-.76.39,1.92,1.92,0,0,0-.27,1.1,1.85,1.85,0,0,0,.26,1.08A.89.89,0,0,0,129.92,189.94Z"/><path class="cls-4" d="M134.54,190.42a1.62,1.62,0,0,1-.67-.13,1.25,1.25,0,0,1-.51-.42h0a5,5,0,0,1,0,.62V192h-.57V186.6h.46l.08.51h0a1.31,1.31,0,0,1,.51-.44,1.56,1.56,0,0,1,.67-.14,1.38,1.38,0,0,1,1.15.51,2.71,2.71,0,0,1,0,2.86A1.39,1.39,0,0,1,134.54,190.42Zm-.08-3.4a1,1,0,0,0-.83.32,1.64,1.64,0,0,0-.26,1v.13a1.88,1.88,0,0,0,.26,1.13,1,1,0,0,0,.84.34.88.88,0,0,0,.76-.39,1.86,1.86,0,0,0,.28-1.08,1.79,1.79,0,0,0-.28-1.08A.9.9,0,0,0,134.46,187Z"/><path class="cls-4" d="M138.83,190.42a1.62,1.62,0,0,1-.67-.13,1.24,1.24,0,0,1-.51-.42h0a5,5,0,0,1,0,.62V192h-.57V186.6h.46l.08.51h0a1.31,1.31,0,0,1,.51-.44,1.56,1.56,0,0,1,.67-.14A1.39,1.39,0,0,1,140,187a2.71,2.71,0,0,1,0,2.86A1.39,1.39,0,0,1,138.83,190.42Zm-.08-3.4a1,1,0,0,0-.83.32,1.63,1.63,0,0,0-.26,1v.13a1.88,1.88,0,0,0,.26,1.13,1,1,0,0,0,.84.34.88.88,0,0,0,.76-.39,1.86,1.86,0,0,0,.28-1.08,1.79,1.79,0,0,0-.28-1.08A.9.9,0,0,0,138.75,187Z"/><path class="cls-4" d="M142.28,188.43,141,186.6h.65l1,1.44,1-1.44h.64l-1.3,1.83,1.37,1.92h-.64l-1-1.52-1.06,1.52h-.64Z"/><path class="cls-4" d="M146.23,188.43a5.18,5.18,0,0,1-.26,1.68,4,4,0,0,1-.76,1.35h-.55a4.9,4.9,0,0,0,.73-1.43,5.19,5.19,0,0,0,.25-1.6,5.4,5.4,0,0,0-.25-1.62,4.83,4.83,0,0,0-.74-1.45h.55a4.18,4.18,0,0,1,.77,1.39A5.34,5.34,0,0,1,146.23,188.43Z"/><path class="cls-4" d="M147,187c0-.31.13-.46.4-.46s.42.15.42.46a.48.48,0,0,1-.11.34.4.4,0,0,1-.31.12.41.41,0,0,1-.29-.11A.47.47,0,0,1,147,187Zm0,3a.51.51,0,0,1,.1-.35.38.38,0,0,1,.3-.12.4.4,0,0,1,.31.12.49.49,0,0,1,.11.35.48.48,0,0,1-.11.34.45.45,0,0,1-.6,0A.47.47,0,0,1,147,190Z"/><path class="cls-4" d="M153.63,186.53a1.14,1.14,0,0,1-.27.78,1.34,1.34,0,0,1-.76.41v0a1.43,1.43,0,0,1,.89.38,1.13,1.13,0,0,1,.29.81,1.31,1.31,0,0,1-.5,1.1,2.25,2.25,0,0,1-1.41.38,4.08,4.08,0,0,1-.73-.06,2.51,2.51,0,0,1-.64-.21v-.54a3.1,3.1,0,0,0,.69.25,3.14,3.14,0,0,0,.7.08q1.3,0,1.3-1t-1.43-.91h-.49v-.49h.5a1.51,1.51,0,0,0,.93-.26.84.84,0,0,0,.34-.72.71.71,0,0,0-.25-.57,1,1,0,0,0-.68-.21,2.09,2.09,0,0,0-.62.09,2.7,2.7,0,0,0-.66.33l-.29-.38a2.4,2.4,0,0,1,.71-.38,2.59,2.59,0,0,1,.85-.14,1.72,1.72,0,0,1,1.13.33A1.12,1.12,0,0,1,153.63,186.53Z"/><path class="cls-4" d="M83.92,199.8a2.52,2.52,0,0,1-.67,1.89,2.66,2.66,0,0,1-1.93.65H79.93v-5h1.53a2.24,2.24,0,0,1,2.46,2.45Zm-.62,0a2,2,0,0,0-.49-1.47,2,2,0,0,0-1.46-.5h-.84v4h.71a2.15,2.15,0,0,0,1.56-.51A2,2,0,0,0,83.3,199.82Z"/><path class="cls-4" d="M88.18,200.47a2.07,2.07,0,0,1-.46,1.43,1.63,1.63,0,0,1-1.28.51,1.68,1.68,0,0,1-.89-.24,1.56,1.56,0,0,1-.6-.68,2.36,2.36,0,0,1-.21-1,2.06,2.06,0,0,1,.46-1.43,1.62,1.62,0,0,1,1.27-.51,1.58,1.58,0,0,1,1.25.52A2.06,2.06,0,0,1,88.18,200.47Zm-2.85,0a1.78,1.78,0,0,0,.29,1.09,1.14,1.14,0,0,0,1.69,0,1.76,1.76,0,0,0,.29-1.1,1.74,1.74,0,0,0-.29-1.08,1,1,0,0,0-.85-.37,1,1,0,0,0-.84.37A1.76,1.76,0,0,0,85.32,200.47Z"/><path class="cls-4" d="M92.23,202.35l-.69-2.2q-.06-.2-.24-.92h0q-.14.6-.24.92l-.71,2.19h-.66l-1-3.75h.59l.55,2.15a8.65,8.65,0,0,1,.22,1h0q0-.19.12-.5c.06-.21.1-.37.15-.49L91,198.6h.62l.67,2.15a7.1,7.1,0,0,1,.26,1h0a3.87,3.87,0,0,1,.07-.38q.06-.25.71-2.76h.59l-1,3.75Z"/><path class="cls-4" d="M97.18,202.35v-2.42a1,1,0,0,0-.21-.68.85.85,0,0,0-.65-.22,1.07,1.07,0,0,0-.86.32,1.6,1.6,0,0,0-.27,1v2h-.57V198.6h.46l.09.51h0a1.16,1.16,0,0,1,.49-.43,1.59,1.59,0,0,1,.7-.15,1.42,1.42,0,0,1,1,.33,1.39,1.39,0,0,1,.34,1v2.44Z"/><path class="cls-4" d="M101.33,201.33a.94.94,0,0,1-.39.81,1.84,1.84,0,0,1-1.09.28,2.36,2.36,0,0,1-1.16-.24v-.53a2.84,2.84,0,0,0,.58.21,2.4,2.4,0,0,0,.6.08,1.35,1.35,0,0,0,.68-.14.49.49,0,0,0,0-.81,3,3,0,0,0-.74-.37,4.07,4.07,0,0,1-.74-.34,1,1,0,0,1-.33-.33.87.87,0,0,1-.11-.44.84.84,0,0,1,.37-.72,1.74,1.74,0,0,1,1-.26,3,3,0,0,1,1.18.25l-.2.46a2.73,2.73,0,0,0-1-.23,1.18,1.18,0,0,0-.61.13.39.39,0,0,0-.21.35.42.42,0,0,0,.08.26.76.76,0,0,0,.25.2,5.68,5.68,0,0,0,.66.28,2.44,2.44,0,0,1,.9.49A.86.86,0,0,1,101.33,201.33Z"/><path class="cls-4" d="M104.56,202.35l-.11-.53h0a1.57,1.57,0,0,1-.56.48,1.7,1.7,0,0,1-.7.13,1.25,1.25,0,0,1-.87-.29,1,1,0,0,1-.32-.82q0-1.14,1.82-1.19l.64,0v-.23a1,1,0,0,0-.19-.65.78.78,0,0,0-.61-.21,2.47,2.47,0,0,0-1.06.29l-.17-.43a2.68,2.68,0,0,1,.61-.24,2.65,2.65,0,0,1,.66-.08,1.42,1.42,0,0,1,1,.3,1.24,1.24,0,0,1,.32,1v2.56Zm-1.28-.4a1.15,1.15,0,0,0,.83-.29,1.08,1.08,0,0,0,.3-.81v-.34l-.57,0a2.06,2.06,0,0,0-1,.21.63.63,0,0,0-.3.58.59.59,0,0,0,.19.47A.77.77,0,0,0,103.27,201.95Z"/><path class="cls-4" d="M110.92,202.35v-2.44a1,1,0,0,0-.19-.67.74.74,0,0,0-.6-.22,1,1,0,0,0-.78.3,1.44,1.44,0,0,0-.25.94v2.09h-.57v-2.44a1,1,0,0,0-.19-.67.75.75,0,0,0-.6-.22.93.93,0,0,0-.78.32,1.73,1.73,0,0,0-.25,1v2h-.57V198.6h.46l.09.51h0a1.1,1.1,0,0,1,.45-.43,1.37,1.37,0,0,1,.65-.15,1.11,1.11,0,0,1,1.15.64h0a1.2,1.2,0,0,1,.49-.46,1.5,1.5,0,0,1,.72-.17,1.27,1.27,0,0,1,1,.33,1.47,1.47,0,0,1,.32,1v2.44Z"/><path class="cls-4" d="M114.4,202.42a1.62,1.62,0,0,1-.67-.13,1.26,1.26,0,0,1-.51-.42h0a5,5,0,0,1,0,.62V204h-.57V198.6h.46l.08.51h0a1.32,1.32,0,0,1,.51-.44,1.55,1.55,0,0,1,.67-.14,1.38,1.38,0,0,1,1.15.51,2.71,2.71,0,0,1,0,2.86A1.39,1.39,0,0,1,114.4,202.42Zm-.08-3.4a1,1,0,0,0-.83.32,1.64,1.64,0,0,0-.26,1v.13a1.87,1.87,0,0,0,.26,1.13,1,1,0,0,0,.84.34.88.88,0,0,0,.76-.39,1.87,1.87,0,0,0,.27-1.08,1.8,1.8,0,0,0-.27-1.08A.91.91,0,0,0,114.32,199Z"/><path class="cls-4" d="M117.51,202.35h-.57V197h.57Z"/><path class="cls-4" d="M118.67,197.59a.38.38,0,0,1,.1-.29.36.36,0,0,1,.47,0,.37.37,0,0,1,.1.28.38.38,0,0,1-.1.29.35.35,0,0,1-.47,0A.38.38,0,0,1,118.67,197.59Zm.62,4.76h-.57V198.6h.57Z"/><path class="cls-4" d="M123.05,202.35v-2.42a1,1,0,0,0-.21-.68.85.85,0,0,0-.65-.22,1.08,1.08,0,0,0-.86.32,1.6,1.6,0,0,0-.27,1v2h-.57V198.6h.46l.09.51h0a1.16,1.16,0,0,1,.49-.43,1.58,1.58,0,0,1,.7-.15,1.42,1.42,0,0,1,1,.33,1.39,1.39,0,0,1,.34,1v2.44Z"/><path class="cls-4" d="M127.85,198.6V199l-.69.08a1.18,1.18,0,0,1,.17.31,1.2,1.2,0,0,1,.07.44,1.11,1.11,0,0,1-.37.88,1.52,1.52,0,0,1-1,.33l-.31,0a.56.56,0,0,0-.36.48.24.24,0,0,0,.13.23.93.93,0,0,0,.43.07h.66a1.48,1.48,0,0,1,.94.26.89.89,0,0,1,.33.74,1.06,1.06,0,0,1-.5.95,2.67,2.67,0,0,1-1.46.33,2,2,0,0,1-1.13-.27.88.88,0,0,1-.4-.77.86.86,0,0,1,.22-.59,1.12,1.12,0,0,1,.62-.34.58.58,0,0,1-.24-.2.52.52,0,0,1-.1-.32.6.6,0,0,1,.11-.36,1.13,1.13,0,0,1,.34-.3,1,1,0,0,1-.47-.41,1.35,1.35,0,0,1,.19-1.6,1.51,1.51,0,0,1,1-.33,1.88,1.88,0,0,1,.53.07Zm-3,4.38a.51.51,0,0,0,.26.46,1.41,1.41,0,0,0,.74.16,2,2,0,0,0,1.06-.21.66.66,0,0,0,.34-.58.46.46,0,0,0-.19-.42,1.47,1.47,0,0,0-.71-.12h-.68a.9.9,0,0,0-.6.19A.66.66,0,0,0,124.86,203Zm.31-3.18a.77.77,0,0,0,.22.6.89.89,0,0,0,.62.2.72.72,0,0,0,.83-.81.74.74,0,0,0-.84-.84.83.83,0,0,0-.62.21A.86.86,0,0,0,125.17,199.8Z"/><path class="cls-4" d="M128.54,199c0-.31.13-.46.4-.46s.42.15.42.46a.47.47,0,0,1-.11.34.4.4,0,0,1-.31.12.41.41,0,0,1-.29-.11A.47.47,0,0,1,128.54,199Zm0,3a.5.5,0,0,1,.11-.35.37.37,0,0,1,.3-.12.4.4,0,0,1,.31.12.49.49,0,0,1,.11.35.48.48,0,0,1-.11.34.45.45,0,0,1-.6,0A.47.47,0,0,1,128.54,202Z"/><path class="cls-4" d="M134.14,202.35h-.55v-3.56q0-.44,0-.84l-.16.15-.81.67-.3-.39,1.32-1h.48Z"/><path class="cls-4" d="M136.22,202a.5.5,0,0,1,.11-.35.37.37,0,0,1,.3-.12.4.4,0,0,1,.31.12.49.49,0,0,1,.11.35.48.48,0,0,1-.11.34.45.45,0,0,1-.6,0A.47.47,0,0,1,136.22,202Z"/><path class="cls-4" d="M140,202.35h-.55v-3.56q0-.44,0-.84l-.16.15-.81.67-.3-.39,1.32-1H140Z"/><path class="cls-4" d="M143.47,199.3a1.84,1.84,0,0,1,1.24.39,1.34,1.34,0,0,1,.45,1.07,1.54,1.54,0,0,1-.49,1.22,2,2,0,0,1-1.36.44,2.51,2.51,0,0,1-1.29-.27v-.55a2,2,0,0,0,.59.24,2.91,2.91,0,0,0,.7.09,1.4,1.4,0,0,0,.94-.28,1,1,0,0,0,.33-.82q0-1-1.28-1a5.07,5.07,0,0,0-.87.1l-.29-.19.19-2.34h2.49v.52h-2l-.13,1.5A4,4,0,0,1,143.47,199.3Z"/><path class="cls-4" d="M54.85,366h1.41a2.65,2.65,0,0,1,1.44.3,1,1,0,0,1,.44.94,1.08,1.08,0,0,1-.25.73,1.19,1.19,0,0,1-.72.37v0q1.14.19,1.14,1.2a1.29,1.29,0,0,1-.45,1,1.93,1.93,0,0,1-1.27.38H54.85Zm.58,2.14h1a1.56,1.56,0,0,0,.89-.19.75.75,0,0,0,.27-.65.66.66,0,0,0-.3-.61,1.88,1.88,0,0,0-1-.19h-.85Zm0,.49v1.87h1a1.49,1.49,0,0,0,.91-.23.87.87,0,0,0,.3-.73.78.78,0,0,0-.31-.68,1.67,1.67,0,0,0-1-.22Z"/><path class="cls-4" d="M61,367.19a2.23,2.23,0,0,1,.45,0l-.08.53a1.94,1.94,0,0,0-.41-.05,1,1,0,0,0-.78.37,1.34,1.34,0,0,0-.32.92v2H59.3v-3.75h.47l.07.69h0a1.65,1.65,0,0,1,.5-.56A1.13,1.13,0,0,1,61,367.19Z"/><path class="cls-4" d="M63.74,371.07a1.72,1.72,0,0,1-1.31-.51,2,2,0,0,1-.48-1.4,2.17,2.17,0,0,1,.45-1.44,1.48,1.48,0,0,1,1.2-.53,1.41,1.41,0,0,1,1.11.46,1.78,1.78,0,0,1,.41,1.22v.36H62.54a1.48,1.48,0,0,0,.33,1,1.15,1.15,0,0,0,.89.34,3,3,0,0,0,1.2-.25v.51a3,3,0,0,1-.57.19A3.16,3.16,0,0,1,63.74,371.07Zm-.15-3.41a.93.93,0,0,0-.72.29,1.35,1.35,0,0,0-.32.81h2a1.24,1.24,0,0,0-.24-.82A.84.84,0,0,0,63.59,367.66Z"/><path class="cls-4" d="M66,366.24a.38.38,0,0,1,.1-.29.33.33,0,0,1,.24-.09.33.33,0,0,1,.24.09.37.37,0,0,1,.1.28.38.38,0,0,1-.1.29.33.33,0,0,1-.24.09.33.33,0,0,1-.24-.09A.38.38,0,0,1,66,366.24Zm.62,4.76h-.57v-3.75h.57Z"/><path class="cls-4" d="M69.07,370.6l.29,0,.22,0V371a1.07,1.07,0,0,1-.27.07l-.32,0q-1.09,0-1.09-1.14V367.7h-.54v-.27l.54-.24.24-.8h.33v.87h1.09v.44H68.47v2.2a.76.76,0,0,0,.16.52A.56.56,0,0,0,69.07,370.6Z"/><path class="cls-4" d="M71.91,371.07a1.72,1.72,0,0,1-1.31-.51,2,2,0,0,1-.48-1.4,2.17,2.17,0,0,1,.45-1.44,1.48,1.48,0,0,1,1.2-.53,1.41,1.41,0,0,1,1.11.46,1.78,1.78,0,0,1,.41,1.22v.36H70.71a1.48,1.48,0,0,0,.33,1,1.15,1.15,0,0,0,.89.34,3,3,0,0,0,1.2-.25v.51a3,3,0,0,1-.57.19A3.17,3.17,0,0,1,71.91,371.07Zm-.15-3.41A.93.93,0,0,0,71,368a1.36,1.36,0,0,0-.32.81h2a1.25,1.25,0,0,0-.24-.82A.84.84,0,0,0,71.76,367.66Z"/><path class="cls-4" d="M77.66,371.07a1.72,1.72,0,0,1-1.31-.51,2,2,0,0,1-.48-1.4,2.17,2.17,0,0,1,.45-1.44,1.49,1.49,0,0,1,1.2-.53,1.41,1.41,0,0,1,1.11.46,1.78,1.78,0,0,1,.41,1.22v.36H76.45a1.48,1.48,0,0,0,.33,1,1.15,1.15,0,0,0,.89.34,3,3,0,0,0,1.2-.25v.51a3,3,0,0,1-.57.19A3.17,3.17,0,0,1,77.66,371.07Zm-.15-3.41a.92.92,0,0,0-.72.29,1.34,1.34,0,0,0-.32.81h2a1.24,1.24,0,0,0-.24-.82A.84.84,0,0,0,77.5,367.66Z"/><path class="cls-4" d="M80,366.24A.38.38,0,0,1,80,366a.36.36,0,0,1,.47,0,.37.37,0,0,1,.1.28.38.38,0,0,1-.1.29.35.35,0,0,1-.47,0A.38.38,0,0,1,80,366.24Zm.62,4.76H80v-3.75h.57Z"/><path class="cls-4" d="M84.34,371v-2.42a1,1,0,0,0-.21-.68.85.85,0,0,0-.65-.22,1.08,1.08,0,0,0-.86.32,1.6,1.6,0,0,0-.27,1v2h-.57v-3.75h.46l.09.51h0a1.16,1.16,0,0,1,.49-.43,1.58,1.58,0,0,1,.7-.15,1.42,1.42,0,0,1,1,.33,1.39,1.39,0,0,1,.34,1V371Z"/><path class="cls-4" d="M87.65,371.07a1.72,1.72,0,0,1-1.31-.51,2,2,0,0,1-.48-1.4,2.17,2.17,0,0,1,.45-1.44,1.49,1.49,0,0,1,1.2-.53,1.41,1.41,0,0,1,1.11.46,1.78,1.78,0,0,1,.41,1.22v.36H86.45a1.48,1.48,0,0,0,.33,1,1.15,1.15,0,0,0,.89.34,3,3,0,0,0,1.2-.25v.51a3,3,0,0,1-.57.19A3.17,3.17,0,0,1,87.65,371.07Zm-.15-3.41a.92.92,0,0,0-.72.29,1.34,1.34,0,0,0-.32.81h2a1.24,1.24,0,0,0-.24-.82A.84.84,0,0,0,87.5,367.66Z"/><path class="cls-4" d="M92.41,370a.94.94,0,0,1-.39.81,1.84,1.84,0,0,1-1.09.28,2.37,2.37,0,0,1-1.16-.24v-.53a2.85,2.85,0,0,0,.58.21,2.4,2.4,0,0,0,.6.08,1.35,1.35,0,0,0,.68-.14.49.49,0,0,0,0-.81,3,3,0,0,0-.74-.37,4,4,0,0,1-.74-.34,1,1,0,0,1-.33-.33.87.87,0,0,1-.11-.44.84.84,0,0,1,.37-.72,1.73,1.73,0,0,1,1-.26,3,3,0,0,1,1.18.25l-.2.46a2.72,2.72,0,0,0-1-.23,1.18,1.18,0,0,0-.61.13.39.39,0,0,0-.21.35.42.42,0,0,0,.08.26.75.75,0,0,0,.25.2,5.53,5.53,0,0,0,.66.28,2.45,2.45,0,0,1,.9.49A.86.86,0,0,1,92.41,370Z"/><path class="cls-4" d="M95.82,371h-.58v-5H98v.52h-2.2v1.83h2.07v.52H95.82Z"/><path class="cls-4" d="M98.72,366.24a.38.38,0,0,1,.1-.29.36.36,0,0,1,.48,0,.37.37,0,0,1,.1.28.38.38,0,0,1-.1.29.33.33,0,0,1-.24.09.33.33,0,0,1-.24-.09A.39.39,0,0,1,98.72,366.24Zm.62,4.76h-.57v-3.75h.57Z"/><path class="cls-4" d="M103.1,371v-2.42a1,1,0,0,0-.21-.68.85.85,0,0,0-.65-.22,1.07,1.07,0,0,0-.86.32,1.61,1.61,0,0,0-.27,1v2h-.57v-3.75H101l.09.51h0a1.16,1.16,0,0,1,.49-.43,1.59,1.59,0,0,1,.7-.15,1.42,1.42,0,0,1,1,.33,1.39,1.39,0,0,1,.34,1V371Z"/><path class="cls-4" d="M107.9,367.25v.36l-.69.08a1.23,1.23,0,0,1,.25.75,1.11,1.11,0,0,1-.38.88,1.51,1.51,0,0,1-1,.33l-.31,0a.56.56,0,0,0-.36.48.25.25,0,0,0,.13.23.92.92,0,0,0,.43.07h.66a1.47,1.47,0,0,1,.93.26.89.89,0,0,1,.33.74,1.07,1.07,0,0,1-.5.95,2.67,2.67,0,0,1-1.46.33,2,2,0,0,1-1.13-.27.88.88,0,0,1-.4-.77.87.87,0,0,1,.22-.59,1.11,1.11,0,0,1,.62-.34.58.58,0,0,1-.24-.2.53.53,0,0,1-.1-.32.6.6,0,0,1,.11-.36,1.14,1.14,0,0,1,.35-.3,1,1,0,0,1-.47-.41,1.19,1.19,0,0,1-.18-.66,1.21,1.21,0,0,1,.37-.95,1.51,1.51,0,0,1,1-.33,1.9,1.9,0,0,1,.53.07Zm-3,4.38a.51.51,0,0,0,.26.46,1.4,1.4,0,0,0,.73.16A2.05,2.05,0,0,0,107,372a.65.65,0,0,0,.34-.58.46.46,0,0,0-.19-.42,1.46,1.46,0,0,0-.71-.12h-.68a.89.89,0,0,0-.6.19A.66.66,0,0,0,104.91,371.63Zm.31-3.18a.76.76,0,0,0,.22.6.89.89,0,0,0,.62.2.72.72,0,0,0,.83-.81.75.75,0,0,0-.84-.84.84.84,0,0,0-.62.21A.87.87,0,0,0,105.22,368.45Z"/><path class="cls-4" d="M110.25,371.07a1.72,1.72,0,0,1-1.31-.51,2,2,0,0,1-.48-1.4,2.17,2.17,0,0,1,.45-1.44,1.49,1.49,0,0,1,1.2-.53,1.41,1.41,0,0,1,1.11.46,1.78,1.78,0,0,1,.41,1.22v.36H109a1.48,1.48,0,0,0,.33,1,1.15,1.15,0,0,0,.89.34,3,3,0,0,0,1.2-.25v.51a3,3,0,0,1-.57.19A3.17,3.17,0,0,1,110.25,371.07Zm-.15-3.41a.92.92,0,0,0-.72.29,1.34,1.34,0,0,0-.32.81h2a1.24,1.24,0,0,0-.24-.82A.84.84,0,0,0,110.1,367.66Z"/><path class="cls-4" d="M114.3,367.19a2.23,2.23,0,0,1,.45,0l-.08.53a1.94,1.94,0,0,0-.41-.05,1,1,0,0,0-.78.37,1.34,1.34,0,0,0-.32.92v2h-.57v-3.75h.47l.07.69h0a1.65,1.65,0,0,1,.5-.56A1.13,1.13,0,0,1,114.3,367.19Z"/><path class="cls-4" d="M117.87,370a.94.94,0,0,1-.39.81,1.84,1.84,0,0,1-1.09.28,2.37,2.37,0,0,1-1.16-.24v-.53a2.85,2.85,0,0,0,.58.21,2.4,2.4,0,0,0,.6.08,1.35,1.35,0,0,0,.68-.14.49.49,0,0,0,0-.81,3,3,0,0,0-.74-.37,4,4,0,0,1-.74-.34,1,1,0,0,1-.33-.33.87.87,0,0,1-.11-.44.84.84,0,0,1,.37-.72,1.73,1.73,0,0,1,1-.26,3,3,0,0,1,1.18.25l-.2.46a2.72,2.72,0,0,0-1-.23,1.18,1.18,0,0,0-.61.13.39.39,0,0,0-.21.35.42.42,0,0,0,.08.26.75.75,0,0,0,.25.2,5.53,5.53,0,0,0,.66.28,2.45,2.45,0,0,1,.9.49A.86.86,0,0,1,117.87,370Z"/><path class="cls-4" d="M120.56,366.24a.38.38,0,0,1,.1-.29.33.33,0,0,1,.24-.09.33.33,0,0,1,.24.09.37.37,0,0,1,.1.28.38.38,0,0,1-.1.29.33.33,0,0,1-.24.09.33.33,0,0,1-.24-.09A.38.38,0,0,1,120.56,366.24Zm.62,4.76h-.57v-3.75h.57Z"/><path class="cls-4" d="M124.94,371v-2.42a1,1,0,0,0-.21-.68.85.85,0,0,0-.65-.22,1.08,1.08,0,0,0-.86.32,1.61,1.61,0,0,0-.27,1v2h-.57v-3.75h.46l.09.51h0a1.16,1.16,0,0,1,.49-.43,1.59,1.59,0,0,1,.7-.15,1.43,1.43,0,0,1,1,.33,1.39,1.39,0,0,1,.34,1V371Z"/><path class="cls-4" d="M130.24,371.07a1.62,1.62,0,0,1-.67-.13,1.25,1.25,0,0,1-.51-.42h0a5,5,0,0,1,0,.62v1.54h-.57v-5.43H129l.08.51h0a1.32,1.32,0,0,1,.51-.44,1.55,1.55,0,0,1,.67-.14,1.39,1.39,0,0,1,1.15.51,2.72,2.72,0,0,1,0,2.86A1.39,1.39,0,0,1,130.24,371.07Zm-.08-3.4a1,1,0,0,0-.83.32,1.62,1.62,0,0,0-.26,1v.13a1.87,1.87,0,0,0,.26,1.13,1,1,0,0,0,.84.34.88.88,0,0,0,.76-.39,1.87,1.87,0,0,0,.27-1.08,1.8,1.8,0,0,0-.27-1.08A.91.91,0,0,0,130.16,367.67Z"/><path class="cls-4" d="M136,369.12a2.07,2.07,0,0,1-.46,1.43,1.63,1.63,0,0,1-1.28.51,1.68,1.68,0,0,1-.89-.24,1.56,1.56,0,0,1-.6-.68,2.36,2.36,0,0,1-.21-1,2.06,2.06,0,0,1,.46-1.43,1.62,1.62,0,0,1,1.27-.51,1.58,1.58,0,0,1,1.25.52A2.06,2.06,0,0,1,136,369.12Zm-2.85,0a1.78,1.78,0,0,0,.29,1.09,1.14,1.14,0,0,0,1.69,0,1.76,1.76,0,0,0,.29-1.1,1.74,1.74,0,0,0-.29-1.08,1,1,0,0,0-.85-.37,1,1,0,0,0-.84.37A1.76,1.76,0,0,0,133.17,369.12Z"/><path class="cls-4" d="M137,366.24a.38.38,0,0,1,.1-.29.36.36,0,0,1,.47,0,.37.37,0,0,1,.1.28.38.38,0,0,1-.1.29.35.35,0,0,1-.47,0A.38.38,0,0,1,137,366.24Zm.62,4.76H137v-3.75h.57Z"/><path class="cls-4" d="M141.35,371v-2.42a1,1,0,0,0-.21-.68.85.85,0,0,0-.65-.22,1.08,1.08,0,0,0-.86.32,1.6,1.6,0,0,0-.27,1v2h-.57v-3.75h.46l.09.51h0a1.16,1.16,0,0,1,.49-.43,1.58,1.58,0,0,1,.7-.15,1.42,1.42,0,0,1,1,.33,1.39,1.39,0,0,1,.34,1V371Z"/><path class="cls-4" d="M144.29,370.6l.29,0,.22,0V371a1.07,1.07,0,0,1-.27.07l-.32,0q-1.09,0-1.09-1.14V367.7h-.54v-.27l.54-.24.24-.8h.33v.87h1.09v.44h-1.09v2.2a.76.76,0,0,0,.16.52A.56.56,0,0,0,144.29,370.6Z"/><path class="cls-4" d="M148,370a.94.94,0,0,1-.39.81,1.84,1.84,0,0,1-1.09.28,2.36,2.36,0,0,1-1.16-.24v-.53a2.84,2.84,0,0,0,.58.21,2.4,2.4,0,0,0,.6.08,1.35,1.35,0,0,0,.68-.14.49.49,0,0,0,0-.81,3,3,0,0,0-.74-.37,4.07,4.07,0,0,1-.74-.34,1,1,0,0,1-.33-.33.87.87,0,0,1-.11-.44.84.84,0,0,1,.37-.72,1.74,1.74,0,0,1,1-.26,3,3,0,0,1,1.18.25l-.2.46a2.73,2.73,0,0,0-1-.23,1.18,1.18,0,0,0-.61.13.39.39,0,0,0-.21.35.42.42,0,0,0,.08.26.76.76,0,0,0,.25.2,5.68,5.68,0,0,0,.66.28,2.44,2.44,0,0,1,.9.49A.86.86,0,0,1,148,370Z"/><path class="cls-4" d="M150.39,369.08a5.3,5.3,0,0,1,.27-1.7,4.22,4.22,0,0,1,.76-1.38H152a4.79,4.79,0,0,0-.74,1.45,5.37,5.37,0,0,0-.25,1.62,5.2,5.2,0,0,0,.25,1.6,5,5,0,0,0,.73,1.43h-.55a4,4,0,0,1-.77-1.36A5.14,5.14,0,0,1,150.39,369.08Z"/><path class="cls-4" d="M155,366.45a1.63,1.63,0,0,0-1.3.55,2.21,2.21,0,0,0-.48,1.5,2.26,2.26,0,0,0,.46,1.52,1.63,1.63,0,0,0,1.31.54,4.5,4.5,0,0,0,1.19-.19v.51a3.65,3.65,0,0,1-1.28.2,2.17,2.17,0,0,1-1.7-.67,2.76,2.76,0,0,1-.6-1.9,3,3,0,0,1,.29-1.35,2.07,2.07,0,0,1,.83-.89,2.52,2.52,0,0,1,1.28-.31,3.1,3.1,0,0,1,1.37.29l-.25.5A2.65,2.65,0,0,0,155,366.45Z"/><path class="cls-4" d="M160.1,369.67a1.23,1.23,0,0,1-.48,1,2.08,2.08,0,0,1-1.3.37,3.26,3.26,0,0,1-1.37-.23v-.56a3.68,3.68,0,0,0,.67.21,3.54,3.54,0,0,0,.72.07,1.45,1.45,0,0,0,.88-.22.72.72,0,0,0,.29-.61.78.78,0,0,0-.11-.42,1,1,0,0,0-.35-.31,4.81,4.81,0,0,0-.74-.32,2.36,2.36,0,0,1-1-.59,1.3,1.3,0,0,1-.3-.89,1.11,1.11,0,0,1,.43-.92,1.8,1.8,0,0,1,1.15-.34,3.38,3.38,0,0,1,1.37.27l-.18.51a3.08,3.08,0,0,0-1.2-.26,1.17,1.17,0,0,0-.72.2.65.65,0,0,0-.26.55.84.84,0,0,0,.1.43.91.91,0,0,0,.32.3,4,4,0,0,0,.7.31,2.75,2.75,0,0,1,1.08.6A1.18,1.18,0,0,1,160.1,369.67Z"/><path class="cls-4" d="M163.94,369.67a1.23,1.23,0,0,1-.48,1,2.08,2.08,0,0,1-1.3.37,3.26,3.26,0,0,1-1.37-.23v-.56a3.68,3.68,0,0,0,.67.21,3.54,3.54,0,0,0,.72.07,1.45,1.45,0,0,0,.88-.22.72.72,0,0,0,.29-.61.78.78,0,0,0-.11-.42,1,1,0,0,0-.35-.31,4.81,4.81,0,0,0-.74-.32,2.36,2.36,0,0,1-1-.59,1.3,1.3,0,0,1-.3-.89,1.11,1.11,0,0,1,.43-.92,1.8,1.8,0,0,1,1.15-.34,3.38,3.38,0,0,1,1.37.27l-.18.51a3.08,3.08,0,0,0-1.2-.26,1.17,1.17,0,0,0-.72.2.65.65,0,0,0-.26.55.84.84,0,0,0,.1.43.91.91,0,0,0,.32.3,4,4,0,0,0,.7.31,2.75,2.75,0,0,1,1.08.6A1.18,1.18,0,0,1,163.94,369.67Z"/><path class="cls-4" d="M166.07,369.08a5.18,5.18,0,0,1-.26,1.68,4,4,0,0,1-.76,1.35h-.55a4.9,4.9,0,0,0,.73-1.43,5.19,5.19,0,0,0,.25-1.6,5.4,5.4,0,0,0-.25-1.62,4.83,4.83,0,0,0-.74-1.45H165a4.18,4.18,0,0,1,.77,1.39A5.34,5.34,0,0,1,166.07,369.08Z"/><path class="cls-4" d="M166.87,367.62c0-.31.13-.46.4-.46s.42.15.42.46a.48.48,0,0,1-.11.34.4.4,0,0,1-.31.12A.41.41,0,0,1,167,368,.47.47,0,0,1,166.87,367.62Zm0,3a.51.51,0,0,1,.1-.35.38.38,0,0,1,.3-.12.4.4,0,0,1,.31.12.49.49,0,0,1,.11.35.48.48,0,0,1-.11.34.45.45,0,0,1-.6,0A.47.47,0,0,1,166.87,370.64Z"/><path class="cls-4" d="M33.93,383h-.55v-3.56q0-.44,0-.84l-.16.15-.81.67-.3-.39,1.32-1h.48Z"/><path class="cls-4" d="M39.14,380.49a3.66,3.66,0,0,1-.41,1.94,1.38,1.38,0,0,1-1.25.64,1.37,1.37,0,0,1-1.23-.65,3.58,3.58,0,0,1-.42-1.92,3.65,3.65,0,0,1,.41-1.94,1.51,1.51,0,0,1,2.48,0A3.56,3.56,0,0,1,39.14,380.49Zm-2.73,0a3.66,3.66,0,0,0,.26,1.59.92.92,0,0,0,1.64,0,5,5,0,0,0,0-3.16.92.92,0,0,0-1.64,0A3.64,3.64,0,0,0,36.41,380.49Z"/><path class="cls-4" d="M41.49,377.93a1.69,1.69,0,0,1,1.08.32,1.06,1.06,0,0,1,.4.88,1.1,1.1,0,0,1-.23.67,2,2,0,0,1-.73.55,2.45,2.45,0,0,1,.87.61,1.15,1.15,0,0,1,.26.74,1.24,1.24,0,0,1-.43,1,1.77,1.77,0,0,1-1.19.37,1.91,1.91,0,0,1-1.23-.35,1.21,1.21,0,0,1-.43-1,1.48,1.48,0,0,1,1-1.34,1.93,1.93,0,0,1-.68-.58,1.22,1.22,0,0,1-.21-.69,1.06,1.06,0,0,1,.4-.87A1.67,1.67,0,0,1,41.49,377.93Zm-1.08,3.81a.77.77,0,0,0,.29.64,1.25,1.25,0,0,0,.8.23,1.19,1.19,0,0,0,.79-.24.81.81,0,0,0,.28-.66.8.8,0,0,0-.27-.59,2.73,2.73,0,0,0-.93-.5,2,2,0,0,0-.74.48A.93.93,0,0,0,40.41,381.74Zm1.07-3.35a1,1,0,0,0-.67.21.68.68,0,0,0-.24.55.78.78,0,0,0,.2.54,2.11,2.11,0,0,0,.75.45,1.89,1.89,0,0,0,.69-.44.82.82,0,0,0,.2-.55.67.67,0,0,0-.25-.55A1,1,0,0,0,41.48,378.39Z"/><path class="cls-4" d="M47.15,380.49a3.64,3.64,0,0,1-.41,1.94,1.51,1.51,0,0,1-2.48,0,3.58,3.58,0,0,1-.42-1.92,3.65,3.65,0,0,1,.41-1.94,1.51,1.51,0,0,1,2.48,0A3.55,3.55,0,0,1,47.15,380.49Zm-2.73,0a3.66,3.66,0,0,0,.26,1.59.92.92,0,0,0,1.64,0,5,5,0,0,0,0-3.16.92.92,0,0,0-1.64,0A3.63,3.63,0,0,0,44.42,380.49Z"/><path class="cls-4" d="M51.24,383.07a1.62,1.62,0,0,1-.67-.13,1.26,1.26,0,0,1-.51-.42h0a5,5,0,0,1,0,.62v1.54H49.5v-5.43H50l.08.51h0a1.32,1.32,0,0,1,.51-.44,1.55,1.55,0,0,1,.67-.14,1.38,1.38,0,0,1,1.15.51,2.71,2.71,0,0,1,0,2.86A1.39,1.39,0,0,1,51.24,383.07Zm-.08-3.4a1,1,0,0,0-.83.32,1.64,1.64,0,0,0-.26,1v.13a1.87,1.87,0,0,0,.26,1.13,1,1,0,0,0,.84.34.88.88,0,0,0,.76-.39,1.87,1.87,0,0,0,.27-1.08,1.8,1.8,0,0,0-.27-1.08A.91.91,0,0,0,51.16,379.67Z"/><path class="cls-4" d="M54.69,381.08l-1.3-1.83H54l1,1.44,1-1.44h.64l-1.3,1.83L56.71,383h-.64l-1-1.52L54,383h-.64Z"/><path class="cls-4" d="M59,380.77v-.47h3.28v.47Zm1.25-1.43a.42.42,0,0,1,.1-.31.38.38,0,0,1,.29-.1.36.36,0,0,1,.28.11.52.52,0,0,1,0,.61.36.36,0,0,1-.28.11.38.38,0,0,1-.28-.11A.43.43,0,0,1,60.28,379.34Zm0,2.38a.42.42,0,0,1,.1-.31.38.38,0,0,1,.29-.1.36.36,0,0,1,.28.11.52.52,0,0,1,0,.61.36.36,0,0,1-.28.11.38.38,0,0,1-.28-.11A.43.43,0,0,1,60.28,381.72Z"/><path class="cls-4" d="M64.77,381.08a5.32,5.32,0,0,1,.26-1.7A4.24,4.24,0,0,1,65.8,378h.55a4.81,4.81,0,0,0-.74,1.45,5.37,5.37,0,0,0-.25,1.62,5.17,5.17,0,0,0,.25,1.6,5,5,0,0,0,.73,1.43H65.8a4.05,4.05,0,0,1-.77-1.36A5.17,5.17,0,0,1,64.77,381.08Z"/><path class="cls-4" d="M70,379.18a1.14,1.14,0,0,1-.27.78,1.34,1.34,0,0,1-.76.41v0a1.43,1.43,0,0,1,.89.38,1.13,1.13,0,0,1,.29.81,1.31,1.31,0,0,1-.5,1.1,2.25,2.25,0,0,1-1.41.38,4.08,4.08,0,0,1-.73-.06,2.51,2.51,0,0,1-.64-.21v-.54a3.1,3.1,0,0,0,.69.25,3.14,3.14,0,0,0,.7.08q1.3,0,1.3-1t-1.43-.91h-.49v-.49h.5a1.51,1.51,0,0,0,.93-.26.84.84,0,0,0,.34-.72.71.71,0,0,0-.25-.57,1,1,0,0,0-.68-.21,2.09,2.09,0,0,0-.62.09,2.7,2.7,0,0,0-.66.33l-.29-.38a2.4,2.4,0,0,1,.71-.38,2.59,2.59,0,0,1,.85-.14,1.72,1.72,0,0,1,1.13.33A1.12,1.12,0,0,1,70,379.18Z"/><path class="cls-4" d="M75.12,382.5h0a1.33,1.33,0,0,1-1.18.57,1.39,1.39,0,0,1-1.14-.5,2.21,2.21,0,0,1-.41-1.43,2.25,2.25,0,0,1,.41-1.44,1.38,1.38,0,0,1,1.14-.51,1.36,1.36,0,0,1,1.17.55h0l0-.27v-1.79h.57V383h-.46Zm-1.13.1a1,1,0,0,0,.84-.32,1.6,1.6,0,0,0,.26-1v-.12a1.88,1.88,0,0,0-.26-1.14,1,1,0,0,0-.85-.34.87.87,0,0,0-.76.39,1.93,1.93,0,0,0-.26,1.1,1.85,1.85,0,0,0,.26,1.08A.89.89,0,0,0,74,382.59Z"/><path class="cls-4" d="M78.6,383.07a1.62,1.62,0,0,1-.67-.13,1.26,1.26,0,0,1-.51-.42h0a5,5,0,0,1,0,.62v1.54h-.57v-5.43h.46l.08.51h0a1.32,1.32,0,0,1,.51-.44,1.55,1.55,0,0,1,.67-.14,1.38,1.38,0,0,1,1.15.51,2.71,2.71,0,0,1,0,2.86A1.39,1.39,0,0,1,78.6,383.07Zm-.08-3.4a1,1,0,0,0-.83.32,1.64,1.64,0,0,0-.26,1v.13a1.87,1.87,0,0,0,.26,1.13,1,1,0,0,0,.84.34.88.88,0,0,0,.76-.39,1.87,1.87,0,0,0,.27-1.08,1.8,1.8,0,0,0-.27-1.08A.91.91,0,0,0,78.52,379.67Z"/><path class="cls-4" d="M82.89,383.07a1.62,1.62,0,0,1-.67-.13,1.25,1.25,0,0,1-.51-.42h0a5,5,0,0,1,0,.62v1.54h-.57v-5.43h.46l.08.51h0a1.31,1.31,0,0,1,.51-.44,1.56,1.56,0,0,1,.67-.14,1.38,1.38,0,0,1,1.15.51,2.71,2.71,0,0,1,0,2.86A1.39,1.39,0,0,1,82.89,383.07Zm-.08-3.4A1,1,0,0,0,82,380a1.64,1.64,0,0,0-.26,1v.13a1.88,1.88,0,0,0,.26,1.13,1,1,0,0,0,.84.34.88.88,0,0,0,.76-.39,1.86,1.86,0,0,0,.28-1.08,1.79,1.79,0,0,0-.28-1.08A.9.9,0,0,0,82.81,379.67Z"/><path class="cls-4" d="M86.34,381.08,85,379.25h.65l1,1.44,1-1.44h.64L87,381.08,88.36,383h-.64l-1-1.52L85.61,383H85Z"/><path class="cls-4" d="M92.82,378,91,383h-.57l1.86-5Z"/><path class="cls-4" d="M97.15,383H96.6v-3.56q0-.44,0-.84l-.16.15-.81.67-.3-.39,1.32-1h.48Z"/><path class="cls-4" d="M99.23,382.64a.5.5,0,0,1,.11-.35.37.37,0,0,1,.3-.12.4.4,0,0,1,.31.12.49.49,0,0,1,.11.35.48.48,0,0,1-.11.34.45.45,0,0,1-.6,0A.47.47,0,0,1,99.23,382.64Z"/><path class="cls-4" d="M103,383h-.55v-3.56q0-.44,0-.84l-.16.15-.81.67-.3-.39,1.32-1H103Z"/><path class="cls-4" d="M106.48,379.95a1.84,1.84,0,0,1,1.24.39,1.34,1.34,0,0,1,.45,1.07,1.54,1.54,0,0,1-.49,1.22,2,2,0,0,1-1.36.44,2.51,2.51,0,0,1-1.29-.27v-.55a2,2,0,0,0,.59.24,2.91,2.91,0,0,0,.7.09,1.4,1.4,0,0,0,.94-.28,1,1,0,0,0,.33-.82q0-1-1.28-1a5.07,5.07,0,0,0-.87.1l-.29-.19.19-2.34h2.49v.52h-2l-.13,1.5A4,4,0,0,1,106.48,379.95Z"/><path class="cls-4" d="M110.37,381.08a5.18,5.18,0,0,1-.26,1.68,4,4,0,0,1-.76,1.35h-.55a5,5,0,0,0,.73-1.43,5.19,5.19,0,0,0,.25-1.6,5.37,5.37,0,0,0-.25-1.62,4.81,4.81,0,0,0-.74-1.45h.55a4.22,4.22,0,0,1,.77,1.39A5.34,5.34,0,0,1,110.37,381.08Z"/><path class="cls-4" d="M112.82,380.77v-.47h3.29v.47Zm1.25-1.43a.43.43,0,0,1,.1-.31.38.38,0,0,1,.29-.1.36.36,0,0,1,.28.11.52.52,0,0,1,0,.61.36.36,0,0,1-.28.11.38.38,0,0,1-.28-.11A.42.42,0,0,1,114.08,379.34Zm0,2.38a.43.43,0,0,1,.1-.31.38.38,0,0,1,.29-.1.36.36,0,0,1,.28.11.52.52,0,0,1,0,.61.36.36,0,0,1-.28.11.38.38,0,0,1-.28-.11A.42.42,0,0,1,114.08,381.72Z"/><path class="cls-4" d="M118.69,380.86a3.54,3.54,0,0,1,.57-2.2,2,2,0,0,1,1.69-.73,2.28,2.28,0,0,1,.61.06v.49a2,2,0,0,0-.6-.08,1.52,1.52,0,0,0-1.23.5,2.57,2.57,0,0,0-.46,1.57h0a1.31,1.31,0,0,1,1.19-.59,1.4,1.4,0,0,1,1.06.41,1.54,1.54,0,0,1,.39,1.1,1.7,1.7,0,0,1-.42,1.23,1.52,1.52,0,0,1-1.15.45,1.48,1.48,0,0,1-1.23-.58A2.57,2.57,0,0,1,118.69,380.86Zm1.68,1.72a1,1,0,0,0,.75-.31,1.3,1.3,0,0,0,.27-.88,1.14,1.14,0,0,0-.25-.78.94.94,0,0,0-.75-.28,1.25,1.25,0,0,0-.56.13,1,1,0,0,0-.41.35.81.81,0,0,0-.15.46,1.59,1.59,0,0,0,.14.66,1.14,1.14,0,0,0,.39.48A1,1,0,0,0,120.37,382.58Z"/><path class="cls-4" d="M124.29,377.93a1.69,1.69,0,0,1,1.08.32,1.06,1.06,0,0,1,.4.88,1.1,1.1,0,0,1-.23.67,2,2,0,0,1-.73.55,2.45,2.45,0,0,1,.87.61,1.15,1.15,0,0,1,.26.74,1.24,1.24,0,0,1-.43,1,1.77,1.77,0,0,1-1.19.37,1.91,1.91,0,0,1-1.23-.35,1.21,1.21,0,0,1-.43-1,1.48,1.48,0,0,1,1-1.34,1.93,1.93,0,0,1-.68-.58,1.22,1.22,0,0,1-.21-.69,1.06,1.06,0,0,1,.4-.87A1.67,1.67,0,0,1,124.29,377.93Zm-1.08,3.81a.77.77,0,0,0,.29.64,1.25,1.25,0,0,0,.8.23,1.19,1.19,0,0,0,.79-.24.81.81,0,0,0,.28-.66.8.8,0,0,0-.27-.59,2.73,2.73,0,0,0-.93-.5,2,2,0,0,0-.74.48A.93.93,0,0,0,123.21,381.74Zm1.07-3.35a1,1,0,0,0-.67.21.68.68,0,0,0-.24.55.78.78,0,0,0,.2.54,2.11,2.11,0,0,0,.75.45,1.89,1.89,0,0,0,.69-.44.82.82,0,0,0,.2-.55.67.67,0,0,0-.25-.55A1,1,0,0,0,124.28,378.39Z"/><path class="cls-4" d="M133.07,383v-2.44a1,1,0,0,0-.19-.67.74.74,0,0,0-.59-.22,1,1,0,0,0-.78.3,1.45,1.45,0,0,0-.25.94V383h-.57v-2.44a1,1,0,0,0-.19-.67.74.74,0,0,0-.6-.22.93.93,0,0,0-.78.32,1.73,1.73,0,0,0-.25,1v2h-.57v-3.75h.46l.09.51h0a1.11,1.11,0,0,1,.45-.43,1.37,1.37,0,0,1,.65-.15,1.11,1.11,0,0,1,1.15.64h0a1.2,1.2,0,0,1,.49-.46,1.5,1.5,0,0,1,.72-.17,1.27,1.27,0,0,1,1,.33,1.46,1.46,0,0,1,.32,1V383Z"/><path class="cls-4" d="M139.58,383v-2.44a1,1,0,0,0-.19-.67.74.74,0,0,0-.59-.22,1,1,0,0,0-.78.3,1.45,1.45,0,0,0-.25.94V383h-.57v-2.44a1,1,0,0,0-.19-.67.74.74,0,0,0-.6-.22.93.93,0,0,0-.78.32,1.72,1.72,0,0,0-.25,1v2h-.57v-3.75h.46l.09.51h0a1.11,1.11,0,0,1,.45-.43,1.37,1.37,0,0,1,.65-.15,1.11,1.11,0,0,1,1.15.64h0a1.19,1.19,0,0,1,.49-.46,1.5,1.5,0,0,1,.72-.17,1.27,1.27,0,0,1,1,.33,1.46,1.46,0,0,1,.32,1V383Z"/><path class="cls-4" d="M145.75,379l.33.34-1.2,1.21,1.2,1.2-.33.34-1.21-1.2-1.19,1.2-.34-.34,1.2-1.2-1.2-1.2.34-.35,1.21,1.21Z"/><path class="cls-4" d="M150.8,383h-.55v-3.56c0-.3,0-.58,0-.84l-.16.15-.81.67L149,379l1.32-1h.48Z"/><path class="cls-4" d="M152.76,380.86a3.53,3.53,0,0,1,.57-2.2,2,2,0,0,1,1.69-.73,2.26,2.26,0,0,1,.61.06v.49a2,2,0,0,0-.6-.08,1.52,1.52,0,0,0-1.23.5,2.56,2.56,0,0,0-.46,1.57h0a1.31,1.31,0,0,1,1.19-.59,1.39,1.39,0,0,1,1.06.41,1.53,1.53,0,0,1,.39,1.1,1.7,1.7,0,0,1-.43,1.23,1.51,1.51,0,0,1-1.15.45,1.48,1.48,0,0,1-1.23-.58A2.58,2.58,0,0,1,152.76,380.86Zm1.68,1.72a1,1,0,0,0,.75-.31,1.31,1.31,0,0,0,.27-.88,1.14,1.14,0,0,0-.25-.78.94.94,0,0,0-.74-.28,1.25,1.25,0,0,0-.56.13,1,1,0,0,0-.41.35.81.81,0,0,0-.15.46,1.57,1.57,0,0,0,.14.66,1.15,1.15,0,0,0,.39.48A1,1,0,0,0,154.44,382.58Z"/><path class="cls-4" d="M163.14,383v-2.44a1,1,0,0,0-.19-.67.74.74,0,0,0-.59-.22,1,1,0,0,0-.78.3,1.45,1.45,0,0,0-.25.94V383h-.57v-2.44a1,1,0,0,0-.19-.67.74.74,0,0,0-.6-.22.93.93,0,0,0-.78.32,1.73,1.73,0,0,0-.25,1v2h-.57v-3.75h.46l.09.51h0a1.11,1.11,0,0,1,.45-.43,1.37,1.37,0,0,1,.65-.15,1.11,1.11,0,0,1,1.15.64h0a1.2,1.2,0,0,1,.49-.46,1.5,1.5,0,0,1,.72-.17,1.27,1.27,0,0,1,1,.33,1.46,1.46,0,0,1,.32,1V383Z"/><path class="cls-4" d="M169.65,383v-2.44a1,1,0,0,0-.19-.67.74.74,0,0,0-.59-.22,1,1,0,0,0-.78.3,1.45,1.45,0,0,0-.25.94V383h-.57v-2.44a1,1,0,0,0-.19-.67.74.74,0,0,0-.6-.22.93.93,0,0,0-.78.32,1.72,1.72,0,0,0-.25,1v2h-.57v-3.75h.46l.09.51h0a1.11,1.11,0,0,1,.45-.43,1.37,1.37,0,0,1,.65-.15,1.11,1.11,0,0,1,1.15.64h0a1.19,1.19,0,0,1,.49-.46,1.5,1.5,0,0,1,.72-.17,1.27,1.27,0,0,1,1,.33,1.46,1.46,0,0,1,.32,1V383Z"/><path class="cls-4" d="M173,380.07v-.47h3.18v.47Zm0,1.4V381h3.18v.47Z"/><path class="cls-4" d="M182,380.13q0,2.93-2.27,2.93a2.3,2.3,0,0,1-.63-.07v-.49a2,2,0,0,0,.62.09,1.51,1.51,0,0,0,1.24-.51,2.57,2.57,0,0,0,.46-1.56h0a1.21,1.21,0,0,1-.5.43,1.59,1.59,0,0,1-.7.15,1.41,1.41,0,0,1-1.05-.4,1.51,1.51,0,0,1-.39-1.11,1.7,1.7,0,0,1,.44-1.23,1.52,1.52,0,0,1,1.15-.45,1.54,1.54,0,0,1,.89.26,1.66,1.66,0,0,1,.59.76A3.11,3.11,0,0,1,182,380.13Zm-1.68-1.72a.94.94,0,0,0-.75.31,1.31,1.31,0,0,0-.27.88,1.14,1.14,0,0,0,.25.77.94.94,0,0,0,.75.28,1.29,1.29,0,0,0,.57-.13,1,1,0,0,0,.41-.34.79.79,0,0,0,.15-.46,1.58,1.58,0,0,0-.14-.66,1.15,1.15,0,0,0-.39-.48A1,1,0,0,0,180.37,378.41Z"/><path class="cls-4" d="M183.4,383l2.07-4.47h-2.72V378h3.33v.45L184,383Z"/><path class="cls-4" d="M190.17,383.07a1.62,1.62,0,0,1-.67-.13,1.26,1.26,0,0,1-.51-.42h0a5,5,0,0,1,0,.62v1.54h-.57v-5.43h.46l.08.51h0a1.32,1.32,0,0,1,.51-.44,1.55,1.55,0,0,1,.67-.14,1.38,1.38,0,0,1,1.15.51,2.71,2.71,0,0,1,0,2.86A1.39,1.39,0,0,1,190.17,383.07Zm-.08-3.4a1,1,0,0,0-.83.32,1.64,1.64,0,0,0-.26,1v.13a1.87,1.87,0,0,0,.26,1.13,1,1,0,0,0,.84.34.88.88,0,0,0,.76-.39,1.87,1.87,0,0,0,.27-1.08,1.8,1.8,0,0,0-.27-1.08A.91.91,0,0,0,190.09,379.67Z"/><path class="cls-4" d="M193.62,381.08l-1.3-1.83H193l1,1.44,1-1.44h.64l-1.3,1.83,1.37,1.92H195l-1-1.52L192.89,383h-.64Z"/><line class="cls-5" x1="130.7" y1="230.12" x2="130.7" y2="335.07"/><path class="cls-6" d="M130.7,335.52h0m0-106.3h0"/><path class="cls-7" d="M153.22,279.53a22.68,22.68,0,1,0-22.68-22.68,22.68,22.68,0,0,0,22.68,22.68"/><line class="cls-3" x1="130.91" y1="256.85" x2="175.53" y2="256.85"/><polyline class="cls-3" points="134.38 260.07 130.91 256.85 134.38 253.63"/><polyline class="cls-3" points="172.07 253.63 175.53 256.85 172.07 260.07"/><line class="cls-3" x1="130.91" y1="310.85" x2="175.53" y2="310.85"/><polyline class="cls-3" points="134.38 314.07 130.91 310.85 134.38 307.63"/><polyline class="cls-3" points="172.07 307.63 175.53 310.85 172.07 314.07"/><path class="cls-4" d="M144.34,252.58h-.58v-5h2.79v.52h-2.21v1.83h2.07v.52h-2.07Z"/><path class="cls-4" d="M147.24,247.82a.38.38,0,0,1,.1-.29.36.36,0,0,1,.47,0,.37.37,0,0,1,.1.28.38.38,0,0,1-.1.29.35.35,0,0,1-.47,0A.38.38,0,0,1,147.24,247.82Zm.62,4.76h-.57v-3.75h.57Z"/><path class="cls-4" d="M151.62,252.58v-2.42a1,1,0,0,0-.21-.68.85.85,0,0,0-.65-.22,1.08,1.08,0,0,0-.86.32,1.6,1.6,0,0,0-.27,1v2h-.57v-3.75h.46l.09.51h0a1.16,1.16,0,0,1,.49-.43,1.58,1.58,0,0,1,.7-.15,1.42,1.42,0,0,1,1,.33,1.39,1.39,0,0,1,.34,1v2.44Z"/><path class="cls-4" d="M156.42,248.83v.36l-.69.08a1.18,1.18,0,0,1,.17.31,1.2,1.2,0,0,1,.07.44,1.11,1.11,0,0,1-.37.88,1.52,1.52,0,0,1-1,.33l-.31,0a.56.56,0,0,0-.36.48.24.24,0,0,0,.13.23.93.93,0,0,0,.43.07h.66a1.48,1.48,0,0,1,.94.26.89.89,0,0,1,.33.74,1.06,1.06,0,0,1-.5.95,2.67,2.67,0,0,1-1.46.33,2,2,0,0,1-1.13-.27.88.88,0,0,1-.4-.77.86.86,0,0,1,.22-.59,1.12,1.12,0,0,1,.62-.34.58.58,0,0,1-.24-.2.52.52,0,0,1-.1-.32.6.6,0,0,1,.11-.36,1.13,1.13,0,0,1,.34-.3,1,1,0,0,1-.47-.41,1.35,1.35,0,0,1,.19-1.6,1.51,1.51,0,0,1,1-.33,1.88,1.88,0,0,1,.53.07Zm-3,4.38a.51.51,0,0,0,.26.46,1.41,1.41,0,0,0,.74.16,2,2,0,0,0,1.06-.21.66.66,0,0,0,.34-.58.46.46,0,0,0-.19-.42,1.47,1.47,0,0,0-.71-.12h-.68a.9.9,0,0,0-.6.19A.66.66,0,0,0,153.43,253.21Zm.31-3.18a.77.77,0,0,0,.22.6.89.89,0,0,0,.62.2.72.72,0,0,0,.83-.81.74.74,0,0,0-.84-.84.83.83,0,0,0-.62.21A.86.86,0,0,0,153.74,250Z"/><path class="cls-4" d="M158.77,252.65a1.72,1.72,0,0,1-1.31-.51,2,2,0,0,1-.48-1.4,2.17,2.17,0,0,1,.45-1.44,1.48,1.48,0,0,1,1.2-.53,1.41,1.41,0,0,1,1.12.46,1.78,1.78,0,0,1,.41,1.22v.36h-2.58a1.48,1.48,0,0,0,.33,1,1.15,1.15,0,0,0,.89.34,3,3,0,0,0,1.2-.25v.51a3,3,0,0,1-.57.19A3.16,3.16,0,0,1,158.77,252.65Zm-.15-3.41a.93.93,0,0,0-.72.29,1.36,1.36,0,0,0-.32.81h2a1.25,1.25,0,0,0-.24-.82A.84.84,0,0,0,158.62,249.24Z"/><path class="cls-4" d="M162.83,248.76a2.22,2.22,0,0,1,.45,0l-.08.53a1.93,1.93,0,0,0-.41-.05,1,1,0,0,0-.78.37,1.34,1.34,0,0,0-.32.92v2h-.57v-3.75h.47l.06.69h0a1.65,1.65,0,0,1,.5-.56A1.14,1.14,0,0,1,162.83,248.76Z"/><path class="cls-4" d="M143.23,262.7a2.07,2.07,0,0,1-.46,1.43,1.63,1.63,0,0,1-1.28.51,1.69,1.69,0,0,1-.91-.24l-.29.4-.39-.27.32-.45a2.44,2.44,0,0,1,0-2.82,1.62,1.62,0,0,1,1.27-.51,1.65,1.65,0,0,1,.92.26l.29-.41.4.26-.33.45A2.07,2.07,0,0,1,143.23,262.7Zm-2.85,0a2,2,0,0,0,.18.93l1.59-2.21a1.09,1.09,0,0,0-.65-.18,1,1,0,0,0-.84.37A1.76,1.76,0,0,0,140.37,262.7Zm2.27,0a2,2,0,0,0-.17-.9l-1.59,2.2a1.05,1.05,0,0,0,.63.17,1,1,0,0,0,.85-.37A1.76,1.76,0,0,0,142.64,262.7Z"/><path class="cls-4" d="M147.88,264.58h-.55V261c0-.3,0-.58,0-.84l-.16.15-.81.67-.3-.39,1.32-1h.48Z"/><path class="cls-4" d="M149.84,262.44a3.53,3.53,0,0,1,.57-2.2,2,2,0,0,1,1.69-.73,2.28,2.28,0,0,1,.61.06v.49a2,2,0,0,0-.6-.08,1.52,1.52,0,0,0-1.23.5,2.56,2.56,0,0,0-.46,1.57h0a1.31,1.31,0,0,1,1.19-.59,1.39,1.39,0,0,1,1.06.41,1.53,1.53,0,0,1,.39,1.1,1.7,1.7,0,0,1-.43,1.23,1.52,1.52,0,0,1-1.15.45,1.48,1.48,0,0,1-1.23-.58A2.58,2.58,0,0,1,149.84,262.44Zm1.68,1.72a1,1,0,0,0,.75-.31,1.3,1.3,0,0,0,.27-.88,1.14,1.14,0,0,0-.25-.78.94.94,0,0,0-.75-.28,1.24,1.24,0,0,0-.56.13,1,1,0,0,0-.41.35.81.81,0,0,0-.15.46,1.57,1.57,0,0,0,.14.66,1.14,1.14,0,0,0,.39.48A1,1,0,0,0,151.52,264.16Z"/><path class="cls-4" d="M160.64,264.58v-2.44a1,1,0,0,0-.19-.67.74.74,0,0,0-.59-.22,1,1,0,0,0-.78.3,1.45,1.45,0,0,0-.25.94v2.09h-.57v-2.44a1,1,0,0,0-.19-.67.74.74,0,0,0-.6-.22.93.93,0,0,0-.78.32,1.73,1.73,0,0,0-.25,1v2h-.57v-3.75h.46l.09.51h0a1.11,1.11,0,0,1,.45-.43,1.37,1.37,0,0,1,.65-.15,1.11,1.11,0,0,1,1.15.64h0a1.2,1.2,0,0,1,.49-.46,1.5,1.5,0,0,1,.72-.17,1.27,1.27,0,0,1,1,.33,1.46,1.46,0,0,1,.32,1v2.44Z"/><path class="cls-4" d="M167.15,264.58v-2.44a1,1,0,0,0-.19-.67.74.74,0,0,0-.59-.22,1,1,0,0,0-.78.3,1.45,1.45,0,0,0-.25.94v2.09h-.57v-2.44a1,1,0,0,0-.19-.67.74.74,0,0,0-.6-.22.93.93,0,0,0-.78.32,1.72,1.72,0,0,0-.25,1v2h-.57v-3.75h.46l.09.51h0a1.11,1.11,0,0,1,.45-.43,1.37,1.37,0,0,1,.65-.15,1.11,1.11,0,0,1,1.15.64h0a1.19,1.19,0,0,1,.49-.46,1.5,1.5,0,0,1,.72-.17,1.27,1.27,0,0,1,1,.33,1.46,1.46,0,0,1,.32,1v2.44Z"/><path class="cls-4" d="M148.17,303.71q0,2.93-2.27,2.93a2.3,2.3,0,0,1-.63-.07v-.49a2,2,0,0,0,.62.09,1.52,1.52,0,0,0,1.24-.51,2.56,2.56,0,0,0,.46-1.56h0a1.22,1.22,0,0,1-.5.43,1.6,1.6,0,0,1-.7.15,1.41,1.41,0,0,1-1.05-.4,1.51,1.51,0,0,1-.39-1.11,1.69,1.69,0,0,1,.44-1.23,1.52,1.52,0,0,1,1.15-.45,1.54,1.54,0,0,1,.89.26,1.66,1.66,0,0,1,.59.76A3.11,3.11,0,0,1,148.17,303.71ZM146.49,302a.94.94,0,0,0-.76.31,1.31,1.31,0,0,0-.27.88,1.14,1.14,0,0,0,.25.77.94.94,0,0,0,.75.28,1.29,1.29,0,0,0,.57-.13,1,1,0,0,0,.41-.34.8.8,0,0,0,.15-.46,1.56,1.56,0,0,0-.14-.66,1.14,1.14,0,0,0-.39-.48A1,1,0,0,0,146.49,302Z"/><path class="cls-4" d="M149.52,306.58l2.07-4.47h-2.72v-.52h3.33V302l-2,4.54Z"/><path class="cls-4" d="M156.29,306.64a1.62,1.62,0,0,1-.67-.13,1.25,1.25,0,0,1-.51-.42h0a5,5,0,0,1,0,.62v1.54h-.57v-5.43H155l.08.51h0a1.32,1.32,0,0,1,.51-.44,1.55,1.55,0,0,1,.67-.14,1.39,1.39,0,0,1,1.15.51,2.72,2.72,0,0,1,0,2.86A1.39,1.39,0,0,1,156.29,306.64Zm-.08-3.4a1,1,0,0,0-.83.32,1.62,1.62,0,0,0-.26,1v.13a1.87,1.87,0,0,0,.26,1.13,1,1,0,0,0,.84.34.88.88,0,0,0,.76-.39,1.87,1.87,0,0,0,.27-1.08,1.8,1.8,0,0,0-.27-1.08A.91.91,0,0,0,156.21,303.24Z"/><path class="cls-4" d="M159.74,304.66l-1.3-1.83h.65l1,1.44,1-1.44h.64l-1.3,1.83,1.37,1.92h-.64l-1-1.52L159,306.58h-.64Z"/><line class="cls-5" x1="175.75" y1="230.12" x2="175.75" y2="335.07"/><path class="cls-6" d="M175.75,335.52h0m0-106.3h0"/></g></svg>