<svg xmlns="http://www.w3.org/2000/svg" xmlns:xlink="http://www.w3.org/1999/xlink" viewBox="0 0 133.56 140.32"><defs><style>.cls-1,.cls-3,.cls-4,.cls-6,.cls-7,.cls-81,.cls-83,.cls-87,.cls-89{fill:none;}.cls-2{fill:#fff;}.cls-3,.cls-6,.cls-7{stroke:#fff;}.cls-3,.cls-4,.cls-6,.cls-7,.cls-81,.cls-83{stroke-miterlimit:10;}.cls-3{stroke-width:3.82px;}.cls-4{stroke:#8ba7d6;stroke-width:7.63px;}.cls-5{fill:#8ba7d6;}.cls-6{stroke-width:2.86px;}.cls-7{stroke-width:10.49px;}.cls-8{fill:#cedcee;}.cls-9{fill:#cddbee;}.cls-10{fill:#ccdbed;}.cls-11{fill:#cbd9ec;}.cls-12{fill:#cad8ec;}.cls-13{fill:#c9d8ed;}.cls-14{fill:#c8d7eb;}.cls-15{fill:#c7d6eb;}.cls-16{fill:#c6d5ea;}.cls-17{fill:#c5d4e9;}.cls-18{fill:#c4d4e9;}.cls-19{fill:#c1d2e9;}.cls-20{fill:#c1d2e8;}.cls-21{fill:#c0d1e8;}.cls-22{fill:#bfd1e9;}.cls-23{fill:#bed0e9;}.cls-24{fill:#becfe8;}.cls-25{fill:#bdd0e8;}.cls-26{fill:#bccee8;}.cls-27{fill:#bbcde7;}.cls-28{fill:#b9cce7;}.cls-29{fill:#b8cbe7;}.cls-30{fill:#b8cbe6;}.cls-31{fill:#b6cae6;}.cls-32{fill:#b5c8e6;}.cls-33{fill:#b5c9e5;}.cls-34{fill:#b4c8e4;}.cls-35{fill:#b4c7e4;}.cls-36{fill:#b3c7e5;}.cls-37{fill:#b2c6e4;}.cls-38{fill:#b0c4e3;}.cls-39{fill:#afc5e3;}.cls-40{fill:#afc4e2;}.cls-41{fill:#aec3e2;}.cls-42{fill:#adc3e3;}.cls-43{fill:#acc2e2;}.cls-44{fill:#acc1e1;}.cls-45{fill:#abc0e1;}.cls-46{fill:#aac0e1;}.cls-47{fill:#a9bee0;}.cls-48{fill:#a8bde0;}.cls-49{fill:#a6bde0;}.cls-50{fill:#a5bcdf;}.cls-51{fill:#a5bbdf;}.cls-52{fill:#a4bade;}.cls-53{fill:#a3badf;}.cls-54{fill:#a2bade;}.cls-55{fill:#a2b9de;}.cls-56{fill:#a1b8de;}.cls-57{fill:#a0b8dd;}.cls-58{fill:#9fb8dd;}.cls-59{fill:#9eb6dd;}.cls-60{fill:#9db6dd;}.cls-61{fill:#9cb5dc;}.cls-62{fill:#9bb4dc;}.cls-63{fill:#9ab4dc;}.cls-64{fill:#99b3db;}.cls-65{fill:#99b2db;}.cls-66{fill:#98b1db;}.cls-67{fill:#97b1db;}.cls-68{fill:#96b0da;}.cls-69{fill:#95afda;}.cls-70{fill:#94afda;}.cls-71{fill:#92adda;}.cls-72{fill:#91add9;}.cls-73{fill:#8fabd8;}.cls-74{fill:#8eaad8;}.cls-75{fill:#8da9d8;}.cls-76{fill:#8ca9d6;}.cls-77{opacity:0.5;}.cls-78{clip-path:url(#clip-path);}.cls-79{clip-path:url(#clip-path-2);}.cls-80{fill:#e5e6e5;}.cls-81,.cls-83,.cls-87,.cls-89{stroke:#20201e;}.cls-81,.cls-87{stroke-width:0.95px;}.cls-82{fill:#20201e;}.cls-83,.cls-89{stroke-width:0.48px;}.cls-84{fill:#e1e2e2;}.cls-85{clip-path:url(#clip-path-3);}.cls-86{clip-path:url(#clip-path-4);}.cls-87,.cls-89{stroke-linecap:round;}.cls-88{fill:#ebebeb;}</style><clipPath id="clip-path"><rect id="SVGID" class="cls-1" x="11.24" y="3.17" width="107.38" height="117.76"/></clipPath><clipPath id="clip-path-2"><rect id="SVGID-2" data-name="SVGID" class="cls-1" x="11.24" y="3.17" width="107.38" height="117.76"/></clipPath><clipPath id="clip-path-3"><rect id="SVGID-3" data-name="SVGID" class="cls-1" x="43.48" y="2.13" width="88.2" height="132.06"/></clipPath><clipPath id="clip-path-4"><rect id="SVGID-4" data-name="SVGID" class="cls-1" x="43.48" y="2.13" width="88.2" height="132.06"/></clipPath></defs><title>smartphone_shake</title><g id="Layer_6" data-name="Layer 6"><path class="cls-2" d="M120.36,92.34c1.2-3.5-.87-9.32-.73-16.47.14-7.48-.2-13.25-.66-15s-5.82-7.3-11-13.87-6.1-10.07-8.6-12.91S93,25,92.92,23.26,92.5,20,90.21,19.83c-1.05-.07-2.32.85-3.39,2.34l-1-13.87a6.92,6.92,0,0,0-7.41-6.38l-33,2.37A6.91,6.91,0,0,0,39,11.66l.33,4.56c-3.86-2-8-1.89-9.76,1.35-1.6,2.85,2,6.5,4.32,8.73a38.16,38.16,0,0,0,6.49,4.42l.71,9.87C33.11,44.23,31.11,49.75,30.91,52c-.24,2.77,1.39,4.63,2.55,5.88a14.79,14.79,0,0,0-1.2,2.26c-1.44,3.4-.75,5.4,0,7.81a19,19,0,0,0,5.18,8l.12.09a7.79,7.79,0,0,0-2.13,2.13c-3.4,4.82.87,8.42,2.94,9.94a13.09,13.09,0,0,0,3.08,1.55A66.72,66.72,0,0,0,49.59,98c4,3.18,13.4,11.9,21.23,18.92,10.15,9.1,16.34,8.85,16.34,8.85l12.91,11.94,26.35-22.64s-2.54-5.31-4.87-11.42c-1-2.5-1.45-10.56-1.18-11.36M41.41,45.58l-.31-.28,0-4.4Zm47.47,5.33-.6-8.34a11.73,11.73,0,0,0,2.38,3.14,38.83,38.83,0,0,1,5,8.58c-1.87-.82-4.24-1.95-6.79-3.38"/><path class="cls-3" d="M120.36,92.34c1.2-3.5-.87-9.32-.73-16.47.14-7.48-.2-13.25-.66-15s-5.82-7.3-11-13.87-6.1-10.07-8.6-12.91S93,25,92.92,23.26,92.5,20,90.21,19.83c-1.05-.07-2.32.85-3.39,2.34l-1-13.87a6.92,6.92,0,0,0-7.41-6.38l-33,2.37A6.91,6.91,0,0,0,39,11.66l.33,4.56c-3.86-2-8-1.89-9.76,1.35-1.6,2.85,2,6.5,4.32,8.73a38.16,38.16,0,0,0,6.49,4.42l.71,9.87C33.11,44.23,31.11,49.75,30.91,52c-.24,2.77,1.39,4.63,2.55,5.88a14.79,14.79,0,0,0-1.2,2.26c-1.44,3.4-.75,5.4,0,7.81a19,19,0,0,0,5.18,8l.12.09a7.79,7.79,0,0,0-2.13,2.13c-3.4,4.82.87,8.42,2.94,9.94a13.09,13.09,0,0,0,3.08,1.55A66.72,66.72,0,0,0,49.59,98c4,3.18,13.4,11.9,21.23,18.92,10.15,9.1,16.34,8.85,16.34,8.85l12.91,11.94,26.35-22.64s-2.54-5.31-4.87-11.42C120.58,101.19,120.08,93.14,120.36,92.34ZM41.41,45.58l-.31-.28,0-4.4Zm47.47,5.33-.6-8.34a11.73,11.73,0,0,0,2.38,3.14,38.83,38.83,0,0,1,5,8.58C93.8,53.47,91.43,52.35,88.88,50.91Z"/><path class="cls-4" d="M10.27,47.46a71.18,71.18,0,0,1,116.2-8"/><polygon class="cls-5" points="133.56 31.95 117.7 44.78 132.04 46.29 133.56 31.95"/><polygon class="cls-6" points="2.22 41.01 19.68 51.54 5.69 55.01 2.22 41.01"/><polygon class="cls-5" points="2.22 41.01 19.68 51.54 5.69 55.01 2.22 41.01"/><path class="cls-7" d="M10.27,47.46a71.18,71.18,0,0,1,116.2-8"/><path class="cls-4" d="M10.27,47.46a71.18,71.18,0,0,1,116.2-8"/><polygon class="cls-5" points="2.22 41.01 19.68 51.54 5.69 55.01 2.22 41.01"/><polygon class="cls-5" points="133.56 31.95 117.7 44.78 132.04 46.29 133.56 31.95"/><path class="cls-8" d="M34.07,28Q31.44,29.75,29,31.72L24.2,25.77q2.73-2.2,5.67-4.13Z"/><path class="cls-9" d="M33.81,28.19q-2.62,1.75-5.07,3.73L23.93,26q2.72-2.21,5.65-4.16Z"/><path class="cls-10" d="M33.55,28.36q-2.61,1.76-5.05,3.76l-4.83-5.9Q26.37,24,29.29,22Z"/><path class="cls-11" d="M33.29,28.54q-2.6,1.77-5,3.78l-4.87-5.88Q26.09,24.2,29,22.23Z"/><path class="cls-12" d="M33,28.72q-2.6,1.78-5,3.8l-4.89-5.85q2.69-2.25,5.59-4.24Z"/><path class="cls-13" d="M32.77,28.9q-2.59,1.79-5,3.83l-4.91-5.83c1.78-1.51,3.65-2.93,5.57-4.26Z"/><path class="cls-14" d="M32.51,29.08q-2.58,1.81-5,3.85l-4.95-5.81q2.67-2.27,5.55-4.29Z"/><path class="cls-15" d="M32.25,29.26q-2.57,1.82-5,3.87l-5-5.79Q25,25.06,27.85,23Z"/><path class="cls-15" d="M32,29.44q-2.56,1.83-4.95,3.9l-5-5.76q2.65-2.3,5.51-4.34Z"/><path class="cls-16" d="M31.74,29.62q-2.55,1.84-4.93,3.92l-5-5.74q2.64-2.31,5.49-4.37Z"/><path class="cls-17" d="M31.48,29.81q-2.55,1.85-4.91,3.94L21.52,28q2.63-2.33,5.47-4.39Z"/><path class="cls-18" d="M31.23,30q-2.54,1.87-4.89,4l-5.08-5.69q2.62-2.34,5.45-4.42Z"/><path class="cls-19" d="M31,30.18q-2.53,1.88-4.87,4L21,28.5q2.61-2.35,5.43-4.45Z"/><path class="cls-20" d="M30.73,30.38q-2.52,1.89-4.85,4l-5.14-5.64q2.6-2.36,5.4-4.47Z"/><path class="cls-21" d="M30.47,30.56q-2.51,1.9-4.83,4L20.48,29q2.58-2.37,5.38-4.5Z"/><path class="cls-22" d="M30.22,30.75q-2.5,1.91-4.81,4.06l-5.19-5.6q2.57-2.39,5.36-4.52Z"/><path class="cls-23" d="M30,30.94Q27.48,32.87,25.18,35L20,29.45q2.56-2.4,5.34-4.55Z"/><path class="cls-24" d="M29.73,31.14q-2.48,1.94-4.77,4.1l-5.24-5.55q2.55-2.41,5.32-4.57Z"/><path class="cls-25" d="M29.48,31.33Q27,33.28,24.72,35.45l-5.27-5.52q2.54-2.42,5.3-4.6Z"/><path class="cls-26" d="M29.23,31.52q-2.46,2-4.73,4.15l-5.29-5.5q2.53-2.43,5.28-4.62Z"/><path class="cls-27" d="M29,31.72q-2.45,2-4.72,4.17L19,30.42Q21.46,28,24.2,25.77Z"/><path class="cls-27" d="M28.74,31.92q-2.45,2-4.7,4.19L18.7,30.66q2.5-2.46,5.23-4.67Z"/><path class="cls-28" d="M28.5,32.12q-2.43,2-4.68,4.21l-5.37-5.42q2.49-2.47,5.21-4.69Z"/><path class="cls-29" d="M28.25,32.32q-2.43,2-4.66,4.24l-5.4-5.39q2.48-2.48,5.19-4.72Z"/><path class="cls-30" d="M28,32.52q-2.42,2-4.64,4.26L18,31.41q2.47-2.49,5.17-4.74Z"/><path class="cls-31" d="M27.77,32.72q-2.41,2-4.62,4.28l-5.45-5.34q2.46-2.5,5.14-4.77Z"/><path class="cls-32" d="M27.53,32.93q-2.4,2-4.6,4.3l-5.47-5.32q2.44-2.52,5.12-4.79Z"/><path class="cls-33" d="M27.29,33.13q-2.39,2.05-4.58,4.32l-5.5-5.29q2.44-2.53,5.1-4.82Z"/><path class="cls-34" d="M27.05,33.34q-2.38,2.06-4.55,4.35L17,32.41q2.42-2.54,5.08-4.84Z"/><path class="cls-35" d="M26.81,33.54q-2.37,2.07-4.53,4.37l-5.55-5.24q2.41-2.55,5.05-4.86Z"/><path class="cls-36" d="M26.58,33.75q-2.36,2.09-4.51,4.39l-5.57-5.22q2.4-2.56,5-4.89Z"/><path class="cls-37" d="M26.34,34Q24,36.05,21.85,38.37l-5.6-5.19q2.38-2.57,5-4.91Z"/><path class="cls-38" d="M26.11,34.17q-2.34,2.11-4.47,4.43L16,33.44q2.37-2.58,5-4.94Z"/><path class="cls-39" d="M25.87,34.38q-2.33,2.12-4.45,4.45L15.78,33.7q2.36-2.59,5-5Z"/><path class="cls-40" d="M25.64,34.59q-2.32,2.13-4.43,4.47L15.55,34q2.35-2.61,4.93-5Z"/><path class="cls-41" d="M25.41,34.81Q23.1,36.95,21,39.3l-5.69-5.08q2.34-2.62,4.91-5Z"/><path class="cls-42" d="M25.18,35q-2.3,2.15-4.39,4.51l-5.71-5.06q2.32-2.63,4.89-5Z"/><path class="cls-43" d="M25,35.24q-2.29,2.16-4.37,4.53l-5.74-5q2.31-2.64,4.87-5.05Z"/><path class="cls-44" d="M24.72,35.45Q22.45,37.63,20.38,40l-5.76-5q2.3-2.65,4.84-5.08Z"/><path class="cls-45" d="M24.5,35.67q-2.27,2.18-4.32,4.58l-5.79-5q2.29-2.66,4.82-5.1Z"/><path class="cls-46" d="M24.27,35.89Q22,38.09,20,40.49l-5.81-4.95q2.28-2.67,4.79-5.12Z"/><path class="cls-47" d="M24,36.11q-2.25,2.21-4.28,4.62l-5.83-4.92q2.26-2.68,4.77-5.14Z"/><path class="cls-48" d="M23.82,36.33Q21.58,38.55,19.56,41l-5.85-4.89q2.25-2.69,4.74-5.16Z"/><path class="cls-49" d="M23.6,36.55q-2.23,2.23-4.24,4.66l-5.88-4.87q2.24-2.7,4.72-5.19Z"/><path class="cls-49" d="M23.38,36.78Q21.16,39,19.16,41.45l-5.9-4.84Q15.48,33.9,18,31.41Z"/><path class="cls-50" d="M23.15,37Q20.95,39.25,19,41.7L13,36.89q2.21-2.72,4.67-5.23Z"/><path class="cls-51" d="M22.93,37.23q-2.19,2.26-4.17,4.72l-5.94-4.78q2.2-2.73,4.65-5.25Z"/><path class="cls-52" d="M22.71,37.45q-2.18,2.27-4.15,4.74l-6-4.75q2.18-2.74,4.62-5.27Z"/><path class="cls-53" d="M22.5,37.68Q20.32,40,18.37,42.44l-6-4.73Q14.55,35,17,32.41Z"/><path class="cls-54" d="M22.28,37.91q-2.16,2.29-4.1,4.78l-6-4.7q2.16-2.76,4.57-5.32Z"/><path class="cls-55" d="M22.06,38.14c-1.43,1.53-2.8,3.13-4.08,4.79l-6-4.67q2.14-2.77,4.55-5.34Z"/><path class="cls-56" d="M21.85,38.37q-2.14,2.31-4.06,4.81l-6.05-4.64q2.13-2.78,4.52-5.36Z"/><path class="cls-57" d="M21.64,38.6q-2.13,2.32-4,4.83l-6.08-4.61Q13.64,36,16,33.44Z"/><path class="cls-58" d="M21.42,38.83q-2.12,2.33-4,4.85l-6.1-4.59q2.11-2.8,4.47-5.4Z"/><path class="cls-59" d="M21.21,39.07q-2.11,2.34-4,4.87L11.1,39.38q2.1-2.81,4.45-5.42Z"/><path class="cls-60" d="M21,39.3q-2.1,2.35-4,4.89l-6.14-4.53q2.08-2.82,4.42-5.44Z"/><path class="cls-61" d="M20.79,39.54q-2.09,2.36-3.95,4.91l-6.16-4.5q2.07-2.83,4.4-5.46Z"/><path class="cls-62" d="M20.58,39.77q-2.07,2.37-3.92,4.93l-6.18-4.47q2.05-2.84,4.37-5.49Z"/><path class="cls-63" d="M20.38,40q-2.06,2.38-3.9,4.94l-6.2-4.44q2-2.85,4.34-5.5Z"/><path class="cls-64" d="M20.17,40.25q-2.05,2.39-3.88,5L10.07,40.8q2-2.86,4.32-5.52Z"/><path class="cls-65" d="M20,40.49q-2,2.4-3.85,5L9.87,41.08c1.34-1.91,2.77-3.77,4.29-5.54Z"/><path class="cls-66" d="M19.76,40.73q-2,2.41-3.83,5L9.67,41.37q2-2.88,4.26-5.56Z"/><path class="cls-67" d="M19.56,41q-2,2.42-3.81,5L9.47,41.66q2-2.89,4.24-5.58Z"/><path class="cls-68" d="M19.36,41.21q-2,2.43-3.78,5l-6.31-4.3q2-2.89,4.21-5.6Z"/><path class="cls-69" d="M19.16,41.45q-2,2.43-3.76,5.05L9.07,42.24q2-2.9,4.19-5.62Z"/><path class="cls-70" d="M19,41.7q-2,2.45-3.74,5.07L8.88,42.53q1.95-2.91,4.16-5.64Z"/><path class="cls-71" d="M18.76,41.94Q16.79,44.4,15,47L8.68,42.82q1.93-2.93,4.13-5.66Z"/><path class="cls-72" d="M18.57,42.19q-2,2.46-3.69,5.11L8.49,43.11q1.92-2.93,4.11-5.68Z"/><path class="cls-72" d="M18.37,42.44q-2,2.47-3.67,5.12L8.3,43.41q1.9-2.94,4.08-5.7Z"/><path class="cls-73" d="M18.18,42.68q-1.94,2.48-3.65,5.14L8.11,43.7q1.89-3,4.05-5.72Z"/><path class="cls-73" d="M18,42.93q-1.93,2.49-3.62,5.16L7.92,44q1.88-3,4-5.74Z"/><path class="cls-73" d="M17.79,43.18q-1.92,2.5-3.6,5.17L7.73,44.29q1.86-3,4-5.75Z"/><path class="cls-74" d="M17.6,43.43q-1.9,2.51-3.57,5.19l-6.48-4q1.85-3,4-5.77Z"/><path class="cls-75" d="M17.41,43.68q-1.89,2.52-3.55,5.21l-6.5-4q1.84-3,3.94-5.79Z"/><path class="cls-76" d="M17.22,43.94q-1.88,2.53-3.52,5.22l-6.51-4q1.82-3,3.92-5.81Z"/><path class="cls-5" d="M17,44.19q-1.87,2.54-3.5,5.24L7,45.49q1.81-3,3.89-5.83Z"/><path class="cls-8" d="M103.49,16.58q3.16,1.52,6.17,3.32l-3.92,6.55q-2.7-1.62-5.55-3Z"/><path class="cls-9" d="M103.81,16.74Q107,18.27,110,20.09L106,26.61q-2.7-1.63-5.53-3Z"/><path class="cls-10" d="M104.12,16.89q3.15,1.54,6.14,3.38l-4,6.51q-2.69-1.65-5.52-3Z"/><path class="cls-11" d="M104.44,17c2.09,1,4.14,2.17,6.12,3.41l-4,6.49c-1.78-1.11-3.63-2.13-5.51-3.06Z"/><path class="cls-12" d="M104.75,17.2c2.09,1.05,4.13,2.19,6.11,3.43l-4,6.48q-2.67-1.68-5.49-3.09Z"/><path class="cls-13" d="M105.06,17.36q3.13,1.59,6.09,3.46l-4.07,6.46q-2.67-1.68-5.48-3.11Z"/><path class="cls-14" d="M105.38,17.52q3.12,1.6,6.07,3.49l-4.1,6.44c-1.77-1.13-3.6-2.18-5.47-3.14Z"/><path class="cls-15" d="M105.69,17.68q3.11,1.62,6.06,3.52l-4.13,6.42q-2.65-1.71-5.45-3.17Z"/><path class="cls-15" d="M106,17.84c2.07,1.09,4.08,2.27,6,3.55l-4.16,6.4c-1.76-1.15-3.57-2.22-5.44-3.19Z"/><path class="cls-16" d="M106.31,18q3.1,1.64,6,3.57L108.15,28c-1.76-1.15-3.57-2.23-5.42-3.21Z"/><path class="cls-17" d="M106.62,18.17q3.09,1.66,6,3.6l-4.22,6.36c-1.75-1.16-3.56-2.24-5.41-3.24Z"/><path class="cls-18" d="M106.93,18.34Q110,20,112.92,22l-4.25,6.34c-1.74-1.17-3.55-2.26-5.39-3.26Z"/><path class="cls-19" d="M107.23,18.5q3.07,1.69,6,3.66l-4.28,6.32c-1.74-1.18-3.54-2.28-5.38-3.29Z"/><path class="cls-20" d="M107.54,18.68c2,1.13,4,2.37,6,3.68l-4.31,6.3c-1.74-1.18-3.52-2.3-5.36-3.31Z"/><path class="cls-21" d="M107.85,18.84q3.05,1.72,5.94,3.71l-4.33,6.28c-1.73-1.19-3.51-2.31-5.35-3.34Z"/><path class="cls-22" d="M108.15,19q3,1.73,5.93,3.74L109.72,29q-2.59-1.8-5.33-3.36Z"/><path class="cls-23" d="M108.46,19.19q3,1.74,5.91,3.77L110,29.2q-2.58-1.81-5.32-3.39Z"/><path class="cls-24" d="M108.75,19.37c2,1.18,4,2.44,5.89,3.79l-4.42,6.21q-2.57-1.83-5.3-3.41Z"/><path class="cls-25" d="M109.06,19.54c2,1.19,4,2.46,5.87,3.82l-4.45,6.2c-1.71-1.23-3.47-2.37-5.28-3.44Z"/><path class="cls-26" d="M109.36,19.72q3,1.79,5.86,3.85l-4.48,6.18c-1.7-1.23-3.46-2.38-5.27-3.46Z"/><path class="cls-27" d="M109.66,19.9q3,1.8,5.84,3.87L111,29.93c-1.69-1.24-3.45-2.4-5.25-3.48Z"/><path class="cls-27" d="M110,20.08q3,1.81,5.82,3.9l-4.54,6.14q-2.53-1.87-5.24-3.51Z"/><path class="cls-28" d="M110.26,20.26q3,1.83,5.8,3.93l-4.56,6.11q-2.53-1.88-5.22-3.53Z"/><path class="cls-29" d="M110.56,20.45q3,1.84,5.79,4l-4.59,6.09q-2.52-1.9-5.2-3.55Z"/><path class="cls-30" d="M110.86,20.63q3,1.85,5.77,4L112,30.68q-2.51-1.91-5.19-3.58Z"/><path class="cls-31" d="M111.16,20.82q3,1.87,5.75,4l-4.65,6.05q-2.5-1.92-5.17-3.6Z"/><path class="cls-32" d="M111.45,21q3,1.88,5.73,4l-4.68,6q-2.49-1.93-5.15-3.63Z"/><path class="cls-33" d="M111.75,21.2q2.95,1.9,5.71,4.06l-4.71,6q-2.48-1.94-5.13-3.65Z"/><path class="cls-34" d="M112,21.39q2.94,1.91,5.69,4.09l-4.73,6q-2.47-2-5.12-3.67Z"/><path class="cls-35" d="M112.33,21.58q2.93,1.92,5.67,4.11l-4.76,6q-2.46-2-5.1-3.69Z"/><path class="cls-36" d="M112.63,21.77q2.92,1.93,5.65,4.14l-4.79,5.94q-2.45-2-5.08-3.72Z"/><path class="cls-37" d="M112.92,22q2.91,2,5.63,4.17L113.74,32q-2.44-2-5.06-3.75Z"/><path class="cls-38" d="M113.21,22.16q2.9,2,5.62,4.19L114,32.25q-2.44-2-5-3.77Z"/><path class="cls-39" d="M113.5,22.36q2.89,2,5.6,4.22l-4.87,5.87q-2.43-2-5-3.79Z"/><path class="cls-40" d="M113.79,22.56q2.89,2,5.58,4.24l-4.9,5.85q-2.41-2-5-3.81Z"/><path class="cls-41" d="M114.08,22.75q2.88,2,5.56,4.27l-4.93,5.83q-2.4-2-5-3.84Z"/><path class="cls-42" d="M114.36,23q2.87,2,5.54,4.3l-5,5.8q-2.39-2-5-3.86Z"/><path class="cls-43" d="M114.65,23.16q2.86,2,5.52,4.32l-5,5.78q-2.38-2.06-5-3.88Z"/><path class="cls-44" d="M114.93,23.36q2.85,2,5.5,4.35l-5,5.76q-2.38-2.07-4.94-3.9Z"/><path class="cls-45" d="M115.22,23.57q2.84,2.06,5.48,4.37l-5,5.73q-2.36-2.08-4.92-3.93Z"/><path class="cls-46" d="M115.5,23.77q2.83,2.07,5.46,4.4l-5.06,5.71q-2.36-2.09-4.9-4Z"/><path class="cls-47" d="M115.79,24q2.82,2.09,5.44,4.43l-5.09,5.69q-2.34-2.1-4.88-4Z"/><path class="cls-48" d="M116.07,24.19q2.81,2.1,5.42,4.45l-5.12,5.66q-2.33-2.11-4.86-4Z"/><path class="cls-49" d="M116.35,24.4q2.8,2.11,5.4,4.47l-5.14,5.64q-2.33-2.12-4.85-4Z"/><path class="cls-49" d="M116.63,24.61q2.79,2.12,5.37,4.5l-5.17,5.61q-2.31-2.13-4.83-4Z"/><path class="cls-50" d="M116.91,24.82q2.78,2.14,5.35,4.53l-5.19,5.59q-2.31-2.14-4.81-4.07Z"/><path class="cls-51" d="M117.18,25q2.77,2.15,5.33,4.55l-5.22,5.56Q115,33,112.51,31.07Z"/><path class="cls-52" d="M117.46,25.26q2.76,2.16,5.31,4.58l-5.25,5.54q-2.28-2.16-4.77-4.11Z"/><path class="cls-53" d="M117.73,25.47c1.83,1.45,3.6,3,5.29,4.6l-5.27,5.51q-2.28-2.18-4.75-4.13Z"/><path class="cls-54" d="M118,25.69q2.74,2.19,5.27,4.63L118,35.81q-2.27-2.19-4.73-4.16Z"/><path class="cls-55" d="M118.28,25.91q2.73,2.2,5.25,4.65L118.2,36q-2.26-2.2-4.71-4.18Z"/><path class="cls-56" d="M118.56,26.13q2.72,2.21,5.23,4.68l-5.35,5.44Q116.18,34,113.74,32Z"/><path class="cls-57" d="M118.83,26.35q2.71,2.23,5.21,4.7l-5.38,5.42q-2.24-2.22-4.67-4.22Z"/><path class="cls-58" d="M119.1,26.58q2.7,2.24,5.18,4.73l-5.4,5.39q-2.22-2.23-4.65-4.24Z"/><path class="cls-59" d="M119.37,26.8q2.69,2.25,5.16,4.75l-5.43,5.36q-2.21-2.24-4.63-4.27Z"/><path class="cls-60" d="M119.63,27q2.68,2.27,5.14,4.78l-5.45,5.34q-2.2-2.25-4.61-4.29Z"/><path class="cls-61" d="M119.9,27.25q2.67,2.28,5.11,4.8l-5.48,5.31q-2.19-2.26-4.59-4.31Z"/><path class="cls-62" d="M120.17,27.48c1.77,1.53,3.47,3.13,5.09,4.82l-5.5,5.29q-2.18-2.27-4.57-4.33Z"/><path class="cls-63" d="M120.43,27.71c1.77,1.53,3.45,3.16,5.07,4.85L120,37.82q-2.17-2.28-4.55-4.35Z"/><path class="cls-64" d="M120.7,27.94q2.63,2.32,5,4.87L120.19,38q-2.16-2.29-4.53-4.37Z"/><path class="cls-65" d="M121,28.17q2.62,2.33,5,4.89l-5.58,5.21q-2.15-2.3-4.51-4.39Z"/><path class="cls-66" d="M121.22,28.41q2.61,2.34,5,4.92l-5.6,5.18q-2.14-2.31-4.49-4.41Z"/><path class="cls-67" d="M121.48,28.64q2.6,2.35,5,4.94l-5.63,5.15c-1.41-1.55-2.91-3-4.46-4.43Z"/><path class="cls-68" d="M121.75,28.88q2.59,2.37,4.95,5L121,39q-2.12-2.33-4.44-4.46Z"/><path class="cls-69" d="M122,29.12q2.58,2.38,4.93,5l-5.67,5.1q-2.1-2.34-4.42-4.48Z"/><path class="cls-70" d="M122.26,29.35q2.57,2.39,4.91,5l-5.7,5.08q-2.09-2.35-4.4-4.5Z"/><path class="cls-71" d="M122.52,29.59q2.56,2.4,4.89,5l-5.72,5q-2.08-2.36-4.39-4.52Z"/><path class="cls-72" d="M122.77,29.83q2.55,2.41,4.86,5.06l-5.75,5q-2.07-2.37-4.36-4.54Z"/><path class="cls-72" d="M123,30.07q2.53,2.43,4.83,5.08l-5.77,5q-2.06-2.38-4.34-4.56Z"/><path class="cls-73" d="M123.28,30.32q2.52,2.44,4.81,5.1l-5.79,5q-2-2.39-4.32-4.58Z"/><path class="cls-73" d="M123.53,30.56Q126,33,128.32,35.69l-5.82,4.94q-2-2.4-4.3-4.6Z"/><path class="cls-73" d="M123.78,30.81c1.67,1.64,3.26,3.36,4.76,5.15l-5.84,4.91c-1.35-1.61-2.78-3.15-4.28-4.62Z"/><path class="cls-74" d="M124,31.05q2.49,2.47,4.74,5.17l-5.86,4.88q-2-2.42-4.25-4.64Z"/><path class="cls-75" d="M124.28,31.3q2.47,2.49,4.71,5.19l-5.88,4.86q-2-2.43-4.23-4.66Z"/><path class="cls-76" d="M124.52,31.55q2.46,2.5,4.69,5.22l-5.91,4.83q-2-2.44-4.21-4.68Z"/><path class="cls-5" d="M124.77,31.8q2.45,2.51,4.67,5.24l-5.93,4.8q-2-2.44-4.19-4.7Z"/><path class="cls-8" d="M100.19,23.46A67,67,0,0,0,66.55,17,67.63,67.63,0,0,0,34.07,28l-4.2-6.37a75,75,0,0,1,73.62-5.06Z"/><g class="cls-77"><g class="cls-78"><g class="cls-79"><path class="cls-3" d="M62.1,9.93a6.46,6.46,0,0,0-7.84-4.66l-30,7.53a6.45,6.45,0,0,0-4.71,7.81L37,89.87a6.45,6.45,0,0,0,7.84,4.66l30-7.52A6.45,6.45,0,0,0,79.5,79.2L62.1,9.93"/><path class="cls-80" d="M62.1,9.93a6.46,6.46,0,0,0-7.84-4.66l-30,7.53a6.45,6.45,0,0,0-4.71,7.81L37,89.87a6.45,6.45,0,0,0,7.84,4.66l30-7.52A6.45,6.45,0,0,0,79.5,79.2L62.1,9.93"/><path class="cls-81" d="M62.1,9.93a6.46,6.46,0,0,0-7.84-4.66l-30,7.53a6.45,6.45,0,0,0-4.71,7.81L37,89.87a6.45,6.45,0,0,0,7.84,4.66l30-7.52A6.45,6.45,0,0,0,79.5,79.2L62.1,9.93"/><path class="cls-82" d="M35.58,18.27a1.28,1.28,0,1,0-.93,1.56,1.28,1.28,0,0,0,.93-1.56"/><path class="cls-82" d="M38.51,18.16l5.91-1.48a.6.6,0,1,0-.29-1.16L38.22,17a.6.6,0,1,0,.29,1.16"/><rect class="cls-2" x="31.32" y="22.48" width="36.57" height="54.27" transform="translate(-10.59 13.58) rotate(-14.1)"/><rect class="cls-83" x="31.32" y="22.48" width="36.57" height="54.27" transform="translate(-10.59 13.58) rotate(-14.1)"/><path class="cls-84" d="M61.92,81.72a4.21,4.21,0,1,0-3.06,5.09,4.2,4.2,0,0,0,3.06-5.09"/><path class="cls-83" d="M61.92,81.72a4.21,4.21,0,1,0-3.06,5.09,4.2,4.2,0,0,0,3.06-5.09"/></g></g></g><g class="cls-77"><g class="cls-85"><g class="cls-86"><path class="cls-3" d="M107.67,15a6.92,6.92,0,0,0-6.19-7.57L68.56,4.07A6.91,6.91,0,0,0,61,10.22L53.09,86.35a6.91,6.91,0,0,0,6.19,7.57l32.93,3.4a6.92,6.92,0,0,0,7.61-6.14L107.67,15"/><path class="cls-80" d="M107.67,15a6.92,6.92,0,0,0-6.19-7.57L68.56,4.07A6.91,6.91,0,0,0,61,10.22L53.09,86.35a6.91,6.91,0,0,0,6.19,7.57l32.93,3.4a6.92,6.92,0,0,0,7.61-6.14L107.67,15"/><path class="cls-81" d="M107.67,15a6.92,6.92,0,0,0-6.19-7.57L68.56,4.07A6.91,6.91,0,0,0,61,10.22L53.09,86.35a6.91,6.91,0,0,0,6.19,7.57l32.93,3.4a6.92,6.92,0,0,0,7.61-6.14L107.67,15"/><path class="cls-82" d="M77.91,13.72a1.37,1.37,0,1,0-1.5,1.23,1.37,1.37,0,0,0,1.5-1.23"/><path class="cls-82" d="M80.9,14.68l6.5.67a.64.64,0,1,0,.13-1.27L81,13.41a.64.64,0,1,0-.13,1.27"/><rect class="cls-2" x="51.46" y="30.83" width="58.16" height="39.19" transform="translate(22.11 125.36) rotate(-84.1)"/><rect class="cls-83" x="51.46" y="30.83" width="58.16" height="39.19" transform="translate(22.11 125.36) rotate(-84.1)"/><path class="cls-84" d="M81.18,87.27a4.51,4.51,0,1,0-4.95,4,4.5,4.5,0,0,0,4.95-4"/><path class="cls-83" d="M81.18,87.27a4.51,4.51,0,1,0-4.95,4,4.5,4.5,0,0,0,4.95-4"/></g></g></g><path class="cls-2" d="M100.07,137.76,87.16,125.82S81,126.07,70.81,117c-7.83-7-17.2-15.74-21.23-18.92s-9.74-10.38-9.74-10.38L65.1,53.84,48.58,35.05s-11-5.26-14.72-8.75c-2.36-2.23-5.92-5.88-4.32-8.73,2-3.61,6.88-3.3,11.09-.59,2.6,1.67,27.63,20.53,44.17,31.45a74.7,74.7,0,0,0,14.81,7.45l16,46.62,12.16,13.95"/><path class="cls-87" d="M100.07,137.76,87.16,125.82S81,126.07,70.81,117c-7.83-7-17.2-15.74-21.23-18.92s-9.74-10.38-9.74-10.38L65.1,53.84,48.58,35.05s-11-5.26-14.72-8.75c-2.36-2.23-5.92-5.88-4.32-8.73,2-3.61,6.88-3.3,11.09-.59,2.6,1.67,27.63,20.53,44.17,31.45a74.7,74.7,0,0,0,14.81,7.45l16,46.62,12.16,13.95"/><path class="cls-2" d="M96.26,115.22c-15.18-42.92.67-54.36.18-58.08-.66-4.92-5.77-11.43-5.77-11.43-3.41-3-6.11-11.77-6.09-16.65s3.34-9.38,5.63-9.23,2.63,1.69,2.71,3.43,4,8,6.46,10.82,3.49,6.4,8.6,12.91,10.52,12.12,11,13.88.8,7.52.66,15c-.13,7.15,1.93,13,.73,16.47-.59,1.72.93,10.79.93,10.79a90.81,90.81,0,0,0,6.44,13.33"/><path class="cls-87" d="M96.26,115.22c-15.18-42.92.67-54.36.18-58.08-.66-4.92-5.77-11.43-5.77-11.43-3.41-3-6.11-11.77-6.09-16.65s3.34-9.38,5.63-9.23,2.63,1.69,2.71,3.43,4,8,6.46,10.82,3.49,6.4,8.6,12.91,10.52,12.12,11,13.88.8,7.52.66,15c-.13,7.15,1.93,13,.73,16.47-.59,1.72.93,10.79.93,10.79a90.81,90.81,0,0,0,6.44,13.33"/><polygon class="cls-2" points="87.85 56.59 127.18 116.81 100.47 137.56 58.27 78.34 87.85 56.59"/><path class="cls-88" d="M85.82,8.3a6.92,6.92,0,0,0-7.41-6.38l-33,2.37A6.91,6.91,0,0,0,39,11.66L44.45,88a6.92,6.92,0,0,0,7.41,6.38l33-2.37a6.92,6.92,0,0,0,6.43-7.37L85.82,8.3"/><path class="cls-81" d="M85.82,8.3a6.92,6.92,0,0,0-7.41-6.38l-33,2.37A6.91,6.91,0,0,0,39,11.66L44.45,88a6.92,6.92,0,0,0,7.41,6.38l33-2.37a6.92,6.92,0,0,0,6.43-7.37L85.82,8.3"/><path class="cls-82" d="M56.28,12.17A1.37,1.37,0,1,0,55,13.64a1.37,1.37,0,0,0,1.27-1.47"/><path class="cls-82" d="M59.4,12.6l6.51-.47a.64.64,0,1,0-.09-1.28l-6.51.47a.64.64,0,1,0,.09,1.27"/><rect class="cls-2" x="45.66" y="18.78" width="39.19" height="58.16" transform="translate(-3.26 4.79) rotate(-4.1)"/><rect class="cls-83" x="45.66" y="18.78" width="39.19" height="58.16" transform="translate(-3.26 4.79) rotate(-4.1)"/><path class="cls-84" d="M72.27,84a4.51,4.51,0,1,0-4.18,4.8A4.5,4.5,0,0,0,72.27,84"/><path class="cls-83" d="M72.27,84a4.51,4.51,0,1,0-4.18,4.8A4.5,4.5,0,0,0,72.27,84"/><path class="cls-2" d="M40,75.32s2.68,2,4.18,3.36,10.52,3.37,11,5.91a5.2,5.2,0,0,1-3,6.15c-2.85,1.28-10.78-.45-13.81-2.67-2.07-1.52-6.34-5.12-2.94-9.94,2.32-3.3,4.57-2.8,4.57-2.8"/><path class="cls-87" d="M40,75.32s2.68,2,4.18,3.36,10.52,3.37,11,5.91a5.2,5.2,0,0,1-3,6.15c-2.85,1.28-10.78-.45-13.81-2.67-2.07-1.52-6.34-5.12-2.94-9.94C37.74,74.81,40,75.32,40,75.32Z"/><path class="cls-2" d="M37.36,52.87l5.16,8.3s.38,3.47,2.06,4.6,9,6.6,9.79,8.35,1.1,3.39-.31,6.08a4.94,4.94,0,0,1-7.13,2.15,79,79,0,0,1-9.51-6.46,19,19,0,0,1-5.18-8c-.74-2.4-1.43-4.4,0-7.81,1.27-3,3.24-4.83,5.1-7.23"/><path class="cls-87" d="M37.36,52.87l5.16,8.3s.38,3.47,2.06,4.6,9,6.6,9.79,8.35,1.1,3.39-.31,6.08a4.94,4.94,0,0,1-7.13,2.15,79,79,0,0,1-9.51-6.46,19,19,0,0,1-5.18-8c-.74-2.4-1.43-4.4,0-7.81C33.53,57.09,35.5,55.27,37.36,52.87Z"/><path class="cls-2" d="M41.07,40.59l0,4.72a31.65,31.65,0,0,1,5,5.53c1.86,2.76,3.3,8.1.12,12.12-1.68,2.12-5.85,2.63-7.33,1.4-1.7-1.41-3.1-3.69-4.68-5.67-1-1.21-3.61-3.24-3.31-6.72.19-2.22,2.2-7.74,10.16-11.38"/><path class="cls-87" d="M41.07,40.59l0,4.72a31.65,31.65,0,0,1,5,5.53c1.86,2.76,3.3,8.1.12,12.12-1.68,2.12-5.85,2.63-7.33,1.4-1.7-1.41-3.1-3.69-4.68-5.67-1-1.21-3.61-3.24-3.31-6.72C31.11,49.75,33.12,44.22,41.07,40.59Z"/><path class="cls-89" d="M53.32,84.22S47,81.86,45.84,85.45s2.47,4.55,5.6,3.94C51.44,89.38,54.12,86.87,53.32,84.22Z"/><path class="cls-89" d="M53.21,75.76l-3.67-3.65s-3.64-.69-5,1.06A4.6,4.6,0,0,0,44.63,79l3.88,2.85s1.59.52,3.35-1.57C54.07,77.69,53.21,75.76,53.21,75.76Z"/><path class="cls-89" d="M41.15,52.14s-1.66-.67-3.46,2a5.85,5.85,0,0,0-1,4.82l2.89,4.33s6-2.79,5.55-7.94Z"/><path class="cls-89" d="M41.24,79.87a7.75,7.75,0,0,0-2.61,6.42"/><path class="cls-89" d="M41,66s-5.94,2.63-4.5,6.7"/><path class="cls-89" d="M90.66,45.72s4.06-1.12,6-2.87"/></g></svg>