<svg id="Layer_1" data-name="Layer 1" xmlns="http://www.w3.org/2000/svg" viewBox="0 0 378.43 171.66"><defs><style>.cls-1{fill:#fff;}.cls-2,.cls-5{fill:none;}.cls-2{stroke:#232321;stroke-miterlimit:10;stroke-width:0.52px;}.cls-3,.cls-4,.cls-6{fill:#20201e;}.cls-4,.cls-6{font-size:9px;}.cls-4{font-family:OpenSans, Open Sans;}.cls-5{stroke:#20201e;stroke-width:3px;}.cls-6{font-family:OpenSans-Bold, Open Sans;font-weight:700;}.cls-7{letter-spacing:0em;}.cls-8{letter-spacing:0em;}.cls-9{letter-spacing:0em;}.cls-10{letter-spacing:0.01em;}.cls-11{fill:#e1e2e2;}</style></defs><title>hotlink</title><rect class="cls-1" x="177.57" y="100.43" width="27.63" height="23.43"/><rect class="cls-2" x="177.57" y="100.43" width="27.63" height="23.43"/><rect class="cls-1" x="167.35" y="119.68" width="48.06" height="5.92"/><rect class="cls-2" x="167.35" y="119.68" width="48.06" height="5.92"/><path class="cls-1" d="M102.1.26H280.66a4,4,0,0,1,4,4v98.35a4,4,0,0,1-4,4H102.1a4,4,0,0,1-4-4V4.3a4,4,0,0,1,4-4m6.58,97.17H274.11V9.4H108.69Z"/><path class="cls-2" d="M102.1.26H280.66a4,4,0,0,1,4,4v98.35a4,4,0,0,1-4,4H102.1a4,4,0,0,1-4-4V4.3A4,4,0,0,1,102.1.26Zm6.58,97.17H274.11V9.4H108.69Z"/><path class="cls-3" d="M126.9,23.38h-1.61a1.45,1.45,0,0,1-1.45-1.45V18.4a1.45,1.45,0,0,1,1.45-1.45h1.61a.17.17,0,0,1,.16.16c0,.14.07.48-.16.48h-1.61a.81.81,0,0,0-.8.8v3.53a.81.81,0,0,0,.8.8h1.45c.13,0,.32,0,.32.16S127.12,23.38,126.9,23.38Zm4.72-3-2.73,2.73a.32.32,0,0,1-.23.1.32.32,0,0,1-.32-.32V21.45h-2.25a.32.32,0,0,1-.32-.32V19.2a.32.32,0,0,1,.32-.32h2.25V17.43a.32.32,0,0,1,.32-.32.32.32,0,0,1,.23.1l2.73,2.73a.32.32,0,0,1,0,.45Z"/><text class="cls-4" transform="translate(132.21 23.37)"><tspan xml:space="preserve"> www.test.ch</tspan></text><path class="cls-5" d="M117.91,26.05c-27.23,1.36-50.74,11.5-70.28,31s-29.79,45.25-31.15,72.48"/><polyline class="cls-5" points="111.48 20.64 117.91 26.05 112.05 32.08"/><path class="cls-5" d="M219.33,65.49c16.46,1.26,29.94,7.69,42.05,19.8a69.46,69.46,0,0,1,20,44.25"/><polyline class="cls-5" points="225.9 60.25 219.33 65.49 225.03 71.66"/><rect class="cls-1" x="1.5" y="137.16" width="184.09" height="33"/><text class="cls-6" transform="translate(34.5 157.1)"><tspan class="cls-7">Web-Se</tspan><tspan class="cls-8" x="33.15" y="0">r</tspan><tspan class="cls-7" x="37.28" y="0">ve</tspan><tspan class="cls-8" x="47.8" y="0">r</tspan><tspan class="cls-7" x="51.93" y="0"> </tspan><tspan class="cls-8" x="54.31" y="0">–</tspan><tspan class="cls-7" x="58.85" y="0" xml:space="preserve"> www</tspan><tspan class="cls-8" x="84.47" y="0">.t</tspan><tspan class="cls-7" x="91.02" y="0">e</tspan><tspan class="cls-8" x="96.38" y="0">st.c</tspan><tspan x="112.1" y="0">h</tspan></text><rect class="cls-5" x="1.5" y="137.16" width="184.09" height="33"/><rect class="cls-1" x="192.84" y="137.16" width="184.09" height="33"/><text class="cls-6" transform="translate(221.45 157.1)"><tspan class="cls-7">Web-Se</tspan><tspan class="cls-8" x="33.15" y="0">r</tspan><tspan class="cls-7" x="37.28" y="0">ve</tspan><tspan class="cls-8" x="47.8" y="0">r</tspan><tspan class="cls-7" x="51.93" y="0" xml:space="preserve"> – www</tspan><tspan class="cls-9" x="84.48" y="0">.</tspan><tspan class="cls-10" x="87.09" y="0">b</tspan><tspan class="cls-9" x="92.83" y="0">il</tspan><tspan class="cls-7" x="98.39" y="0">de</tspan><tspan class="cls-8" x="109.49" y="0">r.c</tspan><tspan x="120.88" y="0">h</tspan></text><rect class="cls-5" x="192.84" y="137.16" width="184.09" height="33"/><rect class="cls-11" x="124.35" y="49.25" width="39.63" height="40.25"/><text class="cls-4" transform="translate(135.92 69.67)">Bild</text><rect class="cls-11" x="173.48" y="49.25" width="39.63" height="40.25"/><text class="cls-4" transform="translate(185.06 69.67)">Bild</text><path class="cls-5" d="M117.91,65.49C101.46,66.75,88,73.18,75.86,85.29a69.45,69.45,0,0,0-20,44.25"/><polyline class="cls-5" points="111.34 60.25 117.91 65.49 112.21 71.66"/></svg>