<svg id="Layer_1" data-name="Layer 1" xmlns="http://www.w3.org/2000/svg" viewBox="0 0 385.23 171.66"><defs><style>.cls-1{fill:#fff;}.cls-2,.cls-7{fill:none;}.cls-2{stroke:#232321;stroke-miterlimit:10;stroke-width:0.52px;}.cls-3,.cls-4,.cls-5{fill:#20201e;}.cls-4,.cls-5{font-size:9px;}.cls-4{font-family:OpenSans, Open Sans;}.cls-5{font-family:OpenSans-Bold, Open Sans;font-weight:700;letter-spacing:0em;}.cls-6{letter-spacing:0em;}.cls-7{stroke:#20201e;stroke-width:3px;}.cls-8{fill:#e1e2e2;}.cls-9{fill:#9d9d9d;}</style></defs><title>iframe</title><rect class="cls-1" x="171.09" y="100.43" width="27.63" height="23.43"/><rect class="cls-2" x="171.09" y="100.43" width="27.63" height="23.43"/><rect class="cls-1" x="160.88" y="119.68" width="48.06" height="5.92"/><rect class="cls-2" x="160.88" y="119.68" width="48.06" height="5.92"/><path class="cls-1" d="M95.63.26H274.19a4,4,0,0,1,4,4v98.35a4,4,0,0,1-4,4H95.63a4,4,0,0,1-4-4V4.3a4,4,0,0,1,4-4m6.58,97.17H267.63V9.4H102.21Z"/><path class="cls-2" d="M95.63.26H274.19a4,4,0,0,1,4,4v98.35a4,4,0,0,1-4,4H95.63a4,4,0,0,1-4-4V4.3A4,4,0,0,1,95.63.26Zm6.58,97.17H267.63V9.4H102.21Z"/><path class="cls-3" d="M120.42,23.38h-1.61a1.45,1.45,0,0,1-1.45-1.45V18.4a1.45,1.45,0,0,1,1.45-1.45h1.61a.17.17,0,0,1,.16.16c0,.14.07.48-.16.48h-1.61a.81.81,0,0,0-.8.8v3.53a.81.81,0,0,0,.8.8h1.45c.13,0,.32,0,.32.16S120.65,23.38,120.42,23.38Zm4.72-3-2.73,2.73a.32.32,0,0,1-.23.1.32.32,0,0,1-.32-.32V21.45h-2.25a.32.32,0,0,1-.32-.32V19.2a.32.32,0,0,1,.32-.32h2.25V17.43a.32.32,0,0,1,.32-.32.32.32,0,0,1,.23.1l2.73,2.73a.32.32,0,0,1,0,.45Z"/><text class="cls-4" transform="translate(125.73 23.37)"><tspan xml:space="preserve"> www.test.ch</tspan></text><text class="cls-4" transform="translate(9.73 46.37)">Vollständige<tspan x="0" y="13">Website als HTML</tspan></text><text class="cls-5" transform="translate(18.04 157.1)">Eigerner Web-Se<tspan class="cls-6" x="73.49" y="0">r</tspan><tspan x="77.62" y="0">ve</tspan><tspan class="cls-6" x="88.14" y="0">r</tspan><tspan x="92.27" y="0"> </tspan><tspan class="cls-6" x="94.65" y="0">mit Inhalten</tspan></text><rect class="cls-7" x="1.5" y="137.16" width="184.09" height="33"/><text class="cls-5" transform="translate(234.26 157.1)">Drittinhalte von Anbieter</text><rect class="cls-7" x="199.65" y="137.16" width="184.09" height="33"/><rect class="cls-8" x="106.52" y="31.66" width="156" height="58"/><rect class="cls-9" x="165.52" y="53.66" width="97" height="31"/><text class="cls-4" transform="translate(121.45 44.67)">Eigene Inhalte</text><text class="cls-4" transform="translate(170.45 65.67)">iFrame mit<tspan x="0" y="10.8">fremden Inhalten</tspan></text><path class="cls-7" d="M111.44,61.24c-17.55,1.34-31.92,8.2-44.84,21.11a74.05,74.05,0,0,0-21.29,47.18"/><polyline class="cls-7" points="104.43 55.66 111.44 61.24 105.36 67.83"/><text class="cls-4" transform="translate(305.73 84.37)">Vollständige<tspan x="0" y="13">Website als HTML</tspan></text><path class="cls-7" d="M243.85,65.49c16.46,1.26,29.94,7.69,42.05,19.8a69.46,69.46,0,0,1,20,44.25"/><polyline class="cls-7" points="250.43 60.25 243.85 65.49 249.55 71.66"/></svg>