<svg id="Layer_1" data-name="Layer 1" xmlns="http://www.w3.org/2000/svg" xmlns:xlink="http://www.w3.org/1999/xlink" viewBox="0 0 392.61 264.01"><defs><style>.cls-1,.cls-5,.cls-6{fill:none;}.cls-2{fill:#fff;}.cls-3{fill:#b8b8b8;}.cls-4{clip-path:url(#clip-path);}.cls-5{stroke:#000;stroke-width:0.28px;}.cls-6{stroke:#232321;stroke-miterlimit:10;stroke-width:1.09px;}.cls-7{clip-path:url(#clip-path-2);}.cls-8{fill:#dedede;}</style><clipPath id="clip-path"><rect id="SVGID" class="cls-1" x="58.01" y="13.83" width="282.7" height="200.06"/></clipPath><clipPath id="clip-path-2"><rect id="SVGID-2" data-name="SVGID" class="cls-1" x="58.01" y="55.13" width="282.7" height="128.75"/></clipPath></defs><title>12col_desktopA</title><rect class="cls-2" x="58.01" y="13.83" width="282.7" height="200.06"/><rect class="cls-3" x="69.6" y="29.84" width="16.56" height="8.83"/><path d="M77.77,33.23h0l-.62.34L77,33.2l.78-.42h.41v3.59h-.47Z"/><rect class="cls-3" x="135.86" y="29.84" width="16.56" height="8.83"/><path d="M144.48,36.37v-1h-1.67v-.32l1.6-2.29h.53V35h.5v.38h-.5v1Zm0-1.36v-1.2c0-.19,0-.37,0-.56h0c-.11.21-.2.37-.3.53L143.3,35h1.18Z"/><rect class="cls-3" x="202.12" y="29.84" width="16.56" height="8.83"/><path d="M211.56,32.78v.32L210,36.37h-.5l1.56-3.18H209.3v-.4Z"/><rect class="cls-3" x="268.37" y="29.84" width="16.56" height="8.83"/><path d="M275.13,33.23h0l-.62.34-.09-.37.78-.42h.41v3.59h-.47Z"/><path d="M279.29,34.54c0,1.22-.45,1.89-1.25,1.89s-1.18-.66-1.19-1.84.52-1.87,1.25-1.87S279.29,33.39,279.29,34.54Zm-2,.06c0,.93.29,1.46.73,1.46s.73-.58.73-1.5-.23-1.46-.73-1.46S277.34,33.61,277.34,34.59Z"/><rect class="cls-3" x="91.69" y="29.84" width="16.56" height="8.83"/><path d="M98.8,36.37v-.3l.38-.37c.92-.87,1.33-1.34,1.34-1.88a.64.64,0,0,0-.71-.7,1.22,1.22,0,0,0-.76.3l-.16-.34a1.58,1.58,0,0,1,1-.37,1,1,0,0,1,1.1,1c0,.66-.48,1.2-1.24,1.93l-.29.27h1.61v.4Z"/><rect class="cls-3" x="157.95" y="29.84" width="16.56" height="8.83"/><path d="M167.2,33.19h-1.37l-.14.92a1.83,1.83,0,0,1,.29,0,1.52,1.52,0,0,1,.77.19,1,1,0,0,1,.51.92,1.25,1.25,0,0,1-1.34,1.23,1.77,1.77,0,0,1-.9-.22l.12-.37a1.6,1.6,0,0,0,.77.2.79.79,0,0,0,.85-.78c0-.46-.31-.79-1-.79a3.71,3.71,0,0,0-.5,0l.23-1.72h1.72Z"/><rect class="cls-3" x="224.2" y="29.84" width="16.56" height="8.83"/><path d="M231.27,35.46a1,1,0,0,1,.71-1v0a.89.89,0,0,1-.57-.81,1,1,0,0,1,1.11-1,.93.93,0,0,1,1,.88.91.91,0,0,1-.59.84v0a1,1,0,0,1,.72.93,1.11,1.11,0,0,1-1.22,1C231.73,36.43,231.27,36,231.27,35.46Zm1.93,0c0-.44-.3-.65-.79-.78a.78.78,0,0,0-.65.74.66.66,0,0,0,.72.68A.65.65,0,0,0,233.21,35.44Zm-1.34-1.79c0,.36.27.55.69.66a.71.71,0,0,0,.55-.65.56.56,0,0,0-.61-.58A.57.57,0,0,0,231.87,33.64Z"/><rect class="cls-3" x="290.46" y="29.84" width="16.56" height="8.83"/><path d="M297.21,33.23h0l-.62.34-.09-.37.78-.42h.41v3.59h-.47Z"/><path d="M300,33.23h0l-.62.34-.09-.37.78-.42h.41v3.59H300Z"/><rect class="cls-3" x="113.77" y="29.84" width="16.56" height="8.83"/><path d="M121,35.81a1.63,1.63,0,0,0,.8.23c.62,0,.82-.4.81-.7,0-.5-.46-.72-.93-.72h-.27v-.37h.27c.35,0,.8-.18.8-.61s-.18-.54-.63-.54a1.32,1.32,0,0,0-.72.24L121,33a1.71,1.71,0,0,1,.94-.28c.71,0,1,.42,1,.86a.89.89,0,0,1-.66.84h0a.94.94,0,0,1,.8.92c0,.58-.45,1.08-1.31,1.08a1.82,1.82,0,0,1-.93-.24Z"/><rect class="cls-3" x="180.03" y="29.84" width="16.56" height="8.83"/><path d="M189.2,33.12a1.72,1.72,0,0,0-.37,0,1.46,1.46,0,0,0-1.25,1.28h0a1.09,1.09,0,0,1,2,.75,1.2,1.2,0,0,1-1.19,1.26c-.77,0-1.27-.6-1.27-1.53a2.26,2.26,0,0,1,.61-1.62,2,2,0,0,1,1.15-.53,2.4,2.4,0,0,1,.35,0Zm-.14,2.07a.73.73,0,0,0-.74-.82.8.8,0,0,0-.7.44.41.41,0,0,0-.06.22c0,.59.28,1,.79,1S189.06,35.71,189.06,35.19Z"/><rect class="cls-3" x="246.29" y="29.84" width="16.56" height="8.83"/><path d="M253.68,36a2,2,0,0,0,.39,0,1.36,1.36,0,0,0,.75-.35,1.58,1.58,0,0,0,.47-1h0a1.05,1.05,0,0,1-.84.39,1,1,0,0,1-1.06-1.1,1.23,1.23,0,0,1,1.23-1.28c.74,0,1.19.6,1.19,1.51a2.27,2.27,0,0,1-.62,1.68,1.8,1.8,0,0,1-1,.48,2.26,2.26,0,0,1-.45,0Zm.18-2.07a.69.69,0,0,0,.69.76.8.8,0,0,0,.71-.37.31.31,0,0,0,0-.18c0-.61-.23-1.08-.73-1.08S253.86,33.45,253.86,34Z"/><rect class="cls-3" x="312.54" y="29.84" width="16.56" height="8.83"/><path d="M319.3,33.23h0l-.62.34-.09-.37.78-.42h.41v3.59h-.47Z"/><path d="M321.08,36.37v-.3l.38-.37c.92-.87,1.33-1.34,1.34-1.88a.64.64,0,0,0-.71-.7,1.23,1.23,0,0,0-.76.3l-.15-.34a1.57,1.57,0,0,1,1-.37,1,1,0,0,1,1.1,1c0,.66-.48,1.2-1.24,1.93l-.29.27h1.61v.4Z"/><g class="cls-4"><line class="cls-5" x1="86.17" y1="13.83" x2="86.17" y2="289.9"/><line class="cls-5" x1="174.51" y1="13.83" x2="174.51" y2="289.9"/><line class="cls-5" x1="262.85" y1="13.83" x2="262.85" y2="289.9"/><line class="cls-5" x1="130.34" y1="13.83" x2="130.34" y2="289.9"/><line class="cls-5" x1="218.68" y1="13.83" x2="218.68" y2="289.9"/><line class="cls-5" x1="307.02" y1="13.83" x2="307.02" y2="289.9"/><line class="cls-5" x1="108.25" y1="13.83" x2="108.25" y2="289.9"/><line class="cls-5" x1="196.6" y1="13.83" x2="196.6" y2="289.9"/><line class="cls-5" x1="284.94" y1="13.83" x2="284.94" y2="289.9"/><line class="cls-5" x1="152.42" y1="13.83" x2="152.42" y2="289.9"/><line class="cls-5" x1="240.77" y1="13.83" x2="240.77" y2="289.9"/><line class="cls-5" x1="329.11" y1="13.83" x2="329.11" y2="289.9"/><line class="cls-5" x1="69.6" y1="13.83" x2="69.6" y2="289.9"/><line class="cls-5" x1="157.95" y1="13.83" x2="157.95" y2="289.9"/><line class="cls-5" x1="246.29" y1="13.83" x2="246.29" y2="289.9"/><line class="cls-5" x1="113.77" y1="13.83" x2="113.77" y2="289.9"/><line class="cls-5" x1="202.12" y1="13.83" x2="202.12" y2="289.9"/><line class="cls-5" x1="290.46" y1="13.83" x2="290.46" y2="289.9"/><line class="cls-5" x1="91.69" y1="13.83" x2="91.69" y2="289.9"/><line class="cls-5" x1="180.03" y1="13.83" x2="180.03" y2="289.9"/><line class="cls-5" x1="268.37" y1="13.83" x2="268.37" y2="289.9"/><line class="cls-5" x1="135.86" y1="13.83" x2="135.86" y2="289.9"/><line class="cls-5" x1="224.2" y1="13.83" x2="224.2" y2="289.9"/><line class="cls-5" x1="312.54" y1="13.83" x2="312.54" y2="289.9"/><line class="cls-5" x1="331.87" y1="13.83" x2="331.87" y2="289.9"/><line class="cls-5" x1="66.84" y1="13.83" x2="66.84" y2="289.9"/></g><rect class="cls-2" x="167.33" y="210.68" width="57.95" height="49.15"/><rect class="cls-6" x="167.33" y="210.67" width="57.95" height="49.14"/><rect class="cls-2" x="145.9" y="251.05" width="100.82" height="12.42"/><rect class="cls-6" x="145.89" y="251.04" width="100.82" height="12.42"/><path class="cls-2" d="M9,.54H383.58A8.49,8.49,0,0,1,392.07,9V215.34a8.49,8.49,0,0,1-8.49,8.49H9a8.49,8.49,0,0,1-8.49-8.49V9A8.49,8.49,0,0,1,9,.54M22.84,204.38h347V19.71h-347Z"/><path class="cls-6" d="M9,.54H383.58A8.49,8.49,0,0,1,392.07,9V215.34a8.49,8.49,0,0,1-8.49,8.49H9a8.49,8.49,0,0,1-8.49-8.49V9A8.49,8.49,0,0,1,9,.54ZM22.84,204.38h347V19.71h-347Z"/><rect class="cls-2" x="58.01" y="55.13" width="282.7" height="128.75"/><g class="cls-7"><line class="cls-5" x1="86.17" y1="55.13" x2="86.17" y2="331.2"/><line class="cls-5" x1="174.51" y1="55.13" x2="174.51" y2="331.2"/><line class="cls-5" x1="262.85" y1="55.13" x2="262.85" y2="331.2"/><line class="cls-5" x1="130.34" y1="55.13" x2="130.34" y2="331.2"/><line class="cls-5" x1="218.68" y1="55.13" x2="218.68" y2="331.2"/><line class="cls-5" x1="307.02" y1="55.13" x2="307.02" y2="331.2"/><line class="cls-5" x1="108.25" y1="55.13" x2="108.25" y2="331.2"/><line class="cls-5" x1="196.6" y1="55.13" x2="196.6" y2="331.2"/><line class="cls-5" x1="284.94" y1="55.13" x2="284.94" y2="331.2"/><line class="cls-5" x1="152.42" y1="55.13" x2="152.42" y2="331.2"/><line class="cls-5" x1="240.77" y1="55.13" x2="240.77" y2="331.2"/><line class="cls-5" x1="329.11" y1="55.13" x2="329.11" y2="331.2"/><line class="cls-5" x1="69.6" y1="55.13" x2="69.6" y2="331.2"/><line class="cls-5" x1="157.95" y1="55.13" x2="157.95" y2="331.2"/><line class="cls-5" x1="246.29" y1="55.13" x2="246.29" y2="331.2"/><line class="cls-5" x1="113.77" y1="55.13" x2="113.77" y2="331.2"/><line class="cls-5" x1="202.12" y1="55.13" x2="202.12" y2="331.2"/><line class="cls-5" x1="290.46" y1="55.13" x2="290.46" y2="331.2"/><line class="cls-5" x1="91.69" y1="55.13" x2="91.69" y2="331.2"/><line class="cls-5" x1="180.03" y1="55.13" x2="180.03" y2="331.2"/><line class="cls-5" x1="268.37" y1="55.13" x2="268.37" y2="331.2"/><line class="cls-5" x1="135.86" y1="55.13" x2="135.86" y2="331.2"/><line class="cls-5" x1="224.2" y1="55.13" x2="224.2" y2="331.2"/><line class="cls-5" x1="312.54" y1="55.13" x2="312.54" y2="331.2"/></g><rect class="cls-3" x="69.6" y="74.46" width="259.51" height="97.18"/><rect class="cls-8" x="69.6" y="55.13" width="259.51" height="19.88"/><g class="cls-7"><path d="M203.44,195.18l-.5,1.52h-.65l1.64-4.83h.75l1.65,4.83h-.67l-.52-1.52Zm1.58-.49-.47-1.39c-.11-.32-.18-.6-.25-.88h0c-.07.29-.15.58-.24.88l-.47,1.4Z"/><path d="M209.42,196.57a2.33,2.33,0,0,1-1,.2A1.65,1.65,0,0,1,206.7,195a1.76,1.76,0,0,1,1.87-1.84,2.11,2.11,0,0,1,.88.18l-.14.49a1.47,1.47,0,0,0-.73-.17,1.31,1.31,0,0,0,0,2.61,1.79,1.79,0,0,0,.77-.17Z"/><path d="M210.48,195.08a1.11,1.11,0,0,0,1.19,1.21,2.28,2.28,0,0,0,1-.18l.11.45a2.8,2.8,0,0,1-1.15.21,1.61,1.61,0,0,1-1.71-1.75,1.69,1.69,0,0,1,1.63-1.87,1.47,1.47,0,0,1,1.43,1.63,2.26,2.26,0,0,1,0,.29Zm1.85-.45a.9.9,0,0,0-.87-1,1,1,0,0,0-1,1Z"/><path d="M215.64,196.7l0-.44h0a1.3,1.3,0,0,1-1.06.52,1,1,0,0,1-1.06-1c0-.84.75-1.3,2.09-1.29v-.07a.72.72,0,0,0-.79-.8,1.72,1.72,0,0,0-.9.26l-.14-.42a2.16,2.16,0,0,1,1.14-.31c1.06,0,1.32.72,1.32,1.42v1.3a4.89,4.89,0,0,0,.06.83Zm-.09-1.77c-.69,0-1.47.11-1.47.78a.56.56,0,0,0,.59.6.86.86,0,0,0,.84-.58.66.66,0,0,0,0-.2Z"/><path d="M221.7,191.61v4.2c0,.31,0,.66,0,.9h-.57l0-.6h0a1.28,1.28,0,0,1-1.18.68,1.58,1.58,0,0,1-1.48-1.76,1.66,1.66,0,0,1,1.56-1.86,1.16,1.16,0,0,1,1,.53h0v-2.07Zm-.63,3a1.11,1.11,0,0,0,0-.26.93.93,0,0,0-.91-.73c-.65,0-1,.57-1,1.34s.34,1.28,1,1.28a1,1,0,0,0,.92-.75,1.09,1.09,0,0,0,0-.27Z"/><path d="M223.45,192.25a.39.39,0,0,1-.78,0,.38.38,0,0,1,.39-.39A.37.37,0,0,1,223.45,192.25Zm-.7,4.45v-3.47h.63v3.47Z"/><path d="M226.2,193.23l.68,2a9.17,9.17,0,0,1,.28.89h0c.08-.29.18-.57.29-.89l.67-2h.66l-1.36,3.47h-.6l-1.32-3.47Z"/><path d="M232.48,194.93a1.7,1.7,0,0,1-1.73,1.84,1.65,1.65,0,0,1-1.66-1.79,1.7,1.7,0,0,1,1.72-1.84A1.64,1.64,0,0,1,232.48,194.93Zm-2.75,0c0,.76.44,1.33,1.05,1.33s1.05-.57,1.05-1.35c0-.59-.29-1.33-1-1.33S229.73,194.31,229.73,195Z"/><path d="M233.28,191.61h.63v5.09h-.63Z"/><path d="M238.12,194.93a1.7,1.7,0,0,1-1.73,1.84,1.65,1.65,0,0,1-1.66-1.79,1.69,1.69,0,0,1,1.72-1.84A1.64,1.64,0,0,1,238.12,194.93Zm-2.75,0c0,.76.44,1.33,1.05,1.33s1.05-.57,1.05-1.35c0-.59-.29-1.33-1-1.33S235.36,194.31,235.36,195Z"/><path d="M238.92,194.31c0-.41,0-.76,0-1.08h.55l0,.68h0a1,1,0,0,1,1-.76l.18,0v.59l-.21,0a.89.89,0,0,0-.85.81,1.85,1.85,0,0,0,0,.29v1.85h-.62Z"/><path d="M242.7,196.05a1.65,1.65,0,0,0,.83.25c.46,0,.67-.23.67-.52s-.18-.47-.65-.64c-.62-.22-.92-.57-.92-1a1.07,1.07,0,0,1,1.2-1,1.74,1.74,0,0,1,.85.21l-.16.46a1.36,1.36,0,0,0-.71-.2c-.37,0-.58.21-.58.47s.21.42.66.59c.6.23.91.53.91,1s-.47,1-1.3,1a2,2,0,0,1-1-.24Z"/><path d="M247.55,196.7l0-.44h0a1.3,1.3,0,0,1-1.06.52,1,1,0,0,1-1.06-1c0-.84.75-1.3,2.09-1.29v-.07a.72.72,0,0,0-.79-.8,1.72,1.72,0,0,0-.9.26l-.14-.42a2.16,2.16,0,0,1,1.14-.31c1.06,0,1.32.72,1.32,1.42v1.3a4.89,4.89,0,0,0,.06.83Zm-.09-1.77c-.69,0-1.47.11-1.47.78a.56.56,0,0,0,.6.6.86.86,0,0,0,.84-.58.66.66,0,0,0,0-.2Z"/><path d="M249.09,194.17c0-.36,0-.65,0-.94h.55l0,.56h0a1.2,1.2,0,0,1,1.09-.64,1,1,0,0,1,1,.7h0a1.44,1.44,0,0,1,.39-.45,1.18,1.18,0,0,1,.77-.24c.46,0,1.14.3,1.14,1.51v2h-.62v-2c0-.67-.24-1.07-.75-1.07a.82.82,0,0,0-.75.57,1.05,1.05,0,0,0,0,.32v2.14h-.62v-2.08c0-.55-.24-1-.72-1a.86.86,0,0,0-.78.63.88.88,0,0,0-.05.31v2.09h-.62Z"/><path d="M258,195.75c0,.36,0,.67,0,.95h-.56l0-.57h0a1.3,1.3,0,0,1-1.15.65c-.54,0-1.2-.3-1.2-1.52v-2h.63v1.92c0,.66.2,1.1.77,1.1a.89.89,0,0,0,.89-.9v-2.13H258Z"/><path d="M258.94,196.05a1.66,1.66,0,0,0,.83.25c.46,0,.67-.23.67-.52s-.18-.47-.64-.64c-.62-.22-.92-.57-.92-1a1.07,1.07,0,0,1,1.2-1,1.74,1.74,0,0,1,.85.21l-.16.46a1.35,1.35,0,0,0-.71-.2c-.37,0-.58.21-.58.47s.21.42.66.59c.6.23.91.53.91,1s-.47,1-1.3,1a2,2,0,0,1-1-.24Z"/><path d="M265.31,196.7l-.05-.44h0a1.29,1.29,0,0,1-1.06.52,1,1,0,0,1-1.06-1c0-.84.75-1.3,2.09-1.29v-.07a.72.72,0,0,0-.79-.8,1.73,1.73,0,0,0-.9.26l-.14-.42a2.15,2.15,0,0,1,1.14-.31c1.06,0,1.32.72,1.32,1.42v1.3a4.89,4.89,0,0,0,.06.83Zm-.09-1.77c-.69,0-1.47.11-1.47.78a.56.56,0,0,0,.59.6.86.86,0,0,0,.84-.58.66.66,0,0,0,0-.2Z"/><path d="M269.76,195.75c0,.36,0,.67,0,.95h-.56l0-.57h0a1.31,1.31,0,0,1-1.15.65c-.54,0-1.2-.3-1.2-1.52v-2h.63v1.92c0,.66.2,1.1.78,1.1a.91.91,0,0,0,.83-.57.94.94,0,0,0,.06-.32v-2.13h.63Z"/><path d="M271.57,192.23v1h.9v.48h-.9v1.87c0,.43.12.67.47.67a1.41,1.41,0,0,0,.37,0l0,.47a1.53,1.53,0,0,1-.56.09.88.88,0,0,1-.68-.26,1.29,1.29,0,0,1-.24-.9v-1.89h-.54v-.48H271v-.83Z"/><path d="M276.63,196.7l0-.44h0a1.29,1.29,0,0,1-1.06.52,1,1,0,0,1-1.06-1c0-.84.75-1.3,2.09-1.29v-.07a.72.72,0,0,0-.79-.8,1.73,1.73,0,0,0-.9.26l-.14-.42a2.15,2.15,0,0,1,1.14-.31c1.06,0,1.32.72,1.32,1.42v1.3a4.89,4.89,0,0,0,.06.83Zm-.09-1.77c-.69,0-1.47.11-1.47.78a.56.56,0,0,0,.6.6.86.86,0,0,0,.84-.58.66.66,0,0,0,0-.2Z"/><path d="M278.16,194.31c0-.41,0-.76,0-1.08h.55l0,.68h0a1,1,0,0,1,1-.76l.18,0v.59l-.22,0a.89.89,0,0,0-.85.81,1.74,1.74,0,0,0,0,.29v1.85h-.62Z"/><path d="M282.91,196.57a2.33,2.33,0,0,1-1,.2,1.65,1.65,0,0,1-1.73-1.77,1.76,1.76,0,0,1,1.87-1.84,2.11,2.11,0,0,1,.88.18l-.14.49a1.47,1.47,0,0,0-.73-.17,1.31,1.31,0,0,0,0,2.61,1.79,1.79,0,0,0,.77-.17Z"/><path d="M284.36,192.25a.39.39,0,0,1-.78,0,.38.38,0,0,1,.39-.39A.37.37,0,0,1,284.36,192.25Zm-.7,4.45v-3.47h.63v3.47Z"/><path d="M288.33,191.61v4.2c0,.31,0,.66,0,.9h-.57l0-.6h0a1.28,1.28,0,0,1-1.18.68,1.58,1.58,0,0,1-1.48-1.76,1.66,1.66,0,0,1,1.56-1.86,1.16,1.16,0,0,1,1,.53h0v-2.07Zm-.63,3a1.11,1.11,0,0,0,0-.26.93.93,0,0,0-.91-.73c-.65,0-1,.57-1,1.34s.34,1.28,1,1.28a1,1,0,0,0,.92-.75,1.09,1.09,0,0,0,0-.27Z"/><path d="M293.27,196.16h0a1.23,1.23,0,0,1-1.13.62,1.58,1.58,0,0,1-1.47-1.76,1.66,1.66,0,0,1,1.57-1.87,1.14,1.14,0,0,1,1.07.6h0l0-.52h.6c0,.29,0,.59,0,1v3.94h-.63Zm0-1.53a1.08,1.08,0,0,0,0-.27.92.92,0,0,0-.9-.72c-.65,0-1,.55-1,1.33s.33,1.29,1,1.29a.94.94,0,0,0,.9-.69,1,1,0,0,0,.05-.3Z"/><path d="M297.85,195.75c0,.36,0,.67,0,.95h-.56l0-.57h0a1.31,1.31,0,0,1-1.15.65c-.54,0-1.2-.3-1.2-1.52v-2h.63v1.92c0,.66.2,1.1.78,1.1a.91.91,0,0,0,.83-.57.94.94,0,0,0,.06-.32v-2.13h.63Z"/><path d="M302,194.93a1.7,1.7,0,0,1-1.73,1.84,1.65,1.65,0,0,1-1.66-1.79,1.7,1.7,0,0,1,1.72-1.84A1.64,1.64,0,0,1,302,194.93Zm-2.75,0c0,.76.44,1.33,1.05,1.33s1.05-.57,1.05-1.35c0-.59-.29-1.33-1-1.33S299.29,194.31,299.29,195Z"/><path d="M304.61,193.23l.68,2a8.68,8.68,0,0,1,.28.89h0c.08-.29.18-.57.29-.89l.67-2h.66l-1.36,3.47h-.6l-1.32-3.47Z"/><path d="M310.88,194.93a1.7,1.7,0,0,1-1.73,1.84,1.65,1.65,0,0,1-1.66-1.79,1.69,1.69,0,0,1,1.72-1.84A1.64,1.64,0,0,1,310.88,194.93Zm-2.75,0c0,.76.44,1.33,1.05,1.33s1.05-.57,1.05-1.35c0-.59-.29-1.33-1-1.33S308.13,194.31,308.13,195Z"/><path d="M313.25,194.53V195h-1.77v-.47Z"/><path d="M202.64,200.22h.63v5.09h-.63Z"/><path d="M207.47,203.55a1.7,1.7,0,0,1-1.73,1.84,1.65,1.65,0,0,1-1.66-1.79,1.7,1.7,0,0,1,1.72-1.84A1.64,1.64,0,0,1,207.47,203.55Zm-2.75,0c0,.76.44,1.33,1.05,1.33s1.05-.57,1.05-1.35c0-.59-.29-1.33-1-1.33S204.72,202.93,204.72,203.58Z"/><path d="M208.27,202.93c0-.41,0-.76,0-1.08h.55l0,.68h0a1,1,0,0,1,1-.76l.18,0v.59l-.21,0a.88.88,0,0,0-.85.81,1.64,1.64,0,0,0,0,.29v1.85h-.62Z"/><path d="M210.9,203.69a1.11,1.11,0,0,0,1.19,1.21,2.28,2.28,0,0,0,1-.18l.11.45a2.81,2.81,0,0,1-1.15.21,1.61,1.61,0,0,1-1.71-1.75,1.69,1.69,0,0,1,1.63-1.87,1.47,1.47,0,0,1,1.43,1.63,2.45,2.45,0,0,1,0,.29Zm1.85-.45a.9.9,0,0,0-.87-1,1,1,0,0,0-1,1Z"/><path d="M215.91,201.84l.68,2a9.19,9.19,0,0,1,.28.89h0c.08-.29.18-.57.29-.89l.67-2h.66l-1.36,3.47h-.6l-1.32-3.47Z"/><path d="M222.2,203.55a1.7,1.7,0,0,1-1.73,1.84,1.65,1.65,0,0,1-1.66-1.79,1.69,1.69,0,0,1,1.72-1.84A1.64,1.64,0,0,1,222.2,203.55Zm-2.75,0c0,.76.44,1.33,1.05,1.33s1.05-.57,1.05-1.35c0-.59-.29-1.33-1-1.33S219.44,202.93,219.44,203.58Z"/><path d="M223,200.22h.63v5.09H223Z"/><path d="M227.59,204.37c0,.36,0,.67,0,.95h-.56l0-.57h0a1.31,1.31,0,0,1-1.15.65c-.54,0-1.2-.3-1.2-1.52v-2h.63v1.92c0,.66.2,1.1.77,1.1a.91.91,0,0,0,.83-.57A.94.94,0,0,0,227,204v-2.13h.63Z"/><path d="M228.64,203c0-.44,0-.8,0-1.13h.57l0,.59h0a1.37,1.37,0,0,1,1.23-.67,1.57,1.57,0,0,1,1.47,1.76,1.64,1.64,0,0,1-1.58,1.87,1.22,1.22,0,0,1-1.07-.54h0v1.89h-.62Zm.62.92a1.49,1.49,0,0,0,0,.26,1,1,0,0,0,.95.74c.67,0,1.05-.54,1.05-1.34s-.37-1.29-1-1.29a1,1,0,0,0-1,.78,1,1,0,0,0,0,.26Z"/><path d="M233.49,200.85v1h.9v.48h-.9v1.87c0,.43.12.67.47.67a1.4,1.4,0,0,0,.37,0l0,.47a1.54,1.54,0,0,1-.56.09.88.88,0,0,1-.68-.26,1.29,1.29,0,0,1-.24-.9v-1.89h-.54v-.48h.54V201Z"/><path d="M237,205.31l0-.44h0a1.29,1.29,0,0,1-1.06.52,1,1,0,0,1-1.06-1c0-.84.75-1.3,2.09-1.29V203a.72.72,0,0,0-.79-.8,1.73,1.73,0,0,0-.9.26l-.14-.42a2.15,2.15,0,0,1,1.14-.31c1.06,0,1.32.72,1.32,1.42v1.3a4.89,4.89,0,0,0,.06.83Zm-.09-1.77c-.69,0-1.47.11-1.47.78a.56.56,0,0,0,.6.6.86.86,0,0,0,.84-.58.66.66,0,0,0,0-.2Z"/><path d="M239.3,200.85v1h.9v.48h-.9v1.87c0,.43.12.67.47.67a1.4,1.4,0,0,0,.37,0l0,.47a1.54,1.54,0,0,1-.56.09.88.88,0,0,1-.68-.26,1.29,1.29,0,0,1-.24-.9v-1.89h-.54v-.48h.54V201Z"/><path d="M243.82,204.37c0,.36,0,.67,0,.95h-.56l0-.57h0a1.3,1.3,0,0,1-1.15.65c-.54,0-1.2-.3-1.2-1.52v-2h.63v1.92c0,.66.2,1.1.77,1.1a.89.89,0,0,0,.89-.9v-2.13h.63Z"/><path d="M244.87,202.93c0-.41,0-.76,0-1.08h.55l0,.68h0a1,1,0,0,1,1-.76l.18,0v.59l-.21,0a.88.88,0,0,0-.85.81,1.64,1.64,0,0,0,0,.29v1.85h-.62Z"/><path d="M248.65,204.67a1.66,1.66,0,0,0,.83.25c.46,0,.67-.23.67-.52s-.18-.47-.64-.64c-.62-.22-.92-.57-.92-1a1.07,1.07,0,0,1,1.2-1,1.74,1.74,0,0,1,.85.21l-.16.46a1.35,1.35,0,0,0-.71-.2c-.37,0-.58.21-.58.47s.21.42.66.59c.6.23.91.53.91,1s-.47,1-1.3,1a2,2,0,0,1-1-.24Z"/><path d="M252.28,200.87a.39.39,0,0,1-.78,0,.38.38,0,0,1,.39-.39A.38.38,0,0,1,252.28,200.87Zm-.7,4.45v-3.47h.63v3.47Z"/><path d="M254,200.85v1h.9v.48H254v1.87c0,.43.12.67.47.67a1.41,1.41,0,0,0,.37,0l0,.47a1.53,1.53,0,0,1-.56.09.87.87,0,0,1-.68-.26,1.29,1.29,0,0,1-.24-.9v-1.89h-.54v-.48h.54V201Z"/><path d="M257.55,205.31l0-.44h0a1.3,1.3,0,0,1-1.06.52,1,1,0,0,1-1.06-1c0-.84.75-1.3,2.09-1.29V203a.72.72,0,0,0-.79-.8,1.72,1.72,0,0,0-.9.26l-.14-.42a2.16,2.16,0,0,1,1.14-.31c1.06,0,1.32.72,1.32,1.42v1.3a4.89,4.89,0,0,0,.06.83Zm-.09-1.77c-.69,0-1.47.11-1.47.78a.56.56,0,0,0,.59.6.86.86,0,0,0,.84-.58.66.66,0,0,0,0-.2Z"/><path d="M259.83,200.85v1h.9v.48h-.9v1.87c0,.43.12.67.47.67a1.4,1.4,0,0,0,.37,0l0,.47a1.54,1.54,0,0,1-.56.09.88.88,0,0,1-.68-.26,1.29,1.29,0,0,1-.24-.9v-1.89h-.54v-.48h.54V201Z"/><path d="M264.35,204.37c0,.36,0,.67,0,.95h-.56l0-.57h0a1.31,1.31,0,0,1-1.15.65c-.54,0-1.2-.3-1.2-1.52v-2h.63v1.92c0,.66.2,1.1.77,1.1a.89.89,0,0,0,.89-.9v-2.13h.63Z"/><path d="M265.4,202.93c0-.41,0-.76,0-1.08h.55l0,.68h0a1,1,0,0,1,1-.76l.18,0v.59l-.21,0a.88.88,0,0,0-.85.81,1.64,1.64,0,0,0,0,.29v1.85h-.62Z"/><path d="M268.24,203.94v-.19a1.65,1.65,0,0,1,.44-1.24,1.57,1.57,0,0,0,.5-1c0-.37-.23-.61-.68-.62a1.27,1.27,0,0,0-.72.22l-.17-.45a1.88,1.88,0,0,1,1-.29,1.06,1.06,0,0,1,1.2,1.05,2,2,0,0,1-.62,1.25,1.42,1.42,0,0,0-.41,1.05v.19Zm-.16,1a.42.42,0,0,1,.43-.45.45.45,0,1,1-.43.45Z"/><path d="M272.21,205.31v-4.83h.68l1.55,2.45a13.83,13.83,0,0,1,.87,1.57h0c-.06-.64-.07-1.23-.07-2v-2h.59v4.83h-.63l-1.54-2.45a15.35,15.35,0,0,1-.9-1.61h0c0,.61.05,1.19.05,2v2.07Z"/><path d="M277.26,203.69a1.11,1.11,0,0,0,1.19,1.21,2.28,2.28,0,0,0,1-.18l.11.45a2.81,2.81,0,0,1-1.15.21,1.61,1.61,0,0,1-1.71-1.75,1.69,1.69,0,0,1,1.63-1.87,1.47,1.47,0,0,1,1.43,1.63,2.45,2.45,0,0,1,0,.29Zm1.85-.45a.9.9,0,0,0-.87-1,1,1,0,0,0-1,1Z"/><path d="M282.87,204.77h0a1.23,1.23,0,0,1-1.13.62,1.58,1.58,0,0,1-1.47-1.76,1.66,1.66,0,0,1,1.57-1.87,1.14,1.14,0,0,1,1.07.6h0l0-.52h.6c0,.29,0,.59,0,1v3.94h-.63Zm0-1.53a1.08,1.08,0,0,0,0-.27.92.92,0,0,0-.9-.72c-.65,0-1,.55-1,1.33s.33,1.29,1,1.29a.94.94,0,0,0,.9-.69,1.07,1.07,0,0,0,0-.3Z"/><path d="M287.45,204.37c0,.36,0,.67,0,.95h-.56l0-.57h0a1.31,1.31,0,0,1-1.15.65c-.54,0-1.2-.3-1.2-1.52v-2h.63v1.92c0,.66.2,1.1.77,1.1a.89.89,0,0,0,.89-.9v-2.13h.63Z"/><path d="M290.42,205.31l0-.44h0a1.29,1.29,0,0,1-1.06.52,1,1,0,0,1-1.06-1c0-.84.75-1.3,2.09-1.29V203a.72.72,0,0,0-.79-.8,1.73,1.73,0,0,0-.9.26l-.14-.42a2.15,2.15,0,0,1,1.14-.31c1.06,0,1.32.72,1.32,1.42v1.3a4.89,4.89,0,0,0,.06.83Zm-.09-1.77c-.69,0-1.47.11-1.47.78a.56.56,0,0,0,.6.6.86.86,0,0,0,.84-.58.66.66,0,0,0,0-.2Z"/><path d="M292,202.78c0-.36,0-.65,0-.94h.55l0,.56h0a1.2,1.2,0,0,1,1.09-.64,1,1,0,0,1,1,.7h0A1.44,1.44,0,0,1,295,202a1.18,1.18,0,0,1,.77-.24c.46,0,1.14.3,1.14,1.51v2h-.62v-2c0-.67-.24-1.07-.75-1.07a.82.82,0,0,0-.75.57,1.05,1.05,0,0,0,0,.32v2.14h-.62v-2.08c0-.55-.24-1-.72-1a.94.94,0,0,0-.83.94v2.09H292Z"/><path d="M300.85,204.37c0,.36,0,.67,0,.95h-.56l0-.57h0a1.31,1.31,0,0,1-1.15.65c-.54,0-1.2-.3-1.2-1.52v-2h.63v1.92c0,.66.2,1.1.78,1.1a.91.91,0,0,0,.83-.57.94.94,0,0,0,.06-.32v-2.13h.63Z"/><path d="M301.81,204.67a1.65,1.65,0,0,0,.83.25c.46,0,.67-.23.67-.52s-.18-.47-.65-.64c-.62-.22-.92-.57-.92-1a1.07,1.07,0,0,1,1.2-1,1.74,1.74,0,0,1,.85.21l-.16.46a1.36,1.36,0,0,0-.71-.2c-.37,0-.58.21-.58.47s.21.42.66.59c.6.23.91.53.91,1s-.47,1-1.3,1a2,2,0,0,1-1-.24Z"/><path d="M307.74,200.22v4.2c0,.31,0,.66,0,.9h-.57l0-.6h0a1.28,1.28,0,0,1-1.18.68,1.58,1.58,0,0,1-1.48-1.76,1.66,1.66,0,0,1,1.56-1.86,1.16,1.16,0,0,1,1,.53h0v-2.07Zm-.63,3a1.11,1.11,0,0,0,0-.26.93.93,0,0,0-.91-.73c-.65,0-1,.57-1,1.34s.34,1.28,1,1.28a1,1,0,0,0,.92-.75,1.09,1.09,0,0,0,0-.27Z"/><path d="M310.71,205.31l-.05-.44h0a1.29,1.29,0,0,1-1.06.52,1,1,0,0,1-1.06-1c0-.84.75-1.3,2.09-1.29V203a.72.72,0,0,0-.79-.8,1.73,1.73,0,0,0-.9.26l-.14-.42a2.15,2.15,0,0,1,1.14-.31c1.06,0,1.32.72,1.32,1.42v1.3a4.89,4.89,0,0,0,.06.83Zm-.09-1.77c-.69,0-1.47.11-1.47.78a.56.56,0,0,0,.59.6.86.86,0,0,0,.84-.58.66.66,0,0,0,0-.2Z"/><path d="M312.6,203.69a1.11,1.11,0,0,0,1.19,1.21,2.28,2.28,0,0,0,1-.18l.11.45a2.81,2.81,0,0,1-1.15.21,1.61,1.61,0,0,1-1.71-1.75,1.68,1.68,0,0,1,1.63-1.87,1.47,1.47,0,0,1,1.44,1.63,2.68,2.68,0,0,1,0,.29Zm1.85-.45a.9.9,0,0,0-.87-1,1,1,0,0,0-1,1Z"/><path d="M202.64,211.59c0-.44,0-.8,0-1.13h.57l0,.59h0a1.37,1.37,0,0,1,1.23-.67,1.57,1.57,0,0,1,1.47,1.76,1.64,1.64,0,0,1-1.58,1.87,1.22,1.22,0,0,1-1.07-.54h0v1.89h-.62Zm.62.92a1.4,1.4,0,0,0,0,.26,1,1,0,0,0,.95.74c.67,0,1.05-.54,1.05-1.34s-.37-1.29-1-1.29a1,1,0,0,0-1,.78,1,1,0,0,0,0,.26Z"/><path d="M208.65,213.93l-.05-.44h0a1.29,1.29,0,0,1-1.06.52,1,1,0,0,1-1.06-1c0-.84.75-1.3,2.09-1.29v-.07a.72.72,0,0,0-.79-.8,1.73,1.73,0,0,0-.9.26l-.14-.42a2.15,2.15,0,0,1,1.14-.31c1.06,0,1.32.72,1.32,1.42v1.3a4.89,4.89,0,0,0,.06.83Zm-.09-1.77c-.69,0-1.47.11-1.47.78a.56.56,0,0,0,.59.6.86.86,0,0,0,.84-.58.66.66,0,0,0,0-.2Z"/><path d="M210.18,211.54c0-.41,0-.76,0-1.08h.55l0,.68h0a1,1,0,0,1,1-.76l.18,0V211l-.21,0a.89.89,0,0,0-.85.81,1.85,1.85,0,0,0,0,.29v1.85h-.62Z"/><path d="M215.44,213c0,.36,0,.67,0,.95h-.56l0-.57h0a1.31,1.31,0,0,1-1.15.65c-.54,0-1.2-.3-1.2-1.52v-2h.63v1.92c0,.66.2,1.1.77,1.1a.89.89,0,0,0,.89-.9v-2.13h.63Z"/><path d="M216.49,211.39c0-.36,0-.65,0-.94H217l0,.56h0a1.2,1.2,0,0,1,1.09-.64,1,1,0,0,1,1,.7h0a1.44,1.44,0,0,1,.39-.45,1.18,1.18,0,0,1,.77-.24c.46,0,1.14.3,1.14,1.51v2h-.62v-2c0-.67-.24-1.07-.75-1.07a.82.82,0,0,0-.75.57,1,1,0,0,0-.05.32v2.14h-.62v-2.08c0-.55-.24-1-.72-1a.86.86,0,0,0-.78.63.88.88,0,0,0,0,.31v2.09h-.62Z"/><path d="M224,211.54c0-.41,0-.76,0-1.08h.55l0,.68h0a1,1,0,0,1,1-.76l.18,0V211l-.22,0a.89.89,0,0,0-.85.81,1.74,1.74,0,0,0,0,.29v1.85H224Z"/><path d="M226.62,212.3a1.11,1.11,0,0,0,1.19,1.21,2.28,2.28,0,0,0,1-.18l.11.45a2.8,2.8,0,0,1-1.15.21,1.61,1.61,0,0,1-1.71-1.75,1.69,1.69,0,0,1,1.63-1.87,1.47,1.47,0,0,1,1.43,1.63,2.26,2.26,0,0,1,0,.29Zm1.85-.45a.9.9,0,0,0-.87-1,1,1,0,0,0-1,1Z"/><path d="M229.87,211.59c0-.44,0-.8,0-1.13h.57l0,.59h0a1.37,1.37,0,0,1,1.23-.67,1.57,1.57,0,0,1,1.47,1.76,1.64,1.64,0,0,1-1.58,1.87,1.22,1.22,0,0,1-1.07-.54h0v1.89h-.62Zm.62.92a1.49,1.49,0,0,0,0,.26,1,1,0,0,0,.95.74c.67,0,1.05-.54,1.05-1.34s-.37-1.29-1-1.29a1,1,0,0,0-1,.78,1,1,0,0,0,0,.26Z"/><path d="M233.95,211.54c0-.41,0-.76,0-1.08h.55l0,.68h0a1,1,0,0,1,1-.76l.18,0V211l-.21,0a.89.89,0,0,0-.85.81,1.85,1.85,0,0,0,0,.29v1.85h-.62Z"/><path d="M238.18,213.93l0-.44h0A1.3,1.3,0,0,1,237,214a1,1,0,0,1-1.06-1c0-.84.75-1.3,2.09-1.29v-.07a.72.72,0,0,0-.79-.8,1.72,1.72,0,0,0-.9.26l-.14-.42a2.16,2.16,0,0,1,1.14-.31c1.06,0,1.32.72,1.32,1.42v1.3a4.89,4.89,0,0,0,.06.83Zm-.09-1.77c-.69,0-1.47.11-1.47.78a.56.56,0,0,0,.6.6.86.86,0,0,0,.84-.58.66.66,0,0,0,0-.2Z"/><path d="M240.07,212.3a1.11,1.11,0,0,0,1.19,1.21,2.28,2.28,0,0,0,1-.18l.11.45a2.8,2.8,0,0,1-1.15.21,1.61,1.61,0,0,1-1.71-1.75,1.69,1.69,0,0,1,1.63-1.87,1.47,1.47,0,0,1,1.43,1.63,2.26,2.26,0,0,1,0,.29Zm1.85-.45a.9.9,0,0,0-.87-1,1,1,0,0,0-1,1Z"/><path d="M243.09,213.55a.42.42,0,0,1,.43-.45.45.45,0,1,1-.43.45Z"/><path d="M246.89,209.09v4.83h-.62v-4.83Z"/><path d="M248.83,209.46v1h.9v.48h-.9v1.87c0,.43.12.67.47.67a1.41,1.41,0,0,0,.37,0l0,.47a1.53,1.53,0,0,1-.56.09.87.87,0,0,1-.68-.26,1.29,1.29,0,0,1-.24-.9v-1.89h-.54v-.48h.54v-.83Z"/><path d="M251.15,209.48a.39.39,0,0,1-.78,0,.38.38,0,0,1,.39-.39A.37.37,0,0,1,251.15,209.48Zm-.7,4.45v-3.47h.63v3.47Z"/><path d="M254,213.93l0-.44h0a1.3,1.3,0,0,1-1.06.52,1,1,0,0,1-1.06-1c0-.84.75-1.3,2.09-1.29v-.07a.72.72,0,0,0-.79-.8,1.72,1.72,0,0,0-.9.26l-.14-.42a2.16,2.16,0,0,1,1.14-.31c1.06,0,1.32.72,1.32,1.42v1.3a4.89,4.89,0,0,0,.06.83Zm-.09-1.77c-.69,0-1.47.11-1.47.78a.56.56,0,0,0,.59.6.86.86,0,0,0,.84-.58.66.66,0,0,0,0-.2Z"/><path d="M257.35,210.46l.68,2a8.66,8.66,0,0,1,.28.89h0c.08-.29.18-.57.29-.89l.67-2H260l-1.36,3.47H258l-1.32-3.47Z"/><path d="M263.63,212.16a1.7,1.7,0,0,1-1.73,1.84,1.65,1.65,0,0,1-1.66-1.79,1.7,1.7,0,0,1,1.72-1.84A1.64,1.64,0,0,1,263.63,212.16Zm-2.75,0c0,.76.44,1.33,1.05,1.33S263,213,263,212.18c0-.59-.29-1.33-1-1.33S260.88,211.54,260.88,212.2Z"/><path d="M264.43,208.83h.63v5.09h-.63Z"/><path d="M269,213c0,.36,0,.67,0,.95h-.56l0-.57h0a1.31,1.31,0,0,1-1.15.65c-.54,0-1.2-.3-1.2-1.52v-2h.63v1.92c0,.66.2,1.1.77,1.1a.89.89,0,0,0,.89-.9v-2.13H269Z"/><path d="M270.08,211.59c0-.44,0-.8,0-1.13h.57l0,.59h0a1.37,1.37,0,0,1,1.23-.67,1.57,1.57,0,0,1,1.47,1.76,1.64,1.64,0,0,1-1.58,1.87,1.22,1.22,0,0,1-1.07-.54h0v1.89h-.62Zm.62.92a1.4,1.4,0,0,0,0,.26,1,1,0,0,0,.95.74c.67,0,1.05-.54,1.05-1.34s-.37-1.29-1-1.29a1,1,0,0,0-1,.78,1,1,0,0,0,0,.26Z"/><path d="M274.93,209.46v1h.9v.48h-.9v1.87c0,.43.12.67.47.67a1.4,1.4,0,0,0,.37,0l0,.47a1.52,1.52,0,0,1-.56.09.87.87,0,0,1-.68-.26,1.29,1.29,0,0,1-.24-.9v-1.89h-.54v-.48h.54v-.83Z"/><path d="M278.46,213.93l0-.44h0a1.3,1.3,0,0,1-1.06.52,1,1,0,0,1-1.06-1c0-.84.75-1.3,2.09-1.29v-.07a.72.72,0,0,0-.79-.8,1.72,1.72,0,0,0-.9.26l-.14-.42a2.16,2.16,0,0,1,1.14-.31c1.06,0,1.32.72,1.32,1.42v1.3a4.89,4.89,0,0,0,.06.83Zm-.09-1.77c-.69,0-1.47.11-1.47.78a.56.56,0,0,0,.59.6.86.86,0,0,0,.84-.58.66.66,0,0,0,0-.2Z"/><path d="M281.52,211.39c0-.36,0-.65,0-.94h.56l0,.57h0a1.28,1.28,0,0,1,1.15-.65c.48,0,1.23.29,1.23,1.48v2.07h-.63v-2c0-.56-.21-1-.8-1a.93.93,0,0,0-.89.94v2.09h-.63Z"/><path d="M288.65,212.16a1.7,1.7,0,0,1-1.73,1.84,1.65,1.65,0,0,1-1.66-1.79,1.7,1.7,0,0,1,1.72-1.84A1.64,1.64,0,0,1,288.65,212.16Zm-2.75,0c0,.76.44,1.33,1.05,1.33S288,213,288,212.18c0-.59-.29-1.33-1-1.33S285.89,211.54,285.89,212.2Z"/><path d="M289.45,211.39c0-.36,0-.65,0-.94H290l0,.57h0a1.28,1.28,0,0,1,1.15-.65c.48,0,1.23.29,1.23,1.48v2.07h-.63v-2c0-.56-.21-1-.8-1a.93.93,0,0,0-.89.94v2.09h-.63Z"/><path d="M295,211.59c0-.44,0-.8,0-1.13h.57l0,.59h0a1.36,1.36,0,0,1,1.23-.67,1.57,1.57,0,0,1,1.47,1.76,1.64,1.64,0,0,1-1.58,1.87,1.22,1.22,0,0,1-1.07-.54h0v1.89H295Zm.63.92a1.4,1.4,0,0,0,0,.26,1,1,0,0,0,.95.74c.67,0,1.05-.54,1.05-1.34s-.37-1.29-1-1.29a1,1,0,0,0-1,.78,1,1,0,0,0,0,.26Z"/><path d="M299,211.54c0-.41,0-.76,0-1.08h.55l0,.68h0a1,1,0,0,1,1-.76l.18,0V211l-.21,0a.88.88,0,0,0-.85.81,1.64,1.64,0,0,0,0,.29v1.85H299Z"/><path d="M304.45,212.16a1.7,1.7,0,0,1-1.73,1.84,1.65,1.65,0,0,1-1.66-1.79,1.69,1.69,0,0,1,1.72-1.84A1.64,1.64,0,0,1,304.45,212.16Zm-2.75,0c0,.76.44,1.33,1.05,1.33s1.05-.57,1.05-1.35c0-.59-.29-1.33-1-1.33S301.7,211.54,301.7,212.2Z"/><path d="M305.45,210.46l.68,2a8.66,8.66,0,0,1,.28.89h0c.08-.29.18-.57.29-.89l.67-2h.66l-1.36,3.47h-.6l-1.32-3.47Z"/><path d="M309.36,209.48a.39.39,0,0,1-.78,0,.38.38,0,0,1,.39-.39A.38.38,0,0,1,309.36,209.48Zm-.7,4.45v-3.47h.63v3.47Z"/><path d="M311.8,211.75v.47H310v-.47Z"/><path d="M205.64,217.45v4.2c0,.31,0,.66,0,.9h-.57l0-.6h0a1.28,1.28,0,0,1-1.18.68,1.58,1.58,0,0,1-1.48-1.76,1.66,1.66,0,0,1,1.56-1.86,1.16,1.16,0,0,1,1,.53h0v-2.07Zm-.63,3a1.11,1.11,0,0,0,0-.26.93.93,0,0,0-.91-.73c-.65,0-1,.57-1,1.34s.34,1.28,1,1.28a1,1,0,0,0,.93-.75,1.1,1.1,0,0,0,0-.27Z"/><path d="M207.39,218.09a.39.39,0,0,1-.78,0,.38.38,0,0,1,.39-.39A.38.38,0,0,1,207.39,218.09Zm-.7,4.45v-3.47h.63v3.47Z"/><path d="M208.28,221.89a1.65,1.65,0,0,0,.83.25c.46,0,.67-.23.67-.52s-.18-.47-.65-.64c-.62-.22-.92-.57-.92-1a1.07,1.07,0,0,1,1.2-1,1.74,1.74,0,0,1,.85.21l-.16.46a1.35,1.35,0,0,0-.71-.2c-.37,0-.58.21-.58.47s.21.42.66.59c.6.23.91.53.91,1s-.47,1-1.3,1a2,2,0,0,1-1-.24Z"/><path d="M212.73,220c0-.36,0-.65,0-.94h.56l0,.57h0a1.28,1.28,0,0,1,1.15-.65c.48,0,1.23.29,1.23,1.48v2.07h-.63v-2c0-.56-.21-1-.8-1a.93.93,0,0,0-.89.94v2.09h-.63Z"/><path d="M218.64,222.54l0-.44h0a1.3,1.3,0,0,1-1.06.52,1,1,0,0,1-1.06-1c0-.84.75-1.3,2.09-1.29v-.07a.72.72,0,0,0-.79-.8,1.72,1.72,0,0,0-.9.26l-.14-.42a2.16,2.16,0,0,1,1.14-.31c1.06,0,1.32.72,1.32,1.42v1.3a4.89,4.89,0,0,0,.06.83Zm-.09-1.77c-.69,0-1.47.11-1.47.78a.56.56,0,0,0,.6.6.86.86,0,0,0,.84-.58.66.66,0,0,0,0-.2Z"/><path d="M220.18,220c0-.36,0-.65,0-.94h.55l0,.56h0a1.2,1.2,0,0,1,1.09-.64,1,1,0,0,1,1,.7h0a1.44,1.44,0,0,1,.39-.45A1.18,1.18,0,0,1,224,219c.46,0,1.14.3,1.14,1.51v2h-.62v-2c0-.67-.24-1.07-.75-1.07a.82.82,0,0,0-.75.57,1,1,0,0,0-.05.32v2.14h-.62v-2.08c0-.55-.24-1-.72-1a.86.86,0,0,0-.78.63.88.88,0,0,0,0,.31v2.09h-.62Z"/><path d="M227.75,222.54v-3h-.49v-.48h.49v-.17a1.63,1.63,0,0,1,.4-1.21,1.21,1.21,0,0,1,.85-.32,1.47,1.47,0,0,1,.54.1l-.09.49a1,1,0,0,0-.4-.08c-.54,0-.67.47-.67,1v.19h.84v.48h-.84v3Z"/><path d="M232.68,221.59c0,.36,0,.67,0,.95h-.56l0-.57h0a1.31,1.31,0,0,1-1.15.65c-.54,0-1.2-.3-1.2-1.52v-2h.63V221c0,.66.2,1.1.77,1.1a.89.89,0,0,0,.89-.9v-2.13h.63Z"/><path d="M236.72,219.07c0,.25,0,.53,0,1v2a2,2,0,0,1-.49,1.58,1.84,1.84,0,0,1-1.26.42,2.24,2.24,0,0,1-1.16-.29l.16-.48a2,2,0,0,0,1,.27c.64,0,1.12-.34,1.12-1.21v-.39h0a1.24,1.24,0,0,1-1.1.58,1.55,1.55,0,0,1-1.48-1.69A1.67,1.67,0,0,1,235,219a1.15,1.15,0,0,1,1.08.6h0l0-.52Zm-.65,1.37a.92.92,0,0,0-.92-1c-.6,0-1,.51-1,1.31s.34,1.25,1,1.25a.92.92,0,0,0,.88-.65,1.09,1.09,0,0,0,.05-.34Z"/><path d="M238.41,218.09a.39.39,0,0,1-.78,0,.38.38,0,0,1,.39-.39A.37.37,0,0,1,238.41,218.09Zm-.7,4.45v-3.47h.63v3.47Z"/><path d="M240.14,218.07v1h.9v.48h-.9v1.87c0,.43.12.67.47.67a1.41,1.41,0,0,0,.37,0l0,.47a1.53,1.53,0,0,1-.56.09.88.88,0,0,1-.68-.26,1.29,1.29,0,0,1-.24-.9v-1.89H239v-.48h.54v-.83Z"/><path d="M242.46,218.09a.39.39,0,0,1-.78,0,.38.38,0,0,1,.39-.39A.37.37,0,0,1,242.46,218.09Zm-.7,4.45v-3.47h.63v3.47Z"/><path d="M246.34,221.59c0,.36,0,.67,0,.95h-.56l0-.57h0a1.31,1.31,0,0,1-1.15.65c-.54,0-1.2-.3-1.2-1.52v-2H244V221c0,.66.2,1.1.77,1.1a.91.91,0,0,0,.83-.57.94.94,0,0,0,.06-.32v-2.13h.63Z"/><path d="M248.91,220c0-.36,0-.65,0-.94h.56l0,.57h0a1.27,1.27,0,0,1,1.15-.65c.48,0,1.23.29,1.23,1.48v2.07h-.63v-2c0-.56-.21-1-.8-1a.9.9,0,0,0-.85.65.92.92,0,0,0,0,.29v2.09h-.63Z"/><path d="M253.63,218.07v1h.9v.48h-.9v1.87c0,.43.12.67.47.67a1.4,1.4,0,0,0,.37,0l0,.47a1.54,1.54,0,0,1-.56.09.88.88,0,0,1-.68-.26,1.29,1.29,0,0,1-.24-.9v-1.89h-.54v-.48H253v-.83Z"/><path d="M258.35,220.77a1.7,1.7,0,0,1-1.73,1.84,1.65,1.65,0,0,1-1.66-1.79,1.69,1.69,0,0,1,1.72-1.84A1.64,1.64,0,0,1,258.35,220.77Zm-2.75,0c0,.76.44,1.33,1.05,1.33s1.05-.57,1.05-1.35c0-.59-.29-1.33-1-1.33S255.6,220.15,255.6,220.81Z"/><path d="M259.91,218.07v1h.9v.48h-.9v1.87c0,.43.12.67.47.67a1.4,1.4,0,0,0,.37,0l0,.47a1.52,1.52,0,0,1-.56.09.87.87,0,0,1-.68-.26,1.29,1.29,0,0,1-.24-.9v-1.89h-.54v-.48h.54v-.83Z"/><path d="M263.45,222.54l0-.44h0a1.3,1.3,0,0,1-1.06.52,1,1,0,0,1-1.06-1c0-.84.75-1.3,2.09-1.29v-.07a.72.72,0,0,0-.79-.8,1.72,1.72,0,0,0-.9.26l-.14-.42a2.16,2.16,0,0,1,1.14-.31c1.06,0,1.32.72,1.32,1.42v1.3a4.89,4.89,0,0,0,.06.83Zm-.09-1.77c-.69,0-1.47.11-1.47.78a.56.56,0,0,0,.6.6.86.86,0,0,0,.84-.58.66.66,0,0,0,0-.2Z"/><path d="M265.72,218.07v1h.9v.48h-.9v1.87c0,.43.12.67.47.67a1.41,1.41,0,0,0,.37,0l0,.47a1.53,1.53,0,0,1-.56.09.87.87,0,0,1-.68-.26,1.29,1.29,0,0,1-.24-.9v-1.89h-.54v-.48h.54v-.83Z"/><path d="M270.24,221.59c0,.36,0,.67,0,.95h-.56l0-.57h0a1.31,1.31,0,0,1-1.15.65c-.54,0-1.2-.3-1.2-1.52v-2h.63V221c0,.66.2,1.1.78,1.1a.91.91,0,0,0,.83-.57.94.94,0,0,0,.06-.32v-2.13h.63Z"/><path d="M272.82,220.15c0-.41,0-.76,0-1.08h.55l0,.68h0a1,1,0,0,1,1-.76l.18,0v.59l-.21,0a.89.89,0,0,0-.85.81,1.85,1.85,0,0,0,0,.29v1.85h-.62Z"/><path d="M275.45,220.92a1.11,1.11,0,0,0,1.19,1.21,2.28,2.28,0,0,0,1-.18l.11.45a2.81,2.81,0,0,1-1.15.21,1.61,1.61,0,0,1-1.71-1.75,1.69,1.69,0,0,1,1.63-1.87,1.47,1.47,0,0,1,1.43,1.63,2.45,2.45,0,0,1,0,.29Zm1.85-.45a.9.9,0,0,0-.87-1,1,1,0,0,0-1,1Z"/><path d="M278.61,221.89a1.65,1.65,0,0,0,.83.25c.46,0,.67-.23.67-.52s-.18-.47-.65-.64c-.62-.22-.92-.57-.92-1a1.07,1.07,0,0,1,1.2-1,1.74,1.74,0,0,1,.85.21l-.16.46a1.36,1.36,0,0,0-.71-.2c-.37,0-.58.21-.58.47s.21.42.66.59c.6.23.91.53.91,1s-.47,1-1.3,1a2,2,0,0,1-1-.24Z"/><path d="M284,222.41a2.33,2.33,0,0,1-1,.2,1.65,1.65,0,0,1-1.73-1.77,1.76,1.76,0,0,1,1.86-1.84,2.11,2.11,0,0,1,.88.18l-.14.49a1.47,1.47,0,0,0-.73-.17,1.31,1.31,0,0,0,0,2.61,1.79,1.79,0,0,0,.78-.17Z"/><path d="M285.46,218.09a.39.39,0,0,1-.78,0,.38.38,0,0,1,.39-.39A.38.38,0,0,1,285.46,218.09Zm-.7,4.45v-3.47h.63v3.47Z"/><path d="M286.43,220c0-.36,0-.65,0-.94H287l0,.56h0a1.2,1.2,0,0,1,1.09-.64,1,1,0,0,1,1,.7h0a1.44,1.44,0,0,1,.39-.45,1.18,1.18,0,0,1,.77-.24c.46,0,1.14.3,1.14,1.51v2h-.62v-2c0-.67-.24-1.07-.75-1.07a.82.82,0,0,0-.75.57,1.09,1.09,0,0,0,0,.32v2.14h-.62v-2.08c0-.55-.24-1-.72-1a.94.94,0,0,0-.83.94v2.09h-.62Z"/><path d="M293.94,220.15c0-.41,0-.76,0-1.08h.55l0,.68h0a1,1,0,0,1,1-.76l.18,0v.59l-.21,0a.89.89,0,0,0-.85.81,1.75,1.75,0,0,0,0,.29v1.85h-.62Z"/><path d="M298.17,222.54l-.05-.44h0a1.29,1.29,0,0,1-1.06.52,1,1,0,0,1-1.06-1c0-.84.75-1.3,2.09-1.29v-.07a.72.72,0,0,0-.79-.8,1.73,1.73,0,0,0-.9.26l-.14-.42a2.15,2.15,0,0,1,1.14-.31c1.06,0,1.32.72,1.32,1.42v1.3a4.89,4.89,0,0,0,.06.83Zm-.09-1.77c-.69,0-1.47.11-1.47.78a.56.56,0,0,0,.59.6.86.86,0,0,0,.84-.58.66.66,0,0,0,0-.2Z"/><path d="M300.44,218.07v1h.9v.48h-.9v1.87c0,.43.12.67.47.67a1.4,1.4,0,0,0,.37,0l0,.47a1.54,1.54,0,0,1-.56.09.88.88,0,0,1-.68-.26,1.29,1.29,0,0,1-.24-.9v-1.89h-.54v-.48h.54v-.83Z"/><path d="M301.89,222.17a.42.42,0,0,1,.43-.45.45.45,0,1,1-.43.45Z"/><path d="M206.74,229c0-.67-.08-1.48-.07-2.09h0c-.17.57-.37,1.17-.61,1.84l-.85,2.35h-.47l-.78-2.3c-.23-.68-.42-1.3-.56-1.88h0c0,.6,0,1.41-.09,2.14l-.13,2.07h-.59l.34-4.83h.8l.82,2.34c.2.6.37,1.13.49,1.63h0c.12-.49.29-1,.51-1.63l.86-2.34h.8l.3,4.83h-.61Z"/><path d="M211.6,229.39a1.7,1.7,0,0,1-1.73,1.84,1.65,1.65,0,0,1-1.66-1.79,1.69,1.69,0,0,1,1.72-1.84A1.64,1.64,0,0,1,211.6,229.39Zm-2.75,0c0,.76.44,1.33,1.05,1.33s1.05-.57,1.05-1.35c0-.59-.29-1.33-1-1.33S208.84,228.76,208.84,229.42Z"/><path d="M214.62,226.71a.39.39,0,0,1-.78,0,.38.38,0,0,1,.39-.39A.37.37,0,0,1,214.62,226.71Zm-.7,4.45v-3.47h.63v3.47Z"/><path d="M218.5,230.21c0,.36,0,.67,0,.95H218l0-.57h0a1.31,1.31,0,0,1-1.15.65c-.54,0-1.2-.3-1.2-1.52v-2h.63v1.92c0,.66.2,1.1.78,1.1a.91.91,0,0,0,.83-.57.94.94,0,0,0,.06-.32v-2.13h.63Z"/><path d="M219.46,230.51a1.65,1.65,0,0,0,.83.25c.46,0,.67-.23.67-.52s-.18-.47-.65-.64c-.62-.22-.92-.57-.92-1a1.07,1.07,0,0,1,1.2-1,1.74,1.74,0,0,1,.85.21l-.16.46a1.35,1.35,0,0,0-.71-.2c-.37,0-.58.21-.58.47s.21.42.66.59.91.53.91,1-.47,1-1.3,1a2,2,0,0,1-1-.24Z"/><path d="M224.31,231.15l0-.44h0a1.3,1.3,0,0,1-1.06.52,1,1,0,0,1-1.06-1c0-.84.75-1.3,2.09-1.29v-.07a.72.72,0,0,0-.79-.8,1.72,1.72,0,0,0-.9.26l-.14-.42a2.16,2.16,0,0,1,1.14-.31c1.06,0,1.32.72,1.32,1.42v1.3a4.89,4.89,0,0,0,.06.83Zm-.09-1.77c-.69,0-1.47.11-1.47.78a.56.56,0,0,0,.6.6.86.86,0,0,0,.84-.58.66.66,0,0,0,0-.2Z"/><path d="M225.85,228.62c0-.36,0-.65,0-.94h.56l0,.57h0a1.28,1.28,0,0,1,1.15-.65c.48,0,1.23.29,1.23,1.48v2.07h-.63v-2c0-.56-.21-1-.8-1a.93.93,0,0,0-.89.94v2.09h-.63Z"/><path d="M230.54,226.71a.39.39,0,0,1-.78,0,.38.38,0,0,1,.39-.39A.37.37,0,0,1,230.54,226.71Zm-.7,4.45v-3.47h.63v3.47Z"/><path d="M231.52,226.06h.63v2.17h0a1.17,1.17,0,0,1,.45-.45,1.3,1.3,0,0,1,.65-.18c.47,0,1.21.29,1.21,1.48v2.07h-.63v-2c0-.56-.21-1-.8-1a.91.91,0,0,0-.85.63.76.76,0,0,0,0,.3v2.09h-.63Z"/><path d="M236.2,226.71a.39.39,0,0,1-.78,0,.38.38,0,0,1,.39-.39A.38.38,0,0,1,236.2,226.71Zm-.7,4.45v-3.47h.63v3.47Z"/><path d="M237.94,226.68v1h.9v.48h-.9V230c0,.43.12.67.47.67a1.4,1.4,0,0,0,.37,0l0,.47a1.52,1.52,0,0,1-.56.09.87.87,0,0,1-.68-.26,1.29,1.29,0,0,1-.24-.9v-1.89h-.54v-.48h.54v-.83Z"/><path d="M241.43,229.53a1.11,1.11,0,0,0,1.19,1.21,2.28,2.28,0,0,0,1-.18l.11.45a2.81,2.81,0,0,1-1.15.21,1.61,1.61,0,0,1-1.71-1.75,1.68,1.68,0,0,1,1.63-1.87,1.47,1.47,0,0,1,1.44,1.63,2.68,2.68,0,0,1,0,.29Zm1.85-.45a.9.9,0,0,0-.87-1,1,1,0,0,0-1,1Z"/><path d="M244.95,227.68l.49.75c.13.19.24.37.35.57h0c.12-.21.23-.39.34-.57l.49-.74h.68l-1.18,1.68,1.22,1.79h-.72l-.51-.78c-.14-.2-.25-.39-.37-.6h0c-.12.21-.24.39-.37.6l-.5.78h-.7l1.23-1.77-1.18-1.7Z"/><path d="M248.22,229.53a1.11,1.11,0,0,0,1.19,1.21,2.28,2.28,0,0,0,1-.18l.11.45a2.81,2.81,0,0,1-1.15.21,1.61,1.61,0,0,1-1.71-1.75,1.68,1.68,0,0,1,1.63-1.87,1.47,1.47,0,0,1,1.44,1.63,2.68,2.68,0,0,1,0,.29Zm1.85-.45a.9.9,0,0,0-.87-1,1,1,0,0,0-1,1Z"/><path d="M251.47,228.76c0-.41,0-.76,0-1.08H252l0,.68h0a1,1,0,0,1,1-.76l.18,0v.59l-.21,0a.88.88,0,0,0-.85.81,1.64,1.64,0,0,0,0,.29v1.85h-.62Z"/><path d="M254.55,226.71a.39.39,0,0,1-.78,0,.38.38,0,0,1,.39-.39A.37.37,0,0,1,254.55,226.71Zm-.7,4.45v-3.47h.63v3.47Z"/><path d="M257.45,231.15l-.05-.44h0a1.29,1.29,0,0,1-1.06.52,1,1,0,0,1-1.06-1c0-.84.75-1.3,2.09-1.29v-.07a.72.72,0,0,0-.79-.8,1.73,1.73,0,0,0-.9.26l-.14-.42a2.15,2.15,0,0,1,1.14-.31c1.06,0,1.32.72,1.32,1.42v1.3a4.89,4.89,0,0,0,.06.83Zm-.09-1.77c-.69,0-1.47.11-1.47.78a.56.56,0,0,0,.59.6.86.86,0,0,0,.84-.58.66.66,0,0,0,0-.2Z"/><path d="M260.42,230.51a1.66,1.66,0,0,0,.83.25c.46,0,.67-.23.67-.52s-.18-.47-.64-.64c-.62-.22-.92-.57-.92-1a1.07,1.07,0,0,1,1.2-1,1.74,1.74,0,0,1,.85.21l-.16.46a1.35,1.35,0,0,0-.71-.2c-.37,0-.58.21-.58.47s.21.42.66.59c.6.23.91.53.91,1s-.47,1-1.3,1a2,2,0,0,1-1-.24Z"/><path d="M266.49,229.39a1.7,1.7,0,0,1-1.73,1.84,1.65,1.65,0,0,1-1.66-1.79,1.69,1.69,0,0,1,1.72-1.84A1.64,1.64,0,0,1,266.49,229.39Zm-2.75,0c0,.76.44,1.33,1.05,1.33s1.05-.57,1.05-1.35c0-.59-.29-1.33-1-1.33S263.74,228.76,263.74,229.42Z"/><path d="M267.29,226.06h.63v5.09h-.63Z"/><path d="M271.89,230.21c0,.36,0,.67,0,.95h-.56l0-.57h0a1.3,1.3,0,0,1-1.15.65c-.54,0-1.2-.3-1.2-1.52v-2h.63v1.92c0,.66.2,1.1.77,1.1a.89.89,0,0,0,.89-.9v-2.13h.63Z"/><path d="M272.94,228.81c0-.44,0-.8,0-1.13h.57l0,.59h0a1.36,1.36,0,0,1,1.23-.67,1.57,1.57,0,0,1,1.47,1.76,1.64,1.64,0,0,1-1.58,1.87,1.22,1.22,0,0,1-1.07-.54h0v1.89h-.62Zm.63.92a1.4,1.4,0,0,0,0,.26,1,1,0,0,0,.95.74c.67,0,1.05-.54,1.05-1.34s-.37-1.29-1-1.29a1,1,0,0,0-1,.78,1,1,0,0,0,0,.26Z"/><path d="M277.78,226.68v1h.9v.48h-.9V230c0,.43.12.67.47.67a1.41,1.41,0,0,0,.37,0l0,.47a1.53,1.53,0,0,1-.56.09.87.87,0,0,1-.68-.26,1.29,1.29,0,0,1-.24-.9v-1.89h-.54v-.48h.54v-.83Z"/><path d="M280.1,226.71a.39.39,0,0,1-.78,0,.38.38,0,0,1,.39-.39A.38.38,0,0,1,280.1,226.71Zm-.7,4.45v-3.47H280v3.47Z"/><path d="M284.22,229.39a1.7,1.7,0,0,1-1.73,1.84,1.65,1.65,0,0,1-1.66-1.79,1.7,1.7,0,0,1,1.72-1.84A1.64,1.64,0,0,1,284.22,229.39Zm-2.75,0c0,.76.44,1.33,1.05,1.33s1.05-.57,1.05-1.35c0-.59-.29-1.33-1-1.33S281.46,228.76,281.46,229.42Z"/><path d="M285,228.62c0-.36,0-.65,0-.94h.56l0,.57h0a1.27,1.27,0,0,1,1.15-.65c.48,0,1.23.29,1.23,1.48v2.07h-.63v-2c0-.56-.21-1-.8-1a.9.9,0,0,0-.85.65.92.92,0,0,0,0,.29v2.09H285Z"/><path d="M290.52,228.62c0-.36,0-.65,0-.94h.56l0,.57h0a1.28,1.28,0,0,1,1.15-.65c.48,0,1.23.29,1.23,1.48v2.07h-.63v-2c0-.56-.21-1-.8-1a.9.9,0,0,0-.85.65.92.92,0,0,0,0,.29v2.09h-.63Z"/><path d="M297.65,229.39a1.7,1.7,0,0,1-1.73,1.84,1.65,1.65,0,0,1-1.66-1.79A1.69,1.69,0,0,1,296,227.6,1.64,1.64,0,0,1,297.65,229.39Zm-2.75,0c0,.76.44,1.33,1.05,1.33s1.05-.57,1.05-1.35c0-.59-.29-1.33-1-1.33S294.89,228.76,294.89,229.42Z"/><path d="M298.36,230.51a1.66,1.66,0,0,0,.83.25c.46,0,.67-.23.67-.52s-.18-.47-.64-.64c-.62-.22-.92-.57-.92-1a1.07,1.07,0,0,1,1.2-1,1.74,1.74,0,0,1,.85.21l-.16.46a1.35,1.35,0,0,0-.71-.2c-.37,0-.58.21-.58.47s.21.42.66.59c.6.23.91.53.91,1s-.47,1-1.3,1a2,2,0,0,1-1-.24Z"/><path d="M303.16,229.53a1.11,1.11,0,0,0,1.19,1.21,2.28,2.28,0,0,0,1-.18l.11.45a2.81,2.81,0,0,1-1.15.21,1.61,1.61,0,0,1-1.71-1.75,1.69,1.69,0,0,1,1.63-1.87,1.47,1.47,0,0,1,1.43,1.63,2.45,2.45,0,0,1,0,.29Zm1.85-.45a.9.9,0,0,0-.87-1,1,1,0,0,0-1,1Z"/><path d="M306.32,230.51a1.65,1.65,0,0,0,.83.25c.46,0,.67-.23.67-.52s-.18-.47-.65-.64c-.62-.22-.92-.57-.92-1a1.07,1.07,0,0,1,1.2-1,1.74,1.74,0,0,1,.85.21l-.16.46a1.36,1.36,0,0,0-.71-.2c-.37,0-.58.21-.58.47s.21.42.66.59c.6.23.91.53.91,1s-.47,1-1.3,1a2,2,0,0,1-1-.24Z"/><path d="M309.6,229.53a1.11,1.11,0,0,0,1.19,1.21,2.28,2.28,0,0,0,1-.18l.11.45a2.81,2.81,0,0,1-1.15.21,1.61,1.61,0,0,1-1.71-1.75,1.68,1.68,0,0,1,1.63-1.87,1.47,1.47,0,0,1,1.43,1.63,2.45,2.45,0,0,1,0,.29Zm1.85-.45a.9.9,0,0,0-.87-1,1,1,0,0,0-1,1Z"/><path d="M72.46,200l-1.08,3.28H70l3.54-10.42h1.62l3.55,10.42H77.27L76.16,200ZM75.88,199l-1-3c-.23-.68-.39-1.3-.54-1.9h0c-.16.62-.33,1.25-.53,1.89l-1,3Z"/><path d="M84.75,202.16h0a2.66,2.66,0,0,1-2.44,1.33c-1.75,0-3.17-1.51-3.17-3.79,0-2.8,1.81-4,3.38-4a2.46,2.46,0,0,1,2.3,1.3h0l0-1.13h1.28c0,.63,0,1.28,0,2.06v8.49H84.75Zm0-3.29a2.34,2.34,0,0,0-.06-.57,2,2,0,0,0-1.95-1.55c-1.41,0-2.26,1.19-2.26,2.88,0,1.48.71,2.78,2.21,2.78a2,2,0,0,0,1.95-1.48,2.3,2.3,0,0,0,.11-.65Z"/><path d="M94.26,201.28c0,.77,0,1.45.06,2H93.12L93,202.1h0a2.81,2.81,0,0,1-2.47,1.39c-1.17,0-2.58-.65-2.58-3.28v-4.37h1.36V200c0,1.42.43,2.38,1.67,2.38a2,2,0,0,0,1.79-1.24,2,2,0,0,0,.12-.7v-4.59h1.36Z"/><path d="M102.92,199.52a3.66,3.66,0,0,1-3.73,4,3.56,3.56,0,0,1-3.59-3.85,3.65,3.65,0,0,1,3.71-4A3.54,3.54,0,0,1,102.92,199.52ZM97,199.6c0,1.64.94,2.88,2.27,2.88s2.27-1.22,2.27-2.91c0-1.27-.63-2.87-2.24-2.87S97,198.18,97,199.6Z"/><path d="M104.09,201.93a3.56,3.56,0,0,0,1.79.54c1,0,1.45-.49,1.45-1.11s-.39-1-1.39-1.38c-1.35-.48-2-1.22-2-2.12a2.31,2.31,0,0,1,2.58-2.2,3.74,3.74,0,0,1,1.84.46l-.34,1a2.91,2.91,0,0,0-1.53-.43c-.8,0-1.25.46-1.25,1s.45.9,1.42,1.27c1.3.5,2,1.14,2,2.26,0,1.31-1,2.24-2.8,2.24a4.26,4.26,0,0,1-2.1-.51Z"/><path d="M109.84,201.93a3.55,3.55,0,0,0,1.79.54c1,0,1.45-.49,1.45-1.11s-.39-1-1.39-1.38c-1.34-.48-2-1.22-2-2.12a2.31,2.31,0,0,1,2.58-2.2,3.73,3.73,0,0,1,1.84.46l-.34,1a2.91,2.91,0,0,0-1.53-.43c-.8,0-1.25.46-1.25,1s.45.9,1.42,1.27c1.3.5,2,1.14,2,2.26,0,1.31-1,2.24-2.8,2.24a4.26,4.26,0,0,1-2.1-.51Z"/><path d="M122,201.28c0,.77,0,1.45.06,2H120.9l-.08-1.22h0a2.81,2.81,0,0,1-2.47,1.39c-1.17,0-2.58-.65-2.58-3.28v-4.37h1.36V200c0,1.42.43,2.38,1.67,2.38a2,2,0,0,0,1.79-1.24,2,2,0,0,0,.12-.7v-4.59H122Z"/><path d="M123.94,197.87c0-.77,0-1.41-.06-2h1.19l.06,1.21h0a2.58,2.58,0,0,1,2.35-1.38,2.21,2.21,0,0,1,2.12,1.5h0a3.1,3.1,0,0,1,.84-1,2.55,2.55,0,0,1,1.65-.53c1,0,2.46.65,2.46,3.25v4.41h-1.33v-4.24c0-1.44-.53-2.3-1.62-2.3a1.76,1.76,0,0,0-1.61,1.24,2.25,2.25,0,0,0-.11.68v4.62h-1.33v-4.48c0-1.19-.53-2.06-1.56-2.06a1.86,1.86,0,0,0-1.69,1.36,1.9,1.9,0,0,0-.11.66v4.51h-1.33Z"/><path d="M141.86,202.16h0a2.66,2.66,0,0,1-2.44,1.33c-1.75,0-3.17-1.51-3.17-3.79,0-2.8,1.81-4,3.38-4a2.46,2.46,0,0,1,2.3,1.3h0l0-1.13h1.28c0,.63,0,1.28,0,2.06v8.49h-1.36Zm0-3.29a2.3,2.3,0,0,0-.06-.57,2,2,0,0,0-1.95-1.55c-1.41,0-2.26,1.19-2.26,2.88,0,1.48.71,2.78,2.21,2.78a2,2,0,0,0,1.95-1.48,2.26,2.26,0,0,0,.11-.65Z"/><path d="M151.37,201.28c0,.77,0,1.45.06,2h-1.21l-.08-1.22h0a2.82,2.82,0,0,1-2.47,1.39c-1.17,0-2.58-.65-2.58-3.28v-4.37h1.36V200c0,1.42.43,2.38,1.67,2.38a2,2,0,0,0,1.79-1.24,2,2,0,0,0,.12-.7v-4.59h1.36Z"/><path d="M72.25,207.82a.84.84,0,0,1-1.68,0,.83.83,0,0,1,.85-.85A.81.81,0,0,1,72.25,207.82Zm-1.51,9.58v-7.48h1.36v7.48Z"/><path d="M78.49,217.41l-.11-.94h0A2.79,2.79,0,0,1,76,217.58a2.13,2.13,0,0,1-2.29-2.15c0-1.81,1.61-2.8,4.5-2.78v-.15a1.54,1.54,0,0,0-1.7-1.73,3.73,3.73,0,0,0-1.95.56l-.31-.9a4.64,4.64,0,0,1,2.46-.67c2.29,0,2.84,1.56,2.84,3.06v2.8a10.42,10.42,0,0,0,.12,1.79Zm-.2-3.82c-1.48,0-3.17.23-3.17,1.69a1.2,1.2,0,0,0,1.28,1.3,1.86,1.86,0,0,0,1.81-1.25,1.4,1.4,0,0,0,.08-.43Z"/><path d="M84.89,216a3.55,3.55,0,0,0,1.79.54c1,0,1.45-.49,1.45-1.11s-.39-1-1.39-1.38c-1.34-.48-2-1.22-2-2.12a2.31,2.31,0,0,1,2.58-2.2,3.74,3.74,0,0,1,1.84.46l-.34,1a2.91,2.91,0,0,0-1.53-.43c-.8,0-1.25.46-1.25,1s.45.9,1.42,1.27c1.3.5,2,1.14,2,2.26,0,1.31-1,2.24-2.8,2.24a4.26,4.26,0,0,1-2.1-.51Z"/><path d="M92.71,207.82a.84.84,0,0,1-1.69,0,.83.83,0,0,1,.85-.85A.81.81,0,0,1,92.71,207.82Zm-1.52,9.58v-7.48h1.36v7.48Z"/><path d="M94.82,212c0-.77,0-1.41-.06-2H96l.08,1.24h0a2.75,2.75,0,0,1,2.47-1.41c1,0,2.64.62,2.64,3.18v4.47H99.83V213.1c0-1.21-.45-2.21-1.73-2.21a1.93,1.93,0,0,0-1.82,1.39,2,2,0,0,0-.09.63v4.5H94.82Z"/><path d="M105,207.78v2.15h1.95v1H105v4c0,.93.26,1.45,1,1.45a3,3,0,0,0,.79-.09l.06,1a3.32,3.32,0,0,1-1.21.19,1.88,1.88,0,0,1-1.47-.57,2.77,2.77,0,0,1-.53-1.95V211H102.5v-1h1.16v-1.79Z"/><path d="M111.56,216a3.55,3.55,0,0,0,1.79.54c1,0,1.45-.49,1.45-1.11s-.39-1-1.39-1.38c-1.34-.48-2-1.22-2-2.12a2.31,2.31,0,0,1,2.58-2.2,3.74,3.74,0,0,1,1.84.46l-.34,1a2.91,2.91,0,0,0-1.53-.43c-.8,0-1.25.46-1.25,1s.45.9,1.42,1.27c1.3.5,2,1.14,2,2.26,0,1.31-1,2.24-2.8,2.24a4.26,4.26,0,0,1-2.1-.51Z"/><path d="M124.33,206.43v9c0,.67,0,1.42.06,1.93h-1.22l-.06-1.3h0a2.77,2.77,0,0,1-2.55,1.47c-1.81,0-3.2-1.53-3.2-3.8,0-2.49,1.53-4,3.35-4a2.5,2.5,0,0,1,2.26,1.14h0v-4.47ZM123,213a2.37,2.37,0,0,0-.06-.57,2,2,0,0,0-2-1.58c-1.41,0-2.24,1.24-2.24,2.89s.74,2.77,2.21,2.77a2,2,0,0,0,2-1.62,2.34,2.34,0,0,0,.06-.59Z"/></g><path d="M203.18,63.49l.94,2.7a12.32,12.32,0,0,1,.39,1.23h0c.11-.4.25-.79.41-1.23l.93-2.7h.91l-1.89,4.81h-.83l-1.83-4.81Z"/><path d="M211.88,65.86a2.35,2.35,0,0,1-2.39,2.55,2.29,2.29,0,0,1-2.3-2.47,2.35,2.35,0,0,1,2.38-2.55A2.28,2.28,0,0,1,211.88,65.86Zm-3.81,0c0,1.05.61,1.85,1.46,1.85S211,67,211,65.89c0-.81-.41-1.85-1.44-1.85S208.07,65,208.07,65.91Z"/><path d="M213,61.25h.88V68.3H213Z"/><path d="M219.36,67c0,.5,0,.93,0,1.31h-.77l-.05-.79h0a1.81,1.81,0,0,1-1.59.89c-.75,0-1.66-.42-1.66-2.11V63.49h.87v2.66c0,.91.28,1.53,1.07,1.53a1.26,1.26,0,0,0,1.15-.79,1.3,1.3,0,0,0,.08-.45v-3h.87Z"/><path d="M220.69,67.41a2.3,2.3,0,0,0,1.15.35c.63,0,.93-.32.93-.72s-.25-.65-.89-.88c-.86-.31-1.27-.79-1.27-1.36a1.48,1.48,0,0,1,1.66-1.41,2.4,2.4,0,0,1,1.18.3l-.22.64a1.88,1.88,0,0,0-1-.28c-.52,0-.8.3-.8.66s.29.58.91.81c.83.32,1.26.73,1.26,1.45s-.66,1.44-1.8,1.44a2.75,2.75,0,0,1-1.35-.33Z"/><path d="M249.68,68.3l-.07-.61h0a1.79,1.79,0,0,1-1.47.71A1.37,1.37,0,0,1,246.64,67c0-1.16,1-1.8,2.89-1.79v-.1A1,1,0,0,0,248.44,64a2.39,2.39,0,0,0-1.25.36l-.2-.58a3,3,0,0,1,1.58-.43c1.47,0,1.83,1,1.83,2v1.8a6.88,6.88,0,0,0,.08,1.15Zm-.13-2.45c-1,0-2,.15-2,1.08a.77.77,0,0,0,.83.83,1.2,1.2,0,0,0,1.16-.8.93.93,0,0,0,0-.28Z"/><path d="M254.47,68.3l-.07-.61h0a1.79,1.79,0,0,1-1.47.71A1.37,1.37,0,0,1,251.43,67c0-1.16,1-1.8,2.89-1.79v-.1A1,1,0,0,0,253.23,64a2.39,2.39,0,0,0-1.25.36l-.2-.58a3,3,0,0,1,1.58-.43c1.47,0,1.83,1,1.83,2v1.8a6.67,6.67,0,0,0,.08,1.15Zm-.13-2.45c-1,0-2,.15-2,1.08a.77.77,0,0,0,.82.83,1.2,1.2,0,0,0,1.16-.8.9.9,0,0,0,.05-.28Z"/><path d="M256.48,67.41a2.3,2.3,0,0,0,1.15.35c.64,0,.93-.32.93-.72s-.25-.65-.89-.88c-.87-.31-1.27-.79-1.27-1.36a1.48,1.48,0,0,1,1.66-1.41,2.4,2.4,0,0,1,1.18.3l-.22.64a1.87,1.87,0,0,0-1-.28c-.52,0-.8.3-.8.66s.29.58.91.81c.83.32,1.26.73,1.26,1.45s-.66,1.44-1.8,1.44a2.75,2.75,0,0,1-1.35-.33Z"/><path d="M264.69,61.25v5.81c0,.43,0,.91,0,1.24h-.79l0-.83h0a1.78,1.78,0,0,1-1.64.94A2.19,2.19,0,0,1,260.19,66a2.3,2.3,0,0,1,2.16-2.58,1.61,1.61,0,0,1,1.45.74h0V61.25Zm-.87,4.2a1.52,1.52,0,0,0,0-.37,1.29,1.29,0,0,0-1.26-1c-.9,0-1.44.79-1.44,1.86s.48,1.78,1.42,1.78a1.31,1.31,0,0,0,1.28-1,1.5,1.5,0,0,0,0-.38Z"/><path d="M266.23,68.3V64.16h-.67v-.67h.67v-.23a2.27,2.27,0,0,1,.56-1.68,1.67,1.67,0,0,1,1.17-.45,2,2,0,0,1,.75.14l-.12.68a1.31,1.31,0,0,0-.56-.11c-.75,0-.93.66-.93,1.39v.26h1.16v.67h-1.16V68.3Z"/><path d="M295.21,67c0,.5,0,.93,0,1.31h-.77l-.05-.79h0a1.81,1.81,0,0,1-1.59.89c-.75,0-1.66-.42-1.66-2.11V63.49H292v2.66c0,.91.28,1.53,1.07,1.53a1.26,1.26,0,0,0,1.15-.79,1.3,1.3,0,0,0,.08-.45v-3h.87Z"/><path d="M297.71,62.11v1.38H299v.67h-1.25v2.59c0,.6.17.93.66.93a1.92,1.92,0,0,0,.51-.06l0,.66a2.14,2.14,0,0,1-.77.12,1.21,1.21,0,0,1-.94-.37,1.77,1.77,0,0,1-.34-1.25V64.16h-.75v-.67h.75V62.34Z"/><path d="M302.61,68.3l-.07-.61h0a1.79,1.79,0,0,1-1.47.71A1.37,1.37,0,0,1,299.57,67c0-1.16,1-1.8,2.89-1.79v-.1A1,1,0,0,0,301.37,64a2.39,2.39,0,0,0-1.25.36l-.2-.58a3,3,0,0,1,1.58-.43c1.47,0,1.83,1,1.83,2v1.8a6.88,6.88,0,0,0,.08,1.15Zm-.13-2.45c-1,0-2,.15-2,1.08a.77.77,0,0,0,.83.83,1.2,1.2,0,0,0,1.16-.8.93.93,0,0,0,0-.28Z"/><path d="M304.74,65c0-.57,0-1.05,0-1.5h.76l0,.94h0a1.44,1.44,0,0,1,1.33-1.05,1,1,0,0,1,.25,0v.83a1.27,1.27,0,0,0-.3,0,1.23,1.23,0,0,0-1.17,1.12,2.49,2.49,0,0,0,0,.41V68.3h-.86Z"/><path d="M311.32,68.12a3.23,3.23,0,0,1-1.38.28,2.28,2.28,0,0,1-2.39-2.45,2.44,2.44,0,0,1,2.58-2.55,2.92,2.92,0,0,1,1.21.25l-.2.68a2,2,0,0,0-1-.23,1.81,1.81,0,0,0,0,3.62,2.5,2.5,0,0,0,1.07-.24Z"/><path d="M313.32,62.14a.54.54,0,0,1-1.08,0,.53.53,0,0,1,.55-.55A.52.52,0,0,1,313.32,62.14Zm-1,6.16V63.49h.87V68.3Z"/><path d="M318.82,61.25v5.81c0,.43,0,.91,0,1.24h-.78l0-.83h0a1.78,1.78,0,0,1-1.64.94A2.19,2.19,0,0,1,314.32,66a2.3,2.3,0,0,1,2.16-2.58,1.61,1.61,0,0,1,1.45.74h0V61.25Zm-.87,4.2a1.53,1.53,0,0,0,0-.37,1.28,1.28,0,0,0-1.26-1c-.9,0-1.44.79-1.44,1.86s.48,1.78,1.42,1.78a1.31,1.31,0,0,0,1.28-1,1.5,1.5,0,0,0,0-.38Z"/><g class="cls-7"><line class="cls-5" x1="331.87" y1="55.13" x2="331.87" y2="331.2"/><line class="cls-5" x1="66.84" y1="55.13" x2="66.84" y2="331.2"/></g></svg>