<svg id="Layer_1" data-name="Layer 1" xmlns="http://www.w3.org/2000/svg" xmlns:xlink="http://www.w3.org/1999/xlink" viewBox="0 0 36.77 76.98"><defs><style>.cls-1,.cls-7,.cls-8{fill:none;}.cls-2{fill:#f5f5f5;}.cls-3{fill:#fff;}.cls-4{fill:#b8b8b8;}.cls-5{fill:#dedede;}.cls-6{clip-path:url(#clip-path);}.cls-7,.cls-8{stroke:#232321;stroke-miterlimit:10;stroke-width:0.63px;}.cls-8{stroke-linecap:round;}</style><clipPath id="clip-path"><rect class="cls-1" x="1.46" y="9.28" width="33.45" height="62.35"/></clipPath></defs><title>classic_mobile</title><rect class="cls-2" x="1.46" y="9.28" width="33.45" height="62.35"/><rect class="cls-3" x="1.46" y="9.28" width="33.45" height="62.35"/><rect class="cls-4" x="19.05" y="20.15" width="15.86" height="51.48"/><rect class="cls-5" x="1.46" y="9.28" width="33.45" height="12.65"/><g class="cls-6"><path d="M28.77,31.3l-.23.7h-.3L29,29.78h.35L30.1,32H29.8l-.24-.7Zm.73-.22-.22-.64c0-.14-.08-.28-.12-.41h0c0,.13-.07.27-.11.4l-.22.64Z"/><path d="M31.51,31.94a1.06,1.06,0,0,1-.46.09.76.76,0,0,1-.79-.81.81.81,0,0,1,.86-.85,1,1,0,0,1,.4.08l-.07.22a.67.67,0,0,0-.34-.08.6.6,0,0,0,0,1.2.81.81,0,0,0,.36-.08Z"/><path d="M32,31.26a.51.51,0,0,0,.55.55,1.06,1.06,0,0,0,.44-.08l0,.21a1.28,1.28,0,0,1-.53.1.74.74,0,0,1-.78-.8.77.77,0,0,1,.75-.86.68.68,0,0,1,.66.75,1.16,1.16,0,0,1,0,.13Zm.85-.21a.41.41,0,0,0-.4-.47A.48.48,0,0,0,32,31Z"/><path d="M34.36,32l0-.2h0a.59.59,0,0,1-.49.24.45.45,0,0,1-.49-.46c0-.39.34-.6,1-.59v0a.33.33,0,0,0-.36-.37.8.8,0,0,0-.42.12l-.07-.19a1,1,0,0,1,.52-.14c.49,0,.61.33.61.65v.6a2.22,2.22,0,0,0,0,.38Zm0-.81c-.32,0-.68,0-.68.36a.26.26,0,0,0,.27.28.4.4,0,0,0,.39-.27.29.29,0,0,0,0-.09Z"/><path d="M37.14,29.66v1.93c0,.14,0,.3,0,.41H36.9v-.28h0a.59.59,0,0,1-.54.31.73.73,0,0,1-.68-.81.76.76,0,0,1,.72-.86.54.54,0,0,1,.48.24h0v-1Zm-.29,1.39a.5.5,0,0,0,0-.12.43.43,0,0,0-.42-.34c-.3,0-.48.26-.48.62s.16.59.47.59a.44.44,0,0,0,.43-.35.48.48,0,0,0,0-.12Z"/><path d="M28.51,34.35l.31.9a4.21,4.21,0,0,1,.13.41h0c0-.13.08-.26.14-.41l.31-.9h.3l-.63,1.6h-.28l-.61-1.6Z"/><path d="M31.4,35.14a.78.78,0,0,1-.79.85.76.76,0,0,1-.76-.82.78.78,0,0,1,.79-.85A.76.76,0,0,1,31.4,35.14Zm-1.27,0c0,.35.2.61.48.61s.48-.26.48-.62-.14-.61-.48-.61S30.13,34.85,30.13,35.16Z"/><path d="M31.76,33.61h.29v2.34h-.29Z"/><path d="M33.87,35.51c0,.17,0,.31,0,.44h-.26l0-.26h0a.6.6,0,0,1-.53.3c-.25,0-.55-.14-.55-.7v-.93h.29v.88c0,.3.09.51.36.51a.42.42,0,0,0,.38-.26.43.43,0,0,0,0-.15v-1h.29Z"/><path d="M34.35,34.88c0-.21,0-.37,0-.52h.26v.27h0a.63.63,0,0,1,.57-.31.72.72,0,0,1,.68.81.75.75,0,0,1-.73.86.56.56,0,0,1-.49-.25h0v.87h-.29Zm.29.42a.68.68,0,0,0,0,.12.45.45,0,0,0,.44.34c.31,0,.48-.25.48-.62s-.17-.59-.47-.59a.5.5,0,0,0-.46.48Z"/><path d="M36.57,33.9v.46H37v.22h-.42v.86c0,.2.06.31.22.31l.17,0v.22a.7.7,0,0,1-.26,0,.4.4,0,0,1-.31-.12.59.59,0,0,1-.11-.42v-.87H36v-.22h.25V34Z"/><path d="M28.4,38.8c0-.19,0-.35,0-.5h.25v.31h0a.48.48,0,0,1,.44-.35h.08v.27h-.1a.41.41,0,0,0-.39.37.84.84,0,0,0,0,.13v.85H28.4Z"/><path d="M29.61,39.15a.51.51,0,0,0,.55.55,1.05,1.05,0,0,0,.44-.08l0,.21a1.3,1.3,0,0,1-.53.1.74.74,0,0,1-.78-.8.77.77,0,0,1,.75-.86.68.68,0,0,1,.66.75,1,1,0,0,1,0,.13Zm.85-.21a.41.41,0,0,0-.4-.47.48.48,0,0,0-.45.47Z"/><path d="M31.09,38.82c0-.2,0-.37,0-.52h.26v.27h0a.63.63,0,0,1,.57-.31.72.72,0,0,1,.68.81.75.75,0,0,1-.73.86.56.56,0,0,1-.49-.25h0v.87h-.29Zm.29.42a.64.64,0,0,0,0,.12.45.45,0,0,0,.44.34c.31,0,.48-.25.48-.62s-.17-.59-.47-.59a.46.46,0,0,0-.44.36.47.47,0,0,0,0,.12Z"/><path d="M33,38.8c0-.19,0-.35,0-.5h.25v.31h0a.48.48,0,0,1,.44-.35h.08v.27h-.1a.41.41,0,0,0-.39.37.79.79,0,0,0,0,.13v.85H33Z"/><path d="M34.91,39.9l0-.2h0a.59.59,0,0,1-.49.24.45.45,0,0,1-.49-.46c0-.39.34-.6,1-.59v0a.33.33,0,0,0-.36-.37.8.8,0,0,0-.42.12L34,38.41a1,1,0,0,1,.52-.14c.49,0,.61.33.61.65v.6a2.22,2.22,0,0,0,0,.38Zm0-.81c-.32,0-.68,0-.68.36a.26.26,0,0,0,.27.28.4.4,0,0,0,.39-.27.29.29,0,0,0,0-.09Z"/><path d="M35.77,39.15a.51.51,0,0,0,.55.55,1.06,1.06,0,0,0,.44-.08l0,.21a1.3,1.3,0,0,1-.53.1.74.74,0,0,1-.78-.8.77.77,0,0,1,.75-.86.68.68,0,0,1,.66.75,1.16,1.16,0,0,1,0,.13Zm.85-.21a.41.41,0,0,0-.4-.47.48.48,0,0,0-.44.47Z"/><path d="M28.75,41.79v.46h.42v.22h-.42v.86c0,.2.06.31.22.31l.17,0v.22a.7.7,0,0,1-.26,0,.4.4,0,0,1-.31-.12.59.59,0,0,1-.11-.42v-.87h-.25v-.22h.25v-.38Z"/><path d="M29.81,41.8a.18.18,0,0,1-.36,0,.18.18,0,0,1,.18-.18A.17.17,0,0,1,29.81,41.8Zm-.32,2V42.25h.29v1.59Z"/><path d="M31.59,43.41c0,.16,0,.31,0,.43h-.26l0-.26h0a.6.6,0,0,1-.53.3c-.25,0-.55-.14-.55-.7v-.93h.29v.88c0,.3.09.51.36.51a.41.41,0,0,0,.41-.41v-1h.29Z"/><path d="M32.77,42.68c0-.17,0-.3,0-.43H33l0,.26h0a.59.59,0,0,1,.53-.3c.22,0,.56.13.56.68v1h-.29v-.92c0-.26-.1-.47-.37-.47a.41.41,0,0,0-.39.3.42.42,0,0,0,0,.14v1h-.29Z"/><path d="M34.93,41.79v.46h.42v.22h-.42v.86c0,.2.06.31.22.31l.17,0v.22a.7.7,0,0,1-.26,0,.4.4,0,0,1-.31-.12.59.59,0,0,1-.11-.42v-.87H34.4v-.22h.25v-.38Z"/><path d="M37.1,43a.78.78,0,0,1-.79.85.76.76,0,0,1-.76-.82.78.78,0,0,1,.79-.85A.76.76,0,0,1,37.1,43Zm-1.27,0c0,.35.2.61.48.61s.48-.26.48-.62-.14-.61-.48-.61S35.83,42.75,35.83,43.05Z"/><path d="M30.28,46.82c0-.31,0-.68,0-1h0c-.08.26-.17.54-.28.84l-.39,1.08h-.22L29,46.72c-.11-.31-.19-.6-.26-.86h0c0,.28,0,.65,0,1l-.06,1h-.27l.15-2.22h.37l.38,1.08c.09.27.17.52.22.75h0c.06-.22.13-.47.23-.75l.4-1.08h.37l.14,2.22h-.28Z"/><path d="M32.51,47a.78.78,0,0,1-.79.85A.76.76,0,0,1,31,47a.78.78,0,0,1,.79-.85A.76.76,0,0,1,32.51,47Zm-1.27,0c0,.35.2.61.48.61s.48-.26.48-.62-.14-.61-.48-.61S31.24,46.7,31.24,47Z"/><path d="M33.89,45.75a.18.18,0,0,1-.36,0,.18.18,0,0,1,.18-.18A.17.17,0,0,1,33.89,45.75Zm-.32,2V46.2h.29v1.6Z"/><path d="M35.68,47.36c0,.17,0,.31,0,.44h-.26l0-.26h0a.6.6,0,0,1-.53.3c-.25,0-.55-.14-.55-.7V46.2h.29v.88c0,.3.09.51.36.51a.41.41,0,0,0,.41-.41v-1h.29Z"/><path d="M36.11,47.5a.75.75,0,0,0,.38.12c.21,0,.31-.11.31-.24s-.08-.21-.3-.29-.42-.26-.42-.45a.49.49,0,0,1,.55-.47.79.79,0,0,1,.39.1l-.07.21a.62.62,0,0,0-.33-.09c-.17,0-.27.1-.27.22s.1.19.3.27.42.24.42.48-.22.48-.6.48a.9.9,0,0,1-.45-.11Z"/><path d="M28.4,50.58c0-.17,0-.3,0-.43h.25v.26h0a.55.55,0,0,1,.5-.29.47.47,0,0,1,.45.32h0a.66.66,0,0,1,.18-.21.54.54,0,0,1,.35-.11c.21,0,.52.14.52.69v.94h-.28v-.9c0-.31-.11-.49-.35-.49a.38.38,0,0,0-.34.26.48.48,0,0,0,0,.15v1H29.4v-1c0-.25-.11-.44-.33-.44a.4.4,0,0,0-.36.29.41.41,0,0,0,0,.14v1H28.4Z"/><path d="M31.47,49.7a.18.18,0,0,1-.36,0,.18.18,0,0,1,.18-.18A.17.17,0,0,1,31.47,49.7Zm-.32,2v-1.6h.29v1.6Z"/><path d="M31.92,49.41h.29v2.34h-.29Z"/><path d="M33.39,50.58c0-.17,0-.3,0-.43h.25v.26h0a.55.55,0,0,1,.5-.29.47.47,0,0,1,.45.32h0a.66.66,0,0,1,.18-.21.54.54,0,0,1,.35-.11c.21,0,.52.14.52.69v.94h-.28v-.9c0-.31-.11-.49-.35-.49a.38.38,0,0,0-.34.26.48.48,0,0,0,0,.15v1h-.28v-1c0-.25-.11-.44-.33-.44a.4.4,0,0,0-.36.29.41.41,0,0,0,0,.14v1h-.28Z"/><path d="M37.58,50.93a.78.78,0,0,1-.79.85A.76.76,0,0,1,36,51a.78.78,0,0,1,.79-.85A.76.76,0,0,1,37.58,50.93Zm-1.27,0c0,.35.2.61.48.61s.48-.26.48-.62-.14-.61-.48-.61S36.31,50.65,36.31,51Z"/><path d="M28.4,54.6c0-.19,0-.35,0-.5h.25v.31h0a.48.48,0,0,1,.44-.35h.08v.27h-.1a.41.41,0,0,0-.39.37.84.84,0,0,0,0,.13v.85H28.4Z"/><path d="M30.81,55.26c0,.16,0,.31,0,.43h-.26l0-.26h0a.6.6,0,0,1-.53.3c-.25,0-.55-.14-.55-.7V54.1h.29V55c0,.3.09.51.36.51a.41.41,0,0,0,.41-.41v-1h.29Z"/><path d="M31.29,54.53c0-.17,0-.3,0-.43h.25v.26h0a.55.55,0,0,1,.5-.29.47.47,0,0,1,.45.32h0a.67.67,0,0,1,.18-.21.55.55,0,0,1,.35-.11c.21,0,.52.14.52.69v.94h-.28v-.9c0-.31-.11-.49-.35-.49a.38.38,0,0,0-.34.26.48.48,0,0,0,0,.15v1h-.28v-1c0-.25-.11-.44-.33-.44a.4.4,0,0,0-.36.29.4.4,0,0,0,0,.14v1h-.28Z"/><path d="M35.82,55.45h0a.57.57,0,0,1-.52.28.73.73,0,0,1-.68-.81.76.76,0,0,1,.72-.86.52.52,0,0,1,.49.28h0V54.1h.27c0,.13,0,.27,0,.44v1.81h-.29Zm0-.7a.48.48,0,0,0,0-.12.42.42,0,0,0-.42-.33c-.3,0-.48.25-.48.61s.15.59.47.59a.43.43,0,0,0,.42-.32.49.49,0,0,0,0-.14Z"/><path d="M37.92,55.26c0,.16,0,.31,0,.43h-.26l0-.26h0a.6.6,0,0,1-.53.3c-.25,0-.55-.14-.55-.7V54.1h.29V55c0,.3.09.51.36.51a.41.41,0,0,0,.41-.41v-1h.29Z"/><path d="M29.78,57.3v1.93c0,.14,0,.3,0,.41h-.26v-.28h0a.59.59,0,0,1-.54.31.73.73,0,0,1-.68-.81A.76.76,0,0,1,29,58a.53.53,0,0,1,.48.24h0v-1Zm-.29,1.39a.49.49,0,0,0,0-.12.43.43,0,0,0-.42-.34c-.3,0-.48.26-.48.62s.16.59.47.59a.44.44,0,0,0,.43-.35.48.48,0,0,0,0-.12Z"/><path d="M30.42,58.9a.51.51,0,0,0,.55.55,1.06,1.06,0,0,0,.44-.08l0,.21a1.3,1.3,0,0,1-.53.1.74.74,0,0,1-.78-.8.77.77,0,0,1,.75-.86.68.68,0,0,1,.66.75,1.16,1.16,0,0,1,0,.13Zm.85-.21a.41.41,0,0,0-.4-.47.48.48,0,0,0-.44.47Z"/><path d="M31.91,58.48c0-.17,0-.3,0-.43h.26l0,.26h0a.59.59,0,0,1,.53-.3c.22,0,.56.13.56.68v1H33v-.92c0-.26-.1-.47-.37-.47a.41.41,0,0,0-.39.3.42.42,0,0,0,0,.14v1h-.29Z"/><path d="M34.05,57.6a.18.18,0,0,1-.36,0,.18.18,0,0,1,.18-.18A.17.17,0,0,1,34.05,57.6Zm-.32,2V58H34v1.59Z"/><path d="M34.85,57.59V58h.42v.22h-.42v.86c0,.2.06.31.22.31l.17,0v.22a.7.7,0,0,1-.26,0,.4.4,0,0,1-.31-.12.59.59,0,0,1-.11-.42v-.87h-.25V58h.25v-.38Z"/><path d="M35.91,57.6a.18.18,0,0,1-.36,0,.18.18,0,0,1,.18-.18A.17.17,0,0,1,35.91,57.6Zm-.32,2V58h.29v1.59Z"/><path d="M37.8,58.83a.78.78,0,0,1-.79.85.76.76,0,0,1-.76-.82A.78.78,0,0,1,37,58,.76.76,0,0,1,37.8,58.83Zm-1.27,0c0,.35.2.61.48.61s.48-.26.48-.62-.14-.61-.48-.61S36.54,58.54,36.54,58.85Z"/><path d="M28.51,62l.31.9a4.21,4.21,0,0,1,.13.41h0c0-.13.08-.26.14-.41l.31-.9h.3l-.63,1.6h-.28L28.2,62Z"/><path d="M30.12,62.85a.51.51,0,0,0,.55.55,1.06,1.06,0,0,0,.44-.08l0,.21a1.28,1.28,0,0,1-.53.1.74.74,0,0,1-.78-.8.77.77,0,0,1,.75-.86.68.68,0,0,1,.66.75,1.16,1.16,0,0,1,0,.13Zm.85-.21a.41.41,0,0,0-.4-.47.48.48,0,0,0-.44.47Z"/><path d="M31.6,61.25h.29v2.34H31.6Z"/><path d="M32.38,61.25h.29v2.34h-.29Z"/><path d="M34,63.59l0-.2h0a.59.59,0,0,1-.49.24.45.45,0,0,1-.49-.46c0-.39.34-.6,1-.59v0a.33.33,0,0,0-.36-.37.79.79,0,0,0-.42.12l-.07-.19a1,1,0,0,1,.52-.14c.49,0,.61.33.61.65v.6a2.22,2.22,0,0,0,0,.38Zm0-.81c-.32,0-.68,0-.68.36a.26.26,0,0,0,.27.28.4.4,0,0,0,.39-.27.3.3,0,0,0,0-.09Z"/><path d="M34.73,63.59c0-.11,0-.27,0-.41V61.25H35v1h0a.59.59,0,0,1,.54-.29.72.72,0,0,1,.67.81.76.76,0,0,1-.71.85.57.57,0,0,1-.53-.3h0v.26ZM35,63a.56.56,0,0,0,0,.11.45.45,0,0,0,.44.34c.3,0,.48-.25.48-.61s-.16-.59-.47-.59a.46.46,0,0,0-.44.36.56.56,0,0,0,0,.12Z"/><path d="M38.06,62.78a.78.78,0,0,1-.79.85.76.76,0,0,1-.76-.82.78.78,0,0,1,.79-.85A.76.76,0,0,1,38.06,62.78Zm-1.27,0c0,.35.2.61.48.61s.48-.26.48-.62-.14-.61-.48-.61S36.79,62.49,36.79,62.8Z"/><path d="M28.36,67.24a.75.75,0,0,0,.38.12c.21,0,.31-.11.31-.24s-.08-.21-.3-.29-.42-.26-.42-.45a.49.49,0,0,1,.55-.47.79.79,0,0,1,.39.1l-.07.21a.62.62,0,0,0-.33-.09c-.17,0-.27.1-.27.22s.1.19.3.27.42.24.42.48-.22.48-.6.48a.91.91,0,0,1-.45-.11Z"/><path d="M31,67.1c0,.17,0,.31,0,.44H30.8l0-.26h0a.6.6,0,0,1-.53.3c-.25,0-.55-.14-.55-.7v-.93H30v.88c0,.3.09.51.36.51a.42.42,0,0,0,.38-.26.43.43,0,0,0,0-.15v-1H31Z"/><path d="M31.52,66.38c0-.17,0-.3,0-.43h.25v.26h0a.55.55,0,0,1,.5-.29.47.47,0,0,1,.45.32h0a.66.66,0,0,1,.18-.21.54.54,0,0,1,.35-.11c.21,0,.52.14.52.69v.94h-.28v-.9c0-.31-.11-.49-.35-.49a.38.38,0,0,0-.34.26.48.48,0,0,0,0,.15v1h-.28v-1c0-.25-.11-.44-.33-.44a.4.4,0,0,0-.36.29.41.41,0,0,0,0,.14v1h-.28Z"/><path d="M35,65.2h.29v2.34H35Z"/><path d="M36.62,67.54l0-.2h0a.59.59,0,0,1-.49.24.45.45,0,0,1-.49-.46c0-.39.34-.6,1-.59v0a.33.33,0,0,0-.36-.37.8.8,0,0,0-.42.12L35.73,66a1,1,0,0,1,.52-.14c.49,0,.61.33.61.65v.6a2.22,2.22,0,0,0,0,.38Zm0-.81c-.32,0-.68,0-.68.36a.26.26,0,0,0,.27.28.4.4,0,0,0,.39-.27.29.29,0,0,0,0-.09Z"/><path d="M28.83,69.51h-.68v-.24H29.8v.24h-.68v2h-.29Z"/><path d="M30,70.74a.51.51,0,0,0,.55.55,1.06,1.06,0,0,0,.44-.08l0,.21a1.3,1.3,0,0,1-.53.1.74.74,0,0,1-.78-.8.77.77,0,0,1,.75-.86.68.68,0,0,1,.66.75,1.16,1.16,0,0,1,0,.13Zm.85-.21a.41.41,0,0,0-.4-.47.48.48,0,0,0-.44.47Z"/><path d="M31.45,70.32c0-.17,0-.3,0-.43h.25v.26h0a.55.55,0,0,1,.5-.29.47.47,0,0,1,.45.32h0a.67.67,0,0,1,.18-.21.55.55,0,0,1,.35-.11c.21,0,.52.14.52.69v.94h-.28v-.9c0-.31-.11-.49-.35-.49a.38.38,0,0,0-.34.26.48.48,0,0,0,0,.15v1h-.28v-1c0-.25-.11-.44-.33-.44a.4.4,0,0,0-.36.29.4.4,0,0,0,0,.14v1h-.28Z"/><path d="M34.89,70.32c0-.17,0-.3,0-.43h.26l0,.26h0a.59.59,0,0,1,.53-.3c.22,0,.56.13.56.68v1H36v-.92c0-.26-.1-.47-.37-.47a.41.41,0,0,0-.39.3.42.42,0,0,0,0,.14v1h-.29Z"/><path d="M37,69.44a.18.18,0,0,1-.36,0,.18.18,0,0,1,.18-.18A.17.17,0,0,1,37,69.44Zm-.32,2V69.89H37v1.59Z"/><path d="M28.4,73.1h.29v2.34H28.4Z"/><path d="M30.51,75c0,.17,0,.31,0,.44h-.26l0-.26h0a.6.6,0,0,1-.53.3c-.25,0-.55-.14-.55-.7v-.93h.29v.88c0,.3.09.51.36.51a.41.41,0,0,0,.41-.41v-1h.29Z"/><path d="M31,74.36c0-.21,0-.37,0-.52h.26v.27h0a.63.63,0,0,1,.57-.31.72.72,0,0,1,.68.81.75.75,0,0,1-.73.86.56.56,0,0,1-.49-.25h0v.87H31Zm.29.42a.68.68,0,0,0,0,.12.45.45,0,0,0,.44.34c.31,0,.48-.25.48-.62S32,74,31.74,74a.5.5,0,0,0-.46.48Z"/><path d="M33.21,73.38v.46h.42v.22h-.42v.86c0,.2.06.31.22.31l.17,0v.22a.7.7,0,0,1-.26,0,.4.4,0,0,1-.31-.12.59.59,0,0,1-.11-.42v-.87h-.25v-.22h.25v-.38Z"/><path d="M34.84,75.44l0-.2h0a.59.59,0,0,1-.49.24.45.45,0,0,1-.49-.46c0-.39.34-.6,1-.59v0a.33.33,0,0,0-.36-.37.8.8,0,0,0-.42.12l-.07-.19a1,1,0,0,1,.52-.14c.49,0,.61.33.61.65v.6a2.22,2.22,0,0,0,0,.38Zm0-.81c-.32,0-.68,0-.68.36a.26.26,0,0,0,.27.28.4.4,0,0,0,.39-.27.29.29,0,0,0,0-.09Z"/><path d="M35.7,74.69a.51.51,0,0,0,.55.55,1.06,1.06,0,0,0,.44-.08l0,.21a1.28,1.28,0,0,1-.53.1.74.74,0,0,1-.78-.8.77.77,0,0,1,.75-.86.68.68,0,0,1,.66.75,1.16,1.16,0,0,1,0,.13Zm.85-.21a.41.41,0,0,0-.4-.47.48.48,0,0,0-.44.47Z"/><path d="M-1.91,31.4c0-.23,0-.42,0-.6h.35l0,.36h0a.76.76,0,0,1,.69-.41.65.65,0,0,1,.63.44h0A.9.9,0,0,1,0,30.91a.75.75,0,0,1,.49-.16c.29,0,.73.19.73,1V33H.85V31.76c0-.42-.16-.68-.48-.68a.52.52,0,0,0-.47.37.66.66,0,0,0,0,.2V33H-.53V31.69c0-.35-.15-.61-.46-.61a.55.55,0,0,0-.5.4.55.55,0,0,0,0,.2V33h-.39Z"/><path d="M3.74,32.41c0,.23,0,.43,0,.6H3.4l0-.36h0a.83.83,0,0,1-.73.41c-.35,0-.76-.19-.76-1V30.81h.4V32c0,.42.13.7.49.7a.58.58,0,0,0,.53-.36.59.59,0,0,0,0-.21V30.81h.4Z"/><path d="M4.34,32.6a1.06,1.06,0,0,0,.53.16c.29,0,.43-.15.43-.33s-.11-.3-.41-.41-.58-.36-.58-.62a.68.68,0,0,1,.76-.65,1.1,1.1,0,0,1,.54.14l-.1.29a.86.86,0,0,0-.45-.13c-.24,0-.37.14-.37.3s.13.26.42.37.58.34.58.67-.3.66-.83.66a1.27,1.27,0,0,1-.62-.15Z"/><path d="M.08,36.23V38.9c0,.2,0,.42,0,.57H-.26l0-.38h0a.82.82,0,0,1-.75.43A1,1,0,0,1-2,38.4a1.06,1.06,0,0,1,1-1.19.74.74,0,0,1,.67.34h0V36.23Zm-.4,1.93a.72.72,0,0,0,0-.17.59.59,0,0,0-.58-.46c-.42,0-.66.37-.66.85s.22.82.65.82a.6.6,0,0,0,.59-.48.7.7,0,0,0,0-.17Z"/><path d="M.57,42.69v2.67c0,.2,0,.42,0,.57H.22l0-.38h0A.82.82,0,0,1-.56,46a1,1,0,0,1-.94-1.12,1.06,1.06,0,0,1,1-1.19A.74.74,0,0,1,.16,44h0V42.69Zm-.4,1.93a.72.72,0,0,0,0-.17A.59.59,0,0,0-.43,44c-.42,0-.66.37-.66.85s.22.82.65.82a.6.6,0,0,0,.59-.48.7.7,0,0,0,0-.17Z"/><path d="M1.27,45.93V44H1v-.31h.31v-.11a1,1,0,0,1,.26-.77.77.77,0,0,1,.54-.21.93.93,0,0,1,.34.06L2.35,43A.6.6,0,0,0,2.09,43c-.34,0-.43.3-.43.64v.12H2.2V44H1.67v1.9Z"/><path d="M4.5,44.8A1.08,1.08,0,0,1,3.4,46a1,1,0,0,1-1.06-1.14,1.08,1.08,0,0,1,1.1-1.17A1,1,0,0,1,4.5,44.8Zm-1.75,0c0,.48.28.85.67.85s.67-.36.67-.86S3.9,44,3.43,44,2.75,44.41,2.75,44.83Z"/><path d="M.93,51.78c0,.23,0,.43,0,.6H.59l0-.36h0a.83.83,0,0,1-.73.41c-.35,0-.76-.19-.76-1V50.17h.4V51.4c0,.42.13.7.49.7a.58.58,0,0,0,.53-.36.59.59,0,0,0,0-.21V50.17h.4Z"/><path d="M1.59,50.86c0-.26,0-.48,0-.69h.35v.43H2a.66.66,0,0,1,.61-.48h.11v.38H2.55A.56.56,0,0,0,2,51a1.17,1.17,0,0,0,0,.19v1.18h-.4Z"/><path d="M8.18,16.2l0-.28h0a.82.82,0,0,1-.68.33.63.63,0,0,1-.68-.63c0-.53.47-.83,1.33-.82v0a.46.46,0,0,0-.5-.51,1.11,1.11,0,0,0-.57.16l-.09-.26a1.38,1.38,0,0,1,.73-.2c.68,0,.84.46.84.9v.83a3.11,3.11,0,0,0,0,.53Zm-.06-1.13c-.44,0-.94.07-.94.5a.36.36,0,0,0,.38.38.55.55,0,0,0,.53-.37.42.42,0,0,0,0-.13Z"/><path d="M10.37,16.2l0-.28h0a.82.82,0,0,1-.68.33A.63.63,0,0,1,9,15.62c0-.53.47-.83,1.33-.82v0a.46.46,0,0,0-.5-.51,1.11,1.11,0,0,0-.57.16l-.09-.26a1.38,1.38,0,0,1,.73-.2c.68,0,.84.46.84.9v.83a3.11,3.11,0,0,0,0,.53Zm-.06-1.13c-.44,0-.94.07-.94.5a.36.36,0,0,0,.38.38.55.55,0,0,0,.53-.37.42.42,0,0,0,0-.13Z"/><path d="M11.29,15.79a1.06,1.06,0,0,0,.53.16c.29,0,.43-.15.43-.33s-.11-.3-.41-.41-.58-.36-.58-.62a.68.68,0,0,1,.76-.65,1.1,1.1,0,0,1,.54.14l-.1.29a.86.86,0,0,0-.45-.13c-.24,0-.37.14-.37.3s.13.26.42.37.58.34.58.67-.3.66-.83.66a1.27,1.27,0,0,1-.62-.15Z"/><path d="M15.06,13v2.67c0,.2,0,.42,0,.57h-.36l0-.38h0a.82.82,0,0,1-.75.43A1,1,0,0,1,13,15.13a1.06,1.06,0,0,1,1-1.19.74.74,0,0,1,.67.34h0V13Zm-.4,1.93a.72.72,0,0,0,0-.17.59.59,0,0,0-.58-.46c-.42,0-.66.37-.66.85s.22.82.65.82a.6.6,0,0,0,.59-.48.7.7,0,0,0,0-.17Z"/><path d="M15.76,16.2V14.3h-.31V14h.31v-.11a1,1,0,0,1,.26-.77.77.77,0,0,1,.54-.21.93.93,0,0,1,.34.06l-.05.31a.6.6,0,0,0-.26-.05c-.34,0-.43.3-.43.64V14h.53v.31h-.53v1.9Z"/><path d="M30.61,15.6c0,.23,0,.43,0,.6h-.36l0-.36h0a.83.83,0,0,1-.73.41c-.35,0-.76-.19-.76-1V14h.4v1.22c0,.42.13.7.49.7a.58.58,0,0,0,.53-.36.59.59,0,0,0,0-.21V14h.4Z"/><path d="M31.75,13.36V14h.57v.31h-.57v1.19c0,.27.08.43.3.43a.9.9,0,0,0,.23,0l0,.3a1,1,0,0,1-.36.05.56.56,0,0,1-.43-.17.82.82,0,0,1-.16-.58V14.3H31V14h.34v-.53Z"/><path d="M34,16.2l0-.28h0a.82.82,0,0,1-.68.33.63.63,0,0,1-.68-.63c0-.53.47-.83,1.33-.82v0a.46.46,0,0,0-.5-.51,1.11,1.11,0,0,0-.57.16l-.09-.26a1.38,1.38,0,0,1,.73-.2c.68,0,.84.46.84.9v.83a3.11,3.11,0,0,0,0,.53Zm-.06-1.13c-.44,0-.94.07-.94.5a.36.36,0,0,0,.38.38.55.55,0,0,0,.53-.37.42.42,0,0,0,0-.13Z"/><path d="M35,14.69c0-.26,0-.48,0-.69h.35v.43h0a.66.66,0,0,1,.61-.48h.11v.38h-.14a.56.56,0,0,0-.54.52,1.17,1.17,0,0,0,0,.19V16.2H35Z"/><path d="M38,16.12a1.48,1.48,0,0,1-.63.13,1,1,0,0,1-1.1-1.13A1.12,1.12,0,0,1,37.44,14a1.34,1.34,0,0,1,.56.11l-.09.31a.93.93,0,0,0-.47-.11.83.83,0,0,0,0,1.66,1.15,1.15,0,0,0,.49-.11Z"/></g><path class="cls-7" d="M.51,11.09h.62a.2.2,0,0,1,.2.2v3.06a.2.2,0,0,1-.2.2H.51a.19.19,0,0,1-.19-.19V11.28A.19.19,0,0,1,.51,11.09Z"/><rect class="cls-7" x="0.31" y="18.42" width="0.59" height="2.44" rx="0.13" ry="0.13"/><rect class="cls-7" x="0.31" y="24.71" width="0.59" height="2.44" rx="0.13" ry="0.13"/><rect class="cls-8" x="0.81" y="0.88" width="35.65" height="75.79" rx="5.15" ry="5.15"/><rect class="cls-7" x="24.79" y="0.31" width="5.86" height="0.5" rx="0.18" ry="0.18"/><path class="cls-3" d="M31.31.88H6A5.15,5.15,0,0,0,.81,6V71.51A5.15,5.15,0,0,0,6,76.67H31.31a5.15,5.15,0,0,0,5.15-5.15V6A5.15,5.15,0,0,0,31.31.88m2.74,65.31H3.22V11.47H34.05Z"/><path class="cls-8" d="M31.31.88H6A5.15,5.15,0,0,0,.81,6V71.51A5.15,5.15,0,0,0,6,76.67H31.31a5.15,5.15,0,0,0,5.15-5.15V6A5.15,5.15,0,0,0,31.31.88Zm2.74,65.31H3.22V11.47H34.05Z"/><circle class="cls-7" cx="18.64" cy="70.94" r="3.43" transform="translate(-50.9 47.62) rotate(-56.75)"/><rect class="cls-7" x="17.55" y="69.85" width="2.17" height="2.17" rx="0.51" ry="0.51"/><circle class="cls-7" cx="18.64" cy="4.4" r="0.7" transform="translate(1.75 13.43) rotate(-41.43)"/><rect class="cls-7" x="15.25" y="6.35" width="6.77" height="1.66" rx="0.78" ry="0.78"/></svg>