<svg id="Layer_1" data-name="Layer 1" xmlns="http://www.w3.org/2000/svg" xmlns:xlink="http://www.w3.org/1999/xlink" viewBox="0 0 179.36 120.61"><defs><style>.cls-1,.cls-6{fill:none;}.cls-2{fill:#f5f5f5;}.cls-3{fill:#fff;}.cls-4{fill:#b8b8b8;}.cls-5{clip-path:url(#clip-path);}.cls-6{stroke:#232321;stroke-miterlimit:10;stroke-width:0.5px;}</style><clipPath id="clip-path"><rect class="cls-1" x="23.91" y="9.51" width="129.6" height="88.53"/></clipPath></defs><title>fluid_desktop_small</title><rect class="cls-2" x="3.03" y="4.5" width="168.19" height="91.04"/><rect class="cls-3" x="23.91" y="9.51" width="129.6" height="88.53"/><rect class="cls-4" x="23.91" y="9.51" width="41.38" height="43.1"/><path d="M44.21,27.53h0L42,28.69l-.32-1.28L44.4,26h1.43V38.36H44.21Z"/><rect class="cls-4" x="123.22" y="9.51" width="30.29" height="27.78"/><path d="M134.73,28.77a5.61,5.61,0,0,0,2.74.78c2.15,0,2.82-1.37,2.8-2.4,0-1.73-1.58-2.48-3.2-2.48h-.93V23.42h.93c1.22,0,2.76-.63,2.76-2.1,0-1-.63-1.87-2.17-1.87a4.55,4.55,0,0,0-2.48.82l-.44-1.22a5.88,5.88,0,0,1,3.24-1c2.44,0,3.54,1.45,3.54,3A3.08,3.08,0,0,1,139.25,24v0A3.23,3.23,0,0,1,142,27.19c0,2-1.54,3.72-4.52,3.72a6.3,6.3,0,0,1-3.22-.84Z"/><rect class="cls-4" x="68.05" y="9.51" width="52.31" height="43.1"/><path d="M90.17,38.36v-1l1.32-1.28c3.16-3,4.59-4.61,4.61-6.48a2.21,2.21,0,0,0-2.46-2.42,4.21,4.21,0,0,0-2.63,1L90.47,27A5.44,5.44,0,0,1,94,25.76a3.49,3.49,0,0,1,3.79,3.6c0,2.29-1.66,4.14-4.27,6.65l-1,.91v0h5.57v1.39Z"/><rect class="cls-4" x="23.91" y="55.47" width="41.38" height="42.57"/><path d="M45.75,84.32V80.94H40V79.84l5.53-7.91h1.81v7.7h1.73v1.32H47.33v3.37Zm0-4.69V75.49q0-1,.06-1.94h-.06c-.38.72-.69,1.26-1,1.83l-3,4.21v0Z"/><rect class="cls-4" x="123.22" y="40.15" width="30.29" height="27.78"/><path d="M141.4,50.13a6,6,0,0,0-1.26.08,5,5,0,0,0-4.31,4.4h.06a3.78,3.78,0,0,1,6.73,2.57,4.14,4.14,0,0,1-4.12,4.36c-2.65,0-4.38-2.06-4.38-5.28a7.79,7.79,0,0,1,2.1-5.58,6.74,6.74,0,0,1,4-1.83,8,8,0,0,1,1.22-.09Zm-.48,7.15c0-1.77-1-2.84-2.55-2.84A2.76,2.76,0,0,0,136,56a1.43,1.43,0,0,0-.19.74c0,2,1,3.54,2.73,3.54C140,60.25,140.93,59,140.93,57.28Z"/><rect class="cls-4" x="68.05" y="55.47" width="52.31" height="42.57"/><path d="M97.56,73.34H92.84l-.48,3.18a6.63,6.63,0,0,1,1-.08,5.24,5.24,0,0,1,2.67.67,3.53,3.53,0,0,1,1.77,3.18,4.3,4.3,0,0,1-4.61,4.23,6.06,6.06,0,0,1-3.09-.76l.42-1.28a5.55,5.55,0,0,0,2.65.69,2.73,2.73,0,0,0,2.93-2.69c0-1.6-1.09-2.74-3.56-2.74a12.75,12.75,0,0,0-1.72.13l.8-5.95h5.93Z"/><g class="cls-5"><path d="M48.61,117.89V119l-5.39,11.28H41.48l5.37-11v0H40.8v-1.39Z"/></g><rect class="cls-4" x="123.22" y="70.79" width="30.29" height="27.25"/><path d="M134.73,90.05a5.61,5.61,0,0,0,2.74.78c2.15,0,2.82-1.37,2.8-2.4,0-1.73-1.58-2.48-3.2-2.48h-.93V84.7h.93c1.22,0,2.76-.63,2.76-2.1,0-1-.63-1.87-2.17-1.87a4.55,4.55,0,0,0-2.48.82l-.44-1.22a5.88,5.88,0,0,1,3.24-1c2.44,0,3.54,1.45,3.54,3a3.08,3.08,0,0,1-2.29,2.92v0A3.23,3.23,0,0,1,142,88.47c0,2-1.54,3.72-4.52,3.72a6.3,6.3,0,0,1-3.22-.84Z"/><g class="cls-5"><path d="M135.3,121.44a7,7,0,0,0,1.35-.06,4.67,4.67,0,0,0,2.59-1.2,5.43,5.43,0,0,0,1.64-3.3h-.06a3.64,3.64,0,0,1-2.92,1.33,3.59,3.59,0,0,1-3.66-3.79,4.25,4.25,0,0,1,4.23-4.4c2.54,0,4.1,2.06,4.1,5.22a7.83,7.83,0,0,1-2.13,5.81,6.2,6.2,0,0,1-3.6,1.66,7.81,7.81,0,0,1-1.54.09Zm.61-7.13a2.38,2.38,0,0,0,2.38,2.63,2.77,2.77,0,0,0,2.44-1.3,1.11,1.11,0,0,0,.15-.61c0-2.12-.78-3.74-2.53-3.74C136.92,111.3,135.91,112.55,135.91,114.31Z"/><path d="M90,127.13a3.54,3.54,0,0,1,2.46-3.32l0-.06a3.07,3.07,0,0,1-2-2.78c0-2,1.66-3.3,3.83-3.3,2.4,0,3.6,1.51,3.6,3a3.15,3.15,0,0,1-2,2.9v.06a3.43,3.43,0,0,1,2.5,3.2c0,2.15-1.85,3.6-4.21,3.6C91.58,130.49,90,128.95,90,127.13Zm6.67-.08c0-1.51-1-2.23-2.72-2.71a2.69,2.69,0,0,0-2.23,2.55,2.29,2.29,0,0,0,2.48,2.36A2.24,2.24,0,0,0,96.69,127.06Zm-4.61-6.19c0,1.24.93,1.91,2.36,2.29a2.44,2.44,0,0,0,1.89-2.25,1.93,1.93,0,0,0-2.1-2A2,2,0,0,0,92.07,120.86Z"/></g><rect class="cls-3" x="76.44" y="96.25" width="26.47" height="22.45"/><rect class="cls-6" x="76.44" y="96.25" width="26.47" height="22.45"/><rect class="cls-3" x="66.65" y="114.69" width="46.06" height="5.67"/><rect class="cls-6" x="66.65" y="114.69" width="46.06" height="5.67"/><path class="cls-3" d="M4.12.25H175.24a3.88,3.88,0,0,1,3.88,3.88V98.38a3.88,3.88,0,0,1-3.88,3.88H4.12A3.88,3.88,0,0,1,.25,98.38V4.12A3.88,3.88,0,0,1,4.12.25m6.31,93.12H169V9H10.43Z"/><path class="cls-6" d="M4.12.25H175.24a3.88,3.88,0,0,1,3.88,3.88V98.38a3.88,3.88,0,0,1-3.88,3.88H4.12A3.88,3.88,0,0,1,.25,98.38V4.12A3.88,3.88,0,0,1,4.12.25Zm6.31,93.12H169V9H10.43Z"/></svg>