<svg id="Layer_1" data-name="Layer 1" xmlns="http://www.w3.org/2000/svg" xmlns:xlink="http://www.w3.org/1999/xlink" viewBox="0 0 36.77 76.98"><defs><style>.cls-1,.cls-6,.cls-7{fill:none;}.cls-2{fill:#fff;}.cls-3{fill:#dedede;}.cls-4{clip-path:url(#clip-path);}.cls-5{fill:#b8b8b8;}.cls-6,.cls-7{stroke:#232321;stroke-miterlimit:10;stroke-width:0.63px;}.cls-7{stroke-linecap:round;}</style><clipPath id="clip-path"><rect class="cls-1" x="3.26" y="11.58" width="30.91" height="57.54"/></clipPath></defs><title>fluid_mobile</title><rect class="cls-2" x="3.26" y="11.58" width="30.91" height="57.54"/><rect class="cls-3" x="3.26" y="11.58" width="30.91" height="4.64"/><g class="cls-4"><path d="M5,12.48h.31v1h0a.56.56,0,0,1,.22-.21.63.63,0,0,1,.31-.09c.23,0,.59.14.59.72v1H6.09V14c0-.27-.1-.5-.39-.5a.44.44,0,0,0-.41.31.37.37,0,0,0,0,.15v1H5Z"/><path d="M6.89,12.48H7.2v1h0a.56.56,0,0,1,.22-.21.63.63,0,0,1,.31-.09c.23,0,.59.14.59.72v1H8V14c0-.27-.1-.5-.39-.5a.44.44,0,0,0-.41.31.37.37,0,0,0,0,.15v1H6.89Z"/><path d="M8.82,12.48h.31v1h0a.57.57,0,0,1,.22-.21.63.63,0,0,1,.31-.09c.23,0,.59.14.59.72v1H9.95V14c0-.27-.1-.5-.39-.5a.44.44,0,0,0-.41.31.37.37,0,0,0,0,.15v1H8.82Z"/></g><rect class="cls-5" x="4.23" y="17.38" width="28.98" height="15.26"/><path d="M18.48,22.86h0l-1.31.71-.2-.78,1.65-.88h.87v7.54h-1Z"/><rect class="cls-5" x="4.23" y="33.8" width="28.98" height="15.26"/><path d="M16.26,45.86v-.63l.8-.78c1.92-1.83,2.79-2.81,2.81-3.94A1.35,1.35,0,0,0,18.37,39a2.57,2.57,0,0,0-1.6.64L16.45,39a3.31,3.31,0,0,1,2.13-.76,2.12,2.12,0,0,1,2.31,2.19c0,1.39-1,2.52-2.6,4l-.6.56v0h3.39v.85Z"/><rect class="cls-5" x="4.23" y="50.22" width="28.98" height="15.26"/><path d="M16.51,61.11a3.41,3.41,0,0,0,1.67.48c1.31,0,1.72-.84,1.71-1.46,0-1.05-1-1.51-1.95-1.51h-.57v-.77h.57c.74,0,1.68-.38,1.68-1.28,0-.6-.38-1.14-1.32-1.14a2.77,2.77,0,0,0-1.51.5l-.27-.74a3.59,3.59,0,0,1,2-.58c1.48,0,2.16.88,2.16,1.8a1.87,1.87,0,0,1-1.39,1.77v0a2,2,0,0,1,1.68,1.94c0,1.21-.94,2.26-2.75,2.26a3.83,3.83,0,0,1-2-.51Z"/><rect class="cls-5" x="4.23" y="66.64" width="28.98" height="2.49"/><g class="cls-4"><path d="M19.42,78.7V76.65h-3.5V76l3.36-4.81h1.1v4.69h1.05v.8H20.38V78.7Zm0-2.85V73.33q0-.59,0-1.18h0c-.23.44-.42.76-.63,1.11l-1.84,2.56v0Z"/></g><path class="cls-6" d="M.51,11.09h.62a.2.2,0,0,1,.2.2v3.06a.2.2,0,0,1-.2.2H.51a.19.19,0,0,1-.19-.19V11.28A.19.19,0,0,1,.51,11.09Z"/><rect class="cls-6" x="0.31" y="18.42" width="0.59" height="2.44" rx="0.13" ry="0.13"/><rect class="cls-6" x="0.31" y="24.71" width="0.59" height="2.44" rx="0.13" ry="0.13"/><rect class="cls-7" x="0.81" y="0.88" width="35.65" height="75.79" rx="5.15" ry="5.15"/><rect class="cls-6" x="24.79" y="0.31" width="5.86" height="0.5" rx="0.18" ry="0.18"/><path class="cls-2" d="M31.31.88H6A5.15,5.15,0,0,0,.81,6V71.51A5.15,5.15,0,0,0,6,76.67H31.31a5.15,5.15,0,0,0,5.15-5.15V6A5.15,5.15,0,0,0,31.31.88m2.74,65.31H3.22V11.47H34.05Z"/><path class="cls-7" d="M31.31.88H6A5.15,5.15,0,0,0,.81,6V71.51A5.15,5.15,0,0,0,6,76.67H31.31a5.15,5.15,0,0,0,5.15-5.15V6A5.15,5.15,0,0,0,31.31.88Zm2.74,65.31H3.22V11.47H34.05Z"/><circle class="cls-6" cx="18.64" cy="70.94" r="3.43" transform="translate(-50.9 47.62) rotate(-56.75)"/><rect class="cls-6" x="17.55" y="69.85" width="2.17" height="2.17" rx="0.51" ry="0.51"/><circle class="cls-6" cx="18.64" cy="4.4" r="0.7" transform="translate(1.75 13.43) rotate(-41.43)"/><rect class="cls-6" x="15.25" y="6.35" width="6.77" height="1.66" rx="0.78" ry="0.78"/></svg>