<svg id="Layer_1" data-name="Layer 1" xmlns="http://www.w3.org/2000/svg" viewBox="0 0 134.62 49.21"><defs><style>.cls-1{fill:#b8b8b8;}.cls-2,.cls-3,.cls-4,.cls-5,.cls-6{fill:none;stroke:#000;stroke-width:0.21px;}.cls-3{stroke-dasharray:2.58 2.58;}.cls-4{stroke-dasharray:2.73 2.73;}.cls-5{stroke-dasharray:2.63 2.63;}.cls-6{stroke-dasharray:2.72 2.72;}</style></defs><title>paddingC</title><rect class="cls-1" x="2.21" y="0.4" width="63" height="44.73"/><rect class="cls-1" x="69.41" y="0.4" width="63" height="34.23"/><polyline class="cls-2" points="69.19 47.81 69.19 49.1 67.9 49.1"/><line class="cls-3" x1="65.32" y1="49.11" x2="4.77" y2="49.11"/><polyline class="cls-2" points="3.48 49.1 2.19 49.1 2.19 47.81"/><line class="cls-4" x1="2.19" y1="45.08" x2="2.19" y2="2.76"/><polyline class="cls-2" points="2.19 1.4 2.19 0.1 3.48 0.1"/><line class="cls-3" x1="6.06" y1="0.11" x2="66.61" y2="0.11"/><polyline class="cls-2" points="67.9 0.1 69.19 0.1 69.19 1.4"/><line class="cls-4" x1="69.19" y1="4.13" x2="69.19" y2="46.45"/><polyline class="cls-2" points="132.19 36.81 132.19 38.1 130.9 38.1"/><line class="cls-5" x1="128.27" y1="38.11" x2="71.8" y2="38.11"/><polyline class="cls-2" points="70.48 38.1 69.19 38.1 69.19 36.81"/><line class="cls-6" x1="69.19" y1="34.09" x2="69.19" y2="2.76"/><polyline class="cls-2" points="69.19 1.4 69.19 0.1 70.48 0.1"/><line class="cls-5" x1="73.11" y1="0.11" x2="129.59" y2="0.11"/><polyline class="cls-2" points="130.9 0.1 132.19 0.1 132.19 1.4"/><line class="cls-6" x1="132.19" y1="4.12" x2="132.19" y2="35.45"/></svg>