<svg id="Layer_1" data-name="Layer 1" xmlns="http://www.w3.org/2000/svg" viewBox="0 0 134.62 49.21"><defs><style>.cls-1,.cls-2,.cls-3,.cls-4{fill:none;stroke:#000;stroke-width:0.21px;}.cls-1{stroke-dasharray:2.45 2.45;}.cls-2{stroke-dasharray:2.59 2.59;}.cls-4{stroke-dasharray:2.4 2.4;}.cls-5{fill:#b8b8b8;}</style></defs><title>paddingB</title><line class="cls-1" x1="0.1" y1="3.78" x2="0.1" y2="46.59"/><line class="cls-2" x1="3.98" y1="49.04" x2="64.72" y2="49.04"/><line class="cls-1" x1="67.31" y1="45.37" x2="67.31" y2="2.55"/><line class="cls-2" x1="63.43" y1="0.11" x2="2.69" y2="0.11"/><path class="cls-3" d="M1.4.11H.1V1.33m67.2,0V.11H66M66,49h1.29V47.81m-67.2,0V49H1.4"/><line class="cls-4" x1="67.31" y1="3.71" x2="67.31" y2="36.14"/><line class="cls-2" x1="71.18" y1="38.54" x2="131.93" y2="38.54"/><line class="cls-4" x1="134.51" y1="34.93" x2="134.51" y2="2.51"/><line class="cls-2" x1="130.63" y1="0.11" x2="69.89" y2="0.11"/><path class="cls-3" d="M68.6.1H67.31v1.2m67.2,0V.1h-1.29m0,38.43h1.29v-1.2m-67.2,0v1.2H68.6"/><rect class="cls-5" x="2.21" y="2.21" width="63" height="44.73"/><rect class="cls-5" x="69.41" y="2.21" width="63" height="34.23"/></svg>