<svg id="Layer_1" data-name="Layer 1" xmlns="http://www.w3.org/2000/svg" viewBox="0 0 450.71 187.27"><defs><style>.cls-1,.cls-9{fill:none;stroke:#20201e;}.cls-1{stroke-width:3px;}.cls-2,.cls-4,.cls-7,.cls-8{fill:#20201e;}.cls-3{fill:#fff;}.cls-4{font-size:9px;}.cls-4,.cls-7{font-family:OpenSans-Bold, Open Sans;font-weight:700;}.cls-5{letter-spacing:0em;}.cls-6{letter-spacing:0em;}.cls-7,.cls-8{font-size:7px;}.cls-8{font-family:OpenSans, Open Sans;}.cls-9{stroke-width:0.56px;}</style></defs><title>massMedia</title><line class="cls-1" x1="155.54" y1="43.64" x2="277.89" y2="43.64"/><polygon class="cls-2" points="283.09 43.64 275.14 36.25 275.14 51.04 283.09 43.64"/><rect class="cls-3" x="80.5" y="32.14" width="82.04" height="23"/><text class="cls-4" transform="translate(105.76 47.09)"><tspan class="cls-5">Se</tspan><tspan class="cls-6" x="10.36" y="0">n</tspan><tspan class="cls-5" x="16.32" y="0">de</tspan><tspan x="27.42" y="0">r</tspan></text><rect class="cls-1" x="80.5" y="32.14" width="82.04" height="23"/><rect class="cls-3" x="284.59" y="32.14" width="82.04" height="23"/><text class="cls-4" transform="translate(300.99 47.09)"><tspan class="cls-6">E</tspan><tspan class="cls-5" x="5.08" y="0">mp</tspan><tspan class="cls-6" x="19.7" y="0">f</tspan><tspan class="cls-5" x="23.22" y="0">ä</tspan><tspan class="cls-6" x="28.7" y="0">n</tspan><tspan class="cls-5" x="34.65" y="0">ge</tspan><tspan x="45.14" y="0">r</tspan></text><rect class="cls-1" x="284.59" y="32.14" width="82.04" height="23"/><line class="cls-1" x1="155.54" y1="108.56" x2="277.89" y2="108.56"/><polygon class="cls-2" points="283.09 108.56 275.14 101.16 275.14 115.95 283.09 108.56"/><rect class="cls-3" x="80.5" y="104.14" width="82.04" height="23"/><text class="cls-4" transform="translate(105.76 119.09)"><tspan class="cls-5">Se</tspan><tspan class="cls-6" x="10.36" y="0">n</tspan><tspan class="cls-5" x="16.32" y="0">de</tspan><tspan x="27.42" y="0">r</tspan></text><rect class="cls-1" x="80.5" y="104.14" width="82.04" height="23"/><rect class="cls-3" x="284.59" y="104.14" width="82.04" height="23"/><text class="cls-4" transform="translate(300.99 119.09)"><tspan class="cls-6">E</tspan><tspan class="cls-5" x="5.08" y="0">mp</tspan><tspan class="cls-6" x="19.7" y="0">f</tspan><tspan class="cls-5" x="23.22" y="0">ä</tspan><tspan class="cls-6" x="28.7" y="0">n</tspan><tspan class="cls-5" x="34.65" y="0">ge</tspan><tspan x="45.14" y="0">r</tspan></text><rect class="cls-1" x="284.59" y="104.14" width="82.04" height="23"/><text class="cls-7" transform="translate(168.74 6)">Massenmedien</text><text class="cls-8" transform="translate(168.74 18)">In klassischen Massenmedien verläuft die Kommunikation oftmals nur einseitig.</text><text class="cls-8" transform="translate(168.74 90)">Der Rückkanal verläuft, über die Filterung vom Sender, wieder an die Empfänger</text><path class="cls-9" d="M295.35,135.91l2.08,2.16M294.27,137l2.08,2.16M293.21,138l2,2.2M292.1,139l2,2.2M291,140l2,2.25M289.89,141l2,2.25m-3.1-1.28,1.94,2.29m-3.08-1.32,1.94,2.29m-3.07-1.36,1.88,2.33m-3.05-1.39,1.88,2.34m-3-1.43,1.83,2.38m-3-1.46,1.83,2.38m-3-1.51,1.77,2.42m-3-1.54,1.77,2.42m-3-1.59,1.71,2.47M278.19,150l1.65,2.51m-2.9-1.68,1.65,2.51m-2.88-1.72,1.58,2.55m-2.86-1.76L276,155m-2.84-1.8,1.52,2.59m-2.81-1.83,1.52,2.59m-2.79-1.88,1.45,2.63m-2.73-1.93,1.38,2.66M268,156l1.38,2.67m-2.68-2,1.31,2.7m-2.66-2,1.31,2.7M264,158l1.23,2.74m-2.6-2.12,1.23,2.73m-2.58-2.17,1.16,2.77m-2.51-2.21,1.08,2.8m-2.49-2.25,1.09,2.8m-2.46-2.29,1,2.83m-2.43-2.32,1,2.82m-2.4-2.36.93,2.85m-2.32-2.4.86,2.87m-2.3-2.44.86,2.87M250.12,163l.79,2.9m-2.24-2.5.79,2.9m-2.2-2.53.71,2.92m-2.17-2.56.71,2.91m-2.14-2.6.64,2.93m-2.07-2.62.56,2.95m-2-2.67L242,168m-2-2.68.49,3m-2-2.71.49,3m-1.94-2.74.42,3M235.6,166l.42,3m-1.88-2.79.35,3m-1.84-2.8.35,3m-1.81-2.84.28,3m-1.74-2.85.22,3m-1.71-2.88.22,3m-1.68-2.89.15,3m-1.65-2.92.15,3M223.79,167l.09,3m-1.59-3,.09,3m-1.56-3,0,3m-1.53-3,0,3m-1.5-3,0,3m-1.46-3,0,3m-1.42-3-.12,3m-1.38-3.06-.12,3m-1.34-3.09-.2,3m-1.3-3.09-.2,3M209,166.6l-.28,3m-1.21-3.13-.28,3M206,166.28l-.36,3m-1.09-3.16-.44,3m-1-3.19-.44,3m-1-3.19-.52,3m-1-3.21-.52,3m-.92-3.22-.6,2.94m-.88-3.24-.6,2.94m-.83-3.25-.67,2.92m-.79-3.26-.67,2.92m-.75-3.27-.75,2.91m-.71-3.28-.75,2.91m-.66-3.3-.82,2.89m-.62-3.3-.82,2.89m-.57-3.32-.9,2.86m-.53-3.31-.9,2.86m-.49-3.34-1,2.84m-.41-3.32-1,2.81m-.37-3.33-1,2.81m-.33-3.33-1.11,2.79m-.28-3.34L177.75,162m-.24-3.34-1.18,2.76m-.2-3.35-1.18,2.76m-.16-3.35-1.25,2.73m-.12-3.35-1.25,2.73m-.08-3.36-1.31,2.7m0-3.36-1.31,2.7m0-3.36-1.38,2.66m0-3.35-1.38,2.66m.09-3.36-1.44,2.63m.13-3.35-1.44,2.63m.17-3.36-1.5,2.6m.23-3.33-1.56,2.56m.28-3.34-1.56,2.56m.31-3.33-1.62,2.52m.36-3.33-1.62,2.52m.39-3.32-1.68,2.49m.43-3.33L155,149.83m.47-3.32L153.75,149m.51-3.32-1.73,2.45m.54-3.31-1.79,2.41m.58-3.3-1.79,2.41m.62-3.3-1.84,2.37m.66-3.29-1.84,2.37m.69-3.29-1.89,2.33m.73-3.28-1.89,2.33m.76-3.27-1.94,2.29m.8-3.26L143,140.58m.84-3.26-2,2.24m.87-3.24-2,2.24m.9-3.24-2,2.2m.93-3.22-2,2.2m1-3.22-2.08,2.16m1-3.2-2.08,2.16"/><polygon class="cls-2" points="300.3 133.15 289.44 133.46 299.82 144 300.3 133.15"/><path class="cls-9" d="M278.46,134.64l1.85,2.36m-3-1.42,1.85,2.36m-3-1.46,1.81,2.4m-3-1.52,1.76,2.43m-3-1.57,1.71,2.47m-3-1.61,1.71,2.47m-2.94-1.65,1.65,2.5m-2.9-1.7,1.6,2.53m-2.86-1.75,1.55,2.57m-2.82-1.8,1.5,2.6M266.11,143l1.5,2.6m-2.79-1.88,1.44,2.63m-2.75-1.93,1.39,2.66m-2.71-2,1.34,2.69m-2.69-2,1.34,2.69m-2.68-2.05,1.28,2.71m-2.63-2.1,1.22,2.74m-2.58-2.14,1.16,2.77m-2.56-2.18,1.16,2.76M254,148.75l1.11,2.79m-2.49-2.26,1,2.81m-2.44-2.31,1,2.83m-2.39-2.35.93,2.85m-2.37-2.39.93,2.85M247,151.17l.86,2.87m-2.29-2.46.8,2.89m-2.23-2.5.74,2.91m-2.21-2.53.74,2.91m-2.18-2.56.68,2.92m-2.13-2.6.62,2.94m-2.07-2.64.55,2.95m-2-2.67.55,2.95m-2-2.7.49,3m-2-2.73.42,3m-1.89-2.76.36,3m-1.86-2.8.36,3m-1.83-2.82.29,3M228,154.75l.23,3m-1.71-2.88.16,3M225,154.94l.16,3M223.53,155l.1,3m-1.58-3,0,3m-1.55-3,0,3m-1.52-3,0,3m-1.47-3-.06,3m-1.43-3-.1,3m-1.41-3-.1,3m-1.39-3.07-.15,3m-1.34-3.08-.2,3m-1.29-3.1-.25,3m-1.26-3.11-.25,3m-1.23-3.14-.3,3m-1.18-3.15-.35,3m-1.12-3.17-.41,3m-1.06-3.18-.47,3m-1-3.2-.53,3m-1-3.22-.53,3m-.92-3.24-.59,2.94m-.86-3.25-.66,2.93m-.79-3.27-.72,2.91M194,152l-.79,2.9m-.64-3.29-.85,2.88m-.6-3.31-.86,2.88m-.55-3.33-.92,2.85m-.47-3.34-1,2.83m-.39-3.34-1.06,2.81m-.32-3.35L184.39,152m-.23-3.35-1.2,2.75m-.15-3.35-1.26,2.72m-.07-3.34-1.33,2.69m0-3.36-1.33,2.69m0-3.37-1.4,2.65m.1-3.36L176,148m.18-3.35-1.52,2.58m.25-3.34-1.58,2.55m.33-3.33L172,145.62m.37-3.34-1.64,2.51m.42-3.34-1.7,2.47m.49-3.33L168.24,143m.56-3.31-1.8,2.4m.62-3.29-1.85,2.36m.66-3.29-1.85,2.36"/><polygon class="cls-2" points="161.22 135.65 162.8 146.4 172.05 134.85 161.22 135.65"/><text class="cls-7" transform="translate(168.74 36)">Medium überträgt Nachricht</text><text class="cls-7" transform="translate(168.74 103.75)">Medium überträgt Nachricht</text><text class="cls-7" transform="translate(168.74 180)">Rückmeldung wird ev. verbreitet</text><text class="cls-7" transform="translate(168.74 126.8)">Empfänger gibt Rückmeldung</text></svg>