<svg id="Layer_1" data-name="Layer 1" xmlns="http://www.w3.org/2000/svg" viewBox="0 0 450.71 212.18"><defs><style>.cls-1,.cls-12,.cls-3{fill:none;stroke:#20201e;}.cls-1{stroke-width:0.56px;}.cls-10,.cls-11,.cls-2,.cls-5{fill:#20201e;}.cls-3{stroke-width:3px;}.cls-4{fill:#fff;}.cls-5{font-size:9px;}.cls-10,.cls-5{font-family:OpenSans-Bold, Open Sans;font-weight:700;}.cls-6{letter-spacing:0em;}.cls-7{letter-spacing:0em;}.cls-8{letter-spacing:0em;}.cls-9{letter-spacing:0.01em;}.cls-10,.cls-11{font-size:7px;}.cls-11{font-family:OpenSans, Open Sans;}.cls-12{stroke-width:0.62px;}</style></defs><title>newMedia</title><path class="cls-1" d="M62,80l-2.08-2.16M63.09,79,61,76.83M64.16,78l-2-2.2M65.26,77l-2-2.2M66.35,76l-2-2.25M67.47,75l-2-2.25M68.58,74l-1.94-2.29M69.73,73l-1.94-2.29m3.07,1.36L69,69.77M72,71.16l-1.88-2.34m3,1.43-1.83-2.38m3,1.46L72.55,67m3,1.51L73.78,66m3,1.54L75,65.16m3,1.59-1.71-2.47m2.92,1.64-1.65-2.51m2.9,1.68-1.65-2.51m2.88,1.72-1.58-2.55m2.86,1.76L81.36,61m2.84,1.8-1.52-2.59M85.49,62,84,59.42m2.79,1.88-1.45-2.63m2.73,1.93-1.38-2.67m2.71,2L88,57.24m2.68,2-1.31-2.7m2.66,2-1.31-2.7M93.37,58l-1.23-2.74m2.6,2.12-1.23-2.73m2.58,2.17L94.93,54m2.51,2.21-1.08-2.8m2.49,2.25-1.08-2.8m2.46,2.29-1-2.82m2.43,2.32-1-2.82m2.4,2.36-.94-2.85m2.33,2.4-.86-2.87m2.3,2.44L105,50.45m2.26,2.46L106.46,50m2.24,2.5-.79-2.9m2.2,2.53-.71-2.92m2.17,2.56-.71-2.91m2.14,2.6-.64-2.93m2.07,2.62-.56-2.95m2,2.67L115.34,48m2,2.68-.49-3m2,2.71-.49-3m1.94,2.74-.42-3M121.76,50l-.42-3m1.88,2.79-.35-3m1.84,2.8-.35-3m1.81,2.84-.28-3m1.75,2.85-.22-3m1.71,2.88-.22-3m1.68,2.89-.15-3M132.1,49l-.15-3M133.57,49l-.09-3m1.59,3-.09-3m1.56,3,0-3m1.53,3,0-3m1.5,3,0-3m1.46,3,0-3m1.42,3,.12-3M144,49l.12-3m1.34,3.09.2-3m1.3,3.09.2-3m1.25,3.13.28-3m1.21,3.13.28-3m1.17,3.16.36-3m1.09,3.16.44-3m1,3.19.44-3m1,3.19.52-3m1,3.21.52-3m.92,3.22.6-2.94m.88,3.24.6-2.94m.83,3.25.67-2.92m.79,3.26.67-2.92m.75,3.27.75-2.91m.7,3.28.75-2.91m.66,3.3.82-2.88m.62,3.3.82-2.88m.57,3.32.9-2.86m.54,3.31.9-2.86m.49,3.34,1-2.84m.41,3.32,1-2.81m.37,3.33,1-2.81m.33,3.33,1.11-2.79m.28,3.34,1.11-2.79m.24,3.34L181,54.49m.2,3.35,1.18-2.76m.16,3.35,1.25-2.73m.12,3.35,1.25-2.73m.08,3.36,1.31-2.7m0,3.35,1.31-2.7m0,3.36,1.38-2.66m0,3.35L190.63,59m-.09,3.36L192,59.77m-.12,3.35,1.44-2.63m-.17,3.36,1.5-2.6m-.23,3.33L196,62m-.28,3.34,1.56-2.56m-.31,3.33,1.62-2.52M198.2,67l1.62-2.52m-.39,3.32,1.68-2.49m-.43,3.33,1.68-2.49m-.47,3.32L203.62,67m-.51,3.32,1.73-2.45m-.54,3.31,1.79-2.41m-.58,3.3,1.79-2.41m-.62,3.3,1.84-2.37m-.66,3.29,1.84-2.37M209,74.78l1.89-2.33m-.73,3.28,1.89-2.33m-.76,3.27,1.94-2.29m-.8,3.26,1.94-2.29m-.84,3.26,2-2.24m-.87,3.24,2-2.24m-.9,3.24,2-2.2m-.93,3.22,2-2.2m-1,3.22L220,80.48m-1,3.2,2.08-2.16"/><polygon class="cls-2" points="57.06 82.8 67.92 82.48 57.54 71.94 57.06 82.8"/><path class="cls-1" d="M345.48,182l3,.07m-3-1.59,3,.07m-3-1.58,3,.05m-3-1.56,3,0m-3-1.54h3m-3-1.52h3m-3-1.5,3,0m-3-1.48,3,0m-3-1.47,3-.06m-3-1.44,3-.09m-3.05-1.41,3-.12m-3.06-1.38,3-.16m-3.07-1.36,3-.16m-3.09-1.34,3-.19m-3.1-1.31,3-.23M345,159.33l3-.26m-3.13-1.23,3-.31m-3.14-1.18,3-.35m-3.16-1.16,3-.35m-3.18-1.13,3-.4m-3.19-1.08,3-.45m-3.21-1,3-.51m-3.22-1,2.95-.57m-3.23-.89,2.93-.63M343,146l2.92-.69m-3.27-.79,2.92-.69m-3.3-.74,2.9-.76m-3.31-.66,2.88-.84m-3.33-.57,2.86-.92m-3.34-.48,2.83-1m-3.35-.38,2.79-1.09m-3.35-.27,2.76-1.18m-3.36-.15,2.71-1.28m-3.36,0,2.66-1.39m-3.36.11,2.6-1.5m-3.36.26,2.53-1.61m-3.34.41,2.45-1.73m-3.32.55,2.39-1.82m-3.3.65,2.34-1.88m-3.28.74,2.28-1.95m-3.26.83,2.23-2m-3.23.93,2.17-2.07m-3.2,1,2.1-2.14M329.48,122l2-2.2M328.39,121l2-2.26m-3.1,1.31,1.9-2.32m-3.05,1.41,1.83-2.38m-3,1.5,1.75-2.44m-3,1.6,1.67-2.49m-2.91,1.7,1.59-2.54m-2.86,1.79,1.51-2.59m-2.81,1.88,1.43-2.64m-2.71,2,1.27-2.72m-2.61,2.1,1.19-2.75m-2.56,2.17,1.12-2.79m-2.49,2.25,1-2.81m-2.43,2.32,1-2.84m-2.38,2.38.89-2.86m-2.32,2.44.82-2.89m-2.26,2.5.76-2.9m-2.2,2.55.7-2.92m-2.15,2.6.63-2.93m-2.1,2.64.58-2.94m-2,2.68.52-3m-2,2.72.47-3m-1.95,2.75.42-3m-1.91,2.78.38-3M297.12,109l.33-3"/><polygon class="cls-2" points="291.83 106.93 300.52 100.41 298.97 115.12 291.83 106.93"/><path class="cls-1" d="M214.39,184l2.42-1.77m-3.31.55,2.43-1.77m-3.31.58,2.4-1.81m-3.3.63,2.37-1.84m-3.29.65,2.37-1.84m-3.3.68,2.34-1.88m-3.28.73,2.31-1.91m-3.26.77,2.29-1.94m-3.26.79,2.29-1.94m-3.26.82,2.26-2m-3.24.86,2.23-2m-3.24.89,2.23-2m-3.24.91,2.2-2m-3.22,1L204.2,167M201,168l2.17-2.07m-3.21,1,2.15-2.1m-3.19,1,2.12-2.12m-3.18,1.06,2.12-2.12m-3.18,1.09,2.09-2.15m-3.16,1.12,2.06-2.18m-3.15,1.15,2.06-2.18m-3.15,1.17,2-2.21m-3.13,1.2,2-2.23m-3.12,1.23,2-2.23m-3.12,1.25,2-2.26m-3.09,1.28,1.94-2.29m-3.09,1.31,1.94-2.28m-3.08,1.33,1.92-2.31m-3.07,1.35,1.91-2.31m-3.07,1.37,1.88-2.33m-3,1.4,1.85-2.36m-3,1.43,1.86-2.36m-3,1.45,1.83-2.38m-3,1.48,1.79-2.4m-3,1.5,1.79-2.4m-3,1.52,1.76-2.43m-3,1.54,1.77-2.42m-3,1.56,1.73-2.45m-2.95,1.59,1.7-2.47M172.49,144l1.7-2.47m-2.93,1.63,1.67-2.49M170,142.27l1.67-2.49m-2.91,1.67,1.64-2.51m-2.89,1.7,1.61-2.53m-2.88,1.72,1.61-2.53M165,139l1.58-2.55m-2.86,1.76,1.58-2.55m-2.85,1.78,1.55-2.57m-2.82,1.8,1.52-2.59M159.87,136l1.52-2.59m-2.8,1.84,1.49-2.6m-2.8,1.86,1.49-2.6M156,133.72l1.47-2.62M154.66,133l1.47-2.62m-2.78,1.9,1.45-2.63M152,131.54l1.43-2.64m-2.75,1.93,1.43-2.64m-2.74,1.94,1.4-2.65m-2.72,2,1.38-2.67m-2.71,2,1.37-2.67m-2.7,2,1.35-2.68m-2.69,2,1.35-2.68m-2.68,2L144,124m-2.66,2,1.29-2.71M140,125.44l1.29-2.71m-2.64,2.08,1.26-2.72m-2.61,2.11,1.23-2.74m-2.6,2.12,1.23-2.74M134.59,123l1.19-2.75m-2.56,2.17,1.16-2.77m-2.55,2.19,1.16-2.77m-2.54,2.21,1.12-2.78m-2.5,2.24,1.08-2.8m-2.47,2.26,1-2.81m-2.46,2.29,1-2.81m-2.44,2.31,1-2.83m-2.4,2.34,1-2.84M122,118.18l1-2.84m-2.37,2.38.92-2.85m-2.34,2.41.88-2.87m-2.3,2.44.83-2.88m-2.28,2.46.83-2.88M114.93,116l.79-2.9m-2.22,2.51.74-2.91m-2.18,2.54.7-2.92m-2.16,2.57.7-2.92m-2.14,2.59.65-2.93m-2.1,2.62.6-2.94M106.23,114l.6-2.94m-2.06,2.67.56-2.95m-2,2.69.51-3m-2,2.71.46-3M100.36,113l.46-3m-1.93,2.76.41-3m-1.88,2.78.37-3M96,112.42l.32-3m-1.82,2.82.32-3"/><polygon class="cls-2" points="89.16 110.22 97.8 103.64 96.35 118.37 89.16 110.22"/><line class="cls-3" x1="76.54" y1="98.36" x2="198.89" y2="98.36"/><polygon class="cls-2" points="204.09 98.36 196.14 90.96 196.14 105.76 204.09 98.36"/><path class="cls-1" d="M334.67,190.89v3m-1.51-3v3m-1.51-3v3m-1.51-3v3m-1.51-3v3m-1.51-3v3m-1.51-3v3m-1.51-3v3m-1.51-3v3m-1.51-3v3m-1.51-3v3m-1.51-3v3m-1.51-3v3m-1.51-3v3m-1.51-3v3m-1.51-3v3m-1.51-3v3m-1.51-3v3m-1.51-3v3m-1.51-3v3m-1.51-3v3m-1.51-3v3m-1.51-3v3m-1.51-3v3m-1.51-3v3m-1.51-3v3m-1.51-3v3m-1.51-3v3m-1.51-3v3m-1.51-3v3m-1.51-3v3"/><polygon class="cls-2" points="340.16 192.39 332.2 185 332.2 199.79 340.16 192.39"/><path class="cls-1" d="M280.24,180.69h-3m3-1.5h-3m3-1.5h-3m3-1.5h-3m3-1.5h-3m3-1.5h-3m3-1.5h-3m3-1.5h-3m3-1.5h-3m3-1.5h-3m3-1.5h-3m3-1.5h-3m3-1.5h-3m3-1.5h-3m3-1.5h-3m3-1.5h-3m3-1.5h-3m3-1.5h-3m3-1.5h-3m3-1.5h-3m3-1.5h-3m3-1.5h-3m3-1.5h-3m3-1.5h-3m3-1.5h-3m3-1.5h-3m3-1.5h-3m3-1.5h-3m3-1.5h-3m3-1.5h-3m3-1.5h-3m3-1.5h-3m3-1.5h-3m3-1.5h-3m3-1.5h-3m3-1.5h-3m3-1.5h-3m3-1.5h-3m3-1.5h-3m3-1.5h-3m3-1.5h-3m3-1.5h-3m3-1.5h-3m3-1.5h-3m3-1.5h-3m3-1.5h-3m3-1.5h-3"/><polygon class="cls-2" points="278.74 186.18 286.13 178.22 271.34 178.22 278.74 186.18"/><path class="cls-1" d="M339.88,201.63v3m-1.51-3v3m-1.51-3v3m-1.51-3v3m-1.51-3v3m-1.51-3v3m-1.51-3v3m-1.51-3v3m-1.51-3v3m-1.51-3v3m-1.51-3v3m-1.51-3v3m-1.51-3v3m-1.51-3v3m-1.51-3v3m-1.51-3v3m-1.51-3v3m-1.51-3v3m-1.51-3v3m-1.51-3v3m-1.51-3v3m-1.51-3v3m-1.51-3v3m-1.51-3v3m-1.51-3v3m-1.51-3v3m-1.51-3v3m-1.51-3v3m-1.51-3v3m-1.51-3v3m-1.51-3v3"/><polygon class="cls-2" points="289.13 203.13 297.09 210.53 297.09 195.73 289.13 203.13"/><path class="cls-1" d="M269.5,185.9h-3m3-1.5h-3m3-1.5h-3m3-1.5h-3m3-1.5h-3m3-1.5h-3m3-1.5h-3m3-1.5h-3m3-1.5h-3m3-1.5h-3m3-1.5h-3m3-1.5h-3m3-1.5h-3m3-1.5h-3m3-1.5h-3m3-1.5h-3m3-1.5h-3m3-1.5h-3m3-1.5h-3m3-1.5h-3m3-1.5h-3m3-1.5h-3m3-1.5h-3m3-1.5h-3m3-1.5h-3m3-1.5h-3m3-1.5h-3m3-1.5h-3m3-1.5h-3m3-1.5h-3m3-1.5h-3m3-1.5h-3m3-1.5h-3m3-1.5h-3m3-1.5h-3m3-1.5h-3m3-1.5h-3m3-1.5h-3m3-1.5h-3m3-1.5h-3m3-1.5h-3m3-1.5h-3m3-1.5h-3m3-1.5h-3m3-1.5h-3m3-1.5h-3m3-1.5h-3"/><polygon class="cls-2" points="268 111.36 260.6 119.32 275.4 119.32 268 111.36"/><rect class="cls-4" x="1.5" y="86.86" width="82.04" height="23"/><text class="cls-5" transform="translate(26.76 101.8)"><tspan class="cls-6">Se</tspan><tspan class="cls-7" x="10.36" y="0">n</tspan><tspan class="cls-6" x="16.32" y="0">de</tspan><tspan x="27.42" y="0">r</tspan></text><rect class="cls-3" x="1.5" y="86.86" width="82.04" height="23"/><rect class="cls-4" x="205.59" y="187.68" width="82.04" height="23"/><text class="cls-5" transform="translate(217.64 202.62)"><tspan class="cls-6">Ne</tspan><tspan class="cls-7" x="12.72" y="0">u</tspan><tspan class="cls-6" x="18.68" y="0">e Se</tspan><tspan class="cls-8" x="36.79" y="0">n</tspan><tspan class="cls-9" x="42.74" y="0">de</tspan><tspan x="53.84" y="0">r</tspan></text><path class="cls-1" d="M205.88,189.18v-3m1.51,3v-3m1.51,3v-3m1.51,3v-3m1.51,3v-3m1.51,3v-3m1.51,3v-3m1.51,3v-3m1.51,3v-3m1.51,3v-3m1.51,3v-3m1.51,3v-3m1.51,3v-3m1.51,3v-3m1.51,3v-3m1.51,3v-3m1.51,3v-3m1.51,3v-3m1.51,3v-3m1.51,3v-3m1.51,3v-3m1.51,3v-3m1.51,3v-3m1.51,3v-3m1.51,3v-3m1.51,3v-3m1.51,3v-3m1.51,3v-3m1.51,3v-3m1.51,3v-3m1.51,3v-3m1.51,3v-3m1.51,3v-3m1.51,3v-3m1.51,3v-3m1.51,3v-3m1.51,3v-3m1.51,3v-3m1.51,3v-3m1.51,3v-3m1.51,3v-3m1.51,3v-3m1.51,3v-3m1.51,3v-3m1.51,3v-3m1.51,3v-3m1.51,3v-3m1.51,3v-3m1.51,3v-3m1.51,3v-3m1.51,3v-3m1.51,3v-3m1.51,3v-3m1.51,3v-3m1.51,3v-3m-1.14,2.64h3m-3,1.51h3m-3,1.51h3m-3,1.51h3m-3,1.51h3m-3,1.51h3m-3,1.51h3m-3,1.51h3m-3,1.51h3m-3,1.51h3m-3,1.51h3m-3,1.51h3m-3,1.51h3m-3,1.51h3m-3,1.51h3m-2.25-.75v3m-1.51-3v3m-1.51-3v3m-1.51-3v3m-1.51-3v3m-1.51-3v3m-1.51-3v3m-1.51-3v3m-1.51-3v3m-1.51-3v3m-1.51-3v3m-1.51-3v3m-1.51-3v3m-1.51-3v3m-1.51-3v3m-1.51-3v3m-1.51-3v3m-1.51-3v3m-1.51-3v3m-1.51-3v3m-1.51-3v3m-1.51-3v3m-1.51-3v3m-1.51-3v3m-1.51-3v3m-1.51-3v3m-1.51-3v3m-1.51-3v3m-1.51-3v3m-1.51-3v3m-1.51-3v3m-1.51-3v3m-1.51-3v3m-1.51-3v3m-1.51-3v3m-1.51-3v3m-1.51-3v3m-1.51-3v3m-1.51-3v3m-1.51-3v3m-1.51-3v3m-1.51-3v3m-1.51-3v3m-1.51-3v3m-1.51-3v3m-1.51-3v3m-1.51-3v3m-1.51-3v3m-1.51-3v3m-1.51-3v3m-1.51-3v3m-1.51-3v3m-1.51-3v3m-1.51-3v3m.1-1.61h-3m3-1.51h-3m3-1.51h-3m3-1.51h-3m3-1.51h-3m3-1.51h-3m3-1.51h-3m3-1.51h-3m3-1.51h-3m3-1.51h-3m3-1.51h-3m3-1.51h-3m3-1.51h-3m3-1.51h-3m3-1.51h-3m3-1.51h-3"/><rect class="cls-4" x="205.59" y="86.86" width="82.04" height="23"/><text class="cls-5" transform="translate(221.99 101.8)"><tspan class="cls-7">E</tspan><tspan class="cls-6" x="5.08" y="0">mp</tspan><tspan class="cls-7" x="19.7" y="0">f</tspan><tspan class="cls-6" x="23.22" y="0">ä</tspan><tspan class="cls-7" x="28.7" y="0">n</tspan><tspan class="cls-6" x="34.65" y="0">ge</tspan><tspan x="45.14" y="0">r</tspan></text><rect class="cls-3" x="205.59" y="86.86" width="82.04" height="23"/><rect class="cls-4" x="341.66" y="187.68" width="107.55" height="23"/><text class="cls-5" transform="translate(352.26 202.62)"><tspan class="cls-6">we</tspan><tspan class="cls-7" x="13.11" y="0">it</tspan><tspan class="cls-6" x="19.84" y="0">e</tspan><tspan class="cls-7" x="25.2" y="0">r</tspan><tspan class="cls-6" x="29.32" y="0">e </tspan><tspan class="cls-7" x="37.07" y="0">E</tspan><tspan class="cls-6" x="42.14" y="0">mp</tspan><tspan class="cls-7" x="56.77" y="0">fän</tspan><tspan class="cls-6" x="71.71" y="0">ge</tspan><tspan x="82.2" y="0">r</tspan></text><rect class="cls-3" x="341.66" y="187.68" width="107.55" height="23"/><text class="cls-10" transform="translate(87.17 90.72)">Internet überträgt Nachricht</text><text class="cls-10" transform="translate(255.12 30.75)">Empfänger nutzen das Medium des </text><text class="cls-10" transform="translate(255.12 42.75)">Senders um zu anderen Empfängern </text><path class="cls-2" d="M257.39,54.81A2,2,0,0,1,256,54.3a1.93,1.93,0,0,1-.52-1.44,2.12,2.12,0,0,1,.48-1.49,1.71,1.71,0,0,1,1.33-.52,1.68,1.68,0,0,1,1.26.46,1.75,1.75,0,0,1,.45,1.27v.51h-2.46a1,1,0,0,0,.26.69.93.93,0,0,0,.69.25,2.87,2.87,0,0,0,.65-.07,3.27,3.27,0,0,0,.64-.23v.81a2.45,2.45,0,0,1-.58.2A3.69,3.69,0,0,1,257.39,54.81Zm-.15-3.22a.66.66,0,0,0-.52.21,1,1,0,0,0-.22.6H258a.87.87,0,0,0-.2-.6A.68.68,0,0,0,257.25,51.59Zm3.08-1.15q-.57,0-.57-.51t.57-.51q.57,0,.57.51a.5.5,0,0,1-.14.38.6.6,0,0,1-.43.14Zm.52,4.3h-1V50.92h1Zm4.62,0h-1V52.51a1.07,1.07,0,0,0-.15-.62.53.53,0,0,0-.47-.21.7.7,0,0,0-.63.29,1.81,1.81,0,0,0-.19,1v1.8h-1V50.92h.8l.14.49h.06a1.1,1.1,0,0,1,.48-.42,1.64,1.64,0,0,1,.7-.14,1.34,1.34,0,0,1,1,.36,1.45,1.45,0,0,1,.35,1Zm2.8.07a2,2,0,0,1-1.44-.51,1.93,1.93,0,0,1-.52-1.44,2.12,2.12,0,0,1,.48-1.49,1.71,1.71,0,0,1,1.33-.52,1.68,1.68,0,0,1,1.26.46,1.75,1.75,0,0,1,.45,1.27v.51h-2.46a1,1,0,0,0,.26.69.93.93,0,0,0,.69.25A2.87,2.87,0,0,0,269,54a3.27,3.27,0,0,0,.64-.23v.81a2.45,2.45,0,0,1-.58.2A3.69,3.69,0,0,1,268.26,54.81Zm-.15-3.22a.66.66,0,0,0-.52.21,1,1,0,0,0-.22.6h1.46a.87.87,0,0,0-.2-.6A.68.68,0,0,0,268.12,51.59Zm6.08,3.15h-1V52.51a1.07,1.07,0,0,0-.15-.62.53.53,0,0,0-.47-.21.7.7,0,0,0-.63.29,1.81,1.81,0,0,0-.19,1v1.8h-1V50.92h.8l.14.49h.06a1.1,1.1,0,0,1,.48-.42,1.64,1.64,0,0,1,.7-.14,1.34,1.34,0,0,1,1,.36,1.45,1.45,0,0,1,.35,1Zm4-1.92v1.92h-1.06v-5h1.46a2.49,2.49,0,0,1,1.51.37,1.48,1.48,0,0,1,.25,1.91,1.61,1.61,0,0,1-.69.54l1.47,2.18H280l-1.19-1.92Zm0-.86h.34a1.31,1.31,0,0,0,.74-.17.6.6,0,0,0,.24-.53.55.55,0,0,0-.24-.51,1.48,1.48,0,0,0-.76-.15h-.32Zm6.19,2.78-.14-.49h-.05a1.1,1.1,0,0,1-.48.41,1.62,1.62,0,0,1-.7.15,1.33,1.33,0,0,1-1-.36,1.45,1.45,0,0,1-.34-1V50.92h1v2.23a1.07,1.07,0,0,0,.15.62.53.53,0,0,0,.47.21.7.7,0,0,0,.63-.29,1.81,1.81,0,0,0,.19-1v-1.8h1v3.82Zm-2.14-4.8a.44.44,0,0,1,.13-.34.49.49,0,0,1,.35-.12.48.48,0,0,1,.35.13.45.45,0,0,1,.13.33.44.44,0,0,1-.13.33.56.56,0,0,1-.7,0A.44.44,0,0,1,282.28,49.94Zm1.38,0a.42.42,0,0,1,.14-.35.53.53,0,0,1,.34-.11.5.5,0,0,1,.35.12.44.44,0,0,1,.13.34.43.43,0,0,1-.13.33.5.5,0,0,1-.35.12.53.53,0,0,1-.34-.11A.41.41,0,0,1,283.66,49.94Zm4.21,4.87q-1.78,0-1.78-2a2.09,2.09,0,0,1,.49-1.49,1.82,1.82,0,0,1,1.39-.51,2.65,2.65,0,0,1,1.19.26l-.31.81-.46-.16a1.48,1.48,0,0,0-.42-.06q-.81,0-.81,1.16T288,54a1.85,1.85,0,0,0,.56-.08,2,2,0,0,0,.51-.25v.89a1.68,1.68,0,0,1-.51.22A2.87,2.87,0,0,1,287.86,54.81Zm3-2.15.45-.58,1.07-1.16h1.18l-1.52,1.66,1.61,2.16h-1.2l-1.1-1.55-.45.36v1.19h-1V49.42h1V51.8l-.05.87Zm4.34,0,.45-.58,1.07-1.16h1.18l-1.52,1.66L298,54.74h-1.2l-1.1-1.55-.45.36v1.19h-1V49.42h1V51.8l-.05.87ZM301,54.74l-.2-.52h0a1.54,1.54,0,0,1-.54.46,1.75,1.75,0,0,1-.73.13,1.17,1.17,0,0,1-.87-.31,1.21,1.21,0,0,1-.32-.9,1,1,0,0,1,.43-.9,2.47,2.47,0,0,1,1.28-.32l.66,0V52.2a.52.52,0,0,0-.59-.58,2.71,2.71,0,0,0-1.08.28l-.35-.7a3.11,3.11,0,0,1,1.46-.35,1.82,1.82,0,0,1,1.18.33,1.24,1.24,0,0,1,.41,1v2.55ZM300.71,53h-.4a1.29,1.29,0,0,0-.68.16.52.52,0,0,0-.22.46q0,.44.51.44a.8.8,0,0,0,.58-.21.73.73,0,0,0,.22-.55Zm5.64,1.77h-1V52.51a1.07,1.07,0,0,0-.15-.62.53.53,0,0,0-.47-.21.7.7,0,0,0-.63.29,1.81,1.81,0,0,0-.19,1v1.8h-1V50.92h.8l.14.49h.06a1.1,1.1,0,0,1,.48-.42,1.64,1.64,0,0,1,.7-.14,1.34,1.34,0,0,1,1,.36,1.45,1.45,0,0,1,.35,1Zm3.5,0-.2-.52h0a1.54,1.54,0,0,1-.54.46,1.75,1.75,0,0,1-.73.13,1.17,1.17,0,0,1-.87-.31,1.21,1.21,0,0,1-.32-.9,1,1,0,0,1,.43-.9,2.47,2.47,0,0,1,1.28-.32l.66,0V52.2a.52.52,0,0,0-.59-.58,2.71,2.71,0,0,0-1.08.28l-.35-.7a3.11,3.11,0,0,1,1.46-.35,1.82,1.82,0,0,1,1.18.33,1.24,1.24,0,0,1,.41,1v2.55ZM309.53,53h-.4a1.29,1.29,0,0,0-.68.16.52.52,0,0,0-.22.46q0,.44.51.44a.8.8,0,0,0,.58-.21.73.73,0,0,0,.22-.55Zm3.15,1.77h-1V49.42h1Zm5.57,0h-3v-.62L317,51.72h-1.66v-.8h2.85v.68l-1.72,2.35h1.78Zm3.46,0-.14-.49h-.05a1.1,1.1,0,0,1-.48.41,1.62,1.62,0,0,1-.7.15,1.33,1.33,0,0,1-1-.36,1.45,1.45,0,0,1-.34-1V50.92h1v2.23a1.07,1.07,0,0,0,.15.62.53.53,0,0,0,.47.21.7.7,0,0,0,.63-.29,1.81,1.81,0,0,0,.19-1v-1.8h1v3.82Zm5.44.07a2,2,0,0,1-1.44-.51,1.93,1.93,0,0,1-.52-1.44,2.12,2.12,0,0,1,.48-1.49,1.71,1.71,0,0,1,1.33-.52,1.68,1.68,0,0,1,1.26.46,1.75,1.75,0,0,1,.45,1.27v.51h-2.46a1,1,0,0,0,.26.69.93.93,0,0,0,.69.25,2.87,2.87,0,0,0,.65-.07,3.27,3.27,0,0,0,.64-.23v.81a2.45,2.45,0,0,1-.58.2A3.69,3.69,0,0,1,327.16,54.81ZM327,51.59a.66.66,0,0,0-.52.21,1,1,0,0,0-.22.6h1.46a.87.87,0,0,0-.2-.6A.68.68,0,0,0,327,51.59Zm4.69-.74a1.68,1.68,0,0,1,.35,0l-.08,1a1.2,1.2,0,0,0-.31,0,1.11,1.11,0,0,0-.78.26.93.93,0,0,0-.28.72v1.94h-1V50.92h.79l.15.64h.05A1.44,1.44,0,0,1,331,51,1.18,1.18,0,0,1,331.7,50.85Zm4.52,2a2.05,2.05,0,0,1-.49,1.46,1.78,1.78,0,0,1-1.37.53,1.92,1.92,0,0,1-1-.24,1.6,1.6,0,0,1-.65-.69,2.33,2.33,0,0,1-.23-1.05,2,2,0,0,1,.49-1.46,1.79,1.79,0,0,1,1.37-.52,1.93,1.93,0,0,1,1,.24,1.6,1.6,0,0,1,.65.69A2.3,2.3,0,0,1,336.22,52.83Zm-3-2.88a.44.44,0,0,1,.13-.34.49.49,0,0,1,.35-.12.48.48,0,0,1,.35.13.45.45,0,0,1,.13.33.44.44,0,0,1-.13.33.56.56,0,0,1-.7,0A.44.44,0,0,1,333.19,49.94Zm.38,2.88a1.6,1.6,0,0,0,.19.86.67.67,0,0,0,.61.29.66.66,0,0,0,.6-.29,1.63,1.63,0,0,0,.18-.86A1.58,1.58,0,0,0,335,52a.78.78,0,0,0-1.21,0A1.58,1.58,0,0,0,333.58,52.83Zm1-2.88a.42.42,0,0,1,.14-.35.53.53,0,0,1,.34-.11.5.5,0,0,1,.35.12.44.44,0,0,1,.13.34.43.43,0,0,1-.13.33.5.5,0,0,1-.35.12.53.53,0,0,1-.34-.11A.41.41,0,0,1,334.57,49.94Zm4.62,1.76h-.9v3h-1v-3h-.57v-.5l.57-.28v-.28a1.25,1.25,0,0,1,.32-1,1.47,1.47,0,0,1,1-.3,2.68,2.68,0,0,1,1,.16l-.27.77a1.94,1.94,0,0,0-.58-.1.38.38,0,0,0-.32.13.54.54,0,0,0-.1.34v.24h.9Zm2.71,0H341v3h-1v-3h-.57v-.5l.57-.28v-.28a1.25,1.25,0,0,1,.32-1,1.47,1.47,0,0,1,1-.3,2.68,2.68,0,0,1,1,.16l-.27.77a1.94,1.94,0,0,0-.58-.1.38.38,0,0,0-.32.13.54.54,0,0,0-.1.34v.24h.9Zm4.12,3h-1V52.51a1.07,1.07,0,0,0-.15-.62.53.53,0,0,0-.47-.21.7.7,0,0,0-.63.29,1.81,1.81,0,0,0-.19,1v1.8h-1V50.92h.8l.14.49h.06A1.1,1.1,0,0,1,344,51a1.64,1.64,0,0,1,.7-.14,1.34,1.34,0,0,1,1,.36,1.45,1.45,0,0,1,.35,1Zm2.8.07a2,2,0,0,1-1.44-.51,1.93,1.93,0,0,1-.52-1.44,2.12,2.12,0,0,1,.48-1.49,1.71,1.71,0,0,1,1.33-.52,1.68,1.68,0,0,1,1.26.46,1.75,1.75,0,0,1,.45,1.27v.51h-2.46a1,1,0,0,0,.26.69.93.93,0,0,0,.69.25,2.87,2.87,0,0,0,.65-.07,3.27,3.27,0,0,0,.64-.23v.81a2.45,2.45,0,0,1-.58.2A3.69,3.69,0,0,1,348.83,54.81Zm-.15-3.22a.66.66,0,0,0-.52.21,1,1,0,0,0-.22.6h1.46a.87.87,0,0,0-.2-.6A.68.68,0,0,0,348.68,51.59Zm6.08,3.15h-1V52.51a1.07,1.07,0,0,0-.15-.62.53.53,0,0,0-.47-.21.7.7,0,0,0-.63.29,1.81,1.81,0,0,0-.19,1v1.8h-1V50.92h.8l.14.49h.06a1.1,1.1,0,0,1,.48-.42,1.64,1.64,0,0,1,.7-.14,1.34,1.34,0,0,1,1,.36,1.45,1.45,0,0,1,.35,1Zm.92-.49a.57.57,0,0,1,.15-.43.62.62,0,0,1,.45-.15.61.61,0,0,1,.44.15.66.66,0,0,1,0,.86.6.6,0,0,1-.44.16.61.61,0,0,1-.44-.15A.57.57,0,0,1,355.69,54.25Z"/><text class="cls-11" transform="translate(255.12 66.74)">Beispiel: Kommentare auf Websites</text><path class="cls-2" d="M54.53,12.37H51.65v-5h2.88v.87H52.71v1.1H54.4v.87H52.71v1.29h1.82Zm4.38,0h-1V10.13a1.12,1.12,0,0,0-.14-.62.49.49,0,0,0-.44-.21.63.63,0,0,0-.58.29,1.93,1.93,0,0,0-.18,1v1.8h-1V8.54h.8l.14.49h.06a1.06,1.06,0,0,1,.44-.41,1.44,1.44,0,0,1,.67-.15A1.2,1.2,0,0,1,58.76,9h.09a1,1,0,0,1,.45-.41A1.51,1.51,0,0,1,60,8.47a1.33,1.33,0,0,1,1,.33,1.46,1.46,0,0,1,.33,1.07v2.49h-1V10.13a1.12,1.12,0,0,0-.14-.62.49.49,0,0,0-.44-.21.65.65,0,0,0-.57.27,1.55,1.55,0,0,0-.19.87Zm5.55.07a1.27,1.27,0,0,1-1.06-.49h-.05q.05.48.05.55V14h-1V8.54h.85l.15.5h0a1.21,1.21,0,0,1,1.08-.57A1.24,1.24,0,0,1,65.55,9a2.42,2.42,0,0,1,.38,1.45,2.87,2.87,0,0,1-.18,1.06,1.49,1.49,0,0,1-.51.69A1.31,1.31,0,0,1,64.46,12.43Zm-.31-3.13a.66.66,0,0,0-.56.24,1.36,1.36,0,0,0-.18.78v.11a1.61,1.61,0,0,0,.18.88.65.65,0,0,0,.58.27q.7,0,.7-1.16a1.65,1.65,0,0,0-.17-.85A.59.59,0,0,0,64.16,9.31Zm4.75,0H68v3H67v-3h-.57v-.5L67,8.54V8.26a1.25,1.25,0,0,1,.32-1,1.47,1.47,0,0,1,1-.3,2.68,2.68,0,0,1,1,.16L69,7.94a1.94,1.94,0,0,0-.58-.1.38.38,0,0,0-.32.13.54.54,0,0,0-.1.34v.24h.9Zm3,3-.2-.52h0a1.54,1.54,0,0,1-.54.46,1.75,1.75,0,0,1-.73.13,1.17,1.17,0,0,1-.87-.31,1.21,1.21,0,0,1-.32-.9,1,1,0,0,1,.43-.9A2.47,2.47,0,0,1,71,10l.66,0V9.82A.52.52,0,0,0,71,9.24,2.71,2.71,0,0,0,70,9.51l-.35-.7a3.11,3.11,0,0,1,1.46-.35,1.82,1.82,0,0,1,1.18.33,1.24,1.24,0,0,1,.41,1v2.55Zm-2-4.8a.44.44,0,0,1,.13-.34.49.49,0,0,1,.35-.12.48.48,0,0,1,.35.13.45.45,0,0,1,.13.33.44.44,0,0,1-.13.33.56.56,0,0,1-.7,0A.44.44,0,0,1,69.93,7.56Zm1.69,3h-.4a1.29,1.29,0,0,0-.68.16.52.52,0,0,0-.22.46q0,.44.51.44a.8.8,0,0,0,.58-.21.73.73,0,0,0,.22-.55Zm-.31-3a.42.42,0,0,1,.14-.35.53.53,0,0,1,.34-.11.5.5,0,0,1,.35.12.44.44,0,0,1,.13.34.43.43,0,0,1-.13.33.5.5,0,0,1-.35.12.53.53,0,0,1-.34-.11A.41.41,0,0,1,71.31,7.56Zm6,4.8h-1V10.13a1.07,1.07,0,0,0-.15-.62.53.53,0,0,0-.47-.21A.7.7,0,0,0,75,9.6a1.81,1.81,0,0,0-.19,1v1.8h-1V8.54h.8l.14.49h.06a1.1,1.1,0,0,1,.48-.42,1.64,1.64,0,0,1,.7-.14,1.34,1.34,0,0,1,1,.36,1.45,1.45,0,0,1,.35,1Zm4.4-3.82v.53l-.6.15a1,1,0,0,1,.16.57,1.16,1.16,0,0,1-.43,1,1.86,1.86,0,0,1-1.19.34h-.19l-.15,0a.35.35,0,0,0-.16.27q0,.23.57.23h.65a1.48,1.48,0,0,1,1,.27,1,1,0,0,1,.33.79,1.18,1.18,0,0,1-.56,1,2.91,2.91,0,0,1-1.6.37,2.22,2.22,0,0,1-1.22-.28.88.88,0,0,1-.42-.78.82.82,0,0,1,.22-.58,1.22,1.22,0,0,1,.63-.33.7.7,0,0,1-.28-.22.55.55,0,0,1,0-.69,1.46,1.46,0,0,1,.37-.29,1,1,0,0,1-.48-.42,1.27,1.27,0,0,1-.18-.68,1.19,1.19,0,0,1,.41-1,1.76,1.76,0,0,1,1.16-.34l.38,0,.28,0Zm-2.95,4.36a.38.38,0,0,0,.21.34,1.14,1.14,0,0,0,.58.12,2.05,2.05,0,0,0,.88-.15.47.47,0,0,0,.32-.42.3.3,0,0,0-.19-.3,1.54,1.54,0,0,0-.58-.08h-.54a.82.82,0,0,0-.48.14A.42.42,0,0,0,78.71,12.91Zm1-3.8q-.57,0-.57.69a.78.78,0,0,0,.14.49.52.52,0,0,0,.43.18.5.5,0,0,0,.43-.18.8.8,0,0,0,.14-.49q0-.69-.57-.69ZM84,12.43a2,2,0,0,1-1.44-.51,1.93,1.93,0,0,1-.52-1.44A2.12,2.12,0,0,1,82.53,9a1.71,1.71,0,0,1,1.33-.52,1.68,1.68,0,0,1,1.26.46,1.75,1.75,0,0,1,.45,1.27v.51H83.11a1,1,0,0,0,.26.69.93.93,0,0,0,.69.25,2.87,2.87,0,0,0,.65-.07,3.27,3.27,0,0,0,.64-.23v.81a2.45,2.45,0,0,1-.58.2A3.69,3.69,0,0,1,84,12.43Zm-.15-3.22a.66.66,0,0,0-.52.21,1,1,0,0,0-.22.6H84.6a.87.87,0,0,0-.2-.6A.68.68,0,0,0,83.87,9.21Zm4.69-.74a1.68,1.68,0,0,1,.35,0l-.08,1a1.2,1.2,0,0,0-.31,0,1.11,1.11,0,0,0-.78.26.93.93,0,0,0-.28.72v1.94h-1V8.54h.79l.15.64h.05a1.44,1.44,0,0,1,.48-.52A1.18,1.18,0,0,1,88.56,8.47Zm3.87,1.81.45-.58,1.07-1.16h1.18L93.61,10.2l1.61,2.16H94l-1.1-1.55-.45.36v1.19h-1V7h1V9.42l-.05.87Zm6.81.16a2.05,2.05,0,0,1-.49,1.46,1.78,1.78,0,0,1-1.37.53,1.92,1.92,0,0,1-1-.24,1.6,1.6,0,0,1-.65-.69,2.33,2.33,0,0,1-.23-1.05A2,2,0,0,1,96,9a1.79,1.79,0,0,1,1.37-.52,1.93,1.93,0,0,1,1,.24A1.6,1.6,0,0,1,99,9.4,2.3,2.3,0,0,1,99.23,10.45Zm-3-2.88a.44.44,0,0,1,.13-.34.49.49,0,0,1,.35-.12.48.48,0,0,1,.35.13.45.45,0,0,1,.13.33.44.44,0,0,1-.13.33.56.56,0,0,1-.7,0A.44.44,0,0,1,96.21,7.56Zm.38,2.88a1.6,1.6,0,0,0,.19.86.67.67,0,0,0,.61.29.66.66,0,0,0,.6-.29,1.63,1.63,0,0,0,.18-.86A1.58,1.58,0,0,0,98,9.6a.78.78,0,0,0-1.21,0A1.58,1.58,0,0,0,96.59,10.45Zm1-2.88a.42.42,0,0,1,.14-.35.53.53,0,0,1,.34-.11.5.5,0,0,1,.35.12.44.44,0,0,1,.13.34.43.43,0,0,1-.13.33.5.5,0,0,1-.35.12.53.53,0,0,1-.34-.11A.41.41,0,0,1,97.59,7.56Zm6,4.8h-1V10.13a1.07,1.07,0,0,0-.15-.62.53.53,0,0,0-.47-.21.7.7,0,0,0-.63.29,1.81,1.81,0,0,0-.19,1v1.8h-1V8.54h.8L101,9h.06a1.1,1.1,0,0,1,.48-.42,1.64,1.64,0,0,1,.7-.14,1.34,1.34,0,0,1,1,.36,1.45,1.45,0,0,1,.35,1Zm4.6,0h-1V10.13a1.07,1.07,0,0,0-.15-.62.53.53,0,0,0-.47-.21.7.7,0,0,0-.63.29,1.81,1.81,0,0,0-.19,1v1.8h-1V8.54h.8l.14.49h.06a1.1,1.1,0,0,1,.48-.42,1.64,1.64,0,0,1,.7-.14,1.34,1.34,0,0,1,1,.36,1.45,1.45,0,0,1,.35,1Zm2.8.07a2,2,0,0,1-1.44-.51,1.93,1.93,0,0,1-.52-1.44A2.12,2.12,0,0,1,109.54,9a1.71,1.71,0,0,1,1.33-.52,1.68,1.68,0,0,1,1.26.46,1.75,1.75,0,0,1,.45,1.27v.51h-2.46a1,1,0,0,0,.26.69.93.93,0,0,0,.69.25,2.87,2.87,0,0,0,.65-.07,3.27,3.27,0,0,0,.64-.23v.81a2.45,2.45,0,0,1-.58.2A3.69,3.69,0,0,1,111,12.43Zm-.15-3.22a.66.66,0,0,0-.52.21,1,1,0,0,0-.22.6h1.46a.87.87,0,0,0-.2-.6A.68.68,0,0,0,110.88,9.21ZM117,12.37h-1V10.13a1.07,1.07,0,0,0-.15-.62.53.53,0,0,0-.47-.21.7.7,0,0,0-.63.29,1.81,1.81,0,0,0-.19,1v1.8h-1V8.54h.8l.14.49h.06a1.1,1.1,0,0,1,.48-.42,1.64,1.64,0,0,1,.7-.14,1.34,1.34,0,0,1,1,.36,1.45,1.45,0,0,1,.35,1Zm5.19-.5a1.19,1.19,0,0,1-1.08.56,1.24,1.24,0,0,1-1.06-.52,2.4,2.4,0,0,1-.38-1.45A2.41,2.41,0,0,1,120,9a1.27,1.27,0,0,1,1.08-.52,1.25,1.25,0,0,1,1.1.56h0a4.26,4.26,0,0,1-.08-.76V7h1v5.32h-.8l-.2-.5Zm-.72-.27a.71.71,0,0,0,.59-.23,1.35,1.35,0,0,0,.2-.79v-.11a1.56,1.56,0,0,0-.19-.88.7.7,0,0,0-.62-.27.61.61,0,0,0-.54.3,1.58,1.58,0,0,0-.19.86,1.49,1.49,0,0,0,.19.85A.64.64,0,0,0,121.42,11.6Zm4.58.83a2,2,0,0,1-1.44-.51,1.93,1.93,0,0,1-.52-1.44A2.12,2.12,0,0,1,124.53,9a1.71,1.71,0,0,1,1.33-.52,1.68,1.68,0,0,1,1.26.46,1.75,1.75,0,0,1,.45,1.27v.51H125.1a1,1,0,0,0,.26.69.93.93,0,0,0,.69.25,2.87,2.87,0,0,0,.65-.07,3.27,3.27,0,0,0,.64-.23v.81a2.45,2.45,0,0,1-.58.2A3.69,3.69,0,0,1,126,12.43Zm-.15-3.22a.66.66,0,0,0-.52.21,1,1,0,0,0-.22.6h1.46a.87.87,0,0,0-.2-.6A.68.68,0,0,0,125.86,9.21Zm6,3.15h-1V10.13a1.12,1.12,0,0,0-.14-.62.49.49,0,0,0-.44-.21.63.63,0,0,0-.58.29,1.93,1.93,0,0,0-.18,1v1.8h-1V8.54h.8l.14.49h.06a1.06,1.06,0,0,1,.44-.41,1.44,1.44,0,0,1,.67-.15,1.2,1.2,0,0,1,1.16.56h.09a1,1,0,0,1,.45-.41,1.51,1.51,0,0,1,.68-.15,1.33,1.33,0,0,1,1,.33,1.46,1.46,0,0,1,.33,1.07v2.49h-1V10.13a1.12,1.12,0,0,0-.14-.62.49.49,0,0,0-.44-.21.65.65,0,0,0-.57.27,1.55,1.55,0,0,0-.19.87Zm8.3-1.39a1.29,1.29,0,0,1-.49,1.07,2.12,2.12,0,0,1-1.36.39,3.18,3.18,0,0,1-1.42-.3v-1a5.83,5.83,0,0,0,.86.32,2.53,2.53,0,0,0,.64.09.91.91,0,0,0,.53-.13.46.46,0,0,0,.19-.4.44.44,0,0,0-.08-.26.92.92,0,0,0-.24-.22,6.21,6.21,0,0,0-.65-.34,3.07,3.07,0,0,1-.69-.41,1.55,1.55,0,0,1-.37-.46,1.32,1.32,0,0,1-.14-.62,1.29,1.29,0,0,1,.45-1,1.87,1.87,0,0,1,1.24-.38,2.93,2.93,0,0,1,.74.09,5.12,5.12,0,0,1,.74.26l-.34.82a5,5,0,0,0-.66-.23,2.13,2.13,0,0,0-.51-.06.68.68,0,0,0-.46.14.46.46,0,0,0-.16.37.45.45,0,0,0,.06.24.71.71,0,0,0,.21.2,6.38,6.38,0,0,0,.67.35,2.67,2.67,0,0,1,1,.67A1.31,1.31,0,0,1,140.14,11Zm2.55,1.46a2,2,0,0,1-1.44-.51,1.93,1.93,0,0,1-.52-1.44A2.12,2.12,0,0,1,141.22,9a1.71,1.71,0,0,1,1.33-.52,1.68,1.68,0,0,1,1.26.46,1.75,1.75,0,0,1,.45,1.27v.51h-2.46a1,1,0,0,0,.26.69.93.93,0,0,0,.69.25,2.87,2.87,0,0,0,.65-.07,3.27,3.27,0,0,0,.64-.23v.81a2.45,2.45,0,0,1-.58.2A3.69,3.69,0,0,1,142.7,12.43Zm-.15-3.22a.66.66,0,0,0-.52.21,1,1,0,0,0-.22.6h1.46a.87.87,0,0,0-.2-.6A.68.68,0,0,0,142.55,9.21Zm6.08,3.15h-1V10.13a1.07,1.07,0,0,0-.15-.62.53.53,0,0,0-.47-.21.7.7,0,0,0-.63.29,1.81,1.81,0,0,0-.19,1v1.8h-1V8.54h.8L146,9h.06a1.1,1.1,0,0,1,.48-.42,1.64,1.64,0,0,1,.7-.14,1.34,1.34,0,0,1,1,.36,1.45,1.45,0,0,1,.35,1Zm3.37-.5a1.19,1.19,0,0,1-1.08.56,1.24,1.24,0,0,1-1.06-.52,2.4,2.4,0,0,1-.38-1.45A2.41,2.41,0,0,1,149.86,9a1.27,1.27,0,0,1,1.08-.52A1.25,1.25,0,0,1,152,9h0a4.26,4.26,0,0,1-.08-.76V7h1v5.32h-.8l-.2-.5Zm-.72-.27a.71.71,0,0,0,.59-.23,1.35,1.35,0,0,0,.2-.79v-.11a1.56,1.56,0,0,0-.19-.88.7.7,0,0,0-.62-.27.61.61,0,0,0-.54.3,1.58,1.58,0,0,0-.19.86,1.49,1.49,0,0,0,.19.85A.64.64,0,0,0,151.28,11.6Zm4.58.83a2,2,0,0,1-1.44-.51,1.93,1.93,0,0,1-.52-1.44A2.12,2.12,0,0,1,154.38,9a1.71,1.71,0,0,1,1.33-.52,1.68,1.68,0,0,1,1.26.46,1.75,1.75,0,0,1,.45,1.27v.51H155a1,1,0,0,0,.26.69.93.93,0,0,0,.69.25,2.87,2.87,0,0,0,.65-.07,3.27,3.27,0,0,0,.64-.23v.81a2.45,2.45,0,0,1-.58.2A3.69,3.69,0,0,1,155.86,12.43Zm-.15-3.22a.66.66,0,0,0-.52.21,1,1,0,0,0-.22.6h1.46a.87.87,0,0,0-.2-.6A.68.68,0,0,0,155.72,9.21Zm4.69-.74a1.68,1.68,0,0,1,.35,0l-.08,1a1.2,1.2,0,0,0-.31,0,1.11,1.11,0,0,0-.78.26.93.93,0,0,0-.28.72v1.94h-1V8.54h.79l.15.64h.05a1.44,1.44,0,0,1,.48-.52A1.18,1.18,0,0,1,160.4,8.47Zm6.34,2a2.05,2.05,0,0,1-.49,1.46,1.78,1.78,0,0,1-1.37.53,1.92,1.92,0,0,1-1-.24,1.6,1.6,0,0,1-.65-.69,2.33,2.33,0,0,1-.23-1.05A2,2,0,0,1,163.53,9a1.79,1.79,0,0,1,1.37-.52,1.93,1.93,0,0,1,1,.24,1.6,1.6,0,0,1,.65.69A2.3,2.3,0,0,1,166.74,10.45Zm-3-2.88a.44.44,0,0,1,.13-.34.49.49,0,0,1,.35-.12.48.48,0,0,1,.35.13.45.45,0,0,1,.13.33.44.44,0,0,1-.13.33.56.56,0,0,1-.7,0A.44.44,0,0,1,163.72,7.56Zm.38,2.88a1.6,1.6,0,0,0,.19.86.67.67,0,0,0,.61.29.66.66,0,0,0,.6-.29,1.63,1.63,0,0,0,.18-.86,1.58,1.58,0,0,0-.18-.85.78.78,0,0,0-1.21,0A1.58,1.58,0,0,0,164.1,10.45Zm1-2.88a.42.42,0,0,1,.14-.35.53.53,0,0,1,.34-.11.5.5,0,0,1,.35.12.44.44,0,0,1,.13.34.43.43,0,0,1-.13.33.5.5,0,0,1-.35.12.53.53,0,0,1-.34-.11A.41.41,0,0,1,165.1,7.56Zm4.62,1.76h-.9v3h-1v-3h-.57v-.5l.57-.28V8.26a1.25,1.25,0,0,1,.32-1,1.47,1.47,0,0,1,1-.3,2.68,2.68,0,0,1,1,.16l-.27.77a1.94,1.94,0,0,0-.58-.1.38.38,0,0,0-.32.13.54.54,0,0,0-.1.34v.24h.9Zm2.71,0h-.9v3h-1v-3h-.57v-.5l.57-.28V8.26a1.25,1.25,0,0,1,.32-1,1.47,1.47,0,0,1,1-.3,2.68,2.68,0,0,1,1,.16l-.27.77a1.94,1.94,0,0,0-.58-.1.38.38,0,0,0-.32.13.54.54,0,0,0-.1.34v.24h.9Zm2.32,3.11a2,2,0,0,1-1.44-.51,1.93,1.93,0,0,1-.52-1.44A2.12,2.12,0,0,1,173.27,9a1.71,1.71,0,0,1,1.33-.52,1.68,1.68,0,0,1,1.26.46,1.75,1.75,0,0,1,.45,1.27v.51h-2.46a1,1,0,0,0,.26.69.93.93,0,0,0,.69.25,2.87,2.87,0,0,0,.65-.07,3.27,3.27,0,0,0,.64-.23v.81a2.45,2.45,0,0,1-.58.2A3.69,3.69,0,0,1,174.75,12.43Zm-.15-3.22a.66.66,0,0,0-.52.21,1,1,0,0,0-.22.6h1.46a.87.87,0,0,0-.2-.6A.68.68,0,0,0,174.6,9.21Zm6.08,3.15h-1V10.13a1.07,1.07,0,0,0-.15-.62.53.53,0,0,0-.47-.21.7.7,0,0,0-.63.29,1.81,1.81,0,0,0-.19,1v1.8h-1V8.54h.8l.14.49h.06a1.1,1.1,0,0,1,.48-.42,1.64,1.64,0,0,1,.7-.14,1.34,1.34,0,0,1,1,.36,1.45,1.45,0,0,1,.35,1Zm2.68-.76a2.26,2.26,0,0,0,.66-.12v.78a2.34,2.34,0,0,1-1,.17,1.17,1.17,0,0,1-.91-.32,1.38,1.38,0,0,1-.29-.95V9.33h-.5V8.89l.57-.35.3-.81h.67v.81H184v.78h-1.07v1.84a.41.41,0,0,0,.12.33A.49.49,0,0,0,183.37,11.6Zm2.47.76h-1V7h1Zm1.62-4.3q-.57,0-.57-.51t.57-.51q.57,0,.57.51a.5.5,0,0,1-.14.38.6.6,0,0,1-.43.14Zm.52,4.3h-1V8.54h1Zm2.64.07q-1.78,0-1.78-2A2.09,2.09,0,0,1,189.32,9a1.82,1.82,0,0,1,1.39-.51,2.65,2.65,0,0,1,1.19.26l-.31.81-.46-.16a1.48,1.48,0,0,0-.42-.06q-.81,0-.81,1.16t.81,1.12a1.85,1.85,0,0,0,.56-.08,2,2,0,0,0,.51-.25v.89a1.68,1.68,0,0,1-.51.22A2.87,2.87,0,0,1,190.62,12.43Zm5.57-.07h-1V10.13q0-.83-.62-.83a.7.7,0,0,0-.63.3,1.82,1.82,0,0,0-.19,1v1.8h-1V7h1V8.13q0,.13,0,.59l0,.31h.05a1.21,1.21,0,0,1,1.11-.56,1.35,1.35,0,0,1,1,.36,1.44,1.44,0,0,1,.35,1Z"/><text class="cls-10" transform="translate(51.02 24.36)">oder privat eine Rückmeldung geben.</text><text class="cls-11" transform="translate(51.02 36.36)">Beispiel: Mail an den Autor</text><text class="cls-10" transform="translate(62.08 182.15)">Auch weitere Sender und Empfänger </text><text class="cls-10" transform="translate(62.08 194.15)">können mit einbezogen werden.</text><text class="cls-11" transform="translate(62.08 206.15)">Beispiel: Link auf Twitter (Socialmedia)</text><text class="cls-10" transform="translate(357.16 114.66)">Weitere Empfänger </text><text class="cls-10" transform="translate(357.16 126.65)">können wieder auf </text><text class="cls-10" transform="translate(357.16 138.65)">ursprüngliche Empfänger </text><text class="cls-10" transform="translate(357.16 150.65)">reagieren.</text><text class="cls-11" transform="translate(357.16 162.65)">Beispiel: Rückmeldung auf</text><text class="cls-11" transform="translate(357.16 174.65)">Kommentar</text><path class="cls-12" d="M247.8,123.18l2.32,2.35m-3.45-1.33,2.13,2.53m-3.38-1.5,2.06,2.58m-3.33-1.63,1.94,2.67M242.88,127l1.75,2.8m-3.1-2,1.61,2.88m-3-2.13,1.48,3m-2.9-2.27,1.33,3m-2.79-2.4,1.2,3.08m-2.68-2.53,1.05,3.13m-2.56-2.65.91,3.17m-2.44-2.77.76,3.21m-2.31-2.88.62,3.24m-2.18-3,.47,3.26m-2-3.09.32,3.28m-1.87-3.18.1,3.3m-1.68-3.27,0,3.3m-1.54-3.35-.19,3.29M221.75,132l-.34,3.28m-1.23-3.48-.49,3.26m-1.07-3.53-.64,3.24m-.91-3.59-.78,3.21m-.74-3.63-.93,3.17m-.58-3.66L213,133.41m-.37-3.67-1.28,3m-.17-3.67-1.42,3m0-3.68-1.56,2.91m.18-3.68-1.69,2.83m.35-3.67-1.82,2.75m.52-3.65-1.95,2.66m.69-3.62-2.07,2.57m.86-3.58L201,126.41m1-3.54-2.31,2.36m1.2-3.48L198.55,124m1.37-3.41-2.53,2.12m1.51-3.37-2.58,2.06m1.65-3.32L195.27,120m1.81-3.23-2.77,1.78m2-3.13-2.86,1.64m2.11-3-2.94,1.5m2.26-2.92-3,1.35m2.39-2.81-3.07,1.21m2.53-2.69-3.13,1.06m2.66-2.56-3.17.9m2.77-2.43-3.21.75m2.88-2.29-3.24.6m3-2.15L189,104m3.09-2-3.29.28m3.18-1.86-3.3.13m3.27-1.7-3.3,0M192,97.24,188.66,97m3.41-1.39-3.28-.35m3.48-1.22-3.26-.5m3.53-1.05-3.23-.66m3.58-.88-3.2-.81m3.61-.71-3.16-1m3.65-.53-3.11-1.12m3.66-.35-3-1.27m3.67-.17-3-1.42m3.68,0-2.9-1.57m3.69.16-2.87-1.64m3.7.3-2.78-1.78m3.67.49-2.68-1.92m3.64.67-2.58-2.05m3.6.85L197.68,75m3.55,1-2.36-2.3m3.49,1.2-2.24-2.42m3.42,1.37-2.12-2.53m3.34,1.54-2-2.64m3.25,1.7-1.85-2.73m3.2,1.84-1.78-2.77m3.13,2-1.64-2.87m3,2.13-1.49-2.94m2.92,2.27-1.35-3M213,68.23l-1.2-3.07m2.68,2.54-1-3.13M216,67.24l-.89-3.18m2.42,2.79-.74-3.21m2.29,2.91-.58-3.25m2.14,3L220.21,63m2,3.11-.27-3.29m1.85,3.2-.11-3.3m1.69,3.29,0-3.3m1.53,3.36.2-3.29m1.37,3.43.36-3.28m1.21,3.49.51-3.26m1,3.54.67-3.23m.86,3.59.83-3.2m.69,3.63,1-3.15m.51,3.65,1.13-3.1m.34,3.68,1.28-3m.16,3.68,1.43-3m0,3.69,1.57-2.9m-.21,3.68,1.72-2.82m-.38,3.66,1.85-2.73m-.56,3.63,2-2.63m-.71,3.62,2.05-2.58M247,74.51,249.14,72m-1,3.55,2.3-2.36"/><polygon class="cls-2" points="253.02 120.3 241.52 120.72 252.6 131.8 253.02 120.3"/></svg>