<svg id="Layer_1" data-name="Layer 1" xmlns="http://www.w3.org/2000/svg" xmlns:xlink="http://www.w3.org/1999/xlink" viewBox="0 0 226.08 152.03"><defs><style>.cls-1,.cls-6{fill:none;}.cls-2{fill:#f5f5f5;}.cls-3{fill:#fff;}.cls-4{fill:#b8b8b8;}.cls-5{clip-path:url(#clip-path);}.cls-6{stroke:#232321;stroke-miterlimit:10;stroke-width:0.63px;}</style><clipPath id="clip-path"><rect class="cls-1" x="51.14" y="10.49" width="129.6" height="111"/></clipPath></defs><title>fluid_desktop</title><rect class="cls-2" x="5.43" y="3.9" width="216.14" height="121.54"/><rect class="cls-3" x="51.14" y="10.49" width="129.6" height="111"/><rect class="cls-4" x="51.14" y="10.49" width="41.68" height="34.34"/><path d="M71.67,24.85h0l-1.71.93-.26-1,2.16-1.15H73v9.87H71.67Z"/><rect class="cls-4" x="147.85" y="10.49" width="32.89" height="34.34"/><path d="M161.4,31.94a4.47,4.47,0,0,0,2.19.62c1.71,0,2.25-1.09,2.23-1.91,0-1.38-1.26-2-2.55-2h-.74v-1h.74c1,0,2.2-.5,2.2-1.67,0-.79-.5-1.49-1.73-1.49a3.62,3.62,0,0,0-2,.65l-.35-1a4.69,4.69,0,0,1,2.58-.76c1.94,0,2.82,1.15,2.82,2.35A2.45,2.45,0,0,1,165,28.11v0a2.57,2.57,0,0,1,2.2,2.54c0,1.58-1.23,3-3.6,3A5,5,0,0,1,161,33Z"/><rect class="cls-4" x="147.85" y="47.11" width="32.89" height="34.34"/><path d="M166.72,61.16a4.81,4.81,0,0,0-1,.06,4,4,0,0,0-3.43,3.51h0a3,3,0,0,1,5.36,2,3.3,3.3,0,0,1-3.28,3.48c-2.11,0-3.49-1.64-3.49-4.21a6.21,6.21,0,0,1,1.67-4.45,5.37,5.37,0,0,1,3.16-1.46,6.44,6.44,0,0,1,1-.08Zm-.38,5.69a2,2,0,0,0-2-2.26,2.2,2.2,0,0,0-1.91,1.21,1.14,1.14,0,0,0-.15.59c0,1.63.77,2.82,2.17,2.82C165.56,69.23,166.34,68.27,166.34,66.86Z"/><rect class="cls-4" x="147.85" y="83.73" width="32.89" height="34.34"/><path d="M161.86,105.77a5.56,5.56,0,0,0,1.08,0,3.72,3.72,0,0,0,2.06-1,4.33,4.33,0,0,0,1.31-2.63h0a2.9,2.9,0,0,1-2.32,1.06,2.86,2.86,0,0,1-2.92-3,3.38,3.38,0,0,1,3.37-3.51c2,0,3.26,1.64,3.26,4.16a6.23,6.23,0,0,1-1.7,4.63,4.93,4.93,0,0,1-2.87,1.32,6.23,6.23,0,0,1-1.23.08Zm.49-5.68a1.9,1.9,0,0,0,1.9,2.09,2.21,2.21,0,0,0,1.94-1,.88.88,0,0,0,.12-.49c0-1.68-.62-3-2-3C163.15,97.69,162.35,98.69,162.35,100.09Z"/><rect class="cls-4" x="147.85" y="120.35" width="32.89" height="1.14"/><g class="cls-5"><path d="M160.09,134.71h0l-1.72.93-.26-1,2.16-1.15h1.14v9.87h-1.29Z"/><path d="M165,143.33v-.82l1-1c2.52-2.4,3.66-3.67,3.67-5.16a1.76,1.76,0,0,0-2-1.93,3.36,3.36,0,0,0-2.09.84l-.42-.94a4.33,4.33,0,0,1,2.79-1,2.78,2.78,0,0,1,3,2.87c0,1.82-1.32,3.29-3.4,5.3l-.79.73v0h4.43v1.11Z"/></g><rect class="cls-4" x="51.14" y="47.11" width="41.68" height="34.34"/><path d="M72.9,70.09V67.4H68.32v-.88l4.4-6.3h1.44v6.13h1.38v1H74.16v2.69Zm0-3.74V63.06q0-.77,0-1.55h0c-.3.58-.55,1-.82,1.46l-2.41,3.35v0Z"/><rect class="cls-4" x="51.14" y="83.73" width="41.68" height="34.34"/><path d="M75.18,96.84v.88l-4.3,9H69.5L73.78,98v0H69V96.84Z"/><rect class="cls-4" x="51.14" y="120.35" width="41.68" height="1.14"/><g class="cls-5"><path d="M67.77,134.71h0l-1.72.93-.26-1,2.16-1.15h1.14v9.87H67.77Z"/><path d="M79.23,138.29c0,3.36-1.25,5.21-3.43,5.21-1.93,0-3.23-1.81-3.26-5.07S74,133.3,76,133.3,79.23,135.15,79.23,138.29Zm-5.36.15c0,2.57.79,4,2,4,1.37,0,2-1.59,2-4.11s-.62-4-2-4C74.72,134.33,73.87,135.76,73.87,138.44Z"/></g><rect class="cls-4" x="95.1" y="10.49" width="50.47" height="46.55"/><path d="M117.13,39.57v-.82l1-1c2.52-2.4,3.66-3.67,3.67-5.16a1.76,1.76,0,0,0-2-1.93,3.36,3.36,0,0,0-2.09.84l-.43-.94a4.33,4.33,0,0,1,2.79-1,2.78,2.78,0,0,1,3,2.87c0,1.82-1.32,3.29-3.4,5.3l-.79.73v0h4.43v1.11Z"/><rect class="cls-4" x="95.1" y="59.32" width="50.47" height="46.55"/><path d="M123,79.66h-3.77l-.38,2.54a5.27,5.27,0,0,1,.8-.06,4.17,4.17,0,0,1,2.13.53,2.81,2.81,0,0,1,1.41,2.54,3.42,3.42,0,0,1-3.67,3.37,4.83,4.83,0,0,1-2.46-.61l.33-1a4.42,4.42,0,0,0,2.11.55,2.18,2.18,0,0,0,2.34-2.14c0-1.28-.87-2.19-2.84-2.19a10.31,10.31,0,0,0-1.37.11l.64-4.74H123Z"/><rect class="cls-4" x="95.1" y="108.14" width="50.47" height="13.34"/><g class="cls-5"><path d="M117,134.72a2.82,2.82,0,0,1,2-2.64l0,0a2.44,2.44,0,0,1-1.56-2.22,2.76,2.76,0,0,1,3.05-2.63c1.91,0,2.87,1.2,2.87,2.43a2.51,2.51,0,0,1-1.62,2.31v0a2.73,2.73,0,0,1,2,2.55c0,1.71-1.47,2.87-3.36,2.87C118.25,137.4,117,136.17,117,134.72Zm5.31-.06c0-1.2-.83-1.78-2.17-2.16a2.14,2.14,0,0,0-1.78,2,1.83,1.83,0,0,0,2,1.88A1.78,1.78,0,0,0,122.32,134.66Zm-3.67-4.93c0,1,.74,1.52,1.88,1.82a1.94,1.94,0,0,0,1.5-1.79,1.53,1.53,0,0,0-1.67-1.61A1.57,1.57,0,0,0,118.64,129.73Z"/></g><rect class="cls-3" x="96.36" y="121.32" width="33.37" height="28.3"/><rect class="cls-6" x="96.36" y="121.32" width="33.37" height="28.3"/><rect class="cls-3" x="84.01" y="144.56" width="58.06" height="7.15"/><rect class="cls-6" x="84.01" y="144.56" width="58.06" height="7.15"/><path class="cls-3" d="M5.2.31H220.89a4.89,4.89,0,0,1,4.89,4.89V124a4.89,4.89,0,0,1-4.89,4.89H5.2A4.89,4.89,0,0,1,.31,124V5.2A4.89,4.89,0,0,1,5.2.31m8,117.38H213V11.35H13.15Z"/><path class="cls-6" d="M5.2.31H220.88a4.89,4.89,0,0,1,4.89,4.89V124a4.89,4.89,0,0,1-4.89,4.89H5.2A4.89,4.89,0,0,1,.31,124V5.2A4.89,4.89,0,0,1,5.2.31Zm8,117.38H213V11.35H13.15Z"/></svg>