<svg id="Layer_1" data-name="Layer 1" xmlns="http://www.w3.org/2000/svg" xmlns:xlink="http://www.w3.org/1999/xlink" viewBox="0 0 36.77 76.98"><defs><style>.cls-1,.cls-6,.cls-7{fill:none;}.cls-2{fill:#fff;}.cls-3{fill:#b8b8b8;}.cls-4{fill:#dedede;}.cls-5{clip-path:url(#clip-path);}.cls-6,.cls-7{stroke:#232321;stroke-miterlimit:10;stroke-width:0.63px;}.cls-7{stroke-linecap:round;}</style><clipPath id="clip-path"><rect class="cls-1" x="3.26" y="11.58" width="30.91" height="57.54"/></clipPath></defs><title>responsive_mobile</title><rect class="cls-2" x="3.26" y="11.58" width="30.91" height="57.54"/><rect class="cls-3" x="3.26" y="17.57" width="14.88" height="15.07"/><rect class="cls-3" x="19.29" y="17.57" width="14.87" height="15.07"/><rect class="cls-4" x="3.26" y="11.58" width="30.91" height="4.64"/><path d="M5.17,36.24,5,36.77H4.77l.58-1.7h.26l.58,1.7H6l-.18-.53Zm.56-.17-.17-.49c0-.11-.06-.21-.09-.31h0c0,.1-.05.2-.08.31l-.17.49Z"/><path d="M7.27,36.73a.81.81,0,0,1-.35.07.58.58,0,0,1-.61-.62A.62.62,0,0,1,7,35.53a.74.74,0,0,1,.31.06l-.05.17A.51.51,0,0,0,7,35.7a.46.46,0,0,0,0,.92.62.62,0,0,0,.27-.06Z"/><path d="M7.64,36.2a.39.39,0,0,0,.42.42.8.8,0,0,0,.34-.06l0,.16A1,1,0,0,1,8,36.8a.57.57,0,0,1-.6-.61A.59.59,0,0,1,8,35.53a.52.52,0,0,1,.5.57.94.94,0,0,1,0,.1ZM8.29,36A.32.32,0,0,0,8,35.68a.37.37,0,0,0-.34.36Z"/><path d="M9.45,36.77l0-.15h0A.45.45,0,0,1,9,36.8a.35.35,0,0,1-.37-.35c0-.29.26-.46.73-.45v0a.25.25,0,0,0-.28-.28.62.62,0,0,0-.32.09l0-.15a.76.76,0,0,1,.4-.11c.37,0,.46.25.46.5v.46a1.67,1.67,0,0,0,0,.29Zm0-.62c-.24,0-.52,0-.52.27a.2.2,0,0,0,.21.21.3.3,0,0,0,.29-.2.22.22,0,0,0,0-.07Z"/><path d="M11.57,35v1.47c0,.11,0,.23,0,.31h-.2v-.21h0a.45.45,0,0,1-.42.24.56.56,0,0,1-.52-.62.58.58,0,0,1,.55-.65.41.41,0,0,1,.37.19h0V35ZM11.35,36a.37.37,0,0,0,0-.09A.33.33,0,0,0,11,35.7c-.23,0-.37.2-.37.47s.12.45.36.45a.33.33,0,0,0,.32-.26.37.37,0,0,0,0-.1Z"/><path d="M12.18,35.21a.14.14,0,0,1-.27,0,.13.13,0,0,1,.14-.14A.13.13,0,0,1,12.18,35.21Zm-.25,1.56V35.55h.22v1.22Z"/><path d="M13.14,35.55l.24.68c0,.11.07.21.1.31h0c0-.1.06-.2.1-.31l.24-.68h.23l-.48,1.22h-.21l-.46-1.22Z"/><path d="M15.34,36.15a.6.6,0,0,1-.61.65.58.58,0,0,1-.58-.63.6.6,0,0,1,.6-.65A.58.58,0,0,1,15.34,36.15Zm-1,0c0,.27.15.47.37.47s.37-.2.37-.47-.1-.47-.37-.47S14.37,35.93,14.37,36.17Z"/><path d="M15.62,35h.22v1.79h-.22Z"/><path d="M17.31,36.15a.6.6,0,0,1-.61.65.58.58,0,0,1-.58-.63.59.59,0,0,1,.6-.65A.58.58,0,0,1,17.31,36.15Zm-1,0c0,.27.15.47.37.47s.37-.2.37-.47-.1-.47-.37-.47S16.34,35.93,16.34,36.17Z"/><path d="M17.59,35.93c0-.14,0-.27,0-.38h.19v.24h0a.36.36,0,0,1,.34-.27h.06v.21h-.08a.31.31,0,0,0-.3.28.55.55,0,0,0,0,.1v.65h-.22Z"/><path d="M18.91,36.55a.58.58,0,0,0,.29.09c.16,0,.24-.08.24-.18s-.06-.16-.23-.22-.32-.2-.32-.34a.38.38,0,0,1,.42-.36.61.61,0,0,1,.3.08l-.06.16a.47.47,0,0,0-.25-.07c-.13,0-.2.08-.2.17s.07.15.23.21.32.19.32.37-.17.37-.46.37a.7.7,0,0,1-.34-.08Z"/><path d="M20.61,36.77l0-.15h0a.45.45,0,0,1-.37.18.35.35,0,0,1-.37-.35c0-.29.26-.46.73-.45v0a.25.25,0,0,0-.28-.28.61.61,0,0,0-.32.09l-.05-.15a.75.75,0,0,1,.4-.11c.37,0,.46.25.46.5v.46a1.76,1.76,0,0,0,0,.29Zm0-.62c-.24,0-.52,0-.52.27a.2.2,0,0,0,.21.21.3.3,0,0,0,.29-.2.22.22,0,0,0,0-.07Z"/><path d="M21.15,35.88c0-.13,0-.23,0-.33h.19v.2h0a.42.42,0,0,1,.38-.22.36.36,0,0,1,.34.24h0a.5.5,0,0,1,.14-.16.42.42,0,0,1,.27-.08c.16,0,.4.11.4.53v.72h-.22v-.69c0-.23-.08-.38-.26-.38a.29.29,0,0,0-.26.2.37.37,0,0,0,0,.11v.75h-.22V36c0-.19-.09-.33-.25-.33a.3.3,0,0,0-.27.22.31.31,0,0,0,0,.11v.74h-.22Z"/><path d="M24.26,36.44c0,.13,0,.24,0,.33h-.2v-.2h0a.46.46,0,0,1-.4.23c-.19,0-.42-.11-.42-.53v-.71h.22v.67c0,.23.07.39.27.39a.32.32,0,0,0,.29-.2.32.32,0,0,0,0-.11v-.75h.22Z"/><path d="M24.59,36.55a.58.58,0,0,0,.29.09c.16,0,.24-.08.24-.18s-.06-.16-.23-.22-.32-.2-.32-.34a.38.38,0,0,1,.42-.36.61.61,0,0,1,.3.08l-.05.16a.48.48,0,0,0-.25-.07c-.13,0-.2.08-.2.17s.07.15.23.21.32.19.32.37-.17.37-.46.37a.7.7,0,0,1-.34-.08Z"/><path d="M5.57,39.79l0-.15h0a.45.45,0,0,1-.37.18.35.35,0,0,1-.37-.35c0-.29.26-.46.73-.45v0a.25.25,0,0,0-.28-.28.61.61,0,0,0-.32.09l-.05-.15a.75.75,0,0,1,.4-.11c.37,0,.46.25.46.5v.46a1.76,1.76,0,0,0,0,.29Zm0-.62c-.24,0-.52,0-.52.27a.2.2,0,0,0,.21.21.3.3,0,0,0,.29-.2.22.22,0,0,0,0-.07Z"/><path d="M7.12,39.45c0,.13,0,.24,0,.33h-.2v-.2h0a.46.46,0,0,1-.4.23c-.19,0-.42-.11-.42-.53v-.71h.22v.67c0,.23.07.39.27.39a.32.32,0,0,0,.29-.2.35.35,0,0,0,0-.11v-.75h.22Z"/><path d="M7.75,38.22v.35h.32v.17H7.75v.66c0,.15,0,.24.17.24H8v.17a.55.55,0,0,1-.2,0,.3.3,0,0,1-.24-.09.45.45,0,0,1-.09-.32v-.67H7.35v-.17h.19v-.29Z"/><path d="M9.53,39.79l0-.15h0a.45.45,0,0,1-.37.18.35.35,0,0,1-.37-.35c0-.29.26-.46.73-.45v0a.25.25,0,0,0-.28-.28.62.62,0,0,0-.32.09l0-.15a.76.76,0,0,1,.4-.11c.37,0,.46.25.46.5v.46a1.67,1.67,0,0,0,0,.29Zm0-.62c-.24,0-.52,0-.52.27a.2.2,0,0,0,.21.21.3.3,0,0,0,.29-.2.22.22,0,0,0,0-.07Z"/><path d="M10.06,38.95c0-.14,0-.27,0-.38h.19v.24h0a.37.37,0,0,1,.34-.27h.06v.21h-.08a.31.31,0,0,0-.3.28.64.64,0,0,0,0,.1v.65h-.22Z"/><path d="M11.73,39.74a.81.81,0,0,1-.35.07.58.58,0,0,1-.61-.62.62.62,0,0,1,.65-.65.74.74,0,0,1,.31.06l0,.17a.52.52,0,0,0-.26-.06.42.42,0,0,0-.43.46.42.42,0,0,0,.42.46.62.62,0,0,0,.27-.06Z"/><path d="M12.23,38.23a.14.14,0,0,1-.27,0,.13.13,0,0,1,.14-.14A.13.13,0,0,1,12.23,38.23ZM12,39.79V38.57h.22v1.22Z"/><path d="M13.63,38v1.47c0,.11,0,.23,0,.31h-.2v-.21h0a.45.45,0,0,1-.42.24.56.56,0,0,1-.52-.62.58.58,0,0,1,.55-.65.41.41,0,0,1,.37.19h0V38Zm-.22,1.06a.37.37,0,0,0,0-.09.33.33,0,0,0-.32-.26c-.23,0-.37.2-.37.47s.12.45.36.45a.33.33,0,0,0,.32-.26.37.37,0,0,0,0-.1Z"/><path d="M15.35,39.6h0a.44.44,0,0,1-.4.22.56.56,0,0,1-.52-.62.58.58,0,0,1,.55-.66.4.4,0,0,1,.38.21h0v-.18h.21c0,.1,0,.21,0,.33v1.38h-.22Zm0-.54a.37.37,0,0,0,0-.09.32.32,0,0,0-.32-.25c-.23,0-.37.19-.37.47s.12.45.36.45a.33.33,0,0,0,.32-.24.38.38,0,0,0,0-.11Z"/><path d="M17,39.45c0,.13,0,.24,0,.33h-.2v-.2h0a.46.46,0,0,1-.4.23c-.19,0-.42-.11-.42-.53v-.71h.22v.67c0,.23.07.39.27.39a.32.32,0,0,0,.29-.2.35.35,0,0,0,0-.11v-.75H17Z"/><path d="M18.42,39.17a.6.6,0,0,1-.61.65.58.58,0,0,1-.58-.63.59.59,0,0,1,.6-.65A.58.58,0,0,1,18.42,39.17Zm-1,0c0,.27.15.47.37.47s.37-.2.37-.47-.1-.47-.37-.47S17.46,38.95,17.46,39.18Z"/><path d="M19.32,38.57l.24.68c0,.11.07.21.1.31h0c0-.1.06-.2.1-.31l.24-.68h.23l-.48,1.22h-.21l-.46-1.22Z"/><path d="M21.52,39.17a.6.6,0,0,1-.61.65.58.58,0,0,1-.58-.63.6.6,0,0,1,.6-.65A.58.58,0,0,1,21.52,39.17Zm-1,0c0,.27.15.47.37.47s.37-.2.37-.47-.1-.47-.37-.47S20.55,38.95,20.55,39.18Z"/><path d="M21.79,38H22v1.79h-.22Z"/><path d="M23.49,39.17a.6.6,0,0,1-.61.65.58.58,0,0,1-.58-.63.59.59,0,0,1,.6-.65A.58.58,0,0,1,23.49,39.17Zm-1,0c0,.27.15.47.37.47s.37-.2.37-.47-.1-.47-.37-.47S22.52,38.95,22.52,39.18Z"/><path d="M23.76,38.95c0-.14,0-.27,0-.38h.19v.24h0a.36.36,0,0,1,.34-.27h.06v.21h-.08A.31.31,0,0,0,24,39a.55.55,0,0,0,0,.1v.65h-.22Z"/><path d="M24.69,39.22a.39.39,0,0,0,.42.42.8.8,0,0,0,.34-.06l0,.16a1,1,0,0,1-.41.08.57.57,0,0,1-.6-.61.59.59,0,0,1,.57-.66.52.52,0,0,1,.5.57.94.94,0,0,1,0,.1Zm.65-.16A.31.31,0,0,0,25,38.7a.37.37,0,0,0-.34.36Z"/><path d="M5,41.58l.24.68a3.07,3.07,0,0,1,.1.31h0c0-.1.06-.2.1-.31l.24-.68h.23L5.42,42.8H5.21l-.46-1.22Z"/><path d="M7.18,42.18a.6.6,0,0,1-.61.65A.58.58,0,0,1,6,42.2a.59.59,0,0,1,.6-.65A.58.58,0,0,1,7.18,42.18Zm-1,0c0,.27.15.47.37.47s.37-.2.37-.47-.1-.47-.37-.47S6.21,42,6.21,42.19Z"/><path d="M7.46,41h.22V42.8H7.46Z"/><path d="M9.07,42.47c0,.13,0,.24,0,.33h-.2v-.2h0a.46.46,0,0,1-.4.23c-.19,0-.42-.11-.42-.53v-.71h.22v.67c0,.23.07.39.27.39a.32.32,0,0,0,.29-.2.32.32,0,0,0,0-.11v-.75h.22Z"/><path d="M9.43,42c0-.16,0-.28,0-.4h.2v.21h0a.48.48,0,0,1,.43-.24.55.55,0,0,1,.52.62.58.58,0,0,1-.55.65.43.43,0,0,1-.38-.19h0v.66H9.43Zm.22.32a.43.43,0,0,0,0,.09.34.34,0,0,0,.33.26c.23,0,.37-.19.37-.47s-.13-.45-.36-.45a.38.38,0,0,0-.35.37Z"/><path d="M11.13,41.23v.35h.32v.17h-.32v.66c0,.15,0,.24.17.24h.13v.17a.55.55,0,0,1-.2,0,.3.3,0,0,1-.24-.09.45.45,0,0,1-.09-.32v-.67h-.19v-.17h.19v-.29Z"/><path d="M12.37,42.8l0-.15h0a.45.45,0,0,1-.37.18.35.35,0,0,1-.37-.35c0-.29.26-.46.73-.45v0a.25.25,0,0,0-.28-.28.61.61,0,0,0-.32.09l-.05-.15a.75.75,0,0,1,.4-.11c.37,0,.46.25.46.5v.46a1.76,1.76,0,0,0,0,.29Zm0-.62c-.24,0-.52,0-.52.27a.2.2,0,0,0,.21.21.3.3,0,0,0,.29-.2.22.22,0,0,0,0-.07Z"/><path d="M13.16,41.23v.35h.32v.17h-.32v.66c0,.15,0,.24.17.24h.13v.17a.55.55,0,0,1-.2,0,.31.31,0,0,1-.24-.09.45.45,0,0,1-.09-.32v-.67h-.19v-.17h.19v-.29Z"/><path d="M14.74,42.47c0,.13,0,.24,0,.33h-.2v-.2h0a.46.46,0,0,1-.4.23c-.19,0-.42-.11-.42-.53v-.71h.22v.67c0,.23.07.39.27.39a.32.32,0,0,0,.29-.2.32.32,0,0,0,0-.11v-.75h.22Z"/><path d="M15.11,42c0-.14,0-.27,0-.38h.19v.24h0a.36.36,0,0,1,.34-.27h.06v.21h-.08a.31.31,0,0,0-.3.28.55.55,0,0,0,0,.1v.65h-.22Z"/><path d="M16.43,42.57a.58.58,0,0,0,.29.09c.16,0,.24-.08.24-.18s-.06-.16-.23-.22-.32-.2-.32-.34a.38.38,0,0,1,.42-.36.61.61,0,0,1,.3.08l-.06.16a.47.47,0,0,0-.25-.07c-.13,0-.2.08-.2.17s.07.15.23.21.32.19.32.37-.17.37-.46.37a.7.7,0,0,1-.34-.08Z"/><path d="M17.7,41.24a.14.14,0,0,1-.27,0,.13.13,0,0,1,.14-.14A.13.13,0,0,1,17.7,41.24Zm-.25,1.56V41.58h.22V42.8Z"/><path d="M18.31,41.23v.35h.32v.17h-.32v.66c0,.15,0,.24.17.24h.13v.17a.54.54,0,0,1-.2,0,.31.31,0,0,1-.24-.09.45.45,0,0,1-.08-.32v-.67h-.19v-.17h.19v-.29Z"/><path d="M19.55,42.8l0-.15h0a.45.45,0,0,1-.37.18.35.35,0,0,1-.37-.35c0-.29.26-.46.73-.45v0a.25.25,0,0,0-.28-.28.62.62,0,0,0-.32.09l-.05-.15a.76.76,0,0,1,.4-.11c.37,0,.46.25.46.5v.46a1.66,1.66,0,0,0,0,.29Zm0-.62c-.24,0-.52,0-.52.27a.2.2,0,0,0,.21.21.3.3,0,0,0,.29-.2.22.22,0,0,0,0-.07Z"/><path d="M20.34,41.23v.35h.32v.17h-.32v.66c0,.15,0,.24.17.24h.13v.17a.54.54,0,0,1-.2,0,.31.31,0,0,1-.24-.09.45.45,0,0,1-.08-.32v-.67h-.19v-.17h.19v-.29Z"/><path d="M21.93,42.47c0,.13,0,.24,0,.33h-.2v-.2h0a.46.46,0,0,1-.4.23c-.19,0-.42-.11-.42-.53v-.71h.22v.67c0,.23.07.39.27.39a.32.32,0,0,0,.29-.2.35.35,0,0,0,0-.11v-.75h.22Z"/><path d="M22.29,42c0-.14,0-.27,0-.38h.19v.24h0a.37.37,0,0,1,.34-.27h.06v.21h-.08a.31.31,0,0,0-.3.28.64.64,0,0,0,0,.1v.65h-.22Z"/><path d="M23.28,42.32v-.07a.58.58,0,0,1,.16-.44.56.56,0,0,0,.18-.35c0-.13-.08-.21-.24-.22a.45.45,0,0,0-.25.08l-.06-.16a.66.66,0,0,1,.36-.1.37.37,0,0,1,.42.37.69.69,0,0,1-.22.44.5.5,0,0,0-.14.37v.07Zm-.05.35a.15.15,0,0,1,.15-.16.16.16,0,1,1-.15.16Z"/><path d="M4.9,45.81v-1.7h.24l.54.86a4.89,4.89,0,0,1,.3.55H6c0-.23,0-.43,0-.7v-.71h.21v1.7H6L5.41,45a5.3,5.3,0,0,1-.32-.57h0c0,.21,0,.42,0,.7v.72Z"/><path d="M6.67,45.24a.39.39,0,0,0,.42.42.81.81,0,0,0,.34-.06l0,.16a1,1,0,0,1-.41.08.57.57,0,0,1-.6-.61A.59.59,0,0,1,7,44.57a.52.52,0,0,1,.5.57.74.74,0,0,1,0,.1Zm.65-.16A.32.32,0,0,0,7,44.73a.37.37,0,0,0-.34.36Z"/><path d="M8.63,45.62h0a.43.43,0,0,1-.4.22.55.55,0,0,1-.52-.62.58.58,0,0,1,.55-.66.4.4,0,0,1,.38.21h0v-.18h.21c0,.1,0,.21,0,.33v1.38H8.63Zm0-.54a.37.37,0,0,0,0-.09.32.32,0,0,0-.32-.25c-.23,0-.37.19-.37.47s.12.45.36.45a.33.33,0,0,0,.32-.24.38.38,0,0,0,0-.11Z"/><path d="M10.24,45.48c0,.13,0,.24,0,.33h-.2v-.2h0a.46.46,0,0,1-.4.23c-.19,0-.42-.11-.42-.53v-.71h.22v.67c0,.23.07.39.27.39a.32.32,0,0,0,.29-.2.32.32,0,0,0,0-.11v-.75h.22Z"/><path d="M11.28,45.81l0-.15h0a.45.45,0,0,1-.37.18.35.35,0,0,1-.37-.35c0-.29.26-.46.73-.45v0a.25.25,0,0,0-.28-.28.61.61,0,0,0-.32.09l0-.15a.75.75,0,0,1,.4-.11c.37,0,.46.25.46.5v.46a1.77,1.77,0,0,0,0,.29Zm0-.62c-.24,0-.52,0-.52.27a.2.2,0,0,0,.21.21.3.3,0,0,0,.29-.2.22.22,0,0,0,0-.07Z"/><path d="M11.81,44.92c0-.13,0-.23,0-.33H12v.2h0a.42.42,0,0,1,.38-.22.36.36,0,0,1,.34.24h0a.51.51,0,0,1,.14-.16.42.42,0,0,1,.27-.08c.16,0,.4.11.4.53v.72h-.22v-.69c0-.23-.08-.38-.26-.38a.29.29,0,0,0-.26.2.37.37,0,0,0,0,.11v.75h-.22v-.73c0-.19-.09-.33-.25-.33A.3.3,0,0,0,12,45a.33.33,0,0,0,0,.11v.74h-.22Z"/><path d="M14.93,45.48c0,.13,0,.24,0,.33h-.2v-.2h0a.46.46,0,0,1-.4.23c-.19,0-.42-.11-.42-.53v-.71h.22v.67c0,.23.07.39.27.39a.32.32,0,0,0,.29-.2.35.35,0,0,0,0-.11v-.75h.22Z"/><path d="M15.26,45.59a.57.57,0,0,0,.29.09c.16,0,.24-.08.24-.18s-.06-.16-.23-.22-.32-.2-.32-.34a.38.38,0,0,1,.42-.36.61.61,0,0,1,.3.08l-.05.16a.48.48,0,0,0-.25-.07c-.13,0-.2.08-.2.17s.07.15.23.21.32.19.32.37-.17.37-.46.37a.7.7,0,0,1-.34-.08Z"/><path d="M17.34,44V45.5c0,.11,0,.23,0,.31h-.2V45.6h0a.45.45,0,0,1-.42.24.56.56,0,0,1-.52-.62.58.58,0,0,1,.55-.65.41.41,0,0,1,.37.19h0V44Zm-.22,1.06a.38.38,0,0,0,0-.09.32.32,0,0,0-.32-.26c-.23,0-.37.2-.37.47s.12.45.36.45a.33.33,0,0,0,.33-.26.37.37,0,0,0,0-.1Z"/><path d="M18.38,45.81l0-.15h0a.45.45,0,0,1-.37.18.35.35,0,0,1-.37-.35c0-.29.26-.46.73-.45v0a.25.25,0,0,0-.28-.28.61.61,0,0,0-.32.09l0-.15a.75.75,0,0,1,.4-.11c.37,0,.46.25.46.5v.46a1.77,1.77,0,0,0,0,.29Zm0-.62c-.24,0-.52,0-.52.27a.2.2,0,0,0,.21.21.3.3,0,0,0,.29-.2.22.22,0,0,0,0-.07Z"/><path d="M19,45.24a.39.39,0,0,0,.42.42.8.8,0,0,0,.34-.06l0,.16a1,1,0,0,1-.41.08.57.57,0,0,1-.6-.61.59.59,0,0,1,.57-.66.52.52,0,0,1,.5.57.94.94,0,0,1,0,.1Zm.65-.16a.32.32,0,0,0-.31-.36.37.37,0,0,0-.34.36Z"/><path d="M20.7,45c0-.16,0-.28,0-.4h.2v.21h0a.48.48,0,0,1,.43-.24.55.55,0,0,1,.52.62.58.58,0,0,1-.55.65.43.43,0,0,1-.37-.19h0v.66H20.7Zm.22.32a.5.5,0,0,0,0,.09.34.34,0,0,0,.33.26c.23,0,.37-.19.37-.47s-.13-.45-.36-.45a.39.39,0,0,0-.35.37Z"/><path d="M22.8,45.81l0-.15h0a.45.45,0,0,1-.37.18.35.35,0,0,1-.37-.35c0-.29.26-.46.73-.45v0a.25.25,0,0,0-.28-.28.61.61,0,0,0-.32.09l0-.15a.75.75,0,0,1,.4-.11c.37,0,.46.25.46.5v.46a1.77,1.77,0,0,0,0,.29Zm0-.62c-.24,0-.52,0-.52.27a.2.2,0,0,0,.21.21.3.3,0,0,0,.29-.2.22.22,0,0,0,0-.07Z"/><path d="M23.34,45c0-.14,0-.27,0-.38h.19v.24h0a.37.37,0,0,1,.34-.27h.06v.21h-.08a.31.31,0,0,0-.3.28.54.54,0,0,0,0,.1v.65h-.22Z"/><path d="M25.18,45.48c0,.13,0,.24,0,.33H25v-.2h0a.46.46,0,0,1-.4.23c-.19,0-.42-.11-.42-.53v-.71h.22v.67c0,.23.07.39.27.39a.32.32,0,0,0,.29-.2.32.32,0,0,0,0-.11v-.75h.22Z"/><path d="M25.55,44.92c0-.13,0-.23,0-.33h.19v.2h0a.42.42,0,0,1,.38-.22.36.36,0,0,1,.34.24h0a.51.51,0,0,1,.14-.16.42.42,0,0,1,.27-.08c.16,0,.4.11.4.53v.72h-.22v-.69c0-.23-.08-.38-.26-.38a.29.29,0,0,0-.26.2.37.37,0,0,0,0,.11v.75h-.22v-.73c0-.19-.09-.33-.25-.33a.3.3,0,0,0-.28.22.33.33,0,0,0,0,.11v.74h-.22Z"/><path d="M28.17,45c0-.14,0-.27,0-.38h.19v.24h0a.37.37,0,0,1,.34-.27h.06v.21H28.7a.31.31,0,0,0-.3.28.54.54,0,0,0,0,.1v.65h-.22Z"/><path d="M29.09,45.24a.39.39,0,0,0,.42.42.81.81,0,0,0,.34-.06l0,.16a1,1,0,0,1-.41.08.57.57,0,0,1-.6-.61.59.59,0,0,1,.57-.66.52.52,0,0,1,.5.57.74.74,0,0,1,0,.1Zm.65-.16a.32.32,0,0,0-.31-.36.37.37,0,0,0-.34.36Z"/><path d="M30.81,45.05v.16h-.62v-.16Z"/><path d="M4.89,48c0-.16,0-.28,0-.4h.2v.21h0a.48.48,0,0,1,.43-.24A.55.55,0,0,1,6,48.2a.58.58,0,0,1-.55.65.43.43,0,0,1-.38-.19h0v.66H4.89Zm.22.32a.51.51,0,0,0,0,.09.34.34,0,0,0,.33.26c.23,0,.37-.19.37-.47s-.13-.45-.36-.45a.39.39,0,0,0-.35.37Z"/><path d="M6.32,48c0-.14,0-.27,0-.38h.19v.24h0a.37.37,0,0,1,.34-.27h.06v.21H6.85a.31.31,0,0,0-.3.28.54.54,0,0,0,0,.1v.65H6.32Z"/><path d="M7.81,48.83l0-.15h0a.45.45,0,0,1-.37.18A.35.35,0,0,1,7,48.5c0-.29.26-.46.73-.45v0a.25.25,0,0,0-.28-.28.61.61,0,0,0-.32.09l-.05-.15a.75.75,0,0,1,.4-.11c.37,0,.46.25.46.5v.46a1.76,1.76,0,0,0,0,.29Zm0-.62c-.24,0-.52,0-.52.27a.2.2,0,0,0,.21.21.3.3,0,0,0,.29-.2.22.22,0,0,0,0-.07Z"/><path d="M8.47,48.26a.39.39,0,0,0,.42.42.8.8,0,0,0,.34-.06l0,.16a1,1,0,0,1-.41.08.57.57,0,0,1-.6-.61.59.59,0,0,1,.57-.66.52.52,0,0,1,.5.57.94.94,0,0,1,0,.1Zm.65-.16a.31.31,0,0,0-.31-.36.37.37,0,0,0-.34.36Z"/><path d="M9.52,48.7a.15.15,0,0,1,.15-.16.16.16,0,1,1-.15.16Z"/><path d="M10.85,47.13v1.7h-.22v-1.7Z"/><path d="M11.53,47.26v.35h.32v.17h-.32v.66c0,.15,0,.24.17.24h.13v.17a.55.55,0,0,1-.2,0,.3.3,0,0,1-.24-.09.45.45,0,0,1-.09-.32v-.67h-.19v-.17h.19v-.29Z"/><path d="M12.34,47.27a.14.14,0,0,1-.27,0,.13.13,0,0,1,.14-.14A.13.13,0,0,1,12.34,47.27Zm-.25,1.56V47.61h.22v1.22Z"/><path d="M13.36,48.83l0-.15h0a.45.45,0,0,1-.37.18.35.35,0,0,1-.37-.35c0-.29.26-.46.73-.45v0a.25.25,0,0,0-.28-.28.61.61,0,0,0-.32.09l0-.15a.75.75,0,0,1,.4-.11c.37,0,.46.25.46.5v.46a1.77,1.77,0,0,0,0,.29Zm0-.62c-.24,0-.52,0-.52.27a.2.2,0,0,0,.21.21.3.3,0,0,0,.29-.2.22.22,0,0,0,0-.07Z"/><path d="M14.51,47.61l.24.68c0,.11.07.21.1.31h0c0-.1.06-.2.1-.31l.24-.68h.23L15,48.83h-.21l-.46-1.22Z"/><path d="M16.71,48.21a.6.6,0,0,1-.61.65.58.58,0,0,1-.58-.63.59.59,0,0,1,.6-.65A.58.58,0,0,1,16.71,48.21Zm-1,0c0,.27.15.47.37.47s.37-.2.37-.47-.1-.47-.37-.47S15.75,48,15.75,48.22Z"/><path d="M17,47h.22v1.79H17Z"/><path d="M18.6,48.49c0,.13,0,.24,0,.33h-.2v-.2h0a.46.46,0,0,1-.4.23c-.19,0-.42-.11-.42-.53v-.71h.22v.67c0,.23.07.39.27.39a.32.32,0,0,0,.29-.2.32.32,0,0,0,0-.11v-.75h.22Z"/><path d="M19,48c0-.16,0-.28,0-.4h.2v.21h0a.48.48,0,0,1,.43-.24.55.55,0,0,1,.52.62.58.58,0,0,1-.55.65.43.43,0,0,1-.38-.19h0v.66H19Zm.22.32a.43.43,0,0,0,0,.09.34.34,0,0,0,.33.26c.23,0,.37-.19.37-.47s-.13-.45-.36-.45a.38.38,0,0,0-.35.37Z"/><path d="M20.66,47.26v.35H21v.17h-.32v.66c0,.15,0,.24.17.24H21v.17a.55.55,0,0,1-.2,0,.3.3,0,0,1-.24-.09.45.45,0,0,1-.09-.32v-.67h-.19v-.17h.19v-.29Z"/><path d="M21.9,48.83l0-.15h0a.45.45,0,0,1-.37.18.35.35,0,0,1-.37-.35c0-.29.26-.46.73-.45v0a.25.25,0,0,0-.28-.28.61.61,0,0,0-.32.09l0-.15a.75.75,0,0,1,.4-.11c.37,0,.46.25.46.5v.46a1.77,1.77,0,0,0,0,.29Zm0-.62c-.24,0-.52,0-.52.27a.2.2,0,0,0,.21.21.3.3,0,0,0,.29-.2.22.22,0,0,0,0-.07Z"/><path d="M23,47.94c0-.13,0-.23,0-.33h.2v.2h0a.45.45,0,0,1,.4-.23c.17,0,.43.1.43.52v.73h-.22v-.7c0-.2-.07-.36-.28-.36a.32.32,0,0,0-.3.23.33.33,0,0,0,0,.1v.73H23Z"/><path d="M25.47,48.21a.6.6,0,0,1-.61.65.58.58,0,0,1-.58-.63.59.59,0,0,1,.6-.65A.58.58,0,0,1,25.47,48.21Zm-1,0c0,.27.15.47.37.47s.37-.2.37-.47-.1-.47-.37-.47S24.5,48,24.5,48.22Z"/><path d="M25.74,47.94c0-.13,0-.23,0-.33h.2v.2h0a.45.45,0,0,1,.4-.23c.17,0,.43.1.43.52v.73h-.22v-.7c0-.2-.07-.36-.28-.36A.31.31,0,0,0,26,48a.3.3,0,0,0,0,.1v.73h-.22Z"/><path d="M4.89,51c0-.16,0-.28,0-.4h.2v.21h0a.48.48,0,0,1,.43-.24.55.55,0,0,1,.52.62.58.58,0,0,1-.55.65.43.43,0,0,1-.38-.19h0v.66H4.89Zm.22.32a.51.51,0,0,0,0,.09.34.34,0,0,0,.33.26c.23,0,.37-.19.37-.47s-.13-.45-.36-.45a.39.39,0,0,0-.35.37Z"/><path d="M6.32,51c0-.14,0-.27,0-.38h.19v.24h0a.37.37,0,0,1,.34-.27h.06v.21H6.85a.31.31,0,0,0-.3.28.54.54,0,0,0,0,.1v.65H6.32Z"/><path d="M8.22,51.22a.6.6,0,0,1-.61.65A.58.58,0,0,1,7,51.24a.6.6,0,0,1,.6-.65A.58.58,0,0,1,8.22,51.22Zm-1,0c0,.27.15.47.37.47s.37-.2.37-.47-.1-.47-.37-.47S7.26,51,7.26,51.23Z"/><path d="M8.57,50.62l.24.68c0,.11.07.21.1.31h0c0-.1.06-.2.1-.31l.24-.68h.23L9,51.84H8.8l-.46-1.22Z"/><path d="M9.94,50.28a.14.14,0,0,1-.27,0,.13.13,0,0,1,.14-.14A.13.13,0,0,1,9.94,50.28Zm-.25,1.56V50.62h.22v1.22Z"/><path d="M11.33,50.05v1.47c0,.11,0,.23,0,.31h-.2v-.21h0a.45.45,0,0,1-.42.24.56.56,0,0,1-.52-.62.58.58,0,0,1,.55-.65.41.41,0,0,1,.37.19h0v-.73Zm-.22,1.06a.37.37,0,0,0,0-.09.33.33,0,0,0-.32-.26c-.23,0-.37.2-.37.47s.12.45.36.45a.33.33,0,0,0,.32-.26.37.37,0,0,0,0-.1Z"/><path d="M11.94,50.28a.14.14,0,0,1-.27,0,.13.13,0,0,1,.14-.14A.13.13,0,0,1,11.94,50.28Zm-.25,1.56V50.62h.22v1.22Z"/><path d="M12.25,51.61a.57.57,0,0,0,.29.09c.16,0,.24-.08.24-.18s-.06-.16-.23-.22-.32-.2-.32-.34a.38.38,0,0,1,.42-.36.61.61,0,0,1,.3.08l-.05.16a.48.48,0,0,0-.25-.07c-.13,0-.2.08-.2.17s.07.15.23.21.32.19.32.37-.17.37-.46.37a.7.7,0,0,1-.34-.08Z"/><path d="M13.81,51c0-.13,0-.23,0-.33H14v.2h0a.45.45,0,0,1,.4-.23c.17,0,.43.1.43.52v.73h-.22v-.7c0-.2-.07-.36-.28-.36A.31.31,0,0,0,14,51a.33.33,0,0,0,0,.1v.73h-.22Z"/><path d="M15.88,51.84l0-.15h0a.45.45,0,0,1-.37.18.35.35,0,0,1-.37-.35c0-.29.26-.46.73-.45v0a.25.25,0,0,0-.28-.28.62.62,0,0,0-.32.09l0-.15a.76.76,0,0,1,.4-.11c.37,0,.46.25.46.5v.46a1.67,1.67,0,0,0,0,.29Zm0-.62c-.24,0-.52,0-.52.27a.2.2,0,0,0,.21.21.3.3,0,0,0,.29-.2.22.22,0,0,0,0-.07Z"/><path d="M16.41,51c0-.13,0-.23,0-.33h.19v.2h0a.42.42,0,0,1,.38-.22.36.36,0,0,1,.35.24h0a.52.52,0,0,1,.14-.16.42.42,0,0,1,.27-.08c.16,0,.4.11.4.53v.72h-.22v-.69c0-.23-.09-.38-.26-.38a.29.29,0,0,0-.26.2.37.37,0,0,0,0,.11v.75h-.22v-.73c0-.19-.09-.33-.25-.33a.3.3,0,0,0-.27.22.31.31,0,0,0,0,.11v.74h-.22Z"/><path d="M19.06,51.84v-1h-.17v-.17h.17v-.06a.57.57,0,0,1,.14-.43.43.43,0,0,1,.3-.11.52.52,0,0,1,.19,0l0,.17a.32.32,0,0,0-.14,0c-.19,0-.24.17-.24.35v.07h.29v.17h-.29v1Z"/><path d="M20.8,51.51c0,.13,0,.24,0,.33h-.2v-.2h0a.46.46,0,0,1-.4.23c-.19,0-.42-.11-.42-.53v-.71H20v.67c0,.23.07.39.27.39a.32.32,0,0,0,.29-.2.35.35,0,0,0,0-.11v-.75h.22Z"/><path d="M22.21,50.62c0,.09,0,.19,0,.33v.71a.7.7,0,0,1-.17.56.64.64,0,0,1-.44.15.79.79,0,0,1-.41-.1l.06-.17a.68.68,0,0,0,.36.1c.23,0,.39-.12.39-.43v-.14h0a.44.44,0,0,1-.39.2.55.55,0,0,1-.52-.59.58.58,0,0,1,.55-.65.41.41,0,0,1,.38.21h0v-.18ZM22,51.1a.33.33,0,0,0,0-.1.32.32,0,0,0-.31-.23c-.21,0-.36.18-.36.46s.12.44.36.44a.32.32,0,0,0,.31-.23.35.35,0,0,0,0-.12Z"/><path d="M22.79,50.28a.14.14,0,0,1-.27,0,.13.13,0,0,1,.14-.14A.13.13,0,0,1,22.79,50.28Zm-.25,1.56V50.62h.22v1.22Z"/><path d="M23.4,50.27v.35h.32v.17H23.4v.66c0,.15,0,.24.17.24h.13v.17a.54.54,0,0,1-.2,0,.31.31,0,0,1-.24-.09.45.45,0,0,1-.08-.32v-.67H23v-.17h.19v-.29Z"/><path d="M24.21,50.28a.14.14,0,0,1-.27,0,.13.13,0,0,1,.14-.14A.13.13,0,0,1,24.21,50.28ZM24,51.84V50.62h.22v1.22Z"/><path d="M25.57,51.51c0,.13,0,.24,0,.33h-.2v-.2h0a.46.46,0,0,1-.4.23c-.19,0-.42-.11-.42-.53v-.71h.22v.67c0,.23.07.39.27.39a.32.32,0,0,0,.29-.2.35.35,0,0,0,0-.11v-.75h.22Z"/><path d="M26.47,51c0-.13,0-.23,0-.33h.2v.2h0a.45.45,0,0,1,.4-.23c.17,0,.43.1.43.52v.73h-.22v-.7c0-.2-.07-.36-.28-.36a.31.31,0,0,0-.3.23.3.3,0,0,0,0,.1v.73h-.22Z"/><path d="M28.12,50.27v.35h.32v.17h-.32v.66c0,.15,0,.24.17.24h.13v.17a.55.55,0,0,1-.2,0,.31.31,0,0,1-.24-.09.45.45,0,0,1-.09-.32v-.67h-.19v-.17h.19v-.29Z"/><path d="M29.78,51.22a.6.6,0,0,1-.61.65.58.58,0,0,1-.58-.63.59.59,0,0,1,.6-.65A.58.58,0,0,1,29.78,51.22Zm-1,0c0,.27.15.47.37.47s.37-.2.37-.47-.1-.47-.37-.47S28.81,51,28.81,51.23Z"/><path d="M30.6,51.08v.16H30v-.16Z"/><path d="M5.16,53.29v.35h.32v.17H5.16v.66c0,.15,0,.24.17.24h.13v.17a.54.54,0,0,1-.2,0A.31.31,0,0,1,5,54.79a.45.45,0,0,1-.08-.32V53.8H4.75v-.17h.19v-.29Z"/><path d="M6.4,54.85l0-.15h0a.45.45,0,0,1-.37.18.35.35,0,0,1-.37-.35c0-.29.26-.46.73-.45v0a.25.25,0,0,0-.28-.28.62.62,0,0,0-.32.09l0-.15a.76.76,0,0,1,.4-.11c.37,0,.46.25.46.5v.46a1.67,1.67,0,0,0,0,.29Zm0-.62c-.24,0-.52,0-.52.27a.2.2,0,0,0,.21.21.3.3,0,0,0,.29-.2.22.22,0,0,0,0-.07Z"/><path d="M7.19,53.29v.35h.32v.17H7.19v.66c0,.15,0,.24.17.24h.13v.17a.55.55,0,0,1-.2,0,.31.31,0,0,1-.24-.09A.45.45,0,0,1,7,54.47V53.8H6.79v-.17H7v-.29Z"/><path d="M8.78,54.52c0,.13,0,.24,0,.33h-.2v-.2h0a.46.46,0,0,1-.4.23c-.19,0-.42-.11-.42-.53v-.71H8v.67c0,.23.07.39.27.39a.32.32,0,0,0,.29-.2.32.32,0,0,0,0-.11v-.75h.22Z"/><path d="M9.67,54c0-.14,0-.27,0-.38h.19v.24h0a.37.37,0,0,1,.34-.27h.06v.21H10.2a.31.31,0,0,0-.3.28.64.64,0,0,0,0,.1v.65H9.67Z"/><path d="M10.6,54.28a.39.39,0,0,0,.42.42.81.81,0,0,0,.34-.06l0,.16a1,1,0,0,1-.41.08.57.57,0,0,1-.6-.61.59.59,0,0,1,.57-.66.52.52,0,0,1,.5.57.74.74,0,0,1,0,.1Zm.65-.16a.32.32,0,0,0-.31-.36.37.37,0,0,0-.34.36Z"/><path d="M11.7,54.63a.57.57,0,0,0,.29.09c.16,0,.24-.08.24-.18s-.06-.16-.23-.22-.32-.2-.32-.34a.38.38,0,0,1,.42-.36.61.61,0,0,1,.3.08l-.05.16a.48.48,0,0,0-.25-.07c-.13,0-.2.08-.2.17s.07.15.23.21.32.19.32.37-.17.37-.46.37a.7.7,0,0,1-.34-.08Z"/><path d="M13.59,54.81a.81.81,0,0,1-.35.07.58.58,0,0,1-.61-.62.62.62,0,0,1,.66-.65.74.74,0,0,1,.31.06l-.05.17a.52.52,0,0,0-.26-.06.46.46,0,0,0,0,.92.62.62,0,0,0,.27-.06Z"/><path d="M14.1,53.29a.14.14,0,0,1-.28,0,.14.14,0,0,1,.14-.14A.13.13,0,0,1,14.1,53.29Zm-.25,1.56V53.64h.22v1.22Z"/><path d="M14.44,54c0-.13,0-.23,0-.33h.19v.2h0a.42.42,0,0,1,.38-.22.36.36,0,0,1,.35.24h0a.52.52,0,0,1,.14-.16.42.42,0,0,1,.27-.08c.16,0,.4.11.4.53v.72H16v-.69c0-.23-.09-.38-.26-.38a.29.29,0,0,0-.26.2.37.37,0,0,0,0,.11v.75H15.2v-.73c0-.19-.09-.33-.25-.33a.3.3,0,0,0-.27.22.31.31,0,0,0,0,.11v.74h-.22Z"/><path d="M17.06,54c0-.14,0-.27,0-.38h.19v.24h0a.37.37,0,0,1,.34-.27h.06v.21h-.08a.31.31,0,0,0-.3.28.64.64,0,0,0,0,.1v.65h-.22Z"/><path d="M18.55,54.85l0-.15h0a.45.45,0,0,1-.37.18.35.35,0,0,1-.37-.35c0-.29.26-.46.73-.45v0a.25.25,0,0,0-.28-.28.61.61,0,0,0-.32.09l0-.15a.75.75,0,0,1,.4-.11c.37,0,.46.25.46.5v.46a1.77,1.77,0,0,0,0,.29Zm0-.62c-.24,0-.52,0-.52.27a.2.2,0,0,0,.21.21.3.3,0,0,0,.29-.2.22.22,0,0,0,0-.07Z"/><path d="M19.34,53.29v.35h.32v.17h-.32v.66c0,.15,0,.24.17.24h.13v.17a.55.55,0,0,1-.2,0,.3.3,0,0,1-.24-.09.45.45,0,0,1-.09-.32V53.8h-.19v-.17h.19v-.29Z"/><path d="M19.84,54.72a.15.15,0,0,1,.15-.16.16.16,0,1,1-.15.16Z"/><path d="M6.33,57.12c0-.24,0-.52,0-.73h0c-.06.2-.13.41-.21.64l-.3.82H5.62L5.34,57c-.08-.24-.15-.46-.2-.66h0c0,.21,0,.5,0,.75l0,.73H4.85L5,56.17h.28l.29.82c.07.21.13.4.17.57h0c0-.17.1-.36.18-.57l.3-.82h.28l.11,1.7H6.37Z"/><path d="M8,57.25a.6.6,0,0,1-.61.65.58.58,0,0,1-.58-.63.6.6,0,0,1,.6-.65A.58.58,0,0,1,8,57.25Zm-1,0c0,.27.15.47.37.47s.37-.2.37-.47-.1-.47-.37-.47S7.06,57,7.06,57.26Z"/><path d="M9.08,56.31a.14.14,0,0,1-.27,0,.13.13,0,0,1,.14-.14A.13.13,0,0,1,9.08,56.31Zm-.25,1.56V56.65h.22v1.22Z"/><path d="M10.45,57.54c0,.13,0,.24,0,.33h-.2v-.2h0a.46.46,0,0,1-.4.23c-.19,0-.42-.11-.42-.53v-.71h.22v.67c0,.23.07.39.27.39a.32.32,0,0,0,.29-.2.35.35,0,0,0,0-.11v-.75h.22Z"/><path d="M10.78,57.64a.57.57,0,0,0,.29.09c.16,0,.24-.08.24-.18s-.06-.16-.23-.22-.32-.2-.32-.34a.38.38,0,0,1,.42-.36.61.61,0,0,1,.3.08l-.05.16a.48.48,0,0,0-.25-.07c-.13,0-.2.08-.2.17s.07.15.23.21.32.19.32.37-.17.37-.46.37a.7.7,0,0,1-.34-.08Z"/><path d="M12.48,57.87l0-.15h0a.45.45,0,0,1-.37.18.35.35,0,0,1-.37-.35c0-.29.26-.46.73-.45v0a.25.25,0,0,0-.28-.28.62.62,0,0,0-.32.09l0-.15a.76.76,0,0,1,.4-.11c.37,0,.46.25.46.5v.46a1.67,1.67,0,0,0,0,.29Zm0-.62c-.24,0-.52,0-.52.27a.2.2,0,0,0,.21.21.3.3,0,0,0,.29-.2.22.22,0,0,0,0-.07Z"/><path d="M13,57c0-.13,0-.23,0-.33h.2v.2h0a.45.45,0,0,1,.4-.23c.17,0,.43.1.43.52v.73h-.22v-.7c0-.2-.07-.36-.28-.36a.32.32,0,0,0-.3.23.33.33,0,0,0,0,.1v.73H13Z"/><path d="M14.65,56.31a.14.14,0,0,1-.27,0,.13.13,0,0,1,.14-.14A.13.13,0,0,1,14.65,56.31Zm-.25,1.56V56.65h.22v1.22Z"/><path d="M15,56.08h.22v.76h0a.42.42,0,0,1,.16-.16.46.46,0,0,1,.23-.06c.16,0,.43.1.43.52v.72h-.22v-.7c0-.2-.07-.36-.28-.36a.32.32,0,0,0-.3.22.25.25,0,0,0,0,.11v.74H15Z"/><path d="M16.64,56.31a.14.14,0,0,1-.28,0,.14.14,0,0,1,.14-.14A.13.13,0,0,1,16.64,56.31Zm-.25,1.56V56.65h.22v1.22Z"/><path d="M17.24,56.3v.35h.32v.17h-.32v.66c0,.15,0,.24.17.24h.13v.17a.55.55,0,0,1-.2,0,.3.3,0,0,1-.24-.09.45.45,0,0,1-.09-.32v-.67h-.19v-.17H17v-.29Z"/><path d="M18.46,57.3a.39.39,0,0,0,.42.42.8.8,0,0,0,.34-.06l0,.16a1,1,0,0,1-.41.08.57.57,0,0,1-.6-.61.59.59,0,0,1,.57-.66.52.52,0,0,1,.5.57.94.94,0,0,1,0,.1Zm.65-.16a.32.32,0,0,0-.31-.36.37.37,0,0,0-.34.36Z"/><path d="M19.69,56.65l.17.26.12.2h0l.12-.2.17-.26h.24l-.42.59.43.63h-.25l-.18-.27L20,57.38h0l-.13.21-.18.27h-.24l.43-.62-.41-.6Z"/><path d="M20.84,57.3a.39.39,0,0,0,.42.42.8.8,0,0,0,.34-.06l0,.16a1,1,0,0,1-.4.08.57.57,0,0,1-.6-.61.59.59,0,0,1,.57-.66.52.52,0,0,1,.5.57.74.74,0,0,1,0,.1Zm.65-.16a.32.32,0,0,0-.31-.36.37.37,0,0,0-.34.36Z"/><path d="M22,57c0-.14,0-.27,0-.38h.19v.24h0a.37.37,0,0,1,.34-.27h.06v.21H22.5a.31.31,0,0,0-.3.28.64.64,0,0,0,0,.1v.65H22Z"/><path d="M23.05,56.31a.14.14,0,0,1-.27,0,.13.13,0,0,1,.14-.14A.13.13,0,0,1,23.05,56.31Zm-.25,1.56V56.65H23v1.22Z"/><path d="M24.07,57.87l0-.15h0a.45.45,0,0,1-.37.18.35.35,0,0,1-.37-.35c0-.29.26-.46.73-.45v0a.25.25,0,0,0-.28-.28.62.62,0,0,0-.32.09l0-.15a.76.76,0,0,1,.4-.11c.37,0,.46.25.46.5v.46a1.67,1.67,0,0,0,0,.29Zm0-.62c-.24,0-.52,0-.52.27a.2.2,0,0,0,.21.21.3.3,0,0,0,.29-.2.22.22,0,0,0,0-.07Z"/><path d="M25.11,57.64a.58.58,0,0,0,.29.09c.16,0,.24-.08.24-.18s-.06-.16-.23-.22-.32-.2-.32-.34a.38.38,0,0,1,.42-.36.61.61,0,0,1,.3.08l-.06.16a.47.47,0,0,0-.25-.07c-.13,0-.2.08-.2.17s.07.15.23.21.32.19.32.37-.17.37-.46.37a.7.7,0,0,1-.34-.08Z"/><path d="M27.23,57.25a.6.6,0,0,1-.61.65.58.58,0,0,1-.58-.63.59.59,0,0,1,.6-.65A.58.58,0,0,1,27.23,57.25Zm-1,0c0,.27.15.47.37.47s.37-.2.37-.47-.1-.47-.37-.47S26.27,57,26.27,57.26Z"/><path d="M28.06,57.11v.16h-.62v-.16Z"/><path d="M4.89,59.09h.22v1.79H4.89Z"/><path d="M6.51,60.55c0,.13,0,.24,0,.33h-.2v-.2h0a.46.46,0,0,1-.4.23c-.19,0-.42-.11-.42-.53v-.71H5.7v.67c0,.23.07.39.27.39a.32.32,0,0,0,.29-.2.35.35,0,0,0,0-.11v-.75h.22Z"/><path d="M6.87,60.06c0-.16,0-.28,0-.4h.2v.21h0a.48.48,0,0,1,.43-.24.55.55,0,0,1,.52.62.58.58,0,0,1-.55.65.43.43,0,0,1-.38-.19h0v.66H6.87Zm.22.32a.51.51,0,0,0,0,.09.34.34,0,0,0,.33.26c.23,0,.37-.19.37-.47s-.13-.45-.36-.45a.39.39,0,0,0-.35.37Z"/><path d="M8.56,59.31v.35h.32v.17H8.56v.66c0,.15,0,.24.17.24h.13v.17a.55.55,0,0,1-.2,0,.31.31,0,0,1-.24-.09.45.45,0,0,1-.09-.32v-.67H8.16v-.17h.19v-.29Z"/><path d="M9.38,59.32a.14.14,0,0,1-.27,0,.13.13,0,0,1,.14-.14A.13.13,0,0,1,9.38,59.32Zm-.25,1.56V59.66h.22v1.22Z"/><path d="M10.82,60.26a.6.6,0,0,1-.61.65.58.58,0,0,1-.58-.63.59.59,0,0,1,.6-.65A.58.58,0,0,1,10.82,60.26Zm-1,0c0,.27.15.47.37.47s.37-.2.37-.47-.1-.47-.37-.47S9.85,60,9.85,60.28Z"/><path d="M11.1,60c0-.13,0-.23,0-.33h.2v.2h0a.45.45,0,0,1,.4-.23c.17,0,.43.1.43.52v.73h-.22v-.7c0-.2-.07-.36-.28-.36a.31.31,0,0,0-.3.23.33.33,0,0,0,0,.1v.73H11.1Z"/><path d="M13,60c0-.13,0-.23,0-.33h.2v.2h0a.45.45,0,0,1,.4-.23c.17,0,.43.1.43.52v.73h-.22v-.7c0-.2-.07-.36-.28-.36a.32.32,0,0,0-.3.23.33.33,0,0,0,0,.1v.73H13Z"/><path d="M15.52,60.26a.6.6,0,0,1-.61.65.58.58,0,0,1-.58-.63.59.59,0,0,1,.6-.65A.58.58,0,0,1,15.52,60.26Zm-1,0c0,.27.15.47.37.47s.37-.2.37-.47-.1-.47-.37-.47S14.55,60,14.55,60.28Z"/><path d="M15.76,60.66a.58.58,0,0,0,.29.09c.16,0,.24-.08.24-.18s-.06-.16-.23-.22-.32-.2-.32-.34a.38.38,0,0,1,.42-.36.61.61,0,0,1,.3.08l-.06.16a.47.47,0,0,0-.25-.07c-.13,0-.2.08-.2.17s.07.15.23.21.32.19.32.37-.17.37-.46.37a.7.7,0,0,1-.34-.08Z"/><path d="M17.44,60.31a.39.39,0,0,0,.42.42.8.8,0,0,0,.34-.06l0,.16a1,1,0,0,1-.41.08.57.57,0,0,1-.6-.61.59.59,0,0,1,.57-.66.52.52,0,0,1,.5.57.94.94,0,0,1,0,.1Zm.65-.16a.32.32,0,0,0-.31-.36.37.37,0,0,0-.34.36Z"/><path d="M18.55,60.66a.58.58,0,0,0,.29.09c.16,0,.24-.08.24-.18s-.06-.16-.23-.22-.32-.2-.32-.34a.38.38,0,0,1,.42-.36.61.61,0,0,1,.3.08l-.06.16a.47.47,0,0,0-.25-.07c-.13,0-.2.08-.2.17s.07.15.23.21.32.19.32.37-.17.37-.46.37a.7.7,0,0,1-.34-.08Z"/><path d="M19.7,60.31a.39.39,0,0,0,.42.42.8.8,0,0,0,.34-.06l0,.16a1,1,0,0,1-.41.08.57.57,0,0,1-.6-.61.59.59,0,0,1,.57-.66.52.52,0,0,1,.5.57.94.94,0,0,1,0,.1Zm.65-.16a.31.31,0,0,0-.31-.36.37.37,0,0,0-.34.36Z"/><path d="M21.36,60.06c0-.16,0-.28,0-.4h.2v.21h0a.48.48,0,0,1,.43-.24.55.55,0,0,1,.52.62.58.58,0,0,1-.55.65.43.43,0,0,1-.37-.19h0v.66h-.22Zm.22.32a.43.43,0,0,0,0,.09.34.34,0,0,0,.33.26c.23,0,.37-.19.37-.47s-.13-.45-.36-.45a.38.38,0,0,0-.35.37Z"/><path d="M23.9,60.26a.6.6,0,0,1-.61.65.58.58,0,0,1-.58-.63.59.59,0,0,1,.6-.65A.58.58,0,0,1,23.9,60.26Zm-1,0c0,.27.15.47.37.47s.37-.2.37-.47-.1-.47-.37-.47S22.93,60,22.93,60.28Z"/><path d="M24.17,60c0-.14,0-.27,0-.38h.19v.24h0a.37.37,0,0,1,.34-.27h.06v.21H24.7a.31.31,0,0,0-.3.28.64.64,0,0,0,0,.1v.65h-.22Z"/><path d="M25.53,60c0-.13,0-.23,0-.33h.19v.2h0a.42.42,0,0,1,.38-.22.36.36,0,0,1,.35.24h0a.52.52,0,0,1,.14-.16.42.42,0,0,1,.27-.08c.16,0,.4.11.4.53v.72H27v-.69c0-.23-.09-.38-.26-.38a.29.29,0,0,0-.26.2.37.37,0,0,0,0,.11v.75h-.22v-.73c0-.19-.09-.33-.25-.33a.3.3,0,0,0-.27.22.31.31,0,0,0,0,.11v.74h-.22Z"/><path d="M27.87,59.32a.14.14,0,0,1-.28,0,.14.14,0,0,1,.14-.14A.13.13,0,0,1,27.87,59.32Zm-.25,1.56V59.66h.22v1.22Z"/><path d="M28.21,59.09h.22v1.79h-.22Z"/><path d="M4.89,63c0-.13,0-.23,0-.33h.19v.2h0a.42.42,0,0,1,.38-.22.36.36,0,0,1,.34.24h0A.5.5,0,0,1,6,62.73a.42.42,0,0,1,.27-.08c.16,0,.4.11.4.53v.72H6.42v-.69c0-.23-.09-.38-.26-.38a.29.29,0,0,0-.26.2.37.37,0,0,0,0,.11v.75H5.66v-.73c0-.19-.09-.33-.25-.33a.3.3,0,0,0-.27.22.29.29,0,0,0,0,.11v.74H4.89Z"/><path d="M8.09,63.28a.6.6,0,0,1-.61.65.58.58,0,0,1-.58-.63.6.6,0,0,1,.6-.65A.58.58,0,0,1,8.09,63.28Zm-1,0c0,.27.15.47.37.47s.37-.2.37-.47-.1-.47-.37-.47S7.12,63.06,7.12,63.29Z"/><path d="M9.77,63.85a.81.81,0,0,1-.35.07.58.58,0,0,1-.61-.62.62.62,0,0,1,.66-.65.74.74,0,0,1,.31.06l-.05.17a.51.51,0,0,0-.26-.06.46.46,0,0,0,0,.92.62.62,0,0,0,.27-.06Z"/><path d="M11.11,63.28a.6.6,0,0,1-.61.65.58.58,0,0,1-.58-.63.6.6,0,0,1,.6-.65A.58.58,0,0,1,11.11,63.28Zm-1,0c0,.27.15.47.37.47s.37-.2.37-.47-.1-.47-.37-.47S10.15,63.06,10.15,63.29Z"/><path d="M11.39,63c0-.13,0-.23,0-.33h.2v.2h0a.45.45,0,0,1,.4-.23c.17,0,.43.1.43.52v.73h-.22v-.7c0-.2-.07-.36-.28-.36a.32.32,0,0,0-.3.23.3.3,0,0,0,0,.1v.73h-.22Z"/><path d="M12.75,63.67a.58.58,0,0,0,.29.09c.16,0,.24-.08.24-.18s-.06-.16-.23-.22-.32-.2-.32-.34a.38.38,0,0,1,.42-.36.62.62,0,0,1,.3.08l-.06.16a.47.47,0,0,0-.25-.07c-.13,0-.21.08-.21.17s.07.15.23.21.32.19.32.37-.17.37-.46.37a.7.7,0,0,1-.34-.08Z"/><path d="M13.9,63.33a.39.39,0,0,0,.42.42.8.8,0,0,0,.34-.06l0,.16a1,1,0,0,1-.4.08.57.57,0,0,1-.6-.61.59.59,0,0,1,.57-.66.52.52,0,0,1,.5.57.74.74,0,0,1,0,.1Zm.65-.16a.32.32,0,0,0-.31-.36.37.37,0,0,0-.34.36Z"/><path d="M16.09,62.11v1.47c0,.11,0,.23,0,.31h-.2v-.21h0a.45.45,0,0,1-.42.24.56.56,0,0,1-.52-.62.58.58,0,0,1,.55-.65.41.41,0,0,1,.37.19h0v-.73Zm-.22,1.06a.38.38,0,0,0,0-.09.32.32,0,0,0-.32-.26c-.23,0-.37.2-.37.47s.12.45.36.45a.33.33,0,0,0,.33-.26.37.37,0,0,0,0-.1Z"/><path d="M17.11,63.33a.39.39,0,0,0,.42.42.8.8,0,0,0,.34-.06l0,.16a1,1,0,0,1-.4.08.57.57,0,0,1-.6-.61.59.59,0,0,1,.57-.66.52.52,0,0,1,.5.57.74.74,0,0,1,0,.1Zm.65-.16a.32.32,0,0,0-.31-.36.37.37,0,0,0-.34.36Z"/><path d="M18.34,62.68l.17.26.12.2h0l.12-.2.17-.26h.24l-.42.59.43.63h-.25l-.18-.27-.13-.21h0l-.13.21-.18.27h-.24l.43-.62-.41-.6Z"/><path d="M20.06,63.33a.39.39,0,0,0,.42.42.8.8,0,0,0,.34-.06l0,.16a1,1,0,0,1-.41.08.57.57,0,0,1-.6-.61.59.59,0,0,1,.57-.66.52.52,0,0,1,.5.57.94.94,0,0,1,0,.1Zm.65-.16a.31.31,0,0,0-.31-.36.37.37,0,0,0-.34.36Z"/><path d="M22.29,63.28a.6.6,0,0,1-.61.65.58.58,0,0,1-.58-.63.59.59,0,0,1,.6-.65A.58.58,0,0,1,22.29,63.28Zm-1,0c0,.27.15.47.37.47s.37-.2.37-.47-.1-.47-.37-.47S21.33,63.06,21.33,63.29Z"/><path d="M22.54,63.67a.58.58,0,0,0,.29.09c.16,0,.24-.08.24-.18s-.06-.16-.23-.22-.32-.2-.32-.34a.38.38,0,0,1,.42-.36.61.61,0,0,1,.3.08l-.06.16a.47.47,0,0,0-.25-.07c-.13,0-.2.08-.2.17s.07.15.23.21.32.19.32.37-.17.37-.46.37a.7.7,0,0,1-.34-.08Z"/><path d="M23.83,62.33v.35h.32v.17h-.32v.66c0,.15,0,.24.17.24h.13v.17a.54.54,0,0,1-.2,0,.31.31,0,0,1-.24-.09.45.45,0,0,1-.08-.32v-.67h-.19v-.17h.19v-.29Z"/><path d="M25.48,63.28a.6.6,0,0,1-.61.65.58.58,0,0,1-.58-.63.59.59,0,0,1,.6-.65A.58.58,0,0,1,25.48,63.28Zm-1,0c0,.27.15.47.37.47s.37-.2.37-.47-.1-.47-.37-.47S24.52,63.06,24.52,63.29Z"/><path d="M27.34,62.11v1.47c0,.11,0,.23,0,.31h-.2v-.21h0a.45.45,0,0,1-.42.24.56.56,0,0,1-.52-.62.58.58,0,0,1,.55-.65.41.41,0,0,1,.37.19h0v-.73Zm-.22,1.06a.38.38,0,0,0,0-.09.32.32,0,0,0-.32-.26c-.23,0-.36.2-.36.47s.12.45.36.45a.33.33,0,0,0,.32-.26.37.37,0,0,0,0-.1Z"/><path d="M28.81,63.28a.6.6,0,0,1-.61.65.58.58,0,0,1-.58-.63.6.6,0,0,1,.6-.65A.58.58,0,0,1,28.81,63.28Zm-1,0c0,.27.15.47.37.47s.37-.2.37-.47-.1-.47-.37-.47S27.84,63.06,27.84,63.29Z"/><path d="M29.64,63.13v.16H29v-.16Z"/><path d="M4.89,65.12h.22v1.79H4.89Z"/><path d="M6.51,66.58c0,.13,0,.24,0,.33h-.2v-.2h0a.46.46,0,0,1-.4.23c-.19,0-.42-.11-.42-.53v-.71H5.7v.67c0,.23.07.39.27.39a.32.32,0,0,0,.29-.2.35.35,0,0,0,0-.11v-.75h.22Z"/><path d="M6.87,66.09c0-.16,0-.28,0-.4h.2v.21h0a.48.48,0,0,1,.43-.24.55.55,0,0,1,.52.62.58.58,0,0,1-.55.65.43.43,0,0,1-.38-.19h0v.66H6.87Zm.22.32a.51.51,0,0,0,0,.09.34.34,0,0,0,.33.26c.23,0,.37-.19.37-.47s-.13-.45-.36-.45a.39.39,0,0,0-.35.37Z"/><path d="M8.56,65.34v.35h.32v.17H8.56v.66c0,.15,0,.24.17.24h.13v.17a.55.55,0,0,1-.2,0,.31.31,0,0,1-.24-.09.45.45,0,0,1-.09-.32v-.67H8.16v-.17h.19V65.4Z"/><path d="M9.8,66.91l0-.15h0a.45.45,0,0,1-.37.18A.35.35,0,0,1,9,66.59c0-.29.26-.46.73-.45v0a.25.25,0,0,0-.28-.28.62.62,0,0,0-.32.09l-.05-.15a.76.76,0,0,1,.4-.11c.37,0,.46.25.46.5v.46a1.66,1.66,0,0,0,0,.29Zm0-.62c-.24,0-.52,0-.52.27a.2.2,0,0,0,.21.21.3.3,0,0,0,.29-.2.22.22,0,0,0,0-.07Z"/><path d="M11.7,66.72h0a.43.43,0,0,1-.4.22.56.56,0,0,1-.52-.62.58.58,0,0,1,.55-.66.4.4,0,0,1,.38.21h0v-.18h.21c0,.1,0,.21,0,.33v1.38H11.7Zm0-.54a.37.37,0,0,0,0-.09.32.32,0,0,0-.32-.25c-.23,0-.37.19-.37.47s.12.45.36.45a.33.33,0,0,0,.32-.24.38.38,0,0,0,0-.11Z"/><path d="M13.31,66.58c0,.13,0,.24,0,.33h-.2v-.2h0a.46.46,0,0,1-.4.23c-.19,0-.42-.11-.42-.53v-.71h.22v.67c0,.23.07.39.27.39a.32.32,0,0,0,.29-.2.35.35,0,0,0,0-.11v-.75h.22Z"/><path d="M13.92,65.35a.14.14,0,0,1-.27,0,.13.13,0,0,1,.14-.14A.13.13,0,0,1,13.92,65.35Zm-.25,1.56V65.69h.22v1.22Z"/><path d="M15.31,65.12v1.47c0,.11,0,.23,0,.31h-.2V66.7h0a.45.45,0,0,1-.42.24.56.56,0,0,1-.52-.62.58.58,0,0,1,.55-.65.41.41,0,0,1,.37.19h0v-.73Zm-.22,1.06a.37.37,0,0,0,0-.09.33.33,0,0,0-.32-.26c-.23,0-.37.2-.37.47s.12.45.36.45a.33.33,0,0,0,.33-.26.37.37,0,0,0,0-.1Z"/><path d="M15.8,66.34a.39.39,0,0,0,.42.42.81.81,0,0,0,.34-.06l0,.16a1,1,0,0,1-.41.08.57.57,0,0,1-.6-.61.59.59,0,0,1,.57-.66.52.52,0,0,1,.5.57.74.74,0,0,1,0,.1Zm.65-.16a.32.32,0,0,0-.31-.36.37.37,0,0,0-.34.36Z"/><path d="M16.93,66.07c0-.14,0-.27,0-.38h.19v.24h0a.37.37,0,0,1,.34-.27h.06v.21h-.08a.31.31,0,0,0-.3.28.64.64,0,0,0,0,.1v.65h-.22Z"/><path d="M17.85,66.91v-1h-.17v-.17h.17v-.06a.58.58,0,0,1,.14-.43.42.42,0,0,1,.3-.11.51.51,0,0,1,.19,0l0,.17a.32.32,0,0,0-.14,0c-.19,0-.24.17-.24.35v.07h.29v.17h-.29v1Z"/><path d="M18.65,66.34a.39.39,0,0,0,.42.42.81.81,0,0,0,.34-.06l0,.16a1,1,0,0,1-.41.08.57.57,0,0,1-.6-.61.59.59,0,0,1,.57-.66.52.52,0,0,1,.5.57.74.74,0,0,1,0,.1Zm.65-.16a.32.32,0,0,0-.31-.36.37.37,0,0,0-.34.36Z"/><path d="M19.79,66.07c0-.14,0-.27,0-.38H20v.24h0a.37.37,0,0,1,.34-.27h.06v.21h-.08a.31.31,0,0,0-.3.28.64.64,0,0,0,0,.1v.65h-.22Z"/><path d="M21.63,66.58c0,.13,0,.24,0,.33h-.2v-.2h0a.46.46,0,0,1-.4.23c-.19,0-.42-.11-.42-.53v-.71h.22v.67c0,.23.07.39.27.39a.32.32,0,0,0,.29-.2.35.35,0,0,0,0-.11v-.75h.22Z"/><path d="M22,66c0-.13,0-.23,0-.33h.19v.2h0a.42.42,0,0,1,.38-.22.36.36,0,0,1,.34.24h0a.5.5,0,0,1,.14-.16.42.42,0,0,1,.27-.08c.16,0,.4.11.4.53v.72h-.22v-.69c0-.23-.09-.38-.26-.38A.29.29,0,0,0,23,66a.37.37,0,0,0,0,.11v.75h-.22v-.73c0-.19-.09-.33-.25-.33a.3.3,0,0,0-.27.22.29.29,0,0,0,0,.11v.74H22Z"/><path d="M25.45,66.72h0a.44.44,0,0,1-.4.22.55.55,0,0,1-.52-.62.58.58,0,0,1,.55-.66.4.4,0,0,1,.38.21h0v-.18h.21c0,.1,0,.21,0,.33v1.38h-.22Zm0-.54a.37.37,0,0,0,0-.09.32.32,0,0,0-.32-.25c-.23,0-.37.19-.37.47s.12.45.36.45a.33.33,0,0,0,.32-.24.35.35,0,0,0,0-.11Z"/><path d="M27.05,66.58c0,.13,0,.24,0,.33h-.2v-.2h0a.46.46,0,0,1-.4.23c-.19,0-.42-.11-.42-.53v-.71h.22v.67c0,.23.07.39.27.39a.32.32,0,0,0,.29-.2.32.32,0,0,0,0-.11v-.75h.22Z"/><path d="M28.09,66.91l0-.15h0a.45.45,0,0,1-.37.18.35.35,0,0,1-.37-.35c0-.29.26-.46.73-.45v0a.25.25,0,0,0-.28-.28.62.62,0,0,0-.32.09l0-.15a.76.76,0,0,1,.4-.11c.37,0,.46.25.46.5v.46a1.67,1.67,0,0,0,0,.29Zm0-.62c-.24,0-.52,0-.52.27a.2.2,0,0,0,.21.21.3.3,0,0,0,.29-.2.22.22,0,0,0,0-.07Z"/><path d="M28.6,66.68a.57.57,0,0,0,.29.09c.16,0,.24-.08.24-.18s-.06-.16-.23-.22-.32-.2-.32-.34a.38.38,0,0,1,.42-.36.61.61,0,0,1,.3.08l-.05.16a.48.48,0,0,0-.25-.07c-.13,0-.2.08-.2.17s.07.15.23.21.32.19.32.37-.17.37-.46.37a.7.7,0,0,1-.34-.08Z"/><g class="cls-5"><path d="M5.72,69.73h0a.44.44,0,0,1-.4.22.55.55,0,0,1-.52-.62.58.58,0,0,1,.55-.66.4.4,0,0,1,.38.21h0V68.7H6c0,.1,0,.21,0,.33v1.38H5.72Zm0-.54a.37.37,0,0,0,0-.09.32.32,0,0,0-.32-.25c-.23,0-.37.19-.37.47s.12.45.36.45a.33.33,0,0,0,.32-.24.35.35,0,0,0,0-.11Z"/><path d="M7.33,69.59c0,.13,0,.24,0,.33h-.2v-.2h0a.46.46,0,0,1-.4.23c-.19,0-.42-.11-.42-.53V68.7h.22v.67c0,.23.07.39.27.39a.32.32,0,0,0,.29-.2.32.32,0,0,0,0-.11V68.7h.22Z"/><path d="M7.81,69.35a.39.39,0,0,0,.42.42.8.8,0,0,0,.34-.06l0,.16a1,1,0,0,1-.41.08.57.57,0,0,1-.6-.61.59.59,0,0,1,.57-.66.52.52,0,0,1,.5.57.94.94,0,0,1,0,.1Zm.65-.16a.32.32,0,0,0-.31-.36.37.37,0,0,0-.34.36Z"/><path d="M9.48,69c0-.13,0-.23,0-.33h.2v.2h0a.45.45,0,0,1,.4-.23c.17,0,.43.1.43.52v.73H10.3v-.7c0-.2-.07-.36-.28-.36a.32.32,0,0,0-.3.23.33.33,0,0,0,0,.1v.73H9.48Z"/><path d="M12,69.3a.6.6,0,0,1-.61.65.58.58,0,0,1-.58-.63.59.59,0,0,1,.6-.65A.58.58,0,0,1,12,69.3Zm-1,0c0,.27.15.47.37.47s.37-.2.37-.47-.1-.47-.37-.47S11,69.08,11,69.32Z"/><path d="M12.25,69c0-.13,0-.23,0-.33h.2v.2h0a.45.45,0,0,1,.4-.23c.17,0,.43.1.43.52v.73h-.22v-.7c0-.2-.07-.36-.28-.36a.31.31,0,0,0-.3.23.3.3,0,0,0,0,.1v.73h-.22Z"/><path d="M14.3,69.35a.39.39,0,0,0,.42.42.81.81,0,0,0,.34-.06l0,.16a1,1,0,0,1-.41.08.57.57,0,0,1-.6-.61.59.59,0,0,1,.57-.66.52.52,0,0,1,.5.57.74.74,0,0,1,0,.1ZM15,69.2a.32.32,0,0,0-.31-.36.37.37,0,0,0-.34.36Z"/><path d="M16.11,69.92l0-.15h0a.45.45,0,0,1-.37.18.35.35,0,0,1-.37-.35c0-.29.26-.46.73-.45v0a.25.25,0,0,0-.28-.28.61.61,0,0,0-.32.09l-.05-.15a.75.75,0,0,1,.4-.11c.37,0,.46.25.46.5v.46a1.76,1.76,0,0,0,0,.29Zm0-.62c-.24,0-.52,0-.52.27a.2.2,0,0,0,.21.21.3.3,0,0,0,.29-.2.22.22,0,0,0,0-.07Z"/><path d="M16.9,68.35v.35h.32v.17H16.9v.66c0,.15,0,.24.17.24h.13v.17a.54.54,0,0,1-.2,0,.31.31,0,0,1-.24-.09.45.45,0,0,1-.08-.32v-.67H16.5V68.7h.19v-.29Z"/><path d="M17.72,68.36a.14.14,0,0,1-.27,0,.13.13,0,0,1,.14-.14A.13.13,0,0,1,17.72,68.36Zm-.25,1.56V68.7h.22v1.22Z"/><path d="M19.08,69.59c0,.13,0,.24,0,.33h-.2v-.2h0a.46.46,0,0,1-.4.23c-.19,0-.42-.11-.42-.53V68.7h.22v.67c0,.23.07.39.27.39a.32.32,0,0,0,.29-.2.32.32,0,0,0,0-.11V68.7h.22Z"/><path d="M19.44,69c0-.13,0-.23,0-.33h.19v.2h0a.42.42,0,0,1,.38-.22.36.36,0,0,1,.34.24h0a.5.5,0,0,1,.14-.16.42.42,0,0,1,.27-.08c.16,0,.4.11.4.53v.72H21v-.69c0-.23-.08-.38-.26-.38a.29.29,0,0,0-.26.2.37.37,0,0,0,0,.11v.75H20.2v-.73c0-.19-.09-.33-.25-.33a.3.3,0,0,0-.27.22.31.31,0,0,0,0,.11v.74h-.22Z"/><path d="M22.07,68.14h.22v1.79h-.22Z"/><path d="M23.33,69.92l0-.15h0a.45.45,0,0,1-.37.18.35.35,0,0,1-.37-.35c0-.29.26-.46.73-.45v0a.25.25,0,0,0-.28-.28.61.61,0,0,0-.32.09l-.05-.15a.75.75,0,0,1,.4-.11c.37,0,.46.25.46.5v.46a1.76,1.76,0,0,0,0,.29Zm0-.62c-.24,0-.52,0-.52.27a.2.2,0,0,0,.21.21.3.3,0,0,0,.29-.2.22.22,0,0,0,0-.07Z"/><path d="M23.86,69.92c0-.08,0-.21,0-.31V68.14h.22v.76h0a.46.46,0,0,1,.42-.22c.3,0,.52.25.51.62a.58.58,0,0,1-.55.65.43.43,0,0,1-.41-.23h0v.2Zm.23-.49a.35.35,0,0,0,0,.08.34.34,0,0,0,.33.26c.23,0,.37-.19.37-.47s-.13-.45-.36-.45a.35.35,0,0,0-.34.27.45.45,0,0,0,0,.09Z"/><path d="M26.4,69.3a.6.6,0,0,1-.61.65.58.58,0,0,1-.58-.63.6.6,0,0,1,.6-.65A.58.58,0,0,1,26.4,69.3Zm-1,0c0,.27.15.47.37.47s.37-.2.37-.47-.1-.47-.37-.47S25.44,69.08,25.44,69.32Z"/><path d="M26.68,69.08c0-.14,0-.27,0-.38h.19v.24h0a.37.37,0,0,1,.34-.27h.06v.21H27.2a.31.31,0,0,0-.3.28.64.64,0,0,0,0,.1v.65h-.22Z"/><path d="M27.75,68.36a.14.14,0,0,1-.27,0,.13.13,0,0,1,.14-.14A.13.13,0,0,1,27.75,68.36Zm-.25,1.56V68.7h.22v1.22Z"/><path d="M28.36,68.35v.35h.32v.17h-.32v.66c0,.15,0,.24.17.24h.13v.17a.55.55,0,0,1-.2,0,.31.31,0,0,1-.24-.09.45.45,0,0,1-.09-.32v-.67H28V68.7h.19v-.29Z"/><path d="M5.95,71.15v1.47c0,.11,0,.23,0,.31h-.2v-.21h0a.45.45,0,0,1-.42.24.56.56,0,0,1-.52-.62.58.58,0,0,1,.55-.65.41.41,0,0,1,.37.19h0v-.73Zm-.22,1.06a.37.37,0,0,0,0-.09.33.33,0,0,0-.32-.26c-.23,0-.37.2-.37.47s.12.45.36.45a.33.33,0,0,0,.32-.26.37.37,0,0,0,0-.1Z"/><path d="M7.41,72.32A.6.6,0,0,1,6.8,73a.58.58,0,0,1-.58-.63.59.59,0,0,1,.6-.65A.58.58,0,0,1,7.41,72.32Zm-1,0c0,.27.15.47.37.47s.37-.2.37-.47-.1-.47-.37-.47S6.45,72.1,6.45,72.33Z"/><path d="M7.69,71.15h.22v1.79H7.69Z"/><path d="M9.38,72.32a.6.6,0,0,1-.61.65.58.58,0,0,1-.58-.63.6.6,0,0,1,.6-.65A.58.58,0,0,1,9.38,72.32Zm-1,0c0,.27.15.47.37.47s.37-.2.37-.47-.1-.47-.37-.47S8.42,72.1,8.42,72.33Z"/><path d="M9.66,72.1c0-.14,0-.27,0-.38h.19V72h0a.37.37,0,0,1,.34-.27h.06v.21h-.08a.31.31,0,0,0-.3.28.54.54,0,0,0,0,.1v.65H9.66Z"/><path d="M10.58,72.37a.39.39,0,0,0,.42.42.8.8,0,0,0,.34-.06l0,.16A1,1,0,0,1,11,73a.57.57,0,0,1-.6-.61.59.59,0,0,1,.57-.66.52.52,0,0,1,.5.57.74.74,0,0,1,0,.1Zm.65-.16a.32.32,0,0,0-.31-.36.37.37,0,0,0-.34.36Z"/><path d="M11.69,72.71a.58.58,0,0,0,.29.09c.16,0,.24-.08.24-.18s-.06-.16-.23-.22-.32-.2-.32-.34a.38.38,0,0,1,.42-.36.61.61,0,0,1,.3.08l-.05.16a.48.48,0,0,0-.25-.07c-.13,0-.2.08-.2.17s.07.15.23.21.32.19.32.37S12.26,73,12,73a.7.7,0,0,1-.34-.08Z"/><path d="M14.3,71.15v1.47c0,.11,0,.23,0,.31h-.2v-.21h0a.45.45,0,0,1-.42.24.56.56,0,0,1-.52-.62.58.58,0,0,1,.55-.65.41.41,0,0,1,.37.19h0v-.73Zm-.22,1.06a.38.38,0,0,0,0-.09.32.32,0,0,0-.32-.26c-.23,0-.36.2-.36.47s.12.45.36.45a.33.33,0,0,0,.32-.26.37.37,0,0,0,0-.1Z"/><path d="M14.78,72.37a.39.39,0,0,0,.42.42.8.8,0,0,0,.34-.06l0,.16a1,1,0,0,1-.41.08.57.57,0,0,1-.6-.61.59.59,0,0,1,.57-.66.52.52,0,0,1,.5.57.94.94,0,0,1,0,.1Zm.65-.16a.32.32,0,0,0-.31-.36.37.37,0,0,0-.34.36Z"/><path d="M15.92,72c0-.13,0-.23,0-.33h.2v.2h0a.45.45,0,0,1,.4-.23c.17,0,.43.1.43.52v.73h-.22v-.7c0-.2-.07-.36-.28-.36a.31.31,0,0,0-.3.23.3.3,0,0,0,0,.1v.73h-.22Z"/><path d="M17.56,71.38a.14.14,0,0,1-.27,0,.13.13,0,0,1,.14-.14A.13.13,0,0,1,17.56,71.38Zm-.25,1.56V71.72h.22v1.22Z"/><path d="M18.17,71.37v.35h.32v.17h-.32v.66c0,.15,0,.24.17.24h.13v.17a.55.55,0,0,1-.2,0,.3.3,0,0,1-.24-.09.45.45,0,0,1-.09-.32v-.67h-.19v-.17h.19v-.29Z"/><path d="M19,71.38a.14.14,0,0,1-.27,0,.13.13,0,0,1,.14-.14A.13.13,0,0,1,19,71.38Zm-.25,1.56V71.72H19v1.22Z"/><path d="M20.42,72.32a.6.6,0,0,1-.61.65.58.58,0,0,1-.58-.63.59.59,0,0,1,.6-.65A.58.58,0,0,1,20.42,72.32Zm-1,0c0,.27.15.47.37.47s.37-.2.37-.47-.1-.47-.37-.47S19.45,72.1,19.45,72.33Z"/><path d="M20.67,72.71a.58.58,0,0,0,.29.09c.16,0,.24-.08.24-.18s-.06-.16-.23-.22-.32-.2-.32-.34a.38.38,0,0,1,.42-.36.61.61,0,0,1,.3.08l-.05.16a.48.48,0,0,0-.25-.07c-.13,0-.2.08-.2.17s.07.15.23.21.32.19.32.37S21.24,73,21,73a.7.7,0,0,1-.34-.08Z"/><path d="M22.47,71.38a.14.14,0,0,1-.27,0,.13.13,0,0,1,.14-.14A.13.13,0,0,1,22.47,71.38Zm-.25,1.56V71.72h.22v1.22Z"/><path d="M22.81,72.12c0-.16,0-.28,0-.4H23v.21h0a.48.48,0,0,1,.43-.24.55.55,0,0,1,.52.62.58.58,0,0,1-.55.65.43.43,0,0,1-.37-.19h0v.66h-.22Zm.22.32a.5.5,0,0,0,0,.09.34.34,0,0,0,.33.26c.23,0,.37-.19.37-.47s-.13-.45-.36-.45a.39.39,0,0,0-.35.37Z"/><path d="M24.21,72.71a.58.58,0,0,0,.29.09c.16,0,.24-.08.24-.18s-.06-.16-.23-.22-.32-.2-.32-.34a.38.38,0,0,1,.42-.36.61.61,0,0,1,.3.08l-.06.16a.47.47,0,0,0-.25-.07c-.13,0-.2.08-.2.17s.07.15.23.21.32.19.32.37-.17.37-.46.37a.7.7,0,0,1-.34-.08Z"/><path d="M25.91,72.94l0-.15h0a.45.45,0,0,1-.37.18.35.35,0,0,1-.37-.35c0-.29.26-.46.73-.45v0a.25.25,0,0,0-.28-.28.61.61,0,0,0-.32.09l-.05-.15a.75.75,0,0,1,.4-.11c.37,0,.46.25.46.5v.46a1.76,1.76,0,0,0,0,.29Zm0-.62c-.24,0-.52,0-.52.27a.2.2,0,0,0,.21.21.3.3,0,0,0,.29-.2.22.22,0,0,0,0-.07Z"/><path d="M27,72.17v.16h-.62v-.16Z"/><path d="M4.89,75.13c0-.16,0-.28,0-.4h.2v.21h0a.48.48,0,0,1,.43-.24.55.55,0,0,1,.52.62.58.58,0,0,1-.55.65.43.43,0,0,1-.38-.19h0v.66H4.89Zm.22.32a.51.51,0,0,0,0,.09.34.34,0,0,0,.33.26c.23,0,.37-.19.37-.47s-.13-.45-.36-.45a.39.39,0,0,0-.35.37Z"/><path d="M6.44,75.38a.39.39,0,0,0,.42.42.8.8,0,0,0,.34-.06l0,.16a1,1,0,0,1-.41.08.57.57,0,0,1-.6-.61.59.59,0,0,1,.57-.66.52.52,0,0,1,.5.57.94.94,0,0,1,0,.1Zm.65-.16a.32.32,0,0,0-.31-.36.37.37,0,0,0-.34.36Z"/><path d="M7.58,75.11c0-.14,0-.27,0-.38h.19V75h0a.36.36,0,0,1,.34-.27h.06v.21H8.11a.31.31,0,0,0-.3.28.55.55,0,0,0,0,.1v.65H7.58Z"/><path d="M8.41,75.11c0-.14,0-.27,0-.38h.19V75h0a.37.37,0,0,1,.34-.27H9v.21H8.94a.31.31,0,0,0-.3.28.54.54,0,0,0,0,.1v.65H8.41Z"/><path d="M10.31,75.33a.6.6,0,0,1-.61.65.58.58,0,0,1-.58-.63.59.59,0,0,1,.6-.65A.58.58,0,0,1,10.31,75.33Zm-1,0c0,.27.15.47.37.47s.37-.2.37-.47-.1-.47-.37-.47S9.35,75.11,9.35,75.34Z"/><path d="M10.59,75.11c0-.14,0-.27,0-.38h.19V75h0a.37.37,0,0,1,.34-.27h.06v.21h-.08a.31.31,0,0,0-.3.28.64.64,0,0,0,0,.1v.65h-.22Z"/><path d="M11.51,75.38a.39.39,0,0,0,.42.42.81.81,0,0,0,.34-.06l0,.16a1,1,0,0,1-.41.08.57.57,0,0,1-.6-.61.59.59,0,0,1,.57-.66.52.52,0,0,1,.5.57.74.74,0,0,1,0,.1Zm.65-.16a.32.32,0,0,0-.31-.36.37.37,0,0,0-.34.36Z"/><path d="M13.18,75.06c0-.13,0-.23,0-.33h.19v.2h0a.42.42,0,0,1,.38-.22.36.36,0,0,1,.34.24h0a.5.5,0,0,1,.14-.16.42.42,0,0,1,.27-.08c.16,0,.4.11.4.53v.72H14.7v-.69c0-.23-.08-.38-.26-.38a.29.29,0,0,0-.26.2.37.37,0,0,0,0,.11v.75h-.22v-.73c0-.19-.09-.33-.25-.33a.3.3,0,0,0-.27.22.31.31,0,0,0,0,.11v.74h-.22Z"/><path d="M16.38,75.33a.6.6,0,0,1-.61.65.58.58,0,0,1-.58-.63.59.59,0,0,1,.6-.65A.58.58,0,0,1,16.38,75.33Zm-1,0c0,.27.15.47.37.47s.37-.2.37-.47-.1-.47-.37-.47S15.41,75.11,15.41,75.34Z"/><path d="M17.7,74.16v1.47c0,.11,0,.23,0,.31h-.2v-.21h0a.45.45,0,0,1-.42.24.56.56,0,0,1-.52-.62.58.58,0,0,1,.55-.65.41.41,0,0,1,.37.19h0v-.73Zm-.22,1.06a.38.38,0,0,0,0-.09.32.32,0,0,0-.32-.26c-.23,0-.36.2-.36.47s.12.45.36.45a.33.33,0,0,0,.32-.26.37.37,0,0,0,0-.1Z"/><path d="M18.31,74.39a.14.14,0,0,1-.27,0,.13.13,0,0,1,.14-.14A.13.13,0,0,1,18.31,74.39Zm-.25,1.56V74.73h.22v1.22Z"/><path d="M20.24,74.16v1.47c0,.11,0,.23,0,.31h-.2v-.21h0a.45.45,0,0,1-.42.24.56.56,0,0,1-.52-.62.58.58,0,0,1,.55-.65.41.41,0,0,1,.37.19h0v-.73ZM20,75.23a.37.37,0,0,0,0-.09.33.33,0,0,0-.32-.26c-.23,0-.37.2-.37.47s.12.45.36.45a.33.33,0,0,0,.33-.26.37.37,0,0,0,0-.1Z"/><path d="M21.71,75.33a.6.6,0,0,1-.61.65.58.58,0,0,1-.58-.63.59.59,0,0,1,.6-.65A.58.58,0,0,1,21.71,75.33Zm-1,0c0,.27.15.47.37.47s.37-.2.37-.47-.1-.47-.37-.47S20.74,75.11,20.74,75.34Z"/><path d="M22,74.16h.22v1.79H22Z"/><path d="M23.68,75.33a.6.6,0,0,1-.61.65.58.58,0,0,1-.58-.63.6.6,0,0,1,.6-.65A.58.58,0,0,1,23.68,75.33Zm-1,0c0,.27.15.47.37.47s.37-.2.37-.47-.1-.47-.37-.47S22.71,75.11,22.71,75.34Z"/><path d="M24,75.11c0-.14,0-.27,0-.38h.19V75h0a.37.37,0,0,1,.34-.27h.06v.21h-.08a.31.31,0,0,0-.3.28.64.64,0,0,0,0,.1v.65H24Z"/><path d="M25.8,75.62c0,.13,0,.24,0,.33h-.2v-.2h0a.46.46,0,0,1-.4.23c-.19,0-.42-.11-.42-.53v-.71H25v.67c0,.23.07.39.27.39a.32.32,0,0,0,.29-.2.35.35,0,0,0,0-.11v-.75h.22Z"/><path d="M26.16,75.06c0-.13,0-.23,0-.33h.19v.2h0a.42.42,0,0,1,.38-.22.36.36,0,0,1,.35.24h0a.52.52,0,0,1,.14-.16.42.42,0,0,1,.27-.08c.16,0,.4.11.4.53v.72h-.22v-.69c0-.23-.09-.38-.26-.38a.29.29,0,0,0-.26.2.37.37,0,0,0,0,.11v.75h-.22v-.73c0-.19-.09-.33-.25-.33a.3.3,0,0,0-.27.22.31.31,0,0,0,0,.11v.74h-.22Z"/><path d="M5,12.48h.31v1h0a.56.56,0,0,1,.22-.21.63.63,0,0,1,.31-.09c.23,0,.59.14.59.72v1H6.09V14c0-.27-.1-.5-.39-.5a.44.44,0,0,0-.41.31.37.37,0,0,0,0,.15v1H5Z"/><path d="M6.89,12.48H7.2v1h0a.56.56,0,0,1,.22-.21.63.63,0,0,1,.31-.09c.23,0,.59.14.59.72v1H8V14c0-.27-.1-.5-.39-.5a.44.44,0,0,0-.41.31.37.37,0,0,0,0,.15v1H6.89Z"/><path d="M8.82,12.48h.31v1h0a.57.57,0,0,1,.22-.21.63.63,0,0,1,.31-.09c.23,0,.59.14.59.72v1H9.95V14c0-.27-.1-.5-.39-.5a.44.44,0,0,0-.41.31.37.37,0,0,0,0,.15v1H8.82Z"/></g><path class="cls-6" d="M.51,11.09h.62a.2.2,0,0,1,.2.2v3.06a.2.2,0,0,1-.2.2H.51a.19.19,0,0,1-.19-.19V11.28A.19.19,0,0,1,.51,11.09Z"/><rect class="cls-6" x="0.31" y="18.42" width="0.59" height="2.44" rx="0.13" ry="0.13"/><rect class="cls-6" x="0.31" y="24.71" width="0.59" height="2.44" rx="0.13" ry="0.13"/><rect class="cls-7" x="0.81" y="0.88" width="35.65" height="75.79" rx="5.15" ry="5.15"/><rect class="cls-6" x="24.79" y="0.31" width="5.86" height="0.5" rx="0.18" ry="0.18"/><path class="cls-2" d="M31.31.88H6A5.15,5.15,0,0,0,.81,6V71.51A5.15,5.15,0,0,0,6,76.67H31.31a5.15,5.15,0,0,0,5.15-5.15V6A5.15,5.15,0,0,0,31.31.88m2.74,65.31H3.22V11.47H34.05Z"/><path class="cls-7" d="M31.31.88H6A5.15,5.15,0,0,0,.81,6V71.51A5.15,5.15,0,0,0,6,76.67H31.31a5.15,5.15,0,0,0,5.15-5.15V6A5.15,5.15,0,0,0,31.31.88Zm2.74,65.31H3.22V11.47H34.05Z"/><circle class="cls-6" cx="18.64" cy="70.94" r="3.43" transform="translate(-50.9 47.62) rotate(-56.75)"/><rect class="cls-6" x="17.55" y="69.85" width="2.17" height="2.17" rx="0.51" ry="0.51"/><circle class="cls-6" cx="18.64" cy="4.4" r="0.7" transform="translate(1.75 13.43) rotate(-41.43)"/><rect class="cls-6" x="15.25" y="6.35" width="6.77" height="1.66" rx="0.78" ry="0.78"/></svg>