<svg id="Layer_1" data-name="Layer 1" xmlns="http://www.w3.org/2000/svg" viewBox="0 0 143.2 40.38"><defs><style>.cls-1,.cls-2{fill:none;stroke:#20201e;stroke-linecap:round;stroke-linejoin:round;stroke-width:0.7px;}.cls-1{stroke-dasharray:0 2.09;}.cls-3{fill:#cfcfcf;}.cls-4{fill:#20201e;}</style></defs><title>button_extended</title><line class="cls-1" x1="0.35" y1="2.44" x2="0.35" y2="38.99"/><line class="cls-1" x1="2.44" y1="40.03" x2="38.99" y2="40.03"/><line class="cls-1" x1="40.03" y1="37.94" x2="40.03" y2="1.39"/><line class="cls-1" x1="37.95" y1="0.35" x2="1.39" y2="0.35"/><path class="cls-2" d="M.35.35h0M40,.35h0M40,40h0M.35,40h0"/><path class="cls-3" d="M9.82,9.19a2.22,2.22,0,0,0-2.27,2.27V29.6a2.22,2.22,0,0,0,2.27,2.27H28a2.22,2.22,0,0,0,2.27-2.27V11.46A2.22,2.22,0,0,0,28,9.19Z"/><path class="cls-4" d="M20,23.7l-.47-1.53H17.22l-.47,1.53H15.29l2.27-6.45h1.67L21.5,23.7ZM19.24,21l-.73-2.35c-.05-.18-.09-.32-.12-.43q-.15.56-.83,2.78Z"/></svg>