<svg id="Layer_1" data-name="Layer 1" xmlns="http://www.w3.org/2000/svg" viewBox="0 0 230 449.16"><defs><style>.cls-1{fill:#cfcfcf;}.cls-2{fill:#a9a9a9;}.cls-3,.cls-4,.cls-6,.cls-7{fill:none;}.cls-3{stroke:#000;stroke-miterlimit:10;}.cls-4,.cls-6,.cls-7{stroke:#20201e;}.cls-4{stroke-width:0.5px;}.cls-5{fill:#20201e;}.cls-6,.cls-7{stroke-linecap:round;stroke-linejoin:round;stroke-width:0.3px;}.cls-6{stroke-dasharray:0 0.9;}</style></defs><title>iPhone_pointer</title><path class="cls-1" d="M130.76,279.53a22.68,22.68,0,1,0-22.68-22.68,22.68,22.68,0,0,0,22.68,22.68"/><rect class="cls-2" x="193.11" y="254.85" width="0.93" height="0.93"/><rect class="cls-3" x="1.59" y="57.19" width="188.84" height="391.46" rx="30" ry="30"/><path class="cls-3" d="M32,61.19H160a26.41,26.41,0,0,1,26.41,26.41V418.24A26.42,26.42,0,0,1,160,444.66H32A26.41,26.41,0,0,1,5.59,418.24V87.61A26.41,26.41,0,0,1,32,61.19Z"/><circle class="cls-3" cx="95.49" cy="69.2" r="2.5"/><circle class="cls-3" cx="65.84" cy="81.8" r="3.25"/><path class="cls-3" d="M109,83.3H82a1.5,1.5,0,0,1,0-3h27a1.5,1.5,0,0,1,0,3Z"/><rect class="cls-3" x="13.71" y="105.33" width="163.5" height="294.4"/><circle class="cls-3" cx="95.46" cy="422.95" r="15"/><circle class="cls-3" cx="95.46" cy="422.95" r="12.75"/><rect class="cls-3" x="189.33" y="139.76" width="1.09" height="29.15"/><rect class="cls-3" x="0.5" y="106.58" width="1.09" height="16.63"/><rect class="cls-3" x="0.5" y="140.95" width="1.09" height="27.96"/><rect class="cls-3" x="0.5" y="175.83" width="1.09" height="29.15"/><line class="cls-4" x1="14.34" y1="174.18" x2="176.32" y2="174.18"/><polyline class="cls-4" points="17.81 177.4 14.34 174.18 17.81 170.95"/><polyline class="cls-4" points="172.85 170.95 176.32 174.18 172.85 177.4"/><line class="cls-4" x1="108.45" y1="256.85" x2="153.07" y2="256.85"/><polyline class="cls-4" points="111.92 260.07 108.45 256.85 111.92 253.63"/><polyline class="cls-4" points="149.61 253.63 153.07 256.85 149.61 260.07"/><line class="cls-4" x1="108.45" y1="310.85" x2="153.07" y2="310.85"/><polyline class="cls-4" points="111.92 314.07 108.45 310.85 111.92 307.63"/><polyline class="cls-4" points="149.61 307.63 153.07 310.85 149.61 314.07"/><path class="cls-5" d="M72.37,164.95a1.84,1.84,0,0,1,1.24.39,1.34,1.34,0,0,1,.45,1.07,1.55,1.55,0,0,1-.49,1.22,2,2,0,0,1-1.36.44,2.51,2.51,0,0,1-1.29-.27v-.55a2,2,0,0,0,.59.24,2.91,2.91,0,0,0,.7.09,1.4,1.4,0,0,0,.93-.28,1,1,0,0,0,.33-.82q0-1-1.28-1a5.08,5.08,0,0,0-.87.1l-.29-.19.19-2.34h2.48v.52h-2l-.13,1.5A4,4,0,0,1,72.37,164.95Z"/><path class="cls-5" d="M76.46,162.93a1.69,1.69,0,0,1,1.08.32,1.06,1.06,0,0,1,.4.88,1.09,1.09,0,0,1-.23.67,2,2,0,0,1-.73.55,2.46,2.46,0,0,1,.86.61,1.15,1.15,0,0,1,.26.74,1.24,1.24,0,0,1-.43,1,1.77,1.77,0,0,1-1.19.37,1.91,1.91,0,0,1-1.23-.35,1.21,1.21,0,0,1-.43-1,1.48,1.48,0,0,1,1-1.34,1.93,1.93,0,0,1-.68-.58,1.22,1.22,0,0,1-.21-.69,1.06,1.06,0,0,1,.4-.87A1.67,1.67,0,0,1,76.46,162.93Zm-1.08,3.81a.77.77,0,0,0,.29.64,1.25,1.25,0,0,0,.8.23,1.19,1.19,0,0,0,.79-.24.81.81,0,0,0,.28-.66.8.8,0,0,0-.27-.59,2.73,2.73,0,0,0-.93-.5,2,2,0,0,0-.74.48A.94.94,0,0,0,75.38,166.74Zm1.07-3.35a1,1,0,0,0-.67.21.68.68,0,0,0-.24.55.78.78,0,0,0,.2.54,2.1,2.1,0,0,0,.75.45,1.88,1.88,0,0,0,.69-.44.82.82,0,0,0,.2-.55.67.67,0,0,0-.25-.55A1,1,0,0,0,76.46,163.39Z"/><path class="cls-5" d="M85.25,168v-2.44a1,1,0,0,0-.19-.67.74.74,0,0,0-.59-.22,1,1,0,0,0-.78.3,1.45,1.45,0,0,0-.25.94V168h-.57v-2.44a1,1,0,0,0-.19-.67.74.74,0,0,0-.6-.22.93.93,0,0,0-.78.32,1.73,1.73,0,0,0-.25,1v2h-.57v-3.75h.46l.09.51h0a1.1,1.1,0,0,1,.45-.43,1.37,1.37,0,0,1,.65-.15,1.11,1.11,0,0,1,1.15.64h0a1.2,1.2,0,0,1,.49-.46,1.5,1.5,0,0,1,.72-.17,1.27,1.27,0,0,1,1,.33,1.46,1.46,0,0,1,.32,1V168Z"/><path class="cls-5" d="M91.76,168v-2.44a1,1,0,0,0-.19-.67.74.74,0,0,0-.59-.22,1,1,0,0,0-.78.3,1.45,1.45,0,0,0-.25.94V168h-.57v-2.44a1,1,0,0,0-.19-.67.74.74,0,0,0-.6-.22.93.93,0,0,0-.78.32,1.73,1.73,0,0,0-.25,1v2H87v-3.75h.46l.09.51h0a1.1,1.1,0,0,1,.45-.43,1.37,1.37,0,0,1,.65-.15,1.11,1.11,0,0,1,1.15.64h0a1.2,1.2,0,0,1,.49-.46,1.5,1.5,0,0,1,.72-.17,1.27,1.27,0,0,1,1,.33,1.46,1.46,0,0,1,.32,1V168Z"/><path class="cls-5" d="M95.12,165.07v-.47H98.3v.47Zm0,1.4V166H98.3v.47Z"/><path class="cls-5" d="M101.51,168l2.07-4.47h-2.72V163h3.33v.45l-2,4.54Z"/><path class="cls-5" d="M106.44,164.95a1.84,1.84,0,0,1,1.24.39,1.34,1.34,0,0,1,.45,1.07,1.55,1.55,0,0,1-.49,1.22,2,2,0,0,1-1.36.44,2.51,2.51,0,0,1-1.29-.27v-.55a2,2,0,0,0,.59.24,2.91,2.91,0,0,0,.7.09,1.4,1.4,0,0,0,.93-.28,1,1,0,0,0,.33-.82q0-1-1.28-1a5.08,5.08,0,0,0-.87.1l-.29-.19.19-2.34h2.48v.52h-2l-.13,1.5A4,4,0,0,1,106.44,164.95Z"/><path class="cls-5" d="M112.19,165.49a3.65,3.65,0,0,1-.41,1.94,1.51,1.51,0,0,1-2.48,0,3.58,3.58,0,0,1-.42-1.92,3.65,3.65,0,0,1,.41-1.94,1.51,1.51,0,0,1,2.48,0A3.56,3.56,0,0,1,112.19,165.49Zm-2.73,0a3.66,3.66,0,0,0,.26,1.59.92.92,0,0,0,1.64,0,5,5,0,0,0,0-3.16.92.92,0,0,0-1.64,0A3.63,3.63,0,0,0,109.46,165.49Z"/><path class="cls-5" d="M116.28,168.07a1.62,1.62,0,0,1-.67-.13,1.25,1.25,0,0,1-.51-.42h0a5,5,0,0,1,0,.62v1.54h-.57v-5.43H115l.08.51h0a1.31,1.31,0,0,1,.51-.44,1.55,1.55,0,0,1,.67-.14,1.39,1.39,0,0,1,1.15.51,2.71,2.71,0,0,1,0,2.86A1.39,1.39,0,0,1,116.28,168.07Zm-.08-3.4a1,1,0,0,0-.83.32,1.63,1.63,0,0,0-.26,1v.13a1.87,1.87,0,0,0,.26,1.13,1,1,0,0,0,.84.34.88.88,0,0,0,.76-.39,1.86,1.86,0,0,0,.27-1.08A1.79,1.79,0,0,0,117,165,.9.9,0,0,0,116.2,164.67Z"/><path class="cls-5" d="M119.73,166.08l-1.3-1.83h.65l1,1.44,1-1.44h.64l-1.3,1.83,1.37,1.92h-.64l-1-1.52L119,168h-.64Z"/><path class="cls-5" d="M57.84,187.8a2.52,2.52,0,0,1-.67,1.89,2.66,2.66,0,0,1-1.93.65H53.85v-5h1.53a2.24,2.24,0,0,1,2.46,2.45Zm-.62,0a2,2,0,0,0-.49-1.47,2,2,0,0,0-1.46-.5h-.84v4h.71a2.15,2.15,0,0,0,1.56-.51A2,2,0,0,0,57.23,187.83Z"/><path class="cls-5" d="M60.45,190.42a1.72,1.72,0,0,1-1.31-.51,2,2,0,0,1-.48-1.4,2.17,2.17,0,0,1,.45-1.44,1.48,1.48,0,0,1,1.2-.53,1.41,1.41,0,0,1,1.11.46,1.78,1.78,0,0,1,.41,1.22v.36H59.25a1.48,1.48,0,0,0,.33,1,1.15,1.15,0,0,0,.89.34,3,3,0,0,0,1.2-.25v.51a3,3,0,0,1-.57.19A3.17,3.17,0,0,1,60.45,190.42ZM60.3,187a.93.93,0,0,0-.72.29,1.35,1.35,0,0,0-.32.81h2a1.25,1.25,0,0,0-.24-.82A.84.84,0,0,0,60.3,187Z"/><path class="cls-5" d="M63.62,190.35,62.2,186.6h.61l.81,2.22a10.49,10.49,0,0,1,.32,1h0a7.64,7.64,0,0,1,.24-.75l.9-2.48h.61l-1.42,3.75Z"/><path class="cls-5" d="M66.26,185.59a.38.38,0,0,1,.1-.29.36.36,0,0,1,.48,0,.37.37,0,0,1,.1.28.38.38,0,0,1-.1.29.35.35,0,0,1-.48,0A.38.38,0,0,1,66.26,185.59Zm.62,4.76h-.57V186.6h.57Z"/><path class="cls-5" d="M69.57,190.42a1.6,1.6,0,0,1-1.26-.5,2.06,2.06,0,0,1-.45-1.42,2.12,2.12,0,0,1,.45-1.45,1.63,1.63,0,0,1,1.29-.51,2.54,2.54,0,0,1,.54.06,1.73,1.73,0,0,1,.42.14l-.17.48a2.73,2.73,0,0,0-.41-.12,1.82,1.82,0,0,0-.39,0q-1.14,0-1.14,1.46a1.73,1.73,0,0,0,.28,1.06,1,1,0,0,0,.83.37,2.52,2.52,0,0,0,1-.2v.5A2,2,0,0,1,69.57,190.42Z"/><path class="cls-5" d="M73,190.42a1.72,1.72,0,0,1-1.31-.51,2,2,0,0,1-.48-1.4,2.17,2.17,0,0,1,.45-1.44,1.48,1.48,0,0,1,1.2-.53A1.41,1.41,0,0,1,74,187a1.78,1.78,0,0,1,.41,1.22v.36H71.79a1.48,1.48,0,0,0,.33,1,1.15,1.15,0,0,0,.89.34,3,3,0,0,0,1.2-.25v.51a3,3,0,0,1-.57.19A3.17,3.17,0,0,1,73,190.42ZM72.84,187a.93.93,0,0,0-.72.29,1.35,1.35,0,0,0-.32.81h2a1.25,1.25,0,0,0-.24-.82A.84.84,0,0,0,72.84,187Z"/><path class="cls-5" d="M78.9,190.42a1.62,1.62,0,0,1-.67-.13,1.25,1.25,0,0,1-.51-.42h0a5,5,0,0,1,0,.62V192h-.57V186.6h.46l.08.51h0a1.31,1.31,0,0,1,.51-.44,1.55,1.55,0,0,1,.67-.14A1.39,1.39,0,0,1,80,187a2.71,2.71,0,0,1,0,2.86A1.39,1.39,0,0,1,78.9,190.42Zm-.08-3.4a1,1,0,0,0-.83.32,1.63,1.63,0,0,0-.26,1v.13A1.87,1.87,0,0,0,78,189.6a1,1,0,0,0,.84.34.88.88,0,0,0,.76-.39,1.86,1.86,0,0,0,.27-1.08,1.79,1.79,0,0,0-.27-1.08A.9.9,0,0,0,78.82,187Z"/><path class="cls-5" d="M81.4,185.59a.38.38,0,0,1,.1-.29.36.36,0,0,1,.48,0,.37.37,0,0,1,.1.28.38.38,0,0,1-.1.29.35.35,0,0,1-.48,0A.38.38,0,0,1,81.4,185.59Zm.62,4.76h-.57V186.6H82Z"/><path class="cls-5" d="M84.12,188.43l-1.3-1.83h.65l1,1.44,1-1.44h.64l-1.3,1.83,1.37,1.92H85.5l-1-1.52-1.06,1.52h-.64Z"/><path class="cls-5" d="M88.47,190.42a1.72,1.72,0,0,1-1.31-.51,2,2,0,0,1-.48-1.4,2.17,2.17,0,0,1,.45-1.44,1.48,1.48,0,0,1,1.2-.53,1.41,1.41,0,0,1,1.11.46,1.78,1.78,0,0,1,.41,1.22v.36H87.26a1.48,1.48,0,0,0,.33,1,1.15,1.15,0,0,0,.89.34,3,3,0,0,0,1.2-.25v.51a3,3,0,0,1-.57.19A3.17,3.17,0,0,1,88.47,190.42ZM88.31,187a.93.93,0,0,0-.72.29,1.35,1.35,0,0,0-.32.81h2a1.25,1.25,0,0,0-.24-.82A.84.84,0,0,0,88.31,187Z"/><path class="cls-5" d="M91.38,190.35h-.57V185h.57Z"/><path class="cls-5" d="M96.11,186.54a2.22,2.22,0,0,1,.45,0l-.08.53a1.93,1.93,0,0,0-.41-.05,1,1,0,0,0-.78.37,1.34,1.34,0,0,0-.32.92v2H94.4V186.6h.47l.06.69h0a1.65,1.65,0,0,1,.5-.56A1.13,1.13,0,0,1,96.11,186.54Z"/><path class="cls-5" d="M99.56,190.35l-.11-.53h0a1.58,1.58,0,0,1-.56.48,1.7,1.7,0,0,1-.7.13,1.25,1.25,0,0,1-.87-.29,1,1,0,0,1-.32-.82q0-1.14,1.81-1.19l.64,0v-.23a1,1,0,0,0-.19-.65.78.78,0,0,0-.61-.21,2.47,2.47,0,0,0-1.06.29l-.17-.43a2.68,2.68,0,0,1,.61-.24,2.64,2.64,0,0,1,.66-.08,1.42,1.42,0,0,1,1,.3,1.24,1.24,0,0,1,.32,1v2.56Zm-1.28-.4a1.15,1.15,0,0,0,.83-.29,1.08,1.08,0,0,0,.3-.81v-.34l-.57,0a2.06,2.06,0,0,0-1,.21.63.63,0,0,0-.3.58.59.59,0,0,0,.19.47A.77.77,0,0,0,98.28,190Z"/><path class="cls-5" d="M102.36,190l.29,0,.22,0v.43a1.06,1.06,0,0,1-.27.07l-.32,0q-1.09,0-1.09-1.14V187h-.54v-.27l.54-.24.24-.8h.33v.87h1.09V187h-1.09v2.2a.76.76,0,0,0,.16.52A.56.56,0,0,0,102.36,190Z"/><path class="cls-5" d="M103.57,185.59a.38.38,0,0,1,.1-.29.36.36,0,0,1,.48,0,.37.37,0,0,1,.1.28.38.38,0,0,1-.1.29.35.35,0,0,1-.48,0A.38.38,0,0,1,103.57,185.59Zm.62,4.76h-.57V186.6h.57Z"/><path class="cls-5" d="M108.62,188.47a2.07,2.07,0,0,1-.46,1.43,1.63,1.63,0,0,1-1.27.51,1.68,1.68,0,0,1-.89-.24,1.55,1.55,0,0,1-.6-.68,2.37,2.37,0,0,1-.21-1,2.06,2.06,0,0,1,.46-1.43,1.62,1.62,0,0,1,1.27-.51,1.58,1.58,0,0,1,1.25.52A2.06,2.06,0,0,1,108.62,188.47Zm-2.85,0a1.78,1.78,0,0,0,.29,1.09,1.14,1.14,0,0,0,1.69,0,1.77,1.77,0,0,0,.29-1.1,1.74,1.74,0,0,0-.29-1.08,1,1,0,0,0-.85-.37,1,1,0,0,0-.84.37A1.76,1.76,0,0,0,105.77,188.47Z"/><path class="cls-5" d="M111.12,188.43a5.31,5.31,0,0,1,.26-1.7,4.23,4.23,0,0,1,.76-1.38h.55a4.81,4.81,0,0,0-.74,1.45,5.38,5.38,0,0,0-.25,1.62A5.18,5.18,0,0,0,112,190a5,5,0,0,0,.73,1.43h-.55a4,4,0,0,1-.77-1.36A5.16,5.16,0,0,1,111.12,188.43Z"/><path class="cls-5" d="M116.06,189.85h0a1.33,1.33,0,0,1-1.18.57,1.39,1.39,0,0,1-1.14-.5,2.21,2.21,0,0,1-.41-1.43,2.25,2.25,0,0,1,.41-1.44,1.38,1.38,0,0,1,1.14-.51,1.36,1.36,0,0,1,1.17.55h0l0-.27V185h.57v5.32h-.46Zm-1.13.1a1,1,0,0,0,.84-.32,1.6,1.6,0,0,0,.26-1v-.12a1.88,1.88,0,0,0-.27-1.14,1,1,0,0,0-.85-.34.87.87,0,0,0-.76.39,1.93,1.93,0,0,0-.27,1.1,1.85,1.85,0,0,0,.26,1.08A.89.89,0,0,0,114.92,189.94Z"/><path class="cls-5" d="M119.54,190.42a1.62,1.62,0,0,1-.67-.13,1.25,1.25,0,0,1-.51-.42h0a5,5,0,0,1,0,.62V192h-.57V186.6h.46l.08.51h0a1.31,1.31,0,0,1,.51-.44,1.55,1.55,0,0,1,.67-.14,1.39,1.39,0,0,1,1.15.51,2.71,2.71,0,0,1,0,2.86A1.39,1.39,0,0,1,119.54,190.42Zm-.08-3.4a1,1,0,0,0-.83.32,1.63,1.63,0,0,0-.26,1v.13a1.87,1.87,0,0,0,.26,1.13,1,1,0,0,0,.84.34.88.88,0,0,0,.76-.39,1.86,1.86,0,0,0,.27-1.08,1.79,1.79,0,0,0-.27-1.08A.9.9,0,0,0,119.46,187Z"/><path class="cls-5" d="M123.83,190.42a1.62,1.62,0,0,1-.67-.13,1.25,1.25,0,0,1-.51-.42h0a5,5,0,0,1,0,.62V192h-.57V186.6h.46l.08.51h0a1.31,1.31,0,0,1,.51-.44,1.55,1.55,0,0,1,.67-.14A1.39,1.39,0,0,1,125,187a2.71,2.71,0,0,1,0,2.86A1.39,1.39,0,0,1,123.83,190.42Zm-.08-3.4a1,1,0,0,0-.83.32,1.63,1.63,0,0,0-.26,1v.13a1.87,1.87,0,0,0,.26,1.13,1,1,0,0,0,.84.34.88.88,0,0,0,.76-.39,1.86,1.86,0,0,0,.27-1.08,1.79,1.79,0,0,0-.27-1.08A.9.9,0,0,0,123.75,187Z"/><path class="cls-5" d="M127.28,188.43,126,186.6h.65l1,1.44,1-1.44h.64l-1.3,1.83,1.37,1.92h-.64l-1-1.52-1.06,1.52h-.64Z"/><path class="cls-5" d="M131.23,188.43a5.17,5.17,0,0,1-.26,1.68,4,4,0,0,1-.76,1.35h-.55a4.92,4.92,0,0,0,.73-1.43,5.2,5.2,0,0,0,.25-1.6,5.38,5.38,0,0,0-.25-1.62,4.81,4.81,0,0,0-.74-1.45h.55a4.19,4.19,0,0,1,.77,1.39A5.32,5.32,0,0,1,131.23,188.43Z"/><path class="cls-5" d="M132,187c0-.31.13-.46.4-.46s.42.15.42.46a.48.48,0,0,1-.11.34.4.4,0,0,1-.31.12.41.41,0,0,1-.29-.11A.47.47,0,0,1,132,187Zm0,3a.51.51,0,0,1,.1-.35.38.38,0,0,1,.3-.12.4.4,0,0,1,.31.12.49.49,0,0,1,.11.35.48.48,0,0,1-.11.34.45.45,0,0,1-.6,0A.47.47,0,0,1,132,190Z"/><path class="cls-5" d="M138.82,190.35h-3.28v-.49l1.32-1.32a9.69,9.69,0,0,0,.79-.87,2.22,2.22,0,0,0,.29-.51,1.45,1.45,0,0,0,.1-.53.84.84,0,0,0-.24-.63.93.93,0,0,0-.67-.23,1.69,1.69,0,0,0-.59.1,2.35,2.35,0,0,0-.62.37l-.3-.39a2.3,2.3,0,0,1,1.5-.57,1.59,1.59,0,0,1,1.1.36,1.24,1.24,0,0,1,.4,1,1.88,1.88,0,0,1-.27.94,6,6,0,0,1-1,1.18l-1.09,1.07v0h2.57Z"/><path class="cls-5" d="M121.89,252.57h-.58v-5h2.79v.52h-2.2v1.83H124v.52h-2.07Z"/><path class="cls-5" d="M124.79,247.81a.38.38,0,0,1,.1-.29.36.36,0,0,1,.48,0,.37.37,0,0,1,.1.28.38.38,0,0,1-.1.29.35.35,0,0,1-.48,0A.38.38,0,0,1,124.79,247.81Zm.62,4.76h-.57v-3.75h.57Z"/><path class="cls-5" d="M129.17,252.57v-2.42a1,1,0,0,0-.21-.68.85.85,0,0,0-.65-.22,1.08,1.08,0,0,0-.86.32,1.61,1.61,0,0,0-.27,1v2h-.57v-3.75h.46l.09.51h0a1.16,1.16,0,0,1,.49-.43,1.59,1.59,0,0,1,.7-.15,1.42,1.42,0,0,1,1,.33,1.39,1.39,0,0,1,.34,1v2.44Z"/><path class="cls-5" d="M134,248.83v.36l-.69.08a1.22,1.22,0,0,1,.25.75,1.11,1.11,0,0,1-.38.88,1.52,1.52,0,0,1-1,.33l-.31,0a.56.56,0,0,0-.36.48.24.24,0,0,0,.13.23.93.93,0,0,0,.43.07h.66a1.48,1.48,0,0,1,.93.26.89.89,0,0,1,.33.74,1.07,1.07,0,0,1-.5.95,2.67,2.67,0,0,1-1.46.33,2,2,0,0,1-1.13-.27.88.88,0,0,1-.4-.77.87.87,0,0,1,.22-.59,1.11,1.11,0,0,1,.62-.34.58.58,0,0,1-.24-.2.53.53,0,0,1-.1-.32.6.6,0,0,1,.11-.36,1.14,1.14,0,0,1,.35-.3,1,1,0,0,1-.47-.41,1.19,1.19,0,0,1-.18-.66,1.21,1.21,0,0,1,.37-.95,1.51,1.51,0,0,1,1-.33,1.89,1.89,0,0,1,.53.07Zm-3,4.38a.51.51,0,0,0,.26.46,1.41,1.41,0,0,0,.73.16,2.05,2.05,0,0,0,1.06-.21.66.66,0,0,0,.34-.58.46.46,0,0,0-.19-.42,1.47,1.47,0,0,0-.71-.12h-.68a.9.9,0,0,0-.6.19A.66.66,0,0,0,131,253.2Zm.31-3.18a.77.77,0,0,0,.22.6.89.89,0,0,0,.62.2A.72.72,0,0,0,133,250a.74.74,0,0,0-.84-.84.83.83,0,0,0-.62.21A.87.87,0,0,0,131.29,250Z"/><path class="cls-5" d="M136.32,252.64a1.72,1.72,0,0,1-1.31-.51,2,2,0,0,1-.48-1.4,2.17,2.17,0,0,1,.45-1.44,1.48,1.48,0,0,1,1.2-.53,1.41,1.41,0,0,1,1.11.46,1.78,1.78,0,0,1,.41,1.22v.36h-2.58a1.48,1.48,0,0,0,.33,1,1.15,1.15,0,0,0,.89.34,3,3,0,0,0,1.2-.25v.51a3,3,0,0,1-.57.19A3.17,3.17,0,0,1,136.32,252.64Zm-.15-3.41a.93.93,0,0,0-.72.29,1.35,1.35,0,0,0-.32.81h2a1.25,1.25,0,0,0-.24-.82A.84.84,0,0,0,136.16,249.23Z"/><path class="cls-5" d="M140.37,248.76a2.22,2.22,0,0,1,.45,0l-.08.53a1.93,1.93,0,0,0-.41-.05,1,1,0,0,0-.78.37,1.34,1.34,0,0,0-.32.92v2h-.57v-3.75h.47l.06.69h0a1.65,1.65,0,0,1,.5-.56A1.13,1.13,0,0,1,140.37,248.76Z"/><path class="cls-5" d="M120.77,262.7a2.07,2.07,0,0,1-.46,1.43,1.63,1.63,0,0,1-1.27.51,1.69,1.69,0,0,1-.91-.24l-.29.4-.39-.27.32-.45a2.44,2.44,0,0,1,0-2.82,1.62,1.62,0,0,1,1.27-.51,1.65,1.65,0,0,1,.92.26l.29-.41.4.26-.33.45A2.07,2.07,0,0,1,120.77,262.7Zm-2.85,0a2,2,0,0,0,.18.93l1.59-2.21a1.09,1.09,0,0,0-.65-.18,1,1,0,0,0-.84.37A1.76,1.76,0,0,0,117.92,262.7Zm2.27,0a2,2,0,0,0-.17-.9l-1.59,2.2a1.05,1.05,0,0,0,.63.17,1,1,0,0,0,.85-.37A1.77,1.77,0,0,0,120.18,262.7Z"/><path class="cls-5" d="M125.43,264.57h-.55V261q0-.44,0-.84l-.16.15-.81.67-.3-.39,1.32-1h.48Z"/><path class="cls-5" d="M127.39,262.44a3.53,3.53,0,0,1,.57-2.2,2,2,0,0,1,1.69-.73,2.27,2.27,0,0,1,.61.06v.49a2,2,0,0,0-.6-.08,1.52,1.52,0,0,0-1.23.5A2.57,2.57,0,0,0,128,262h0a1.31,1.31,0,0,1,1.19-.59,1.39,1.39,0,0,1,1.06.41,1.53,1.53,0,0,1,.39,1.1,1.7,1.7,0,0,1-.43,1.23,1.51,1.51,0,0,1-1.15.45,1.48,1.48,0,0,1-1.23-.58A2.58,2.58,0,0,1,127.39,262.44Zm1.68,1.72a1,1,0,0,0,.75-.31,1.3,1.3,0,0,0,.27-.88,1.14,1.14,0,0,0-.25-.78.94.94,0,0,0-.75-.28,1.25,1.25,0,0,0-.56.13,1,1,0,0,0-.41.35.81.81,0,0,0-.15.46,1.58,1.58,0,0,0,.14.66,1.15,1.15,0,0,0,.39.48A1,1,0,0,0,129.06,264.16Z"/><path class="cls-5" d="M138.18,264.57v-2.44a1,1,0,0,0-.19-.67.74.74,0,0,0-.59-.22,1,1,0,0,0-.78.3,1.45,1.45,0,0,0-.25.94v2.09h-.57v-2.44a1,1,0,0,0-.19-.67.74.74,0,0,0-.6-.22.93.93,0,0,0-.78.32,1.73,1.73,0,0,0-.25,1v2h-.57v-3.75h.46l.09.51h0a1.1,1.1,0,0,1,.45-.43,1.37,1.37,0,0,1,.65-.15,1.11,1.11,0,0,1,1.15.64h0a1.2,1.2,0,0,1,.49-.46,1.5,1.5,0,0,1,.72-.17,1.27,1.27,0,0,1,1,.33,1.46,1.46,0,0,1,.32,1v2.44Z"/><path class="cls-5" d="M144.7,264.57v-2.44a1,1,0,0,0-.19-.67.74.74,0,0,0-.59-.22,1,1,0,0,0-.78.3,1.45,1.45,0,0,0-.25.94v2.09h-.57v-2.44a1,1,0,0,0-.19-.67.74.74,0,0,0-.6-.22.93.93,0,0,0-.78.32,1.73,1.73,0,0,0-.25,1v2h-.57v-3.75h.46l.09.51h0a1.1,1.1,0,0,1,.45-.43,1.37,1.37,0,0,1,.65-.15,1.11,1.11,0,0,1,1.15.64h0a1.2,1.2,0,0,1,.49-.46,1.5,1.5,0,0,1,.72-.17,1.27,1.27,0,0,1,1,.33,1.46,1.46,0,0,1,.32,1v2.44Z"/><path class="cls-5" d="M123.15,306.57h-.55V303q0-.44,0-.84l-.16.15-.81.67-.3-.39,1.32-1h.48Z"/><path class="cls-5" d="M128.36,304.07A3.65,3.65,0,0,1,128,306a1.51,1.51,0,0,1-2.48,0,3.58,3.58,0,0,1-.42-1.92,3.65,3.65,0,0,1,.41-1.94,1.51,1.51,0,0,1,2.48,0A3.56,3.56,0,0,1,128.36,304.07Zm-2.73,0a3.66,3.66,0,0,0,.26,1.59.92.92,0,0,0,1.64,0,5,5,0,0,0,0-3.16.92.92,0,0,0-1.64,0A3.63,3.63,0,0,0,125.63,304.07Z"/><path class="cls-5" d="M132.15,302.75a1.14,1.14,0,0,1-.27.78,1.34,1.34,0,0,1-.76.41v0a1.43,1.43,0,0,1,.89.38,1.13,1.13,0,0,1,.29.81,1.31,1.31,0,0,1-.5,1.1,2.25,2.25,0,0,1-1.41.38,4.07,4.07,0,0,1-.73-.06,2.52,2.52,0,0,1-.64-.21v-.54a3.09,3.09,0,0,0,.69.25,3.14,3.14,0,0,0,.7.08q1.3,0,1.3-1t-1.43-.91h-.49v-.49h.5a1.5,1.5,0,0,0,.93-.26.85.85,0,0,0,.34-.72.71.71,0,0,0-.25-.57,1,1,0,0,0-.68-.21,2.09,2.09,0,0,0-.62.09,2.72,2.72,0,0,0-.66.33l-.29-.38a2.4,2.4,0,0,1,.71-.38,2.59,2.59,0,0,1,.85-.14,1.73,1.73,0,0,1,1.13.33A1.12,1.12,0,0,1,132.15,302.75Z"/><path class="cls-5" d="M136.46,306.64a1.62,1.62,0,0,1-.67-.13,1.25,1.25,0,0,1-.51-.42h0a5,5,0,0,1,0,.62v1.54h-.57v-5.43h.46l.08.51h0a1.31,1.31,0,0,1,.51-.44,1.55,1.55,0,0,1,.67-.14,1.39,1.39,0,0,1,1.15.51,2.71,2.71,0,0,1,0,2.86A1.39,1.39,0,0,1,136.46,306.64Zm-.08-3.4a1,1,0,0,0-.83.32,1.63,1.63,0,0,0-.26,1v.13a1.87,1.87,0,0,0,.26,1.13,1,1,0,0,0,.84.34.88.88,0,0,0,.76-.39,1.86,1.86,0,0,0,.27-1.08,1.79,1.79,0,0,0-.27-1.08A.9.9,0,0,0,136.37,303.24Z"/><path class="cls-5" d="M139.9,304.65l-1.3-1.83h.65l1,1.44,1-1.44h.64l-1.3,1.83,1.37,1.92h-.64l-1-1.52-1.06,1.52h-.64Z"/><path class="cls-5" d="M39.85,366h1.41a2.65,2.65,0,0,1,1.44.3,1,1,0,0,1,.44.94,1.09,1.09,0,0,1-.25.73,1.19,1.19,0,0,1-.72.37v0q1.14.19,1.14,1.2a1.28,1.28,0,0,1-.45,1,1.92,1.92,0,0,1-1.27.38H39.85Zm.58,2.14h1a1.56,1.56,0,0,0,.89-.19.74.74,0,0,0,.27-.65.66.66,0,0,0-.3-.61,1.88,1.88,0,0,0-1-.19h-.85Zm0,.49v1.87h1a1.49,1.49,0,0,0,.91-.23.87.87,0,0,0,.31-.73.78.78,0,0,0-.31-.68,1.68,1.68,0,0,0-1-.22Z"/><path class="cls-5" d="M46,367.19a2.22,2.22,0,0,1,.45,0l-.08.53a1.93,1.93,0,0,0-.41-.05,1,1,0,0,0-.78.37,1.34,1.34,0,0,0-.32.92v2H44.3v-3.75h.47l.06.69h0a1.65,1.65,0,0,1,.5-.56A1.13,1.13,0,0,1,46,367.19Z"/><path class="cls-5" d="M48.74,371.07a1.72,1.72,0,0,1-1.31-.51,2,2,0,0,1-.48-1.4,2.17,2.17,0,0,1,.45-1.44,1.48,1.48,0,0,1,1.2-.53,1.41,1.41,0,0,1,1.11.46,1.78,1.78,0,0,1,.41,1.22v.36H47.54a1.48,1.48,0,0,0,.33,1,1.15,1.15,0,0,0,.89.34,3,3,0,0,0,1.2-.25v.51a3,3,0,0,1-.57.19A3.17,3.17,0,0,1,48.74,371.07Zm-.15-3.41a.93.93,0,0,0-.72.29,1.35,1.35,0,0,0-.32.81h2a1.25,1.25,0,0,0-.24-.82A.84.84,0,0,0,48.59,367.66Z"/><path class="cls-5" d="M51,366.24a.38.38,0,0,1,.1-.29.36.36,0,0,1,.48,0,.37.37,0,0,1,.1.28.38.38,0,0,1-.1.29.35.35,0,0,1-.48,0A.38.38,0,0,1,51,366.24Zm.62,4.76h-.57v-3.75h.57Z"/><path class="cls-5" d="M54.07,370.6l.29,0,.22,0V371a1.06,1.06,0,0,1-.27.07l-.32,0q-1.09,0-1.09-1.14V367.7h-.54v-.27l.54-.24.24-.8h.33v.87h1.09v.44H53.47v2.2a.76.76,0,0,0,.16.52A.56.56,0,0,0,54.07,370.6Z"/><path class="cls-5" d="M56.91,371.07a1.72,1.72,0,0,1-1.31-.51,2,2,0,0,1-.48-1.4,2.17,2.17,0,0,1,.45-1.44,1.48,1.48,0,0,1,1.2-.53,1.41,1.41,0,0,1,1.11.46,1.78,1.78,0,0,1,.41,1.22v.36H55.71a1.48,1.48,0,0,0,.33,1,1.15,1.15,0,0,0,.89.34,3,3,0,0,0,1.2-.25v.51a3,3,0,0,1-.57.19A3.17,3.17,0,0,1,56.91,371.07Zm-.15-3.41A.93.93,0,0,0,56,368a1.35,1.35,0,0,0-.32.81h2a1.25,1.25,0,0,0-.24-.82A.84.84,0,0,0,56.76,367.66Z"/><path class="cls-5" d="M62.66,371.07a1.72,1.72,0,0,1-1.31-.51,2,2,0,0,1-.48-1.4,2.17,2.17,0,0,1,.45-1.44,1.48,1.48,0,0,1,1.2-.53,1.41,1.41,0,0,1,1.11.46,1.78,1.78,0,0,1,.41,1.22v.36H61.46a1.48,1.48,0,0,0,.33,1,1.15,1.15,0,0,0,.89.34,3,3,0,0,0,1.2-.25v.51a3,3,0,0,1-.57.19A3.17,3.17,0,0,1,62.66,371.07Zm-.15-3.41a.93.93,0,0,0-.72.29,1.35,1.35,0,0,0-.32.81h2a1.25,1.25,0,0,0-.24-.82A.84.84,0,0,0,62.51,367.66Z"/><path class="cls-5" d="M65,366.24a.38.38,0,0,1,.1-.29.36.36,0,0,1,.48,0,.37.37,0,0,1,.1.28.38.38,0,0,1-.1.29.35.35,0,0,1-.48,0A.38.38,0,0,1,65,366.24Zm.62,4.76H65v-3.75h.57Z"/><path class="cls-5" d="M69.34,371v-2.42a1,1,0,0,0-.21-.68.85.85,0,0,0-.65-.22,1.08,1.08,0,0,0-.86.32,1.61,1.61,0,0,0-.27,1v2h-.57v-3.75h.46l.09.51h0a1.16,1.16,0,0,1,.49-.43,1.59,1.59,0,0,1,.7-.15,1.42,1.42,0,0,1,1,.33,1.39,1.39,0,0,1,.34,1V371Z"/><path class="cls-5" d="M72.65,371.07a1.72,1.72,0,0,1-1.31-.51,2,2,0,0,1-.48-1.4,2.17,2.17,0,0,1,.45-1.44,1.48,1.48,0,0,1,1.2-.53,1.41,1.41,0,0,1,1.11.46,1.78,1.78,0,0,1,.41,1.22v.36H71.45a1.48,1.48,0,0,0,.33,1,1.15,1.15,0,0,0,.89.34,3,3,0,0,0,1.2-.25v.51a3,3,0,0,1-.57.19A3.17,3.17,0,0,1,72.65,371.07Zm-.15-3.41a.93.93,0,0,0-.72.29,1.35,1.35,0,0,0-.32.81h2a1.25,1.25,0,0,0-.24-.82A.84.84,0,0,0,72.5,367.66Z"/><path class="cls-5" d="M77.41,370a.94.94,0,0,1-.39.81,1.84,1.84,0,0,1-1.09.28,2.37,2.37,0,0,1-1.16-.24v-.53a2.85,2.85,0,0,0,.58.21,2.4,2.4,0,0,0,.6.08,1.35,1.35,0,0,0,.68-.14.49.49,0,0,0,0-.81,3,3,0,0,0-.74-.37,4,4,0,0,1-.74-.34,1,1,0,0,1-.33-.33.87.87,0,0,1-.11-.44.84.84,0,0,1,.37-.72,1.73,1.73,0,0,1,1-.26,3,3,0,0,1,1.18.25l-.2.46a2.73,2.73,0,0,0-1-.23,1.18,1.18,0,0,0-.61.13.39.39,0,0,0-.21.35.42.42,0,0,0,.08.26.75.75,0,0,0,.25.2,5.6,5.6,0,0,0,.66.28,2.45,2.45,0,0,1,.9.49A.86.86,0,0,1,77.41,370Z"/><path class="cls-5" d="M80.82,371h-.58v-5H83v.52h-2.2v1.83h2.07v.52H80.82Z"/><path class="cls-5" d="M83.72,366.24a.38.38,0,0,1,.1-.29.36.36,0,0,1,.48,0,.37.37,0,0,1,.1.28.38.38,0,0,1-.1.29.35.35,0,0,1-.48,0A.38.38,0,0,1,83.72,366.24Zm.62,4.76h-.57v-3.75h.57Z"/><path class="cls-5" d="M88.1,371v-2.42a1,1,0,0,0-.21-.68.85.85,0,0,0-.65-.22,1.08,1.08,0,0,0-.86.32,1.61,1.61,0,0,0-.27,1v2h-.57v-3.75H86l.09.51h0a1.16,1.16,0,0,1,.49-.43,1.59,1.59,0,0,1,.7-.15,1.42,1.42,0,0,1,1,.33,1.39,1.39,0,0,1,.34,1V371Z"/><path class="cls-5" d="M92.9,367.25v.36l-.69.08a1.22,1.22,0,0,1,.25.75,1.11,1.11,0,0,1-.38.88,1.52,1.52,0,0,1-1,.33l-.31,0a.56.56,0,0,0-.36.48.24.24,0,0,0,.13.23.93.93,0,0,0,.43.07h.66a1.48,1.48,0,0,1,.93.26.89.89,0,0,1,.33.74,1.07,1.07,0,0,1-.5.95,2.67,2.67,0,0,1-1.46.33,2,2,0,0,1-1.13-.27.88.88,0,0,1-.4-.77.87.87,0,0,1,.22-.59,1.11,1.11,0,0,1,.62-.34.58.58,0,0,1-.24-.2.53.53,0,0,1-.1-.32.6.6,0,0,1,.11-.36,1.14,1.14,0,0,1,.35-.3,1,1,0,0,1-.47-.41,1.19,1.19,0,0,1-.18-.66,1.21,1.21,0,0,1,.37-.95,1.51,1.51,0,0,1,1-.33,1.89,1.89,0,0,1,.53.07Zm-3,4.38a.51.51,0,0,0,.26.46,1.41,1.41,0,0,0,.73.16A2.05,2.05,0,0,0,92,372a.66.66,0,0,0,.34-.58.46.46,0,0,0-.19-.42,1.47,1.47,0,0,0-.71-.12h-.68a.9.9,0,0,0-.6.19A.66.66,0,0,0,89.91,371.63Zm.31-3.18a.77.77,0,0,0,.22.6.89.89,0,0,0,.62.2.72.72,0,0,0,.83-.81.74.74,0,0,0-.84-.84.83.83,0,0,0-.62.21A.87.87,0,0,0,90.22,368.45Z"/><path class="cls-5" d="M95.25,371.07a1.72,1.72,0,0,1-1.31-.51,2,2,0,0,1-.48-1.4,2.17,2.17,0,0,1,.45-1.44,1.48,1.48,0,0,1,1.2-.53,1.41,1.41,0,0,1,1.11.46,1.78,1.78,0,0,1,.41,1.22v.36H94.05a1.48,1.48,0,0,0,.33,1,1.15,1.15,0,0,0,.89.34,3,3,0,0,0,1.2-.25v.51a3,3,0,0,1-.57.19A3.17,3.17,0,0,1,95.25,371.07Zm-.15-3.41a.93.93,0,0,0-.72.29,1.35,1.35,0,0,0-.32.81h2a1.25,1.25,0,0,0-.24-.82A.84.84,0,0,0,95.1,367.66Z"/><path class="cls-5" d="M99.31,367.19a2.22,2.22,0,0,1,.45,0l-.08.53a1.93,1.93,0,0,0-.41-.05,1,1,0,0,0-.78.37,1.34,1.34,0,0,0-.32.92v2H97.6v-3.75h.47l.06.69h0a1.65,1.65,0,0,1,.5-.56A1.13,1.13,0,0,1,99.31,367.19Z"/><path class="cls-5" d="M102.87,370a.94.94,0,0,1-.39.81,1.84,1.84,0,0,1-1.09.28,2.37,2.37,0,0,1-1.16-.24v-.53a2.85,2.85,0,0,0,.58.21,2.4,2.4,0,0,0,.6.08,1.35,1.35,0,0,0,.68-.14.49.49,0,0,0,0-.81,3,3,0,0,0-.74-.37,4,4,0,0,1-.74-.34,1,1,0,0,1-.33-.33.87.87,0,0,1-.11-.44.84.84,0,0,1,.37-.72,1.73,1.73,0,0,1,1-.26,3,3,0,0,1,1.18.25l-.2.46a2.73,2.73,0,0,0-1-.23,1.18,1.18,0,0,0-.61.13.39.39,0,0,0-.21.35.42.42,0,0,0,.08.26.75.75,0,0,0,.25.2,5.6,5.6,0,0,0,.66.28,2.45,2.45,0,0,1,.9.49A.86.86,0,0,1,102.87,370Z"/><path class="cls-5" d="M105.57,366.24a.38.38,0,0,1,.1-.29.36.36,0,0,1,.48,0,.37.37,0,0,1,.1.28.38.38,0,0,1-.1.29.35.35,0,0,1-.48,0A.38.38,0,0,1,105.57,366.24Zm.62,4.76h-.57v-3.75h.57Z"/><path class="cls-5" d="M109.95,371v-2.42a1,1,0,0,0-.21-.68.85.85,0,0,0-.65-.22,1.08,1.08,0,0,0-.86.32,1.61,1.61,0,0,0-.27,1v2h-.57v-3.75h.46l.09.51h0a1.16,1.16,0,0,1,.49-.43,1.59,1.59,0,0,1,.7-.15,1.42,1.42,0,0,1,1,.33,1.39,1.39,0,0,1,.34,1V371Z"/><path class="cls-5" d="M115.24,371.07a1.62,1.62,0,0,1-.67-.13,1.25,1.25,0,0,1-.51-.42h0a5,5,0,0,1,0,.62v1.54h-.57v-5.43H114l.08.51h0a1.31,1.31,0,0,1,.51-.44,1.55,1.55,0,0,1,.67-.14,1.39,1.39,0,0,1,1.15.51,2.71,2.71,0,0,1,0,2.86A1.39,1.39,0,0,1,115.24,371.07Zm-.08-3.4a1,1,0,0,0-.83.32,1.63,1.63,0,0,0-.26,1v.13a1.87,1.87,0,0,0,.26,1.13,1,1,0,0,0,.84.34.88.88,0,0,0,.76-.39,1.86,1.86,0,0,0,.27-1.08,1.79,1.79,0,0,0-.27-1.08A.9.9,0,0,0,115.16,367.67Z"/><path class="cls-5" d="M121,369.12a2.07,2.07,0,0,1-.46,1.43,1.63,1.63,0,0,1-1.27.51,1.68,1.68,0,0,1-.89-.24,1.55,1.55,0,0,1-.6-.68,2.37,2.37,0,0,1-.21-1,2.06,2.06,0,0,1,.46-1.43,1.62,1.62,0,0,1,1.27-.51,1.58,1.58,0,0,1,1.25.52A2.06,2.06,0,0,1,121,369.12Zm-2.85,0a1.78,1.78,0,0,0,.29,1.09,1.14,1.14,0,0,0,1.69,0,1.77,1.77,0,0,0,.29-1.1,1.74,1.74,0,0,0-.29-1.08,1,1,0,0,0-.85-.37,1,1,0,0,0-.84.37A1.76,1.76,0,0,0,118.17,369.12Z"/><path class="cls-5" d="M122,366.24a.38.38,0,0,1,.1-.29.36.36,0,0,1,.48,0,.37.37,0,0,1,.1.28.38.38,0,0,1-.1.29.35.35,0,0,1-.48,0A.38.38,0,0,1,122,366.24Zm.62,4.76H122v-3.75h.57Z"/><path class="cls-5" d="M126.35,371v-2.42a1,1,0,0,0-.21-.68.85.85,0,0,0-.65-.22,1.08,1.08,0,0,0-.86.32,1.61,1.61,0,0,0-.27,1v2h-.57v-3.75h.46l.09.51h0a1.16,1.16,0,0,1,.49-.43,1.59,1.59,0,0,1,.7-.15,1.42,1.42,0,0,1,1,.33,1.39,1.39,0,0,1,.34,1V371Z"/><path class="cls-5" d="M129.29,370.6l.29,0,.22,0V371a1.06,1.06,0,0,1-.27.07l-.32,0q-1.09,0-1.09-1.14V367.7h-.54v-.27l.54-.24.24-.8h.33v.87h1.09v.44h-1.09v2.2a.76.76,0,0,0,.16.52A.56.56,0,0,0,129.29,370.6Z"/><path class="cls-5" d="M133,370a.94.94,0,0,1-.39.81,1.84,1.84,0,0,1-1.09.28,2.37,2.37,0,0,1-1.16-.24v-.53a2.85,2.85,0,0,0,.58.21,2.4,2.4,0,0,0,.6.08,1.35,1.35,0,0,0,.68-.14.49.49,0,0,0,0-.81,3,3,0,0,0-.74-.37,4,4,0,0,1-.74-.34,1,1,0,0,1-.33-.33.87.87,0,0,1-.11-.44.84.84,0,0,1,.37-.72,1.73,1.73,0,0,1,1-.26,3,3,0,0,1,1.18.25l-.2.46a2.73,2.73,0,0,0-1-.23,1.18,1.18,0,0,0-.61.13.39.39,0,0,0-.21.35.42.42,0,0,0,.08.26.75.75,0,0,0,.25.2,5.6,5.6,0,0,0,.66.28,2.45,2.45,0,0,1,.9.49A.86.86,0,0,1,133,370Z"/><path class="cls-5" d="M135.39,369.08a5.31,5.31,0,0,1,.26-1.7,4.23,4.23,0,0,1,.76-1.38H137a4.81,4.81,0,0,0-.74,1.45,5.38,5.38,0,0,0-.25,1.62,5.18,5.18,0,0,0,.25,1.6,5,5,0,0,0,.73,1.43h-.55a4,4,0,0,1-.77-1.36A5.16,5.16,0,0,1,135.39,369.08Z"/><path class="cls-5" d="M140,366.45a1.63,1.63,0,0,0-1.3.55,2.21,2.21,0,0,0-.48,1.5,2.26,2.26,0,0,0,.46,1.52,1.64,1.64,0,0,0,1.31.54,4.49,4.49,0,0,0,1.19-.19v.51a3.65,3.65,0,0,1-1.28.2,2.17,2.17,0,0,1-1.7-.67,2.76,2.76,0,0,1-.6-1.9,3,3,0,0,1,.29-1.35,2.07,2.07,0,0,1,.83-.89,2.52,2.52,0,0,1,1.28-.31,3.1,3.1,0,0,1,1.37.29l-.25.5A2.65,2.65,0,0,0,140,366.45Z"/><path class="cls-5" d="M145.1,369.67a1.23,1.23,0,0,1-.48,1,2.07,2.07,0,0,1-1.3.37,3.26,3.26,0,0,1-1.37-.23v-.56a3.7,3.7,0,0,0,.67.21,3.55,3.55,0,0,0,.72.07,1.45,1.45,0,0,0,.88-.22.73.73,0,0,0,.29-.61.78.78,0,0,0-.1-.42,1,1,0,0,0-.35-.31,4.79,4.79,0,0,0-.74-.32,2.36,2.36,0,0,1-1-.59,1.3,1.3,0,0,1-.3-.89,1.11,1.11,0,0,1,.43-.92,1.8,1.8,0,0,1,1.15-.34,3.38,3.38,0,0,1,1.37.27l-.18.51a3.09,3.09,0,0,0-1.2-.26,1.17,1.17,0,0,0-.72.2.66.66,0,0,0-.26.55.84.84,0,0,0,.1.43.9.9,0,0,0,.32.3,4,4,0,0,0,.7.31,2.76,2.76,0,0,1,1.08.6A1.18,1.18,0,0,1,145.1,369.67Z"/><path class="cls-5" d="M148.95,369.67a1.23,1.23,0,0,1-.48,1,2.07,2.07,0,0,1-1.3.37,3.26,3.26,0,0,1-1.37-.23v-.56a3.7,3.7,0,0,0,.67.21,3.55,3.55,0,0,0,.72.07,1.45,1.45,0,0,0,.88-.22.73.73,0,0,0,.29-.61.78.78,0,0,0-.1-.42,1,1,0,0,0-.35-.31,4.79,4.79,0,0,0-.74-.32,2.36,2.36,0,0,1-1-.59,1.3,1.3,0,0,1-.3-.89,1.11,1.11,0,0,1,.43-.92,1.8,1.8,0,0,1,1.15-.34,3.38,3.38,0,0,1,1.37.27l-.18.51a3.09,3.09,0,0,0-1.2-.26,1.17,1.17,0,0,0-.72.2.66.66,0,0,0-.26.55.84.84,0,0,0,.1.43.9.9,0,0,0,.32.3,4,4,0,0,0,.7.31,2.76,2.76,0,0,1,1.08.6A1.18,1.18,0,0,1,148.95,369.67Z"/><path class="cls-5" d="M151.07,369.08a5.17,5.17,0,0,1-.26,1.68,4,4,0,0,1-.76,1.35h-.55a4.92,4.92,0,0,0,.73-1.43,5.2,5.2,0,0,0,.25-1.6,5.38,5.38,0,0,0-.25-1.62,4.81,4.81,0,0,0-.74-1.45H150a4.19,4.19,0,0,1,.77,1.39A5.32,5.32,0,0,1,151.07,369.08Z"/><path class="cls-5" d="M151.87,367.62c0-.31.13-.46.4-.46s.42.15.42.46a.48.48,0,0,1-.11.34.4.4,0,0,1-.31.12A.41.41,0,0,1,152,368,.47.47,0,0,1,151.87,367.62Zm0,3a.51.51,0,0,1,.1-.35.38.38,0,0,1,.3-.12.4.4,0,0,1,.31.12.49.49,0,0,1,.11.35.48.48,0,0,1-.11.34.45.45,0,0,1-.6,0A.47.47,0,0,1,151.87,370.64Z"/><path class="cls-5" d="M28.35,383l2.07-4.47H27.69V378H31v.45L29,383Z"/><path class="cls-5" d="M33.28,379.95a1.84,1.84,0,0,1,1.24.39,1.34,1.34,0,0,1,.45,1.07,1.55,1.55,0,0,1-.49,1.22,2,2,0,0,1-1.36.44,2.51,2.51,0,0,1-1.29-.27v-.55a2,2,0,0,0,.59.24,2.91,2.91,0,0,0,.7.09,1.4,1.4,0,0,0,.93-.28,1,1,0,0,0,.33-.82q0-1-1.28-1a5.08,5.08,0,0,0-.87.1l-.29-.19.19-2.34h2.48v.52h-2L32.5,380A4,4,0,0,1,33.28,379.95Z"/><path class="cls-5" d="M39,380.49a3.65,3.65,0,0,1-.41,1.94,1.51,1.51,0,0,1-2.48,0,3.58,3.58,0,0,1-.42-1.92,3.65,3.65,0,0,1,.41-1.94,1.51,1.51,0,0,1,2.48,0A3.56,3.56,0,0,1,39,380.49Zm-2.73,0a3.66,3.66,0,0,0,.26,1.59.92.92,0,0,0,1.64,0,5,5,0,0,0,0-3.16.92.92,0,0,0-1.64,0A3.63,3.63,0,0,0,36.3,380.49Z"/><path class="cls-5" d="M43.12,383.07a1.62,1.62,0,0,1-.67-.13,1.25,1.25,0,0,1-.51-.42h0a5,5,0,0,1,0,.62v1.54h-.57v-5.43h.46l.08.51h0a1.31,1.31,0,0,1,.51-.44,1.55,1.55,0,0,1,.67-.14,1.39,1.39,0,0,1,1.15.51,2.71,2.71,0,0,1,0,2.86A1.39,1.39,0,0,1,43.12,383.07Zm-.08-3.4a1,1,0,0,0-.83.32,1.63,1.63,0,0,0-.26,1v.13a1.87,1.87,0,0,0,.26,1.13,1,1,0,0,0,.84.34.88.88,0,0,0,.76-.39,1.86,1.86,0,0,0,.27-1.08,1.79,1.79,0,0,0-.27-1.08A.9.9,0,0,0,43,379.67Z"/><path class="cls-5" d="M46.57,381.08l-1.3-1.83h.65l1,1.44,1-1.44h.64l-1.3,1.83L48.6,383H48l-1-1.52L45.85,383H45.2Z"/><path class="cls-5" d="M50.91,380.77v-.47H54.2v.47Zm1.25-1.43a.43.43,0,0,1,.1-.31.38.38,0,0,1,.29-.1.36.36,0,0,1,.28.11.52.52,0,0,1,0,.61.36.36,0,0,1-.28.11.38.38,0,0,1-.28-.11A.42.42,0,0,1,52.17,379.34Zm0,2.38a.43.43,0,0,1,.1-.31.38.38,0,0,1,.29-.1.36.36,0,0,1,.28.11.52.52,0,0,1,0,.61.36.36,0,0,1-.28.11.38.38,0,0,1-.28-.11A.42.42,0,0,1,52.17,381.72Z"/><path class="cls-5" d="M60,383H56.72v-.49L58,381.19a9.69,9.69,0,0,0,.79-.87,2.22,2.22,0,0,0,.29-.51,1.45,1.45,0,0,0,.1-.53.84.84,0,0,0-.24-.63.93.93,0,0,0-.67-.23,1.69,1.69,0,0,0-.59.1,2.35,2.35,0,0,0-.62.37l-.3-.39a2.3,2.3,0,0,1,1.5-.57,1.59,1.59,0,0,1,1.1.36,1.24,1.24,0,0,1,.4,1,1.88,1.88,0,0,1-.27.94,6,6,0,0,1-1,1.18l-1.09,1.07v0H60Z"/><path class="cls-5" d="M64.93,382.5h0a1.33,1.33,0,0,1-1.18.57,1.39,1.39,0,0,1-1.14-.5,2.21,2.21,0,0,1-.41-1.43,2.25,2.25,0,0,1,.41-1.44,1.38,1.38,0,0,1,1.14-.51,1.36,1.36,0,0,1,1.17.55h0l0-.27v-1.79h.57V383H65Zm-1.13.1a1,1,0,0,0,.84-.32,1.6,1.6,0,0,0,.26-1v-.12a1.88,1.88,0,0,0-.27-1.14,1,1,0,0,0-.85-.34A.87.87,0,0,0,63,380a1.93,1.93,0,0,0-.27,1.1,1.85,1.85,0,0,0,.26,1.08A.89.89,0,0,0,63.8,382.59Z"/><path class="cls-5" d="M68.41,383.07a1.62,1.62,0,0,1-.67-.13,1.25,1.25,0,0,1-.51-.42h0a5,5,0,0,1,0,.62v1.54h-.57v-5.43h.46l.08.51h0a1.31,1.31,0,0,1,.51-.44,1.55,1.55,0,0,1,.67-.14,1.39,1.39,0,0,1,1.15.51,2.71,2.71,0,0,1,0,2.86A1.39,1.39,0,0,1,68.41,383.07Zm-.08-3.4a1,1,0,0,0-.83.32,1.63,1.63,0,0,0-.26,1v.13a1.87,1.87,0,0,0,.26,1.13,1,1,0,0,0,.84.34.88.88,0,0,0,.76-.39,1.86,1.86,0,0,0,.27-1.08,1.79,1.79,0,0,0-.27-1.08A.9.9,0,0,0,68.33,379.67Z"/><path class="cls-5" d="M72.7,383.07a1.62,1.62,0,0,1-.67-.13,1.25,1.25,0,0,1-.51-.42h0a5,5,0,0,1,0,.62v1.54H71v-5.43h.46l.08.51h0a1.31,1.31,0,0,1,.51-.44,1.55,1.55,0,0,1,.67-.14,1.39,1.39,0,0,1,1.15.51,2.71,2.71,0,0,1,0,2.86A1.39,1.39,0,0,1,72.7,383.07Zm-.08-3.4a1,1,0,0,0-.83.32,1.63,1.63,0,0,0-.26,1v.13a1.87,1.87,0,0,0,.26,1.13,1,1,0,0,0,.84.34.88.88,0,0,0,.76-.39,1.86,1.86,0,0,0,.27-1.08,1.79,1.79,0,0,0-.27-1.08A.9.9,0,0,0,72.62,379.67Z"/><path class="cls-5" d="M76.15,381.08l-1.3-1.83h.65l1,1.44,1-1.44h.64l-1.3,1.83L78.17,383h-.64l-1-1.52L75.42,383h-.64Z"/><path class="cls-5" d="M80.49,380.77v-.47h3.28v.47Zm1.25-1.43a.43.43,0,0,1,.1-.31.38.38,0,0,1,.29-.1.36.36,0,0,1,.28.11.52.52,0,0,1,0,.61.36.36,0,0,1-.28.11.38.38,0,0,1-.28-.11A.42.42,0,0,1,81.74,379.34Zm0,2.38a.43.43,0,0,1,.1-.31.38.38,0,0,1,.29-.1.36.36,0,0,1,.28.11.52.52,0,0,1,0,.61.36.36,0,0,1-.28.11.38.38,0,0,1-.28-.11A.42.42,0,0,1,81.74,381.72Z"/><path class="cls-5" d="M87.86,379.95a1.84,1.84,0,0,1,1.24.39,1.34,1.34,0,0,1,.45,1.07,1.55,1.55,0,0,1-.49,1.22,2,2,0,0,1-1.36.44,2.51,2.51,0,0,1-1.29-.27v-.55a2,2,0,0,0,.59.24,2.91,2.91,0,0,0,.7.09,1.4,1.4,0,0,0,.93-.28,1,1,0,0,0,.33-.82q0-1-1.28-1a5.08,5.08,0,0,0-.87.1l-.29-.19.19-2.34H89.2v.52h-2l-.13,1.5A4,4,0,0,1,87.86,379.95Z"/><path class="cls-5" d="M92,377.93a1.69,1.69,0,0,1,1.08.32,1.06,1.06,0,0,1,.4.88,1.09,1.09,0,0,1-.23.67,2,2,0,0,1-.73.55,2.46,2.46,0,0,1,.86.61,1.15,1.15,0,0,1,.26.74,1.24,1.24,0,0,1-.43,1,1.77,1.77,0,0,1-1.19.37,1.91,1.91,0,0,1-1.23-.35,1.21,1.21,0,0,1-.43-1,1.48,1.48,0,0,1,1-1.34,1.93,1.93,0,0,1-.68-.58,1.22,1.22,0,0,1-.21-.69,1.06,1.06,0,0,1,.4-.87A1.67,1.67,0,0,1,92,377.93Zm-1.08,3.81a.77.77,0,0,0,.29.64,1.25,1.25,0,0,0,.8.23,1.19,1.19,0,0,0,.79-.24.81.81,0,0,0,.28-.66.8.8,0,0,0-.27-.59,2.73,2.73,0,0,0-.93-.5,2,2,0,0,0-.74.48A.94.94,0,0,0,90.87,381.74Zm1.07-3.35a1,1,0,0,0-.67.21.68.68,0,0,0-.24.55.78.78,0,0,0,.2.54,2.1,2.1,0,0,0,.75.45,1.88,1.88,0,0,0,.69-.44.82.82,0,0,0,.2-.55.67.67,0,0,0-.25-.55A1,1,0,0,0,91.95,378.39Z"/><path class="cls-5" d="M100.74,383v-2.44a1,1,0,0,0-.19-.67.74.74,0,0,0-.59-.22,1,1,0,0,0-.78.3,1.45,1.45,0,0,0-.25.94V383h-.57v-2.44a1,1,0,0,0-.19-.67.74.74,0,0,0-.6-.22.93.93,0,0,0-.78.32,1.73,1.73,0,0,0-.25,1v2H96v-3.75h.46l.09.51h0a1.1,1.1,0,0,1,.45-.43,1.37,1.37,0,0,1,.65-.15,1.11,1.11,0,0,1,1.15.64h0a1.2,1.2,0,0,1,.49-.46,1.5,1.5,0,0,1,.72-.17,1.27,1.27,0,0,1,1,.33,1.46,1.46,0,0,1,.32,1V383Z"/><path class="cls-5" d="M107.25,383v-2.44a1,1,0,0,0-.19-.67.74.74,0,0,0-.59-.22,1,1,0,0,0-.78.3,1.45,1.45,0,0,0-.25.94V383h-.57v-2.44a1,1,0,0,0-.19-.67.74.74,0,0,0-.6-.22.93.93,0,0,0-.78.32,1.73,1.73,0,0,0-.25,1v2h-.57v-3.75h.46l.09.51h0a1.1,1.1,0,0,1,.45-.43,1.37,1.37,0,0,1,.65-.15,1.11,1.11,0,0,1,1.15.64h0a1.2,1.2,0,0,1,.49-.46,1.5,1.5,0,0,1,.72-.17,1.27,1.27,0,0,1,1,.33,1.46,1.46,0,0,1,.32,1V383Z"/><path class="cls-5" d="M113.41,379l.33.34-1.2,1.21,1.2,1.2-.33.34-1.21-1.2-1.19,1.2-.35-.34,1.2-1.2-1.2-1.2L111,379l1.21,1.21Z"/><path class="cls-5" d="M118.46,383h-.55v-3.56q0-.44,0-.84l-.16.15-.81.67-.3-.39,1.32-1h.48Z"/><path class="cls-5" d="M120.42,380.86a3.53,3.53,0,0,1,.57-2.2,2,2,0,0,1,1.69-.73,2.27,2.27,0,0,1,.61.06v.49a2,2,0,0,0-.6-.08,1.52,1.52,0,0,0-1.23.5,2.57,2.57,0,0,0-.46,1.57h0a1.31,1.31,0,0,1,1.19-.59,1.39,1.39,0,0,1,1.06.41,1.53,1.53,0,0,1,.39,1.1,1.7,1.7,0,0,1-.43,1.23,1.51,1.51,0,0,1-1.15.45,1.48,1.48,0,0,1-1.23-.58A2.58,2.58,0,0,1,120.42,380.86Zm1.68,1.72a1,1,0,0,0,.75-.31,1.3,1.3,0,0,0,.27-.88,1.14,1.14,0,0,0-.25-.78.94.94,0,0,0-.75-.28,1.25,1.25,0,0,0-.56.13,1,1,0,0,0-.41.35.81.81,0,0,0-.15.46,1.58,1.58,0,0,0,.14.66,1.15,1.15,0,0,0,.39.48A1,1,0,0,0,122.1,382.58Z"/><path class="cls-5" d="M130.8,383v-2.44a1,1,0,0,0-.19-.67.74.74,0,0,0-.59-.22,1,1,0,0,0-.78.3,1.45,1.45,0,0,0-.25.94V383h-.57v-2.44a1,1,0,0,0-.19-.67.74.74,0,0,0-.6-.22.93.93,0,0,0-.78.32,1.73,1.73,0,0,0-.25,1v2H126v-3.75h.46l.09.51h0a1.1,1.1,0,0,1,.45-.43,1.37,1.37,0,0,1,.65-.15,1.11,1.11,0,0,1,1.15.64h0a1.2,1.2,0,0,1,.49-.46,1.5,1.5,0,0,1,.72-.17,1.27,1.27,0,0,1,1,.33,1.46,1.46,0,0,1,.32,1V383Z"/><path class="cls-5" d="M137.31,383v-2.44a1,1,0,0,0-.19-.67.74.74,0,0,0-.59-.22,1,1,0,0,0-.78.3,1.45,1.45,0,0,0-.25.94V383h-.57v-2.44a1,1,0,0,0-.19-.67.74.74,0,0,0-.6-.22.93.93,0,0,0-.78.32,1.73,1.73,0,0,0-.25,1v2h-.57v-3.75H133l.09.51h0a1.1,1.1,0,0,1,.45-.43,1.37,1.37,0,0,1,.65-.15,1.11,1.11,0,0,1,1.15.64h0a1.2,1.2,0,0,1,.49-.46,1.5,1.5,0,0,1,.72-.17,1.27,1.27,0,0,1,1,.33,1.46,1.46,0,0,1,.32,1V383Z"/><path class="cls-5" d="M140.67,380.07v-.47h3.18v.47Zm0,1.4V381h3.18v.47Z"/><path class="cls-5" d="M148.53,383H148v-3.56q0-.44,0-.84l-.16.15-.81.67-.3-.39,1.32-1h.48Z"/><path class="cls-5" d="M153.74,380.49a3.65,3.65,0,0,1-.41,1.94,1.51,1.51,0,0,1-2.48,0,3.58,3.58,0,0,1-.42-1.92,3.65,3.65,0,0,1,.41-1.94,1.51,1.51,0,0,1,2.48,0A3.56,3.56,0,0,1,153.74,380.49Zm-2.73,0a3.66,3.66,0,0,0,.26,1.59.92.92,0,0,0,1.64,0,5,5,0,0,0,0-3.16.92.92,0,0,0-1.64,0A3.63,3.63,0,0,0,151,380.49Z"/><path class="cls-5" d="M157.53,379.18a1.14,1.14,0,0,1-.27.78,1.34,1.34,0,0,1-.76.41v0a1.43,1.43,0,0,1,.89.38,1.13,1.13,0,0,1,.29.81,1.31,1.31,0,0,1-.5,1.1,2.25,2.25,0,0,1-1.41.38,4.07,4.07,0,0,1-.73-.06,2.52,2.52,0,0,1-.64-.21v-.54a3.09,3.09,0,0,0,.69.25,3.14,3.14,0,0,0,.7.08q1.3,0,1.3-1t-1.43-.91h-.49v-.49h.5a1.5,1.5,0,0,0,.93-.26.85.85,0,0,0,.34-.72.71.71,0,0,0-.25-.57,1,1,0,0,0-.68-.21,2.09,2.09,0,0,0-.62.09,2.72,2.72,0,0,0-.66.33l-.29-.38a2.4,2.4,0,0,1,.71-.38,2.59,2.59,0,0,1,.85-.14,1.73,1.73,0,0,1,1.13.33A1.12,1.12,0,0,1,157.53,379.18Z"/><path class="cls-5" d="M161.84,383.07a1.62,1.62,0,0,1-.67-.13,1.25,1.25,0,0,1-.51-.42h0a5,5,0,0,1,0,.62v1.54h-.57v-5.43h.46l.08.51h0a1.31,1.31,0,0,1,.51-.44,1.55,1.55,0,0,1,.67-.14,1.39,1.39,0,0,1,1.15.51,2.71,2.71,0,0,1,0,2.86A1.39,1.39,0,0,1,161.84,383.07Zm-.08-3.4a1,1,0,0,0-.83.32,1.63,1.63,0,0,0-.26,1v.13a1.87,1.87,0,0,0,.26,1.13,1,1,0,0,0,.84.34.88.88,0,0,0,.76-.39,1.86,1.86,0,0,0,.27-1.08,1.79,1.79,0,0,0-.27-1.08A.9.9,0,0,0,161.76,379.67Z"/><path class="cls-5" d="M165.29,381.08l-1.3-1.83h.65l1,1.44,1-1.44h.64l-1.3,1.83,1.37,1.92h-.64l-1-1.52L164.56,383h-.64Z"/><line class="cls-6" x1="108.24" y1="230.12" x2="108.24" y2="335.07"/><path class="cls-7" d="M108.24,335.52h0m0-106.3h0"/><line class="cls-6" x1="153.29" y1="230.12" x2="153.29" y2="335.07"/><path class="cls-7" d="M153.29,335.52h0m0-106.3h0"/></svg>