<svg id="Ebene_1" data-name="Ebene 1" xmlns="http://www.w3.org/2000/svg" viewBox="0 0 85.19 24.66"><defs><style>.cls-1{fill:#20201e;}</style></defs><title>cc-by</title><path class="cls-1" d="M19,5.36a9.49,9.49,0,0,1,2.87,7A9.14,9.14,0,0,1,19,19.21a9.64,9.64,0,0,1-7,2.94,9.48,9.48,0,0,1-6.94-2.91,9.43,9.43,0,0,1-2.91-6.9,9.66,9.66,0,0,1,2.94-7A9.34,9.34,0,0,1,12,2.49,9.46,9.46,0,0,1,19,5.36M3.54,3.79A11.77,11.77,0,0,0,0,12.33a11.55,11.55,0,0,0,3.54,8.47A11.62,11.62,0,0,0,12,24.33a11.86,11.86,0,0,0,8.59-3.58A11.31,11.31,0,0,0,24,12.33a11.61,11.61,0,0,0-3.49-8.53A11.6,11.6,0,0,0,12,.32,11.5,11.5,0,0,0,3.54,3.79M12,7.93a1.48,1.48,0,0,0,1.67-1.67A1.49,1.49,0,0,0,12,4.57a1.49,1.49,0,0,0-1.67,1.69A1.48,1.48,0,0,0,12,7.93m3,.87a.76.76,0,0,0-.54-.22H9.54a.77.77,0,0,0-.77.77v4.91h1.37v5.83h3.73V14.25h1.37V9.35A.73.73,0,0,0,15,8.8"/></svg>