<svg id="Ebene_1" data-name="Ebene 1" xmlns="http://www.w3.org/2000/svg" viewBox="0 0 85.19 24.36"><defs><style>.cls-1{fill:#20201e;}</style></defs><title>cc-by-nc-sa</title><path class="cls-1" d="M66.91,10.51l2.38,2.38,2.38-2.38h-.88q.3-2.12,2.7-2.12a2.34,2.34,0,0,1,2,1,5,5,0,0,1,.71,2.9,5,5,0,0,1-.77,2.91,2.38,2.38,0,0,1-2,1.09q-2.53,0-2.64-2.19h-3a5.19,5.19,0,0,0,1.78,3.47,5.35,5.35,0,0,0,3.51,1.22A5.92,5.92,0,0,0,77.56,17a6.42,6.42,0,0,0,1.74-4.6A6.64,6.64,0,0,0,77.62,7.7a5.81,5.81,0,0,0-4.5-1.82,5.24,5.24,0,0,0-3.49,1.21,5.36,5.36,0,0,0-1.78,3.42ZM80.15,5.26A9.37,9.37,0,0,1,83,12.2a9.18,9.18,0,0,1-2.83,6.88,9.63,9.63,0,0,1-7,2.94,9.48,9.48,0,0,1-6.94-2.92,9.39,9.39,0,0,1-2.91-6.9,9.58,9.58,0,0,1,2.94-6.94,9.75,9.75,0,0,1,13.86,0M64.72,3.69a11.74,11.74,0,0,0-3.54,8.51,11.55,11.55,0,0,0,3.54,8.46,11.61,11.61,0,0,0,8.44,3.54,11.84,11.84,0,0,0,8.59-3.56,11.42,11.42,0,0,0,3.43-8.44,11.54,11.54,0,0,0-3.49-8.51,12.05,12.05,0,0,0-17,0M50.13,5.19a9.4,9.4,0,0,1,2.87,7,11.11,11.11,0,0,1-.3,2.57L46.56,12l-1.93-.86-1-.47L42.06,10a.51.51,0,0,1-.11-.3.75.75,0,0,1,.44-.73,2.26,2.26,0,0,1,1-.21,3.55,3.55,0,0,1,2.06.71L47,7.83a5.29,5.29,0,0,0-3-1.11V4.87H42.61V6.71a3.79,3.79,0,0,0-1.95.63,2.82,2.82,0,0,0-1.14,1.51L34.94,6.8a11.63,11.63,0,0,1,1.33-1.61,9.75,9.75,0,0,1,13.86,0M40,11.66l1.91.83,1.41.64,1.16.49a.92.92,0,0,1,.32.73,1,1,0,0,1-.44.92,1.94,1.94,0,0,1-1.06.28,3.83,3.83,0,0,1-2.68-1.09L39,16.14a5.57,5.57,0,0,0,3.64,1.44v1.84H44V17.58a4,4,0,0,0,2.15-.83,3.09,3.09,0,0,0,1.15-1.85l4.52,2A8.84,8.84,0,0,1,50.18,19a9.78,9.78,0,0,1-13.93,0,9.43,9.43,0,0,1-2.91-6.9,9.44,9.44,0,0,1,.54-3.24Zm-5.29-8a11.76,11.76,0,0,0-3.54,8.53,11.52,11.52,0,0,0,3.54,8.44,11.53,11.53,0,0,0,8.44,3.56,11.86,11.86,0,0,0,8.59-3.58,11.32,11.32,0,0,0,3.43-8.42,11.56,11.56,0,0,0-3.49-8.53A11.59,11.59,0,0,0,43.15.16a11.49,11.49,0,0,0-8.44,3.47"/><path class="cls-1" d="M19,5.21a9.49,9.49,0,0,1,2.87,7A9.14,9.14,0,0,1,19,19.06,9.64,9.64,0,0,1,12,22a9.48,9.48,0,0,1-6.94-2.92,9.43,9.43,0,0,1-2.91-6.9,9.66,9.66,0,0,1,2.94-7A9.34,9.34,0,0,1,12,2.34,9.46,9.46,0,0,1,19,5.21M3.54,3.65A11.77,11.77,0,0,0,0,12.18a11.55,11.55,0,0,0,3.54,8.47A11.62,11.62,0,0,0,12,24.18a11.86,11.86,0,0,0,8.59-3.58A11.32,11.32,0,0,0,24,12.18a11.61,11.61,0,0,0-3.49-8.53A11.6,11.6,0,0,0,12,.18,11.5,11.5,0,0,0,3.54,3.65M12,7.79a1.48,1.48,0,0,0,1.67-1.67A1.49,1.49,0,0,0,12,4.42a1.49,1.49,0,0,0-1.67,1.69A1.48,1.48,0,0,0,12,7.79m3,.87a.76.76,0,0,0-.54-.22H9.54a.77.77,0,0,0-.77.77v4.91h1.37v5.83h3.73V14.11h1.37V9.2A.73.73,0,0,0,15,8.65"/></svg>