<svg id="Ebene_1" data-name="Ebene 1" xmlns="http://www.w3.org/2000/svg" viewBox="0 0 85.19 24.48"><defs><style>.cls-1{fill:#20201e;}</style></defs><title>cc-by-nc-nd</title><path class="cls-1" d="M69,15.54h8.72V13.48H69Zm0-3.86h8.72V9.63H69ZM80.15,5.51A9.37,9.37,0,0,1,83,12.45a9.18,9.18,0,0,1-2.83,6.88,9.63,9.63,0,0,1-7,2.94,9.48,9.48,0,0,1-6.94-2.92,9.39,9.39,0,0,1-2.91-6.9,9.59,9.59,0,0,1,2.94-6.94,9.75,9.75,0,0,1,13.86,0M64.72,3.95a11.73,11.73,0,0,0-3.54,8.51,11.55,11.55,0,0,0,3.54,8.46,11.61,11.61,0,0,0,8.44,3.54,11.84,11.84,0,0,0,8.59-3.56,11.43,11.43,0,0,0,3.43-8.44,11.54,11.54,0,0,0-3.49-8.51,12.05,12.05,0,0,0-17,0M50.13,5.45a9.4,9.4,0,0,1,2.87,7A11.11,11.11,0,0,1,52.7,15l-6.15-2.74-1.93-.86-1-.47-1.52-.69a.51.51,0,0,1-.11-.3.75.75,0,0,1,.44-.73,2.25,2.25,0,0,1,1-.21,3.55,3.55,0,0,1,2.06.71L47,8.08A5.31,5.31,0,0,0,44,7V5.13H42.61V7a3.79,3.79,0,0,0-1.95.63,2.82,2.82,0,0,0-1.14,1.51L34.94,7.05a11.56,11.56,0,0,1,1.33-1.61,9.75,9.75,0,0,1,13.86,0M40,11.92l1.91.83,1.41.64,1.16.49a.92.92,0,0,1,.32.73,1,1,0,0,1-.44.92,1.94,1.94,0,0,1-1.06.28,3.84,3.84,0,0,1-2.68-1.09L39,16.4a5.57,5.57,0,0,0,3.64,1.44v1.84H44V17.83A3.94,3.94,0,0,0,46.16,17a3.09,3.09,0,0,0,1.15-1.85l4.52,2a8.84,8.84,0,0,1-1.65,2.1,9.78,9.78,0,0,1-13.93,0,9.43,9.43,0,0,1-2.91-6.9,9.44,9.44,0,0,1,.54-3.24Zm-5.29-8a11.76,11.76,0,0,0-3.54,8.53,11.52,11.52,0,0,0,3.54,8.44,11.53,11.53,0,0,0,8.44,3.56,11.86,11.86,0,0,0,8.59-3.58,11.32,11.32,0,0,0,3.43-8.42,11.56,11.56,0,0,0-3.49-8.53A11.6,11.6,0,0,0,43.15.41a11.49,11.49,0,0,0-8.44,3.47"/><path class="cls-1" d="M19,5.47a9.48,9.48,0,0,1,2.87,7A9.14,9.14,0,0,1,19,19.31a9.64,9.64,0,0,1-7,2.94,9.48,9.48,0,0,1-6.94-2.92,9.43,9.43,0,0,1-2.91-6.9,9.66,9.66,0,0,1,2.94-7A9.34,9.34,0,0,1,12,2.6,9.46,9.46,0,0,1,19,5.47M3.54,3.9A11.77,11.77,0,0,0,0,12.43,11.55,11.55,0,0,0,3.54,20.9,11.62,11.62,0,0,0,12,24.44a11.86,11.86,0,0,0,8.59-3.58A11.32,11.32,0,0,0,24,12.43,11.61,11.61,0,0,0,20.51,3.9,11.59,11.59,0,0,0,12,.43,11.5,11.5,0,0,0,3.54,3.9M12,8a1.48,1.48,0,0,0,1.67-1.67A1.49,1.49,0,0,0,12,4.67a1.49,1.49,0,0,0-1.67,1.69A1.48,1.48,0,0,0,12,8m3,.87a.76.76,0,0,0-.54-.22H9.54a.77.77,0,0,0-.77.77v4.91h1.37v5.83h3.73V14.36h1.37V9.45A.73.73,0,0,0,15,8.91"/></svg>