<svg id="Ebene_1" data-name="Ebene 1" xmlns="http://www.w3.org/2000/svg" viewBox="0 0 85.19 24.74"><defs><style>.cls-1{fill:#20201e;}</style></defs><title>cc-by-nd</title><path class="cls-1" d="M39,15.5h8.72V13.45H39Zm0-3.86h8.72V9.59H39ZM50.13,5.47A9.37,9.37,0,0,1,53,12.42a9.19,9.19,0,0,1-2.83,6.88,9.63,9.63,0,0,1-7,2.93,9.48,9.48,0,0,1-6.94-2.91,9.38,9.38,0,0,1-2.91-6.9,9.59,9.59,0,0,1,2.93-6.94,9.75,9.75,0,0,1,13.86,0M34.71,3.91a11.74,11.74,0,0,0-3.54,8.51,11.55,11.55,0,0,0,3.54,8.46,11.61,11.61,0,0,0,8.44,3.54,11.85,11.85,0,0,0,8.59-3.56,11.43,11.43,0,0,0,3.43-8.44,11.53,11.53,0,0,0-3.49-8.51,12.05,12.05,0,0,0-17,0"/><path class="cls-1" d="M19,5.45a9.49,9.49,0,0,1,2.87,7A9.14,9.14,0,0,1,19,19.3a9.63,9.63,0,0,1-7,2.94,9.48,9.48,0,0,1-6.94-2.92,9.43,9.43,0,0,1-2.91-6.9,9.66,9.66,0,0,1,2.94-7A9.34,9.34,0,0,1,12,2.58,9.46,9.46,0,0,1,19,5.45M3.54,3.89A11.76,11.76,0,0,0,0,12.42a11.55,11.55,0,0,0,3.54,8.47A11.62,11.62,0,0,0,12,24.42a11.86,11.86,0,0,0,8.59-3.58A11.32,11.32,0,0,0,24,12.42a11.61,11.61,0,0,0-3.49-8.53A11.6,11.6,0,0,0,12,.41,11.5,11.5,0,0,0,3.54,3.89M12,8a1.48,1.48,0,0,0,1.67-1.67A1.49,1.49,0,0,0,12,4.66a1.49,1.49,0,0,0-1.67,1.69A1.48,1.48,0,0,0,12,8m3,.87a.75.75,0,0,0-.54-.22H9.54a.77.77,0,0,0-.77.77v4.91h1.37v5.83h3.73V14.35h1.37V9.44A.73.73,0,0,0,15,8.89"/></svg>