<svg id="Ebene_1" data-name="Ebene 1" xmlns="http://www.w3.org/2000/svg" viewBox="0 0 85.19 24.46"><defs><style>.cls-1{fill:#20201e;}</style></defs><title>cc-by-nc</title><path class="cls-1" d="M50.13,5.26a9.4,9.4,0,0,1,2.87,7,11.12,11.12,0,0,1-.3,2.57l-6.15-2.74-1.93-.86-1-.47L42.06,10a.51.51,0,0,1-.11-.3A.75.75,0,0,1,42.39,9a2.25,2.25,0,0,1,1-.21,3.55,3.55,0,0,1,2.06.71L47,7.9a5.31,5.31,0,0,0-3-1.11V4.94H42.61V6.79a3.79,3.79,0,0,0-1.95.63,2.82,2.82,0,0,0-1.14,1.51L34.94,6.87a11.56,11.56,0,0,1,1.33-1.61,9.75,9.75,0,0,1,13.86,0M40,11.74l1.91.83,1.41.64,1.16.49a.92.92,0,0,1,.32.73,1,1,0,0,1-.44.92,1.94,1.94,0,0,1-1.06.28,3.84,3.84,0,0,1-2.68-1.09L39,16.21a5.57,5.57,0,0,0,3.64,1.44v1.84H44V17.65a3.94,3.94,0,0,0,2.15-.83A3.09,3.09,0,0,0,47.31,15l4.52,2a8.84,8.84,0,0,1-1.65,2.1,9.78,9.78,0,0,1-13.93,0,9.43,9.43,0,0,1-2.91-6.9A9.44,9.44,0,0,1,33.87,9Zm-5.29-8a11.76,11.76,0,0,0-3.54,8.53,11.52,11.52,0,0,0,3.54,8.44,11.53,11.53,0,0,0,8.44,3.56,11.86,11.86,0,0,0,8.59-3.58,11.32,11.32,0,0,0,3.43-8.42A11.56,11.56,0,0,0,51.68,3.7,11.6,11.6,0,0,0,43.15.23,11.49,11.49,0,0,0,34.71,3.7"/><path class="cls-1" d="M19,5.26a9.49,9.49,0,0,1,2.87,7A9.14,9.14,0,0,1,19,19.11,9.64,9.64,0,0,1,12,22a9.48,9.48,0,0,1-6.94-2.92,9.43,9.43,0,0,1-2.91-6.9,9.66,9.66,0,0,1,2.94-7A9.34,9.34,0,0,1,12,2.39,9.46,9.46,0,0,1,19,5.26M3.54,3.7A11.76,11.76,0,0,0,0,12.23,11.55,11.55,0,0,0,3.54,20.7,11.62,11.62,0,0,0,12,24.23a11.86,11.86,0,0,0,8.59-3.58A11.32,11.32,0,0,0,24,12.23,11.61,11.61,0,0,0,20.51,3.7,11.6,11.6,0,0,0,12,.23,11.5,11.5,0,0,0,3.54,3.7M12,7.84a1.48,1.48,0,0,0,1.67-1.67A1.49,1.49,0,0,0,12,4.47a1.49,1.49,0,0,0-1.67,1.69A1.48,1.48,0,0,0,12,7.84m3,.87a.75.75,0,0,0-.54-.23H9.54a.77.77,0,0,0-.77.77v4.91h1.37V20h3.73V14.16h1.37V9.25A.73.73,0,0,0,15,8.7"/></svg>