<svg id="Layer_2" data-name="Layer 2" xmlns="http://www.w3.org/2000/svg" viewBox="0 0 2700 300"><defs><style>.cls-1{fill:#222221;}.cls-2{fill:none;}.cls-3{fill:#585857;}.cls-4{fill:#9c9b9b;}</style></defs><title>homeIcon</title><path id="Shape" class="cls-1" d="M2561.5,164.5v-18l-12-12-12,12v18Z"/><rect id="Rectangle-4" class="cls-2" x="2400" width="300" height="300"/><path id="Shape-2" data-name="Shape" class="cls-1" d="M2250,129l-20,20v20.5h14v-16h12v16h14V149Z"/><rect id="Rectangle-4-copy" class="cls-2" x="2100" width="300" height="300"/><path id="Shape-3" data-name="Shape" class="cls-1" d="M1920,150h7v30h15V157h16v23h15V150h7l-30-30Z"/><rect id="Rectangle-4-copy-2" class="cls-2" x="1800" width="300" height="300"/><path id="Shape-4" data-name="Shape" class="cls-1" d="M1709,148.78,1650,90l-24,22.74V104h-19v29l-16,15.78h16V209h28V169h29v40h27V148.78Z"/><rect id="Rectangle-4-copy-3" class="cls-2" x="1500" width="300" height="300"/><path id="Shape-5" data-name="Shape" class="cls-1" d="M1296,228.17h21v-44h26v44h61v-78H1296v78ZM1364,164h19v21.16h-19Zm59-19.84L1349.49,70,1321,98.17v-11h-20v31l-24,26Z"/><rect id="Rectangle-4-copy-4" class="cls-2" x="1200" width="300" height="300"/><path id="Shape-6" data-name="Shape" class="cls-1" d="M984,240.59h23v-52h30v52h79v-89H984v89Zm77-36v-16h15v16Zm20,0v-16h15v16Zm15-37v16h-15v-16Zm-20,0v16h-15v-16Zm-112-22h172L1050,60l-38,38.59v-15h5v-8H984v8h6v36Z"/><rect id="Rectangle-4-copy-5" class="cls-2" x="900" width="300" height="300"/><g id="Group"><path id="Shape-7" data-name="Shape" class="cls-1" d="M669.5,259.5h21v-5h5v-55h39v55h5v5h94v-106h-164v106Zm120-86h19v20h-19v-20Zm0,26h19v20h-19v-20Zm-25,0h19v20h-19v-20Zm0-26h19v20h-19v-20Zm-5,51h54v5h-54v-5Z"/><path id="Shape-8" data-name="Shape" class="cls-1" d="M640.5,148.5h220L750.78,39.5l-47.28,47v-12h-29v41Z"/><rect id="Rectangle" class="cls-1" x="668.66" y="59.5" width="38.84" height="10"/><path id="Shape-9" data-name="Shape" class="cls-1" d="M702.5,232a2.5,2.5,0,1,1,2.5-2.5,2.82,2.82,0,0,1-2.5,2.5Z"/></g><rect id="Rectangle-4-copy-6" class="cls-2" x="600" width="300" height="300"/><path id="Shape-10" data-name="Shape" class="cls-1" d="M553.38,150.5H570L449.56,30.5l-53.06,53v-15h-31V115L330,150.5h17.62L450.5,47.62Z"/><rect id="Rectangle-2" data-name="Rectangle" class="cls-1" x="359.5" y="53.5" width="42" height="11"/><path id="Shape-11" data-name="Shape" class="cls-3" d="M438.23,233.5a2.73,2.73,0,1,0,2.73,2.73,3.07,3.07,0,0,0-2.73-2.73Z"/><path id="Shape-12" data-name="Shape" class="cls-4" d="M354.5,150.5v120h68v-6h6v-60h41v60h6v6h70v-121l.46,0-95.46-95-96,96Zm36,36h14v15h-14v-15Zm0,20h14v15h-14v-15Zm-19-20h14v15h-14v-15Zm0,20h14v15h-14v-15Zm37,23h-41v-4h41v4Zm106-43h14v15h-14v-15Zm0,20h14v15h-14v-15Zm-19-20h14v15h-14v-15Zm0,20h14v15h-14v-15Zm37,23h-41v-4h41v4Z"/><rect id="Rectangle-4-copy-7" class="cls-2" x="300" width="300" height="300"/><rect id="Rectangle-3" data-name="Rectangle" class="cls-1" x="224.06" y="115.93" width="63.44" height="146.57"/><path id="Shape-13" data-name="Shape" class="cls-3" d="M165.5,60.5h89.87l44.43,63H165.5v-63"/><path id="Shape-14" data-name="Shape" class="cls-1" d="M75.47,71,41.68,104.81V58.5H36.5v-11h44v9.95h-5Z"/><path id="Shape-15" data-name="Shape" class="cls-3" d="M75.28,60.5V72.21L41.49,106V94.33Z"/><path id="Shape-16" data-name="Shape" class="cls-1" d="M96.47,205.61V276.5h57V205.61Zm20,42a3.11,3.11,0,1,1,3.11-3.11,3.5,3.5,0,0,1-3.11,3.11Z"/><path id="Shape-17" data-name="Shape" class="cls-4" d="M.5,145.5h17v137h78v-6h6v-70h48v70h6v6h80V144.65l.8.85h17.5L126.16,18.59.5,145.5Zm58,60v-17h16v17Zm16,5v16h-16v-16Zm-38-5v-17h16v17Zm16,5v16h-16v-16Zm26,25h-46v-5h46v5Zm45-100h-15v-20h15v20Zm0-25h-15v-6.62c0-8.21,8-15,15-16.46V110.5Zm20,25h-15v-20h15v20Zm0-25h-15V87.26a16.42,16.42,0,0,1,15,16.63v6.62Zm77,125h-46v-5h46v5Zm-26-25v16h-16v-16Zm-16-5v-17h16v17Zm38,5v16h-16v-16Zm-16-5v-17h16v17Z"/><path id="Shape-18" data-name="Shape" class="cls-3" d="M142.5,276.5v-64h-41v-6h48v70Z"/><rect id="Rectangle-4-copy-8" class="cls-2" width="300" height="300"/></svg>