<svg id="Layer_1" data-name="Layer 1" xmlns="http://www.w3.org/2000/svg" viewBox="0 0 501.73 458.51"><defs><style>.cls-1{fill:#e1e2e2;}.cls-2{fill:#20201e;}.cls-3{fill:#fff;}.cls-4,.cls-5,.cls-6,.cls-7{fill:none;stroke:#20201e;}.cls-4{stroke-width:3px;}.cls-5,.cls-6,.cls-7{stroke-linecap:round;stroke-linejoin:round;}.cls-5{stroke-dasharray:0 2.99;}.cls-7{stroke-dasharray:0 3;}</style></defs><title>Table</title><rect class="cls-1" x="195.59" width="306.14" height="131.01"/><rect class="cls-2" x="205.59" y="10.01" width="82.04" height="21"/><path class="cls-3" d="M235.53,23.95h-1.36V18.66h-1.74V17.52h4.85v1.13h-1.74Z"/><path class="cls-3" d="M238.13,17.76q0-.65.73-.65t.73.65a.64.64,0,0,1-.18.49.77.77,0,0,1-.55.17Q238.13,18.42,238.13,17.76Zm1.4,6.18h-1.34V19h1.34Z"/><path class="cls-3" d="M243,23a2.9,2.9,0,0,0,.84-.15v1a3,3,0,0,1-1.23.22,1.51,1.51,0,0,1-1.17-.41,1.77,1.77,0,0,1-.37-1.22V20h-.64v-.57l.74-.45.39-1h.86v1h1.38v1h-1.38v2.37a.52.52,0,0,0,.16.42A.63.63,0,0,0,243,23Z"/><path class="cls-3" d="M247.14,24a2.54,2.54,0,0,1-1.85-.65,2.48,2.48,0,0,1-.67-1.86,2.73,2.73,0,0,1,.62-1.91,2.2,2.2,0,0,1,1.71-.67,2.16,2.16,0,0,1,1.62.59,2.24,2.24,0,0,1,.58,1.64v.65H246a1.29,1.29,0,0,0,.34.89,1.19,1.19,0,0,0,.89.32,3.68,3.68,0,0,0,.84-.09,4.14,4.14,0,0,0,.83-.29v1a3.08,3.08,0,0,1-.75.26A4.7,4.7,0,0,1,247.14,24ZM247,19.9a.85.85,0,0,0-.67.27,1.25,1.25,0,0,0-.28.77h1.88a1.12,1.12,0,0,0-.26-.77A.88.88,0,0,0,247,19.9Z"/><path class="cls-3" d="M251.62,23.95h-1.34V17.11h1.34Z"/><path class="cls-3" d="M259.48,23.95,259,22.42h-2.34l-.47,1.53h-1.47L257,17.5h1.67L261,23.95Zm-.79-2.67L258,18.92c-.05-.18-.09-.32-.12-.43q-.15.56-.83,2.78Z"/><rect class="cls-4" x="205.59" y="10.01" width="82.04" height="21"/><rect class="cls-3" x="205.59" y="40.01" width="82.04" height="21"/><path class="cls-2" d="M235.46,50.67a3.16,3.16,0,0,1-.9,2.43,3.68,3.68,0,0,1-2.61.84h-1.82V47.52h2a3.39,3.39,0,0,1,2.44.83A3.05,3.05,0,0,1,235.46,50.67Zm-1.42,0q0-2.07-1.83-2.07h-.73v4.18h.58Q234,52.82,234,50.71Z"/><path class="cls-2" d="M239.84,53.95l-.26-.67h0a2,2,0,0,1-.7.59,2.24,2.24,0,0,1-.93.17,1.51,1.51,0,0,1-1.11-.4,1.55,1.55,0,0,1-.41-1.15,1.3,1.3,0,0,1,.55-1.15,3.17,3.17,0,0,1,1.65-.41l.85,0v-.21a.67.67,0,0,0-.76-.75,3.49,3.49,0,0,0-1.38.36l-.44-.91a4,4,0,0,1,1.88-.44,2.35,2.35,0,0,1,1.52.43,1.59,1.59,0,0,1,.53,1.31v3.27Zm-.4-2.28-.52,0a1.66,1.66,0,0,0-.87.21.66.66,0,0,0-.29.59q0,.57.65.57a1,1,0,0,0,.74-.27.94.94,0,0,0,.28-.71Z"/><path class="cls-2" d="M244.27,53a2.9,2.9,0,0,0,.84-.15v1a3,3,0,0,1-1.23.22,1.51,1.51,0,0,1-1.17-.41,1.77,1.77,0,0,1-.37-1.22V50h-.64v-.57l.74-.45.39-1h.86v1h1.38v1h-1.38v2.37a.52.52,0,0,0,.16.42A.63.63,0,0,0,244.27,53Z"/><path class="cls-2" d="M249.27,53.95l-.26-.67h0a2,2,0,0,1-.7.59,2.25,2.25,0,0,1-.93.17,1.51,1.51,0,0,1-1.11-.4,1.55,1.55,0,0,1-.41-1.15,1.3,1.3,0,0,1,.55-1.15,3.17,3.17,0,0,1,1.65-.41l.85,0v-.21a.67.67,0,0,0-.77-.75,3.49,3.49,0,0,0-1.38.36l-.44-.91a4,4,0,0,1,1.88-.44,2.35,2.35,0,0,1,1.52.43,1.59,1.59,0,0,1,.53,1.31v3.27Zm-.39-2.28-.52,0a1.66,1.66,0,0,0-.87.21.66.66,0,0,0-.29.59q0,.57.65.57a1,1,0,0,0,.75-.27.94.94,0,0,0,.28-.71Z"/><path class="cls-2" d="M258,53.95l-.47-1.53h-2.34l-.47,1.53h-1.47l2.27-6.45h1.67l2.28,6.45Zm-.79-2.67-.73-2.35c-.05-.18-.09-.32-.12-.43q-.15.56-.83,2.78Z"/><path class="cls-2" d="M263.28,53.95h-1.36V49.62l0-.67q-.34.34-.47.44l-.74.59-.66-.82,2.07-1.65h1.12Z"/><rect class="cls-4" x="205.59" y="40.01" width="82.04" height="21"/><rect class="cls-3" x="205.59" y="70.01" width="82.04" height="21"/><path class="cls-2" d="M235.06,80.67a3.16,3.16,0,0,1-.9,2.43,3.68,3.68,0,0,1-2.61.84h-1.82V77.52h2a3.39,3.39,0,0,1,2.44.83A3.05,3.05,0,0,1,235.06,80.67Zm-1.42,0q0-2.07-1.83-2.07h-.73v4.18h.58Q233.64,82.82,233.64,80.71Z"/><path class="cls-2" d="M239.44,83.95l-.26-.67h0a2,2,0,0,1-.7.59,2.24,2.24,0,0,1-.93.17,1.51,1.51,0,0,1-1.11-.4,1.55,1.55,0,0,1-.41-1.15,1.3,1.3,0,0,1,.55-1.15,3.17,3.17,0,0,1,1.65-.41l.85,0v-.21a.67.67,0,0,0-.76-.75,3.49,3.49,0,0,0-1.38.36l-.44-.91a4,4,0,0,1,1.88-.44,2.35,2.35,0,0,1,1.52.43,1.59,1.59,0,0,1,.53,1.31v3.27Zm-.4-2.28-.52,0a1.66,1.66,0,0,0-.87.21.66.66,0,0,0-.29.59q0,.57.65.57a1,1,0,0,0,.74-.27.94.94,0,0,0,.28-.71Z"/><path class="cls-2" d="M243.86,83a2.9,2.9,0,0,0,.84-.15v1a3,3,0,0,1-1.23.22,1.51,1.51,0,0,1-1.17-.41,1.77,1.77,0,0,1-.37-1.22V80h-.64v-.57L242,79l.39-1h.86v1h1.38v1h-1.38v2.37a.52.52,0,0,0,.16.42A.63.63,0,0,0,243.86,83Z"/><path class="cls-2" d="M248.85,83.95l-.26-.67h0a2,2,0,0,1-.7.59,2.24,2.24,0,0,1-.93.17,1.51,1.51,0,0,1-1.11-.4,1.55,1.55,0,0,1-.41-1.15,1.3,1.3,0,0,1,.55-1.15,3.17,3.17,0,0,1,1.65-.41l.85,0v-.21a.67.67,0,0,0-.76-.75,3.49,3.49,0,0,0-1.38.36l-.44-.91a4,4,0,0,1,1.88-.44,2.35,2.35,0,0,1,1.52.43,1.59,1.59,0,0,1,.53,1.31v3.27Zm-.4-2.28-.52,0a1.66,1.66,0,0,0-.87.21.66.66,0,0,0-.29.59q0,.57.65.57a1,1,0,0,0,.74-.27.94.94,0,0,0,.28-.71Z"/><path class="cls-2" d="M257.63,83.95l-.46-1.53h-2.34l-.47,1.53h-1.47l2.27-6.45h1.67l2.28,6.45Zm-.79-2.67-.73-2.35c-.05-.18-.09-.32-.12-.43q-.14.56-.83,2.78Z"/><path class="cls-2" d="M264,83.95h-4.49V83l1.61-1.63q.72-.73.94-1a2.22,2.22,0,0,0,.32-.52,1.34,1.34,0,0,0,.1-.5.74.74,0,0,0-.21-.58.83.83,0,0,0-.57-.19,1.64,1.64,0,0,0-.72.17,3.77,3.77,0,0,0-.73.49l-.74-.87a4.82,4.82,0,0,1,.79-.57,2.87,2.87,0,0,1,.68-.26,3.46,3.46,0,0,1,.83-.09,2.44,2.44,0,0,1,1.06.22,1.69,1.69,0,0,1,.72.62,1.63,1.63,0,0,1,.25.9,2.22,2.22,0,0,1-.16.83,3.22,3.22,0,0,1-.48.8A11.76,11.76,0,0,1,262,82l-.83.78v.06H264Z"/><rect class="cls-4" x="205.59" y="70.01" width="82.04" height="21"/><rect class="cls-3" x="205.59" y="100.01" width="82.04" height="21"/><path class="cls-2" d="M235.06,110.67a3.16,3.16,0,0,1-.9,2.43,3.68,3.68,0,0,1-2.61.84h-1.82v-6.42h2a3.39,3.39,0,0,1,2.44.83A3.05,3.05,0,0,1,235.06,110.67Zm-1.42,0q0-2.07-1.83-2.07h-.73v4.18h.58Q233.64,112.82,233.64,110.71Z"/><path class="cls-2" d="M239.44,113.95l-.26-.67h0a2,2,0,0,1-.7.59,2.24,2.24,0,0,1-.93.17,1.51,1.51,0,0,1-1.11-.4,1.55,1.55,0,0,1-.41-1.15,1.3,1.3,0,0,1,.55-1.15,3.17,3.17,0,0,1,1.65-.41l.85,0v-.21a.67.67,0,0,0-.76-.75,3.49,3.49,0,0,0-1.38.36l-.44-.91a4,4,0,0,1,1.88-.44,2.35,2.35,0,0,1,1.52.43,1.59,1.59,0,0,1,.53,1.31v3.27Zm-.4-2.28-.52,0a1.66,1.66,0,0,0-.87.21.66.66,0,0,0-.29.59q0,.57.65.57a1,1,0,0,0,.74-.27.94.94,0,0,0,.28-.71Z"/><path class="cls-2" d="M243.86,113a2.9,2.9,0,0,0,.84-.15v1a3,3,0,0,1-1.23.22,1.51,1.51,0,0,1-1.17-.41,1.77,1.77,0,0,1-.37-1.22V110h-.64v-.57L242,109l.39-1h.86v1h1.38v1h-1.38v2.37a.52.52,0,0,0,.16.42A.63.63,0,0,0,243.86,113Z"/><path class="cls-2" d="M248.85,113.95l-.26-.67h0a2,2,0,0,1-.7.59,2.24,2.24,0,0,1-.93.17,1.51,1.51,0,0,1-1.11-.4,1.55,1.55,0,0,1-.41-1.15,1.3,1.3,0,0,1,.55-1.15,3.17,3.17,0,0,1,1.65-.41l.85,0v-.21a.67.67,0,0,0-.76-.75,3.49,3.49,0,0,0-1.38.36l-.44-.91a4,4,0,0,1,1.88-.44,2.35,2.35,0,0,1,1.52.43,1.59,1.59,0,0,1,.53,1.31v3.27Zm-.4-2.28-.52,0a1.66,1.66,0,0,0-.87.21.66.66,0,0,0-.29.59q0,.57.65.57a1,1,0,0,0,.74-.27.94.94,0,0,0,.28-.71Z"/><path class="cls-2" d="M257.63,113.95l-.46-1.53h-2.34l-.47,1.53h-1.47l2.27-6.45h1.67l2.28,6.45Zm-.79-2.67-.73-2.35c-.05-.18-.09-.32-.12-.43q-.14.56-.83,2.78Z"/><path class="cls-2" d="M263.75,109a1.52,1.52,0,0,1-.36,1,1.9,1.9,0,0,1-1,.58v0a2,2,0,0,1,1.18.47,1.32,1.32,0,0,1,.4,1,1.71,1.71,0,0,1-.67,1.44,3.09,3.09,0,0,1-1.92.52,4.65,4.65,0,0,1-1.86-.35v-1.16a4.22,4.22,0,0,0,.82.31,3.46,3.46,0,0,0,.89.12,1.73,1.73,0,0,0,1-.23.84.84,0,0,0,.32-.73.66.66,0,0,0-.37-.64,2.73,2.73,0,0,0-1.18-.19h-.49v-1h.5a2.32,2.32,0,0,0,1.09-.2.71.71,0,0,0,.34-.67q0-.73-.91-.73a2.09,2.09,0,0,0-.64.11,3.13,3.13,0,0,0-.73.36l-.63-.94a3.49,3.49,0,0,1,2.1-.63,2.72,2.72,0,0,1,1.58.4A1.3,1.3,0,0,1,263.75,109Z"/><rect class="cls-4" x="205.59" y="100.01" width="82.04" height="21"/><rect class="cls-2" x="307.64" y="10.01" width="82.04" height="21"/><path class="cls-3" d="M337.66,23.95h-1.36V18.66h-1.75V17.52h4.85v1.13h-1.74Z"/><path class="cls-3" d="M340.26,17.76q0-.65.73-.65t.73.65a.64.64,0,0,1-.18.49.77.77,0,0,1-.55.17Q340.26,18.42,340.26,17.76Zm1.4,6.18h-1.34V19h1.34Z"/><path class="cls-3" d="M345.17,23a2.9,2.9,0,0,0,.84-.15v1a3,3,0,0,1-1.23.22,1.51,1.51,0,0,1-1.17-.41,1.77,1.77,0,0,1-.37-1.22V20h-.64v-.57l.74-.45.39-1h.86v1H346v1h-1.37v2.37a.52.52,0,0,0,.16.42A.63.63,0,0,0,345.17,23Z"/><path class="cls-3" d="M349.27,24a2.54,2.54,0,0,1-1.86-.65,2.48,2.48,0,0,1-.67-1.86,2.73,2.73,0,0,1,.62-1.91,2.2,2.2,0,0,1,1.71-.67,2.17,2.17,0,0,1,1.62.59,2.24,2.24,0,0,1,.58,1.64v.65H348.1a1.29,1.29,0,0,0,.34.89,1.19,1.19,0,0,0,.89.32,3.68,3.68,0,0,0,.84-.09,4.14,4.14,0,0,0,.83-.29v1a3.07,3.07,0,0,1-.75.26A4.69,4.69,0,0,1,349.27,24Zm-.19-4.14a.85.85,0,0,0-.67.27,1.25,1.25,0,0,0-.28.77H350a1.12,1.12,0,0,0-.26-.77A.88.88,0,0,0,349.08,19.9Z"/><path class="cls-3" d="M353.75,23.95h-1.34V17.11h1.34Z"/><path class="cls-3" d="M357.68,17.52h2a3.86,3.86,0,0,1,2,.39,1.35,1.35,0,0,1,.62,1.24,1.56,1.56,0,0,1-.27.95,1.08,1.08,0,0,1-.72.44v0a1.41,1.41,0,0,1,.88.51,1.66,1.66,0,0,1,.27,1,1.64,1.64,0,0,1-.63,1.37,2.75,2.75,0,0,1-1.73.49h-2.4ZM359,20.07h.79a1.44,1.44,0,0,0,.8-.17.64.64,0,0,0,.25-.57.57.57,0,0,0-.27-.53,1.75,1.75,0,0,0-.85-.16H359Zm0,1.08v1.67h.89a1.32,1.32,0,0,0,.83-.21.8.8,0,0,0,.27-.66q0-.8-1.14-.8Z"/><rect class="cls-4" x="307.64" y="10.01" width="82.04" height="21"/><rect class="cls-3" x="307.64" y="40.01" width="82.04" height="21"/><path class="cls-2" d="M337.59,50.67a3.16,3.16,0,0,1-.9,2.43,3.68,3.68,0,0,1-2.61.84h-1.82V47.52h2a3.39,3.39,0,0,1,2.44.83A3.05,3.05,0,0,1,337.59,50.67Zm-1.41,0q0-2.07-1.83-2.07h-.73v4.18h.58Q336.17,52.82,336.17,50.71Z"/><path class="cls-2" d="M342,53.95l-.26-.67h0a2,2,0,0,1-.7.59A2.24,2.24,0,0,1,340,54a1.51,1.51,0,0,1-1.11-.4,1.55,1.55,0,0,1-.41-1.15,1.3,1.3,0,0,1,.55-1.15,3.17,3.17,0,0,1,1.65-.41l.85,0v-.21a.67.67,0,0,0-.76-.75,3.49,3.49,0,0,0-1.38.36l-.44-.91a4,4,0,0,1,1.88-.44,2.35,2.35,0,0,1,1.52.43,1.59,1.59,0,0,1,.53,1.31v3.27Zm-.4-2.28-.52,0a1.66,1.66,0,0,0-.87.21.66.66,0,0,0-.29.59q0,.57.65.57a1,1,0,0,0,.75-.27.94.94,0,0,0,.28-.71Z"/><path class="cls-2" d="M346.4,53a2.9,2.9,0,0,0,.84-.15v1A3,3,0,0,1,346,54a1.51,1.51,0,0,1-1.17-.41,1.77,1.77,0,0,1-.37-1.22V50h-.64v-.57l.74-.45.39-1h.86v1h1.38v1h-1.38v2.37a.52.52,0,0,0,.16.42A.64.64,0,0,0,346.4,53Z"/><path class="cls-2" d="M351.39,53.95l-.26-.67h0a2,2,0,0,1-.7.59,2.24,2.24,0,0,1-.93.17,1.51,1.51,0,0,1-1.11-.4,1.55,1.55,0,0,1-.41-1.15,1.3,1.3,0,0,1,.55-1.15,3.17,3.17,0,0,1,1.65-.41l.85,0v-.21a.67.67,0,0,0-.76-.75,3.49,3.49,0,0,0-1.38.36l-.44-.91a4,4,0,0,1,1.88-.44,2.35,2.35,0,0,1,1.52.43,1.59,1.59,0,0,1,.53,1.31v3.27Zm-.4-2.28-.52,0a1.66,1.66,0,0,0-.87.21.66.66,0,0,0-.29.59q0,.57.65.57a1,1,0,0,0,.75-.27.94.94,0,0,0,.28-.71Z"/><path class="cls-2" d="M356.24,47.52h2a3.85,3.85,0,0,1,2,.39,1.35,1.35,0,0,1,.62,1.24,1.56,1.56,0,0,1-.27.95,1.08,1.08,0,0,1-.72.44v0a1.41,1.41,0,0,1,.88.51,1.86,1.86,0,0,1-.36,2.36,2.75,2.75,0,0,1-1.73.49h-2.4Zm1.36,2.54h.79a1.45,1.45,0,0,0,.8-.17.64.64,0,0,0,.25-.57.57.57,0,0,0-.27-.53,1.75,1.75,0,0,0-.86-.16h-.72Zm0,1.08v1.67h.89a1.32,1.32,0,0,0,.83-.21.8.8,0,0,0,.27-.66q0-.8-1.14-.8Z"/><path class="cls-2" d="M365.24,53.95h-1.36V49.62l0-.67q-.34.34-.47.44l-.74.59-.65-.82,2.07-1.65h1.12Z"/><rect class="cls-4" x="307.64" y="40.01" width="82.04" height="21"/><rect class="cls-3" x="307.64" y="70.01" width="82.04" height="21"/><path class="cls-2" d="M337.18,80.67a3.16,3.16,0,0,1-.9,2.43,3.68,3.68,0,0,1-2.61.84h-1.82V77.52h2a3.39,3.39,0,0,1,2.44.83A3.05,3.05,0,0,1,337.18,80.67Zm-1.41,0q0-2.07-1.83-2.07h-.73v4.18h.58Q335.77,82.82,335.77,80.71Z"/><path class="cls-2" d="M341.57,83.95l-.26-.67h0a2,2,0,0,1-.7.59,2.24,2.24,0,0,1-.93.17,1.51,1.51,0,0,1-1.11-.4,1.55,1.55,0,0,1-.41-1.15,1.3,1.3,0,0,1,.55-1.15,3.17,3.17,0,0,1,1.65-.41l.85,0v-.21a.67.67,0,0,0-.76-.75,3.49,3.49,0,0,0-1.38.36l-.44-.91a4,4,0,0,1,1.88-.44,2.35,2.35,0,0,1,1.52.43,1.59,1.59,0,0,1,.53,1.31v3.27Zm-.4-2.28-.52,0a1.66,1.66,0,0,0-.87.21.66.66,0,0,0-.29.59q0,.57.65.57a1,1,0,0,0,.75-.27.94.94,0,0,0,.28-.71Z"/><path class="cls-2" d="M346,83a2.9,2.9,0,0,0,.84-.15v1a3,3,0,0,1-1.23.22,1.51,1.51,0,0,1-1.17-.41,1.77,1.77,0,0,1-.37-1.22V80h-.64v-.57l.74-.45.39-1h.86v1h1.38v1h-1.38v2.37a.52.52,0,0,0,.16.42A.64.64,0,0,0,346,83Z"/><path class="cls-2" d="M351,83.95l-.26-.67h0a2,2,0,0,1-.7.59,2.24,2.24,0,0,1-.93.17,1.51,1.51,0,0,1-1.11-.4,1.55,1.55,0,0,1-.41-1.15,1.3,1.3,0,0,1,.55-1.15,3.17,3.17,0,0,1,1.65-.41l.85,0v-.21a.67.67,0,0,0-.76-.75,3.49,3.49,0,0,0-1.38.36l-.44-.91a4,4,0,0,1,1.88-.44,2.35,2.35,0,0,1,1.52.43,1.59,1.59,0,0,1,.53,1.31v3.27Zm-.4-2.28-.52,0a1.66,1.66,0,0,0-.87.21.66.66,0,0,0-.29.59q0,.57.65.57a1,1,0,0,0,.75-.27.94.94,0,0,0,.28-.71Z"/><path class="cls-2" d="M355.83,77.52h2a3.86,3.86,0,0,1,2,.39,1.36,1.36,0,0,1,.62,1.24,1.56,1.56,0,0,1-.27.95,1.08,1.08,0,0,1-.72.44v0a1.42,1.42,0,0,1,.88.51,1.66,1.66,0,0,1,.27,1,1.64,1.64,0,0,1-.63,1.37,2.75,2.75,0,0,1-1.72.49h-2.4Zm1.36,2.54H358a1.44,1.44,0,0,0,.8-.17.64.64,0,0,0,.25-.57.57.57,0,0,0-.27-.53,1.74,1.74,0,0,0-.85-.16h-.72Zm0,1.08v1.67h.89a1.32,1.32,0,0,0,.83-.21.8.8,0,0,0,.27-.66q0-.8-1.14-.8Z"/><path class="cls-2" d="M366,83.95h-4.49V83l1.61-1.63q.72-.73.94-1a2.22,2.22,0,0,0,.32-.52,1.34,1.34,0,0,0,.1-.5.73.73,0,0,0-.21-.58.83.83,0,0,0-.57-.19,1.63,1.63,0,0,0-.73.17,3.71,3.71,0,0,0-.73.49l-.74-.87a4.82,4.82,0,0,1,.79-.57,2.86,2.86,0,0,1,.68-.26,3.46,3.46,0,0,1,.83-.09,2.45,2.45,0,0,1,1.06.22,1.7,1.7,0,0,1,.72.62,1.63,1.63,0,0,1,.25.9,2.22,2.22,0,0,1-.16.83,3.21,3.21,0,0,1-.48.8A11.8,11.8,0,0,1,364,82l-.83.78v.06H366Z"/><rect class="cls-4" x="307.64" y="70.01" width="82.04" height="21"/><rect class="cls-3" x="307.64" y="100.01" width="82.04" height="21"/><path class="cls-2" d="M337.18,110.67a3.16,3.16,0,0,1-.9,2.43,3.68,3.68,0,0,1-2.61.84h-1.82v-6.42h2a3.39,3.39,0,0,1,2.44.83A3.05,3.05,0,0,1,337.18,110.67Zm-1.41,0q0-2.07-1.83-2.07h-.73v4.18h.58Q335.77,112.82,335.77,110.71Z"/><path class="cls-2" d="M341.57,113.95l-.26-.67h0a2,2,0,0,1-.7.59,2.24,2.24,0,0,1-.93.17,1.51,1.51,0,0,1-1.11-.4,1.55,1.55,0,0,1-.41-1.15,1.3,1.3,0,0,1,.55-1.15,3.17,3.17,0,0,1,1.65-.41l.85,0v-.21a.67.67,0,0,0-.76-.75,3.49,3.49,0,0,0-1.38.36l-.44-.91a4,4,0,0,1,1.88-.44,2.35,2.35,0,0,1,1.52.43,1.59,1.59,0,0,1,.53,1.31v3.27Zm-.4-2.28-.52,0a1.66,1.66,0,0,0-.87.21.66.66,0,0,0-.29.59q0,.57.65.57a1,1,0,0,0,.75-.27.94.94,0,0,0,.28-.71Z"/><path class="cls-2" d="M346,113a2.9,2.9,0,0,0,.84-.15v1a3,3,0,0,1-1.23.22,1.51,1.51,0,0,1-1.17-.41,1.77,1.77,0,0,1-.37-1.22V110h-.64v-.57l.74-.45.39-1h.86v1h1.38v1h-1.38v2.37a.52.52,0,0,0,.16.42A.64.64,0,0,0,346,113Z"/><path class="cls-2" d="M351,113.95l-.26-.67h0a2,2,0,0,1-.7.59,2.24,2.24,0,0,1-.93.17,1.51,1.51,0,0,1-1.11-.4,1.55,1.55,0,0,1-.41-1.15,1.3,1.3,0,0,1,.55-1.15,3.17,3.17,0,0,1,1.65-.41l.85,0v-.21a.67.67,0,0,0-.76-.75,3.49,3.49,0,0,0-1.38.36l-.44-.91a4,4,0,0,1,1.88-.44,2.35,2.35,0,0,1,1.52.43,1.59,1.59,0,0,1,.53,1.31v3.27Zm-.4-2.28-.52,0a1.66,1.66,0,0,0-.87.21.66.66,0,0,0-.29.59q0,.57.65.57a1,1,0,0,0,.75-.27.94.94,0,0,0,.28-.71Z"/><path class="cls-2" d="M355.83,107.52h2a3.86,3.86,0,0,1,2,.39,1.36,1.36,0,0,1,.62,1.24,1.56,1.56,0,0,1-.27.95,1.08,1.08,0,0,1-.72.44v0a1.42,1.42,0,0,1,.88.51,1.66,1.66,0,0,1,.27,1,1.64,1.64,0,0,1-.63,1.37,2.75,2.75,0,0,1-1.72.49h-2.4Zm1.36,2.54H358a1.44,1.44,0,0,0,.8-.17.64.64,0,0,0,.25-.57.57.57,0,0,0-.27-.53,1.74,1.74,0,0,0-.85-.16h-.72Zm0,1.08v1.67h.89a1.32,1.32,0,0,0,.83-.21.8.8,0,0,0,.27-.66q0-.8-1.14-.8Z"/><path class="cls-2" d="M365.71,109a1.51,1.51,0,0,1-.37,1,1.89,1.89,0,0,1-1,.58v0a2,2,0,0,1,1.18.47,1.32,1.32,0,0,1,.4,1,1.72,1.72,0,0,1-.67,1.44,3.1,3.1,0,0,1-1.92.52,4.64,4.64,0,0,1-1.85-.35v-1.16a4.16,4.16,0,0,0,.82.31,3.46,3.46,0,0,0,.89.12,1.73,1.73,0,0,0,1-.23.84.84,0,0,0,.32-.73.66.66,0,0,0-.37-.64,2.73,2.73,0,0,0-1.18-.19h-.49v-1h.5a2.31,2.31,0,0,0,1.09-.2.71.71,0,0,0,.35-.67q0-.73-.91-.73a2.1,2.1,0,0,0-.64.11,3.15,3.15,0,0,0-.73.36l-.63-.94a3.49,3.49,0,0,1,2.1-.63,2.71,2.71,0,0,1,1.58.4A1.3,1.3,0,0,1,365.71,109Z"/><rect class="cls-4" x="307.64" y="100.01" width="82.04" height="21"/><rect class="cls-2" x="409.69" y="10.01" width="82.04" height="21"/><path class="cls-3" d="M439.86,23.95H438.5V18.66h-1.75V17.52h4.85v1.13h-1.75Z"/><path class="cls-3" d="M442.47,17.76q0-.65.73-.65t.73.65a.64.64,0,0,1-.18.49.77.77,0,0,1-.55.17Q442.47,18.42,442.47,17.76Zm1.4,6.18h-1.34V19h1.34Z"/><path class="cls-3" d="M447.38,23a2.9,2.9,0,0,0,.84-.15v1A3,3,0,0,1,447,24a1.51,1.51,0,0,1-1.17-.41,1.77,1.77,0,0,1-.37-1.22V20h-.64v-.57l.74-.45.39-1h.86v1h1.38v1h-1.38v2.37a.52.52,0,0,0,.16.42A.64.64,0,0,0,447.38,23Z"/><path class="cls-3" d="M451.47,24a2.54,2.54,0,0,1-1.85-.65,2.48,2.48,0,0,1-.67-1.86,2.73,2.73,0,0,1,.62-1.91,2.2,2.2,0,0,1,1.71-.67,2.16,2.16,0,0,1,1.62.59,2.24,2.24,0,0,1,.58,1.64v.65h-3.17a1.28,1.28,0,0,0,.34.89,1.19,1.19,0,0,0,.89.32,3.68,3.68,0,0,0,.84-.09,4.14,4.14,0,0,0,.83-.29v1a3.08,3.08,0,0,1-.75.26A4.7,4.7,0,0,1,451.47,24Zm-.19-4.14a.85.85,0,0,0-.67.27,1.25,1.25,0,0,0-.28.77h1.88a1.12,1.12,0,0,0-.26-.77A.88.88,0,0,0,451.28,19.9Z"/><path class="cls-3" d="M456,23.95h-1.34V17.11H456Z"/><path class="cls-3" d="M462.61,18.57a1.39,1.39,0,0,0-1.19.58,2.69,2.69,0,0,0-.42,1.61q0,2.15,1.61,2.15a5.07,5.07,0,0,0,1.64-.34v1.14a4.53,4.53,0,0,1-1.77.33,2.69,2.69,0,0,1-2.14-.85,3.59,3.59,0,0,1-.74-2.44A4,4,0,0,1,460,19a2.64,2.64,0,0,1,1-1.16,3.1,3.1,0,0,1,1.6-.4,4.32,4.32,0,0,1,1.88.45L464.05,19a7.36,7.36,0,0,0-.72-.3A2.17,2.17,0,0,0,462.61,18.57Z"/><rect class="cls-4" x="409.69" y="10.01" width="82.04" height="21"/><rect class="cls-3" x="409.69" y="40.01" width="82.04" height="21"/><path class="cls-2" d="M439.79,50.67a3.16,3.16,0,0,1-.9,2.43,3.68,3.68,0,0,1-2.61.84h-1.82V47.52h2a3.39,3.39,0,0,1,2.44.83A3.05,3.05,0,0,1,439.79,50.67Zm-1.41,0q0-2.07-1.83-2.07h-.73v4.18h.58Q438.38,52.82,438.38,50.71Z"/><path class="cls-2" d="M444.17,53.95l-.26-.67h0a2,2,0,0,1-.7.59,2.24,2.24,0,0,1-.93.17,1.51,1.51,0,0,1-1.11-.4,1.55,1.55,0,0,1-.41-1.15,1.3,1.3,0,0,1,.55-1.15,3.17,3.17,0,0,1,1.65-.41l.85,0v-.21a.67.67,0,0,0-.76-.75,3.49,3.49,0,0,0-1.38.36l-.44-.91a4,4,0,0,1,1.88-.44,2.35,2.35,0,0,1,1.52.43,1.59,1.59,0,0,1,.53,1.31v3.27Zm-.4-2.28-.52,0a1.66,1.66,0,0,0-.87.21.66.66,0,0,0-.29.59q0,.57.65.57a1,1,0,0,0,.75-.27.94.94,0,0,0,.28-.71Z"/><path class="cls-2" d="M448.6,53a2.9,2.9,0,0,0,.84-.15v1a3,3,0,0,1-1.23.22,1.51,1.51,0,0,1-1.17-.41,1.77,1.77,0,0,1-.37-1.22V50H446v-.57l.74-.45.39-1H448v1h1.38v1H448v2.37a.52.52,0,0,0,.16.42A.64.64,0,0,0,448.6,53Z"/><path class="cls-2" d="M453.6,53.95l-.26-.67h0a2,2,0,0,1-.7.59,2.24,2.24,0,0,1-.93.17,1.51,1.51,0,0,1-1.11-.4,1.55,1.55,0,0,1-.41-1.15,1.3,1.3,0,0,1,.55-1.15,3.17,3.17,0,0,1,1.65-.41l.85,0v-.21a.67.67,0,0,0-.76-.75,3.49,3.49,0,0,0-1.38.36l-.44-.91a4,4,0,0,1,1.88-.44,2.35,2.35,0,0,1,1.52.43,1.59,1.59,0,0,1,.53,1.31v3.27Zm-.4-2.28-.52,0a1.66,1.66,0,0,0-.87.21.66.66,0,0,0-.29.59q0,.57.65.57a1,1,0,0,0,.75-.27.94.94,0,0,0,.28-.71Z"/><path class="cls-2" d="M461.18,48.57a1.39,1.39,0,0,0-1.19.58,2.69,2.69,0,0,0-.42,1.61q0,2.15,1.61,2.15a5.07,5.07,0,0,0,1.64-.34v1.14A4.53,4.53,0,0,1,461,54a2.69,2.69,0,0,1-2.14-.85,3.59,3.59,0,0,1-.74-2.44,4,4,0,0,1,.36-1.76,2.64,2.64,0,0,1,1-1.16,3.1,3.1,0,0,1,1.6-.4,4.32,4.32,0,0,1,1.88.45L462.62,49a7.36,7.36,0,0,0-.72-.3A2.17,2.17,0,0,0,461.18,48.57Z"/><path class="cls-2" d="M467.13,53.95h-1.36V49.62l0-.67c-.23.23-.38.37-.47.44l-.74.59-.65-.82L466,47.52h1.12Z"/><rect class="cls-4" x="409.69" y="40.01" width="82.04" height="21"/><rect class="cls-3" x="409.69" y="70.01" width="82.04" height="21"/><path class="cls-2" d="M439.39,80.67a3.16,3.16,0,0,1-.9,2.43,3.68,3.68,0,0,1-2.61.84h-1.82V77.52h2a3.39,3.39,0,0,1,2.44.83A3.05,3.05,0,0,1,439.39,80.67Zm-1.41,0q0-2.07-1.83-2.07h-.73v4.18H436Q438,82.82,438,80.71Z"/><path class="cls-2" d="M443.77,83.95l-.26-.67h0a2,2,0,0,1-.7.59,2.24,2.24,0,0,1-.93.17,1.51,1.51,0,0,1-1.11-.4,1.55,1.55,0,0,1-.41-1.15,1.3,1.3,0,0,1,.55-1.15,3.17,3.17,0,0,1,1.65-.41l.85,0v-.21a.67.67,0,0,0-.76-.75,3.49,3.49,0,0,0-1.38.36l-.44-.91a4,4,0,0,1,1.88-.44,2.35,2.35,0,0,1,1.52.43,1.59,1.59,0,0,1,.53,1.31v3.27Zm-.4-2.28-.52,0a1.66,1.66,0,0,0-.87.21.66.66,0,0,0-.29.59q0,.57.65.57a1,1,0,0,0,.75-.27.94.94,0,0,0,.28-.71Z"/><path class="cls-2" d="M448.2,83a2.9,2.9,0,0,0,.84-.15v1a3,3,0,0,1-1.23.22,1.51,1.51,0,0,1-1.17-.41,1.77,1.77,0,0,1-.37-1.22V80h-.64v-.57l.74-.45.39-1h.86v1H449v1h-1.38v2.37a.52.52,0,0,0,.16.42A.64.64,0,0,0,448.2,83Z"/><path class="cls-2" d="M453.19,83.95l-.26-.67h0a2,2,0,0,1-.7.59,2.24,2.24,0,0,1-.93.17,1.51,1.51,0,0,1-1.11-.4,1.55,1.55,0,0,1-.41-1.15,1.3,1.3,0,0,1,.55-1.15,3.17,3.17,0,0,1,1.65-.41l.85,0v-.21a.67.67,0,0,0-.76-.75,3.49,3.49,0,0,0-1.38.36l-.44-.91a4,4,0,0,1,1.88-.44,2.35,2.35,0,0,1,1.52.43,1.59,1.59,0,0,1,.53,1.31v3.27Zm-.4-2.28-.52,0a1.66,1.66,0,0,0-.87.21.66.66,0,0,0-.29.59q0,.57.65.57a1,1,0,0,0,.75-.27.94.94,0,0,0,.28-.71Z"/><path class="cls-2" d="M460.76,78.57a1.39,1.39,0,0,0-1.19.58,2.69,2.69,0,0,0-.42,1.61q0,2.15,1.61,2.15a5.08,5.08,0,0,0,1.64-.34v1.14a4.54,4.54,0,0,1-1.77.33,2.7,2.7,0,0,1-2.14-.85,3.6,3.6,0,0,1-.74-2.44,4,4,0,0,1,.37-1.76,2.63,2.63,0,0,1,1-1.16,3.11,3.11,0,0,1,1.6-.4,4.32,4.32,0,0,1,1.88.45L462.2,79a7.19,7.19,0,0,0-.73-.3A2.16,2.16,0,0,0,460.76,78.57Z"/><path class="cls-2" d="M467.85,83.95h-4.49V83L465,81.37q.72-.73.94-1a2.22,2.22,0,0,0,.32-.52,1.34,1.34,0,0,0,.1-.5.74.74,0,0,0-.21-.58.83.83,0,0,0-.57-.19,1.64,1.64,0,0,0-.72.17,3.77,3.77,0,0,0-.73.49l-.74-.87a4.82,4.82,0,0,1,.79-.57,2.87,2.87,0,0,1,.68-.26,3.46,3.46,0,0,1,.83-.09,2.44,2.44,0,0,1,1.06.22,1.69,1.69,0,0,1,.72.62,1.63,1.63,0,0,1,.25.9,2.22,2.22,0,0,1-.16.83,3.22,3.22,0,0,1-.48.8A11.76,11.76,0,0,1,465.87,82l-.83.78v.06h2.8Z"/><rect class="cls-4" x="409.69" y="70.01" width="82.04" height="21"/><rect class="cls-3" x="409.69" y="100.01" width="82.04" height="21"/><path class="cls-2" d="M439.39,110.67a3.16,3.16,0,0,1-.9,2.43,3.68,3.68,0,0,1-2.61.84h-1.82v-6.42h2a3.39,3.39,0,0,1,2.44.83A3.05,3.05,0,0,1,439.39,110.67Zm-1.41,0q0-2.07-1.83-2.07h-.73v4.18H436Q438,112.82,438,110.71Z"/><path class="cls-2" d="M443.77,113.95l-.26-.67h0a2,2,0,0,1-.7.59,2.24,2.24,0,0,1-.93.17,1.51,1.51,0,0,1-1.11-.4,1.55,1.55,0,0,1-.41-1.15,1.3,1.3,0,0,1,.55-1.15,3.17,3.17,0,0,1,1.65-.41l.85,0v-.21a.67.67,0,0,0-.76-.75,3.49,3.49,0,0,0-1.38.36l-.44-.91a4,4,0,0,1,1.88-.44,2.35,2.35,0,0,1,1.52.43,1.59,1.59,0,0,1,.53,1.31v3.27Zm-.4-2.28-.52,0a1.66,1.66,0,0,0-.87.21.66.66,0,0,0-.29.59q0,.57.65.57a1,1,0,0,0,.75-.27.94.94,0,0,0,.28-.71Z"/><path class="cls-2" d="M448.2,113a2.9,2.9,0,0,0,.84-.15v1a3,3,0,0,1-1.23.22,1.51,1.51,0,0,1-1.17-.41,1.77,1.77,0,0,1-.37-1.22V110h-.64v-.57l.74-.45.39-1h.86v1H449v1h-1.38v2.37a.52.52,0,0,0,.16.42A.64.64,0,0,0,448.2,113Z"/><path class="cls-2" d="M453.19,113.95l-.26-.67h0a2,2,0,0,1-.7.59,2.24,2.24,0,0,1-.93.17,1.51,1.51,0,0,1-1.11-.4,1.55,1.55,0,0,1-.41-1.15,1.3,1.3,0,0,1,.55-1.15,3.17,3.17,0,0,1,1.65-.41l.85,0v-.21a.67.67,0,0,0-.76-.75,3.49,3.49,0,0,0-1.38.36l-.44-.91a4,4,0,0,1,1.88-.44,2.35,2.35,0,0,1,1.52.43,1.59,1.59,0,0,1,.53,1.31v3.27Zm-.4-2.28-.52,0a1.66,1.66,0,0,0-.87.21.66.66,0,0,0-.29.59q0,.57.65.57a1,1,0,0,0,.75-.27.94.94,0,0,0,.28-.71Z"/><path class="cls-2" d="M460.76,108.57a1.39,1.39,0,0,0-1.19.58,2.69,2.69,0,0,0-.42,1.61q0,2.15,1.61,2.15a5.08,5.08,0,0,0,1.64-.34v1.14a4.54,4.54,0,0,1-1.77.33,2.7,2.7,0,0,1-2.14-.85,3.6,3.6,0,0,1-.74-2.44,4,4,0,0,1,.37-1.76,2.63,2.63,0,0,1,1-1.16,3.11,3.11,0,0,1,1.6-.4,4.32,4.32,0,0,1,1.88.45L462.2,109a7.19,7.19,0,0,0-.73-.3A2.16,2.16,0,0,0,460.76,108.57Z"/><path class="cls-2" d="M467.6,109a1.52,1.52,0,0,1-.36,1,1.9,1.9,0,0,1-1,.58v0a2,2,0,0,1,1.18.47,1.32,1.32,0,0,1,.4,1,1.71,1.71,0,0,1-.67,1.44,3.09,3.09,0,0,1-1.92.52,4.65,4.65,0,0,1-1.86-.35v-1.16a4.22,4.22,0,0,0,.82.31,3.46,3.46,0,0,0,.89.12,1.73,1.73,0,0,0,1-.23.84.84,0,0,0,.32-.73.66.66,0,0,0-.37-.64,2.73,2.73,0,0,0-1.18-.19h-.49v-1h.5a2.32,2.32,0,0,0,1.09-.2.71.71,0,0,0,.34-.67q0-.73-.91-.73a2.09,2.09,0,0,0-.64.11,3.13,3.13,0,0,0-.73.36l-.63-.94a3.49,3.49,0,0,1,2.1-.63,2.72,2.72,0,0,1,1.58.4A1.3,1.3,0,0,1,467.6,109Z"/><rect class="cls-4" x="409.69" y="100.01" width="82.04" height="21"/><path class="cls-4" d="M181.3,29.77a107.09,107.09,0,0,0-56,42.13c-14,20.71-19.89,42.33-18.25,65.47"/><polyline class="cls-4" points="112.36 130.83 107.09 137.38 100.95 131.64"/><rect class="cls-1" x="93.54" y="150" width="204.1" height="197.01"/><rect class="cls-2" x="103.55" y="160.01" width="82.04" height="21"/><path class="cls-3" d="M133.48,173.95h-1.36v-5.29h-1.74v-1.13h4.85v1.13h-1.74Z"/><path class="cls-3" d="M136.09,167.76q0-.65.73-.65t.73.65a.64.64,0,0,1-.18.49.77.77,0,0,1-.55.17Q136.09,168.42,136.09,167.76Zm1.4,6.18h-1.34V169h1.34Z"/><path class="cls-3" d="M141,173a2.9,2.9,0,0,0,.84-.15v1a3,3,0,0,1-1.23.22,1.51,1.51,0,0,1-1.17-.41,1.77,1.77,0,0,1-.37-1.22V170h-.64v-.57l.74-.45.39-1h.86v1h1.38v1h-1.38v2.37a.52.52,0,0,0,.16.42A.63.63,0,0,0,141,173Z"/><path class="cls-3" d="M145.09,174a2.54,2.54,0,0,1-1.85-.65,2.48,2.48,0,0,1-.67-1.86,2.73,2.73,0,0,1,.62-1.91,2.2,2.2,0,0,1,1.71-.67,2.16,2.16,0,0,1,1.62.59,2.24,2.24,0,0,1,.58,1.64v.65h-3.17a1.29,1.29,0,0,0,.34.89,1.19,1.19,0,0,0,.89.32,3.69,3.69,0,0,0,.84-.09,4.14,4.14,0,0,0,.83-.29v1a3.08,3.08,0,0,1-.75.26A4.7,4.7,0,0,1,145.09,174Zm-.19-4.14a.85.85,0,0,0-.67.27,1.25,1.25,0,0,0-.28.77h1.88a1.12,1.12,0,0,0-.26-.77A.88.88,0,0,0,144.9,169.9Z"/><path class="cls-3" d="M149.57,173.95h-1.34v-6.84h1.34Z"/><path class="cls-3" d="M157.44,173.95l-.47-1.53h-2.34l-.47,1.53h-1.47L155,167.5h1.67l2.28,6.45Zm-.79-2.67-.73-2.35c-.05-.18-.09-.32-.12-.43q-.15.56-.83,2.78Z"/><rect class="cls-4" x="103.55" y="160.01" width="82.04" height="21"/><rect class="cls-2" x="103.55" y="256.01" width="82.04" height="21"/><path class="cls-3" d="M133.48,269.95h-1.36v-5.29h-1.74v-1.13h4.85v1.13h-1.74Z"/><path class="cls-3" d="M136.09,263.76q0-.65.73-.65t.73.65a.64.64,0,0,1-.18.49.77.77,0,0,1-.55.17Q136.09,264.42,136.09,263.76Zm1.4,6.18h-1.34V265h1.34Z"/><path class="cls-3" d="M141,269a2.9,2.9,0,0,0,.84-.15v1a3,3,0,0,1-1.23.22,1.51,1.51,0,0,1-1.17-.41,1.77,1.77,0,0,1-.37-1.22V266h-.64v-.57l.74-.45.39-1h.86v1h1.38v1h-1.38v2.37a.52.52,0,0,0,.16.42A.63.63,0,0,0,141,269Z"/><path class="cls-3" d="M145.09,270a2.54,2.54,0,0,1-1.85-.65,2.48,2.48,0,0,1-.67-1.86,2.73,2.73,0,0,1,.62-1.91,2.2,2.2,0,0,1,1.71-.67,2.16,2.16,0,0,1,1.62.59,2.24,2.24,0,0,1,.58,1.64v.65h-3.17a1.29,1.29,0,0,0,.34.89,1.19,1.19,0,0,0,.89.32,3.69,3.69,0,0,0,.84-.09,4.14,4.14,0,0,0,.83-.29v1a3.08,3.08,0,0,1-.75.26A4.7,4.7,0,0,1,145.09,270Zm-.19-4.14a.85.85,0,0,0-.67.27,1.25,1.25,0,0,0-.28.77h1.88a1.12,1.12,0,0,0-.26-.77A.88.88,0,0,0,144.9,265.9Z"/><path class="cls-3" d="M149.57,269.95h-1.34v-6.84h1.34Z"/><path class="cls-3" d="M157.44,269.95l-.47-1.53h-2.34l-.47,1.53h-1.47L155,263.5h1.67l2.28,6.45Zm-.79-2.67-.73-2.35c-.05-.18-.09-.32-.12-.43q-.15.56-.83,2.78Z"/><rect class="cls-4" x="103.55" y="256.01" width="82.04" height="21"/><rect class="cls-3" x="205.59" y="160.01" width="82.04" height="21"/><path class="cls-2" d="M235.46,170.67a3.16,3.16,0,0,1-.9,2.43,3.68,3.68,0,0,1-2.61.84h-1.82v-6.42h2a3.39,3.39,0,0,1,2.44.83A3.05,3.05,0,0,1,235.46,170.67Zm-1.42,0q0-2.07-1.83-2.07h-.73v4.18h.58Q234,172.82,234,170.71Z"/><path class="cls-2" d="M239.84,173.95l-.26-.67h0a2,2,0,0,1-.7.59,2.24,2.24,0,0,1-.93.17,1.51,1.51,0,0,1-1.11-.4,1.55,1.55,0,0,1-.41-1.15,1.3,1.3,0,0,1,.55-1.15,3.17,3.17,0,0,1,1.65-.41l.85,0v-.21a.67.67,0,0,0-.76-.75,3.49,3.49,0,0,0-1.38.36l-.44-.91a4,4,0,0,1,1.88-.44,2.35,2.35,0,0,1,1.52.43,1.59,1.59,0,0,1,.53,1.31v3.27Zm-.4-2.28-.52,0a1.66,1.66,0,0,0-.87.21.66.66,0,0,0-.29.59q0,.57.65.57a1,1,0,0,0,.74-.27.94.94,0,0,0,.28-.71Z"/><path class="cls-2" d="M244.27,173a2.9,2.9,0,0,0,.84-.15v1a3,3,0,0,1-1.23.22,1.51,1.51,0,0,1-1.17-.41,1.77,1.77,0,0,1-.37-1.22V170h-.64v-.57l.74-.45.39-1h.86v1h1.38v1h-1.38v2.37a.52.52,0,0,0,.16.42A.63.63,0,0,0,244.27,173Z"/><path class="cls-2" d="M249.27,173.95l-.26-.67h0a2,2,0,0,1-.7.59,2.24,2.24,0,0,1-.93.17,1.51,1.51,0,0,1-1.11-.4,1.55,1.55,0,0,1-.41-1.15,1.3,1.3,0,0,1,.55-1.15,3.17,3.17,0,0,1,1.65-.41l.85,0v-.21a.67.67,0,0,0-.76-.75,3.49,3.49,0,0,0-1.38.36l-.44-.91a4,4,0,0,1,1.88-.44,2.35,2.35,0,0,1,1.52.43,1.59,1.59,0,0,1,.53,1.31v3.27Zm-.4-2.28-.52,0a1.66,1.66,0,0,0-.87.21.66.66,0,0,0-.29.59q0,.57.65.57a1,1,0,0,0,.74-.27.94.94,0,0,0,.28-.71Z"/><path class="cls-2" d="M258,173.95l-.46-1.53h-2.34l-.47,1.53h-1.47l2.27-6.45h1.67l2.28,6.45Zm-.79-2.67-.73-2.35c-.05-.18-.09-.32-.12-.43q-.14.56-.83,2.78Z"/><path class="cls-2" d="M263.28,173.95h-1.36v-4.33l0-.67q-.34.34-.47.44l-.74.59-.65-.82,2.07-1.65h1.12Z"/><rect class="cls-4" x="205.59" y="160.01" width="82.04" height="21"/><rect class="cls-3" x="205.59" y="256.01" width="82.04" height="21"/><path class="cls-2" d="M235.05,266.67a3.16,3.16,0,0,1-.9,2.43,3.68,3.68,0,0,1-2.61.84h-1.82v-6.42h2a3.39,3.39,0,0,1,2.44.83A3.05,3.05,0,0,1,235.05,266.67Zm-1.42,0q0-2.07-1.83-2.07h-.73v4.18h.58Q233.64,268.82,233.64,266.71Z"/><path class="cls-2" d="M239.44,269.95l-.26-.67h0a2,2,0,0,1-.7.59,2.24,2.24,0,0,1-.93.17,1.51,1.51,0,0,1-1.11-.4,1.55,1.55,0,0,1-.41-1.15,1.3,1.3,0,0,1,.55-1.15,3.17,3.17,0,0,1,1.65-.41l.85,0v-.21a.67.67,0,0,0-.76-.75,3.49,3.49,0,0,0-1.38.36l-.44-.91a4,4,0,0,1,1.88-.44,2.35,2.35,0,0,1,1.52.43,1.59,1.59,0,0,1,.53,1.31v3.27Zm-.4-2.28-.52,0a1.66,1.66,0,0,0-.87.21.66.66,0,0,0-.29.59q0,.57.65.57a1,1,0,0,0,.74-.27.94.94,0,0,0,.28-.71Z"/><path class="cls-2" d="M243.86,269a2.9,2.9,0,0,0,.84-.15v1a3,3,0,0,1-1.23.22,1.51,1.51,0,0,1-1.17-.41,1.77,1.77,0,0,1-.37-1.22V266h-.64v-.57L242,265l.39-1h.86v1h1.38v1h-1.38v2.37a.52.52,0,0,0,.16.42A.63.63,0,0,0,243.86,269Z"/><path class="cls-2" d="M248.85,269.95l-.26-.67h0a2,2,0,0,1-.7.59,2.24,2.24,0,0,1-.93.17,1.51,1.51,0,0,1-1.11-.4,1.55,1.55,0,0,1-.41-1.15,1.3,1.3,0,0,1,.55-1.15,3.17,3.17,0,0,1,1.65-.41l.85,0v-.21a.67.67,0,0,0-.76-.75,3.49,3.49,0,0,0-1.38.36l-.44-.91a4,4,0,0,1,1.88-.44,2.35,2.35,0,0,1,1.52.43,1.59,1.59,0,0,1,.53,1.31v3.27Zm-.4-2.28-.52,0a1.66,1.66,0,0,0-.87.21.66.66,0,0,0-.29.59q0,.57.65.57a1,1,0,0,0,.74-.27.94.94,0,0,0,.28-.71Z"/><path class="cls-2" d="M257.63,269.95l-.47-1.53h-2.34l-.47,1.53h-1.47l2.27-6.45h1.67l2.28,6.45Zm-.79-2.67-.73-2.35c-.05-.18-.09-.32-.12-.43q-.15.56-.83,2.78Z"/><path class="cls-2" d="M264,269.95h-4.49V269l1.61-1.63q.72-.73.94-1a2.22,2.22,0,0,0,.32-.52,1.34,1.34,0,0,0,.1-.5.73.73,0,0,0-.21-.58.83.83,0,0,0-.57-.19,1.63,1.63,0,0,0-.73.17,3.71,3.71,0,0,0-.73.49l-.74-.87a4.82,4.82,0,0,1,.79-.57,2.86,2.86,0,0,1,.68-.26,3.46,3.46,0,0,1,.83-.09,2.45,2.45,0,0,1,1.06.22,1.7,1.7,0,0,1,.72.62,1.63,1.63,0,0,1,.25.9,2.22,2.22,0,0,1-.16.83,3.21,3.21,0,0,1-.48.8A11.8,11.8,0,0,1,262,268l-.83.78v.06H264Z"/><rect class="cls-4" x="205.59" y="256.01" width="82.04" height="21"/><rect class="cls-2" x="103.55" y="190.01" width="82.04" height="21"/><path class="cls-3" d="M133.56,203.95H132.2v-5.29h-1.74v-1.13h4.85v1.13h-1.74Z"/><path class="cls-3" d="M136.17,197.76q0-.65.73-.65t.73.65a.64.64,0,0,1-.18.49.77.77,0,0,1-.55.17Q136.17,198.42,136.17,197.76Zm1.4,6.18h-1.34V199h1.34Z"/><path class="cls-3" d="M141.08,203a2.9,2.9,0,0,0,.84-.15v1a3,3,0,0,1-1.23.22,1.51,1.51,0,0,1-1.17-.41,1.77,1.77,0,0,1-.37-1.22V200h-.64v-.57l.74-.45.39-1h.86v1h1.38v1h-1.38v2.37a.52.52,0,0,0,.16.42A.63.63,0,0,0,141.08,203Z"/><path class="cls-3" d="M145.17,204a2.54,2.54,0,0,1-1.85-.65,2.48,2.48,0,0,1-.67-1.86,2.73,2.73,0,0,1,.62-1.91,2.2,2.2,0,0,1,1.71-.67,2.16,2.16,0,0,1,1.62.59,2.24,2.24,0,0,1,.58,1.64v.65H144a1.29,1.29,0,0,0,.34.89,1.19,1.19,0,0,0,.89.32,3.69,3.69,0,0,0,.84-.09,4.14,4.14,0,0,0,.83-.29v1a3.08,3.08,0,0,1-.75.26A4.7,4.7,0,0,1,145.17,204ZM145,199.9a.85.85,0,0,0-.67.27,1.25,1.25,0,0,0-.28.77h1.88a1.12,1.12,0,0,0-.26-.77A.88.88,0,0,0,145,199.9Z"/><path class="cls-3" d="M149.65,203.95h-1.34v-6.84h1.34Z"/><path class="cls-3" d="M153.58,197.52h2a3.86,3.86,0,0,1,2,.39,1.35,1.35,0,0,1,.62,1.24,1.56,1.56,0,0,1-.27.95,1.08,1.08,0,0,1-.72.44v0a1.41,1.41,0,0,1,.88.51,1.66,1.66,0,0,1,.27,1,1.64,1.64,0,0,1-.63,1.37,2.75,2.75,0,0,1-1.73.49h-2.4Zm1.36,2.54h.79a1.45,1.45,0,0,0,.8-.17.64.64,0,0,0,.25-.57.57.57,0,0,0-.27-.53,1.75,1.75,0,0,0-.85-.16h-.72Zm0,1.08v1.67h.89a1.32,1.32,0,0,0,.83-.21.8.8,0,0,0,.27-.66q0-.8-1.14-.8Z"/><rect class="cls-4" x="103.55" y="190.01" width="82.04" height="21"/><rect class="cls-2" x="103.55" y="286.01" width="82.04" height="21"/><path class="cls-3" d="M133.56,299.95H132.2v-5.29h-1.74v-1.13h4.85v1.13h-1.74Z"/><path class="cls-3" d="M136.17,293.76q0-.65.73-.65t.73.65a.64.64,0,0,1-.18.49.77.77,0,0,1-.55.17Q136.17,294.42,136.17,293.76Zm1.4,6.18h-1.34V295h1.34Z"/><path class="cls-3" d="M141.08,299a2.9,2.9,0,0,0,.84-.15v1a3,3,0,0,1-1.23.22,1.51,1.51,0,0,1-1.17-.41,1.77,1.77,0,0,1-.37-1.22V296h-.64v-.57l.74-.45.39-1h.86v1h1.38v1h-1.38v2.37a.52.52,0,0,0,.16.42A.63.63,0,0,0,141.08,299Z"/><path class="cls-3" d="M145.17,300a2.54,2.54,0,0,1-1.85-.65,2.48,2.48,0,0,1-.67-1.86,2.73,2.73,0,0,1,.62-1.91,2.2,2.2,0,0,1,1.71-.67,2.16,2.16,0,0,1,1.62.59,2.24,2.24,0,0,1,.58,1.64v.65H144a1.29,1.29,0,0,0,.34.89,1.19,1.19,0,0,0,.89.32,3.69,3.69,0,0,0,.84-.09,4.14,4.14,0,0,0,.83-.29v1a3.08,3.08,0,0,1-.75.26A4.7,4.7,0,0,1,145.17,300ZM145,295.9a.85.85,0,0,0-.67.27,1.25,1.25,0,0,0-.28.77h1.88a1.12,1.12,0,0,0-.26-.77A.88.88,0,0,0,145,295.9Z"/><path class="cls-3" d="M149.65,299.95h-1.34v-6.84h1.34Z"/><path class="cls-3" d="M153.58,293.52h2a3.86,3.86,0,0,1,2,.39,1.35,1.35,0,0,1,.62,1.24,1.56,1.56,0,0,1-.27.95,1.08,1.08,0,0,1-.72.44v0a1.41,1.41,0,0,1,.88.51,1.66,1.66,0,0,1,.27,1,1.64,1.64,0,0,1-.63,1.37,2.75,2.75,0,0,1-1.73.49h-2.4Zm1.36,2.54h.79a1.45,1.45,0,0,0,.8-.17.64.64,0,0,0,.25-.57.57.57,0,0,0-.27-.53,1.75,1.75,0,0,0-.85-.16h-.72Zm0,1.08v1.67h.89a1.32,1.32,0,0,0,.83-.21.8.8,0,0,0,.27-.66q0-.8-1.14-.8Z"/><rect class="cls-4" x="103.55" y="286.01" width="82.04" height="21"/><rect class="cls-3" x="205.59" y="190.01" width="82.04" height="21"/><path class="cls-2" d="M235.54,200.67a3.16,3.16,0,0,1-.9,2.43,3.68,3.68,0,0,1-2.61.84h-1.82v-6.42h2a3.39,3.39,0,0,1,2.44.83A3.05,3.05,0,0,1,235.54,200.67Zm-1.42,0q0-2.07-1.83-2.07h-.73v4.18h.58Q234.13,202.82,234.13,200.71Z"/><path class="cls-2" d="M239.92,203.95l-.26-.67h0a2,2,0,0,1-.7.59,2.24,2.24,0,0,1-.93.17,1.51,1.51,0,0,1-1.11-.4,1.55,1.55,0,0,1-.41-1.15,1.3,1.3,0,0,1,.55-1.15,3.17,3.17,0,0,1,1.65-.41l.85,0v-.21a.67.67,0,0,0-.76-.75,3.49,3.49,0,0,0-1.38.36l-.44-.91a4,4,0,0,1,1.88-.44,2.35,2.35,0,0,1,1.52.43,1.59,1.59,0,0,1,.53,1.31v3.27Zm-.4-2.28-.52,0a1.66,1.66,0,0,0-.87.21.66.66,0,0,0-.29.59q0,.57.65.57a1,1,0,0,0,.74-.27.94.94,0,0,0,.28-.71Z"/><path class="cls-2" d="M244.35,203a2.9,2.9,0,0,0,.84-.15v1A3,3,0,0,1,244,204a1.51,1.51,0,0,1-1.17-.41,1.77,1.77,0,0,1-.37-1.22V200h-.64v-.57l.74-.45.39-1h.86v1h1.38v1h-1.38v2.37a.52.52,0,0,0,.16.42A.63.63,0,0,0,244.35,203Z"/><path class="cls-2" d="M249.35,203.95l-.26-.67h0a2,2,0,0,1-.7.59,2.24,2.24,0,0,1-.93.17,1.51,1.51,0,0,1-1.11-.4,1.55,1.55,0,0,1-.41-1.15,1.3,1.3,0,0,1,.55-1.15,3.17,3.17,0,0,1,1.65-.41l.85,0v-.21a.67.67,0,0,0-.76-.75,3.49,3.49,0,0,0-1.38.36l-.44-.91a4,4,0,0,1,1.88-.44,2.35,2.35,0,0,1,1.52.43,1.59,1.59,0,0,1,.53,1.31v3.27Zm-.4-2.28-.52,0a1.66,1.66,0,0,0-.87.21.66.66,0,0,0-.29.59q0,.57.65.57a1,1,0,0,0,.74-.27.94.94,0,0,0,.28-.71Z"/><path class="cls-2" d="M254.2,197.52h2a3.86,3.86,0,0,1,2,.39,1.36,1.36,0,0,1,.62,1.24,1.56,1.56,0,0,1-.27.95,1.08,1.08,0,0,1-.72.44v0a1.42,1.42,0,0,1,.88.51,1.66,1.66,0,0,1,.27,1,1.64,1.64,0,0,1-.63,1.37,2.75,2.75,0,0,1-1.72.49h-2.4Zm1.36,2.54h.79a1.44,1.44,0,0,0,.8-.17.64.64,0,0,0,.25-.57.57.57,0,0,0-.27-.53,1.74,1.74,0,0,0-.85-.16h-.72Zm0,1.08v1.67h.89a1.32,1.32,0,0,0,.83-.21.8.8,0,0,0,.27-.66q0-.8-1.14-.8Z"/><path class="cls-2" d="M263.2,203.95h-1.36v-4.33l0-.67q-.34.34-.47.44l-.74.59-.66-.82,2.07-1.65h1.12Z"/><rect class="cls-4" x="205.59" y="190.01" width="82.04" height="21"/><rect class="cls-3" x="205.59" y="286.01" width="82.04" height="21"/><path class="cls-2" d="M235.14,296.67a3.16,3.16,0,0,1-.9,2.43,3.68,3.68,0,0,1-2.61.84h-1.82v-6.42h2a3.39,3.39,0,0,1,2.44.83A3.05,3.05,0,0,1,235.14,296.67Zm-1.42,0q0-2.07-1.83-2.07h-.73v4.18h.58Q233.72,298.82,233.72,296.71Z"/><path class="cls-2" d="M239.52,299.95l-.26-.67h0a2,2,0,0,1-.7.59,2.24,2.24,0,0,1-.93.17,1.51,1.51,0,0,1-1.11-.4,1.55,1.55,0,0,1-.41-1.15,1.3,1.3,0,0,1,.55-1.15,3.17,3.17,0,0,1,1.65-.41l.85,0v-.21a.67.67,0,0,0-.76-.75,3.49,3.49,0,0,0-1.38.36l-.44-.91a4,4,0,0,1,1.88-.44,2.35,2.35,0,0,1,1.52.43,1.59,1.59,0,0,1,.53,1.31v3.27Zm-.4-2.28-.52,0a1.66,1.66,0,0,0-.87.21.66.66,0,0,0-.29.59q0,.57.65.57a1,1,0,0,0,.74-.27.94.94,0,0,0,.28-.71Z"/><path class="cls-2" d="M243.94,299a2.9,2.9,0,0,0,.84-.15v1a3,3,0,0,1-1.23.22,1.51,1.51,0,0,1-1.17-.41,1.77,1.77,0,0,1-.37-1.22V296h-.64v-.57l.74-.45.39-1h.86v1h1.38v1h-1.38v2.37a.52.52,0,0,0,.16.42A.63.63,0,0,0,243.94,299Z"/><path class="cls-2" d="M248.93,299.95l-.26-.67h0a2,2,0,0,1-.7.59,2.24,2.24,0,0,1-.93.17,1.51,1.51,0,0,1-1.11-.4,1.55,1.55,0,0,1-.41-1.15,1.3,1.3,0,0,1,.55-1.15,3.17,3.17,0,0,1,1.65-.41l.85,0v-.21a.67.67,0,0,0-.76-.75,3.49,3.49,0,0,0-1.38.36l-.44-.91a4,4,0,0,1,1.88-.44,2.35,2.35,0,0,1,1.52.43,1.59,1.59,0,0,1,.53,1.31v3.27Zm-.4-2.28-.52,0a1.66,1.66,0,0,0-.87.21.66.66,0,0,0-.29.59q0,.57.65.57a1,1,0,0,0,.74-.27.94.94,0,0,0,.28-.71Z"/><path class="cls-2" d="M253.78,293.52h2a3.85,3.85,0,0,1,2,.39,1.35,1.35,0,0,1,.62,1.24,1.56,1.56,0,0,1-.27.95,1.08,1.08,0,0,1-.72.44v0a1.41,1.41,0,0,1,.88.51,1.86,1.86,0,0,1-.36,2.36,2.75,2.75,0,0,1-1.73.49h-2.4Zm1.36,2.54h.79a1.45,1.45,0,0,0,.8-.17.64.64,0,0,0,.25-.57.57.57,0,0,0-.27-.53,1.75,1.75,0,0,0-.86-.16h-.72Zm0,1.08v1.67H256a1.32,1.32,0,0,0,.83-.21.8.8,0,0,0,.27-.66q0-.8-1.14-.8Z"/><path class="cls-2" d="M263.92,299.95h-4.49V299l1.61-1.63q.72-.73.94-1a2.22,2.22,0,0,0,.32-.52,1.34,1.34,0,0,0,.1-.5.74.74,0,0,0-.21-.58.83.83,0,0,0-.57-.19,1.64,1.64,0,0,0-.72.17,3.77,3.77,0,0,0-.73.49l-.74-.87a4.82,4.82,0,0,1,.79-.57,2.87,2.87,0,0,1,.68-.26,3.46,3.46,0,0,1,.83-.09,2.44,2.44,0,0,1,1.06.22,1.69,1.69,0,0,1,.72.62,1.63,1.63,0,0,1,.25.9,2.22,2.22,0,0,1-.16.83,3.22,3.22,0,0,1-.48.8,11.76,11.76,0,0,1-1.15,1.16l-.83.78v.06h2.8Z"/><rect class="cls-4" x="205.59" y="286.01" width="82.04" height="21"/><rect class="cls-2" x="103.55" y="220.01" width="82.04" height="21"/><path class="cls-3" d="M133.72,233.95h-1.36v-5.29h-1.74v-1.13h4.85v1.13h-1.74Z"/><path class="cls-3" d="M136.32,227.76q0-.65.73-.65t.73.65a.64.64,0,0,1-.18.49.77.77,0,0,1-.55.17Q136.32,228.42,136.32,227.76Zm1.4,6.18h-1.34V229h1.34Z"/><path class="cls-3" d="M141.23,233a2.9,2.9,0,0,0,.84-.15v1a3,3,0,0,1-1.23.22,1.51,1.51,0,0,1-1.17-.41,1.77,1.77,0,0,1-.37-1.22V230h-.64v-.57l.74-.45.39-1h.86v1H142v1h-1.38v2.37a.52.52,0,0,0,.16.42A.63.63,0,0,0,141.23,233Z"/><path class="cls-3" d="M145.33,234a2.54,2.54,0,0,1-1.85-.65,2.48,2.48,0,0,1-.67-1.86,2.73,2.73,0,0,1,.62-1.91,2.2,2.2,0,0,1,1.71-.67,2.16,2.16,0,0,1,1.62.59,2.24,2.24,0,0,1,.58,1.64v.65h-3.17a1.29,1.29,0,0,0,.34.89,1.19,1.19,0,0,0,.89.32,3.69,3.69,0,0,0,.84-.09,4.14,4.14,0,0,0,.83-.29v1a3.08,3.08,0,0,1-.75.26A4.7,4.7,0,0,1,145.33,234Zm-.19-4.14a.85.85,0,0,0-.67.27,1.25,1.25,0,0,0-.28.77h1.88a1.12,1.12,0,0,0-.26-.77A.88.88,0,0,0,145.14,229.9Z"/><path class="cls-3" d="M149.81,233.95h-1.34v-6.84h1.34Z"/><path class="cls-3" d="M156.47,228.57a1.39,1.39,0,0,0-1.19.58,2.69,2.69,0,0,0-.42,1.61q0,2.15,1.61,2.15a5.07,5.07,0,0,0,1.64-.34v1.14a4.53,4.53,0,0,1-1.77.33,2.69,2.69,0,0,1-2.14-.85,3.6,3.6,0,0,1-.74-2.44,4,4,0,0,1,.36-1.76,2.64,2.64,0,0,1,1-1.16,3.11,3.11,0,0,1,1.6-.4,4.32,4.32,0,0,1,1.88.45l-.44,1.11a7.27,7.27,0,0,0-.73-.3A2.16,2.16,0,0,0,156.47,228.57Z"/><rect class="cls-4" x="103.55" y="220.01" width="82.04" height="21"/><rect class="cls-2" x="103.55" y="316.01" width="82.04" height="21"/><path class="cls-3" d="M133.72,329.95h-1.36v-5.29h-1.74v-1.13h4.85v1.13h-1.74Z"/><path class="cls-3" d="M136.32,323.76q0-.65.73-.65t.73.65a.64.64,0,0,1-.18.49.77.77,0,0,1-.55.17Q136.32,324.42,136.32,323.76Zm1.4,6.18h-1.34V325h1.34Z"/><path class="cls-3" d="M141.23,329a2.9,2.9,0,0,0,.84-.15v1a3,3,0,0,1-1.23.22,1.51,1.51,0,0,1-1.17-.41,1.77,1.77,0,0,1-.37-1.22V326h-.64v-.57l.74-.45.39-1h.86v1H142v1h-1.38v2.37a.52.52,0,0,0,.16.42A.63.63,0,0,0,141.23,329Z"/><path class="cls-3" d="M145.33,330a2.54,2.54,0,0,1-1.85-.65,2.48,2.48,0,0,1-.67-1.86,2.73,2.73,0,0,1,.62-1.91,2.2,2.2,0,0,1,1.71-.67,2.16,2.16,0,0,1,1.62.59,2.24,2.24,0,0,1,.58,1.64v.65h-3.17a1.29,1.29,0,0,0,.34.89,1.19,1.19,0,0,0,.89.32,3.69,3.69,0,0,0,.84-.09,4.14,4.14,0,0,0,.83-.29v1a3.08,3.08,0,0,1-.75.26A4.7,4.7,0,0,1,145.33,330Zm-.19-4.14a.85.85,0,0,0-.67.27,1.25,1.25,0,0,0-.28.77h1.88a1.12,1.12,0,0,0-.26-.77A.88.88,0,0,0,145.14,325.9Z"/><path class="cls-3" d="M149.81,329.95h-1.34v-6.84h1.34Z"/><path class="cls-3" d="M156.47,324.57a1.39,1.39,0,0,0-1.19.58,2.69,2.69,0,0,0-.42,1.61q0,2.15,1.61,2.15a5.07,5.07,0,0,0,1.64-.34v1.14a4.53,4.53,0,0,1-1.77.33,2.69,2.69,0,0,1-2.14-.85,3.6,3.6,0,0,1-.74-2.44,4,4,0,0,1,.36-1.76,2.64,2.64,0,0,1,1-1.16,3.11,3.11,0,0,1,1.6-.4,4.32,4.32,0,0,1,1.88.45l-.44,1.11a7.27,7.27,0,0,0-.73-.3A2.16,2.16,0,0,0,156.47,324.57Z"/><rect class="cls-4" x="103.55" y="316.01" width="82.04" height="21"/><rect class="cls-3" x="205.59" y="220.01" width="82.04" height="21"/><path class="cls-2" d="M235.7,230.67a3.16,3.16,0,0,1-.9,2.43,3.68,3.68,0,0,1-2.61.84h-1.82v-6.42h2a3.39,3.39,0,0,1,2.44.83A3.05,3.05,0,0,1,235.7,230.67Zm-1.42,0q0-2.07-1.83-2.07h-.73v4.18h.58Q234.28,232.82,234.28,230.71Z"/><path class="cls-2" d="M240.08,233.95l-.26-.67h0a2,2,0,0,1-.7.59,2.24,2.24,0,0,1-.93.17,1.51,1.51,0,0,1-1.11-.4,1.55,1.55,0,0,1-.41-1.15,1.3,1.3,0,0,1,.55-1.15,3.17,3.17,0,0,1,1.65-.41l.85,0v-.21a.67.67,0,0,0-.76-.75,3.49,3.49,0,0,0-1.38.36l-.44-.91a4,4,0,0,1,1.88-.44,2.35,2.35,0,0,1,1.52.43,1.59,1.59,0,0,1,.53,1.31v3.27Zm-.4-2.28-.52,0a1.66,1.66,0,0,0-.87.21.66.66,0,0,0-.29.59q0,.57.65.57a1,1,0,0,0,.74-.27.94.94,0,0,0,.28-.71Z"/><path class="cls-2" d="M244.51,233a2.9,2.9,0,0,0,.84-.15v1a3,3,0,0,1-1.23.22,1.51,1.51,0,0,1-1.17-.41,1.77,1.77,0,0,1-.37-1.22V230h-.64v-.57l.74-.45.39-1h.86v1h1.38v1h-1.38v2.37a.52.52,0,0,0,.16.42A.63.63,0,0,0,244.51,233Z"/><path class="cls-2" d="M249.5,233.95l-.26-.67h0a2,2,0,0,1-.7.59,2.25,2.25,0,0,1-.93.17,1.51,1.51,0,0,1-1.11-.4,1.55,1.55,0,0,1-.41-1.15,1.3,1.3,0,0,1,.55-1.15,3.17,3.17,0,0,1,1.65-.41l.85,0v-.21a.67.67,0,0,0-.77-.75,3.49,3.49,0,0,0-1.38.36l-.44-.91a4,4,0,0,1,1.88-.44,2.35,2.35,0,0,1,1.52.43,1.59,1.59,0,0,1,.53,1.31v3.27Zm-.39-2.28-.52,0a1.66,1.66,0,0,0-.87.21.66.66,0,0,0-.29.59q0,.57.65.57a1,1,0,0,0,.75-.27.94.94,0,0,0,.28-.71Z"/><path class="cls-2" d="M257.08,228.57a1.39,1.39,0,0,0-1.19.58,2.69,2.69,0,0,0-.42,1.61q0,2.15,1.61,2.15a5.08,5.08,0,0,0,1.64-.34v1.14A4.53,4.53,0,0,1,257,234a2.69,2.69,0,0,1-2.14-.85,3.6,3.6,0,0,1-.74-2.44,4,4,0,0,1,.36-1.76,2.64,2.64,0,0,1,1-1.16,3.11,3.11,0,0,1,1.6-.4,4.32,4.32,0,0,1,1.88.45l-.44,1.11a7.27,7.27,0,0,0-.72-.3A2.16,2.16,0,0,0,257.08,228.57Z"/><path class="cls-2" d="M263,233.95h-1.36v-4.33l0-.67q-.34.34-.47.44l-.74.59-.65-.82,2.07-1.65H263Z"/><rect class="cls-4" x="205.59" y="220.01" width="82.04" height="21"/><rect class="cls-3" x="205.59" y="316.01" width="82.04" height="21"/><path class="cls-2" d="M235.29,326.67a3.16,3.16,0,0,1-.9,2.43,3.68,3.68,0,0,1-2.61.84H230v-6.42h2a3.39,3.39,0,0,1,2.44.83A3.05,3.05,0,0,1,235.29,326.67Zm-1.42,0q0-2.07-1.83-2.07h-.73v4.18h.58Q233.88,328.82,233.88,326.71Z"/><path class="cls-2" d="M239.67,329.95l-.26-.67h0a2,2,0,0,1-.7.59,2.24,2.24,0,0,1-.93.17,1.51,1.51,0,0,1-1.11-.4,1.55,1.55,0,0,1-.41-1.15,1.3,1.3,0,0,1,.55-1.15,3.17,3.17,0,0,1,1.65-.41l.85,0v-.21a.67.67,0,0,0-.76-.75,3.49,3.49,0,0,0-1.38.36l-.44-.91a4,4,0,0,1,1.88-.44,2.35,2.35,0,0,1,1.52.43,1.59,1.59,0,0,1,.53,1.31v3.27Zm-.4-2.28-.52,0a1.66,1.66,0,0,0-.87.21.66.66,0,0,0-.29.59q0,.57.65.57a1,1,0,0,0,.74-.27.94.94,0,0,0,.28-.71Z"/><path class="cls-2" d="M244.1,329a2.9,2.9,0,0,0,.84-.15v1a3,3,0,0,1-1.23.22,1.51,1.51,0,0,1-1.17-.41,1.77,1.77,0,0,1-.37-1.22V326h-.64v-.57l.74-.45.39-1h.86v1h1.38v1h-1.38v2.37a.52.52,0,0,0,.16.42A.63.63,0,0,0,244.1,329Z"/><path class="cls-2" d="M249.09,329.95l-.26-.67h0a2,2,0,0,1-.7.59,2.24,2.24,0,0,1-.93.17,1.51,1.51,0,0,1-1.11-.4,1.55,1.55,0,0,1-.41-1.15,1.3,1.3,0,0,1,.55-1.15,3.17,3.17,0,0,1,1.65-.41l.85,0v-.21a.67.67,0,0,0-.76-.75,3.49,3.49,0,0,0-1.38.36l-.44-.91a4,4,0,0,1,1.88-.44,2.35,2.35,0,0,1,1.52.43,1.59,1.59,0,0,1,.53,1.31v3.27Zm-.4-2.28-.52,0a1.66,1.66,0,0,0-.87.21.66.66,0,0,0-.29.59q0,.57.65.57a1,1,0,0,0,.74-.27.94.94,0,0,0,.28-.71Z"/><path class="cls-2" d="M256.67,324.57a1.39,1.39,0,0,0-1.19.58,2.69,2.69,0,0,0-.42,1.61q0,2.15,1.61,2.15a5.07,5.07,0,0,0,1.64-.34v1.14a4.53,4.53,0,0,1-1.77.33,2.69,2.69,0,0,1-2.14-.85,3.6,3.6,0,0,1-.74-2.44A4,4,0,0,1,254,325a2.63,2.63,0,0,1,1-1.16,3.11,3.11,0,0,1,1.6-.4,4.33,4.33,0,0,1,1.88.45l-.44,1.11a7.28,7.28,0,0,0-.73-.3A2.16,2.16,0,0,0,256.67,324.57Z"/><path class="cls-2" d="M263.5,325a1.51,1.51,0,0,1-.37,1,1.89,1.89,0,0,1-1,.58v0a2,2,0,0,1,1.18.47,1.33,1.33,0,0,1,.4,1,1.71,1.71,0,0,1-.67,1.44,3.09,3.09,0,0,1-1.92.52,4.65,4.65,0,0,1-1.85-.35v-1.16a4.19,4.19,0,0,0,.82.31,3.47,3.47,0,0,0,.89.12,1.72,1.72,0,0,0,1-.23.84.84,0,0,0,.32-.73.66.66,0,0,0-.37-.64,2.73,2.73,0,0,0-1.18-.19h-.49v-1h.5a2.32,2.32,0,0,0,1.09-.2.71.71,0,0,0,.35-.67q0-.73-.91-.73a2.1,2.1,0,0,0-.64.11,3.11,3.11,0,0,0-.73.36l-.63-.94a3.49,3.49,0,0,1,2.1-.63,2.72,2.72,0,0,1,1.58.4A1.3,1.3,0,0,1,263.5,325Z"/><rect class="cls-4" x="205.59" y="316.01" width="82.04" height="21"/><rect class="cls-3" x="85.04" y="296.51" width="221.1" height="72"/><line class="cls-5" x1="88.03" y1="296.51" x2="304.65" y2="296.51"/><path class="cls-6" d="M306.14,296.51h0m-221.1,0h0"/><rect class="cls-1" x="93.54" y="336" width="204.1" height="101.01"/><rect class="cls-3" x="171.58" y="346.01" width="82.04" height="21"/><path class="cls-2" d="M201.44,356.67a3.16,3.16,0,0,1-.9,2.43,3.68,3.68,0,0,1-2.61.84h-1.82v-6.42h2a3.39,3.39,0,0,1,2.44.83A3.05,3.05,0,0,1,201.44,356.67Zm-1.42,0q0-2.07-1.83-2.07h-.73v4.18h.58Q200,358.82,200,356.71Z"/><path class="cls-2" d="M205.83,359.95l-.26-.67h0a2,2,0,0,1-.7.59,2.24,2.24,0,0,1-.93.17,1.51,1.51,0,0,1-1.11-.4,1.55,1.55,0,0,1-.41-1.15,1.3,1.3,0,0,1,.55-1.15,3.17,3.17,0,0,1,1.65-.41l.85,0v-.21a.67.67,0,0,0-.76-.75,3.49,3.49,0,0,0-1.38.36l-.44-.91a4,4,0,0,1,1.88-.44,2.35,2.35,0,0,1,1.52.43,1.59,1.59,0,0,1,.53,1.31v3.27Zm-.4-2.28-.52,0a1.66,1.66,0,0,0-.87.21.66.66,0,0,0-.29.59q0,.57.65.57a1,1,0,0,0,.74-.27.94.94,0,0,0,.28-.71Z"/><path class="cls-2" d="M210.26,359a2.9,2.9,0,0,0,.84-.15v1a3,3,0,0,1-1.23.22,1.51,1.51,0,0,1-1.17-.41,1.77,1.77,0,0,1-.37-1.22V356h-.64v-.57l.74-.45.39-1h.86v1H211v1h-1.38v2.37a.52.52,0,0,0,.16.42A.63.63,0,0,0,210.26,359Z"/><path class="cls-2" d="M215.25,359.95l-.26-.67h0a2,2,0,0,1-.7.59,2.24,2.24,0,0,1-.93.17,1.51,1.51,0,0,1-1.11-.4,1.55,1.55,0,0,1-.41-1.15,1.3,1.3,0,0,1,.55-1.15,3.17,3.17,0,0,1,1.65-.41l.85,0v-.21a.67.67,0,0,0-.76-.75,3.49,3.49,0,0,0-1.38.36l-.44-.91a4,4,0,0,1,1.88-.44,2.35,2.35,0,0,1,1.52.43,1.59,1.59,0,0,1,.53,1.31v3.27Zm-.4-2.28-.52,0a1.66,1.66,0,0,0-.87.21.66.66,0,0,0-.29.59q0,.57.65.57a1,1,0,0,0,.74-.27.94.94,0,0,0,.28-.71Z"/><path class="cls-2" d="M224,359.95l-.47-1.53h-2.34l-.47,1.53h-1.47l2.27-6.45h1.67l2.28,6.45Zm-.79-2.67-.73-2.35c-.05-.18-.09-.32-.12-.43q-.15.56-.83,2.78Z"/><path class="cls-2" d="M229.26,359.95H227.9v-4.33l0-.67q-.34.34-.47.44l-.74.59-.65-.82,2.07-1.65h1.12Z"/><rect class="cls-4" x="171.58" y="346.01" width="82.04" height="21"/><rect class="cls-3" x="273.63" y="346.01" width="82.04" height="21"/><path class="cls-2" d="M303.09,356.67a3.16,3.16,0,0,1-.9,2.43,3.68,3.68,0,0,1-2.61.84h-1.82v-6.42h2a3.39,3.39,0,0,1,2.44.83A3.05,3.05,0,0,1,303.09,356.67Zm-1.41,0q0-2.07-1.83-2.07h-.73v4.18h.58Q301.67,358.82,301.67,356.71Z"/><path class="cls-2" d="M307.47,359.95l-.26-.67h0a2,2,0,0,1-.7.59,2.24,2.24,0,0,1-.93.17,1.51,1.51,0,0,1-1.11-.4,1.55,1.55,0,0,1-.41-1.15,1.3,1.3,0,0,1,.55-1.15,3.17,3.17,0,0,1,1.65-.41l.85,0v-.21a.67.67,0,0,0-.76-.75,3.49,3.49,0,0,0-1.38.36l-.44-.91a4,4,0,0,1,1.88-.44,2.35,2.35,0,0,1,1.52.43,1.59,1.59,0,0,1,.53,1.31v3.27Zm-.4-2.28-.52,0a1.66,1.66,0,0,0-.87.21.66.66,0,0,0-.29.59q0,.57.65.57a1,1,0,0,0,.75-.27.94.94,0,0,0,.28-.71Z"/><path class="cls-2" d="M311.9,359a2.9,2.9,0,0,0,.84-.15v1a3,3,0,0,1-1.23.22,1.51,1.51,0,0,1-1.17-.41,1.77,1.77,0,0,1-.37-1.22V356h-.64v-.57l.74-.45.39-1h.86v1h1.38v1h-1.38v2.37a.52.52,0,0,0,.16.42A.64.64,0,0,0,311.9,359Z"/><path class="cls-2" d="M316.89,359.95l-.26-.67h0a2,2,0,0,1-.7.59,2.24,2.24,0,0,1-.93.17,1.51,1.51,0,0,1-1.11-.4,1.55,1.55,0,0,1-.41-1.15,1.3,1.3,0,0,1,.55-1.15,3.17,3.17,0,0,1,1.65-.41l.85,0v-.21a.67.67,0,0,0-.76-.75,3.49,3.49,0,0,0-1.38.36l-.44-.91a4,4,0,0,1,1.88-.44,2.35,2.35,0,0,1,1.52.43,1.59,1.59,0,0,1,.53,1.31v3.27Zm-.4-2.28-.52,0a1.66,1.66,0,0,0-.87.21.66.66,0,0,0-.29.59q0,.57.65.57a1,1,0,0,0,.75-.27.94.94,0,0,0,.28-.71Z"/><path class="cls-2" d="M325.67,359.95l-.47-1.53h-2.34l-.46,1.53h-1.47l2.27-6.45h1.67l2.28,6.45Zm-.79-2.67q-.65-2.08-.73-2.35c-.05-.18-.09-.32-.12-.43q-.15.56-.83,2.78Z"/><path class="cls-2" d="M332,359.95h-4.49V359l1.61-1.63q.71-.73.94-1a2.22,2.22,0,0,0,.32-.52,1.34,1.34,0,0,0,.1-.5.73.73,0,0,0-.21-.58.83.83,0,0,0-.57-.19,1.63,1.63,0,0,0-.72.17,3.74,3.74,0,0,0-.73.49l-.74-.87a4.77,4.77,0,0,1,.79-.57,2.85,2.85,0,0,1,.68-.26,3.46,3.46,0,0,1,.83-.09,2.45,2.45,0,0,1,1.06.22,1.7,1.7,0,0,1,.72.62,1.63,1.63,0,0,1,.25.9,2.22,2.22,0,0,1-.16.83,3.22,3.22,0,0,1-.48.8,11.8,11.8,0,0,1-1.15,1.16l-.83.78v.06H332Z"/><rect class="cls-4" x="273.63" y="346.01" width="82.04" height="21"/><rect class="cls-3" x="171.58" y="376.01" width="82.04" height="21"/><path class="cls-2" d="M201.52,386.67a3.16,3.16,0,0,1-.9,2.43,3.68,3.68,0,0,1-2.61.84h-1.82v-6.42h2a3.39,3.39,0,0,1,2.44.83A3.05,3.05,0,0,1,201.52,386.67Zm-1.42,0q0-2.07-1.83-2.07h-.73v4.18h.58Q200.11,388.82,200.11,386.71Z"/><path class="cls-2" d="M205.91,389.95l-.26-.67h0a2,2,0,0,1-.7.59,2.24,2.24,0,0,1-.93.17,1.51,1.51,0,0,1-1.11-.4,1.55,1.55,0,0,1-.41-1.15,1.3,1.3,0,0,1,.55-1.15,3.17,3.17,0,0,1,1.65-.41l.85,0v-.21a.67.67,0,0,0-.76-.75,3.49,3.49,0,0,0-1.38.36l-.44-.91a4,4,0,0,1,1.88-.44,2.35,2.35,0,0,1,1.52.43,1.59,1.59,0,0,1,.53,1.31v3.27Zm-.4-2.28-.52,0a1.66,1.66,0,0,0-.87.21.66.66,0,0,0-.29.59q0,.57.65.57a1,1,0,0,0,.74-.27.94.94,0,0,0,.28-.71Z"/><path class="cls-2" d="M210.34,389a2.9,2.9,0,0,0,.84-.15v1A3,3,0,0,1,210,390a1.51,1.51,0,0,1-1.17-.41,1.77,1.77,0,0,1-.37-1.22V386h-.64v-.57l.74-.45.39-1h.86v1h1.38v1h-1.38v2.37a.52.52,0,0,0,.16.42A.63.63,0,0,0,210.34,389Z"/><path class="cls-2" d="M215.33,389.95l-.26-.67h0a2,2,0,0,1-.7.59,2.24,2.24,0,0,1-.93.17,1.51,1.51,0,0,1-1.11-.4,1.55,1.55,0,0,1-.41-1.15,1.3,1.3,0,0,1,.55-1.15,3.17,3.17,0,0,1,1.65-.41l.85,0v-.21a.67.67,0,0,0-.76-.75,3.49,3.49,0,0,0-1.38.36l-.44-.91a4,4,0,0,1,1.88-.44,2.35,2.35,0,0,1,1.52.43,1.59,1.59,0,0,1,.53,1.31v3.27Zm-.4-2.28-.52,0a1.66,1.66,0,0,0-.87.21.66.66,0,0,0-.29.59q0,.57.65.57a1,1,0,0,0,.74-.27.94.94,0,0,0,.28-.71Z"/><path class="cls-2" d="M220.18,383.52h2a3.86,3.86,0,0,1,2,.39,1.35,1.35,0,0,1,.62,1.24,1.56,1.56,0,0,1-.27.95,1.08,1.08,0,0,1-.72.44v0a1.41,1.41,0,0,1,.88.51,1.66,1.66,0,0,1,.27,1,1.64,1.64,0,0,1-.63,1.37,2.75,2.75,0,0,1-1.73.49h-2.4Zm1.36,2.54h.79a1.45,1.45,0,0,0,.8-.17.64.64,0,0,0,.25-.57.57.57,0,0,0-.27-.53,1.75,1.75,0,0,0-.85-.16h-.72Zm0,1.08v1.67h.89a1.32,1.32,0,0,0,.83-.21.8.8,0,0,0,.27-.66q0-.8-1.14-.8Z"/><path class="cls-2" d="M229.18,389.95h-1.36v-4.33l0-.67q-.34.34-.47.44l-.74.59-.65-.82,2.07-1.65h1.12Z"/><rect class="cls-4" x="171.58" y="376.01" width="82.04" height="21"/><rect class="cls-3" x="273.63" y="376.01" width="82.04" height="21"/><path class="cls-2" d="M303.17,386.67a3.16,3.16,0,0,1-.9,2.43,3.68,3.68,0,0,1-2.61.84h-1.82v-6.42h2a3.39,3.39,0,0,1,2.44.83A3.05,3.05,0,0,1,303.17,386.67Zm-1.42,0q0-2.07-1.83-2.07h-.72v4.18h.58Q301.75,388.82,301.75,386.71Z"/><path class="cls-2" d="M307.55,389.95l-.26-.67h0a2,2,0,0,1-.7.59,2.24,2.24,0,0,1-.93.17,1.51,1.51,0,0,1-1.11-.4,1.55,1.55,0,0,1-.41-1.15,1.3,1.3,0,0,1,.55-1.15,3.17,3.17,0,0,1,1.65-.41l.85,0v-.21a.67.67,0,0,0-.76-.75,3.48,3.48,0,0,0-1.38.36l-.44-.91a4,4,0,0,1,1.88-.44,2.35,2.35,0,0,1,1.52.43,1.59,1.59,0,0,1,.53,1.31v3.27Zm-.4-2.28-.52,0a1.66,1.66,0,0,0-.87.21.66.66,0,0,0-.29.59q0,.57.65.57a1,1,0,0,0,.74-.27.94.94,0,0,0,.28-.71Z"/><path class="cls-2" d="M312,389a2.9,2.9,0,0,0,.84-.15v1a3,3,0,0,1-1.23.22,1.51,1.51,0,0,1-1.17-.41,1.77,1.77,0,0,1-.37-1.22V386h-.64v-.57l.74-.45.39-1h.86v1h1.38v1H311.4v2.37a.52.52,0,0,0,.16.42A.63.63,0,0,0,312,389Z"/><path class="cls-2" d="M317,389.95l-.26-.67h0a2,2,0,0,1-.7.59,2.24,2.24,0,0,1-.93.17,1.51,1.51,0,0,1-1.11-.4,1.55,1.55,0,0,1-.41-1.15,1.3,1.3,0,0,1,.55-1.15,3.17,3.17,0,0,1,1.65-.41l.85,0v-.21a.67.67,0,0,0-.76-.75,3.48,3.48,0,0,0-1.38.36l-.44-.91a4,4,0,0,1,1.88-.44,2.35,2.35,0,0,1,1.52.43,1.59,1.59,0,0,1,.53,1.31v3.27Zm-.4-2.28-.52,0a1.66,1.66,0,0,0-.87.21.66.66,0,0,0-.29.59q0,.57.65.57a1,1,0,0,0,.74-.27.94.94,0,0,0,.28-.71Z"/><path class="cls-2" d="M321.81,383.52h2a3.85,3.85,0,0,1,2,.39,1.35,1.35,0,0,1,.62,1.24,1.56,1.56,0,0,1-.27.95,1.08,1.08,0,0,1-.72.44v0a1.41,1.41,0,0,1,.88.51,1.86,1.86,0,0,1-.36,2.36,2.75,2.75,0,0,1-1.73.49h-2.4Zm1.36,2.54H324a1.45,1.45,0,0,0,.8-.17.64.64,0,0,0,.25-.57.57.57,0,0,0-.27-.53,1.75,1.75,0,0,0-.86-.16h-.72Zm0,1.08v1.67h.89a1.32,1.32,0,0,0,.83-.21.8.8,0,0,0,.27-.66q0-.8-1.14-.8Z"/><path class="cls-2" d="M331.95,389.95h-4.49V389l1.61-1.63q.72-.73.94-1a2.22,2.22,0,0,0,.32-.52,1.34,1.34,0,0,0,.1-.5.74.74,0,0,0-.21-.58.83.83,0,0,0-.57-.19,1.64,1.64,0,0,0-.72.17,3.77,3.77,0,0,0-.73.49l-.74-.87a4.82,4.82,0,0,1,.79-.57,2.87,2.87,0,0,1,.68-.26,3.46,3.46,0,0,1,.83-.09,2.44,2.44,0,0,1,1.06.22,1.69,1.69,0,0,1,.72.62,1.63,1.63,0,0,1,.25.9,2.22,2.22,0,0,1-.16.83,3.22,3.22,0,0,1-.48.8A11.76,11.76,0,0,1,330,388l-.83.78v.06h2.8Z"/><rect class="cls-4" x="273.63" y="376.01" width="82.04" height="21"/><rect class="cls-3" x="171.58" y="406.01" width="82.04" height="21"/><path class="cls-2" d="M201.68,416.67a3.16,3.16,0,0,1-.9,2.43,3.68,3.68,0,0,1-2.61.84h-1.82v-6.42h2a3.39,3.39,0,0,1,2.44.83A3.05,3.05,0,0,1,201.68,416.67Zm-1.42,0q0-2.07-1.83-2.07h-.73v4.18h.58Q200.27,418.82,200.27,416.71Z"/><path class="cls-2" d="M206.06,419.95l-.26-.67h0a2,2,0,0,1-.7.59,2.24,2.24,0,0,1-.93.17,1.51,1.51,0,0,1-1.11-.4,1.55,1.55,0,0,1-.41-1.15,1.3,1.3,0,0,1,.55-1.15,3.17,3.17,0,0,1,1.65-.41l.85,0v-.21a.67.67,0,0,0-.76-.75,3.49,3.49,0,0,0-1.38.36l-.44-.91a4,4,0,0,1,1.88-.44,2.35,2.35,0,0,1,1.52.43,1.59,1.59,0,0,1,.53,1.31v3.27Zm-.4-2.28-.52,0a1.66,1.66,0,0,0-.87.21.66.66,0,0,0-.29.59q0,.57.65.57a1,1,0,0,0,.74-.27.94.94,0,0,0,.28-.71Z"/><path class="cls-2" d="M210.49,419a2.9,2.9,0,0,0,.84-.15v1a3,3,0,0,1-1.23.22,1.51,1.51,0,0,1-1.17-.41,1.77,1.77,0,0,1-.37-1.22V416h-.64v-.57l.74-.45.39-1h.86v1h1.38v1h-1.38v2.37a.52.52,0,0,0,.16.42A.63.63,0,0,0,210.49,419Z"/><path class="cls-2" d="M215.49,419.95l-.26-.67h0a2,2,0,0,1-.7.59,2.24,2.24,0,0,1-.93.17,1.51,1.51,0,0,1-1.11-.4,1.55,1.55,0,0,1-.41-1.15,1.3,1.3,0,0,1,.55-1.15,3.17,3.17,0,0,1,1.65-.41l.85,0v-.21a.67.67,0,0,0-.76-.75,3.49,3.49,0,0,0-1.38.36l-.44-.91a4,4,0,0,1,1.88-.44,2.35,2.35,0,0,1,1.52.43,1.59,1.59,0,0,1,.53,1.31v3.27Zm-.4-2.28-.52,0a1.66,1.66,0,0,0-.87.21.66.66,0,0,0-.29.59q0,.57.65.57a1,1,0,0,0,.74-.27.94.94,0,0,0,.28-.71Z"/><path class="cls-2" d="M223.06,414.57a1.39,1.39,0,0,0-1.19.58,2.69,2.69,0,0,0-.42,1.61q0,2.15,1.61,2.15a5.07,5.07,0,0,0,1.64-.34v1.14a4.53,4.53,0,0,1-1.77.33,2.69,2.69,0,0,1-2.14-.85,3.6,3.6,0,0,1-.74-2.44,4,4,0,0,1,.36-1.76,2.64,2.64,0,0,1,1-1.16,3.11,3.11,0,0,1,1.6-.4,4.32,4.32,0,0,1,1.88.45l-.44,1.11a7.27,7.27,0,0,0-.73-.3A2.16,2.16,0,0,0,223.06,414.57Z"/><path class="cls-2" d="M229,419.95h-1.36v-4.33l0-.67q-.34.34-.47.44l-.74.59-.65-.82,2.07-1.65H229Z"/><rect class="cls-4" x="171.58" y="406.01" width="82.04" height="21"/><rect class="cls-3" x="273.63" y="406.01" width="82.04" height="21"/><path class="cls-2" d="M303.32,416.67a3.16,3.16,0,0,1-.9,2.43,3.68,3.68,0,0,1-2.61.84H298v-6.42h2a3.39,3.39,0,0,1,2.44.83A3.05,3.05,0,0,1,303.32,416.67Zm-1.42,0q0-2.07-1.83-2.07h-.72v4.18h.58Q301.91,418.82,301.91,416.71Z"/><path class="cls-2" d="M307.71,419.95l-.26-.67h0a2,2,0,0,1-.7.59,2.24,2.24,0,0,1-.93.17,1.51,1.51,0,0,1-1.11-.4,1.55,1.55,0,0,1-.41-1.15,1.3,1.3,0,0,1,.55-1.15,3.17,3.17,0,0,1,1.65-.41l.85,0v-.21a.67.67,0,0,0-.76-.75,3.48,3.48,0,0,0-1.38.36l-.44-.91a4,4,0,0,1,1.88-.44,2.35,2.35,0,0,1,1.52.43,1.59,1.59,0,0,1,.53,1.31v3.27Zm-.4-2.28-.52,0a1.66,1.66,0,0,0-.87.21.66.66,0,0,0-.29.59q0,.57.65.57a1,1,0,0,0,.74-.27.94.94,0,0,0,.28-.71Z"/><path class="cls-2" d="M312.14,419a2.9,2.9,0,0,0,.84-.15v1a3,3,0,0,1-1.23.22,1.51,1.51,0,0,1-1.17-.41,1.77,1.77,0,0,1-.37-1.22V416h-.64v-.57l.74-.45.39-1h.86v1h1.38v1h-1.37v2.37a.52.52,0,0,0,.16.42A.63.63,0,0,0,312.14,419Z"/><path class="cls-2" d="M317.13,419.95l-.26-.67h0a2,2,0,0,1-.7.59,2.24,2.24,0,0,1-.93.17,1.51,1.51,0,0,1-1.11-.4,1.55,1.55,0,0,1-.41-1.15,1.3,1.3,0,0,1,.55-1.15,3.17,3.17,0,0,1,1.65-.41l.85,0v-.21a.67.67,0,0,0-.76-.75,3.48,3.48,0,0,0-1.38.36l-.44-.91a4,4,0,0,1,1.88-.44,2.35,2.35,0,0,1,1.52.43,1.59,1.59,0,0,1,.53,1.31v3.27Zm-.4-2.28-.52,0a1.66,1.66,0,0,0-.87.21.66.66,0,0,0-.29.59q0,.57.65.57a1,1,0,0,0,.74-.27.94.94,0,0,0,.28-.71Z"/><path class="cls-2" d="M324.7,414.57a1.39,1.39,0,0,0-1.19.58,2.69,2.69,0,0,0-.42,1.61q0,2.15,1.61,2.15a5.07,5.07,0,0,0,1.64-.34v1.14a4.53,4.53,0,0,1-1.77.33,2.69,2.69,0,0,1-2.14-.85,3.59,3.59,0,0,1-.74-2.44A4,4,0,0,1,322,415a2.64,2.64,0,0,1,1-1.16,3.1,3.1,0,0,1,1.6-.4,4.32,4.32,0,0,1,1.88.45l-.44,1.11a7.36,7.36,0,0,0-.72-.3A2.17,2.17,0,0,0,324.7,414.57Z"/><path class="cls-2" d="M331.53,415a1.51,1.51,0,0,1-.37,1,1.89,1.89,0,0,1-1,.58v0a2,2,0,0,1,1.18.47,1.32,1.32,0,0,1,.4,1,1.72,1.72,0,0,1-.67,1.44,3.1,3.1,0,0,1-1.92.52,4.64,4.64,0,0,1-1.85-.35v-1.16a4.16,4.16,0,0,0,.82.31,3.46,3.46,0,0,0,.89.12,1.73,1.73,0,0,0,1-.23.84.84,0,0,0,.32-.73.66.66,0,0,0-.37-.64,2.73,2.73,0,0,0-1.18-.19h-.49v-1h.5a2.31,2.31,0,0,0,1.09-.2.71.71,0,0,0,.35-.67q0-.73-.91-.73a2.1,2.1,0,0,0-.64.11,3.15,3.15,0,0,0-.73.36l-.63-.94a3.49,3.49,0,0,1,2.1-.63,2.71,2.71,0,0,1,1.58.4A1.3,1.3,0,0,1,331.53,415Z"/><rect class="cls-4" x="273.63" y="406.01" width="82.04" height="21"/><path class="cls-2" d="M3.58,96.47a1.29,1.29,0,0,1-.49,1.07,2.12,2.12,0,0,1-1.36.39,3.19,3.19,0,0,1-1.42-.3v-1a6,6,0,0,0,.86.32,2.57,2.57,0,0,0,.64.09.92.92,0,0,0,.54-.13.46.46,0,0,0,.19-.4.44.44,0,0,0-.08-.26A.92.92,0,0,0,2.22,96a6.24,6.24,0,0,0-.65-.34,3.13,3.13,0,0,1-.69-.41,1.55,1.55,0,0,1-.37-.46,1.32,1.32,0,0,1-.14-.62,1.29,1.29,0,0,1,.45-1,1.87,1.87,0,0,1,1.24-.38,2.93,2.93,0,0,1,.74.09,5.12,5.12,0,0,1,.74.26L3.21,94a5,5,0,0,0-.66-.23A2.15,2.15,0,0,0,2,93.67a.68.68,0,0,0-.46.14.46.46,0,0,0-.16.37.45.45,0,0,0,.06.25.71.71,0,0,0,.21.2,6.39,6.39,0,0,0,.67.35,2.67,2.67,0,0,1,1,.67A1.31,1.31,0,0,1,3.58,96.47Z"/><path class="cls-2" d="M6,97.1A2.25,2.25,0,0,0,6.67,97v.78a2.36,2.36,0,0,1-1,.17,1.17,1.17,0,0,1-.91-.32,1.37,1.37,0,0,1-.29-.95V94.82H4v-.44L4.59,94l.3-.81h.67V94H6.63v.78H5.56v1.84a.41.41,0,0,0,.13.33A.49.49,0,0,0,6,97.1Z"/><path class="cls-2" d="M9.87,97.86l-.2-.52h0a1.55,1.55,0,0,1-.54.46,1.76,1.76,0,0,1-.73.13,1.17,1.17,0,0,1-.87-.31,1.21,1.21,0,0,1-.32-.9,1,1,0,0,1,.43-.9A2.47,2.47,0,0,1,8.9,95.5l.66,0v-.17A.52.52,0,0,0,9,94.73,2.71,2.71,0,0,0,7.89,95l-.35-.7A3.1,3.1,0,0,1,9,94a1.82,1.82,0,0,1,1.18.34,1.24,1.24,0,0,1,.41,1v2.55Zm-.31-1.77h-.4a1.28,1.28,0,0,0-.68.16.52.52,0,0,0-.22.46q0,.44.51.44A.8.8,0,0,0,9.34,97a.73.73,0,0,0,.22-.55Z"/><path class="cls-2" d="M13.22,97.93q-1.78,0-1.78-2a2.09,2.09,0,0,1,.49-1.49A1.82,1.82,0,0,1,13.31,94a2.64,2.64,0,0,1,1.19.26l-.31.81-.46-.16a1.48,1.48,0,0,0-.42-.06q-.81,0-.81,1.16t.81,1.12a1.85,1.85,0,0,0,.56-.08,2,2,0,0,0,.51-.25v.89a1.69,1.69,0,0,1-.51.22A2.88,2.88,0,0,1,13.22,97.93Z"/><path class="cls-2" d="M16.27,95.78l.45-.58L17.79,94H19L17.45,95.7l1.61,2.16h-1.2l-1.1-1.55-.45.36v1.19h-1V92.54h1v2.37l-.05.87Z"/><path class="cls-2" d="M21.22,97.1a2.25,2.25,0,0,0,.66-.12v.78a2.36,2.36,0,0,1-1,.17,1.17,1.17,0,0,1-.91-.32,1.37,1.37,0,0,1-.29-.95V94.82h-.5v-.44L19.8,94l.3-.81h.67V94h1.07v.78H20.76v1.84a.41.41,0,0,0,.13.33A.49.49,0,0,0,21.22,97.1Z"/><path class="cls-2" d="M25.07,97.86l-.2-.52h0a1.55,1.55,0,0,1-.54.46,1.76,1.76,0,0,1-.73.13,1.17,1.17,0,0,1-.87-.31,1.21,1.21,0,0,1-.32-.9,1,1,0,0,1,.43-.9,2.47,2.47,0,0,1,1.28-.32l.66,0v-.17a.52.52,0,0,0-.59-.58A2.71,2.71,0,0,0,23.1,95l-.35-.7A3.1,3.1,0,0,1,24.21,94a1.82,1.82,0,0,1,1.18.34,1.24,1.24,0,0,1,.41,1v2.55Zm-.31-1.77h-.4a1.28,1.28,0,0,0-.68.16.52.52,0,0,0-.22.46q0,.44.51.44a.8.8,0,0,0,.58-.21.73.73,0,0,0,.22-.55Z"/><path class="cls-2" d="M29,94a1.24,1.24,0,0,1,1.06.53,2.42,2.42,0,0,1,.38,1.45A2.38,2.38,0,0,1,30,97.41a1.38,1.38,0,0,1-2.13,0h-.07l-.17.42h-.8V92.54h1v1.24q0,.24,0,.75h0A1.21,1.21,0,0,1,29,94Zm-.33.83a.66.66,0,0,0-.56.24,1.36,1.36,0,0,0-.18.78v.11a1.6,1.6,0,0,0,.18.88.65.65,0,0,0,.58.27.58.58,0,0,0,.51-.3,1.6,1.6,0,0,0,.19-.86,1.52,1.52,0,0,0-.19-.85A.6.6,0,0,0,28.67,94.8Z"/><path class="cls-2" d="M32.35,97.86h-1V92.54h1Z"/><path class="cls-2" d="M35.17,97.93a2,2,0,0,1-1.44-.51A1.93,1.93,0,0,1,33.21,96a2.12,2.12,0,0,1,.48-1.49A1.71,1.71,0,0,1,35,94a1.68,1.68,0,0,1,1.26.46,1.75,1.75,0,0,1,.45,1.28v.51H34.27a1,1,0,0,0,.26.69.93.93,0,0,0,.69.25,2.87,2.87,0,0,0,.65-.07,3.28,3.28,0,0,0,.64-.23v.81a2.48,2.48,0,0,1-.58.2A3.72,3.72,0,0,1,35.17,97.93ZM35,94.71a.66.66,0,0,0-.52.21,1,1,0,0,0-.22.6h1.46a.87.87,0,0,0-.2-.6A.68.68,0,0,0,35,94.71Z"/><path class="cls-2" d="M3.72,109.86H.28v-.46l2.65-4H.36v-.52H3.64v.45l-2.65,4H3.72Z"/><path class="cls-2" d="M7.66,109.86,7,107.66q-.07-.2-.24-.92h0q-.14.6-.24.92l-.71,2.19H5.1l-1-3.75h.59l.55,2.15a8.77,8.77,0,0,1,.22,1h0q0-.19.12-.5c.06-.21.1-.37.15-.49l.69-2.15H7l.67,2.15a7.24,7.24,0,0,1,.26,1H8a3.69,3.69,0,0,1,.07-.38q.06-.25.71-2.76h.59l-1,3.75Z"/><path class="cls-2" d="M11.62,109.93a1.72,1.72,0,0,1-1.31-.51,2,2,0,0,1-.48-1.4,2.17,2.17,0,0,1,.45-1.44,1.48,1.48,0,0,1,1.2-.53,1.41,1.41,0,0,1,1.11.46,1.78,1.78,0,0,1,.41,1.22v.36H10.42a1.48,1.48,0,0,0,.33,1,1.15,1.15,0,0,0,.89.34,3,3,0,0,0,1.2-.25v.51a3,3,0,0,1-.57.19A3.17,3.17,0,0,1,11.62,109.93Zm-.15-3.41a.93.93,0,0,0-.72.29,1.35,1.35,0,0,0-.32.81h2a1.25,1.25,0,0,0-.24-.82A.84.84,0,0,0,11.47,106.52Z"/><path class="cls-2" d="M13.92,105.1a.38.38,0,0,1,.1-.29.36.36,0,0,1,.48,0,.37.37,0,0,1,.1.28.38.38,0,0,1-.1.29.35.35,0,0,1-.48,0A.38.38,0,0,1,13.92,105.1Zm.62,4.76H14v-3.75h.57Z"/><path class="cls-2" d="M20.46,108.53a1.23,1.23,0,0,1-.48,1,2.07,2.07,0,0,1-1.3.37,3.26,3.26,0,0,1-1.37-.23v-.56a3.7,3.7,0,0,0,.67.21,3.55,3.55,0,0,0,.72.07,1.45,1.45,0,0,0,.88-.22.73.73,0,0,0,.29-.61.78.78,0,0,0-.1-.42,1,1,0,0,0-.35-.31,4.79,4.79,0,0,0-.74-.32,2.36,2.36,0,0,1-1-.59,1.3,1.3,0,0,1-.3-.89,1.11,1.11,0,0,1,.43-.92,1.8,1.8,0,0,1,1.15-.34,3.38,3.38,0,0,1,1.37.27l-.18.51a3.09,3.09,0,0,0-1.2-.26,1.17,1.17,0,0,0-.72.2.66.66,0,0,0-.26.55.84.84,0,0,0,.1.43.9.9,0,0,0,.32.3,4,4,0,0,0,.7.31,2.76,2.76,0,0,1,1.08.6A1.18,1.18,0,0,1,20.46,108.53Z"/><path class="cls-2" d="M23.14,109.93a1.62,1.62,0,0,1-.67-.13,1.25,1.25,0,0,1-.51-.42h0a5,5,0,0,1,0,.62v1.54H21.4v-5.43h.46l.08.51h0a1.31,1.31,0,0,1,.51-.44,1.55,1.55,0,0,1,.67-.14,1.39,1.39,0,0,1,1.15.51,2.71,2.71,0,0,1,0,2.86A1.39,1.39,0,0,1,23.14,109.93Zm-.08-3.4a1,1,0,0,0-.83.32,1.63,1.63,0,0,0-.26,1V108a1.87,1.87,0,0,0,.26,1.13,1,1,0,0,0,.84.34.88.88,0,0,0,.76-.39,1.86,1.86,0,0,0,.27-1.08,1.79,1.79,0,0,0-.27-1.08A.9.9,0,0,0,23.06,106.53Z"/><path class="cls-2" d="M28,109.86l-.11-.53h0a1.58,1.58,0,0,1-.56.48,1.7,1.7,0,0,1-.7.13,1.25,1.25,0,0,1-.87-.29,1,1,0,0,1-.32-.82q0-1.14,1.81-1.19l.64,0v-.23a1,1,0,0,0-.19-.65.78.78,0,0,0-.61-.21,2.47,2.47,0,0,0-1.06.29l-.17-.43a2.68,2.68,0,0,1,.61-.24,2.64,2.64,0,0,1,.66-.08,1.42,1.42,0,0,1,1,.3,1.24,1.24,0,0,1,.32,1v2.56Zm-1.28-.4a1.15,1.15,0,0,0,.83-.29,1.08,1.08,0,0,0,.3-.81V108l-.57,0a2.06,2.06,0,0,0-1,.21.63.63,0,0,0-.3.58.59.59,0,0,0,.19.47A.77.77,0,0,0,26.71,109.46Z"/><path class="cls-2" d="M30.15,109.86h-.57v-5.32h.57Z"/><path class="cls-2" d="M32.56,109.46l.29,0,.22,0v.43a1.06,1.06,0,0,1-.27.07l-.32,0q-1.09,0-1.09-1.14v-2.23h-.54v-.27l.54-.24.24-.8H32v.87H33v.44H32v2.2a.76.76,0,0,0,.16.52A.56.56,0,0,0,32.56,109.46Z"/><path class="cls-2" d="M35.41,109.93a1.72,1.72,0,0,1-1.31-.51,2,2,0,0,1-.48-1.4,2.17,2.17,0,0,1,.45-1.44,1.48,1.48,0,0,1,1.2-.53,1.41,1.41,0,0,1,1.11.46,1.78,1.78,0,0,1,.41,1.22v.36H34.2a1.48,1.48,0,0,0,.33,1,1.15,1.15,0,0,0,.89.34,3,3,0,0,0,1.2-.25v.51a3,3,0,0,1-.57.19A3.17,3.17,0,0,1,35.41,109.93Zm-.15-3.41a.93.93,0,0,0-.72.29,1.35,1.35,0,0,0-.32.81h2a1.25,1.25,0,0,0-.24-.82A.84.84,0,0,0,35.25,106.52Z"/><path class="cls-2" d="M40.31,109.86v-2.42a1,1,0,0,0-.21-.68.85.85,0,0,0-.65-.22,1.08,1.08,0,0,0-.86.32,1.61,1.61,0,0,0-.27,1v2h-.57v-3.75h.46l.09.51h0a1.16,1.16,0,0,1,.49-.43,1.59,1.59,0,0,1,.7-.15,1.42,1.42,0,0,1,1,.33,1.39,1.39,0,0,1,.34,1v2.44Z"/><path class="cls-2" d="M45.45,109.93a1.72,1.72,0,0,1-1.31-.51,2,2,0,0,1-.48-1.4,2.17,2.17,0,0,1,.45-1.44,1.48,1.48,0,0,1,1.2-.53,1.41,1.41,0,0,1,1.11.46,1.78,1.78,0,0,1,.41,1.22v.36H44.25a1.48,1.48,0,0,0,.33,1,1.15,1.15,0,0,0,.89.34,3,3,0,0,0,1.2-.25v.51a3,3,0,0,1-.57.19A3.17,3.17,0,0,1,45.45,109.93Zm-.15-3.41a.93.93,0,0,0-.72.29,1.35,1.35,0,0,0-.32.81h2a1.25,1.25,0,0,0-.24-.82A.84.84,0,0,0,45.29,106.52Z"/><path class="cls-2" d="M49.5,106a2.22,2.22,0,0,1,.45,0l-.08.53a1.93,1.93,0,0,0-.41-.05,1,1,0,0,0-.78.37,1.34,1.34,0,0,0-.32.92v2h-.57v-3.75h.47l.06.69h0a1.65,1.65,0,0,1,.5-.56A1.13,1.13,0,0,1,49.5,106Z"/><path class="cls-2" d="M53,109.86H50.33v-.39l2-2.92H50.46v-.44H53v.44l-2,2.86H53Z"/><path class="cls-2" d="M55.51,109.93a1.72,1.72,0,0,1-1.31-.51,2,2,0,0,1-.48-1.4,2.17,2.17,0,0,1,.45-1.44,1.48,1.48,0,0,1,1.2-.53,1.41,1.41,0,0,1,1.11.46,1.78,1.78,0,0,1,.41,1.22v.36H54.3a1.48,1.48,0,0,0,.33,1,1.15,1.15,0,0,0,.89.34,3,3,0,0,0,1.2-.25v.51a3,3,0,0,1-.57.19A3.17,3.17,0,0,1,55.51,109.93Zm-.15-3.41a.93.93,0,0,0-.72.29,1.35,1.35,0,0,0-.32.81h2a1.25,1.25,0,0,0-.24-.82A.84.84,0,0,0,55.35,106.52Z"/><path class="cls-2" d="M58.39,106.11v2.43a1,1,0,0,0,.21.68.85.85,0,0,0,.65.23,1.06,1.06,0,0,0,.86-.32,1.62,1.62,0,0,0,.27-1v-2h.57v3.75h-.47l-.08-.5h0a1.14,1.14,0,0,1-.48.42,1.63,1.63,0,0,1-.71.15,1.44,1.44,0,0,1-1-.32,1.38,1.38,0,0,1-.34-1v-2.45Z"/><path class="cls-2" d="M65.21,106.11v.36l-.69.08a1.22,1.22,0,0,1,.25.75,1.11,1.11,0,0,1-.38.88,1.52,1.52,0,0,1-1,.33l-.31,0a.56.56,0,0,0-.36.48.24.24,0,0,0,.13.23.93.93,0,0,0,.43.07h.66a1.48,1.48,0,0,1,.93.26.89.89,0,0,1,.33.74,1.07,1.07,0,0,1-.5.95,2.67,2.67,0,0,1-1.46.33,2,2,0,0,1-1.13-.27.88.88,0,0,1-.4-.77.87.87,0,0,1,.22-.59,1.11,1.11,0,0,1,.62-.34.58.58,0,0,1-.24-.2.53.53,0,0,1-.1-.32.6.6,0,0,1,.11-.36,1.14,1.14,0,0,1,.35-.3,1,1,0,0,1-.47-.41,1.19,1.19,0,0,1-.18-.66,1.21,1.21,0,0,1,.37-.95,1.51,1.51,0,0,1,1-.33,1.89,1.89,0,0,1,.53.07Zm-3,4.38a.51.51,0,0,0,.26.46,1.41,1.41,0,0,0,.73.16,2.05,2.05,0,0,0,1.06-.21.66.66,0,0,0,.34-.58.46.46,0,0,0-.19-.42,1.47,1.47,0,0,0-.71-.12H63a.9.9,0,0,0-.6.19A.66.66,0,0,0,62.23,110.49Zm.31-3.18a.77.77,0,0,0,.22.6.89.89,0,0,0,.62.2.72.72,0,0,0,.83-.81.74.74,0,0,0-.84-.84.83.83,0,0,0-.62.21A.87.87,0,0,0,62.54,107.31Z"/><path class="cls-2" d="M67.57,109.93a1.72,1.72,0,0,1-1.31-.51,2,2,0,0,1-.48-1.4,2.17,2.17,0,0,1,.45-1.44,1.48,1.48,0,0,1,1.2-.53,1.41,1.41,0,0,1,1.11.46,1.78,1.78,0,0,1,.41,1.22v.36H66.36a1.48,1.48,0,0,0,.33,1,1.15,1.15,0,0,0,.89.34,3,3,0,0,0,1.2-.25v.51a3,3,0,0,1-.57.19A3.17,3.17,0,0,1,67.57,109.93Zm-.15-3.41a.93.93,0,0,0-.72.29,1.35,1.35,0,0,0-.32.81h2a1.25,1.25,0,0,0-.24-.82A.84.84,0,0,0,67.41,106.52Z"/><path class="cls-2" d="M72.47,109.86v-2.42a1,1,0,0,0-.21-.68.85.85,0,0,0-.65-.22,1.08,1.08,0,0,0-.86.32,1.61,1.61,0,0,0-.27,1v2h-.57v-3.75h.46l.09.51h0a1.16,1.16,0,0,1,.49-.43,1.59,1.59,0,0,1,.7-.15,1.42,1.42,0,0,1,1,.33,1.39,1.39,0,0,1,.34,1v2.44Z"/><path class="cls-2" d="M76.56,106.11v2.43a1,1,0,0,0,.21.68.85.85,0,0,0,.65.23,1.06,1.06,0,0,0,.86-.32,1.62,1.62,0,0,0,.27-1v-2h.57v3.75h-.47l-.08-.5h0a1.14,1.14,0,0,1-.48.42,1.63,1.63,0,0,1-.71.15,1.44,1.44,0,0,1-1-.32,1.38,1.38,0,0,1-.34-1v-2.45Z"/><path class="cls-2" d="M82.89,109.86v-2.42a1,1,0,0,0-.21-.68.85.85,0,0,0-.65-.22,1.08,1.08,0,0,0-.86.32,1.61,1.61,0,0,0-.27,1v2h-.57v-3.75h.46l.09.51h0a1.16,1.16,0,0,1,.49-.43,1.59,1.59,0,0,1,.7-.15,1.42,1.42,0,0,1,1,.33,1.39,1.39,0,0,1,.34,1v2.44Z"/><path class="cls-2" d="M87.17,109.36h0a1.33,1.33,0,0,1-1.18.57,1.39,1.39,0,0,1-1.14-.5,2.21,2.21,0,0,1-.41-1.43,2.25,2.25,0,0,1,.41-1.44A1.38,1.38,0,0,1,86,106a1.36,1.36,0,0,1,1.17.55h0l0-.27v-1.79h.57v5.32h-.46Zm-1.13.1a1,1,0,0,0,.84-.32,1.6,1.6,0,0,0,.26-1V108a1.88,1.88,0,0,0-.27-1.14,1,1,0,0,0-.85-.34.87.87,0,0,0-.76.39A1.93,1.93,0,0,0,85,108a1.85,1.85,0,0,0,.26,1.08A.89.89,0,0,0,86,109.45Z"/><path class="cls-2" d="M2.23,121.86H1.64v-4.48H.06v-.52H3.81v.52H2.23Z"/><path class="cls-2" d="M4.43,117.09a.38.38,0,0,1,.1-.29.36.36,0,0,1,.48,0,.37.37,0,0,1,.1.28.38.38,0,0,1-.1.29.35.35,0,0,1-.48,0A.38.38,0,0,1,4.43,117.09ZM5,121.86H4.47v-3.75H5Z"/><path class="cls-2" d="M7.45,121.46l.29,0,.22,0v.43a1.06,1.06,0,0,1-.27.07l-.32,0q-1.09,0-1.09-1.14v-2.23H5.75v-.27l.54-.24.24-.8h.33v.87H7.94v.44H6.85v2.2a.76.76,0,0,0,.16.52A.56.56,0,0,0,7.45,121.46Z"/><path class="cls-2" d="M10.3,121.92A1.72,1.72,0,0,1,9,121.42a2,2,0,0,1-.48-1.4A2.17,2.17,0,0,1,9,118.58a1.48,1.48,0,0,1,1.2-.53,1.41,1.41,0,0,1,1.11.46,1.78,1.78,0,0,1,.41,1.22v.36H9.1a1.48,1.48,0,0,0,.33,1,1.15,1.15,0,0,0,.89.34,3,3,0,0,0,1.2-.25v.51a3,3,0,0,1-.57.19A3.17,3.17,0,0,1,10.3,121.92Zm-.15-3.41a.93.93,0,0,0-.72.29,1.35,1.35,0,0,0-.32.81h2a1.25,1.25,0,0,0-.24-.82A.84.84,0,0,0,10.14,118.52Z"/><path class="cls-2" d="M13.21,121.86h-.57v-5.32h.57Z"/><path class="cls-2" d="M15.78,123.54a1.35,1.35,0,0,1-.53-.09V123a1.65,1.65,0,0,0,.46.07.49.49,0,0,0,.39-.15.66.66,0,0,0,.13-.44v-4.36h.57v4.32Q16.8,123.54,15.78,123.54Zm.41-6.44a.38.38,0,0,1,.1-.29.36.36,0,0,1,.48,0,.37.37,0,0,1,.1.28.38.38,0,0,1-.1.29.35.35,0,0,1-.48,0A.38.38,0,0,1,16.18,117.09Z"/><path class="cls-2" d="M19.58,121.92a1.72,1.72,0,0,1-1.31-.51,2,2,0,0,1-.48-1.4,2.17,2.17,0,0,1,.45-1.44,1.48,1.48,0,0,1,1.2-.53,1.41,1.41,0,0,1,1.11.46,1.78,1.78,0,0,1,.41,1.22v.36H18.38a1.48,1.48,0,0,0,.33,1,1.15,1.15,0,0,0,.89.34,3,3,0,0,0,1.2-.25v.51a3,3,0,0,1-.57.19A3.17,3.17,0,0,1,19.58,121.92Zm-.15-3.41a.93.93,0,0,0-.72.29,1.35,1.35,0,0,0-.32.81h2a1.25,1.25,0,0,0-.24-.82A.84.84,0,0,0,19.43,118.52Z"/><path class="cls-2" d="M25,121.86l-.69-2.2q-.07-.2-.24-.92h0q-.14.6-.24.92l-.71,2.19h-.66l-1-3.75H22l.55,2.15a8.77,8.77,0,0,1,.22,1h0q0-.19.12-.5c.06-.21.1-.37.15-.49l.69-2.15h.62l.67,2.15a7.24,7.24,0,0,1,.26,1h0a3.69,3.69,0,0,1,.07-.38q.06-.25.71-2.76h.59l-1,3.75Z"/><path class="cls-2" d="M29,121.92a1.72,1.72,0,0,1-1.31-.51,2,2,0,0,1-.48-1.4,2.17,2.17,0,0,1,.45-1.44,1.48,1.48,0,0,1,1.2-.53,1.41,1.41,0,0,1,1.11.46,1.78,1.78,0,0,1,.41,1.22v.36H27.75a1.48,1.48,0,0,0,.33,1,1.15,1.15,0,0,0,.89.34,3,3,0,0,0,1.2-.25v.51a3,3,0,0,1-.57.19A3.17,3.17,0,0,1,29,121.92Zm-.15-3.41a.93.93,0,0,0-.72.29,1.35,1.35,0,0,0-.32.81h2a1.25,1.25,0,0,0-.24-.82A.84.84,0,0,0,28.8,118.52Z"/><path class="cls-2" d="M31.25,117.09a.38.38,0,0,1,.1-.29.36.36,0,0,1,.48,0,.37.37,0,0,1,.1.28.38.38,0,0,1-.1.29.35.35,0,0,1-.48,0A.38.38,0,0,1,31.25,117.09Zm.62,4.76H31.3v-3.75h.57Z"/><path class="cls-2" d="M33.64,121.86h-.57v-5.32h.57Z"/><path class="cls-2" d="M37.26,120.84a.94.94,0,0,1-.39.81,1.84,1.84,0,0,1-1.09.28,2.37,2.37,0,0,1-1.16-.24v-.53a2.85,2.85,0,0,0,.58.21,2.4,2.4,0,0,0,.6.08,1.35,1.35,0,0,0,.68-.14.49.49,0,0,0,0-.81,3,3,0,0,0-.74-.37,4,4,0,0,1-.74-.34,1,1,0,0,1-.33-.33.87.87,0,0,1-.11-.44.84.84,0,0,1,.37-.72,1.73,1.73,0,0,1,1-.26,3,3,0,0,1,1.18.25l-.2.46a2.73,2.73,0,0,0-1-.23,1.18,1.18,0,0,0-.61.13.39.39,0,0,0-.21.35.42.42,0,0,0,.08.26.75.75,0,0,0,.25.2,5.6,5.6,0,0,0,.66.28,2.45,2.45,0,0,1,.9.49A.86.86,0,0,1,37.26,120.84Z"/><path class="cls-2" d="M43.06,121.86l-.69-2.2q-.07-.2-.24-.92h0q-.14.6-.24.92l-.71,2.19H40.5l-1-3.75h.59l.55,2.15a8.77,8.77,0,0,1,.22,1h0q0-.19.12-.5c.06-.21.1-.37.15-.49l.69-2.15h.62l.67,2.15a7.24,7.24,0,0,1,.26,1h0a3.69,3.69,0,0,1,.07-.38q.06-.25.71-2.76h.59l-1,3.75Z"/><path class="cls-2" d="M45.4,117.09a.38.38,0,0,1,.1-.29.36.36,0,0,1,.48,0,.37.37,0,0,1,.1.28.38.38,0,0,1-.1.29.35.35,0,0,1-.48,0A.38.38,0,0,1,45.4,117.09Zm.62,4.76h-.57v-3.75H46Z"/><path class="cls-2" d="M48.8,121.92a1.72,1.72,0,0,1-1.31-.51A2,2,0,0,1,47,120a2.17,2.17,0,0,1,.45-1.44,1.48,1.48,0,0,1,1.2-.53,1.41,1.41,0,0,1,1.11.46,1.78,1.78,0,0,1,.41,1.22v.36H47.6a1.48,1.48,0,0,0,.33,1,1.15,1.15,0,0,0,.89.34,3,3,0,0,0,1.2-.25v.51a3,3,0,0,1-.57.19A3.17,3.17,0,0,1,48.8,121.92Zm-.15-3.41a.93.93,0,0,0-.72.29,1.35,1.35,0,0,0-.32.81h2a1.25,1.25,0,0,0-.24-.82A.84.84,0,0,0,48.64,118.52Z"/><path class="cls-2" d="M53.69,121.35h0a1.33,1.33,0,0,1-1.18.57,1.39,1.39,0,0,1-1.14-.5,2.21,2.21,0,0,1-.41-1.43,2.25,2.25,0,0,1,.41-1.44,1.38,1.38,0,0,1,1.14-.51,1.36,1.36,0,0,1,1.17.55h0l0-.27v-1.79h.57v5.32h-.46Zm-1.13.1a1,1,0,0,0,.84-.32,1.6,1.6,0,0,0,.26-1V120a1.88,1.88,0,0,0-.27-1.14,1,1,0,0,0-.85-.34.87.87,0,0,0-.76.39,1.93,1.93,0,0,0-.27,1.1,1.85,1.85,0,0,0,.26,1.08A.89.89,0,0,0,52.56,121.45Z"/><path class="cls-2" d="M57,121.92a1.72,1.72,0,0,1-1.31-.51,2,2,0,0,1-.48-1.4,2.17,2.17,0,0,1,.45-1.44,1.48,1.48,0,0,1,1.2-.53,1.41,1.41,0,0,1,1.11.46,1.78,1.78,0,0,1,.41,1.22v.36H55.81a1.48,1.48,0,0,0,.33,1,1.15,1.15,0,0,0,.89.34,3,3,0,0,0,1.2-.25v.51a3,3,0,0,1-.57.19A3.17,3.17,0,0,1,57,121.92Zm-.15-3.41a.93.93,0,0,0-.72.29,1.35,1.35,0,0,0-.32.81h2a1.25,1.25,0,0,0-.24-.82A.84.84,0,0,0,56.86,118.52Z"/><path class="cls-2" d="M61.07,118a2.22,2.22,0,0,1,.45,0l-.08.53a1.93,1.93,0,0,0-.41-.05,1,1,0,0,0-.78.37,1.34,1.34,0,0,0-.32.92v2h-.57v-3.75h.47l.06.69h0a1.65,1.65,0,0,1,.5-.56A1.13,1.13,0,0,1,61.07,118Z"/><path class="cls-2" d="M64.78,121.86v-2.42a1,1,0,0,0-.21-.68.85.85,0,0,0-.65-.22,1.07,1.07,0,0,0-.86.32,1.63,1.63,0,0,0-.27,1.05v2h-.57v-5.32h.57v1.61a3.54,3.54,0,0,1,0,.48h0a1.16,1.16,0,0,1,.48-.43A1.55,1.55,0,0,1,64,118a1.44,1.44,0,0,1,1,.33,1.37,1.37,0,0,1,.34,1v2.44Z"/><path class="cls-2" d="M69.75,120a2.07,2.07,0,0,1-.46,1.43,1.63,1.63,0,0,1-1.27.51,1.68,1.68,0,0,1-.89-.24,1.55,1.55,0,0,1-.6-.68,2.37,2.37,0,0,1-.21-1,2.06,2.06,0,0,1,.46-1.43A1.62,1.62,0,0,1,68,118a1.58,1.58,0,0,1,1.25.52A2.06,2.06,0,0,1,69.75,120Zm-2.85,0a1.78,1.78,0,0,0,.29,1.09,1.14,1.14,0,0,0,1.69,0,1.77,1.77,0,0,0,.29-1.1,1.74,1.74,0,0,0-.29-1.08,1,1,0,0,0-.85-.37,1,1,0,0,0-.84.37A1.76,1.76,0,0,0,66.89,120Z"/><path class="cls-2" d="M71.31,121.86h-.57v-5.32h.57Z"/><path class="cls-2" d="M74.09,121.92a1.72,1.72,0,0,1-1.31-.51,2,2,0,0,1-.48-1.4,2.17,2.17,0,0,1,.45-1.44,1.48,1.48,0,0,1,1.2-.53,1.41,1.41,0,0,1,1.11.46,1.78,1.78,0,0,1,.41,1.22v.36H72.89a1.48,1.48,0,0,0,.33,1,1.15,1.15,0,0,0,.89.34,3,3,0,0,0,1.2-.25v.51a3,3,0,0,1-.57.19A3.17,3.17,0,0,1,74.09,121.92Zm-.15-3.41a.93.93,0,0,0-.72.29,1.35,1.35,0,0,0-.32.81h2a1.25,1.25,0,0,0-.24-.82A.84.84,0,0,0,73.94,118.52Z"/><path class="cls-2" d="M79,121.86v-2.42a1,1,0,0,0-.21-.68.85.85,0,0,0-.65-.22,1.08,1.08,0,0,0-.86.32,1.61,1.61,0,0,0-.27,1v2h-.57v-3.75h.46l.09.51h0a1.16,1.16,0,0,1,.49-.43,1.59,1.59,0,0,1,.7-.15,1.42,1.42,0,0,1,1,.33,1.39,1.39,0,0,1,.34,1v2.44Z"/><rect class="cls-1" x="153.07" y="336" width="51.02" height="101.01"/><rect class="cls-1" x="289.13" y="336" width="8.5" height="101.01"/><rect class="cls-2" x="103.55" y="346.01" width="82.04" height="21"/><path class="cls-3" d="M133.48,359.95h-1.36v-5.29h-1.74v-1.13h4.85v1.13h-1.74Z"/><path class="cls-3" d="M136.09,353.76q0-.65.73-.65t.73.65a.64.64,0,0,1-.18.49.77.77,0,0,1-.55.17Q136.09,354.42,136.09,353.76Zm1.4,6.18h-1.34V355h1.34Z"/><path class="cls-3" d="M141,359a2.9,2.9,0,0,0,.84-.15v1a3,3,0,0,1-1.23.22,1.51,1.51,0,0,1-1.17-.41,1.77,1.77,0,0,1-.37-1.22V356h-.64v-.57l.74-.45.39-1h.86v1h1.38v1h-1.38v2.37a.52.52,0,0,0,.16.42A.63.63,0,0,0,141,359Z"/><path class="cls-3" d="M145.09,360a2.54,2.54,0,0,1-1.85-.65,2.48,2.48,0,0,1-.67-1.86,2.73,2.73,0,0,1,.62-1.91,2.2,2.2,0,0,1,1.71-.67,2.16,2.16,0,0,1,1.62.59,2.24,2.24,0,0,1,.58,1.64v.65h-3.17a1.29,1.29,0,0,0,.34.89,1.19,1.19,0,0,0,.89.32,3.69,3.69,0,0,0,.84-.09,4.14,4.14,0,0,0,.83-.29v1a3.08,3.08,0,0,1-.75.26A4.7,4.7,0,0,1,145.09,360Zm-.19-4.14a.85.85,0,0,0-.67.27,1.25,1.25,0,0,0-.28.77h1.88a1.12,1.12,0,0,0-.26-.77A.88.88,0,0,0,144.9,355.9Z"/><path class="cls-3" d="M149.57,359.95h-1.34v-6.84h1.34Z"/><path class="cls-3" d="M157.44,359.95l-.47-1.53h-2.34l-.47,1.53h-1.47L155,353.5h1.67l2.28,6.45Zm-.79-2.67-.73-2.35c-.05-.18-.09-.32-.12-.43q-.15.56-.83,2.78Z"/><rect class="cls-4" x="103.55" y="346.01" width="82.04" height="21"/><rect class="cls-2" x="103.55" y="376.01" width="82.04" height="21"/><path class="cls-3" d="M133.56,389.95H132.2v-5.29h-1.74v-1.13h4.85v1.13h-1.74Z"/><path class="cls-3" d="M136.17,383.76q0-.65.73-.65t.73.65a.64.64,0,0,1-.18.49.77.77,0,0,1-.55.17Q136.17,384.42,136.17,383.76Zm1.4,6.18h-1.34V385h1.34Z"/><path class="cls-3" d="M141.08,389a2.9,2.9,0,0,0,.84-.15v1a3,3,0,0,1-1.23.22,1.51,1.51,0,0,1-1.17-.41,1.77,1.77,0,0,1-.37-1.22V386h-.64v-.57l.74-.45.39-1h.86v1h1.38v1h-1.38v2.37a.52.52,0,0,0,.16.42A.63.63,0,0,0,141.08,389Z"/><path class="cls-3" d="M145.17,390a2.54,2.54,0,0,1-1.85-.65,2.48,2.48,0,0,1-.67-1.86,2.73,2.73,0,0,1,.62-1.91,2.2,2.2,0,0,1,1.71-.67,2.16,2.16,0,0,1,1.62.59,2.24,2.24,0,0,1,.58,1.64v.65H144a1.29,1.29,0,0,0,.34.89,1.19,1.19,0,0,0,.89.32,3.69,3.69,0,0,0,.84-.09,4.14,4.14,0,0,0,.83-.29v1a3.08,3.08,0,0,1-.75.26A4.7,4.7,0,0,1,145.17,390ZM145,385.9a.85.85,0,0,0-.67.27,1.25,1.25,0,0,0-.28.77h1.88a1.12,1.12,0,0,0-.26-.77A.88.88,0,0,0,145,385.9Z"/><path class="cls-3" d="M149.65,389.95h-1.34v-6.84h1.34Z"/><path class="cls-3" d="M153.58,383.52h2a3.86,3.86,0,0,1,2,.39,1.35,1.35,0,0,1,.62,1.24,1.56,1.56,0,0,1-.27.95,1.08,1.08,0,0,1-.72.44v0a1.41,1.41,0,0,1,.88.51,1.66,1.66,0,0,1,.27,1,1.64,1.64,0,0,1-.63,1.37,2.75,2.75,0,0,1-1.73.49h-2.4Zm1.36,2.54h.79a1.45,1.45,0,0,0,.8-.17.64.64,0,0,0,.25-.57.57.57,0,0,0-.27-.53,1.75,1.75,0,0,0-.85-.16h-.72Zm0,1.08v1.67h.89a1.32,1.32,0,0,0,.83-.21.8.8,0,0,0,.27-.66q0-.8-1.14-.8Z"/><rect class="cls-4" x="103.55" y="376.01" width="82.04" height="21"/><rect class="cls-2" x="103.55" y="406.01" width="82.04" height="21"/><path class="cls-3" d="M133.72,419.95h-1.36v-5.29h-1.74v-1.13h4.85v1.13h-1.74Z"/><path class="cls-3" d="M136.32,413.76q0-.65.73-.65t.73.65a.64.64,0,0,1-.18.49.77.77,0,0,1-.55.17Q136.32,414.42,136.32,413.76Zm1.4,6.18h-1.34V415h1.34Z"/><path class="cls-3" d="M141.23,419a2.9,2.9,0,0,0,.84-.15v1a3,3,0,0,1-1.23.22,1.51,1.51,0,0,1-1.17-.41,1.77,1.77,0,0,1-.37-1.22V416h-.64v-.57l.74-.45.39-1h.86v1H142v1h-1.38v2.37a.52.52,0,0,0,.16.42A.63.63,0,0,0,141.23,419Z"/><path class="cls-3" d="M145.33,420a2.54,2.54,0,0,1-1.85-.65,2.48,2.48,0,0,1-.67-1.86,2.73,2.73,0,0,1,.62-1.91,2.2,2.2,0,0,1,1.71-.67,2.16,2.16,0,0,1,1.62.59,2.24,2.24,0,0,1,.58,1.64v.65h-3.17a1.29,1.29,0,0,0,.34.89,1.19,1.19,0,0,0,.89.32,3.69,3.69,0,0,0,.84-.09,4.14,4.14,0,0,0,.83-.29v1a3.08,3.08,0,0,1-.75.26A4.7,4.7,0,0,1,145.33,420Zm-.19-4.14a.85.85,0,0,0-.67.27,1.25,1.25,0,0,0-.28.77h1.88a1.12,1.12,0,0,0-.26-.77A.88.88,0,0,0,145.14,415.9Z"/><path class="cls-3" d="M149.81,419.95h-1.34v-6.84h1.34Z"/><path class="cls-3" d="M156.47,414.57a1.39,1.39,0,0,0-1.19.58,2.69,2.69,0,0,0-.42,1.61q0,2.15,1.61,2.15a5.07,5.07,0,0,0,1.64-.34v1.14a4.53,4.53,0,0,1-1.77.33,2.69,2.69,0,0,1-2.14-.85,3.6,3.6,0,0,1-.74-2.44,4,4,0,0,1,.36-1.76,2.64,2.64,0,0,1,1-1.16,3.11,3.11,0,0,1,1.6-.4,4.32,4.32,0,0,1,1.88.45l-.44,1.11a7.27,7.27,0,0,0-.73-.3A2.16,2.16,0,0,0,156.47,414.57Z"/><rect class="cls-4" x="103.55" y="406.01" width="82.04" height="21"/><rect class="cls-3" x="297.64" y="334.21" width="82.2" height="124.3"/><line class="cls-7" x1="204.09" y1="442.01" x2="204.09" y2="329.5"/><path class="cls-6" d="M204.09,328h0m0,117h0"/><line class="cls-7" x1="289.13" y1="442.01" x2="289.13" y2="329.5"/><path class="cls-6" d="M289.13,328h0m0,117h0"/><path class="cls-4" d="M308,375.17c35.31-24.69,61.15-59.59,74.72-104a198.92,198.92,0,0,0-4.6-130"/><polyline class="cls-4" points="316.32 376.33 308 375.17 309.76 366.95"/><path class="cls-2" d="M360.74,360.47a1.29,1.29,0,0,1-.49,1.07,2.12,2.12,0,0,1-1.36.39,3.19,3.19,0,0,1-1.42-.3v-1a6,6,0,0,0,.86.32,2.56,2.56,0,0,0,.64.09.92.92,0,0,0,.54-.13.46.46,0,0,0,.19-.4.44.44,0,0,0-.08-.26.92.92,0,0,0-.24-.22,6.32,6.32,0,0,0-.65-.34,3.16,3.16,0,0,1-.69-.41,1.57,1.57,0,0,1-.37-.46,1.31,1.31,0,0,1-.14-.62,1.29,1.29,0,0,1,.45-1,1.87,1.87,0,0,1,1.24-.38,2.94,2.94,0,0,1,.74.09,5.14,5.14,0,0,1,.74.26l-.34.82a5,5,0,0,0-.66-.23,2.14,2.14,0,0,0-.51-.07.68.68,0,0,0-.46.14.46.46,0,0,0-.16.37.45.45,0,0,0,.07.25.72.72,0,0,0,.21.2,6.56,6.56,0,0,0,.67.35,2.68,2.68,0,0,1,1,.67A1.31,1.31,0,0,1,360.74,360.47Z"/><path class="cls-2" d="M363.12,361.93q-1.78,0-1.78-2a2.09,2.09,0,0,1,.48-1.49,1.82,1.82,0,0,1,1.39-.51,2.64,2.64,0,0,1,1.19.26l-.31.81-.46-.16a1.48,1.48,0,0,0-.42-.06q-.81,0-.81,1.16t.81,1.12a1.86,1.86,0,0,0,.56-.08,2,2,0,0,0,.51-.25v.89a1.68,1.68,0,0,1-.51.22A2.89,2.89,0,0,1,363.12,361.93Z"/><path class="cls-2" d="M367.3,358a1.69,1.69,0,0,1,.35,0l-.08,1a1.21,1.21,0,0,0-.31,0,1.1,1.1,0,0,0-.78.26.93.93,0,0,0-.28.72v1.95h-1V358H366l.15.64h.05a1.44,1.44,0,0,1,.48-.52A1.19,1.19,0,0,1,367.3,358Z"/><path class="cls-2" d="M371.82,359.94a2.05,2.05,0,0,1-.49,1.46,1.79,1.79,0,0,1-1.37.53,1.92,1.92,0,0,1-1-.24,1.61,1.61,0,0,1-.65-.69,2.32,2.32,0,0,1-.23-1.05,2,2,0,0,1,.49-1.46A1.8,1.8,0,0,1,370,358a1.94,1.94,0,0,1,1,.24,1.6,1.6,0,0,1,.65.69A2.3,2.3,0,0,1,371.82,359.94Zm-2.64,0a1.6,1.6,0,0,0,.19.86.67.67,0,0,0,.61.29.66.66,0,0,0,.6-.29,1.63,1.63,0,0,0,.18-.86,1.58,1.58,0,0,0-.18-.85.78.78,0,0,0-1.21,0A1.58,1.58,0,0,0,369.18,359.94Z"/><path class="cls-2" d="M373.72,361.86h-1v-5.32h1Z"/><path class="cls-2" d="M375.86,361.86h-1v-5.32h1Z"/><path class="cls-2" d="M378.56,361.1a2.26,2.26,0,0,0,.66-.12v.78a2.36,2.36,0,0,1-1,.17,1.17,1.17,0,0,1-.91-.32,1.37,1.37,0,0,1-.29-.95v-1.84h-.5v-.44l.57-.35.3-.81h.67V358h1.07v.78h-1.07v1.84a.4.4,0,0,0,.13.33A.49.49,0,0,0,378.56,361.1Z"/><path class="cls-2" d="M382.42,361.86l-.2-.52h0a1.55,1.55,0,0,1-.54.46,1.76,1.76,0,0,1-.73.13,1.17,1.17,0,0,1-.87-.31,1.21,1.21,0,0,1-.32-.9,1,1,0,0,1,.43-.9,2.46,2.46,0,0,1,1.28-.32l.66,0v-.17a.52.52,0,0,0-.59-.58,2.71,2.71,0,0,0-1.08.28l-.34-.7a3.1,3.1,0,0,1,1.46-.35,1.82,1.82,0,0,1,1.18.34,1.24,1.24,0,0,1,.41,1v2.55Zm-.31-1.77h-.4a1.29,1.29,0,0,0-.68.16.52.52,0,0,0-.22.46q0,.44.51.44a.8.8,0,0,0,.58-.21.73.73,0,0,0,.22-.55Z"/><path class="cls-2" d="M386.34,358a1.24,1.24,0,0,1,1.06.53,2.42,2.42,0,0,1,.38,1.45,2.38,2.38,0,0,1-.39,1.47,1.38,1.38,0,0,1-2.13,0h-.07l-.17.42h-.8v-5.32h1v1.24q0,.24,0,.75h0A1.2,1.2,0,0,1,386.34,358Zm-.33.83a.66.66,0,0,0-.56.24,1.36,1.36,0,0,0-.18.78v.11a1.6,1.6,0,0,0,.18.88.65.65,0,0,0,.58.27.58.58,0,0,0,.51-.3,1.6,1.6,0,0,0,.19-.86,1.52,1.52,0,0,0-.19-.85A.6.6,0,0,0,386,358.8Z"/><path class="cls-2" d="M389.69,361.86h-1v-5.32h1Z"/><path class="cls-2" d="M392.51,361.93a2,2,0,0,1-1.44-.51,1.93,1.93,0,0,1-.52-1.44,2.12,2.12,0,0,1,.48-1.49,1.71,1.71,0,0,1,1.33-.52,1.68,1.68,0,0,1,1.26.46,1.75,1.75,0,0,1,.45,1.28v.51h-2.46a1,1,0,0,0,.26.69.93.93,0,0,0,.69.25,2.87,2.87,0,0,0,.65-.07,3.27,3.27,0,0,0,.64-.23v.81a2.47,2.47,0,0,1-.58.2A3.73,3.73,0,0,1,392.51,361.93Zm-.15-3.22a.66.66,0,0,0-.52.21,1,1,0,0,0-.21.6h1.46a.87.87,0,0,0-.2-.6A.68.68,0,0,0,392.37,358.71Z"/><path class="cls-2" d="M361.84,371.31a2.53,2.53,0,0,1-.67,1.89,2.66,2.66,0,0,1-1.93.65h-1.38v-5h1.53a2.24,2.24,0,0,1,2.46,2.45Zm-.62,0a2,2,0,0,0-.49-1.47,2,2,0,0,0-1.46-.5h-.84v4h.71a2.15,2.15,0,0,0,1.56-.51A2,2,0,0,0,361.23,371.33Z"/><path class="cls-2" d="M362.82,369.1a.38.38,0,0,1,.1-.29.36.36,0,0,1,.47,0,.37.37,0,0,1,.1.28.38.38,0,0,1-.1.29.35.35,0,0,1-.47,0A.38.38,0,0,1,362.82,369.1Zm.62,4.76h-.57v-3.75h.57Z"/><path class="cls-2" d="M366.22,373.93a1.72,1.72,0,0,1-1.31-.51,2,2,0,0,1-.48-1.4,2.17,2.17,0,0,1,.45-1.44,1.48,1.48,0,0,1,1.2-.53,1.41,1.41,0,0,1,1.11.46,1.78,1.78,0,0,1,.41,1.22v.36H365a1.48,1.48,0,0,0,.33,1,1.15,1.15,0,0,0,.89.34,3,3,0,0,0,1.2-.25v.51a3,3,0,0,1-.57.19A3.17,3.17,0,0,1,366.22,373.93Zm-.15-3.41a.93.93,0,0,0-.72.29,1.36,1.36,0,0,0-.32.81h2a1.25,1.25,0,0,0-.24-.82A.84.84,0,0,0,366.07,370.52Z"/><path class="cls-2" d="M374.46,371.31a2.53,2.53,0,0,1-.67,1.89,2.66,2.66,0,0,1-1.93.65h-1.38v-5H372a2.24,2.24,0,0,1,2.46,2.45Zm-.62,0a2,2,0,0,0-.49-1.47,2,2,0,0,0-1.46-.5h-.84v4h.71a2.15,2.15,0,0,0,1.56-.51A2,2,0,0,0,373.85,371.33Z"/><path class="cls-2" d="M377.79,373.86l-.11-.53h0a1.58,1.58,0,0,1-.56.48,1.71,1.71,0,0,1-.7.13,1.25,1.25,0,0,1-.87-.29,1,1,0,0,1-.32-.82q0-1.14,1.81-1.19l.64,0v-.23a1,1,0,0,0-.19-.65.78.78,0,0,0-.61-.21,2.47,2.47,0,0,0-1.06.29l-.17-.43a2.69,2.69,0,0,1,.61-.24,2.64,2.64,0,0,1,.66-.08,1.42,1.42,0,0,1,1,.3,1.24,1.24,0,0,1,.32,1v2.56Zm-1.28-.4a1.15,1.15,0,0,0,.83-.29,1.08,1.08,0,0,0,.3-.81V372l-.57,0a2.06,2.06,0,0,0-1,.21.63.63,0,0,0-.3.58.58.58,0,0,0,.19.47A.77.77,0,0,0,376.51,373.46Z"/><path class="cls-2" d="M380.59,373.46l.29,0,.22,0v.43a1.07,1.07,0,0,1-.27.07l-.32,0q-1.09,0-1.09-1.14v-2.23h-.54v-.27l.54-.24.24-.8H380v.87h1.09v.44H380v2.2a.76.76,0,0,0,.16.52A.56.56,0,0,0,380.59,373.46Z"/><path class="cls-2" d="M383.44,373.93a1.72,1.72,0,0,1-1.31-.51,2,2,0,0,1-.48-1.4,2.17,2.17,0,0,1,.45-1.44,1.48,1.48,0,0,1,1.2-.53,1.41,1.41,0,0,1,1.11.46,1.78,1.78,0,0,1,.41,1.22v.36h-2.58a1.48,1.48,0,0,0,.33,1,1.15,1.15,0,0,0,.89.34,3,3,0,0,0,1.2-.25v.51a3,3,0,0,1-.57.19A3.17,3.17,0,0,1,383.44,373.93Zm-.15-3.41a.93.93,0,0,0-.72.29,1.36,1.36,0,0,0-.32.81h2a1.25,1.25,0,0,0-.24-.82A.84.84,0,0,0,383.28,370.52Z"/><path class="cls-2" d="M388.34,373.86v-2.42a1,1,0,0,0-.21-.68.85.85,0,0,0-.65-.22,1.08,1.08,0,0,0-.86.32,1.61,1.61,0,0,0-.27,1v2h-.57v-3.75h.46l.09.51h0a1.16,1.16,0,0,1,.49-.43,1.59,1.59,0,0,1,.7-.15,1.43,1.43,0,0,1,1,.33,1.39,1.39,0,0,1,.34,1v2.44Z"/><path class="cls-2" d="M392.46,371.94a6.93,6.93,0,0,1,.45-.55l1.21-1.28h.67l-1.52,1.6,1.62,2.15h-.69l-1.32-1.77-.43.37v1.4h-.56v-5.32h.56v2.82q0,.19,0,.58Z"/><path class="cls-2" d="M398.8,372a2.07,2.07,0,0,1-.46,1.43,1.63,1.63,0,0,1-1.28.51,1.68,1.68,0,0,1-.89-.24,1.56,1.56,0,0,1-.6-.68,2.36,2.36,0,0,1-.21-1,2.06,2.06,0,0,1,.46-1.43,1.62,1.62,0,0,1,1.27-.51,1.58,1.58,0,0,1,1.25.52A2.06,2.06,0,0,1,398.8,372Zm-2.85,0a1.78,1.78,0,0,0,.29,1.09,1.14,1.14,0,0,0,1.69,0,1.76,1.76,0,0,0,.29-1.1,1.74,1.74,0,0,0-.29-1.08,1,1,0,0,0-.85-.37,1,1,0,0,0-.84.37A1.76,1.76,0,0,0,395.95,372Zm.17-2.88a.32.32,0,0,1,.09-.26.32.32,0,0,1,.22-.08.34.34,0,0,1,.22.08.32.32,0,0,1,.09.26.31.31,0,0,1-.32.34.31.31,0,0,1-.22-.08A.33.33,0,0,1,396.12,369.1Zm1.3,0a.32.32,0,0,1,.09-.26.32.32,0,0,1,.22-.08.33.33,0,0,1,.22.08.32.32,0,0,1,.09.26.31.31,0,0,1-.31.34.31.31,0,0,1-.22-.08A.33.33,0,0,1,397.42,369.1Z"/><path class="cls-2" d="M402.36,373.86v-2.42a1,1,0,0,0-.21-.68.85.85,0,0,0-.65-.22,1.07,1.07,0,0,0-.86.32,1.61,1.61,0,0,0-.27,1v2h-.57v-3.75h.46l.09.51h0a1.16,1.16,0,0,1,.49-.43,1.59,1.59,0,0,1,.7-.15,1.42,1.42,0,0,1,1,.33,1.39,1.39,0,0,1,.34,1v2.44Z"/><path class="cls-2" d="M406.66,373.86v-2.42a1,1,0,0,0-.21-.68.85.85,0,0,0-.65-.22,1.07,1.07,0,0,0-.86.32,1.6,1.6,0,0,0-.27,1v2h-.57v-3.75h.46l.09.51h0a1.16,1.16,0,0,1,.49-.43,1.59,1.59,0,0,1,.7-.15,1.42,1.42,0,0,1,1,.33,1.39,1.39,0,0,1,.34,1v2.44Z"/><path class="cls-2" d="M410,373.93a1.72,1.72,0,0,1-1.31-.51,2,2,0,0,1-.48-1.4,2.17,2.17,0,0,1,.45-1.44,1.48,1.48,0,0,1,1.2-.53,1.41,1.41,0,0,1,1.11.46,1.78,1.78,0,0,1,.41,1.22v.36h-2.58a1.48,1.48,0,0,0,.33,1,1.15,1.15,0,0,0,.89.34,3,3,0,0,0,1.2-.25v.51a3,3,0,0,1-.57.19A3.17,3.17,0,0,1,410,373.93Zm-.15-3.41a.93.93,0,0,0-.72.29,1.36,1.36,0,0,0-.32.81h2a1.25,1.25,0,0,0-.24-.82A.84.84,0,0,0,409.82,370.52Z"/><path class="cls-2" d="M414.88,373.86v-2.42a1,1,0,0,0-.21-.68.85.85,0,0,0-.65-.22,1.08,1.08,0,0,0-.86.32,1.61,1.61,0,0,0-.27,1v2h-.57v-3.75h.46l.09.51h0a1.16,1.16,0,0,1,.49-.43,1.59,1.59,0,0,1,.7-.15,1.43,1.43,0,0,1,1,.33,1.39,1.39,0,0,1,.34,1v2.44Z"/><path class="cls-2" d="M421.5,370.11v.36l-.69.08a1.15,1.15,0,0,1,.17.31,1.2,1.2,0,0,1,.08.44,1.11,1.11,0,0,1-.38.88,1.52,1.52,0,0,1-1,.33l-.31,0a.56.56,0,0,0-.36.48.25.25,0,0,0,.13.23.93.93,0,0,0,.43.07h.66a1.48,1.48,0,0,1,.93.26.89.89,0,0,1,.33.74,1.06,1.06,0,0,1-.5.95,2.67,2.67,0,0,1-1.46.33,2,2,0,0,1-1.13-.27.88.88,0,0,1-.4-.77.86.86,0,0,1,.22-.59,1.11,1.11,0,0,1,.62-.34.58.58,0,0,1-.24-.2.53.53,0,0,1-.1-.32.6.6,0,0,1,.11-.36,1.15,1.15,0,0,1,.34-.3,1,1,0,0,1-.47-.41,1.19,1.19,0,0,1-.18-.66,1.21,1.21,0,0,1,.37-.95,1.51,1.51,0,0,1,1-.33,1.89,1.89,0,0,1,.53.07Zm-3,4.38a.51.51,0,0,0,.26.46,1.41,1.41,0,0,0,.73.16,2.05,2.05,0,0,0,1.06-.21.66.66,0,0,0,.34-.58.46.46,0,0,0-.19-.42,1.47,1.47,0,0,0-.71-.12h-.68a.9.9,0,0,0-.6.19A.66.66,0,0,0,418.51,374.49Zm.31-3.18a.76.76,0,0,0,.22.6.89.89,0,0,0,.62.2.72.72,0,0,0,.83-.81.74.74,0,0,0-.84-.84.83.83,0,0,0-.62.21A.87.87,0,0,0,418.82,371.31Z"/><path class="cls-2" d="M423.85,373.93a1.72,1.72,0,0,1-1.31-.51,2,2,0,0,1-.48-1.4,2.17,2.17,0,0,1,.45-1.44,1.48,1.48,0,0,1,1.2-.53,1.41,1.41,0,0,1,1.11.46,1.78,1.78,0,0,1,.41,1.22v.36h-2.58a1.48,1.48,0,0,0,.33,1,1.15,1.15,0,0,0,.89.34,3,3,0,0,0,1.2-.25v.51a3,3,0,0,1-.57.19A3.17,3.17,0,0,1,423.85,373.93Zm-.15-3.41a.93.93,0,0,0-.72.29,1.36,1.36,0,0,0-.32.81h2a1.25,1.25,0,0,0-.24-.82A.84.84,0,0,0,423.7,370.52Z"/><path class="cls-2" d="M428.61,372.84a.94.94,0,0,1-.39.81,1.84,1.84,0,0,1-1.09.28,2.37,2.37,0,0,1-1.16-.24v-.53a2.86,2.86,0,0,0,.58.21,2.41,2.41,0,0,0,.6.08,1.35,1.35,0,0,0,.68-.14.49.49,0,0,0,0-.81,3,3,0,0,0-.74-.37,4.09,4.09,0,0,1-.74-.34,1,1,0,0,1-.33-.33A.88.88,0,0,1,426,371a.84.84,0,0,1,.37-.72,1.73,1.73,0,0,1,1-.26,3,3,0,0,1,1.18.25l-.2.46a2.73,2.73,0,0,0-1-.23,1.18,1.18,0,0,0-.61.13.39.39,0,0,0-.21.35.43.43,0,0,0,.08.26.76.76,0,0,0,.25.2,5.53,5.53,0,0,0,.66.28,2.44,2.44,0,0,1,.9.49A.86.86,0,0,1,428.61,372.84Z"/><path class="cls-2" d="M431,373.93a1.6,1.6,0,0,1-1.26-.5,2.06,2.06,0,0,1-.45-1.42,2.12,2.12,0,0,1,.45-1.45,1.63,1.63,0,0,1,1.29-.51,2.55,2.55,0,0,1,.54.06,1.76,1.76,0,0,1,.42.14l-.17.48a2.77,2.77,0,0,0-.41-.12,1.82,1.82,0,0,0-.39,0q-1.14,0-1.14,1.46a1.73,1.73,0,0,0,.28,1.06,1,1,0,0,0,.83.37,2.52,2.52,0,0,0,1-.2v.5A2,2,0,0,1,431,373.93Z"/><path class="cls-2" d="M434.58,370a2.22,2.22,0,0,1,.45,0l-.08.53a1.94,1.94,0,0,0-.41-.05,1,1,0,0,0-.78.37,1.34,1.34,0,0,0-.32.92v2h-.57v-3.75h.47l.07.69h0a1.65,1.65,0,0,1,.5-.56A1.13,1.13,0,0,1,434.58,370Z"/><path class="cls-2" d="M439,372a2.07,2.07,0,0,1-.46,1.43,1.63,1.63,0,0,1-1.28.51,1.68,1.68,0,0,1-.89-.24,1.56,1.56,0,0,1-.6-.68,2.36,2.36,0,0,1-.21-1,2.06,2.06,0,0,1,.46-1.43,1.62,1.62,0,0,1,1.27-.51,1.58,1.58,0,0,1,1.25.52A2.06,2.06,0,0,1,439,372Zm-2.85,0a1.78,1.78,0,0,0,.29,1.09,1.14,1.14,0,0,0,1.69,0,1.76,1.76,0,0,0,.29-1.1,1.74,1.74,0,0,0-.29-1.08,1,1,0,0,0-.85-.37,1,1,0,0,0-.84.37A1.76,1.76,0,0,0,436.1,372Z"/><path class="cls-2" d="M440.52,373.86H440v-5.32h.57Z"/><path class="cls-2" d="M442.29,373.86h-.57v-5.32h.57Z"/><path class="cls-2" d="M444.7,373.46l.29,0,.22,0v.43a1.06,1.06,0,0,1-.27.07l-.32,0q-1.09,0-1.09-1.14v-2.23H443v-.27l.54-.24.24-.8h.33v.87h1.09v.44H444.1v2.2a.76.76,0,0,0,.16.52A.56.56,0,0,0,444.7,373.46Z"/><path class="cls-2" d="M450.84,373.86l-.69-2.2c0-.13-.12-.44-.24-.92h0c-.09.4-.17.71-.24.92l-.71,2.19h-.66l-1-3.75h.59l.55,2.15a8.44,8.44,0,0,1,.22,1h0c0-.13.07-.3.12-.5s.11-.37.15-.49l.69-2.15h.62l.67,2.15a7.24,7.24,0,0,1,.26,1h0a3.8,3.8,0,0,1,.07-.38q.06-.25.71-2.76h.59l-1,3.75Z"/><path class="cls-2" d="M454.81,373.93a1.72,1.72,0,0,1-1.31-.51A2,2,0,0,1,453,372a2.17,2.17,0,0,1,.45-1.44,1.48,1.48,0,0,1,1.2-.53,1.41,1.41,0,0,1,1.11.46,1.78,1.78,0,0,1,.41,1.22v.36h-2.58a1.48,1.48,0,0,0,.33,1,1.15,1.15,0,0,0,.89.34,3,3,0,0,0,1.2-.25v.51a3,3,0,0,1-.57.19A3.16,3.16,0,0,1,454.81,373.93Zm-.15-3.41a.93.93,0,0,0-.72.29,1.35,1.35,0,0,0-.32.81h2a1.24,1.24,0,0,0-.24-.82A.84.84,0,0,0,454.66,370.52Z"/><path class="cls-2" d="M458.86,370a2.22,2.22,0,0,1,.45,0l-.08.53a1.93,1.93,0,0,0-.41-.05,1,1,0,0,0-.78.37,1.35,1.35,0,0,0-.32.92v2h-.57v-3.75h.47l.06.69h0a1.65,1.65,0,0,1,.5-.56A1.13,1.13,0,0,1,458.86,370Z"/><path class="cls-2" d="M462.56,373.36h0a1.33,1.33,0,0,1-1.18.57,1.39,1.39,0,0,1-1.14-.5,2.21,2.21,0,0,1-.41-1.43,2.25,2.25,0,0,1,.41-1.44,1.38,1.38,0,0,1,1.14-.51,1.36,1.36,0,0,1,1.17.55h0l0-.27v-1.79h.57v5.32h-.46Zm-1.13.1a1,1,0,0,0,.84-.32,1.6,1.6,0,0,0,.26-1V372a1.87,1.87,0,0,0-.27-1.14,1,1,0,0,0-.85-.34.87.87,0,0,0-.76.39,1.93,1.93,0,0,0-.26,1.1,1.85,1.85,0,0,0,.26,1.08A.89.89,0,0,0,461.43,373.45Z"/><path class="cls-2" d="M465.88,373.93a1.72,1.72,0,0,1-1.31-.51,2,2,0,0,1-.48-1.4,2.17,2.17,0,0,1,.45-1.44,1.48,1.48,0,0,1,1.2-.53,1.41,1.41,0,0,1,1.11.46,1.78,1.78,0,0,1,.41,1.22v.36h-2.58a1.48,1.48,0,0,0,.33,1,1.15,1.15,0,0,0,.89.34,3,3,0,0,0,1.2-.25v.51a3,3,0,0,1-.57.19A3.16,3.16,0,0,1,465.88,373.93Zm-.15-3.41a.93.93,0,0,0-.72.29,1.35,1.35,0,0,0-.32.81h2a1.24,1.24,0,0,0-.24-.82A.84.84,0,0,0,465.73,370.52Z"/><path class="cls-2" d="M470.79,373.86v-2.42a1,1,0,0,0-.21-.68.85.85,0,0,0-.65-.22,1.07,1.07,0,0,0-.86.32,1.6,1.6,0,0,0-.27,1v2h-.57v-3.75h.46l.09.51h0a1.16,1.16,0,0,1,.49-.43,1.59,1.59,0,0,1,.7-.15,1.42,1.42,0,0,1,1,.33,1.39,1.39,0,0,1,.34,1v2.44Z"/><path class="cls-2" d="M472.44,373.5a.51.51,0,0,1,.1-.35.38.38,0,0,1,.3-.12.4.4,0,0,1,.31.12.49.49,0,0,1,.11.35.48.48,0,0,1-.11.34.45.45,0,0,1-.6,0A.47.47,0,0,1,472.44,373.5Z"/><path class="cls-2" d="M227.77,444.53a1.23,1.23,0,0,1-.48,1,2.07,2.07,0,0,1-1.3.37,3.26,3.26,0,0,1-1.37-.23v-.56a3.7,3.7,0,0,0,.67.21,3.55,3.55,0,0,0,.72.07,1.45,1.45,0,0,0,.88-.22.73.73,0,0,0,.29-.61.78.78,0,0,0-.1-.42,1,1,0,0,0-.35-.31,4.79,4.79,0,0,0-.74-.32,2.36,2.36,0,0,1-1-.59,1.3,1.3,0,0,1-.3-.89,1.11,1.11,0,0,1,.43-.92,1.8,1.8,0,0,1,1.15-.34,3.38,3.38,0,0,1,1.37.27l-.18.51a3.09,3.09,0,0,0-1.2-.26,1.17,1.17,0,0,0-.72.2.66.66,0,0,0-.26.55.84.84,0,0,0,.1.43.9.9,0,0,0,.32.3,4,4,0,0,0,.7.31,2.76,2.76,0,0,1,1.08.6A1.18,1.18,0,0,1,227.77,444.53Z"/><path class="cls-2" d="M230.2,445.93a1.6,1.6,0,0,1-1.26-.5,2.06,2.06,0,0,1-.45-1.42,2.12,2.12,0,0,1,.45-1.45,1.63,1.63,0,0,1,1.29-.51,2.54,2.54,0,0,1,.54.06,1.73,1.73,0,0,1,.42.14l-.17.48a2.73,2.73,0,0,0-.41-.12,1.82,1.82,0,0,0-.39,0q-1.14,0-1.14,1.46a1.73,1.73,0,0,0,.28,1.06,1,1,0,0,0,.83.37,2.52,2.52,0,0,0,1-.2v.5A2,2,0,0,1,230.2,445.93Z"/><path class="cls-2" d="M233.75,442a2.22,2.22,0,0,1,.45,0l-.08.53a1.93,1.93,0,0,0-.41-.05,1,1,0,0,0-.78.37,1.34,1.34,0,0,0-.32.92v2H232v-3.75h.47l.06.69h0a1.65,1.65,0,0,1,.5-.56A1.13,1.13,0,0,1,233.75,442Z"/><path class="cls-2" d="M238.13,444a2.07,2.07,0,0,1-.46,1.43,1.63,1.63,0,0,1-1.27.51,1.68,1.68,0,0,1-.89-.24,1.55,1.55,0,0,1-.6-.68,2.37,2.37,0,0,1-.21-1,2.06,2.06,0,0,1,.46-1.43,1.62,1.62,0,0,1,1.27-.51,1.58,1.58,0,0,1,1.25.52A2.06,2.06,0,0,1,238.13,444Zm-2.85,0a1.78,1.78,0,0,0,.29,1.09,1.14,1.14,0,0,0,1.69,0,1.77,1.77,0,0,0,.29-1.1,1.74,1.74,0,0,0-.29-1.08,1,1,0,0,0-.85-.37,1,1,0,0,0-.84.37A1.76,1.76,0,0,0,235.28,444Z"/><path class="cls-2" d="M239.69,445.86h-.57v-5.32h.57Z"/><path class="cls-2" d="M241.46,445.86h-.57v-5.32h.57Z"/><path class="cls-2" d="M242.35,444.24v-.52H244v.52Z"/><path class="cls-2" d="M245,440.86h1.41a2.65,2.65,0,0,1,1.44.3,1,1,0,0,1,.44.94,1.09,1.09,0,0,1-.25.73,1.19,1.19,0,0,1-.72.37v0q1.14.19,1.14,1.2a1.29,1.29,0,0,1-.45,1,1.92,1.92,0,0,1-1.27.38H245Zm.58,2.14h1a1.56,1.56,0,0,0,.89-.19.74.74,0,0,0,.27-.65.66.66,0,0,0-.3-.61,1.88,1.88,0,0,0-1-.19h-.85Zm0,.49v1.87h1a1.49,1.49,0,0,0,.91-.23.87.87,0,0,0,.31-.73.78.78,0,0,0-.31-.68,1.68,1.68,0,0,0-1-.22Z"/><path class="cls-2" d="M251,445.93a1.72,1.72,0,0,1-1.31-.51,2,2,0,0,1-.48-1.4,2.17,2.17,0,0,1,.45-1.44,1.48,1.48,0,0,1,1.2-.53,1.41,1.41,0,0,1,1.12.46,1.78,1.78,0,0,1,.41,1.22v.36h-2.58a1.48,1.48,0,0,0,.33,1,1.15,1.15,0,0,0,.89.34,3,3,0,0,0,1.2-.25v.51a3,3,0,0,1-.57.19A3.16,3.16,0,0,1,251,445.93Zm-.15-3.41a.93.93,0,0,0-.72.29,1.36,1.36,0,0,0-.32.81h2a1.25,1.25,0,0,0-.24-.82A.84.84,0,0,0,250.88,442.52Z"/><path class="cls-2" d="M255.09,442a2.22,2.22,0,0,1,.45,0l-.08.53a1.93,1.93,0,0,0-.41-.05,1,1,0,0,0-.78.37,1.34,1.34,0,0,0-.32.92v2h-.57v-3.75h.47l.06.69h0a1.65,1.65,0,0,1,.5-.56A1.14,1.14,0,0,1,255.09,442Z"/><path class="cls-2" d="M257.82,445.93a1.72,1.72,0,0,1-1.31-.51A2,2,0,0,1,256,444a2.17,2.17,0,0,1,.45-1.44,1.48,1.48,0,0,1,1.2-.53,1.41,1.41,0,0,1,1.11.46,1.78,1.78,0,0,1,.41,1.22v.36h-2.58a1.48,1.48,0,0,0,.33,1,1.15,1.15,0,0,0,.89.34,3,3,0,0,0,1.2-.25v.51a3,3,0,0,1-.57.19A3.17,3.17,0,0,1,257.82,445.93Zm-.15-3.41a.93.93,0,0,0-.72.29,1.36,1.36,0,0,0-.32.81h2a1.25,1.25,0,0,0-.24-.82A.84.84,0,0,0,257.67,442.52Z"/><path class="cls-2" d="M260.12,441.1a.38.38,0,0,1,.1-.29.34.34,0,0,1,.24-.09.33.33,0,0,1,.24.09.37.37,0,0,1,.1.28.38.38,0,0,1-.1.29.35.35,0,0,1-.48,0A.39.39,0,0,1,260.12,441.1Zm.62,4.76h-.57v-3.75h.57Z"/><path class="cls-2" d="M263.43,445.93a1.6,1.6,0,0,1-1.26-.5,2.06,2.06,0,0,1-.45-1.42,2.13,2.13,0,0,1,.45-1.45,1.63,1.63,0,0,1,1.29-.51,2.55,2.55,0,0,1,.54.06,1.73,1.73,0,0,1,.42.14l-.17.48a2.7,2.7,0,0,0-.41-.12,1.82,1.82,0,0,0-.39,0q-1.14,0-1.14,1.46a1.73,1.73,0,0,0,.28,1.06,1,1,0,0,0,.83.37,2.52,2.52,0,0,0,1-.2v.5A2,2,0,0,1,263.43,445.93Z"/><path class="cls-2" d="M267.83,445.86v-2.42a1,1,0,0,0-.21-.68.85.85,0,0,0-.65-.22,1.07,1.07,0,0,0-.86.32,1.63,1.63,0,0,0-.27,1.05v2h-.57v-5.32h.57v1.61a3.62,3.62,0,0,1,0,.48h0a1.16,1.16,0,0,1,.48-.43,1.55,1.55,0,0,1,.71-.16,1.44,1.44,0,0,1,1,.33,1.37,1.37,0,0,1,.34,1v2.44Z"/></svg>