<svg id="Layer_1" data-name="Layer 1" xmlns="http://www.w3.org/2000/svg" viewBox="0 0 226.08 152.03"><defs><style>.cls-1{fill:#fff;}.cls-2{fill:none;stroke:#232321;stroke-miterlimit:10;stroke-width:0.63px;}.cls-3{fill:#1a5583;}.cls-4{fill:#20201e;}</style></defs><title>rendering</title><rect class="cls-1" x="96.36" y="121.32" width="33.37" height="28.3"/><rect class="cls-2" x="96.36" y="121.32" width="33.37" height="28.3"/><rect class="cls-1" x="84.01" y="144.56" width="58.06" height="7.15"/><rect class="cls-2" x="84.01" y="144.56" width="58.06" height="7.15"/><path class="cls-1" d="M5.2.31H220.89a4.89,4.89,0,0,1,4.89,4.89V124a4.89,4.89,0,0,1-4.89,4.89H5.2A4.89,4.89,0,0,1,.31,124V5.2A4.89,4.89,0,0,1,5.2.31m8,117.38H213V11.35H13.15Z"/><path class="cls-2" d="M5.2.31H220.88a4.89,4.89,0,0,1,4.89,4.89V124a4.89,4.89,0,0,1-4.89,4.89H5.2A4.89,4.89,0,0,1,.31,124V5.2A4.89,4.89,0,0,1,5.2.31Zm8,117.38H213V11.35H13.15Z"/><path class="cls-3" d="M58.75,50.18H56.9v-.67H61.4v.67H59.54v5.4h-.79Z"/><path class="cls-3" d="M62.83,50a.49.49,0,0,1-1,0,.48.48,0,0,1,.49-.5A.47.47,0,0,1,62.83,50Zm-.88,5.58V51.22h.79v4.36Z"/><path class="cls-3" d="M65,50v1.25h1.13v.6H65v2.35c0,.54.15.85.59.85a1.75,1.75,0,0,0,.46-.05l0,.59a2,2,0,0,1-.7.11,1.1,1.1,0,0,1-.85-.33,1.61,1.61,0,0,1-.31-1.13V51.83h-.68v-.6h.68v-1Z"/><path class="cls-3" d="M67.42,53.55a1.4,1.4,0,0,0,1.49,1.51,2.87,2.87,0,0,0,1.21-.22l.13.57a3.53,3.53,0,0,1-1.45.27,2,2,0,0,1-2.14-2.2,2.11,2.11,0,0,1,2-2.35,1.85,1.85,0,0,1,1.8,2.05,2.83,2.83,0,0,1,0,.37ZM69.74,53a1.13,1.13,0,0,0-1.1-1.29A1.31,1.31,0,0,0,67.43,53Z"/><path class="cls-3" d="M71.48,49.19h.79v6.39h-.79Z"/><path class="cls-4" d="M57.6,61.59a11.16,11.16,0,0,1,1.67-.13,3.47,3.47,0,0,1,2.46.76,2.8,2.8,0,0,1,.86,2.18,3.21,3.21,0,0,1-.87,2.36,3.74,3.74,0,0,1-2.68.87,12.66,12.66,0,0,1-1.42-.07ZM58.38,67a4.93,4.93,0,0,0,.79,0,2.33,2.33,0,0,0,2.58-2.58,2.16,2.16,0,0,0-2.46-2.34,4.38,4.38,0,0,0-.92.08Z"/><path class="cls-4" d="M64,65.55a1.4,1.4,0,0,0,1.49,1.51,2.87,2.87,0,0,0,1.21-.22l.13.57a3.53,3.53,0,0,1-1.45.27,2,2,0,0,1-2.14-2.2,2.11,2.11,0,0,1,2-2.35,1.85,1.85,0,0,1,1.8,2.05,2.83,2.83,0,0,1,0,.37ZM66.36,65a1.13,1.13,0,0,0-1.1-1.29A1.31,1.31,0,0,0,64.05,65Z"/><path class="cls-4" d="M68.11,64.58c0-.51,0-1,0-1.36h.69l0,.86h0a1.31,1.31,0,0,1,1.21-1,.88.88,0,0,1,.23,0v.75a1.16,1.16,0,0,0-.27,0,1.11,1.11,0,0,0-1.06,1,2.27,2.27,0,0,0,0,.37v2.32h-.78Z"/><path class="cls-4" d="M73.78,62.18H71.93v-.67h4.49v.67H74.57v5.4h-.79Z"/><path class="cls-4" d="M76.87,65.55a1.4,1.4,0,0,0,1.49,1.51,2.87,2.87,0,0,0,1.21-.22l.13.57a3.53,3.53,0,0,1-1.45.27,2,2,0,0,1-2.14-2.2,2.11,2.11,0,0,1,2-2.35A1.85,1.85,0,0,1,80,65.18a2.83,2.83,0,0,1,0,.37ZM79.2,65a1.13,1.13,0,0,0-1.1-1.29A1.31,1.31,0,0,0,76.88,65Z"/><path class="cls-4" d="M81.29,63.22l.62.94c.16.24.3.47.44.71h0c.14-.26.29-.49.43-.72l.61-.93h.86L82.8,65.33l1.53,2.25h-.9l-.64-1c-.17-.25-.32-.5-.47-.76h0c-.14.26-.3.5-.46.76l-.63,1h-.87l1.55-2.22-1.48-2.13Z"/><path class="cls-4" d="M86.15,62v1.25h1.13v.6H86.15v2.35c0,.54.15.85.59.85a1.75,1.75,0,0,0,.46-.05l0,.59a2,2,0,0,1-.7.11,1.1,1.1,0,0,1-.86-.33,1.62,1.62,0,0,1-.31-1.13V63.83H84.7v-.6h.67v-1Z"/><path class="cls-4" d="M90.05,67.58c0-.3,0-.74,0-1.12V61.19h.78v2.74h0a1.62,1.62,0,0,1,1.48-.8,2,2,0,0,1,1.84,2.22,2.07,2.07,0,0,1-2,2.33,1.55,1.55,0,0,1-1.46-.82h0l0,.72Zm.82-1.75a1.53,1.53,0,0,0,0,.29,1.22,1.22,0,0,0,1.19.93c.83,0,1.32-.67,1.32-1.67s-.45-1.62-1.3-1.62a1.26,1.26,0,0,0-1.21,1,1.52,1.52,0,0,0,0,.32Z"/><path class="cls-4" d="M95.65,65.55a1.4,1.4,0,0,0,1.49,1.51,2.87,2.87,0,0,0,1.21-.22l.13.57a3.53,3.53,0,0,1-1.45.27,2,2,0,0,1-2.14-2.2,2.11,2.11,0,0,1,2-2.35,1.85,1.85,0,0,1,1.8,2.05,2.83,2.83,0,0,1,0,.37ZM98,65a1.13,1.13,0,0,0-1.1-1.29A1.31,1.31,0,0,0,95.66,65Z"/><path class="cls-4" d="M99.61,66.77a2.07,2.07,0,0,0,1,.32c.58,0,.85-.29.85-.65s-.23-.58-.81-.8c-.78-.28-1.15-.71-1.15-1.23a1.34,1.34,0,0,1,1.5-1.28,2.18,2.18,0,0,1,1.07.27l-.2.58a1.7,1.7,0,0,0-.89-.25c-.47,0-.73.27-.73.59s.26.52.83.74c.76.29,1.14.67,1.14,1.31s-.59,1.31-1.63,1.31a2.49,2.49,0,0,1-1.22-.3Z"/><path class="cls-4" d="M104.23,62v1.25h1.13v.6h-1.13v2.35c0,.54.15.85.59.85a1.76,1.76,0,0,0,.46-.05l0,.59a2,2,0,0,1-.7.11,1.1,1.1,0,0,1-.85-.33,1.61,1.61,0,0,1-.31-1.13V63.83h-.68v-.6h.68v-1Z"/><path class="cls-4" d="M106.65,65.55a1.4,1.4,0,0,0,1.49,1.51,2.87,2.87,0,0,0,1.21-.22l.13.57a3.53,3.53,0,0,1-1.45.27,2,2,0,0,1-2.14-2.2,2.11,2.11,0,0,1,2-2.35,1.85,1.85,0,0,1,1.8,2.05,2.83,2.83,0,0,1,0,.37ZM109,65a1.13,1.13,0,0,0-1.1-1.29A1.31,1.31,0,0,0,106.66,65Z"/><path class="cls-4" d="M110.71,61.19h.79v2.72h0a1.47,1.47,0,0,1,.57-.56,1.64,1.64,0,0,1,.81-.22c.58,0,1.52.36,1.52,1.86v2.59h-.79v-2.5c0-.7-.26-1.3-1-1.3a1.14,1.14,0,0,0-1.06.79,1,1,0,0,0-.05.38v2.63h-.79Z"/><path class="cls-4" d="M116.63,62v1.25h1.13v.6h-1.13v2.35c0,.54.15.85.59.85a1.75,1.75,0,0,0,.46-.05l0,.59a2,2,0,0,1-.7.11,1.1,1.1,0,0,1-.85-.33,1.61,1.61,0,0,1-.31-1.13V63.83h-.68v-.6h.68v-1Z"/><path class="cls-4" d="M123,67.58l-.06-.55h0a1.62,1.62,0,0,1-1.33.65,1.24,1.24,0,0,1-1.33-1.25c0-1.05.94-1.63,2.62-1.62v-.09a.9.9,0,0,0-1-1,2.17,2.17,0,0,0-1.13.32l-.18-.52a2.7,2.7,0,0,1,1.43-.39c1.33,0,1.66.91,1.66,1.78v1.63a6.06,6.06,0,0,0,.07,1Zm-.12-2.22c-.86,0-1.85.13-1.85,1a.7.7,0,0,0,.75.76,1.08,1.08,0,0,0,1.05-.73.82.82,0,0,0,0-.25Z"/><path class="cls-4" d="M128.54,66.39c0,.45,0,.85,0,1.19h-.7l0-.71h0a1.64,1.64,0,0,1-1.44.81c-.69,0-1.5-.38-1.5-1.91V63.22h.79v2.41c0,.83.25,1.39,1,1.39a1.15,1.15,0,0,0,1-.72,1.16,1.16,0,0,0,.07-.41V63.22h.79Z"/><path class="cls-4" d="M129.75,66.77a2.07,2.07,0,0,0,1,.32c.58,0,.85-.29.85-.65s-.23-.58-.81-.8c-.78-.28-1.15-.71-1.15-1.23a1.34,1.34,0,0,1,1.5-1.28,2.18,2.18,0,0,1,1.07.27l-.2.58a1.7,1.7,0,0,0-.89-.25c-.47,0-.73.27-.73.59s.26.52.83.74c.76.29,1.14.67,1.14,1.31s-.59,1.31-1.63,1.31a2.49,2.49,0,0,1-1.22-.3Z"/><path class="cls-4" d="M136.14,61.51v6.07h-.78V61.51Z"/><path class="cls-4" d="M137.56,64.4c0-.45,0-.82,0-1.18h.7l0,.72h0a1.6,1.6,0,0,1,1.44-.82c.6,0,1.54.36,1.54,1.85v2.6h-.79V65.07c0-.7-.26-1.29-1-1.29a1.13,1.13,0,0,0-1.06.81,1.14,1.14,0,0,0-.05.37v2.62h-.79Z"/><path class="cls-4" d="M142.56,61.19h.79v2.72h0a1.47,1.47,0,0,1,.57-.56,1.63,1.63,0,0,1,.81-.22c.58,0,1.52.36,1.52,1.86v2.59h-.79v-2.5c0-.7-.26-1.3-1-1.3a1.14,1.14,0,0,0-1.06.79,1,1,0,0,0-.05.38v2.63h-.79Z"/><path class="cls-4" d="M150,67.58,149.9,67h0a1.62,1.62,0,0,1-1.33.65,1.24,1.24,0,0,1-1.33-1.25c0-1.05.94-1.63,2.62-1.62v-.09a.9.9,0,0,0-1-1,2.17,2.17,0,0,0-1.13.32l-.18-.52a2.7,2.7,0,0,1,1.43-.39c1.33,0,1.66.91,1.66,1.78v1.63a6.16,6.16,0,0,0,.07,1Zm-.12-2.22c-.86,0-1.85.13-1.85,1a.7.7,0,0,0,.75.76,1.08,1.08,0,0,0,1.05-.73.82.82,0,0,0,0-.25Z"/><path class="cls-4" d="M151.89,61.19h.79v6.39h-.79Z"/><path class="cls-4" d="M155,62v1.25h1.13v.6H155v2.35c0,.54.15.85.59.85A1.76,1.76,0,0,0,156,67l0,.59a2,2,0,0,1-.7.11,1.1,1.1,0,0,1-.85-.33,1.61,1.61,0,0,1-.31-1.13V63.83h-.68v-.6h.68v-1Z"/><path class="cls-4" d="M156.77,67.11a.53.53,0,0,1,.54-.57.57.57,0,1,1-.54.57Z"/></svg>