<svg id="Layer_1" data-name="Layer 1" xmlns="http://www.w3.org/2000/svg" viewBox="0 0 406.69 121"><defs><style>.cls-1{fill:#fff;}.cls-2,.cls-6,.cls-8{fill:none;}.cls-2{stroke:#232321;stroke-miterlimit:10;stroke-width:0.45px;}.cls-3{font-size:7px;font-family:OpenSans-Bold, Open Sans;font-weight:700;}.cls-3,.cls-4,.cls-5,.cls-7{fill:#20201e;}.cls-5{font-size:9px;}.cls-5,.cls-7{font-family:OpenSans, Open Sans;}.cls-6,.cls-8{stroke:#20201e;}.cls-6{stroke-width:3px;}.cls-7{font-size:6px;}.cls-8{stroke-width:0.3px;}</style></defs><title>PostRequest</title><rect class="cls-1" x="69.46" y="87.05" width="23.94" height="20.31"/><rect class="cls-2" x="69.46" y="87.05" width="23.94" height="20.31"/><rect class="cls-1" x="60.6" y="103.73" width="41.66" height="5.13"/><rect class="cls-2" x="60.6" y="103.73" width="41.66" height="5.13"/><path class="cls-1" d="M4.05.22H158.81a3.51,3.51,0,0,1,3.51,3.51V89a3.51,3.51,0,0,1-3.51,3.51H4.05A3.51,3.51,0,0,1,.54,89V3.73A3.51,3.51,0,0,1,4.05.22M9.76,84.45H153.13V8.15H9.76Z"/><path class="cls-2" d="M4.05.22H158.81a3.51,3.51,0,0,1,3.51,3.51V89a3.51,3.51,0,0,1-3.51,3.51H4.05A3.51,3.51,0,0,1,.54,89V3.73A3.51,3.51,0,0,1,4.05.22Zm5.7,84.22H153.13V8.15H9.76Z"/><text class="cls-3" transform="translate(0 120.42)">Browser</text><text class="cls-3" transform="translate(344.17 93.33)">Web-Server</text><path class="cls-4" d="M28.09,24.72H26.49A1.45,1.45,0,0,1,25,23.28V19.74a1.45,1.45,0,0,1,1.45-1.45h1.61a.17.17,0,0,1,.16.16c0,.14.07.48-.16.48H26.49a.81.81,0,0,0-.8.8v3.53a.81.81,0,0,0,.8.8h1.45c.13,0,.32,0,.32.16S28.32,24.72,28.09,24.72Zm4.72-3-2.73,2.73a.32.32,0,0,1-.23.1.32.32,0,0,1-.32-.32V22.8H27.29a.32.32,0,0,1-.32-.32V20.55a.32.32,0,0,1,.32-.32h2.25V18.78a.32.32,0,0,1,.32-.32.32.32,0,0,1,.23.1l2.73,2.73a.32.32,0,0,1,0,.45Z"/><text class="cls-5" transform="translate(33.4 24.72)"><tspan xml:space="preserve"> www.test.ch/test.html</tspan></text><path class="cls-4" d="M375.78,12.43a15.46,15.46,0,0,1,15.45,15.24c0,.31-.07.62-.08.95L391,32.39l3.58,1.24a10.26,10.26,0,0,1-3.35,20l-51.48,0A10.3,10.3,0,0,1,339.6,33c.24,0,.49.06.74.08l3.91.25,1.28-3.7a10.28,10.28,0,0,1,9.66-6.94,10.39,10.39,0,0,1,1.8.19l3.61.65,1.79-3.19a15.44,15.44,0,0,1,13.39-8m0-5.15A20.51,20.51,0,0,0,357.9,17.86,15.14,15.14,0,0,0,340.68,28c-.31,0-.6-.09-.92-.09a15.44,15.44,0,1,0,0,30.89l51.48,0a15.41,15.41,0,0,0,5-30c0-.31.09-.6.09-.92A20.59,20.59,0,0,0,375.77,7.28"/><rect class="cls-1" x="343.15" y="41.26" width="46.31" height="19.41"/><path class="cls-4" d="M384.38,38.3l-36.56,0a2.12,2.12,0,0,0-2.12,2.12v7.21a2.12,2.12,0,0,0,2.13,2.12l36.56,0a2.12,2.12,0,0,0,2.12-2.12V40.41a2.12,2.12,0,0,0-2.12-2.12m-34.86,5A1.31,1.31,0,1,1,350.82,42a1.31,1.31,0,0,1-1.31,1.31m31.41,3.74h-9.24V44h9.24v3.07Z"/><path class="cls-4" d="M384.39,50.9l-36.56,0a2.12,2.12,0,0,0-2.12,2.12v7.21a2.12,2.12,0,0,0,2.13,2.12l36.56,0a2.12,2.12,0,0,0,2.12-2.12V53a2.12,2.12,0,0,0-2.12-2.12M349.53,56a1.31,1.31,0,1,1,1.31-1.31A1.31,1.31,0,0,1,349.53,56m31.41,3.74H371.7V56.64h9.24V59.7Z"/><path class="cls-4" d="M384.4,63.51l-36.56,0a2.12,2.12,0,0,0-2.12,2.12v7.21A2.12,2.12,0,0,0,347.84,75l36.56,0a2.12,2.12,0,0,0,2.12-2.12V65.63a2.12,2.12,0,0,0-2.12-2.12m-34.86,5a1.31,1.31,0,1,1,1.31-1.31,1.3,1.3,0,0,1-1.31,1.31m31.41,3.74h-9.24V69.24h9.24v3.07Z"/><line class="cls-6" x1="164.98" y1="66.14" x2="327.79" y2="66.14"/><polyline class="cls-6" points="321.63 60.41 327.79 66.14 321.63 71.86"/><text class="cls-3" transform="translate(171.5 60.83)">POST-Anfrage überträgt URL und Daten</text><text class="cls-7" transform="translate(37.91 43.89)">Vorname</text><text class="cls-7" transform="translate(37.91 54.31)">Name</text><rect class="cls-8" x="74.41" y="39.29" width="49.25" height="8"/><rect class="cls-8" x="74.41" y="51.53" width="49.25" height="8"/></svg>