<svg id="Ebene_1" data-name="Ebene 1" xmlns="http://www.w3.org/2000/svg" viewBox="0 0 85.19 25.83"><defs><style>.cls-1{fill:#20201e;}</style></defs><title>cc-by-sa</title><path class="cls-1" d="M36.89,11.71l2.38,2.38,2.38-2.38h-.88q.3-2.12,2.7-2.12a2.34,2.34,0,0,1,2,1,5,5,0,0,1,.71,2.9,5,5,0,0,1-.77,2.91,2.38,2.38,0,0,1-2,1.09q-2.53,0-2.64-2.19h-3a5.2,5.2,0,0,0,1.78,3.47A5.35,5.35,0,0,0,43,20a5.92,5.92,0,0,0,4.5-1.83,6.42,6.42,0,0,0,1.73-4.6A6.64,6.64,0,0,0,47.61,8.9a5.81,5.81,0,0,0-4.5-1.82,5.24,5.24,0,0,0-3.49,1.21,5.36,5.36,0,0,0-1.78,3.42ZM50.13,6.46A9.37,9.37,0,0,1,53,13.4a9.18,9.18,0,0,1-2.83,6.88,9.63,9.63,0,0,1-7,2.94,9.48,9.48,0,0,1-6.94-2.91,9.38,9.38,0,0,1-2.91-6.9,9.58,9.58,0,0,1,2.93-6.94,9.75,9.75,0,0,1,13.86,0M34.71,4.9a11.74,11.74,0,0,0-3.54,8.51,11.55,11.55,0,0,0,3.54,8.46,11.61,11.61,0,0,0,8.44,3.54,11.85,11.85,0,0,0,8.59-3.56,11.43,11.43,0,0,0,3.43-8.44A11.53,11.53,0,0,0,51.68,4.9a12.05,12.05,0,0,0-17,0"/><path class="cls-1" d="M19,6.44a9.48,9.48,0,0,1,2.87,7A9.14,9.14,0,0,1,19,20.29a9.64,9.64,0,0,1-7,2.94,9.48,9.48,0,0,1-6.94-2.91,9.43,9.43,0,0,1-2.91-6.9,9.65,9.65,0,0,1,2.94-7A9.34,9.34,0,0,1,12,3.57,9.46,9.46,0,0,1,19,6.44M3.54,4.87A11.77,11.77,0,0,0,0,13.41a11.55,11.55,0,0,0,3.54,8.47A11.62,11.62,0,0,0,12,25.41a11.86,11.86,0,0,0,8.59-3.58A11.32,11.32,0,0,0,24,13.41a11.61,11.61,0,0,0-3.49-8.53A11.6,11.6,0,0,0,12,1.4,11.5,11.5,0,0,0,3.54,4.87M12,9a1.48,1.48,0,0,0,1.67-1.67A1.49,1.49,0,0,0,12,5.65a1.49,1.49,0,0,0-1.67,1.69A1.48,1.48,0,0,0,12,9m3,.87a.76.76,0,0,0-.54-.22H9.54a.77.77,0,0,0-.77.77v4.91h1.37v5.83h3.73V15.33h1.37V10.43A.73.73,0,0,0,15,9.88"/></svg>