<svg xmlns="http://www.w3.org/2000/svg" viewBox="0 0 303.04 72.37"><defs><style>.cls-1{fill:#222221;fill-rule:evenodd;}</style></defs><title>cc-logo</title><g id="Foreground"><path class="cls-1" d="M94.28,49.12c-2.76-5-7.46-7-12.93-7-8,0-14.28,5.63-14.28,15.15,0,9.68,5.95,15.14,14.55,15.14a14.64,14.64,0,0,0,12.82-7.63l-6.06-3.08c-1.35,3.25-3.41,4.22-6,4.22-4.49,0-6.54-3.73-6.54-8.65s1.73-8.66,6.54-8.66a6.18,6.18,0,0,1,5.41,3.95Z"/><path class="cls-1" d="M109.75,48.58c4.81,0,6.87,3.73,6.87,8.33,0,5.25-2.06,9-6.87,9s-6.87-3.73-6.87-8.65S104.93,48.58,109.75,48.58Zm0-6.49c-9,0-15.31,5.46-15.31,15.15s6.33,15.14,15.31,15.14,15.31-5.46,15.31-15.14S118.73,42.08,109.75,42.08Z"/><path class="cls-1" d="M126.78,71.62h8.44V53.71c0-2.6,1.08-4.81,4.49-4.81,3.25,0,4.11,1.89,4.11,4.71v18h8.44V53.93c0-2.92,1.46-5,4.27-5,3.19,0,4.33,1.84,4.33,5.9V71.62h8.44v-22c0-6.6-6.06-7.57-8.87-7.57a12.34,12.34,0,0,0-9.25,3.84,8.92,8.92,0,0,0-7.63-3.84c-2.6,0-6.17.76-8.33,3.3V42.84h-8.44Z"/><path class="cls-1" d="M172,71.62h8.44V53.71c0-2.6,1.08-4.81,4.49-4.81,3.25,0,4.11,1.89,4.11,4.71v18h8.44V53.93c0-2.92,1.46-5,4.27-5,3.19,0,4.33,1.84,4.33,5.9V71.62h8.44v-22c0-6.6-6.06-7.57-8.87-7.57a12.34,12.34,0,0,0-9.25,3.84,8.92,8.92,0,0,0-7.63-3.84c-2.6,0-6.17.76-8.33,3.3V42.84H172Z"/><path class="cls-1" d="M231.54,48.58c4.81,0,6.87,3.73,6.87,8.33,0,5.25-2.06,9-6.87,9s-6.87-3.73-6.87-8.65S226.73,48.58,231.54,48.58Zm0-6.49c-9,0-15.31,5.46-15.31,15.15s6.33,15.14,15.31,15.14,15.31-5.46,15.31-15.14S240.52,42.08,231.54,42.08Z"/><path class="cls-1" d="M249.12,71.62h8.44V53.71c0-2.6,1.08-4.81,4.49-4.81,3.25,0,4.11,1.89,4.11,4.71v18h8.44V50.36c0-4.33-1.89-8.28-8.71-8.28-2.6,0-6.17.76-8.33,3.3V42.84h-8.44Z"/><path class="cls-1" d="M302.77,46.25a23.12,23.12,0,0,0-12.71-4.16c-5.84,0-12.17,2.81-12.17,10.06,0,10.22,17,6.65,17,11.14,0,2.6-3.19,2.92-4.6,2.92-3.84,0-6.49-1.57-9.09-4.06L276,66.7c4.22,3.89,7.79,5.68,14.06,5.68s13-2.71,13-10.28c0-10.76-17-6.71-17-11.63,0-1.46,1.51-2.22,3.62-2.22,2.65,0,6.28,1.08,8,3.08Z"/><path class="cls-1" d="M94.28,16c-2.76-5-7.46-7-12.93-7-8,0-14.28,5.63-14.28,15.14,0,9.68,5.95,15.15,14.55,15.15a14.64,14.64,0,0,0,12.82-7.63l-6.06-3.08c-1.35,3.25-3.41,4.22-6,4.22-4.49,0-6.54-3.73-6.54-8.65s1.73-8.65,6.54-8.65a6.18,6.18,0,0,1,5.41,3.95Z"/><path class="cls-1" d="M96.34,38.51h8.44V21.85c0-3.19,2-4.06,7-4.65l.92-.11-.05-7.46a13.41,13.41,0,0,0-7.9,3V9.74H96.34Z"/><path class="cls-1" d="M141.39,25.85C141.33,17,137.76,9,127.27,9c-8.76,0-14.12,5.84-14.12,16,0,8.11,5.19,14.28,14.12,14.28,6.44,0,11-2.54,14-8L134.89,28c-2.43,3.46-3.89,5.08-7,5.08-2.7,0-6.22-1.73-6.27-7.25Zm-19.91-5.19a5.82,5.82,0,0,1,5.73-5.52,5.45,5.45,0,0,1,5.73,5.52Z"/><path class="cls-1" d="M160.74,26.5c0,4.38-2.49,6.6-5.79,6.6-2.06,0-3.95-1-3.95-3.25s1.95-3.14,4.06-3.73l5.68-1.62Zm8.11-9.2C168.8,10.82,163.88,9,156,9c-3.89,0-11.58.76-11.85,9h8.11c.43-2.87,1.73-3.84,4.44-3.84,2.27,0,4,.92,4,3.08v2.38l-3.08.43c-9.2,1.3-14.77,3.73-14.77,10.66,0,5.52,4.11,8.55,9.63,8.55,3,0,7.25-1.46,8.65-3.73h.11a11.52,11.52,0,0,0,.54,3h7.79a17,17,0,0,1-.76-6Z"/><path class="cls-1" d="M188.7,10.28h-5V1.95h-8.44v8.33h-4.11v5.19h4.11V30.62c0,4.16,1,8.65,8.22,8.65,1.84,0,4.33-.22,5.41-.32V32.29a25.1,25.1,0,0,1-2.54.16c-1.52,0-2.65-.6-2.65-2.87V15.47h5Z"/><path class="cls-1" d="M191.88,9.74V38.51h8.44V9.74Zm8.44-3.25V0h-8.44V6.49Z"/><polygon class="cls-1" points="211.67 38.51 220.16 38.51 230.01 9.74 221.03 9.74 216.05 30.07 215.94 30.07 210.97 9.74 201.93 9.74 211.67 38.51"/><path class="cls-1" d="M257.26,25.85C257.2,17,253.63,9,243.14,9,234.38,9,229,14.82,229,25c0,8.11,5.19,14.28,14.12,14.28,6.44,0,11-2.54,14-8L250.77,28c-2.43,3.46-3.89,5.08-7,5.08-2.7,0-6.22-1.73-6.27-7.25Zm-19.91-5.19a5.82,5.82,0,0,1,5.73-5.52,5.45,5.45,0,0,1,5.73,5.52Z"/><path class="cls-1" d="M31.6,8.5A30.47,30.47,0,0,0,9.38,17.7,31.91,31.91,0,0,0,0,40.19,31.12,31.12,0,0,0,9.29,62.5,31.36,31.36,0,0,0,31.6,71.87a32.18,32.18,0,0,0,22.66-9.46,30.52,30.52,0,0,0,9-22.23A31.42,31.42,0,0,0,31.6,8.5Zm.09,5.73a25.79,25.79,0,0,1,25.87,26,24.75,24.75,0,0,1-7.38,18.15,26.33,26.33,0,0,1-18.49,7.73,25.56,25.56,0,0,1-18.23-7.64A25.8,25.8,0,0,1,5.73,40.19a26.2,26.2,0,0,1,7.73-18.41A24.9,24.9,0,0,1,31.69,14.23Z"/><path class="cls-1" d="M31.28,34.92c-1.79-3.26-4.84-4.56-8.39-4.56-5.16,0-9.27,3.65-9.27,9.83S17.49,50,23.07,50a9.5,9.5,0,0,0,8.32-4.95l-3.93-2a3.85,3.85,0,0,1-3.9,2.74c-2.91,0-4.25-2.42-4.25-5.62s1.12-5.62,4.25-5.62a4,4,0,0,1,3.51,2.56Z"/><path class="cls-1" d="M49.56,34.92c-1.79-3.26-4.84-4.56-8.39-4.56C36,30.36,31.9,34,31.9,40.19S35.77,50,41.35,50a9.5,9.5,0,0,0,8.32-4.95l-3.93-2a3.85,3.85,0,0,1-3.9,2.74c-2.91,0-4.25-2.42-4.25-5.62s1.12-5.62,4.25-5.62a4,4,0,0,1,3.51,2.56Z"/></g></svg>